<svg xmlns="http://www.w3.org/2000/svg" width="193" height="204" viewBox="0 0 193 204">
  <g id="Grupo_1100655" data-name="Grupo 1100655" transform="translate(-1114.644 -2027.298)">
    <rect id="Rectángulo_401750" data-name="Rectángulo 401750" width="190" height="201" rx="40" transform="translate(1116.144 2028.798)" fill="none" stroke="#ff725d" stroke-miterlimit="10" stroke-width="3"/>
    <g id="Grupo_1100451" data-name="Grupo 1100451" transform="translate(1140.784 2043.211)">
      <path id="Trazado_875150" data-name="Trazado 875150" d="M114.386,72.186V172.693H4.591A4.59,4.59,0,0,1,0,168.1V72.186l54.52-3.957,52.031,3.44Z" transform="translate(0 -32.945)" fill="#f6f6f6"/>
      <path id="Trazado_875151" data-name="Trazado 875151" d="M285,80.531V181.038h-40.04a35.059,35.059,0,0,1,28.07-51.252,3.206,3.206,0,0,0,2.949-3.19V80.531l1.185-.517Z" transform="translate(-170.612 -41.29)" fill="#e8e8e8"/>
      <path id="Trazado_875152" data-name="Trazado 875152" d="M109.794,21.707H4.592A4.592,4.592,0,0,0,0,26.3V39.242H114.385V26.3A4.592,4.592,0,0,0,109.794,21.707Z" transform="translate(0 -0.001)" fill="#0d66bf"/>
      <path id="Trazado_875153" data-name="Trazado 875153" d="M358.9,26.3V39.241h-9.02V26.3a4.592,4.592,0,0,0-4.591-4.591h9.02A4.592,4.592,0,0,1,358.9,26.3Z" transform="translate(-244.511)" fill="#3b58c4"/>
      <path id="Trazado_875154" data-name="Trazado 875154" d="M207.862,152.556H157.8a3.286,3.286,0,0,1-3.286-3.286v-4.857a3.286,3.286,0,0,1,3.286-3.286h50.063a3.286,3.286,0,0,1,3.286,3.286v4.857A3.286,3.286,0,0,1,207.862,152.556Z" transform="translate(-109.417 -84.567)" fill="#d3d3d3"/>
      <path id="Trazado_875155" data-name="Trazado 875155" d="M58.609,147.195H47.053a3.7,3.7,0,0,1-3.7-3.7V131.944a3.7,3.7,0,0,1,3.7-3.7H58.609a3.7,3.7,0,0,1,3.7,3.7V143.5A3.7,3.7,0,0,1,58.609,147.195Z" transform="translate(-30.704 -75.447)" fill="#d3d3d3"/>
      <path id="Trazado_875156" data-name="Trazado 875156" d="M211.151,240.289v.731l-18.157,7.411H157.8a3.285,3.285,0,0,1-3.286-3.286v-4.856A3.285,3.285,0,0,1,157.8,237h50.061A3.285,3.285,0,0,1,211.151,240.289Z" transform="translate(-109.42 -152.461)" fill="#d3d3d3"/>
      <path id="Trazado_875157" data-name="Trazado 875157" d="M304.506,250.767v4.125a3.285,3.285,0,0,1-3.286,3.286H286.349A34.883,34.883,0,0,1,304.506,250.767Z" transform="translate(-202.775 -162.207)" fill="#d3d3d3"/>
      <path id="Trazado_875158" data-name="Trazado 875158" d="M58.609,243.069H47.053a3.7,3.7,0,0,1-3.7-3.7V227.818a3.7,3.7,0,0,1,3.7-3.7H58.609a3.7,3.7,0,0,1,3.7,3.7v11.555A3.7,3.7,0,0,1,58.609,243.069Z" transform="translate(-30.704 -143.34)" fill="#d3d3d3"/>
      <path id="Trazado_875159" data-name="Trazado 875159" d="M179.743,344.3H157.8a3.284,3.284,0,0,1-3.286-3.283v-4.859a3.287,3.287,0,0,1,3.286-3.286h23.666Z" transform="translate(-109.42 -220.349)" fill="#d3d3d3"/>
      <path id="Trazado_875160" data-name="Trazado 875160" d="M272.342,336.159v4.859a3.285,3.285,0,0,1-3.286,3.283H240.934c-.006-.174-.006-.352-.006-.529a34.924,34.924,0,0,1,1.732-10.9h26.4A3.287,3.287,0,0,1,272.342,336.159Z" transform="translate(-170.611 -220.35)" fill="#d3d3d3"/>
      <path id="Trazado_875161" data-name="Trazado 875161" d="M58.609,338.944H47.053a3.7,3.7,0,0,1-3.7-3.7V323.693a3.7,3.7,0,0,1,3.7-3.7H58.609a3.7,3.7,0,0,1,3.7,3.7v11.555A3.7,3.7,0,0,1,58.609,338.944Z" transform="translate(-30.704 -211.233)" fill="#d3d3d3"/>
      <g id="Grupo_1100444" data-name="Grupo 1100444" transform="translate(79.339 88.373)">
        <path id="Trazado_875162" data-name="Trazado 875162" d="M337.15,285.876c0,30.015-29.686,34.643-29.686,34.643l-5.088.116a35.05,35.05,0,0,1,0-69.517h6.654s28.12,4.95,28.12,34.759Z" transform="translate(-271.839 -250.828)" fill="#ff725d"/>
        <path id="Trazado_875163" data-name="Trazado 875163" d="M416.025,285.177a35.047,35.047,0,0,1-35.046,35.046,35.444,35.444,0,0,1-4.51-.289,35.051,35.051,0,0,0,0-69.517,35.441,35.441,0,0,1,4.51-.289A35.048,35.048,0,0,1,416.025,285.177Z" transform="translate(-345.932 -250.128)" fill="#ff725d"/>
        <g id="Grupo_1100443" data-name="Grupo 1100443" transform="translate(15.415 13.182)">
          <path id="Trazado_875164" data-name="Trazado 875164" d="M346.23,339.706l-1.942,24.54a2.766,2.766,0,0,1-1.257-.3l-4.756-2.426-12.027-6.131a2.959,2.959,0,0,1-1.591-2.646V332.481a3.039,3.039,0,0,1,.436-1.573l15.9,6.618Z" transform="translate(-324.657 -320.514)" fill="#53bced"/>
          <path id="Trazado_875165" data-name="Trazado 875165" d="M379.27,355.764l-1.942,24.54a2.766,2.766,0,0,1-1.257-.3l-4.756-2.427V353.686l2.715-.1Z" transform="translate(-357.697 -336.572)" fill="#53bced"/>
          <path id="Trazado_875166" data-name="Trazado 875166" d="M411.55,332.484v20.259a2.961,2.961,0,0,1-1.591,2.647l-16.781,8.556a2.766,2.766,0,0,1-1.259.3V340.7l7.53-5.785,11.664-4A3.03,3.03,0,0,1,411.55,332.484Z" transform="translate(-372.288 -320.517)" fill="#f3f9ff"/>
          <path id="Trazado_875167" data-name="Trazado 875167" d="M411.548,332.483v20.259a2.959,2.959,0,0,1-1.591,2.646l-16.78,8.557a2.788,2.788,0,0,1-1.26.3v-2.727l12.027-6.134a2.959,2.959,0,0,0,1.591-2.646V333.754l1.236-1.678,4.342-1.166A3.041,3.041,0,0,1,411.548,332.483Z" transform="translate(-372.287 -320.515)" fill="#f3f9ff"/>
          <path id="Trazado_875168" data-name="Trazado 875168" d="M364.541,305.692l-22.2,8.252-16.187-8.252a2.886,2.886,0,0,1,1.1-1.048l16.781-9.015.013-.007a2.761,2.761,0,0,1,2.612.007l16.781,9.015A2.878,2.878,0,0,1,364.541,305.692Z" transform="translate(-325.716 -295.296)" fill="#0d66bf"/>
          <path id="Trazado_875169" data-name="Trazado 875169" d="M403.816,305.689l-19.195,9.787-3.007-1.533,15.054-7.675a.918.918,0,0,0,.047-1.617l-.014-.007-15.087-8.106,1.693-.911c.006,0,.009,0,.015-.006a2.764,2.764,0,0,1,2.613.006l16.78,9.017A2.875,2.875,0,0,1,403.816,305.689Z" transform="translate(-364.991 -295.294)" fill="#0d66bf"/>
        </g>
      </g>
      <g id="Grupo_1100445" data-name="Grupo 1100445" transform="translate(10.572 46.782)">
        <path id="Trazado_875170" data-name="Trazado 875170" d="M47.779,127.834a2.254,2.254,0,0,1-1.6-.666l-9.3-9.36a2.255,2.255,0,1,1,3.2-3.179l7.644,7.694,12.961-13.977a2.255,2.255,0,0,1,3.307,3.067l-14.559,15.7a2.255,2.255,0,0,1-1.615.721h-.039Z" transform="translate(-36.224 -107.624)" fill="#ff725d"/>
      </g>
      <g id="Grupo_1100446" data-name="Grupo 1100446" transform="translate(10.572 74.764)">
        <path id="Trazado_875171" data-name="Trazado 875171" d="M47.779,223.708a2.254,2.254,0,0,1-1.6-.666l-9.3-9.36a2.255,2.255,0,0,1,3.2-3.179l7.644,7.694L60.684,204.22a2.255,2.255,0,0,1,3.307,3.067l-14.559,15.7a2.255,2.255,0,0,1-1.615.721h-.039Z" transform="translate(-36.224 -203.498)" fill="#ff725d"/>
      </g>
      <g id="Grupo_1100447" data-name="Grupo 1100447" transform="translate(10.572 102.745)">
        <path id="Trazado_875172" data-name="Trazado 875172" d="M47.779,319.582a2.254,2.254,0,0,1-1.6-.666l-9.3-9.36a2.255,2.255,0,1,1,3.2-3.179l7.644,7.694,12.961-13.977a2.255,2.255,0,0,1,3.307,3.067l-14.559,15.7a2.255,2.255,0,0,1-1.615.721h-.039Z" transform="translate(-36.224 -299.372)" fill="#ff725d"/>
      </g>
      <g id="Grupo_1100448" data-name="Grupo 1100448" transform="translate(61.491 28.219)">
        <path id="Trazado_875173" data-name="Trazado 875173" d="M252.308,48.532H212.943a2.255,2.255,0,0,1,0-4.51h39.365a2.255,2.255,0,1,1,0,4.51Z" transform="translate(-210.688 -44.022)" fill="#53bced"/>
      </g>
      <g id="Grupo_1100449" data-name="Grupo 1100449" transform="translate(8.318 28.219)">
        <circle id="Elipse_11495" data-name="Elipse 11495" cx="2.255" cy="2.255" r="2.255" transform="translate(8.898 0)" fill="#53bced"/>
        <circle id="Elipse_11496" data-name="Elipse 11496" cx="2.255" cy="2.255" r="2.255" transform="translate(0 0)" fill="#53bced"/>
      </g>
    </g>
  </g>
</svg>
