<svg xmlns="http://www.w3.org/2000/svg" xmlns:xlink="http://www.w3.org/1999/xlink" width="400.25" height="579.944" viewBox="0 0 400.25 579.944">
  <defs>
    <clipPath id="clip-path">
      <rect id="Rectángulo_401802" data-name="Rectángulo 401802" width="384.384" height="547" fill="none"/>
    </clipPath>
    <clipPath id="clip-path-3">
      <rect id="Rectángulo_401783" data-name="Rectángulo 401783" width="32.9" height="21.934" fill="none"/>
    </clipPath>
    <clipPath id="clip-path-4">
      <rect id="Rectángulo_401784" data-name="Rectángulo 401784" width="3.963" height="3.968" fill="none"/>
    </clipPath>
    <clipPath id="clip-path-5">
      <rect id="Rectángulo_401785" data-name="Rectángulo 401785" width="25.815" height="15.07" fill="none"/>
    </clipPath>
    <clipPath id="clip-path-6">
      <rect id="Rectángulo_401786" data-name="Rectángulo 401786" width="3.996" height="3.977" fill="none"/>
    </clipPath>
    <clipPath id="clip-path-7">
      <rect id="Rectángulo_401788" data-name="Rectángulo 401788" width="25.461" height="6.622" fill="none"/>
    </clipPath>
    <clipPath id="clip-path-9">
      <rect id="Rectángulo_401791" data-name="Rectángulo 401791" width="188.406" height="42.342" fill="none"/>
    </clipPath>
  </defs>
  <g id="Grupo_1100658" data-name="Grupo 1100658" transform="translate(-179.75 -4656.648)">
    <g id="Grupo_1100226" data-name="Grupo 1100226" transform="translate(-0.25 3865.378)">
      <g id="Grupo_54356" data-name="Grupo 54356" transform="translate(180 791.27)">
        <path id="Rectángulo_5159" data-name="Rectángulo 5159" d="M35.762,0H220.268A35.762,35.762,0,0,1,256.03,35.762V493.306a75.137,75.137,0,0,1-75.137,75.137H75.137A75.137,75.137,0,0,1,0,493.306V35.762A35.762,35.762,0,0,1,35.762,0Z" transform="translate(0 0)" fill="#53bced"/>
        <path id="Trazado_103528" data-name="Trazado 103528" d="M1011.214,795.493H942.875c-44.57,0-80.831-49.568-80.831-110.495V280.4c0-29.417,17.507-53.35,39.028-53.35h151.945c21.519,0,39.027,23.933,39.027,53.35V685C1092.044,745.925,1055.784,795.493,1011.214,795.493ZM901.072,229.952c-20.35,0-36.9,22.631-36.9,50.447V685c0,59.326,35.308,107.592,78.708,107.592h68.339c43.4,0,78.707-48.266,78.707-107.592V280.4c0-27.816-16.555-50.447-36.9-50.447Z" transform="translate(-777.044 -227.049)" fill="#db6e5f"/>
      </g>
    </g>
    <g id="Grupo_1100522" data-name="Grupo 1100522" transform="translate(195.616 4689.592)">
      <g id="Grupo_1100521" data-name="Grupo 1100521" clip-path="url(#clip-path)">
        <g id="Grupo_1100487" data-name="Grupo 1100487">
          <g id="Grupo_1100523" data-name="Grupo 1100523">
            <path id="Trazado_875322" data-name="Trazado 875322" d="M164,425.283c-.194,0-.35-24.116-.35-53.858s.156-53.862.35-53.862.35,24.112.35,53.862-.156,53.858-.35,53.858" transform="translate(56.752 110.129)" fill="#e0e0e0"/>
            <rect id="Rectángulo_401775" data-name="Rectángulo 401775" width="10.754" height="12.158" transform="translate(233.246 511.55)" fill="#fafafa"/>
            <rect id="Rectángulo_401776" data-name="Rectángulo 401776" width="15.934" height="23.085" transform="translate(158.413 428.264)" fill="#e0e0e0"/>
            <rect id="Rectángulo_401777" data-name="Rectángulo 401777" width="15.934" height="23.085" transform="translate(158.413 512.768)" fill="#e0e0e0"/>
            <rect id="Rectángulo_401779" data-name="Rectángulo 401779" width="13.56" height="15.328" transform="translate(153.527 504.917)" fill="#fafafa"/>
          </g>
        </g>
        <g id="Grupo_1100507" data-name="Grupo 1100507">
          <g id="Grupo_1100506" data-name="Grupo 1100506" clip-path="url(#clip-path)">
            <path id="Trazado_875324" data-name="Trazado 875324" d="M119.537,31.38a43.012,43.012,0,0,1,9.721,27.553c-.062,5.679-1.108,11.945,2.2,16.566,2.508,3.507,7.081,5.262,9.118,9.063,2.451,4.57.362,10.341,1.869,15.3,2.137,7.034,10.376,9.974,15.261,15.468a19.526,19.526,0,0,1,4.1,17.877,20.131,20.131,0,0,1-12.628,13.366c-3.235,1.119-6.933,1.36-10-.167-3.3-1.647-5.345-5.025-7-8.325C128.923,131.6,100.41,96.5,98.795,89.431" transform="translate(34.262 10.882)" fill="#263238"/>
            <path id="Trazado_875325" data-name="Trazado 875325" d="M112.912,25.309c-11.661-1.877-22.866,5.864-27.779,16.6s-5.046,22.955-5.409,34.758-1.192,24.128-7.217,34.284c-3.825,6.447-9.747,12.1-10.676,19.539-.831,6.66,2.615,13.367,1.472,19.98-1,5.758-5.383,10.766-5.211,16.607.21,7.025,7.437,12.319,14.463,12.508s13.592-3.494,19.1-7.859a73.475,73.475,0,0,0,20.968-26.644" transform="translate(20.144 8.68)" fill="#263238"/>
            <path id="Trazado_875326" data-name="Trazado 875326" d="M84.6,52.274a22.077,22.077,0,0,1,19.841-24.723c11.768-1.122,22.228,7.64,23.99,19.331,1.546,10.246,2.875,20.591,2.828,24.347-.145,11.329-6.773,15.74-9.46,17.064a14.752,14.752,0,0,1-2.982.742.074.074,0,0,0-.062.088l2.514,13c1.141,8.521-3.615,16.12-12.123,17.36-8.535,1.244-15.207-5.3-16.509-13.828Z" transform="translate(29.278 9.521)" fill="#ffbe9d"/>
            <path id="Trazado_875327" data-name="Trazado 875327" d="M117.2,45.928c-.187.265-1.684-.537-3.6-.253-1.919.257-3.182,1.449-3.425,1.244-.117-.089.047-.541.594-1.077a4.948,4.948,0,0,1,2.7-1.283,4.767,4.767,0,0,1,2.908.492c.656.368.916.758.823.878" transform="translate(38.194 15.436)" fill="#263238"/>
            <path id="Trazado_875328" data-name="Trazado 875328" d="M104.533,49.005c-.187.265-1.685-.537-3.6-.253-1.919.257-3.182,1.449-3.425,1.244-.117-.089.044-.541.594-1.077a4.948,4.948,0,0,1,2.7-1.283,4.755,4.755,0,0,1,2.908.492c.655.368.917.758.824.878" transform="translate(33.803 16.503)" fill="#263238"/>
            <path id="Trazado_875329" data-name="Trazado 875329" d="M108.735,60.355a12.811,12.811,0,0,1,3.033-1.015c.482-.123.932-.287.966-.633a2.528,2.528,0,0,0-.539-1.4q-.949-1.677-1.992-3.516c-2.785-5.017-4.877-9.17-4.673-9.279s2.625,3.865,5.41,8.881c.673,1.239,1.319,2.419,1.934,3.549a2.871,2.871,0,0,1,.533,1.886,1.236,1.236,0,0,1-.7.832,3.376,3.376,0,0,1-.815.237,12.631,12.631,0,0,1-3.157.465" transform="translate(36.593 15.434)" fill="#263238"/>
            <path id="Trazado_875330" data-name="Trazado 875330" d="M114.379,73.837s-7.316,1.688-17.389-2.529c0,0,4.349,9.362,18.066,6.034Z" transform="translate(33.636 24.729)" fill="#eb996e"/>
            <path id="Trazado_875331" data-name="Trazado 875331" d="M104.222,45.162c-.113.549-2.065.58-4.275,1.18-2.222.555-3.941,1.477-4.307,1.055-.166-.2.079-.742.739-1.354a7.708,7.708,0,0,1,6.537-1.7c.874.213,1.351.562,1.305.822" transform="translate(33.15 15.321)" fill="#263238"/>
            <path id="Trazado_875332" data-name="Trazado 875332" d="M115.906,42.807c-.275.485-1.661.225-3.253.436-1.6.154-2.893.719-3.269.31-.168-.2-.019-.669.508-1.168a4.754,4.754,0,0,1,5.254-.6c.626.365.877.787.76,1.021" transform="translate(37.911 14.307)" fill="#263238"/>
            <path id="Trazado_875333" data-name="Trazado 875333" d="M99.634,50.927a1.6,1.6,0,0,0,1.817,1.286,1.527,1.527,0,0,0,1.34-1.725,1.6,1.6,0,0,0-1.815-1.288,1.527,1.527,0,0,0-1.341,1.727" transform="translate(34.546 17.057)" fill="#263238"/>
            <path id="Trazado_875334" data-name="Trazado 875334" d="M112.242,48.2a1.594,1.594,0,0,0,1.817,1.286,1.527,1.527,0,0,0,1.34-1.725,1.6,1.6,0,0,0-1.815-1.288,1.526,1.526,0,0,0-1.341,1.727" transform="translate(38.919 16.111)" fill="#263238"/>
            <path id="Trazado_875335" data-name="Trazado 875335" d="M110.944,59.071a2.392,2.392,0,0,0-2.8,1.162,2.452,2.452,0,0,0,.339,2.847,2.16,2.16,0,0,0,2.8.2,2.674,2.674,0,0,0,.879-1.832,2.561,2.561,0,0,0-.435-1.83,1.5,1.5,0,0,0-1.712-.519" transform="translate(37.4 20.45)" fill="#eb996e"/>
            <path id="Trazado_875336" data-name="Trazado 875336" d="M124,38.679a17.366,17.366,0,0,0-7.383-10.38A19.342,19.342,0,0,0,106.3,24.681a14.129,14.129,0,0,0-10.148,3.685,10.54,10.54,0,0,0-3.076,7.3l.215-1.883a6.856,6.856,0,0,0,.023,4.746l0,.009v-.008c.312.826.687,1.651,1.018,2.478a10.6,10.6,0,0,0,5.036,5.479,6.862,6.862,0,0,0,3.367.82,4.077,4.077,0,0,0,3.052-1.487c1.013-1.327.894-3.166.73-4.827a11.7,11.7,0,0,0,3.675,4.114c1.611.927,3.938.894,5.071-.578,1.1-1.426.664-3.475.028-5.157A10.2,10.2,0,0,0,119.5,43a3.752,3.752,0,0,0,3,.314,2.9,2.9,0,0,0,1.561-2.016A6.045,6.045,0,0,0,124,38.679" transform="translate(32.21 8.557)" fill="#263238"/>
            <path id="Trazado_875337" data-name="Trazado 875337" d="M113.4,41.783c-.123,0-.1-1.6-.62-4.081a15.517,15.517,0,0,0-4.652-8.443,11.161,11.161,0,0,0-4.66-2.516,10.135,10.135,0,0,0-4.337-.109,12.9,12.9,0,0,0-3.749,1.556c-.024-.027.233-.342.826-.77a8.36,8.36,0,0,1,2.816-1.269,10.079,10.079,0,0,1,4.594-.036,11.388,11.388,0,0,1,4.976,2.62,15.067,15.067,0,0,1,4.672,8.875,17.9,17.9,0,0,1,.242,3.055,3.136,3.136,0,0,1-.109,1.119" transform="translate(33.079 8.971)" fill="#455a64"/>
            <path id="Trazado_875338" data-name="Trazado 875338" d="M225.68,168.693l-51.786-20.529s-26.529-34.789-25.976-35.464L129.3,133.095l27.064,36.638,62.718,14.681,29.7.24c-2.3-11.425-23.1-15.961-23.1-15.961" transform="translate(44.84 39.084)" fill="#ffbe9d"/>
            <path id="Trazado_875339" data-name="Trazado 875339" d="M135.68,81.292l-7.05-2.733L98.163,82.422V87.8l-.873.106a62.333,62.333,0,0,0-18.663,7.243,31.846,31.846,0,0,0-14.866,32.417c1.239,7.7,3.64,17.068,8.268,22.479,8.847,10.35,16.928-2.44,16.928-2.44s5.553,12.667,5.234,18.657c-.267,5.017-2.486,15.471-3.2,18.735a.989.989,0,0,0,.8,1.184l64.266,11.881.314-15.706-2.043-64.61L151.488,92.66s.09-11.988-15.809-11.368" transform="translate(21.969 27.244)" fill="#ff725d"/>
            <path id="Trazado_875340" data-name="Trazado 875340" d="M128.061,85.929l24.5,35.4-19.728,24.031Z" transform="translate(44.411 29.8)" fill="#ff725d"/>
            <path id="Trazado_875341" data-name="Trazado 875341" d="M133.832,156.029a14.176,14.176,0,0,1-.1-2.285c-.019-1.587-.046-3.682-.077-6.219a191.619,191.619,0,0,0-1.468-20.439,204.235,204.235,0,0,0-3.74-20.156c-.58-2.47-1.061-4.513-1.424-6.059a14.182,14.182,0,0,1-.453-2.241,14.258,14.258,0,0,1,.716,2.172c.419,1.41.987,3.463,1.642,6.009a167.211,167.211,0,0,1,3.954,20.183,158.764,158.764,0,0,1,1.267,20.527c-.026,2.63-.063,4.76-.145,6.229a14.177,14.177,0,0,1-.176,2.28" transform="translate(43.893 34.204)" fill="#263238"/>
            <path id="Trazado_875342" data-name="Trazado 875342" d="M95.467,101.344c0,.113-1.86.09-4.843.249a76.364,76.364,0,0,0-22.753,4.712c-2.8,1.038-4.494,1.8-4.543,1.7a4.648,4.648,0,0,1,1.127-.668c.742-.395,1.848-.908,3.235-1.49A62.7,62.7,0,0,1,90.606,101.1c1.5-.018,2.722.015,3.561.082a4.753,4.753,0,0,1,1.3.164" transform="translate(21.962 35.059)" fill="#fafafa"/>
            <path id="Trazado_875343" data-name="Trazado 875343" d="M134.792,113.324a12.229,12.229,0,0,1-3.055.664,67.572,67.572,0,0,1-15.044.514,12.263,12.263,0,0,1-3.092-.453,15.872,15.872,0,0,1,3.118-.042c1.918.034,4.566.054,7.487-.044s5.561-.3,7.472-.469a15.949,15.949,0,0,1,3.114-.171" transform="translate(39.397 39.287)" fill="#fafafa"/>
            <path id="Trazado_875344" data-name="Trazado 875344" d="M140.633,101.418c.125.131-2.044,2.3-5.257,4.253s-6.121,2.914-6.18,2.743c-.078-.191,2.672-1.409,5.814-3.341s5.487-3.811,5.623-3.655" transform="translate(44.804 35.168)" fill="#fafafa"/>
            <path id="Trazado_875345" data-name="Trazado 875345" d="M134.293,89.229c.121.12-2.769,2.718-7.135,4.549-4.357,1.863-8.233,2.131-8.234,1.96-.038-.215,3.71-.785,7.96-2.6,4.263-1.786,7.281-4.081,7.41-3.9" transform="translate(41.242 30.941)" fill="#fafafa"/>
            <path id="Trazado_875346" data-name="Trazado 875346" d="M140.5,133.668a5.7,5.7,0,0,1-1.273.669c-.835.4-2.074.9-3.626,1.472a66.671,66.671,0,0,1-25.4,3.9c-1.651-.077-2.985-.189-3.9-.316a5.6,5.6,0,0,1-1.414-.256c.011-.114,2.043.05,5.327.077a78.953,78.953,0,0,0,25.231-3.876c3.125-1.01,5.015-1.778,5.06-1.671" transform="translate(36.373 46.352)" fill="#fafafa"/>
            <path id="Trazado_875347" data-name="Trazado 875347" d="M147.967,147.225a2.409,2.409,0,0,1-.575.326l-1.705.808c-1.481.7-3.675,1.616-6.423,2.642s-6.073,2.112-9.815,3.141a125.133,125.133,0,0,1-12.349,2.617,124.933,124.933,0,0,1-12.564,1.248c-3.879.154-7.376.139-10.306-.019s-5.3-.352-6.921-.572l-1.871-.255a2.348,2.348,0,0,1-.646-.136,2.393,2.393,0,0,1,.663,0l1.88.123c1.63.137,3.993.265,6.913.349s6.4.057,10.257-.132c3.853-.226,8.082-.625,12.487-1.294,4.4-.7,8.551-1.6,12.291-2.549,3.732-.989,7.059-2.008,9.813-2.982s4.972-1.8,6.483-2.427c.7-.273,1.278-.5,1.756-.687a2.357,2.357,0,0,1,.632-.2" transform="translate(29.405 51.056)" fill="#fafafa"/>
            <path id="Trazado_875348" data-name="Trazado 875348" d="M49.353,359.806l-7.279,32.906L28.811,417.078a3.453,3.453,0,0,0,4.75,4.646c6.171-3.565,28.8-16.792,29.2-19.23.462-2.824,9.984-34.2,9.984-34.2Z" transform="translate(9.846 124.779)" fill="#ff725d"/>
            <g id="Grupo_1100490" data-name="Grupo 1100490" transform="translate(40.25 525.066)" opacity="0.6">
              <g id="Grupo_1100489" data-name="Grupo 1100489">
                <g id="Grupo_1100488" data-name="Grupo 1100488" clip-path="url(#clip-path-3)">
                  <path id="Trazado_875349" data-name="Trazado 875349" d="M29.886,411.444l32.9-21.581-.341,1.387a5.2,5.2,0,0,1-2,2.979c-2.677,1.933-10.187,7.107-27.3,17.1a3.447,3.447,0,0,1-3.257.117" transform="translate(-29.886 -389.863)" fill="#fff"/>
                </g>
              </g>
            </g>
            <g id="Grupo_1100493" data-name="Grupo 1100493" transform="translate(67.726 512.723)" opacity="0.6">
              <g id="Grupo_1100492" data-name="Grupo 1100492">
                <g id="Grupo_1100491" data-name="Grupo 1100491" clip-path="url(#clip-path-4)">
                  <path id="Trazado_875350" data-name="Trazado 875350" d="M51.584,380.835a2.089,2.089,0,0,0-1.205,2.513,2.008,2.008,0,0,0,2.481,1.218,2.2,2.2,0,0,0,1.263-2.668,2.086,2.086,0,0,0-2.722-.98" transform="translate(-50.287 -380.698)" fill="#fff"/>
                </g>
              </g>
            </g>
            <path id="Trazado_875351" data-name="Trazado 875351" d="M39.549,397.94c-.207.044-.525-1.851-2.245-3.25-1.678-1.451-3.6-1.433-3.592-1.646-.008-.088.469-.24,1.261-.16a5.507,5.507,0,0,1,4.514,3.786c.217.768.149,1.263.062,1.27" transform="translate(11.691 136.243)" fill="#263238"/>
            <path id="Trazado_875352" data-name="Trazado 875352" d="M36.971,400.364c-.19.1-.979-1.219-2.554-2.118-1.554-.935-3.094-.979-3.095-1.2-.054-.19,1.692-.5,3.469.558,1.789,1.037,2.372,2.711,2.179,2.757" transform="translate(10.862 137.628)" fill="#263238"/>
            <path id="Trazado_875353" data-name="Trazado 875353" d="M44.428,394.776c-.191.119-1.4-1.922-3.72-3.535-2.3-1.651-4.625-2.1-4.578-2.323-.011-.187,2.532-.046,5,1.719,2.488,1.737,3.473,4.088,3.293,4.14" transform="translate(12.53 134.853)" fill="#263238"/>
            <path id="Trazado_875354" data-name="Trazado 875354" d="M46.73,386.68c-.136.175-1.759-1.025-4.09-1.686-2.323-.695-4.337-.555-4.357-.776-.05-.182,2.066-.676,4.564.065,2.5.718,4.024,2.271,3.883,2.4" transform="translate(13.276 133.131)" fill="#263238"/>
            <path id="Trazado_875355" data-name="Trazado 875355" d="M48.594,379.538c-.148.164-1.7-1.372-4.211-1.868-2.5-.553-4.537.234-4.607.024-.036-.082.422-.4,1.283-.656a7.521,7.521,0,0,1,6.622,1.385c.69.575.979,1.055.913,1.115" transform="translate(13.793 130.667)" fill="#263238"/>
            <path id="Trazado_875356" data-name="Trazado 875356" d="M44.667,377.716a2.9,2.9,0,0,1,.26-1.248,8.842,8.842,0,0,1,1.779-3,3.927,3.927,0,0,1,2.082-1.42,1.386,1.386,0,0,1,1.445.673,2.253,2.253,0,0,1,.155,1.6,4.879,4.879,0,0,1-5.23,3.367,5.66,5.66,0,0,1-4.695-4.2,1.96,1.96,0,0,1,.3-1.609,1.361,1.361,0,0,1,1.556-.361,4.833,4.833,0,0,1,1.88,1.65,9.885,9.885,0,0,1,1.611,3.091,3,3,0,0,1,.225,1.255,15.687,15.687,0,0,0-2.242-4.017,4.5,4.5,0,0,0-1.675-1.4.725.725,0,0,0-.848.191,1.348,1.348,0,0,0-.135,1.069,5.052,5.052,0,0,0,4.112,3.595,4.237,4.237,0,0,0,4.482-2.793,1.639,1.639,0,0,0-.062-1.126.753.753,0,0,0-.792-.383,3.556,3.556,0,0,0-1.786,1.17,13.106,13.106,0,0,0-2.42,3.892" transform="translate(14.016 128.806)" fill="#263238"/>
            <g id="Grupo_1100496" data-name="Grupo 1100496" transform="translate(56.776 484.586)" opacity="0.3">
              <g id="Grupo_1100495" data-name="Grupo 1100495">
                <g id="Grupo_1100494" data-name="Grupo 1100494" clip-path="url(#clip-path-5)">
                  <path id="Trazado_875357" data-name="Trazado 875357" d="M43.73,363.377l-1.574,7.547,23.829,3.951,1.987-6.58L44.58,359.806Z" transform="translate(-42.156 -359.806)"/>
                </g>
              </g>
            </g>
            <g id="Grupo_1100499" data-name="Grupo 1100499" transform="translate(146.416 520.159)" opacity="0.6">
              <g id="Grupo_1100498" data-name="Grupo 1100498">
                <g id="Grupo_1100497" data-name="Grupo 1100497" clip-path="url(#clip-path-6)">
                  <path id="Trazado_875359" data-name="Trazado 875359" d="M110.28,386.29a2.088,2.088,0,0,0-1.535,2.326,2.008,2.008,0,0,0,2.292,1.543,2.2,2.2,0,0,0,1.613-2.473,2.084,2.084,0,0,0-2.563-1.34" transform="translate(-108.714 -386.22)" fill="#fff"/>
                </g>
              </g>
            </g>
            <path id="Trazado_875361" data-name="Trazado 875361" d="M123.4,388.271c-.017.249-1.27.314-2.529,1.069-1.279.722-1.954,1.779-2.18,1.671-.229-.058.2-1.535,1.743-2.423s3.03-.544,2.967-.318" transform="translate(41.142 134.559)" fill="#263238"/>
            <path id="Trazado_875362" data-name="Trazado 875362" d="M127,390.033c.047.244-1.05.626-1.938,1.65-.92,1-1.177,2.129-1.426,2.109-.236.031-.352-1.438.777-2.69S127,389.795,127,390.033" transform="translate(42.821 135.223)" fill="#263238"/>
            <path id="Trazado_875363" data-name="Trazado 875363" d="M128.234,395.946c-.229.044-.528-1.216.166-2.559s1.883-1.841,1.981-1.628c.132.21-.655.914-1.207,2.026-.579,1.1-.691,2.147-.94,2.162" transform="translate(44.379 135.844)" fill="#263238"/>
            <path id="Trazado_875364" data-name="Trazado 875364" d="M123.383,383.972c-.113.224-1.246-.166-2.66-.124-1.415.012-2.532.443-2.653.224-.139-.186.97-1.068,2.637-1.094s2.807.8,2.676.994" transform="translate(40.942 132.815)" fill="#263238"/>
            <g id="Grupo_1100505" data-name="Grupo 1100505" transform="translate(139.814 500.035)" opacity="0.3">
              <g id="Grupo_1100504" data-name="Grupo 1100504">
                <g id="Grupo_1100503" data-name="Grupo 1100503" clip-path="url(#clip-path-7)">
                  <path id="Trazado_875365" data-name="Trazado 875365" d="M129.272,373.213l-.345,4.687-25.115-1.2.168-5.418Z" transform="translate(-103.812 -371.278)"/>
                </g>
              </g>
            </g>
            <path id="Trazado_875366" data-name="Trazado 875366" d="M124.206,380.9a4.8,4.8,0,0,1-2.56-.112,11.546,11.546,0,0,1-2.646-.928,12.162,12.162,0,0,1-1.44-.836,3.119,3.119,0,0,1-.75-.633,1.088,1.088,0,0,1-.062-1.332,1.366,1.366,0,0,1,1.115-.528,3.355,3.355,0,0,1,.955.17,9.26,9.26,0,0,1,1.57.607,9.047,9.047,0,0,1,2.3,1.642c1.143,1.145,1.511,2.093,1.425,2.137-.117.078-.664-.726-1.836-1.68a10.225,10.225,0,0,0-2.233-1.375,9.59,9.59,0,0,0-1.452-.51c-.537-.163-1-.185-1.146.051-.054.09-.061.125.046.288a2.579,2.579,0,0,0,.551.462,13.759,13.759,0,0,0,1.323.826,14.258,14.258,0,0,0,2.439,1.045,17.69,17.69,0,0,1,2.4.706" transform="translate(40.418 130.579)" fill="#263238"/>
            <path id="Trazado_875367" data-name="Trazado 875367" d="M122.131,382.1a4.072,4.072,0,0,1-.579-2.5,8.284,8.284,0,0,1,1.17-4.319,2.12,2.12,0,0,1,1.683-1.23,1.2,1.2,0,0,1,1.041.756,3.445,3.445,0,0,1,.226.949,5.668,5.668,0,0,1-.065,1.724,5.9,5.9,0,0,1-1.2,2.6c-1.05,1.286-2.1,1.545-2.121,1.459-.079-.128.809-.576,1.624-1.82a5.91,5.91,0,0,0,.9-2.374,5.289,5.289,0,0,0,.011-1.481c-.059-.547-.246-.993-.451-.945-.255-.013-.7.378-.928.8a8.514,8.514,0,0,0-.688,1.363,9.188,9.188,0,0,0-.6,2.536c-.128,1.5.1,2.443-.035,2.475" transform="translate(42.154 129.72)" fill="#263238"/>
            <path id="Trazado_875368" data-name="Trazado 875368" d="M99.14,159.27s-8.117.356-13.465,27.995S39.217,438.832,39.217,438.832l29.774.269,56.167-212.9-3.732,219.478L151.673,448s22.7-242.809,22.913-256.936c.267-17.613-9.849-35.43-9.849-35.43Z" transform="translate(13.6 53.973)" fill="#263238"/>
            <path id="Trazado_875369" data-name="Trazado 875369" d="M117.828,156.577c.19.039-2.9,15.829-6.9,35.263s-7.4,35.164-7.588,35.124,2.9-15.825,6.9-35.266,7.4-35.161,7.587-35.122" transform="translate(35.835 54.3)" fill="#455a64"/>
            <path id="Trazado_875370" data-name="Trazado 875370" d="M118.137,159.527c-.051-.069.807-.323,1.731.5a2.493,2.493,0,0,1,.811,1.9,2.516,2.516,0,0,1-4.05,1.708,2.5,2.5,0,0,1-.8-1.911c.054-1.238.835-1.674.848-1.589a3.712,3.712,0,0,0-.353,1.576,2.108,2.108,0,0,0,.719,1.432,1.933,1.933,0,0,0,2.989-1.259,2.112,2.112,0,0,0-.523-1.514c-.656-.76-1.39-.734-1.375-.848" transform="translate(40.17 55.292)" fill="#455a64"/>
            <path id="Trazado_875371" data-name="Trazado 875371" d="M117.378,167.665c-.018-.085.838.028,1.305,1.121a2.348,2.348,0,0,1-.084,1.982,2.373,2.373,0,0,1-4.178-.326,2.35,2.35,0,0,1,.225-1.972c.632-1.006,1.494-.986,1.463-.9.044.105-.634.272-1.025,1.137a1.956,1.956,0,0,0-.059,1.507,1.786,1.786,0,0,0,3.015.234,1.956,1.956,0,0,0,.174-1.5c-.252-.914-.9-1.184-.836-1.282" transform="translate(39.638 58.099)" fill="#455a64"/>
            <path id="Trazado_875372" data-name="Trazado 875372" d="M102.6,159.711a5.016,5.016,0,0,1-.354,1.385,22.752,22.752,0,0,1-1.57,3.565,26.214,26.214,0,0,1-20.716,13.652,22.769,22.769,0,0,1-3.895.036,5.028,5.028,0,0,1-1.411-.22c.005-.132,2.034.1,5.253-.31a27.345,27.345,0,0,0,20.339-13.4c1.643-2.8,2.232-4.751,2.356-4.706" transform="translate(25.888 55.387)" fill="#455a64"/>
            <path id="Trazado_875373" data-name="Trazado 875373" d="M140.905,180.3c-.03.039-.343-.154-.894-.539a16.144,16.144,0,0,1-2.16-1.848,22.94,22.94,0,0,1-6.586-17.095,15.865,15.865,0,0,1,.358-2.819,3.013,3.013,0,0,1,.3-1c.127.023-.16,1.475-.166,3.83a25.014,25.014,0,0,0,6.452,16.741c1.582,1.743,2.772,2.626,2.694,2.729" transform="translate(45.511 54.446)" fill="#455a64"/>
            <path id="Trazado_875374" data-name="Trazado 875374" d="M78.446,137.48l13.228.733a66.6,66.6,0,0,0,3.74,10.846c10.648-18.483,18.9-43.246,20.952-53.2-.3-.994-.652-2.094-1.094-3.324-.509-1.418-.073-4.105.168-5.6.357-2.214.976-5.195,1.164-6.576.567-4.2,1.244-4.865,2.711-4.389,1.995.648-.818,11.809.818,12.051.878.132,1.953-3.693,2.264-6.832s1.731-12.789,2.768-13.433c1.521-.943,2.847.547,2.462,3.674-.388,3.164-.878,12.593.78,12.72,1.634.127,3.006-15.877,3.006-15.877s-.259-3.483,1.662-3.4c3.463.151.757,17.022.461,18.619-.207,1.112,1.592,1.317,1.749.109.163-1.242,1-16,4.525-15.884,2.706.092-2.1,13.9-.578,17.1s2.575-10.874,5.16-10.681c.962.074,1.673.261-.094,8.226-.949,4.283-3.74,12.153-6.179,18.669-4.1,22.087-22.067,92.744-50.242,79.811-15.767-7.236-23.123-43.071-23.123-43.071Z" transform="translate(22.456 22.499)" fill="#ffbe9d"/>
            <path id="Trazado_875375" data-name="Trazado 875375" d="M125.206,101.158a2.083,2.083,0,0,1,.133-.483l.471-1.39c.44-1.273,1.057-3.059,1.844-5.332.785-2.318,1.749-5.158,2.708-8.494.493-1.665.889-3.469,1.261-5.4.178-.966.362-1.962.474-2.983a9.781,9.781,0,0,0,.071-1.533c-.038-.525-.117-.954-.532-.962-.43-.116-.716.238-1.011.686a8.4,8.4,0,0,0-.667,1.492c-.378,1.061-.673,2.19-.967,3.345s-.564,2.345-.916,3.556a5.5,5.5,0,0,1-.808,1.857.72.72,0,0,1-.369.222.621.621,0,0,1-.506-.113,1.668,1.668,0,0,1-.372-.509,3.59,3.59,0,0,1-.284-1.028c-.24-2.7.376-5.316.8-8.028.23-1.352.475-2.721.652-4.105a19.059,19.059,0,0,0,.168-2.078c.026-.638-.088-1.5-.366-1.623-.345-.131-.968.26-1.3.831a8.608,8.608,0,0,0-.882,1.91,29.4,29.4,0,0,0-1.036,4.308c-.256,1.483-.455,2.994-.622,4.525q-.111,1.152-.225,2.312l-.1,1.17a1.74,1.74,0,0,1-.535,1.358,1.381,1.381,0,0,1-1.595.062,1.115,1.115,0,0,1-.482-.765,1.359,1.359,0,0,1,.007-.432l.051-.288q.178-1.172.36-2.354c.222-1.581.415-3.18.567-4.792s.264-3.24.29-4.874a16.245,16.245,0,0,0-.475-4.792,1.642,1.642,0,0,0-.679-.975.843.843,0,0,0-.91.291,4.5,4.5,0,0,0-.506,2.615v.067c-.288,3.165-.633,6.276-1.088,9.333-.234,1.529-.485,3.041-.869,4.537q-.145.562-.343,1.121a2.349,2.349,0,0,1-.761,1.164.818.818,0,0,1-.989-.217,1.89,1.89,0,0,1-.369-.609,6.239,6.239,0,0,1-.3-1.161,43.5,43.5,0,0,1-.078-8.822,24.084,24.084,0,0,0,.217-4.129,2.27,2.27,0,0,0-.752-1.534.855.855,0,0,0-.691-.106,1.661,1.661,0,0,0-.376.159.475.475,0,0,0-.189.233,18.412,18.412,0,0,0-1.063,3.749c-.265,1.289-.49,2.57-.7,3.836s-.388,2.516-.547,3.747-.253,2.458-.493,3.661a19.808,19.808,0,0,1-.941,3.484,6.868,6.868,0,0,1-.391.827c-.189.253-.292.583-.811.741a.677.677,0,0,1-.681-.288,1.69,1.69,0,0,1-.213-.5,4.966,4.966,0,0,1-.109-.9c-.028-2.295.311-4.4.426-6.432A15.935,15.935,0,0,0,106.8,77.4c-.062-.432-.2-.94-.447-1.041a1.257,1.257,0,0,0-1.1-.024,3.884,3.884,0,0,0-1,2.2c-.19.832-.277,1.659-.431,2.455-.56,3.185-1.154,5.921-1.44,8.158a10.888,10.888,0,0,0-.044,2.966c.189.816.459,1.537.617,2.1.16.536.288.966.387,1.3a1.971,1.971,0,0,1,.106.451,1.944,1.944,0,0,1-.185-.427c-.119-.329-.271-.749-.462-1.274-.186-.575-.467-1.231-.7-2.109a10.946,10.946,0,0,1-.034-3.046c.245-2.276.789-4.991,1.306-8.184.141-.793.221-1.636.4-2.494a10.241,10.241,0,0,1,.354-1.305,2.391,2.391,0,0,1,.843-1.235,1.752,1.752,0,0,1,1.592-.02c.629.361.655.967.764,1.442a16.234,16.234,0,0,1,.042,3.04c-.1,2.044-.419,4.193-.372,6.368a4.257,4.257,0,0,0,.1.772c.057.261.191.361.166.311.046.009.251-.224.366-.435a6.064,6.064,0,0,0,.343-.743,19.149,19.149,0,0,0,.884-3.366c.225-1.164.3-2.378.465-3.627s.33-2.5.529-3.772.423-2.564.686-3.871a18.361,18.361,0,0,1,1.126-3.974,1.284,1.284,0,0,1,.473-.519,2.444,2.444,0,0,1,.567-.237,1.621,1.621,0,0,1,1.286.2,2.962,2.962,0,0,1,1.1,2.058,8.355,8.355,0,0,1-.008,2.2c-.082.69-.139,1.394-.187,2.1a43.077,43.077,0,0,0,.092,8.626,5.278,5.278,0,0,0,.259,1,1.2,1.2,0,0,0,.2.349.147.147,0,0,0,.069.054h0v0c-.023.316,0,.066-.009.129,0-.059-.016-.048-.053-.116a2.625,2.625,0,0,0,.388-.739c.119-.337.225-.686.316-1.045.366-1.437.614-2.941.844-4.453.447-3.032.789-6.139,1.072-9.282v.066a5.155,5.155,0,0,1,.681-3.193,1.67,1.67,0,0,1,1.88-.551,2.362,2.362,0,0,1,1.156,1.475,16.772,16.772,0,0,1,.52,5.079c-.026,1.667-.141,3.313-.294,4.941s-.353,3.238-.578,4.83q-.186,1.194-.368,2.377c-.1.5-.075.517.073.665a.571.571,0,0,0,.628-.024c.172-.114.191-.35.229-.788l.1-1.169q.117-1.17.234-2.327c.168-1.545.376-3.071.64-4.575a30.149,30.149,0,0,1,1.081-4.427,9.291,9.291,0,0,1,.978-2.09,3.02,3.02,0,0,1,.865-.893,1.5,1.5,0,0,1,1.4-.2,1.566,1.566,0,0,1,.735,1.187,6.29,6.29,0,0,1,.071,1.145,18.878,18.878,0,0,1-.183,2.166c-.185,1.414-.439,2.785-.676,4.136-.439,2.684-1.046,5.354-.834,7.806a2.883,2.883,0,0,0,.214.822,1.246,1.246,0,0,0,.172.268c.007-.015-.009-.024-.031.059-.013.109,0-.023-.015-.005-.051-.083-.013-.059.008-.089a5.467,5.467,0,0,0,.661-1.581c.349-1.174.629-2.365.933-3.523s.607-2.3,1.007-3.4a8.858,8.858,0,0,1,.734-1.6,2.692,2.692,0,0,1,.615-.714,1.254,1.254,0,0,1,.479-.238,1.5,1.5,0,0,1,.517,0,1.042,1.042,0,0,1,.851.624,2.573,2.573,0,0,1,.174.892,10.685,10.685,0,0,1-.09,1.627c-.125,1.049-.321,2.05-.51,3.022-.392,1.935-.819,3.766-1.335,5.433-1.006,3.341-2.016,6.167-2.85,8.473s-1.519,4.081-1.993,5.281c-.228.564-.407,1.013-.549,1.362a2.334,2.334,0,0,1-.213.454" transform="translate(35.369 22.395)" fill="#eb996e"/>
            <path id="Trazado_875376" data-name="Trazado 875376" d="M64.642,123.025C67.2,132.054,72.2,146,77.573,160.711a2.551,2.551,0,0,0,4.7.218l13.178-27.857s-3.174-22.886-2.9-22.079-27.186,2.962-27.186,2.962Z" transform="translate(22.418 38.485)" fill="#ff725d"/>
            <path id="Trazado_875377" data-name="Trazado 875377" d="M93.408,116.59c.03.11-1.636.6-4.245,1.591a59.558,59.558,0,0,0-18.524,11.234c-2.088,1.852-3.286,3.106-3.371,3.029-.036-.034.228-.378.738-.978a33.12,33.12,0,0,1,2.3-2.415A50.046,50.046,0,0,1,89,117.715c1.336-.444,2.434-.753,3.2-.921a4.208,4.208,0,0,1,1.209-.2" transform="translate(23.327 40.429)" fill="#fafafa"/>
            <path id="Trazado_875378" data-name="Trazado 875378" d="M92.967,127.552a14.35,14.35,0,0,1-2.2-2.877A47.842,47.842,0,0,1,84.1,108.593a14.244,14.244,0,0,1-.482-3.588,26.3,26.3,0,0,1,.964,3.473,63.653,63.653,0,0,0,6.606,15.937,26.262,26.262,0,0,1,1.775,3.137" transform="translate(28.991 36.415)" fill="#263238"/>
            <path id="Trazado_875379" data-name="Trazado 875379" d="M102.275,30.839A29.632,29.632,0,0,0,99.7,56.169c1.354,3.7,3.5,7.355,3.106,11.281-.4,4.023-3.453,7.821-2.374,11.713.637,2.3,2.611,4.007,3.368,6.269.888,2.656-.038,5.53-.461,8.3-1.076,7.053,1.177,14.145,1.736,21.261s-1.36,15.442-7.706,18.545c-1.929.944-4.45,1.215-6.054-.224-2.036-1.825-1.469-5.106-.912-7.8,5.576-26.96-11.648-53.223-7.716-80.479.632-4.369,3.072-11.78,6.217-14.838s11.844-2.686,14.82.54" transform="translate(28.472 9.744)" fill="#263238"/>
            <path id="Trazado_875380" data-name="Trazado 875380" d="M77.383,109.468c-.055-.046.809-.971,2.022-2.881a25.885,25.885,0,0,0,3.519-8.819,26.217,26.217,0,0,0,.415-6.551,70.575,70.575,0,0,1-.277-7.652,16.319,16.319,0,0,1,.773-4.127,22.545,22.545,0,0,1,1.849-3.956c1.507-2.548,3.415-4.921,5.162-7.457A20.385,20.385,0,0,0,94.51,60a25.112,25.112,0,0,0-.47-8.264,30.762,30.762,0,0,1-.594-7.654,25.729,25.729,0,0,1,1.292-6.571A25.2,25.2,0,0,1,99.5,29.126a18.707,18.707,0,0,1,1.832-1.883,4.342,4.342,0,0,1,.71-.578c.051.054-.908.878-2.331,2.634a26.135,26.135,0,0,0-4.5,8.362,25.7,25.7,0,0,0-1.182,6.45,30.591,30.591,0,0,0,.652,7.512,25.5,25.5,0,0,1,.51,8.483,20.923,20.923,0,0,1-3.764,8.314c-1.77,2.568-3.67,4.924-5.15,7.41a22.122,22.122,0,0,0-1.806,3.82,15.75,15.75,0,0,0-.762,3.956,72.721,72.721,0,0,0,.214,7.587,26.312,26.312,0,0,1-.51,6.673,24.979,24.979,0,0,1-3.776,8.87,21.577,21.577,0,0,1-1.607,2.079,4.475,4.475,0,0,1-.644.652" transform="translate(26.835 9.247)" fill="#455a64"/>
            <path id="Trazado_875381" data-name="Trazado 875381" d="M67.9,111.543a5.426,5.426,0,0,1,.418-.9c.331-.638.766-1.479,1.309-2.528,1.127-2.2,2.815-5.358,4.474-9.437a41.048,41.048,0,0,0,3.289-14.968,27.494,27.494,0,0,0-.329-4.417c-.232-1.495-.579-3.022-.805-4.617a12.991,12.991,0,0,1,.1-4.952A8.933,8.933,0,0,1,79.1,65.4c2.54-2.308,5.6-3.813,7.184-6.512,1.622-2.659,1.978-5.772,2.388-8.638a34.235,34.235,0,0,1,1.855-8.139,29.043,29.043,0,0,1,10.9-13.759,21.758,21.758,0,0,1,2.465-1.444,5.184,5.184,0,0,1,.908-.408c.036.067-1.207.656-3.217,2.074a29.483,29.483,0,0,0-7.234,7.4,28.54,28.54,0,0,0-3.279,6.345,34.035,34.035,0,0,0-1.759,8.022c-.4,2.867-.727,6.065-2.443,8.91-1.714,2.909-4.885,4.454-7.292,6.667a8.235,8.235,0,0,0-2.543,3.985,12.37,12.37,0,0,0-.1,4.684c.214,1.557.555,3.08.787,4.61a27.889,27.889,0,0,1,.312,4.525,40.77,40.77,0,0,1-3.476,15.15,92.443,92.443,0,0,1-4.694,9.379l-1.425,2.465a5.111,5.111,0,0,1-.541.835" transform="translate(23.546 9.188)" fill="#455a64"/>
          </g>
        </g>
        <g id="Grupo_1100518" data-name="Grupo 1100518">
          <g id="Grupo_1100517" data-name="Grupo 1100517" clip-path="url(#clip-path)">
            <path id="Trazado_875382" data-name="Trazado 875382" d="M247.846,65.614s-.358.007-1.053-.013a25.627,25.627,0,0,0-3.081.016,34.258,34.258,0,0,0-11.477,2.645,35.287,35.287,0,0,0-14.575,11.359,31.673,31.673,0,0,0-5.088,10.411,34.978,34.978,0,0,0,3.588,26.493,30.368,30.368,0,0,0,4.582,6.078,24.519,24.519,0,0,0,6.2,4.848,15.2,15.2,0,0,0,7.774,1.958,11.19,11.19,0,0,0,7.529-3.037,10.9,10.9,0,0,0,3-7.763,14.244,14.244,0,0,0-2.731-8.252c-3.5-4.914-9.151-8.221-15.166-10a37.3,37.3,0,0,0-19.13-.264A39.624,39.624,0,0,0,199,103.753a33.4,33.4,0,0,0-7.908,6.2c-.552.641-1.18,1.222-1.673,1.916l-1.521,2.053a35.745,35.745,0,0,0-5.409,14.417,37.613,37.613,0,0,0,2.721,20.2,31.1,31.1,0,0,0,13,14.754,21.4,21.4,0,0,0,9.209,2.8,16.329,16.329,0,0,0,9.087-2.183,14.333,14.333,0,0,0,6.15-6.7,12.19,12.19,0,0,0,.14-8.805,17.579,17.579,0,0,0-5.064-7.161,22.946,22.946,0,0,0-7.449-4.329,28.905,28.905,0,0,0-16.4-.284,32,32,0,0,0-13.448,7.5,30.683,30.683,0,0,0-7.71,11.95,34.611,34.611,0,0,0,.353,24.2,36.632,36.632,0,0,0,11.1,14.8,39.185,39.185,0,0,0,10.194,5.938c1.267.482,2.242.824,2.913,1.011.663.209,1,.331,1,.331s-.349-.077-1.02-.261c-.677-.166-1.663-.488-2.941-.949A38.333,38.333,0,0,1,184.01,195.3a36.753,36.753,0,0,1-11.29-14.87,34.986,34.986,0,0,1-.455-24.51,31.174,31.174,0,0,1,7.8-12.175,32.521,32.521,0,0,1,13.669-7.667,29.475,29.475,0,0,1,16.749.263,23.545,23.545,0,0,1,7.665,4.436,18.218,18.218,0,0,1,5.257,7.418,12.85,12.85,0,0,1-.141,9.278,15,15,0,0,1-6.422,7.024,17.009,17.009,0,0,1-9.459,2.28,22.078,22.078,0,0,1-9.507-2.875A31.784,31.784,0,0,1,184.57,148.83a38.289,38.289,0,0,1-2.774-20.584,36.441,36.441,0,0,1,5.521-14.708l1.554-2.1c.505-.71,1.146-1.3,1.712-1.96a34.052,34.052,0,0,1,8.077-6.33,40.264,40.264,0,0,1,9.387-3.725,37.948,37.948,0,0,1,19.483.288c6.137,1.83,11.888,5.182,15.51,10.275a14.882,14.882,0,0,1,2.834,8.624,11.512,11.512,0,0,1-3.2,8.2,11.8,11.8,0,0,1-7.941,3.2,15.777,15.777,0,0,1-8.071-2.046,25.061,25.061,0,0,1-6.326-4.97,30.946,30.946,0,0,1-4.646-6.2,35.412,35.412,0,0,1-3.549-26.883,32,32,0,0,1,5.2-10.527A35.443,35.443,0,0,1,232.129,68.01,33.687,33.687,0,0,1,243.7,65.476a22.994,22.994,0,0,1,3.092.053c.695.046,1.049.086,1.049.086" transform="translate(59.049 22.696)" fill="#263238"/>
            <rect id="Rectángulo_401790" data-name="Rectángulo 401790" width="188.836" height="145.647" transform="translate(163.039 223.071)" fill="#afafaf"/>
            <path id="Trazado_875383" data-name="Trazado 875383" d="M121.058,165.631l34.878,32.532H341.57l-31.678-32.532Z" transform="translate(41.982 57.44)" fill="#afafaf"/>
            <path id="Trazado_875384" data-name="Trazado 875384" d="M121.058,165.72l188.834-.345h.145l.1.105,31.355,32.192.326.334.58.6h-.831l-185.633-.139h-.085l-.059-.057L121.058,165.72,156.08,198.1l-.143-.057L341.57,197.9l-.252.6c-.105-.109-.215-.222-.326-.335l-31.347-32.2.246.105-188.834-.345" transform="translate(41.982 57.351)" fill="#263238"/>
            <path id="Trazado_875385" data-name="Trazado 875385" d="M164.164,215.5a3.866,3.866,0,1,0,.291.011" transform="translate(55.594 74.734)" fill="#263238"/>
            <path id="Trazado_875386" data-name="Trazado 875386" d="M197.27,215.5a3.866,3.866,0,1,0,.291.011" transform="translate(67.075 74.734)" fill="#263238"/>
            <path id="Trazado_875387" data-name="Trazado 875387" d="M208.242,246.417c-.2.083-.5-3.644-3.737-8.372a24.718,24.718,0,0,0-7.134-6.844,21.786,21.786,0,0,0-23.072-.633,24.744,24.744,0,0,0-7.5,6.443c-3.491,4.543-3.993,8.249-4.19,8.155a2.211,2.211,0,0,1,.109-.637,14.175,14.175,0,0,1,.494-1.789,21.551,21.551,0,0,1,3.192-6.028A24.529,24.529,0,0,1,173.981,230a22.126,22.126,0,0,1,23.739.652,24.527,24.527,0,0,1,7.2,7.11,21.608,21.608,0,0,1,2.857,6.2,14.369,14.369,0,0,1,.4,1.813,2.241,2.241,0,0,1,.074.642" transform="translate(56.39 78.678)" fill="#263238"/>
            <g id="Grupo_1100510" data-name="Grupo 1100510" transform="translate(163.469 224.674)" opacity="0.5">
              <g id="Grupo_1100509" data-name="Grupo 1100509">
                <g id="Grupo_1100508" data-name="Grupo 1100508" clip-path="url(#clip-path-9)">
                  <path id="Trazado_875388" data-name="Trazado 875388" d="M121.376,166.821l33.4,42.342H309.783V197.75H155.827Z" transform="translate(-121.376 -166.821)"/>
                </g>
              </g>
            </g>
            <path id="Trazado_875389" data-name="Trazado 875389" d="M233.71,302.664c-.194,0-.35-25.333-.35-56.576s.156-56.583.35-56.583.35,25.329.35,56.583-.156,56.576-.35,56.576" transform="translate(80.928 65.72)" fill="#263238"/>
            <rect id="Rectángulo_401792" data-name="Rectángulo 401792" width="16.645" height="18.816" transform="translate(327.643 335.367)" fill="#f5f5f5"/>
            <path id="Trazado_875390" data-name="Trazado 875390" d="M131.041,165.631,92.272,198.163h38.769Z" transform="translate(32 57.44)" fill="#636363"/>
            <rect id="Rectángulo_401794" data-name="Rectángulo 401794" width="217.116" height="167.458" transform="translate(140.332 368.718)" fill="#d3d3d3"/>
            <path id="Trazado_875392" data-name="Trazado 875392" d="M225.106,440.166c-.194,0-.35-37.326-.35-83.36,0-46.05.156-83.369.35-83.369s.35,37.32.35,83.369c0,46.034-.156,83.36-.35,83.36" transform="translate(77.945 94.827)" fill="#263238"/>
            <rect id="Rectángulo_401797" data-name="Rectángulo 401797" width="16.645" height="18.816" transform="translate(322.393 498.06)" fill="#f5f5f5"/>
            <rect id="Rectángulo_401798" data-name="Rectángulo 401798" width="24.661" height="35.732" transform="translate(206.568 369.149)" fill="#263238"/>
            <rect id="Rectángulo_401799" data-name="Rectángulo 401799" width="24.661" height="35.732" transform="translate(206.568 499.946)" fill="#263238"/>
            <path id="Trazado_875393" data-name="Trazado 875393" d="M319.419,273.865a3.265,3.265,0,0,1-.556.036l-1.63.034-6.271.066-23.063.112-76.087.1-76.1-.1L112.652,274l-6.269-.066-1.631-.034a3.255,3.255,0,0,1-.555-.036,3.285,3.285,0,0,1,.555-.036l1.631-.035c1.471-.015,3.576-.036,6.269-.066,5.483-.026,13.352-.065,23.061-.112l76.1-.1c29.7.04,56.582.078,76.087.1l23.063.113,6.271.065,1.63.035a3.3,3.3,0,0,1,.556.036" transform="translate(36.135 94.853)" fill="#263238"/>
          </g>
        </g>
        <g id="Grupo_1100520" data-name="Grupo 1100520">
          <g id="Grupo_1100519" data-name="Grupo 1100519" clip-path="url(#clip-path)">
            <path id="Trazado_875394" data-name="Trazado 875394" d="M84.047,78.783,60.405,72.975l.174-.028a39.3,39.3,0,0,1-20.407,6.12A42.708,42.708,0,0,1,27.526,77.22,39.1,39.1,0,0,1,15.2,70.687,39.615,39.615,0,0,1,.291,44.338,39.127,39.127,0,0,1,10.45,12.774,41.025,41.025,0,0,1,17.3,6.809c1.278-.789,2.537-1.609,3.856-2.3l2.011-.968,1-.481,1.042-.381A39.866,39.866,0,0,1,42.2.087,39.353,39.353,0,0,1,76.9,26.576,40.764,40.764,0,0,1,79.08,39.34a39.2,39.2,0,0,1-5.663,20.479l0-.214L84.047,78.783c-.758-1.308-4.2-7.235-11-18.968l-.062-.106.065-.108a38.943,38.943,0,0,0,5.455-20.259A40.324,40.324,0,0,0,76.3,26.784,38.734,38.734,0,0,0,42.155.844,39.2,39.2,0,0,0,25.49,3.4l-1.021.374-.982.473-1.97.949c-1.292.681-2.525,1.487-3.779,2.26a40.33,40.33,0,0,0-6.71,5.849,38.408,38.408,0,0,0-9.981,30.94A38.952,38.952,0,0,0,15.63,70.141a38.524,38.524,0,0,0,12.092,6.466A42.251,42.251,0,0,0,40.163,78.48a39,39,0,0,0,20.179-5.911l.082-.051.092.024,23.531,6.241" transform="translate(0 0)" fill="#263238"/>
            <path id="Trazado_875395" data-name="Trazado 875395" d="M26.95,17.035,28.2,36.783a3.2,3.2,0,0,0,6.384.149l2.193-19.848a2.516,2.516,0,0,0-2.535-2.791l-4.817.067a2.515,2.515,0,0,0-2.474,2.673" transform="translate(9.345 4.957)" fill="#ff725d"/>
            <path id="Trazado_875396" data-name="Trazado 875396" d="M36.416,43.1A4.82,4.82,0,1,1,33.36,37,4.819,4.819,0,0,1,36.416,43.1" transform="translate(9.371 12.747)" fill="#ff725d"/>
          </g>
        </g>
      </g>
    </g>
  </g>
</svg>
