<svg xmlns="http://www.w3.org/2000/svg" xmlns:xlink="http://www.w3.org/1999/xlink" width="295.043" height="275.01" viewBox="0 0 295.043 275.01">
  <defs>
    <clipPath id="clip-path">
      <rect id="Rectángulo_401398" data-name="Rectángulo 401398" width="220.839" height="275.01" fill="none"/>
    </clipPath>
    <clipPath id="clip-path-3">
      <rect id="Rectángulo_401391" data-name="Rectángulo 401391" width="61.319" height="43.645" fill="none"/>
    </clipPath>
    <clipPath id="clip-path-4">
      <rect id="Rectángulo_401392" data-name="Rectángulo 401392" width="30.073" height="34.42" fill="none"/>
    </clipPath>
    <clipPath id="clip-path-5">
      <rect id="Rectángulo_401393" data-name="Rectángulo 401393" width="45.83" height="16.96" fill="none"/>
    </clipPath>
    <clipPath id="clip-path-6">
      <rect id="Rectángulo_401394" data-name="Rectángulo 401394" width="49.919" height="23.888" fill="none"/>
    </clipPath>
    <clipPath id="clip-path-7">
      <rect id="Rectángulo_401395" data-name="Rectángulo 401395" width="92.186" height="51.771" fill="none"/>
    </clipPath>
  </defs>
  <g id="Grupo_1100656" data-name="Grupo 1100656" transform="translate(-915 -3727.35)">
    <g id="Grupo_1100236" data-name="Grupo 1100236" transform="translate(0 1712.658)">
      <g id="Grupo_1099891" data-name="Grupo 1099891" transform="translate(-126.404 838.579)">
        <rect id="Rectángulo_5157" data-name="Rectángulo 5157" width="273.596" height="239.635" rx="40" transform="translate(1041.405 1211.487)" fill="#53bced"/>
        <rect id="Rectángulo_400986" data-name="Rectángulo 400986" width="189.474" height="209.538" rx="40" transform="translate(1145.474 1223.789)" fill="none" stroke="#ff725d" stroke-miterlimit="10" stroke-width="3"/>
      </g>
      <g id="Grupo_1099910" data-name="Grupo 1099910" transform="translate(934.352 2014.691)">
        <g id="Grupo_1099909" data-name="Grupo 1099909" transform="translate(0)" clip-path="url(#clip-path)">
          <g id="Grupo_1099908" data-name="Grupo 1099908">
            <g id="Grupo_1099907" data-name="Grupo 1099907" clip-path="url(#clip-path)">
              <path id="Trazado_874051" data-name="Trazado 874051" d="M144.979,38.647l-4.553,64.5A20.108,20.108,0,0,1,100.3,100.41c.4-6.139.768-11.166.768-11.166S85.457,86.817,85.265,71.206c-.111-9.016,1.443-29.477,2.777-45.152A20.473,20.473,0,0,1,108.449,7.322h9.43a28.892,28.892,0,0,1,27.1,31.325" transform="translate(16.754 -2.255)" fill="#b78876"/>
              <path id="Trazado_874052" data-name="Trazado 874052" d="M119.532,122.81a36.305,36.305,0,0,0,20.352-5.784s-4.811,11.235-20.388,9.829Z" transform="translate(-1.733 -36.046)" fill="#aa6550"/>
              <path id="Trazado_874053" data-name="Trazado 874053" d="M154.254,60.745a2.23,2.23,0,0,0,2.15,2.25,2.132,2.132,0,0,0,2.3-2.01,2.23,2.23,0,0,0-2.147-2.251,2.134,2.134,0,0,0-2.3,2.012" transform="translate(-44.604 -18.09)" fill="#263238"/>
              <path id="Trazado_874054" data-name="Trazado 874054" d="M151.112,55.972c.277.291,1.965-.959,4.364-.953,2.4-.028,4.157,1.206,4.417.913.128-.131-.153-.655-.92-1.213a6.12,6.12,0,0,0-3.536-1.091,5.879,5.879,0,0,0-3.474,1.122c-.738.566-.987,1.092-.851,1.222" transform="translate(-43.625 -16.519)" fill="#263238"/>
              <path id="Trazado_874055" data-name="Trazado 874055" d="M120.426,60.745a2.229,2.229,0,0,0,2.149,2.249,2.132,2.132,0,0,0,2.3-2.01,2.231,2.231,0,0,0-2.148-2.25,2.134,2.134,0,0,0-2.3,2.012" transform="translate(12.632 -18.09)" fill="#263238"/>
              <path id="Trazado_874056" data-name="Trazado 874056" d="M117.032,56.619c.277.291,1.968-.959,4.365-.952,2.4-.028,4.157,1.205,4.418.911.127-.129-.152-.655-.921-1.212a6.116,6.116,0,0,0-3.535-1.091,5.876,5.876,0,0,0-3.474,1.122c-.736.566-.987,1.092-.852,1.222" transform="translate(14.035 -16.718)" fill="#263238"/>
              <path id="Trazado_874057" data-name="Trazado 874057" d="M146.8,74.474c.011-.136-1.48-.394-3.9-.7-.612-.063-1.192-.185-1.3-.6a3.115,3.115,0,0,1,.409-1.815q.865-2.223,1.812-4.665c2.516-6.642,4.337-12.1,4.069-12.2s-2.526,5.2-5.041,11.845q-.908,2.457-1.735,4.692a3.546,3.546,0,0,0-.318,2.4,1.537,1.537,0,0,0,1.007.9,4.154,4.154,0,0,0,1.04.144c2.432.131,3.941.143,3.95.006" transform="translate(-24.441 -16.783)" fill="#263238"/>
              <path id="Trazado_874058" data-name="Trazado 874058" d="M139.194,85.77c-.39-.023-.4,2.581-2.624,4.429s-5,1.562-5.021,1.926c-.036.163.619.506,1.789.538a6.491,6.491,0,0,0,4.192-1.461,5.652,5.652,0,0,0,2.033-3.715c.1-1.088-.191-1.733-.37-1.718" transform="translate(-9.773 -26.419)" fill="#263238"/>
              <path id="Trazado_874059" data-name="Trazado 874059" d="M114.818,43.275c.237.653,2.632.343,5.446.683,2.822.282,5.092,1.106,5.465.521.166-.28-.229-.893-1.147-1.525a9.539,9.539,0,0,0-8.312-.917c-1.033.416-1.553.929-1.452,1.238" transform="translate(15.63 -12.776)" fill="#263238"/>
              <path id="Trazado_874060" data-name="Trazado 874060" d="M150.792,45.875c.422.545,2.075-.021,4.062-.047,1.986-.1,3.67.366,4.057-.2.17-.276-.095-.822-.83-1.338a5.882,5.882,0,0,0-6.542.2c-.7.56-.933,1.121-.747,1.387" transform="translate(-42.424 -13.365)" fill="#263238"/>
              <path id="Trazado_874061" data-name="Trazado 874061" d="M78.611,69.3c.266-.116,10.726-3.173,10.385,7.5S78.011,84.933,78,84.626s.609-15.322.609-15.322" transform="translate(77.859 -21.196)" fill="#b78876"/>
              <path id="Trazado_874062" data-name="Trazado 874062" d="M81.94,82.242c.048-.033.182.136.492.291a1.861,1.861,0,0,0,1.388.073c1.141-.378,2.147-2.138,2.261-4.058a6.134,6.134,0,0,0-.435-2.679A2.149,2.149,0,0,0,84.293,74.4a.948.948,0,0,0-1.114.474c-.152.294-.091.509-.148.526-.031.026-.224-.186-.124-.624a1.187,1.187,0,0,1,.441-.655,1.406,1.406,0,0,1,1.037-.239,2.614,2.614,0,0,1,1.889,1.717,6.317,6.317,0,0,1,.549,2.995c-.137,2.149-1.3,4.126-2.859,4.523a1.994,1.994,0,0,1-1.692-.337c-.322-.274-.37-.515-.333-.533" transform="translate(77.31 -22.751)" fill="#aa6550"/>
              <path id="Trazado_874063" data-name="Trazado 874063" d="M130.809,49.055c-1.628-.393-4.444,1.109-5.137,2.634s-.848,3.251-1.539,4.775-2.257,2.9-3.886,2.519a3.284,3.284,0,0,1-2.224-2.435,9.023,9.023,0,0,1-.032-3.442c.629-4.986,1.677-9.927,1.877-14.947s-.515-10.236-3.151-14.513-7.477-7.421-12.485-7.017c-3.317.267-6.359,2-9.655,2.458A13.031,13.031,0,0,1,83.746,15.47c-.359-.356-2.025-1.455-2.025-1.455,0-.258.244-2.488,1.123-3.3,6.537-6.046,18.317-7.734,26.953-5.56s16.73,8.27,20.445,16.362,2.614,19.348.567,27.537" transform="translate(31.599 -1.309)" fill="#263238"/>
              <path id="Trazado_874064" data-name="Trazado 874064" d="M79.334,21.389S120.289,8.213,138,43.645c0,0,2.648-8.867,2.648-13.62,0-3.174-1.9-22.081-21.353-28.028,0,0-29.307-11.186-39.966,19.392" transform="translate(25.288 0)" fill="#e8505b"/>
              <path id="Trazado_874065" data-name="Trazado 874065" d="M149.238,28.925a8.909,8.909,0,0,1-14.181,1.29,5.252,5.252,0,0,1-9.927-.52,11.937,11.937,0,0,1-3.984,2.909,4.068,4.068,0,0,1-4.55-.95,3.973,3.973,0,0,1,.283-4.7,9.7,9.7,0,0,1,4.151-2.795,30,30,0,0,1,15.454-2.343,20.826,20.826,0,0,1,13.55,7.379" transform="translate(-9.426 -6.651)" fill="#263238"/>
              <g id="Grupo_1099894" data-name="Grupo 1099894" transform="translate(104.622)" opacity="0.4">
                <g id="Grupo_1099893" data-name="Grupo 1099893" transform="translate(0)">
                  <g id="Grupo_1099892" data-name="Grupo 1099892" clip-path="url(#clip-path-3)">
                    <path id="Trazado_874066" data-name="Trazado 874066" d="M79.334,21.389a19.033,19.033,0,0,1,13.023-5.914c12.081-.534,34.692,6.259,45.648,28.17,0,0,2.648-8.867,2.648-13.62,0-3.174-1.9-22.081-21.353-28.028,0,0-29.307-11.186-39.966,19.392" transform="translate(-79.334 0)"/>
                  </g>
                </g>
              </g>
              <path id="Trazado_874067" data-name="Trazado 874067" d="M162.476,39.882a77.113,77.113,0,0,0-23.86-22.854c-9.414-5.881-24.981-11.7-35.71-14.546-3.22-.855-6.579-1.6-9.863-1.035s-6.5,2.754-7.312,5.985c-1.02,4.045,6.158,10.286,9.531,12.74a110.764,110.764,0,0,0,10.254,6.054s-.092-7.5,11.915-9.048c16.332-2.1,45.046,22.7,45.046,22.7" transform="translate(-0.893 -0.385)" fill="#e8505b"/>
              <path id="Trazado_874068" data-name="Trazado 874068" d="M145.128,10.2A38.626,38.626,0,0,0,133.3,6.177a15.245,15.245,0,0,1,3.214-1.929,30.478,30.478,0,0,1,9.216,3.1Z" transform="translate(-17.134 -1.308)" fill="#e0e0e0"/>
              <path id="Trazado_874069" data-name="Trazado 874069" d="M20.7,140.211l12.99-2.862,5.283-1.321,4.4-6.825s2.1,12.2,9.958,18.765a9.135,9.135,0,0,0,7.738,1.858c1.781-.374,3.87-.836,5.42-1.249.33-.088.693-.2,1.079-.343A25.329,25.329,0,0,0,80.944,136.7c1.749-3.1,3.222-6.285,2.719-7.492l6.165,12.769L126.155,158.7l20.624,50.363-39.972,11.824-1.244,41.5,7.529,52.339L0,314.807,4.01,198.352" transform="translate(74.06 -39.797)" fill="#e8505b"/>
              <path id="Trazado_874070" data-name="Trazado 874070" d="M123.943,196.062a4.127,4.127,0,0,0,.712.015l2.011-.047,7.19-.256.141,0,.006-.142c.122-3.122.267-6.815.421-10.769.188-5.692.358-10.841.484-14.626.044-1.837.08-3.339.105-4.434,0-.492.008-.892.01-1.206a1.854,1.854,0,0,0-.021-.422,1.879,1.879,0,0,0-.052.419c-.02.314-.046.713-.078,1.2-.055,1.093-.129,2.594-.22,4.429-.152,3.784-.36,8.932-.589,14.622-.135,3.954-.262,7.649-.368,10.771l.147-.147-7.184.384-2.007.132a4.1,4.1,0,0,0-.708.078" transform="translate(0.05 -50.567)" fill="#263238"/>
              <path id="Trazado_874071" data-name="Trazado 874071" d="M130.995,185.751a.943.943,0,0,0-.538-.176,2.208,2.208,0,0,0-1.491.414,2.277,2.277,0,0,0-.725.826,2.1,2.1,0,0,0-.2,1.257,2.549,2.549,0,0,0,1.848,2.086,2.686,2.686,0,0,0,2.63-.938,2.56,2.56,0,0,0,.5-2.237,2.771,2.771,0,0,0-.747-1.353c-.266-.255-.454-.337-.464-.321s.14.146.361.416a2.905,2.905,0,0,1,.6,1.31,2.336,2.336,0,0,1-.5,1.971,2.39,2.39,0,0,1-2.291.8,2.246,2.246,0,0,1-1.6-1.785,1.889,1.889,0,0,1,.746-1.828,2.214,2.214,0,0,1,1.333-.479c.345,0,.535.067.545.036" transform="translate(-0.838 -57.078)" fill="#263238"/>
              <path id="Trazado_874072" data-name="Trazado 874072" d="M130.4,164.616a1.1,1.1,0,0,0-.569-.259,2.456,2.456,0,0,0-1.688.248,2.492,2.492,0,0,0-.906.8,2.259,2.259,0,0,0-.374,1.349,2.7,2.7,0,0,0,1.825,2.454,2.764,2.764,0,0,0,2.893-1.008,2.431,2.431,0,0,0,.5-1.3,2.792,2.792,0,0,0-1.279-2.508,1.181,1.181,0,0,0-.583-.224c-.012.03.2.108.5.34a2.784,2.784,0,0,1,.927,1.291,2.27,2.27,0,0,1-.331,2.2,2.46,2.46,0,0,1-2.527.867,2.4,2.4,0,0,1-1.6-2.124,2.064,2.064,0,0,1,1.073-1.915,2.472,2.472,0,0,1,1.54-.333c.381.049.579.152.593.121" transform="translate(0.965 -50.566)" fill="#263238"/>
              <path id="Trazado_874073" data-name="Trazado 874073" d="M161.068,218.35a.724.724,0,0,0-.174-.08l-.518-.2c-.463-.157-1.122-.448-1.962-.837a25.86,25.86,0,0,1-6.363-4.525,50.46,50.46,0,0,1-7.286-9.039,128.008,128.008,0,0,1-7.1-12.371,214.937,214.937,0,0,1-10.081-23.888c-1.133-3.122-2.012-5.662-2.628-7.415-.3-.856-.538-1.531-.71-2.018l-.193-.522a.716.716,0,0,0-.078-.174.794.794,0,0,0,.043.185c.042.14.094.316.159.534.156.492.372,1.174.646,2.04.575,1.767,1.417,4.321,2.521,7.455a199.9,199.9,0,0,0,10,23.966,123.742,123.742,0,0,0,7.144,12.391,49.586,49.586,0,0,0,7.389,9.043,25.06,25.06,0,0,0,6.478,4.465,18.474,18.474,0,0,0,2,.779l.531.167a.7.7,0,0,0,.185.045" transform="translate(-26.015 -48.446)" fill="#263238"/>
              <path id="Trazado_874074" data-name="Trazado 874074" d="M158.871,225.352c-.3,0-7.181-.474-7.181-.474s2.842,5.024,5.8,6.9h6.024Z" transform="translate(-47.644 -69.267)" fill="#fafafa"/>
              <path id="Trazado_874075" data-name="Trazado 874075" d="M156.569,252.587a2.5,2.5,0,0,0-.393-.3l-1.161-.8c-1-.7-2.45-1.728-4.186-3.061-3.489-2.65-8.066-6.613-12.991-11.139-2.47-2.258-4.835-4.392-6.88-6.439a53.179,53.179,0,0,1-5.074-5.757,31.794,31.794,0,0,1-2.776-4.362c-.3-.534-.489-.97-.637-1.257a2.516,2.516,0,0,0-.237-.433,2.521,2.521,0,0,0,.17.463c.127.3.3.745.578,1.291a28.682,28.682,0,0,0,2.7,4.449,50.61,50.61,0,0,0,5.042,5.841c2.042,2.068,4.4,4.213,6.873,6.471a170.439,170.439,0,0,0,13.079,11.076c1.762,1.311,3.232,2.308,4.263,2.975.515.334.924.578,1.2.747a2.569,2.569,0,0,0,.432.238" transform="translate(-20.312 -67.468)" fill="#263238"/>
              <path id="Trazado_874076" data-name="Trazado 874076" d="M141.284,355.12a.692.692,0,0,0-.086-.162l-.283-.457c-.253-.4-.641-.976-1.16-1.707-1.042-1.459-2.646-3.5-4.763-5.909-4.261-4.786-10.232-11.309-16.811-18.533L101.275,309.9l-5.154-5.563-1.415-1.5-.374-.384a.683.683,0,0,0-.137-.122.693.693,0,0,0,.11.147l.348.408,1.365,1.546,5.069,5.64,16.83,18.52L134.8,347.053c2.138,2.38,3.766,4.393,4.84,5.824.535.717.94,1.28,1.213,1.665l.312.436a.687.687,0,0,0,.117.142" transform="translate(14.374 -93.125)" fill="#263238"/>
              <path id="Trazado_874077" data-name="Trazado 874077" d="M234.1,144.6c-.594.891-13.968,2.378-17.237,5.647s-35.959,28.232-35.959,28.232l23.286,31.406,15.047-3.313Z" transform="translate(-138.444 -44.541)" fill="#e8505b"/>
              <g id="Grupo_1099897" data-name="Grupo 1099897" transform="translate(42.461 130.929)" opacity="0.4">
                <g id="Grupo_1099896" data-name="Grupo 1099896" transform="translate(0)">
                  <g id="Grupo_1099895" data-name="Grupo 1099895" clip-path="url(#clip-path-4)">
                    <path id="Trazado_874078" data-name="Trazado 874078" d="M218.257,189.209l26.136,32.926-6.787,1.494L214.32,192.222Z" transform="translate(-214.32 -189.209)"/>
                  </g>
                </g>
              </g>
              <path id="Trazado_874079" data-name="Trazado 874079" d="M196.708,179.9a6.754,6.754,0,0,0,.271-1.094,12.81,12.81,0,0,0,.229-1.3c.066-.511.169-1.091.2-1.74.055-.648.107-1.358.1-2.123.03-.765-.021-1.581-.06-2.441a31.428,31.428,0,0,0-2.69-10.807c-.37-.777-.706-1.522-1.091-2.183-.354-.678-.734-1.282-1.085-1.828-.334-.558-.7-1.022-.994-1.443a12.817,12.817,0,0,0-.812-1.043,6.714,6.714,0,0,0-.752-.839,6.862,6.862,0,0,0,.641.925c.219.287.482.642.759,1.074s.626.9.943,1.461c.335.551.7,1.156,1.037,1.834.371.661.694,1.4,1.051,2.176a32.962,32.962,0,0,1,2.663,10.7c.046.85.109,1.657.091,2.415.018.758-.019,1.462-.057,2.106-.017.645-.1,1.223-.148,1.733s-.108.948-.167,1.3a6.791,6.791,0,0,0-.132,1.118" transform="translate(-108.176 -47.145)" fill="#263238"/>
              <path id="Trazado_874080" data-name="Trazado 874080" d="M198.442,223.386A68.178,68.178,0,0,0,201.333,217a68.366,68.366,0,0,0,2.559-6.525A68.254,68.254,0,0,0,201,216.862a68.24,68.24,0,0,0-2.559,6.524" transform="translate(-120.372 -64.831)" fill="#263238"/>
              <path id="Trazado_874081" data-name="Trazado 874081" d="M36.436,189.81c.055.03.615-1,1.673-2.558A35.92,35.92,0,0,1,48.59,177.08c1.589-1.011,2.635-1.539,2.607-1.6a3.613,3.613,0,0,0-.762.317c-.482.22-1.161.581-1.978,1.062A31.85,31.85,0,0,0,37.9,187.112c-.506.8-.886,1.47-1.121,1.947a3.6,3.6,0,0,0-.339.751" transform="translate(144.431 -54.052)" fill="#263238"/>
              <g id="Grupo_1099900" data-name="Grupo 1099900" transform="translate(175.009 165.348)" opacity="0.4">
                <g id="Grupo_1099899" data-name="Grupo 1099899" transform="translate(0)">
                  <g id="Grupo_1099898" data-name="Grupo 1099898" clip-path="url(#clip-path-5)">
                    <path id="Trazado_874082" data-name="Trazado 874082" d="M45.83,242.873l-1.606-3.922L0,250.989l1.753,4.921Z" transform="translate(0 -238.95)"/>
                  </g>
                </g>
              </g>
              <path id="Trazado_874083" data-name="Trazado 874083" d="M180.625,222.207H163.79v6.951l21.536-.138a47,47,0,0,1-4.7-6.813" transform="translate(-77.827 -68.444)" fill="#fafafa"/>
              <g id="Grupo_1099903" data-name="Grupo 1099903" transform="translate(112.926 103.281)" opacity="0.2">
                <g id="Grupo_1099902" data-name="Grupo 1099902" transform="translate(0)">
                  <g id="Grupo_1099901" data-name="Grupo 1099901" clip-path="url(#clip-path-6)">
                    <path id="Trazado_874084" data-name="Trazado 874084" d="M133.728,149.669c-.609,5.4-1.27,10.966-3.939,15.7s-7.9,8.462-13.273,7.668c-3.587-.529-6.626-2.929-9.068-5.608s-4.487-5.728-7.153-8.185a31.386,31.386,0,0,1-5.369,4.619,10.547,10.547,0,0,1-6.732,1.776c-2.349-.283-3.643-1.212-4.384-3.459a11,11,0,0,0,6.379.179,17.442,17.442,0,0,0,7.554-3.472c1.468-1.156,2-2.891,3.861-2.784,1.723.1,3.072,1.464,4.209,2.763a48.26,48.26,0,0,0,6,5.788c2.068,1.64,4.085,2.748,6.723,2.69,4.356-.1,7.92-3.514,10.324-7.147a35.833,35.833,0,0,0,4.838-10.939" transform="translate(-83.809 -149.255)"/>
                  </g>
                </g>
              </g>
              <path id="Trazado_874085" data-name="Trazado 874085" d="M132.14,140.122a1.6,1.6,0,0,0-.073.385c-.033.255-.09.629-.135,1.115-.1.969-.208,2.378-.248,4.121a58.854,58.854,0,0,0,1.293,13.548c.008.038.016.075.023.11l.023.11.108.026a14.742,14.742,0,0,0,7.455-.2,17.662,17.662,0,0,0,5.522-2.589,14.231,14.231,0,0,0,3.018-2.788,8.248,8.248,0,0,0,.655-.906,1.582,1.582,0,0,0,.2-.335,17.48,17.48,0,0,1-4.014,3.82,17.923,17.923,0,0,1-5.464,2.477,14.616,14.616,0,0,1-7.278.168l.13.136-.022-.109a63.351,63.351,0,0,1-1.392-13.469c.008-1.738.074-3.143.134-4.114.028-.453.05-.823.067-1.118a1.6,1.6,0,0,0,0-.393" transform="translate(-20.249 -43.16)" fill="#263238"/>
              <path id="Trazado_874086" data-name="Trazado 874086" d="M82.874,155.676a2.348,2.348,0,0,0,.221.414,11.545,11.545,0,0,0,.767,1.106,29.47,29.47,0,0,0,3.4,3.59c.769.707,1.631,1.458,2.566,2.252.47.4.942.81,1.464,1.221a13.37,13.37,0,0,0,1.713,1.1,10.626,10.626,0,0,0,4.174,1.268,7.9,7.9,0,0,0,4.564-1.009,14.562,14.562,0,0,0,3.58-3.015,35.051,35.051,0,0,0,2.694-3.406,34.663,34.663,0,0,0,3.526-6.436,33.49,33.49,0,0,0,1.551-4.7c.144-.566.232-1.011.288-1.313a2.262,2.262,0,0,0,.069-.464,2.338,2.338,0,0,0-.139.448c-.078.3-.189.735-.353,1.293a38.32,38.32,0,0,1-1.65,4.633,35.723,35.723,0,0,1-6.246,9.7,14.362,14.362,0,0,1-3.494,2.937,7.579,7.579,0,0,1-4.363.972,10.388,10.388,0,0,1-4.044-1.209,13.209,13.209,0,0,1-1.677-1.062c-.507-.392-.992-.808-1.464-1.2-.942-.783-1.811-1.52-2.587-2.212a33.169,33.169,0,0,1-3.465-3.488c-.371-.446-.639-.81-.816-1.059a2.28,2.28,0,0,0-.282-.374" transform="translate(50.035 -45.061)" fill="#263238"/>
              <path id="Trazado_874087" data-name="Trazado 874087" d="M141.746,260.923l-5.332-7.774s-3.667-12.751-3.169-14.529,2.119-8.429,1.735-8.508-4.375-1.566-6.54,3.766a34.9,34.9,0,0,0-1.933,10.517,2.418,2.418,0,0,1-2.9,2.252c-3.689-.756-9.826-1.912-11.283-1.563-2.118.507-4.013,3.208-4.2,4.11s1.277,2.947,1.277,2.947a5.561,5.561,0,0,0-2.352,2.311c-.075.188-.139.374-.194.554a3.354,3.354,0,0,0,.742,3.245l.564.618s-2.245.616-2.522,1.9a7.668,7.668,0,0,0,.077,2.836l2.106,2.176a3.551,3.551,0,0,0-1.092,2.059c-.109,1.186,3.052,4.115,3.052,4.115l13.569,4.864,5.384,1.373Z" transform="translate(6.068 -70.803)" fill="#b78876"/>
              <path id="Trazado_874088" data-name="Trazado 874088" d="M138.712,262.063c-.015.1,2.1.486,4.7,1.017s4.7,1,4.724.9a5.227,5.227,0,0,0-1.338-.464c-.839-.237-2.01-.526-3.315-.792s-2.495-.457-3.36-.567a5.275,5.275,0,0,0-1.412-.1" transform="translate(-23.283 -80.714)" fill="#aa6550"/>
              <path id="Trazado_874089" data-name="Trazado 874089" d="M143.6,271.765a20.265,20.265,0,0,0,3.59,1.284,20.181,20.181,0,0,0,3.7.939,20.324,20.324,0,0,0-3.59-1.284,20.31,20.31,0,0,0-3.7-.939" transform="translate(-29.411 -83.705)" fill="#aa6550"/>
              <path id="Trazado_874090" data-name="Trazado 874090" d="M144.065,281.337a25.086,25.086,0,0,0,3.814,1.864,25.05,25.05,0,0,0,3.957,1.534,25.189,25.189,0,0,0-3.813-1.864,25.088,25.088,0,0,0-3.957-1.534" transform="translate(-30.687 -86.655)" fill="#aa6550"/>
              <path id="Trazado_874091" data-name="Trazado 874091" d="M49.9,314.561,0,281.082l12.588-22.807L58.138,281.7,52.97,257.087l30.911-9.143,7.712,42.112C92.787,308.795,77.759,323.924,59.64,319a32.987,32.987,0,0,1-9.736-4.442" transform="translate(129.179 -76.372)" fill="#b78876"/>
              <path id="Trazado_874092" data-name="Trazado 874092" d="M45.242,309.729a2.05,2.05,0,0,0,.172-.628,10.433,10.433,0,0,0,.173-1.765,12.253,12.253,0,0,0-5.053-10.129,10.465,10.465,0,0,0-1.514-.924,2.056,2.056,0,0,0-.6-.24c-.031.058.807.453,1.964,1.367a12.9,12.9,0,0,1,4.952,9.927c.034,1.474-.154,2.381-.09,2.391" transform="translate(148.666 -91.187)" fill="#aa6550"/>
              <path id="Trazado_874093" data-name="Trazado 874093" d="M289.875,226.178c-.312-.426-35.542,21.035-35.542,21.035l-11.29,51.451-16.253,5.963s-5.075-57.254-1.212-66.169,43-40.973,43-40.973Z" transform="translate(-224.128 -60.83)" fill="#b78876"/>
              <path id="Trazado_874094" data-name="Trazado 874094" d="M276.583,263.643a11.476,11.476,0,0,0,6.941,4.466,21.1,21.1,0,0,1-6.941-4.466" transform="translate(-254.072 -81.207)" fill="#aa6550"/>
              <path id="Trazado_874095" data-name="Trazado 874095" d="M221.958,238.124,219.2,287.5,162.9,283.7l1.7-36.759,8.2-11.034Z" transform="translate(-113.843 -72.664)" fill="#636363"/>
              <path id="Trazado_874096" data-name="Trazado 874096" d="M247.324,309.342c-.171.949-4.95,45.672-4.95,45.672l-83.791-5.827-14.182-1.9,6.539-41.649,10.017-2.4Z" transform="translate(-126.407 -93.406)" fill="#e8505b"/>
              <g id="Grupo_1099906" data-name="Grupo 1099906" transform="translate(28.73 209.839)" opacity="0.4">
                <g id="Grupo_1099905" data-name="Grupo 1099905">
                  <g id="Grupo_1099904" data-name="Grupo 1099904" clip-path="url(#clip-path-7)">
                    <path id="Trazado_874097" data-name="Trazado 874097" d="M150.221,303.244l86.367,6.1c-.171.949-4.95,45.673-4.95,45.673L144.4,348.948Z" transform="translate(-144.402 -303.244)"/>
                  </g>
                </g>
              </g>
              <path id="Trazado_874098" data-name="Trazado 874098" d="M162.9,284.267l47.86,3.235,2.757-49.378L164.361,235.9Z" transform="translate(-105.403 -72.664)" fill="#abb4c0"/>
              <path id="Trazado_874099" data-name="Trazado 874099" d="M198.164,237.758l-1.009,15.218-2.56-1.466-1.423,1.466-1.76-1.466-2.725,1.466V237.33Z" transform="translate(-107.892 -73.103)" fill="#636363"/>
              <path id="Trazado_874102" data-name="Trazado 874102" d="M197.741,321.093l.277-13.8,11.2.756-1.2,14.017Z" transform="translate(-125.206 -94.652)" fill="#e8505b"/>
              <rect id="Rectángulo_401396" data-name="Rectángulo 401396" width="18.868" height="16.691" transform="matrix(-0.996, -0.094, 0.094, -0.996, 53.282, 252.107)" fill="#fafafa"/>
              <path id="Trazado_874103" data-name="Trazado 874103" d="M239.556,354.284a2.505,2.505,0,0,0,.047-.318l.1-.9c.086-.809.207-1.946.36-3.381.3-2.919.715-7.045,1.217-12l-.166.137,18.779,1.808c.037.042-.306-.37-.161-.193v.013l0,.017,0,.036-.006.071-.014.141-.026.282-.054.563q-.053.563-.106,1.12-.1,1.115-.208,2.21l-.4,4.283c-.259,2.787-.5,5.431-.731,7.878l.173-.143L244.8,354.7l-3.849-.323-1.028-.078a3.173,3.173,0,0,0-.366-.017,2.085,2.085,0,0,0,.328.049l.993.113,3.807.4,13.641,1.374.158.016.015-.159c.237-2.445.493-5.088.763-7.875l.41-4.283q.1-1.094.21-2.21.053-.557.107-1.12l.053-.563.027-.282.013-.141.007-.071,0-.035v-.031c.145.174-.2-.242-.164-.2l-18.784-1.753-.153-.014-.013.152c-.442,5-.81,9.169-1.07,12.114-.118,1.424-.212,2.552-.278,3.354-.027.363-.048.652-.065.873a1.673,1.673,0,0,0-.01.289" transform="translate(-205.057 -103.958)" fill="#263238"/>
              <path id="Trazado_874104" data-name="Trazado 874104" d="M243.638,343.487c-.01.1,3.273.526,7.333.954s7.361.694,7.372.6-3.272-.526-7.334-.954-7.361-.694-7.371-.6" transform="translate(-206.096 -105.795)" fill="#263238"/>
              <path id="Trazado_874105" data-name="Trazado 874105" d="M244.419,347.57a10.754,10.754,0,0,0,2.019.5c1.259.251,3.009.542,4.956.772s3.718.349,5,.4a10.629,10.629,0,0,0,2.079-.019,13.364,13.364,0,0,0-2.063-.235c-1.275-.112-3.036-.274-4.975-.5s-3.688-.478-4.955-.665a13.3,13.3,0,0,0-2.062-.248" transform="translate(-206.769 -107.055)" fill="#263238"/>
              <path id="Trazado_874106" data-name="Trazado 874106" d="M245.564,356.49a10.757,10.757,0,0,0,2.019.5c1.259.251,3.01.543,4.957.772s3.718.349,5,.4a10.632,10.632,0,0,0,2.079-.019,13.365,13.365,0,0,0-2.064-.235c-1.275-.112-3.036-.274-4.975-.5s-3.688-.478-4.955-.665a13.3,13.3,0,0,0-2.062-.248" transform="translate(-208.706 -109.802)" fill="#263238"/>
              <path id="Trazado_874107" data-name="Trazado 874107" d="M244.641,351.917a67.107,67.107,0,0,0,6.848,1.161,67.2,67.2,0,0,0,6.9.8,66.8,66.8,0,0,0-6.849-1.161,67.14,67.14,0,0,0-6.9-.8" transform="translate(-206.836 -108.393)" fill="#263238"/>
              <path id="Trazado_874108" data-name="Trazado 874108" d="M274.278,374.732s-15.465-10.231-16.655-15.465-1.9-9.992-1.9-9.992l16.522-6.844-1.639,5.954s5.925,3.523,6.53,7.79c.4,2.847,8.062,7.712,8.062,7.712a6.323,6.323,0,0,1,5.314-2.273l6.435.455-4.346,9.809Z" transform="translate(-253.058 -105.476)" fill="#b78876"/>
              <path id="Trazado_874109" data-name="Trazado 874109" d="M272.063,368.84a2.56,2.56,0,0,0,.731.3c.482.161,1.2.319,2.049.6a8.427,8.427,0,0,1,2.684,1.559,13.383,13.383,0,0,0,3.306,2.1,11.206,11.206,0,0,0,7.015.588,3.7,3.7,0,0,0,1.173-.435.859.859,0,0,0,.428-.857.635.635,0,0,0-.347-.5c-.138-.051-.215-.02-.212-.013s.073.015.179.078a.578.578,0,0,1,.241.452.7.7,0,0,1-.4.671,3.719,3.719,0,0,1-1.12.356,11.488,11.488,0,0,1-6.817-.671,13.736,13.736,0,0,1-3.243-2.031,8.279,8.279,0,0,0-2.81-1.538c-.88-.254-1.6-.372-2.089-.49a4.761,4.761,0,0,0-.768-.162" transform="translate(-256.887 -113.609)" fill="#aa6550"/>
              <path id="Trazado_874110" data-name="Trazado 874110" d="M262.3,377.183c.03.051.794-.4,2.111-.946a19.035,19.035,0,0,1,5.364-1.335c.542-.058,1.073-.074,1.585-.086l.1,0,.051-.079a16.735,16.735,0,0,1,2.878-3.4c.831-.752,1.388-1.14,1.359-1.182a1.369,1.369,0,0,0-.429.225,11.369,11.369,0,0,0-1.079.783,14.7,14.7,0,0,0-3.025,3.38l.147-.081c-.523.007-1.066.021-1.619.08A16.905,16.905,0,0,0,264.3,376a14.265,14.265,0,0,0-1.5.806,2.084,2.084,0,0,0-.5.373" transform="translate(-236.406 -114.015)" fill="#aa6550"/>
              <path id="Trazado_874111" data-name="Trazado 874111" d="M281.341,376.241c-.031.1,1.048.491,2.263,1.187s2.108,1.414,2.178,1.336a7.535,7.535,0,0,0-4.441-2.522" transform="translate(-259.629 -115.885)" fill="#aa6550"/>
              <path id="Trazado_874112" data-name="Trazado 874112" d="M293.395,349.574c.014.107,1.073-.023,2.311.309,1.242.314,2.1.946,2.167.859a4.477,4.477,0,0,0-4.478-1.168" transform="translate(-280.06 -107.613)" fill="#aa6550"/>
            </g>
          </g>
        </g>
      </g>
    </g>
  </g>
</svg>
