<svg xmlns="http://www.w3.org/2000/svg" xmlns:xlink="http://www.w3.org/1999/xlink" width="400.507" height="492.738" viewBox="0 0 400.507 492.738">
  <defs>
    <clipPath id="clip-path">
      <rect id="Rectángulo_401436" data-name="Rectángulo 401436" width="400.507" height="473.351" fill="none"/>
    </clipPath>
    <clipPath id="clip-path-4">
      <rect id="Rectángulo_401414" data-name="Rectángulo 401414" width="217.268" height="300.832" fill="none"/>
    </clipPath>
    <clipPath id="clip-path-6">
      <rect id="Rectángulo_401418" data-name="Rectángulo 401418" width="26.257" height="16.46" fill="none"/>
    </clipPath>
    <clipPath id="clip-path-7">
      <rect id="Rectángulo_401419" data-name="Rectángulo 401419" width="3.111" height="3.111" fill="none"/>
    </clipPath>
    <clipPath id="clip-path-8">
      <rect id="Rectángulo_401420" data-name="Rectángulo 401420" width="18.861" height="6.491" fill="none"/>
    </clipPath>
    <clipPath id="clip-path-9">
      <rect id="Rectángulo_401421" data-name="Rectángulo 401421" width="2.854" height="2.842" fill="none"/>
    </clipPath>
    <clipPath id="clip-path-10">
      <rect id="Rectángulo_401422" data-name="Rectángulo 401422" width="36.567" height="4.028" fill="none"/>
    </clipPath>
    <clipPath id="clip-path-11">
      <rect id="Rectángulo_401423" data-name="Rectángulo 401423" width="18.279" height="3.852" fill="none"/>
    </clipPath>
    <clipPath id="clip-path-12">
      <rect id="Rectángulo_401424" data-name="Rectángulo 401424" width="39.75" height="8.424" fill="none"/>
    </clipPath>
    <clipPath id="clip-path-13">
      <rect id="Rectángulo_401425" data-name="Rectángulo 401425" width="39.545" height="17.368" fill="none"/>
    </clipPath>
    <clipPath id="clip-path-14">
      <rect id="Rectángulo_401426" data-name="Rectángulo 401426" width="29.009" height="18.044" fill="none"/>
    </clipPath>
    <clipPath id="clip-path-16">
      <rect id="Rectángulo_401428" data-name="Rectángulo 401428" width="41.854" height="8.87" fill="none"/>
    </clipPath>
    <clipPath id="clip-path-17">
      <rect id="Rectángulo_401429" data-name="Rectángulo 401429" width="26.257" height="16.461" fill="none"/>
    </clipPath>
    <clipPath id="clip-path-19">
      <rect id="Rectángulo_401431" data-name="Rectángulo 401431" width="39.723" height="4.535" fill="none"/>
    </clipPath>
    <clipPath id="clip-path-20">
      <rect id="Rectángulo_401432" data-name="Rectángulo 401432" width="4.865" height="6.151" fill="none"/>
    </clipPath>
    <clipPath id="clip-path-21">
      <rect id="Rectángulo_401433" data-name="Rectángulo 401433" width="46.18" height="26.633" fill="none"/>
    </clipPath>
  </defs>
  <g id="Grupo_1100658" data-name="Grupo 1100658" transform="translate(-1020 -5389.903)">
    <g id="Grupo_1099984" data-name="Grupo 1099984" transform="translate(0 1712.658)">
      <g id="Grupo_1099924" data-name="Grupo 1099924" transform="translate(874 2896.168)">
        <g id="Grupo_54356" data-name="Grupo 54356" transform="translate(180 781.077)">
          <path id="Trazado_874173" data-name="Trazado 874173" d="M35.762,0H303.838C323.588,0,339.6,17.363,339.6,38.782V396.421c0,45-33.64,81.483-75.137,81.483H75.137a70.448,70.448,0,0,1-12.744-1.167C27.067,470.3,0,436.787,0,396.42V38.782C0,17.363,16.011,0,35.762,0Z" transform="translate(0 1.193)" fill="#53bced"/>
          <path id="Trazado_103528" data-name="Trazado 103528" d="M1053.37,707.338H965.719c-57.166,0-103.675-41.881-103.675-93.359V272.125c0-24.855,22.455-45.076,50.058-45.076h194.886c27.6,0,50.056,20.221,50.056,45.076V613.979C1157.044,665.458,1110.536,707.338,1053.37,707.338ZM912.1,229.5c-26.1,0-47.334,19.121-47.334,42.624V613.979c0,50.126,45.286,90.907,100.951,90.907h87.652c55.664,0,100.95-40.781,100.95-90.907V272.125c0-23.5-21.234-42.624-47.333-42.624Z" transform="translate(-791.044 -227.049)" fill="#db6e5f"/>
        </g>
      </g>
      <g id="Grupo_1099982" data-name="Grupo 1099982" transform="translate(1020 3696.632)">
        <g id="Grupo_1099981" data-name="Grupo 1099981" clip-path="url(#clip-path)">
          <g id="Grupo_1099926" data-name="Grupo 1099926">
            <g id="Grupo_1099925" data-name="Grupo 1099925" clip-path="url(#clip-path)">
              <path id="Trazado_874174" data-name="Trazado 874174" d="M273.489,37.82h-3.641L261.9,26.749V19.482s-5.626-.346-4.964,9.169-.054,7.092-.054,7.092-11.948.046-12.941,1.084c-.722.754-1.048,12.623-1.174,19.058a6.969,6.969,0,0,0,4.938,7.02,5.218,5.218,0,0,0,1.286.173c2.98,0,18.206-2.424,18.206-2.424h6.288Z" transform="translate(15.523 1.246)" fill="#ebebeb"/>
              <path id="Trazado_874175" data-name="Trazado 874175" d="M281.948,34.844l-2.239,24.9h-6.235v-24.4Z" transform="translate(17.487 2.228)" fill="#ebebeb"/>
              <rect id="Rectángulo_401409" data-name="Rectángulo 401409" width="71.099" height="117.063" transform="translate(278.06 286.006)" fill="#ebebeb"/>
              <rect id="Rectángulo_401410" data-name="Rectángulo 401410" width="71.099" height="117.063" transform="translate(254.667 286.006)" fill="#f5f5f5"/>
              <path id="Trazado_874176" data-name="Trazado 874176" d="M253.41,279.764v-5.082H246.7v5.082c0,2.173,1.285,3.977,2.931,4.247v4.424h-1.492a.909.909,0,0,0-.95.854h5.735a.909.909,0,0,0-.95-.854h-1.493v-4.424c1.647-.269,2.931-2.075,2.931-4.247" transform="translate(15.774 17.564)" fill="#e0e0e0" fill-rule="evenodd"/>
              <path id="Trazado_874177" data-name="Trazado 874177" d="M265.654,279.423c-.526-2.712-2.451-4.741-4.731-4.741h0c-2.279,0-4.206,2.029-4.729,4.741h4.279v7.967a.958.958,0,1,1-1.892,0h-.911a1.894,1.894,0,1,0,3.712,0v-7.967Z" transform="translate(16.381 17.564)" fill="#e0e0e0" fill-rule="evenodd"/>
              <path id="Trazado_874178" data-name="Trazado 874178" d="M334.069,321.484c0,.153-21.338.277-47.656.277s-47.658-.123-47.658-.277,21.334-.277,47.658-.277,47.656.123,47.656.277" transform="translate(15.266 20.539)" fill="#e0e0e0"/>
              <path id="Trazado_874179" data-name="Trazado 874179" d="M272.789,386.374c-.12,0-.217-26.353-.217-58.853s.1-58.859.217-58.859.216,26.347.216,58.859-.1,58.853-.216,58.853" transform="translate(17.429 17.179)" fill="#e0e0e0"/>
              <rect id="Rectángulo_401411" data-name="Rectángulo 401411" width="59.722" height="76.27" transform="translate(207.525 326.392)" fill="#ebebeb"/>
              <rect id="Rectángulo_401412" data-name="Rectángulo 401412" width="59.722" height="76.27" transform="translate(183.872 326.392)" fill="#f5f5f5"/>
              <path id="Trazado_874180" data-name="Trazado 874180" d="M188.612,319.29h1.7l-1.465-3.429-1.464-3.43-1.464,3.43-1.465,3.429h1.7v8.623h-4.184V319.29h1.7l-1.464-3.429-1.463-3.43-1.465,3.43-1.464,3.429h1.7v8.623h-.987v1.2H189.6v-1.2h-.987Z" transform="translate(11.37 19.977)" fill="#e0e0e0" fill-rule="evenodd"/>
              <path id="Trazado_874181" data-name="Trazado 874181" d="M201.524,382.906c-.12,0-.217-16.922-.217-37.792s.1-37.8.217-37.8.217,16.919.217,37.8-.1,37.792-.217,37.792" transform="translate(12.872 19.651)" fill="#e0e0e0"/>
              <path id="Trazado_874182" data-name="Trazado 874182" d="M256.8,342.543c0,.153-18.918.277-42.25.277s-42.253-.123-42.253-.277,18.915-.277,42.253-.277,42.25.123,42.25.277" transform="translate(11.017 21.885)" fill="#e0e0e0"/>
              <path id="Trazado_874183" data-name="Trazado 874183" d="M377.225,437.75H23.281C10.423,437.75,0,424.438,0,408.017s10.423-29.733,23.281-29.733H377.225c12.858,0,23.282,13.312,23.282,29.733s-10.425,29.733-23.282,29.733" transform="translate(0 24.188)" fill="#e0e0e0" fill-rule="evenodd"/>
              <path id="Trazado_874184" data-name="Trazado 874184" d="M378.749,424.093H22.825c-7.287,0-13.194-7.544-13.194-16.851s5.907-16.85,13.194-16.85H378.749c7.287,0,13.194,7.543,13.194,16.85s-5.907,16.851-13.194,16.851" transform="translate(0.616 24.963)" fill="#ebebeb" fill-rule="evenodd"/>
              <path id="Trazado_874185" data-name="Trazado 874185" d="M35.135,407.075a31.991,31.991,0,0,0-.421-3.353,14.539,14.539,0,0,0-3.95-7.489,9.681,9.681,0,0,0-4.5-2.524,8.526,8.526,0,0,0-5.588.611,9.549,9.549,0,0,0-2.688,1.852,11.829,11.829,0,0,0-2.244,2.884,16.607,16.607,0,0,0,0,16.035,11.829,11.829,0,0,0,2.244,2.884,9.559,9.559,0,0,0,2.689,1.853,8.522,8.522,0,0,0,5.589.61,9.685,9.685,0,0,0,4.5-2.523,14.557,14.557,0,0,0,3.951-7.49,32.129,32.129,0,0,0,.42-3.351,6.586,6.586,0,0,1,.009.885,8.013,8.013,0,0,1-.064,1.071,12.369,12.369,0,0,1-.2,1.447,14.7,14.7,0,0,1-3.929,7.75,9.969,9.969,0,0,1-4.615,2.663,8.77,8.77,0,0,1-5.791-.582,9.862,9.862,0,0,1-2.8-1.908,12.241,12.241,0,0,1-2.341-2.989,17.218,17.218,0,0,1,0-16.677,12.211,12.211,0,0,1,2.34-2.988,9.84,9.84,0,0,1,2.8-1.908,8.766,8.766,0,0,1,5.79-.582,9.973,9.973,0,0,1,4.616,2.663,14.687,14.687,0,0,1,3.928,7.749,12.169,12.169,0,0,1,.2,1.447,8.037,8.037,0,0,1,.064,1.072,6.587,6.587,0,0,1-.009.885" transform="translate(0.847 25.13)" fill="#e0e0e0"/>
              <path id="Trazado_874186" data-name="Trazado 874186" d="M27.788,406.531c0,2.761-1.752,5-3.915,5s-3.915-2.238-3.915-5,1.753-5,3.915-5,3.915,2.239,3.915,5" transform="translate(1.276 25.675)" fill="#e0e0e0" fill-rule="evenodd"/>
              <path id="Trazado_874187" data-name="Trazado 874187" d="M367.145,407.075a31.988,31.988,0,0,0-.421-3.353,14.539,14.539,0,0,0-3.95-7.489,9.681,9.681,0,0,0-4.5-2.524,8.526,8.526,0,0,0-5.588.611A9.548,9.548,0,0,0,350,396.173a11.829,11.829,0,0,0-2.244,2.884,16.607,16.607,0,0,0,0,16.035A11.829,11.829,0,0,0,350,417.976a9.574,9.574,0,0,0,2.689,1.853,8.522,8.522,0,0,0,5.589.61,9.691,9.691,0,0,0,4.5-2.523,14.557,14.557,0,0,0,3.951-7.49,32.13,32.13,0,0,0,.42-3.351,6.588,6.588,0,0,1,.009.885,8.017,8.017,0,0,1-.064,1.071,12.367,12.367,0,0,1-.2,1.447,14.7,14.7,0,0,1-3.929,7.75,9.969,9.969,0,0,1-4.615,2.663,8.774,8.774,0,0,1-5.792-.582,9.872,9.872,0,0,1-2.8-1.908,12.242,12.242,0,0,1-2.341-2.989,17.218,17.218,0,0,1,0-16.677,12.211,12.211,0,0,1,2.34-2.988,9.85,9.85,0,0,1,2.8-1.908,8.772,8.772,0,0,1,5.792-.582,9.974,9.974,0,0,1,4.615,2.663,14.687,14.687,0,0,1,3.928,7.749,12.172,12.172,0,0,1,.2,1.447,8.041,8.041,0,0,1,.064,1.072,6.589,6.589,0,0,1-.009.885" transform="translate(22.077 25.13)" fill="#e0e0e0"/>
              <path id="Trazado_874188" data-name="Trazado 874188" d="M359.8,406.531c0,2.761-1.752,5-3.915,5s-3.915-2.238-3.915-5,1.753-5,3.915-5,3.915,2.239,3.915,5" transform="translate(22.505 25.675)" fill="#e0e0e0" fill-rule="evenodd"/>
              <path id="Trazado_874189" data-name="Trazado 874189" d="M377.873,393.11c0,.153-79.305.277-177.11.277-97.838,0-177.126-.123-177.126-.277s79.288-.277,177.126-.277c97.805,0,177.11.123,177.11.277" transform="translate(1.511 25.119)" fill="#e0e0e0"/>
              <path id="Trazado_874190" data-name="Trazado 874190" d="M377.785,419.251c0,.153-78.976.277-176.375.277-97.434,0-176.393-.123-176.393-.277s78.959-.277,176.393-.277c97.4,0,176.375.123,176.375.277" transform="translate(1.6 26.79)" fill="#e0e0e0"/>
            </g>
          </g>
          <g id="Grupo_1099931" data-name="Grupo 1099931">
            <g id="Grupo_1099930" data-name="Grupo 1099930" clip-path="url(#clip-path)">
              <path id="Trazado_874191" data-name="Trazado 874191" d="M220.875,325.675H17.147a6.77,6.77,0,0,1-6.77-6.77V31.613a6.77,6.77,0,0,1,6.77-6.77H220.875a6.77,6.77,0,0,1,6.77,6.77V318.9a6.77,6.77,0,0,1-6.77,6.77" transform="translate(0.664 1.589)" fill="#e8505b"/>
              <g id="Grupo_1099929" data-name="Grupo 1099929" transform="translate(11.04 26.432)" opacity="0.3">
                <g id="Grupo_1099928" data-name="Grupo 1099928">
                  <g id="Grupo_1099927" data-name="Grupo 1099927" clip-path="url(#clip-path-4)">
                    <path id="Trazado_874192" data-name="Trazado 874192" d="M220.875,325.675H17.147a6.77,6.77,0,0,1-6.77-6.77V31.613a6.77,6.77,0,0,1,6.77-6.77H220.875a6.77,6.77,0,0,1,6.77,6.77V318.9a6.77,6.77,0,0,1-6.77,6.77" transform="translate(-10.377 -24.843)"/>
                  </g>
                </g>
              </g>
              <rect id="Rectángulo_401415" data-name="Rectángulo 401415" width="186.778" height="274.207" transform="translate(26.285 42.526)" fill="#e0e0e0"/>
              <rect id="Rectángulo_401416" data-name="Rectángulo 401416" width="186.778" height="268.97" transform="translate(23.713 40.328)" fill="#ebebeb"/>
              <path id="Trazado_874193" data-name="Trazado 874193" d="M209.083,306.891c0-2.248-.1-110.264-.252-268.97l.252.252L22.327,38.2h-.021l.277-.277c-.02,101-.039,194.314-.054,268.97l-.222-.223,186.777.223-186.777.223h-.223v-.223c-.015-74.656-.034-167.97-.054-268.97v-.278h.3l186.756.024h.253v.253c-.15,158.706-.251,266.723-.253,268.97" transform="translate(1.409 2.407)" fill="#263238"/>
              <path id="Trazado_874194" data-name="Trazado 874194" d="M135.568,293.628s47.993-18.273,65.81-48.57a49.862,49.862,0,0,1-38.352,7.98s-12.707,33.909-27.458,40.59" transform="translate(8.669 15.67)" fill="#e0e0e0"/>
              <path id="Trazado_874195" data-name="Trazado 874195" d="M135.568,293.694l.795-.445a20.593,20.593,0,0,0,2.292-1.466,37.851,37.851,0,0,0,7.183-7.19c5.427-6.877,11.574-17.857,16.954-31.578l.079-.2.206.043a49.073,49.073,0,0,0,17.37.347c1.521-.182,3.018-.587,4.545-.906,1.5-.43,3.027-.832,4.518-1.389a51.045,51.045,0,0,0,8.775-4.073,34.009,34.009,0,0,0,2.923-1.93l1.148-.876-.738,1.234A75.415,75.415,0,0,1,191.3,258.617a112.839,112.839,0,0,1-11.692,10.429,166.548,166.548,0,0,1-22.126,14.4c-6.579,3.606-12.075,6.16-15.9,7.835-1.915.835-3.416,1.445-4.439,1.845l-1.168.443a3.105,3.105,0,0,1-.405.129c.018,0,.12-.072.385-.181l1.148-.49c1.008-.433,2.494-1.074,4.394-1.937,3.8-1.732,9.258-4.336,15.8-7.979a169.926,169.926,0,0,0,22-14.458,113.363,113.363,0,0,0,11.614-10.405,75.347,75.347,0,0,0,10.229-13.26l.41.357a34.383,34.383,0,0,1-2.982,1.971,51.364,51.364,0,0,1-8.874,4.114c-1.508.563-3.049.969-4.568,1.4-1.544.321-3.058.728-4.6.911a49.372,49.372,0,0,1-17.554-.389l.284-.157c-5.442,13.757-11.663,24.725-17.188,31.588a36.676,36.676,0,0,1-7.325,7.133,18.09,18.09,0,0,1-3.179,1.781" transform="translate(8.668 15.604)" fill="#263238"/>
              <path id="Trazado_874196" data-name="Trazado 874196" d="M62.014,113.893H46.457a3.638,3.638,0,0,1-3.638-3.638V94.7a3.638,3.638,0,0,1,3.638-3.638H62.014A3.638,3.638,0,0,1,65.651,94.7v15.557a3.638,3.638,0,0,1-3.638,3.638" transform="translate(2.738 5.823)" fill="#e8505b"/>
              <path id="Trazado_874197" data-name="Trazado 874197" d="M52.427,105.43h-.018a.532.532,0,0,1-.386-.186l-3.2-3.731a.532.532,0,1,1,.808-.692l2.819,3.29,7.411-7.58a.532.532,0,1,1,.761.744l-7.818,8a.532.532,0,0,1-.38.16" transform="translate(3.114 6.162)" fill="#fff"/>
              <path id="Trazado_874198" data-name="Trazado 874198" d="M183.882,93.69c0,.153-24.3.277-54.268.277S75.34,93.843,75.34,93.69s24.3-.277,54.274-.277,54.268.123,54.268.277" transform="translate(4.817 5.973)" fill="#263238"/>
              <path id="Trazado_874199" data-name="Trazado 874199" d="M121.071,109.385a11.178,11.178,0,0,1-1.8.107l-4.9.088c-4.138.05-9.854.081-16.168.081s-12.032-.031-16.17-.081l-4.9-.088a11.17,11.17,0,0,1-1.8-.107,11.17,11.17,0,0,1,1.8-.107l4.9-.088c4.138-.05,9.854-.081,16.17-.081s12.03.031,16.168.081l4.9.088a11.178,11.178,0,0,1,1.8.107" transform="translate(4.817 6.977)" fill="#263238"/>
              <path id="Trazado_874200" data-name="Trazado 874200" d="M183.882,100.645c0,.153-24.3.277-54.268.277s-54.274-.123-54.274-.277,24.3-.277,54.274-.277,54.268.123,54.268.277" transform="translate(4.817 6.418)" fill="#263238"/>
              <path id="Trazado_874201" data-name="Trazado 874201" d="M62.014,151.56H46.457a3.638,3.638,0,0,1-3.638-3.638V132.366a3.638,3.638,0,0,1,3.638-3.638H62.014a3.638,3.638,0,0,1,3.638,3.638v15.557a3.638,3.638,0,0,1-3.638,3.638" transform="translate(2.738 8.231)" fill="#e8505b"/>
              <path id="Trazado_874202" data-name="Trazado 874202" d="M52.427,143.1h-.018a.527.527,0,0,1-.386-.185l-3.2-3.731a.532.532,0,1,1,.808-.692l2.819,3.29,7.411-7.58a.532.532,0,0,1,.761.744l-7.818,8a.532.532,0,0,1-.38.16" transform="translate(3.114 8.571)" fill="#fff"/>
              <path id="Trazado_874203" data-name="Trazado 874203" d="M183.882,131.357c0,.153-24.3.277-54.268.277s-54.274-.123-54.274-.277,24.3-.277,54.274-.277,54.268.123,54.268.277" transform="translate(4.817 8.382)" fill="#263238"/>
              <path id="Trazado_874204" data-name="Trazado 874204" d="M121.071,147.052a11.178,11.178,0,0,1-1.8.107l-4.9.088c-4.138.05-9.854.081-16.168.081s-12.032-.031-16.17-.081l-4.9-.088a11.171,11.171,0,0,1-1.8-.107,11.17,11.17,0,0,1,1.8-.107l4.9-.088c4.138-.05,9.854-.081,16.17-.081s12.03.031,16.168.081l4.9.088a11.177,11.177,0,0,1,1.8.107" transform="translate(4.817 9.385)" fill="#263238"/>
              <path id="Trazado_874205" data-name="Trazado 874205" d="M183.882,138.313c0,.153-24.3.277-54.268.277s-54.274-.123-54.274-.277,24.3-.277,54.274-.277,54.268.123,54.268.277" transform="translate(4.817 8.826)" fill="#263238"/>
              <path id="Trazado_874206" data-name="Trazado 874206" d="M62.014,189.227H46.457a3.637,3.637,0,0,1-3.638-3.638V170.033a3.637,3.637,0,0,1,3.638-3.637H62.014a3.637,3.637,0,0,1,3.638,3.637V185.59a3.637,3.637,0,0,1-3.638,3.638" transform="translate(2.738 10.64)" fill="#e8505b"/>
              <path id="Trazado_874207" data-name="Trazado 874207" d="M52.427,180.764h-.018a.532.532,0,0,1-.386-.186l-3.2-3.731a.532.532,0,1,1,.808-.692l2.819,3.29,7.411-7.58a.532.532,0,0,1,.761.744l-7.818,8a.532.532,0,0,1-.38.16" transform="translate(3.114 10.979)" fill="#fff"/>
              <path id="Trazado_874208" data-name="Trazado 874208" d="M183.882,169.024c0,.153-24.3.277-54.268.277s-54.274-.123-54.274-.277,24.3-.277,54.274-.277,54.268.123,54.268.277" transform="translate(4.817 10.79)" fill="#263238"/>
              <path id="Trazado_874209" data-name="Trazado 874209" d="M121.071,184.719a11.175,11.175,0,0,1-1.8.107l-4.9.088c-4.138.05-9.854.081-16.168.081s-12.032-.031-16.17-.081l-4.9-.088a11.168,11.168,0,0,1-1.8-.107,11.171,11.171,0,0,1,1.8-.107l4.9-.088c4.138-.05,9.854-.081,16.17-.081s12.03.031,16.168.081l4.9.088a11.178,11.178,0,0,1,1.8.107" transform="translate(4.817 11.794)" fill="#263238"/>
              <path id="Trazado_874210" data-name="Trazado 874210" d="M183.882,175.98c0,.153-24.3.277-54.268.277s-54.274-.123-54.274-.277,24.3-.277,54.274-.277,54.268.123,54.268.277" transform="translate(4.817 11.235)" fill="#263238"/>
              <path id="Trazado_874211" data-name="Trazado 874211" d="M62.014,226.894H46.457a3.637,3.637,0,0,1-3.638-3.638V207.7a3.637,3.637,0,0,1,3.638-3.637H62.014a3.637,3.637,0,0,1,3.638,3.637v15.557a3.637,3.637,0,0,1-3.638,3.638" transform="translate(2.738 13.048)" fill="#e8505b"/>
              <path id="Trazado_874212" data-name="Trazado 874212" d="M52.427,218.431h-.018a.532.532,0,0,1-.386-.186l-3.2-3.731a.532.532,0,1,1,.808-.692l2.819,3.29,7.411-7.58a.532.532,0,0,1,.761.744l-7.818,8a.532.532,0,0,1-.38.16" transform="translate(3.114 13.388)" fill="#fff"/>
              <path id="Trazado_874213" data-name="Trazado 874213" d="M183.882,206.691c0,.153-24.3.277-54.268.277s-54.274-.123-54.274-.277,24.3-.277,54.274-.277,54.268.123,54.268.277" transform="translate(4.817 13.199)" fill="#263238"/>
              <path id="Trazado_874214" data-name="Trazado 874214" d="M121.071,222.386a11.179,11.179,0,0,1-1.8.107l-4.9.088c-4.138.05-9.854.081-16.168.081s-12.032-.031-16.17-.081l-4.9-.088a11.172,11.172,0,0,1-1.8-.107,11.165,11.165,0,0,1,1.8-.107l4.9-.088c4.138-.05,9.854-.081,16.17-.081s12.03.031,16.168.081l4.9.088a11.173,11.173,0,0,1,1.8.107" transform="translate(4.817 14.202)" fill="#263238"/>
              <path id="Trazado_874215" data-name="Trazado 874215" d="M183.882,213.647c0,.153-24.3.277-54.268.277s-54.274-.123-54.274-.277,24.3-.277,54.274-.277,54.268.123,54.268.277" transform="translate(4.817 13.643)" fill="#263238"/>
              <path id="Trazado_874216" data-name="Trazado 874216" d="M47.681,22.168V36.247A14.793,14.793,0,0,0,62.474,51.04H165.783a14.793,14.793,0,0,0,14.793-14.793V22.195Z" transform="translate(3.049 1.417)" fill="#263238"/>
              <path id="Trazado_874217" data-name="Trazado 874217" d="M110.9,27.741a13.871,13.871,0,1,1,13.871-13.871A13.886,13.886,0,0,1,110.9,27.741m0-22.422a8.551,8.551,0,1,0,8.551,8.551A8.56,8.56,0,0,0,110.9,5.32" transform="translate(6.204)" fill="#263238"/>
            </g>
          </g>
          <g id="Grupo_1099960" data-name="Grupo 1099960">
            <g id="Grupo_1099959" data-name="Grupo 1099959" clip-path="url(#clip-path)">
              <path id="Trazado_874218" data-name="Trazado 874218" d="M349.856,401.28l5.53,23.537,10.942,18.778a2.705,2.705,0,0,1-3.613,3.747c-4.913-2.651-22.939-12.492-23.306-14.392-.426-2.2-7.551-26.969-7.551-26.969Z" transform="translate(21.22 25.659)" fill="#e8505b"/>
              <g id="Grupo_1099934" data-name="Grupo 1099934" transform="translate(360.153 456.891)" opacity="0.6">
                <g id="Grupo_1099933" data-name="Grupo 1099933">
                  <g id="Grupo_1099932" data-name="Grupo 1099932" clip-path="url(#clip-path-6)">
                    <path id="Trazado_874219" data-name="Trazado 874219" d="M364.765,445.581l-26.256-16.148.3,1.078a4.061,4.061,0,0,0,1.634,2.287c2.141,1.452,8.14,5.334,21.77,12.766a2.7,2.7,0,0,0,2.553.017" transform="translate(-338.508 -429.432)" fill="#fff"/>
                  </g>
                </g>
              </g>
              <g id="Grupo_1099937" data-name="Grupo 1099937" transform="translate(361.056 447.144)" opacity="0.6">
                <g id="Grupo_1099936" data-name="Grupo 1099936">
                  <g id="Grupo_1099935" data-name="Grupo 1099935" clip-path="url(#clip-path-7)">
                    <path id="Trazado_874220" data-name="Trazado 874220" d="M341.407,420.365a1.636,1.636,0,0,1,1,1.941,1.573,1.573,0,0,1-1.915,1.01,1.726,1.726,0,0,1-1.049-2.061,1.631,1.631,0,0,1,2.108-.829" transform="translate(-339.357 -420.271)" fill="#fff"/>
                  </g>
                </g>
              </g>
              <path id="Trazado_874221" data-name="Trazado 874221" d="M354.835,435.917a5.837,5.837,0,0,1,4.459-3.966c.005-.069-.372-.178-.991-.1a4.312,4.312,0,0,0-3.449,3.067c-.152.605-.088.993-.019,1" transform="translate(22.684 27.612)" fill="#263238"/>
              <path id="Trazado_874222" data-name="Trazado 874222" d="M357.422,438.575c.151.077.739-.977,1.951-1.717a22.084,22.084,0,0,1,2.4-1.008,3,3,0,0,0-2.7.516c-1.377.852-1.795,2.177-1.644,2.209" transform="translate(22.852 27.861)" fill="#263238"/>
              <path id="Trazado_874223" data-name="Trazado 874223" d="M350.526,432.732a13.894,13.894,0,0,1,6.365-4.777,7.394,7.394,0,0,0-6.365,4.777" transform="translate(22.412 27.362)" fill="#263238"/>
              <path id="Trazado_874224" data-name="Trazado 874224" d="M348.07,425.423c.111.134,1.353-.843,3.164-1.414,1.8-.6,3.383-.533,3.394-.706a6.713,6.713,0,0,0-6.558,2.12" transform="translate(22.256 27.053)" fill="#263238"/>
              <path id="Trazado_874225" data-name="Trazado 874225" d="M346.111,418.4a8.59,8.59,0,0,1,6.863-1.645c.028-.065-.339-.307-1.019-.484a5.892,5.892,0,0,0-5.155,1.235c-.527.466-.743.848-.689.894" transform="translate(22.131 26.607)" fill="#263238"/>
              <path id="Trazado_874226" data-name="Trazado 874226" d="M349.037,415.773a2.282,2.282,0,0,0-.232-.972,6.942,6.942,0,0,0-1.462-2.309,3.078,3.078,0,0,0-1.663-1.065,1.086,1.086,0,0,0-1.116.561,1.768,1.768,0,0,0-.085,1.26,3.826,3.826,0,0,0,4.173,2.517,4.435,4.435,0,0,0,3.58-3.4,1.537,1.537,0,0,0-.271-1.253,1.067,1.067,0,0,0-1.226-.247A3.785,3.785,0,0,0,349.3,412.2a7.758,7.758,0,0,0-1.191,2.457,2.364,2.364,0,0,0-.148.987,12.388,12.388,0,0,1,1.665-3.2,3.525,3.525,0,0,1,1.28-1.132.569.569,0,0,1,.669.13,1.062,1.062,0,0,1,.13.834,3.958,3.958,0,0,1-3.139,2.909,3.318,3.318,0,0,1-3.573-2.085,1.28,1.28,0,0,1,.022-.882.586.586,0,0,1,.612-.317,2.777,2.777,0,0,1,1.425.875,10.27,10.27,0,0,1,1.984,2.993" transform="translate(22.022 26.266)" fill="#263238"/>
              <g id="Grupo_1099940" data-name="Grupo 1099940" transform="translate(353.883 431.478)" opacity="0.3">
                <g id="Grupo_1099939" data-name="Grupo 1099939">
                  <g id="Grupo_1099938" data-name="Grupo 1099938" clip-path="url(#clip-path-8)">
                    <path id="Trazado_874227" data-name="Trazado 874227" d="M332.616,408.516l1.008,3.522,17.853-3.928-.6-2.563Z" transform="translate(-332.615 -405.546)"/>
                  </g>
                </g>
              </g>
              <path id="Trazado_874228" data-name="Trazado 874228" d="M283.1,407.09l1.242,18.8s-18.7,7.577-18.805,11.075l36.546-1.1-.732-29.379Z" transform="translate(16.979 25.992)" fill="#e8505b"/>
              <g id="Grupo_1099943" data-name="Grupo 1099943" transform="translate(310.83 449.91)" opacity="0.6">
                <g id="Grupo_1099942" data-name="Grupo 1099942">
                  <g id="Grupo_1099941" data-name="Grupo 1099941" clip-path="url(#clip-path-9)">
                    <path id="Trazado_874229" data-name="Trazado 874229" d="M293.9,422.924a1.493,1.493,0,0,1,1.083,1.673,1.435,1.435,0,0,1-1.648,1.087,1.574,1.574,0,0,1-1.137-1.777,1.489,1.489,0,0,1,1.84-.942" transform="translate(-292.149 -422.871)" fill="#fff"/>
                  </g>
                </g>
              </g>
              <g id="Grupo_1099946" data-name="Grupo 1099946" transform="translate(282.498 458.934)" opacity="0.6">
                <g id="Grupo_1099945" data-name="Grupo 1099945">
                  <g id="Grupo_1099944" data-name="Grupo 1099944" clip-path="url(#clip-path-10)">
                    <path id="Trazado_874230" data-name="Trazado 874230" d="M302.087,434.282l-.073-2.93-35.086,2.131s-1.605.756-1.387,1.9Z" transform="translate(-265.52 -431.352)" fill="#fff"/>
                  </g>
                </g>
              </g>
              <path id="Trazado_874231" data-name="Trazado 874231" d="M282.652,424.581c.012.179.906.233,1.8.78.91.524,1.385,1.283,1.548,1.208.163-.039-.135-1.1-1.231-1.742s-2.162-.409-2.118-.246" transform="translate(18.073 27.137)" fill="#263238"/>
              <path id="Trazado_874232" data-name="Trazado 874232" d="M279.094,426.174c-.036.174.747.454,1.375,1.192.651.717.829,1.529,1.005,1.516.169.022.261-1.026-.538-1.927s-1.843-.951-1.842-.781" transform="translate(17.846 27.245)" fill="#263238"/>
              <path id="Trazado_874233" data-name="Trazado 874233" d="M277.268,430.725c.164.033.385-.866-.1-1.829s-1.333-1.328-1.4-1.177c-.1.149.461.658.849,1.454.408.788.481,1.538.659,1.551" transform="translate(17.632 27.347)" fill="#263238"/>
              <path id="Trazado_874234" data-name="Trazado 874234" d="M282.833,420.555c.08.161.891-.111,1.9-.072,1.011.018,1.807.333,1.895.177.1-.132-.687-.769-1.879-.8s-2.01.556-1.918.694" transform="translate(18.085 26.847)" fill="#263238"/>
              <g id="Grupo_1099949" data-name="Grupo 1099949" transform="translate(300.155 433.251)" opacity="0.3">
                <g id="Grupo_1099948" data-name="Grupo 1099948">
                  <g id="Grupo_1099947" data-name="Grupo 1099947" clip-path="url(#clip-path-11)">
                    <path id="Trazado_874235" data-name="Trazado 874235" d="M282.116,407.713l.217,3.351,18.063-.529v-3.323Z" transform="translate(-282.116 -407.213)"/>
                  </g>
                </g>
              </g>
              <path id="Trazado_874236" data-name="Trazado 874236" d="M282.663,417.128a3.421,3.421,0,0,0,1.83-.065,8.229,8.229,0,0,0,1.9-.645,8.784,8.784,0,0,0,1.035-.589,2.268,2.268,0,0,0,.539-.448.776.776,0,0,0,.053-.951.979.979,0,0,0-.795-.385,2.4,2.4,0,0,0-.683.116,6.561,6.561,0,0,0-1.127.425,6.461,6.461,0,0,0-1.654,1.159c-.823.811-1.094,1.486-1.031,1.518.082.056.478-.514,1.321-1.188a7.338,7.338,0,0,1,1.605-.969,6.91,6.91,0,0,1,1.041-.355c.384-.113.713-.126.818.044.037.065.044.09-.034.206a1.851,1.851,0,0,1-.4.326,9.494,9.494,0,0,1-.951.582,10.081,10.081,0,0,1-1.749.732,12.594,12.594,0,0,0-1.719.489" transform="translate(18.074 26.475)" fill="#263238"/>
              <path id="Trazado_874237" data-name="Trazado 874237" d="M283.041,417.523a2.919,2.919,0,0,0,.43-1.782,5.97,5.97,0,0,0-.31-2,6.044,6.044,0,0,0-.5-1.1,1.517,1.517,0,0,0-1.195-.889.858.858,0,0,0-.75.534,2.478,2.478,0,0,0-.167.677,4.094,4.094,0,0,0,.035,1.233,4.223,4.223,0,0,0,.838,1.866c.744.926,1.495,1.117,1.508,1.057.056-.092-.576-.417-1.149-1.311a4.214,4.214,0,0,1-.631-1.7,3.754,3.754,0,0,1,0-1.059c.045-.389.181-.708.328-.672.182-.009.5.276.659.581a6.122,6.122,0,0,1,.483.978,6.581,6.581,0,0,1,.41,1.816c.082,1.071-.088,1.745.01,1.769" transform="translate(17.937 26.329)" fill="#263238"/>
              <path id="Trazado_874238" data-name="Trazado 874238" d="M325.884,119.705c-1.187.938-1.188,2.827-.444,4.145a11.229,11.229,0,0,0,3.24,3.134,7.6,7.6,0,0,1,2.894,3.408c.873,2.652-1.055,5.68-.018,8.273.9,2.261,3.679,3.215,4.907,5.319,1.262,2.161.571,4.907-.345,7.235s-2.05,4.772-1.568,7.226c.266,1.355,1.021,2.651.865,4.024-.226,1.985-2.23,3.248-4.117,3.906a19.1,19.1,0,0,1-9.689.738c-2.333-.431-4.741-1.43-5.986-3.45-1.067-1.732-1.092-3.891-1.048-5.925a173.466,173.466,0,0,1,4.362-35.069" transform="translate(20.114 7.654)" fill="#263238"/>
              <path id="Trazado_874239" data-name="Trazado 874239" d="M263.544,198.452l11.291-26.892s7.861-24.478,20.384-24.067l3.018,22.015-17.347,37.361-18.615-8.006" transform="translate(16.77 9.431)" fill="#e0e0e0"/>
              <path id="Trazado_874240" data-name="Trazado 874240" d="M284.313,209.038s-20.39,40.233-20.05,52.815c.19,7,10.886,158.857,10.886,158.857h30.767l-5.692-158.4,32.278,159.5,27.243-4.431L338,246.822s-3.724-23.214-11.386-32.742Z" transform="translate(16.897 13.366)" fill="#263238"/>
              <path id="Trazado_874241" data-name="Trazado 874241" d="M297.483,243.468a62.845,62.845,0,0,1,.588,8.311,62.973,62.973,0,0,1,.035,8.333,62.616,62.616,0,0,1-.588-8.313,62.742,62.742,0,0,1-.035-8.332" transform="translate(19.015 15.568)" fill="#455a64"/>
              <path id="Trazado_874242" data-name="Trazado 874242" d="M336.072,258.87a3.04,3.04,0,0,1-.965.217,14.166,14.166,0,0,1-2.693.1,16.377,16.377,0,0,1-14.068-9.587,14.1,14.1,0,0,1-.893-2.543,3.041,3.041,0,0,1-.151-.977c.1-.028.387,1.354,1.4,3.349a17.013,17.013,0,0,0,13.746,9.367c2.226.208,3.617-.03,3.628.073" transform="translate(20.288 15.735)" fill="#455a64"/>
              <path id="Trazado_874243" data-name="Trazado 874243" d="M276.666,244.349a9.109,9.109,0,0,1-1.069,2.469,25.095,25.095,0,0,1-8.917,9.307,9.089,9.089,0,0,1-2.42,1.175c-.1-.157,3.629-1.981,7.087-5.629,3.5-3.61,5.158-7.415,5.32-7.322" transform="translate(16.897 15.624)" fill="#455a64"/>
              <path id="Trazado_874244" data-name="Trazado 874244" d="M301.229,419.756a2.468,2.468,0,0,1-.055-.422c-.026-.307-.06-.719-.1-1.245-.082-1.125-.2-2.731-.347-4.787-.279-4.189-.679-10.2-1.172-17.611-.937-14.9-2.23-35.435-3.658-58.116-1.386-22.707-2.655-43.25-3.475-58.141-.218-7.464.552-13.542,1.868-17.522a12.4,12.4,0,0,1,2.21-4.259,4.634,4.634,0,0,1,.9-.873,2.317,2.317,0,0,1,.339-.257,2.409,2.409,0,0,1-.3.3,5.054,5.054,0,0,0-.846.9,12.727,12.727,0,0,0-2.09,4.255c-1.243,3.96-1.949,10.015-1.683,17.44.932,14.9,2.217,35.435,3.637,58.122,1.364,22.685,2.6,43.224,3.5,58.126.42,7.418.76,13.43,1,17.622.1,2.058.186,3.666.244,4.793.02.527.038.939.049,1.247a2.77,2.77,0,0,1,0,.427" transform="translate(18.695 16.403)" fill="#455a64"/>
              <path id="Trazado_874245" data-name="Trazado 874245" d="M353.76,416.851c-.151.021-5.185-35.467-11.239-79.252-6.057-43.8-10.843-79.315-10.691-79.336s5.182,35.459,11.24,79.259,10.842,79.307,10.69,79.329" transform="translate(21.218 16.514)" fill="#455a64"/>
              <path id="Trazado_874246" data-name="Trazado 874246" d="M324.779,214.152l5.8-29.338,4.482-31.558a29.258,29.258,0,0,0-14.317-6.816l-26.892,1.118-10.132,23.759,1.067,49.13Z" transform="translate(18.141 9.364)" fill="#e0e0e0"/>
              <path id="Trazado_874247" data-name="Trazado 874247" d="M322.171,146.9s-12.851,28.51-19.613,30.386c-3.029,12.078-5.715,75.954-5.715,75.954l42.314-1.76-12.524-41.424,5.034-20.78s-5.489-32.861.386-38.542c-3.315-2.193-6.042-3.594-9.882-3.834" transform="translate(18.981 9.393)" fill="#e8505b"/>
              <path id="Trazado_874248" data-name="Trazado 874248" d="M297.932,146.448a108.624,108.624,0,0,0-1.06,16.9,21.108,21.108,0,0,0,5.731,13.627l-5.61,76.3-29.95-4.365s6.178-19.094,11.1-27.4c0,0,2.346-3.944,6.635-11.416,0,0-2.995-24.347-3.106-27.785-.042-1.295,7.759-33.324,7.759-33.324a11.174,11.174,0,0,1,8.5-2.541" transform="translate(17.075 9.357)" fill="#e8505b"/>
              <path id="Trazado_874249" data-name="Trazado 874249" d="M288.887,113.29c-3.838-1.01-6.2-2.376-6.2-3.881,0-3.106,10.039-5.623,22.423-5.623s22.424,2.517,22.424,5.623c0,1.5-2.333,2.858-6.137,3.865" transform="translate(18.076 6.636)" fill="#e8505b"/>
              <g id="Grupo_1099952" data-name="Grupo 1099952" transform="translate(303.61 111.394)" opacity="0.4">
                <g id="Grupo_1099951" data-name="Grupo 1099951">
                  <g id="Grupo_1099950" data-name="Grupo 1099950" clip-path="url(#clip-path-12)">
                    <path id="Trazado_874250" data-name="Trazado 874250" d="M290.856,113.123c-3.4-.895-5.577-2.109-5.491-3.44.24-3.7,8.9-4.985,19.874-4.985s19.873,2.232,19.873,4.985c0,1.327-2.067,2.532-5.438,3.426" transform="translate(-285.363 -104.699)"/>
                  </g>
                </g>
              </g>
              <path id="Trazado_874251" data-name="Trazado 874251" d="M319.092,109.723c-.468,1.6.694,3.229,2.026,4.229s2.927,1.706,3.959,3.012a6.579,6.579,0,0,1,.57,6.482,14.772,14.772,0,0,1-4.214,5.285c-1.3,1.127-2.99,2.235-4.613,1.676" transform="translate(20.258 7.016)" fill="#263238"/>
              <path id="Trazado_874252" data-name="Trazado 874252" d="M331.152,150.507c-.533,0-2.5,5.013-3.97,9.53a30.228,30.228,0,0,0,2.46,24.3l9.306,16.358L310.932,210.1l4.1,13.116L354.257,212.7a11.435,11.435,0,0,0,6.921-16.8L340.733,160.76s-6.643-10.264-9.581-10.253" transform="translate(19.882 9.624)" fill="#e0e0e0"/>
              <path id="Trazado_874253" data-name="Trazado 874253" d="M320.5,112.467a15.17,15.17,0,0,0-15.941-14.844c-8.113.4-14.355,7.4-14.4,15.522-.036,7.12.085,14.286.49,16.835,1.221,7.689,6.164,10.031,8.123,10.665a10.1,10.1,0,0,0,2.1.209.05.05,0,0,1,.051.053L300.509,150c.069,5.906,4.057,10.6,9.964,10.6,5.926,0,9.814-5.111,9.854-11.037Z" transform="translate(18.553 6.241)" fill="#ffbe9d"/>
              <path id="Trazado_874254" data-name="Trazado 874254" d="M292.873,116.023a1.237,1.237,0,0,0,1.194,1.248,1.182,1.182,0,0,0,1.275-1.115,1.237,1.237,0,0,0-1.192-1.249,1.184,1.184,0,0,0-1.277,1.116" transform="translate(18.727 7.347)" fill="#263238"/>
              <path id="Trazado_874255" data-name="Trazado 874255" d="M292.122,114.01c.153.162,1.092-.532,2.423-.529,1.33-.016,2.308.669,2.452.506.07-.072-.086-.364-.511-.673a3.4,3.4,0,0,0-1.963-.605,3.273,3.273,0,0,0-1.929.622c-.41.315-.548.606-.472.679" transform="translate(18.678 7.207)" fill="#263238"/>
              <path id="Trazado_874256" data-name="Trazado 874256" d="M305.108,116.023a1.237,1.237,0,0,0,1.194,1.248,1.182,1.182,0,0,0,1.275-1.115,1.237,1.237,0,0,0-1.192-1.249,1.184,1.184,0,0,0-1.277,1.116" transform="translate(19.509 7.347)" fill="#263238"/>
              <path id="Trazado_874257" data-name="Trazado 874257" d="M304.424,114.244c.153.162,1.093-.532,2.423-.529,1.33-.016,2.308.669,2.452.506.07-.072-.084-.364-.512-.673a3.394,3.394,0,0,0-1.962-.605,3.276,3.276,0,0,0-1.929.622c-.409.315-.548.606-.472.679" transform="translate(19.464 7.222)" fill="#263238"/>
              <path id="Trazado_874258" data-name="Trazado 874258" d="M300.085,124.114a8.862,8.862,0,0,0-2.163-.39c-.339-.035-.662-.1-.719-.334a1.737,1.737,0,0,1,.228-1.009l1.005-2.589a44.5,44.5,0,0,0,2.258-6.773,44.7,44.7,0,0,0-2.8,6.575c-.335.91-.658,1.776-.963,2.6a1.967,1.967,0,0,0-.177,1.334.854.854,0,0,0,.56.5,2.3,2.3,0,0,0,.577.08,8.638,8.638,0,0,0,2.193,0" transform="translate(18.971 7.227)" fill="#263238"/>
              <path id="Trazado_874259" data-name="Trazado 874259" d="M300.292,138.461s5.141.422,11.573-3.443c0,0-2.029,6.8-11.686,5.893Z" transform="translate(19.194 8.633)" fill="#eb996e"/>
              <path id="Trazado_874260" data-name="Trazado 874260" d="M300.418,126.518a2.4,2.4,0,0,1,2.151-.892,2.2,2.2,0,0,1,1.513.812,1.388,1.388,0,0,1,.105,1.587,1.612,1.612,0,0,1-1.746.442,5.054,5.054,0,0,1-1.7-1.016,1.482,1.482,0,0,1-.38-.394.446.446,0,0,1,0-.5" transform="translate(19.201 8.032)" fill="#eb996e"/>
              <path id="Trazado_874261" data-name="Trazado 874261" d="M303.82,124.313c-.216-.013-.22,1.433-1.458,2.459s-2.776.867-2.785,1.069c-.021.09.342.281.992.3a3.6,3.6,0,0,0,2.328-.811,3.143,3.143,0,0,0,1.129-2.061c.055-.6-.106-.963-.205-.954" transform="translate(19.156 7.949)" fill="#263238"/>
              <path id="Trazado_874262" data-name="Trazado 874262" d="M303.861,112.034c.13.362,1.46.19,3.022.379,1.566.156,2.826.614,3.033.289.093-.155-.126-.5-.636-.847a5.3,5.3,0,0,0-4.614-.509c-.573.231-.862.515-.8.687" transform="translate(19.429 7.1)" fill="#263238"/>
              <path id="Trazado_874263" data-name="Trazado 874263" d="M292.583,111.458c.234.3,1.151-.012,2.255-.027,1.1-.053,2.037.2,2.252-.113.094-.153-.053-.456-.461-.743a3.265,3.265,0,0,0-3.631.112c-.39.311-.518.622-.415.77" transform="translate(18.706 7.039)" fill="#263238"/>
              <path id="Trazado_874264" data-name="Trazado 874264" d="M305.525,123.732a.189.189,0,1,1-.061.039" transform="translate(19.529 7.911)" fill="#263238"/>
              <path id="Trazado_874265" data-name="Trazado 874265" d="M298.166,106.353a8.488,8.488,0,0,0,6.259,3.633c1.634.128,3.491-.16,4.724.918.9.787,1.154,2.056,1.554,3.182a7.7,7.7,0,0,0,3.3,4.2c1.241.7,2.779.992,3.676,2.1.944,1.165.851,2.819.876,4.319s.38,3.244,1.728,3.9q.072-8.2.144-16.394a6.476,6.476,0,0,0-.283-2.409c-.663-1.715-2.6-2.529-4.371-3.012-5.023-1.366-10.283-1.532-15.487-1.688" transform="translate(19.065 6.72)" fill="#263238"/>
              <path id="Trazado_874266" data-name="Trazado 874266" d="M285.591,109.014s3.207-13.181,3.481-13.823,4.031-6.413,13.011-8.063H309.5s10.536,3.39,12.461,5.955,2.748,15.026,2.748,15.026L303.9,103.586l-14.155,3.452Z" transform="translate(18.261 5.571)" fill="#e8505b"/>
              <path id="Trazado_874267" data-name="Trazado 874267" d="M303.682,85.709h-3.188a5.158,5.158,0,0,0-1.265,3.349c-.149,2.307-.669,18.135-.669,18.135l9.3-.423-.3-19.55,3.16.7-.1-1.108-.837-.987Z" transform="translate(19.091 5.48)" fill="#e8505b"/>
              <path id="Trazado_874268" data-name="Trazado 874268" d="M289.31,109.341l.181-4.793,14-4.171,17.486,5.152v5.152a43,43,0,0,0-31.669-1.34" transform="translate(18.499 6.418)" fill="#455a64"/>
              <path id="Trazado_874269" data-name="Trazado 874269" d="M290.643,103.537l-.615.6-5.04,3.164a79.806,79.806,0,0,1,19.7-2.614c10.019.107,21.48,3.489,21.48,3.489l-6.637-3.993a11.436,11.436,0,0,0-8.126-3.622l-12.577-.246a11.43,11.43,0,0,0-8.184,3.225" transform="translate(18.223 6.414)" fill="#e8505b"/>
              <path id="Trazado_874270" data-name="Trazado 874270" d="M298.766,100.8a40.645,40.645,0,0,1,.1-6.7,40.762,40.762,0,0,1,.648-6.667,40.5,40.5,0,0,1-.1,6.7,40.642,40.642,0,0,1-.648,6.667" transform="translate(19.098 5.591)" fill="#263238"/>
              <path id="Trazado_874271" data-name="Trazado 874271" d="M310.2,87.831a12.191,12.191,0,0,1-2.347-.3.626.626,0,0,0-.577.59q.022.667.046,1.378c.023,1.01.049,2.078.076,3.2.038,2.269.043,4.324.018,5.811a10.461,10.461,0,0,1-.155,2.407,10.517,10.517,0,0,1-.237-2.407c-.076-1.486-.14-3.541-.18-5.809-.011-1.12-.021-2.189-.032-3.2q0-.728.006-1.413a1.044,1.044,0,0,1,1.022-.949,8.707,8.707,0,0,1,2.36.692" transform="translate(19.618 5.572)" fill="#263238"/>
              <path id="Trazado_874272" data-name="Trazado 874272" d="M284.694,107.282c-.008-.017.124-.1.389-.253s.67-.34,1.2-.565,1.18-.486,1.895-.851a5.356,5.356,0,0,0,2.044-1.684c.6-.767.684-1.976,1.513-3a2.809,2.809,0,0,1,1.718-.992,13.8,13.8,0,0,1,2.008-.186c2.713-.138,5.7-.178,8.834-.094s6.112.276,8.819.512a5.747,5.747,0,0,1,3.7,1.321,9.652,9.652,0,0,1,1.082,1.418l.464.67.235.312a.868.868,0,0,0,.249.184c1.794.922,3.346,1.574,4.359,2.1.513.257.905.47,1.167.622s.394.244.384.261a16.018,16.018,0,0,1-1.643-.687c-1.048-.475-2.584-1.05-4.459-1.958a1.248,1.248,0,0,1-.371-.274l-.25-.318c-.16-.22-.322-.444-.487-.672a9.362,9.362,0,0,0-1.052-1.333,5.349,5.349,0,0,0-3.422-1.141c-2.7-.207-5.669-.384-8.789-.467s-6.094-.059-8.8.051c-1.332.05-2.7.045-3.4.96-.745.856-.867,2.067-1.547,2.934a5.6,5.6,0,0,1-2.227,1.734c-.749.349-1.416.576-1.952.775-1.08.38-1.647.655-1.668.617" transform="translate(18.204 6.37)" fill="#263238"/>
              <path id="Trazado_874273" data-name="Trazado 874273" d="M286.455,107.725c-.012-.015.1-.109.313-.273a5.764,5.764,0,0,1,1.01-.635,17.9,17.9,0,0,1,4.129-1.436,46.765,46.765,0,0,1,14.332-.851c2.789.2,5.463.337,7.883.682a60.012,60.012,0,0,1,6.335,1.336c.889.246,1.684.509,2.369.772a4.127,4.127,0,0,1,1.65.962,1.7,1.7,0,0,1,.47,1.12c-.005.285-.087.417-.1.411a1.682,1.682,0,0,0-.526-1.381,4.08,4.08,0,0,0-1.6-.82c-.686-.233-1.478-.466-2.364-.685-1.768-.421-3.925-.87-6.3-1.21-2.394-.313-5.055-.435-7.855-.635a50.512,50.512,0,0,0-14.208.682,20.5,20.5,0,0,0-4.119,1.247c-.937.4-1.378.77-1.417.715" transform="translate(18.316 6.671)" fill="#263238"/>
              <path id="Trazado_874274" data-name="Trazado 874274" d="M300.15,100.581a3.86,3.86,0,0,1,.662-.026l1.8.027c1.524.043,3.627.144,5.944.338,1.159.1,2.262.206,3.263.319a13.882,13.882,0,0,1,2.651.439,2.591,2.591,0,0,1,1.442,1.091,1.249,1.249,0,0,1,.206.633,3.077,3.077,0,0,0-.279-.587,2.6,2.6,0,0,0-1.418-.987,14.955,14.955,0,0,0-2.625-.385l-3.259-.3c-2.314-.194-4.412-.319-5.933-.4l-1.8-.1a3.849,3.849,0,0,1-.66-.061" transform="translate(19.192 6.43)" fill="#fafafa"/>
              <path id="Trazado_874275" data-name="Trazado 874275" d="M306.767,99.561a2.012,2.012,0,0,1-.091-.467c-.045-.3-.1-.741-.154-1.284-.113-1.086-.226-2.592-.276-4.259s-.026-3.177.023-4.267c.024-.546.051-.987.079-1.292a1.963,1.963,0,0,1,.063-.471,1.9,1.9,0,0,1,.023.476c0,.429-.005.855-.009,1.292-.009,1.089-.007,2.595.042,4.257s.137,3.164.211,4.253c.028.434.056.861.084,1.288a1.976,1.976,0,0,1,.005.476" transform="translate(19.58 5.596)" fill="#fafafa"/>
              <path id="Trazado_874276" data-name="Trazado 874276" d="M316.583,104.388a1.8,1.8,0,0,1,.43.135l1.142.445,3.731,1.544a14.225,14.225,0,0,1,2.024.958,2.637,2.637,0,0,1,1.174,1.414,1.778,1.778,0,0,1-.036,1.241.927.927,0,0,1-.275.364c-.017-.014.1-.133.195-.4a1.774,1.774,0,0,0-.033-1.159,2.527,2.527,0,0,0-1.134-1.291,15.807,15.807,0,0,0-2-.926l-3.707-1.6-1.113-.509a1.781,1.781,0,0,1-.4-.215" transform="translate(20.243 6.675)" fill="#fafafa"/>
              <path id="Trazado_874277" data-name="Trazado 874277" d="M301.638,86.1a7.669,7.669,0,0,1,1.31-.054c.809-.005,1.925,0,3.158.024a22.46,22.46,0,0,1,3.167.166,1.585,1.585,0,0,1,.859.466.59.59,0,0,1,.169.316,1.56,1.56,0,0,0-1.061-.629c-.775-.13-1.91-.048-3.139-.1-1.233-.022-2.349-.054-3.157-.089a7.7,7.7,0,0,1-1.307-.1" transform="translate(19.287 5.502)" fill="#fafafa"/>
              <path id="Trazado_874278" data-name="Trazado 874278" d="M289.344,108.931a21.174,21.174,0,0,0,.9,12.662,44.4,44.4,0,0,1,.726-7.842,10.474,10.474,0,0,1,1.2-3.626c.818-1.059,2.273-1.32,3.58-1.6s2.765-.494,3.247-1.741a37.335,37.335,0,0,0-9.658,2.149" transform="translate(18.465 6.828)" fill="#263238"/>
              <path id="Trazado_874279" data-name="Trazado 874279" d="M301.086,140.557a5.978,5.978,0,0,0-3.833,1.709c-.887,1.109-1.458,2.5-2.583,3.366-1.06.816-2.5,1.07-3.46,2-1.886,1.825-.959,5.013-1.779,7.506a18.429,18.429,0,0,1-2.374,3.922c-.825,1.293-1.42,2.927-.827,4.341a3.776,3.776,0,0,0,2.965,2.093,7.943,7.943,0,0,0,3.722-.511q-.075-1.478-.148-2.957a4.194,4.194,0,0,0,.693,1.6,1.432,1.432,0,0,0,1.555.52c.856-.342.882-1.522.793-2.44-.332-3.382-.167-7.024,1.753-9.828.911-1.33,2.449-2.73,3.227-4.142Z" transform="translate(18.287 8.988)" fill="#263238"/>
              <path id="Trazado_874280" data-name="Trazado 874280" d="M248.853,190.723s1.906-4.157,4.677-3.984,10.566,1.039,10.566,1.039l.866,3.811-16.975-.866" transform="translate(15.857 11.94)" fill="#ffbe9d"/>
              <path id="Trazado_874281" data-name="Trazado 874281" d="M256.4,191.483l4.749-14.738a1.85,1.85,0,0,1,3.541,1.074l-4.114,14.491Z" transform="translate(16.395 11.219)" fill="#e8505b"/>
              <path id="Trazado_874282" data-name="Trazado 874282" d="M240.491,190.506h46.218l30.653,41.659-43.23-.63Z" transform="translate(15.378 12.181)" fill="#263238"/>
              <path id="Trazado_874283" data-name="Trazado 874283" d="M295.138,204.815a36.816,36.816,0,0,1,6.187-.193c2.422.243,11.519,2.3,11.519,2.3l3.862,12.083-4.514-.4-3.036,1.464c-4.839.641-10.406,1.285-11.464,1.02,0,0-1.825-1.026-1.278-2.059,0,0-4.131-.486-3.706-3.767a3.417,3.417,0,0,1-2.674-2.977l-7.57-.415a1.5,1.5,0,0,1-1.411-1.368c-.072-.85,1.072-1.145,1.925-1.181l11.8-.51a1.732,1.732,0,0,0,1.3-2.786Z" transform="translate(17.971 13.079)" fill="#ffbe9d"/>
              <g id="Grupo_1099955" data-name="Grupo 1099955" transform="translate(316.079 239.56)" opacity="0.5">
                <g id="Grupo_1099954" data-name="Grupo 1099954">
                  <g id="Grupo_1099953" data-name="Grupo 1099953" clip-path="url(#clip-path-13)">
                    <path id="Trazado_874284" data-name="Trazado 874284" d="M297.562,232.682l35.135-7.519,3.931,13-39.545,4.365Z" transform="translate(-297.083 -225.163)" fill="#fff"/>
                  </g>
                </g>
              </g>
              <g id="Grupo_1099958" data-name="Grupo 1099958" transform="translate(286.103 238.444)" opacity="0.5">
                <g id="Grupo_1099957" data-name="Grupo 1099957">
                  <g id="Grupo_1099956" data-name="Grupo 1099956" clip-path="url(#clip-path-14)">
                    <path id="Trazado_874285" data-name="Trazado 874285" d="M297.918,232.52l-23.611-8.406-5.4,12.793,28.42,5.252Z" transform="translate(-268.908 -224.114)" fill="#fff"/>
                  </g>
                </g>
              </g>
              <path id="Trazado_874286" data-name="Trazado 874286" d="M325.226,123.6c.051-.033.352.593.094,1.594a4.478,4.478,0,0,1-2.495,2.938,4.616,4.616,0,0,1-3.833-.44c-.864-.554-1.109-1.178-1.056-1.2.076-.061.425.445,1.25.856a4.7,4.7,0,0,0,3.44.264,4.517,4.517,0,0,0,2.32-2.536,8.553,8.553,0,0,0,.281-1.478" transform="translate(20.329 7.903)" fill="#455a64"/>
              <path id="Trazado_874287" data-name="Trazado 874287" d="M325.187,123.541c.049.032-.266.693-1.151,1.474a4.552,4.552,0,0,1-1.836.97,3.53,3.53,0,0,1-2.56-.277,4.373,4.373,0,0,1-1.779-1.843,6.133,6.133,0,0,1-.613-1.966,4.216,4.216,0,0,1,0-1.862,11.625,11.625,0,0,1,.381,1.79,4.987,4.987,0,0,0,2.265,3.392,3.16,3.16,0,0,0,2.184.269,4.61,4.61,0,0,0,1.712-.782c.888-.651,1.322-1.224,1.393-1.165" transform="translate(20.28 7.675)" fill="#455a64"/>
              <path id="Trazado_874288" data-name="Trazado 874288" d="M329.679,189.833c-.016.012-.116-.1-.295-.325s-.444-.552-.746-1a30.459,30.459,0,0,1-2.33-3.97,33.886,33.886,0,0,1-.284-29.468,30.374,30.374,0,0,1,2.252-4.014c.293-.457.559-.787.727-1.018s.272-.342.288-.33a11.871,11.871,0,0,1-.832,1.462,38.633,38.633,0,0,0-2.079,4.062,35.047,35.047,0,0,0,.281,29.137,38.587,38.587,0,0,0,2.158,4.022,11.844,11.844,0,0,1,.86,1.446" transform="translate(20.64 9.572)" fill="#263238"/>
              <path id="Trazado_874289" data-name="Trazado 874289" d="M301.336,181.5a11.078,11.078,0,0,1,1.261-1.037,42.393,42.393,0,0,0,3.321-2.931,52.607,52.607,0,0,0,8.769-11.624,117.725,117.725,0,0,0,6.254-13.232c.688-1.664,1.26-3.047,1.7-4.111a9.274,9.274,0,0,1,.686-1.484,9.236,9.236,0,0,1-.485,1.562c-.346.993-.864,2.423-1.536,4.178a98.4,98.4,0,0,1-6.137,13.362,48.714,48.714,0,0,1-8.98,11.632,32.4,32.4,0,0,1-3.461,2.822c-.426.31-.781.517-1.014.666s-.366.214-.377.2" transform="translate(19.268 9.405)" fill="#263238"/>
              <path id="Trazado_874290" data-name="Trazado 874290" d="M293.332,147.8c.107.031-.487,1.827-.911,4.823a35.176,35.176,0,0,0-.326,5.291,35.053,35.053,0,0,0,2.561,12.655,35.035,35.035,0,0,0,2.358,4.748c1.554,2.6,2.8,4.019,2.714,4.089a5.966,5.966,0,0,1-.91-.965,13.28,13.28,0,0,1-.967-1.219c-.352-.494-.783-1.038-1.171-1.7a31.846,31.846,0,0,1-2.5-4.759,33.272,33.272,0,0,1-2.6-12.845,31.767,31.767,0,0,1,.449-5.355c.1-.759.286-1.429.419-2.02a12.92,12.92,0,0,1,.417-1.5,6.036,6.036,0,0,1,.462-1.244" transform="translate(18.645 9.451)" fill="#263238"/>
              <path id="Trazado_874291" data-name="Trazado 874291" d="M290.091,146.046c.149.033-1.6,8.432-3.9,18.757s-4.29,18.671-4.439,18.637,1.595-8.43,3.9-18.758,4.29-18.669,4.439-18.636" transform="translate(18.015 9.338)" fill="#263238"/>
            </g>
          </g>
          <g id="Grupo_1099980" data-name="Grupo 1099980">
            <g id="Grupo_1099979" data-name="Grupo 1099979" clip-path="url(#clip-path)">
              <path id="Trazado_874292" data-name="Trazado 874292" d="M240.038,140.7l3.544-12.34s1.283-5.014,1.59-6.186c.4-1.55-.681-2.049-1.334-1-.247.4-3.009,5.492-3.009,5.492s2.241-8.358,2.322-8.663c.726-2.729-.97-2.461-1.476-1.487-.522,1.005-3.662,9.222-3.662,9.222,2.976-10.748,2.085-11.7,1.278-11.882s-3.435,9.651-3.435,9.651a9.208,9.208,0,0,0-2.575-2.868c-2.586-1.813-6.938-.066-7.159,1.158s1.326,1.58,1.326,1.58a3.918,3.918,0,0,1,6.228,3.612c-.37,3.108-4.306,2.64-4.777.421-1.032-4.869-2.718-3.3-2.718-3.3l1.577,10.731-1.824,5.372" transform="translate(14.447 7.28)" fill="#b78876"/>
              <path id="Trazado_874293" data-name="Trazado 874293" d="M187.632,99.565c4.04-1.063,6.522-2.5,6.522-4.087,0-3.269-10.569-5.921-23.609-5.921s-23.609,2.651-23.609,5.921c0,1.577,2.456,3.009,6.46,4.071" transform="translate(9.395 5.727)" fill="#e8505b"/>
              <g id="Grupo_1099963" data-name="Grupo 1099963" transform="translate(158.704 96.307)" opacity="0.4">
                <g id="Grupo_1099962" data-name="Grupo 1099962">
                  <g id="Grupo_1099961" data-name="Grupo 1099961" clip-path="url(#clip-path-16)">
                    <path id="Trazado_874294" data-name="Trazado 874294" d="M185.236,99.389c3.582-.942,5.872-2.22,5.781-3.622-.252-3.9-9.369-5.248-20.926-5.248s-20.926,2.35-20.926,5.248c0,1.4,2.177,2.667,5.726,3.607" transform="translate(-149.166 -90.519)"/>
                  </g>
                </g>
              </g>
              <path id="Trazado_874295" data-name="Trazado 874295" d="M190.741,95.063s-3.376-13.879-3.665-14.555-4.245-6.753-13.7-8.489h-7.814s-11.095,3.57-13.121,6.271-2.894,15.821-2.894,15.821l21.913-4.763,14.9,3.634Z" transform="translate(9.562 4.605)" fill="#e8505b"/>
              <path id="Trazado_874296" data-name="Trazado 874296" d="M169.987,70.524h3.355a5.428,5.428,0,0,1,1.332,3.526c.157,2.429.705,19.095.705,19.095l-9.795-.445.314-20.585-3.327.739.1-1.167.882-1.041Z" transform="translate(10.395 4.509)" fill="#e8505b"/>
              <path id="Trazado_874297" data-name="Trazado 874297" d="M122.334,396.955l-6.452,25.6-10.942,18.779a2.705,2.705,0,0,0,3.614,3.746c4.913-2.65,22.938-12.492,23.3-14.392.426-2.2,8.6-26.553,8.6-26.553Z" transform="translate(6.687 25.382)" fill="#e8505b"/>
              <g id="Grupo_1099966" data-name="Grupo 1099966" transform="translate(112.765 454.355)" opacity="0.6">
                <g id="Grupo_1099965" data-name="Grupo 1099965">
                  <g id="Grupo_1099964" data-name="Grupo 1099964" clip-path="url(#clip-path-17)">
                    <path id="Trazado_874298" data-name="Trazado 874298" d="M105.988,443.2l26.256-16.148-.3,1.078a4.061,4.061,0,0,1-1.634,2.287c-2.141,1.452-8.14,5.332-21.771,12.766a2.7,2.7,0,0,1-2.552.017" transform="translate(-105.988 -427.049)" fill="#fff"/>
                  </g>
                </g>
              </g>
              <g id="Grupo_1099969" data-name="Grupo 1099969" transform="translate(135.008 444.608)" opacity="0.6">
                <g id="Grupo_1099968" data-name="Grupo 1099968">
                  <g id="Grupo_1099967" data-name="Grupo 1099967" clip-path="url(#clip-path-7)">
                    <path id="Trazado_874299" data-name="Trazado 874299" d="M127.955,417.982a1.636,1.636,0,0,0-1,1.941,1.573,1.573,0,0,0,1.915,1.01,1.726,1.726,0,0,0,1.049-2.061,1.631,1.631,0,0,0-2.108-.829" transform="translate(-126.894 -417.888)" fill="#fff"/>
                  </g>
                </g>
              </g>
              <path id="Trazado_874300" data-name="Trazado 874300" d="M114.612,433.534a5.837,5.837,0,0,0-4.459-3.966c0-.069.372-.178.991-.1a4.317,4.317,0,0,1,3.449,3.067c.152.605.088.993.019,1" transform="translate(7.043 27.459)" fill="#263238"/>
              <path id="Trazado_874301" data-name="Trazado 874301" d="M112.016,436.192c-.152.077-.739-.977-1.951-1.717a22.073,22.073,0,0,0-2.4-1.008,3,3,0,0,1,2.7.516c1.377.852,1.795,2.177,1.644,2.209" transform="translate(6.884 27.708)" fill="#263238"/>
              <path id="Trazado_874302" data-name="Trazado 874302" d="M119.033,430.349A27.048,27.048,0,0,0,116.2,427.5a26.984,26.984,0,0,0-3.532-1.924,7.394,7.394,0,0,1,6.365,4.777" transform="translate(7.204 27.209)" fill="#263238"/>
              <path id="Trazado_874303" data-name="Trazado 874303" d="M121.5,423.04c-.111.134-1.353-.843-3.164-1.414-1.8-.6-3.383-.533-3.394-.706a6.713,6.713,0,0,1,6.558,2.12" transform="translate(7.35 26.9)" fill="#263238"/>
              <path id="Trazado_874304" data-name="Trazado 874304" d="M123.477,416.018a13.227,13.227,0,0,0-3.255-1.56,13.219,13.219,0,0,0-3.609-.085c-.028-.065.339-.307,1.019-.484a5.892,5.892,0,0,1,5.155,1.235c.527.466.743.848.689.894" transform="translate(7.456 26.455)" fill="#263238"/>
              <path id="Trazado_874305" data-name="Trazado 874305" d="M120.61,413.389a2.263,2.263,0,0,1,.232-.972,6.926,6.926,0,0,1,1.462-2.309,3.078,3.078,0,0,1,1.663-1.065,1.086,1.086,0,0,1,1.116.561,1.768,1.768,0,0,1,.085,1.26,3.826,3.826,0,0,1-4.173,2.517,4.434,4.434,0,0,1-3.58-3.4,1.536,1.536,0,0,1,.27-1.253,1.068,1.068,0,0,1,1.227-.247,3.785,3.785,0,0,1,1.435,1.335,7.759,7.759,0,0,1,1.191,2.457,2.364,2.364,0,0,1,.148.987,12.369,12.369,0,0,0-1.665-3.2,3.525,3.525,0,0,0-1.28-1.132.569.569,0,0,0-.669.13,1.058,1.058,0,0,0-.13.834,3.958,3.958,0,0,0,3.139,2.909,3.319,3.319,0,0,0,3.573-2.085,1.28,1.28,0,0,0-.022-.882.589.589,0,0,0-.612-.318,2.786,2.786,0,0,0-1.425.876,10.27,10.27,0,0,0-1.984,2.993" transform="translate(7.506 26.113)" fill="#263238"/>
              <path id="Trazado_874306" data-name="Trazado 874306" d="M187.189,403.906l-1.415,20.424s20.285,8.3,20.392,12.1l-39.7-1.321.9-31.915Z" transform="translate(10.644 25.781)" fill="#e8505b"/>
              <path id="Trazado_874307" data-name="Trazado 874307" d="M173.2,421.062a1.622,1.622,0,0,0-1.183,1.813,1.562,1.562,0,0,0,1.787,1.188,1.711,1.711,0,0,0,1.242-1.927,1.617,1.617,0,0,0-1.995-1.03" transform="translate(10.998 26.92)" fill="#e0e0e0"/>
              <g id="Grupo_1099972" data-name="Grupo 1099972" transform="translate(177.109 457.674)" opacity="0.6">
                <g id="Grupo_1099971" data-name="Grupo 1099971">
                  <g id="Grupo_1099970" data-name="Grupo 1099970" clip-path="url(#clip-path-19)">
                    <path id="Trazado_874308" data-name="Trazado 874308" d="M166.465,433.381l.217-3.213,37.983,2.468s1.742.828,1.5,2.066Z" transform="translate(-166.465 -430.168)" fill="#fff"/>
                  </g>
                </g>
              </g>
              <path id="Trazado_874309" data-name="Trazado 874309" d="M185.447,422.9c-.014.194-.986.249-1.961.84-.989.567-1.509,1.389-1.685,1.308-.177-.044.15-1.194,1.344-1.888s2.35-.436,2.3-.26" transform="translate(11.622 27.028)" fill="#263238"/>
              <path id="Trazado_874310" data-name="Trazado 874310" d="M189.247,424.644c.038.189-.813.492-1.5,1.29-.71.778-.9,1.659-1.1,1.644-.183.024-.279-1.116.593-2.092s2.006-1.027,2-.842" transform="translate(11.927 27.147)" fill="#263238"/>
              <path id="Trazado_874311" data-name="Trazado 874311" d="M191.164,429.6c-.178.035-.415-.942.118-1.987s1.453-1.437,1.531-1.272c.1.163-.5.713-.929,1.578-.445.853-.527,1.669-.72,1.682" transform="translate(12.21 27.258)" fill="#263238"/>
              <path id="Trazado_874312" data-name="Trazado 874312" d="M185.29,418.527c-.087.173-.967-.123-2.066-.085-1.1.016-1.963.355-2.059.185-.107-.144.749-.833,2.043-.86s2.182.611,2.082.76" transform="translate(11.584 26.713)" fill="#263238"/>
              <path id="Trazado_874313" data-name="Trazado 874313" d="M185.6,414.805a3.721,3.721,0,0,1-1.988-.077,8.976,8.976,0,0,1-2.059-.708,9.411,9.411,0,0,1-1.121-.645,2.452,2.452,0,0,1-.585-.487.846.846,0,0,1-.054-1.034,1.066,1.066,0,0,1,.865-.415,2.583,2.583,0,0,1,.742.128,7.284,7.284,0,0,1,1.222.465,7.015,7.015,0,0,1,1.793,1.265c.893.883,1.183,1.618,1.116,1.653-.09.061-.518-.561-1.432-1.3a7.929,7.929,0,0,0-1.741-1.059,7.367,7.367,0,0,0-1.129-.389c-.417-.125-.775-.139-.889.044-.042.07-.048.1.036.225a2.043,2.043,0,0,0,.43.356,10.548,10.548,0,0,0,1.031.635,11.082,11.082,0,0,0,1.9.8,13.579,13.579,0,0,1,1.867.538" transform="translate(11.486 26.308)" fill="#263238"/>
              <path id="Trazado_874314" data-name="Trazado 874314" d="M185.021,415.233a3.175,3.175,0,0,1-.461-1.937,6.434,6.434,0,0,1,.891-3.359,1.643,1.643,0,0,1,1.3-.961.929.929,0,0,1,.813.582,2.7,2.7,0,0,1,.18.735,4.441,4.441,0,0,1-.044,1.34,4.585,4.585,0,0,1-.917,2.026c-.811,1-1.627,1.208-1.642,1.142-.061-.1.628-.451,1.253-1.42a4.574,4.574,0,0,0,.692-1.848,4.112,4.112,0,0,0,0-1.149c-.049-.425-.2-.77-.355-.732-.2-.01-.543.3-.717.628a6.66,6.66,0,0,0-.528,1.062,7.14,7.14,0,0,0-.451,1.97c-.094,1.164.089,1.9-.017,1.923" transform="translate(11.801 26.151)" fill="#263238"/>
              <path id="Trazado_874315" data-name="Trazado 874315" d="M155.455,147.416l23.868-1.095c.135-2.532-1.158-18.2-1.158-18.2s9.022-1.4,9.133-10.423-1.257-27.029-1.257-27.029l-.153-.788c-10.442-4.487-22.536-4.888-31.543,2.044l-1.337,1.03Z" transform="translate(9.784 5.537)" fill="#b78876"/>
              <path id="Trazado_874316" data-name="Trazado 874316" d="M177.375,125.7a20.976,20.976,0,0,1-11.76-3.342s2.78,6.491,11.781,5.679Z" transform="translate(10.59 7.824)" fill="#aa6550"/>
              <path id="Trazado_874317" data-name="Trazado 874317" d="M154.415,101.369c-.154-.067-6.2-1.833-6,4.333s6.347,4.7,6.353,4.52-.352-8.853-.352-8.853" transform="translate(9.49 6.464)" fill="#b78876"/>
              <path id="Trazado_874318" data-name="Trazado 874318" d="M152.714,107.825c-.028-.019-.106.079-.285.168a1.074,1.074,0,0,1-.8.041,2.662,2.662,0,0,1-1.307-2.346,3.55,3.55,0,0,1,.252-1.547,1.242,1.242,0,0,1,.781-.851.548.548,0,0,1,.644.274c.088.17.054.295.086.3s.129-.106.071-.36a.679.679,0,0,0-.255-.379.809.809,0,0,0-.6-.138,1.512,1.512,0,0,0-1.092.992,3.661,3.661,0,0,0-.317,1.731,2.788,2.788,0,0,0,1.652,2.613,1.149,1.149,0,0,0,.977-.195c.186-.157.214-.3.194-.307" transform="translate(9.584 6.585)" fill="#aa6550"/>
              <path id="Trazado_874319" data-name="Trazado 874319" d="M181.247,101.09a1.289,1.289,0,0,1-1.243,1.3,1.232,1.232,0,0,1-1.327-1.162,1.289,1.289,0,0,1,1.241-1.3,1.234,1.234,0,0,1,1.329,1.163" transform="translate(11.425 6.389)" fill="#263238"/>
              <path id="Trazado_874320" data-name="Trazado 874320" d="M182.574,99.889c-.16.168-1.135-.554-2.522-.551-1.385-.016-2.4.7-2.552.528-.074-.076.088-.379.532-.7a3.534,3.534,0,0,1,2.043-.63,3.4,3.4,0,0,1,2.008.648c.426.328.57.631.492.706" transform="translate(11.349 6.301)" fill="#263238"/>
              <path id="Trazado_874321" data-name="Trazado 874321" d="M168.44,101.545a1.287,1.287,0,0,1-1.242,1.3,1.231,1.231,0,0,1-1.328-1.161,1.288,1.288,0,0,1,1.241-1.3,1.233,1.233,0,0,1,1.329,1.162" transform="translate(10.606 6.419)" fill="#263238"/>
              <path id="Trazado_874322" data-name="Trazado 874322" d="M169.768,100.132c-.16.168-1.137-.554-2.523-.55-1.384-.017-2.4.7-2.552.527-.073-.074.087-.378.532-.7a3.53,3.53,0,0,1,2.044-.631,3.4,3.4,0,0,1,2.007.648c.426.328.57.632.493.706" transform="translate(10.53 6.316)" fill="#263238"/>
              <path id="Trazado_874323" data-name="Trazado 874323" d="M174.229,110.407A9.189,9.189,0,0,1,176.48,110c.354-.036.689-.106.749-.348a1.805,1.805,0,0,0-.236-1.049q-.5-1.285-1.047-2.7a46.392,46.392,0,0,1-2.351-7.05c.155-.057,1.46,3.007,2.913,6.844q.525,1.419,1,2.711a2.048,2.048,0,0,1,.184,1.39.885.885,0,0,1-.582.517,2.362,2.362,0,0,1-.6.084,9.028,9.028,0,0,1-2.282,0" transform="translate(11.099 6.321)" fill="#263238"/>
              <path id="Trazado_874324" data-name="Trazado 874324" d="M170.37,110.615c.226-.013.229,1.492,1.516,2.56s2.89.9,2.9,1.113c.021.094-.357.292-1.034.31a3.741,3.741,0,0,1-2.422-.844,3.265,3.265,0,0,1-1.176-2.146c-.057-.629.111-1,.214-.993" transform="translate(10.879 7.073)" fill="#263238"/>
              <path id="Trazado_874325" data-name="Trazado 874325" d="M170.178,95.007c-.137.377-1.521.2-3.147.395-1.63.163-2.942.638-3.158.3-.1-.162.133-.516.663-.881a5.519,5.519,0,0,1,4.8-.531c.6.24.9.537.838.716" transform="translate(10.477 6.009)" fill="#263238"/>
              <path id="Trazado_874326" data-name="Trazado 874326" d="M182.073,96.123c-.244.315-1.2-.012-2.347-.028-1.148-.055-2.12.212-2.345-.117-.1-.161.055-.476.481-.773a3.4,3.4,0,0,1,3.779.117c.406.323.539.648.432.8" transform="translate(11.34 6.055)" fill="#263238"/>
              <path id="Trazado_874327" data-name="Trazado 874327" d="M199.315,224.226l-3.938,203.8a2.5,2.5,0,0,1-2.522,2.451l-23.742-.209a2.5,2.5,0,0,1-2.477-2.552l3.678-175.415L139.437,426.421a4.483,4.483,0,0,1-4.568,3.7l-19.911-.687a4.482,4.482,0,0,1-4.274-5.169l31.269-200.869Z" transform="translate(7.074 14.284)" fill="#263238"/>
              <path id="Trazado_874328" data-name="Trazado 874328" d="M246.56,139.117l-14.754-3.558-9.736,26.413L195.162,137.9c-2.863-2.1-7.8-2.357-11.553-2.822l-.284-.034c-1.457-.172-2.17-.383-3.046-.488-6.486,4.878-17.586,5.189-23.955.157,0,0-4.83,1.093-7.716,1.645-9.085,1.742-15.625,8.359-17.441,14.47l11.372,26.229,2.18,24.916-6.3,22.308a3.872,3.872,0,0,0,3.237,4.893l56.342.859.92-.456c1.187-2.184,2.068-4.714,1.515-7.138-2.435-10.675-.737-42.512-1.249-52.284,11.05,10.737,23.244,19.646,32.154,14.129,7.406-4.587,15.218-45.165,15.218-45.165" transform="translate(8.387 8.604)" fill="#e0e0e0"/>
              <path id="Trazado_874329" data-name="Trazado 874329" d="M155.209,134.117h0" transform="translate(9.924 8.576)" fill="#e8505b"/>
              <path id="Trazado_874330" data-name="Trazado 874330" d="M153.1,96.076c.239,2.5.162,5.037.4,7.538a8.551,8.551,0,0,0,.9,2.7,2.482,2.482,0,0,0,4.706.021,7.383,7.383,0,0,0,.549-3.231,10.348,10.348,0,0,1,.337-3.273,17.546,17.546,0,0,1,1.867-3.189,3.991,3.991,0,0,0,.579-3.518c-3.348-.054-6.43,1.287-9.337,2.952" transform="translate(9.79 5.954)" fill="#263238"/>
              <path id="Trazado_874331" data-name="Trazado 874331" d="M186.353,95.406l-.191-5.046-14.743-4.392-18.41,5.424v5.425a45.272,45.272,0,0,1,33.345-1.411" transform="translate(9.784 5.497)" fill="#455a64"/>
              <path id="Trazado_874332" data-name="Trazado 874332" d="M185.552,89.3l.648.629,5.306,3.332A84.018,84.018,0,0,0,170.764,90.5c-10.549.113-22.615,3.673-22.615,3.673l6.988-4.2a12.034,12.034,0,0,1,8.556-3.813l13.242-.259a12.039,12.039,0,0,1,8.617,3.4" transform="translate(9.473 5.492)" fill="#e8505b"/>
              <path id="Trazado_874333" data-name="Trazado 874333" d="M174.451,86.412a44.941,44.941,0,0,1-.668-7.02,45.031,45.031,0,0,1-.115-7.052,44.944,44.944,0,0,1,.668,7.021,45.019,45.019,0,0,1,.115,7.051" transform="translate(11.099 4.626)" fill="#263238"/>
              <path id="Trazado_874334" data-name="Trazado 874334" d="M162.571,72.757a9.583,9.583,0,0,1,2.484-.718,1.087,1.087,0,0,1,1.064.991q0,.718.006,1.486c-.012,1.061-.023,2.186-.035,3.367-.04,2.389-.109,4.552-.185,6.117a11.743,11.743,0,0,1-.238,2.533A11.5,11.5,0,0,1,165.514,84c-.023-1.566-.018-3.729.022-6.119.028-1.181.054-2.308.079-3.367.016-.5.032-.984.047-1.452a.671.671,0,0,0-.619-.631,13.533,13.533,0,0,1-2.472.327" transform="translate(10.395 4.606)" fill="#263238"/>
              <path id="Trazado_874335" data-name="Trazado 874335" d="M191.744,93.238c-.021.038-.618-.253-1.754-.655-.565-.211-1.266-.449-2.054-.817a5.889,5.889,0,0,1-2.34-1.826c-.713-.91-.842-2.184-1.628-3.091-.735-.969-2.183-.963-3.583-1.016-2.845-.116-5.976-.143-9.262-.054s-6.417.273-9.255.493a5.638,5.638,0,0,0-3.611,1.205,10.014,10.014,0,0,0-1.108,1.407l-.513.706-.263.335a1.31,1.31,0,0,1-.387.287c-1.973.956-3.591,1.564-4.693,2.065a17.936,17.936,0,0,1-1.728.729,1.619,1.619,0,0,1,.406-.272c.276-.159.689-.382,1.231-.652,1.067-.556,2.7-1.239,4.591-2.211a.952.952,0,0,0,.266-.2l.248-.33.489-.7a10.026,10.026,0,0,1,1.138-1.492,6.039,6.039,0,0,1,3.888-1.386c2.849-.248,5.985-.451,9.285-.538s6.443-.047,9.3.1a14.607,14.607,0,0,1,2.112.195,2.943,2.943,0,0,1,1.8,1.041c.87,1.072.961,2.345,1.594,3.156a5.654,5.654,0,0,0,2.158,1.775c.753.384,1.442.653,2,.894s.982.442,1.263.593a1.6,1.6,0,0,1,.412.264" transform="translate(9.563 5.447)" fill="#263238"/>
              <path id="Trazado_874336" data-name="Trazado 874336" d="M189.791,93.7a1.36,1.36,0,0,1-.394-.193,8.354,8.354,0,0,0-1.1-.565,21.484,21.484,0,0,0-4.338-1.318A53.073,53.073,0,0,0,169,90.906c-2.948.211-5.751.339-8.271.67-2.5.357-4.775.831-6.638,1.277-.933.232-1.767.478-2.489.723a4.292,4.292,0,0,0-1.686.868,1.761,1.761,0,0,0-.55,1.458c-.012.006-.1-.133-.1-.432a1.791,1.791,0,0,1,.5-1.176,4.34,4.34,0,0,1,1.736-1.01c.721-.277,1.558-.552,2.494-.811a63.3,63.3,0,0,1,6.669-1.4c2.547-.363,5.363-.507,8.3-.718a49.371,49.371,0,0,1,15.088.893,18.894,18.894,0,0,1,4.347,1.508,6.121,6.121,0,0,1,1.064.665c.229.173.343.271.331.286" transform="translate(9.544 5.764)" fill="#263238"/>
              <path id="Trazado_874337" data-name="Trazado 874337" d="M171.916,70.931a8.418,8.418,0,0,1-1.376.1l-3.325.094c-1.294.051-2.489-.034-3.3.1a1.619,1.619,0,0,0-1.116.666c-.01,0,.018-.142.179-.332a1.671,1.671,0,0,1,.9-.487,23.862,23.862,0,0,1,3.334-.173l3.325-.028a8.437,8.437,0,0,1,1.379.053" transform="translate(10.409 4.532)" fill="#fafafa"/>
              <path id="Trazado_874338" data-name="Trazado 874338" d="M173.947,86.182a4.33,4.33,0,0,1-.7.062l-1.9.1c-1.6.086-3.81.218-6.245.422l-3.432.318a15.709,15.709,0,0,0-2.764.406,2.73,2.73,0,0,0-1.494,1.043,3.157,3.157,0,0,0-.292.62,1.333,1.333,0,0,1,.218-.666,2.736,2.736,0,0,1,1.518-1.146,14.663,14.663,0,0,1,2.791-.461c1.054-.119,2.215-.234,3.435-.336,2.44-.2,4.655-.312,6.258-.357l1.9-.03a4.245,4.245,0,0,1,.7.024" transform="translate(10.047 5.509)" fill="#fafafa"/>
              <path id="Trazado_874339" data-name="Trazado 874339" d="M166,85.11a2.212,2.212,0,0,1,.007-.5c.03-.446.06-.895.09-1.357.079-1.145.171-2.728.223-4.477s.052-3.335.043-4.483c0-.463-.007-.912-.011-1.36a2.188,2.188,0,0,1,.021-.5,2.085,2.085,0,0,1,.065.5c.028.32.056.785.081,1.36.05,1.148.074,2.739.023,4.493s-.171,3.34-.289,4.483c-.059.572-.114,1.034-.161,1.353a2.2,2.2,0,0,1-.094.492" transform="translate(10.614 4.631)" fill="#fafafa"/>
              <path id="Trazado_874340" data-name="Trazado 874340" d="M156.176,90.192a2.025,2.025,0,0,1-.418.223l-1.174.535-3.9,1.686a16.62,16.62,0,0,0-2.106.976,2.671,2.671,0,0,0-1.195,1.363,1.881,1.881,0,0,0-.034,1.222c.105.278.225.4.209.416a.976.976,0,0,1-.288-.384,1.881,1.881,0,0,1-.035-1.3,2.762,2.762,0,0,1,1.234-1.486,14.984,14.984,0,0,1,2.13-1.006l3.928-1.628,1.2-.469a1.938,1.938,0,0,1,.452-.145" transform="translate(9.408 5.767)" fill="#fafafa"/>
              <path id="Trazado_874341" data-name="Trazado 874341" d="M153.1,136.78l1.307-9.016,12.28,4.508,3.465,6.108,2.153-6.7,6.737-2.319,2.88,5.993-4.942,7-9.273,1.875Z" transform="translate(9.79 8.17)" fill="#e0e0e0"/>
              <path id="Trazado_874342" data-name="Trazado 874342" d="M170.366,139.5c-.018.018-.179-.109-.459-.37a14.2,14.2,0,0,1-1.126-1.217,18.178,18.178,0,0,1-2.963-5.108l.45.006c-.839,2.117-1.807,4.554-2.836,7.15L162,143.494l-.149.37-.286-.277c-2.479-2.395-4.619-4.493-6.128-6l-1.753-1.79a3.39,3.39,0,0,1-.588-.692,3.4,3.4,0,0,1,.716.557l1.864,1.676c1.575,1.443,3.762,3.49,6.262,5.863l-.436.095c.449-1.122.923-2.312,1.413-3.537l2.9-7.123.238-.584.213.59a20.047,20.047,0,0,0,2.733,5.1c.838,1.133,1.405,1.719,1.361,1.762" transform="translate(9.789 8.444)" fill="#263238"/>
              <path id="Trazado_874343" data-name="Trazado 874343" d="M180.859,135.118a9.524,9.524,0,0,1-1.441,1.985,19.811,19.811,0,0,1-4.7,4.133l-.27.166-.112-.3c-.4-1.094-.866-2.277-1.358-3.5-.739-1.836-1.432-3.586-1.967-5.138l.477-.038c-.405,2.034-.9,3.7-1.208,4.874a11.327,11.327,0,0,1-.537,1.847,7.686,7.686,0,0,1,.249-1.913c.222-1.2.653-2.883,1.009-4.9l.159-.9.319.861c.567,1.53,1.274,3.259,2.014,5.1.494,1.228.95,2.422,1.339,3.529l-.382-.137a22.443,22.443,0,0,0,4.725-3.9,21.1,21.1,0,0,1,1.686-1.765" transform="translate(10.853 8.404)" fill="#263238"/>
              <path id="Trazado_874344" data-name="Trazado 874344" d="M173.779,230.884a5.976,5.976,0,0,1,.063-.942q.105-.991.285-2.681c.154-1.161.24-2.591.362-4.249q.089-1.246.189-2.656.056-1.416.118-2.983c.19-4.18.184-9.167.08-14.7-.14-5.533-.445-11.612-.88-17.986-.922-12.749-2.177-24.257-3.125-32.581-.471-4.124-.855-7.478-1.127-9.858q-.184-1.69-.289-2.682a5.966,5.966,0,0,1-.063-.941,6.024,6.024,0,0,1,.173.926l.393,2.67c.325,2.32.783,5.68,1.3,9.838,1.048,8.315,2.365,19.824,3.29,32.59.435,6.382.725,12.47.837,18.014.076,5.544.043,10.54-.2,14.729q-.083,1.567-.159,2.988-.123,1.408-.232,2.659c-.151,1.659-.268,3.09-.456,4.248q-.246,1.684-.389,2.673a5.925,5.925,0,0,1-.172.926" transform="translate(10.831 8.864)" fill="#263238"/>
              <path id="Trazado_874345" data-name="Trazado 874345" d="M164.387,135.858l2.785,1.454-.517,4.7-4.347-.912Z" transform="translate(10.378 8.687)" fill="#e8505b"/>
              <g id="Grupo_1099975" data-name="Grupo 1099975" transform="translate(172.686 144.545)" opacity="0.4">
                <g id="Grupo_1099974" data-name="Grupo 1099974">
                  <g id="Grupo_1099973" data-name="Grupo 1099973" clip-path="url(#clip-path-20)">
                    <path id="Trazado_874346" data-name="Trazado 874346" d="M164.387,135.858l2.785,1.454-.517,4.7-4.347-.912Z" transform="translate(-162.308 -135.858)"/>
                  </g>
                </g>
              </g>
              <path id="Trazado_874347" data-name="Trazado 874347" d="M170.271,137.063l2.109-1.857,1.93,4.911-2.766,1.328Z" transform="translate(10.887 8.645)" fill="#e8505b"/>
              <path id="Trazado_874348" data-name="Trazado 874348" d="M167.447,142.729l-1.3,55.513,9.383,9.277,4.542-12.323-9.009-52.761Z" transform="translate(10.624 9.108)" fill="#e8505b"/>
              <path id="Trazado_874349" data-name="Trazado 874349" d="M167.567,135.637c.638-.073,1.521-.248,2.219-.4a1.539,1.539,0,0,1,1.675.775l1.184,2.184a1.543,1.543,0,0,1,.159,1.029l-.476,2.451a1.545,1.545,0,0,1-1.21,1.219l-2.678.54a1.543,1.543,0,0,1-1.682-.814l-1.34-2.643a1.543,1.543,0,0,1-.035-1.32l.932-2.113a1.552,1.552,0,0,1,1.251-.912" transform="translate(10.567 8.645)" fill="#e8505b"/>
              <path id="Trazado_874350" data-name="Trazado 874350" d="M171.407,136.166a5.813,5.813,0,0,1-.715.889c-.461.529-1.109,1.248-1.834,2.033s-1.392,1.488-1.882,1.99a5.932,5.932,0,0,1-.83.783,5.734,5.734,0,0,1,.711-.885c.462-.529,1.111-1.25,1.839-2.037s1.395-1.492,1.885-1.994a5.867,5.867,0,0,1,.827-.779" transform="translate(10.624 8.707)" fill="#263238"/>
              <path id="Trazado_874351" data-name="Trazado 874351" d="M168.658,138.711a12.85,12.85,0,0,1-2.431-2.334,12.85,12.85,0,0,1,2.431,2.334" transform="translate(10.629 8.72)" fill="#263238"/>
              <path id="Trazado_874352" data-name="Trazado 874352" d="M171.479,142.281a29.7,29.7,0,0,1,.665-3.2,3.178,3.178,0,0,0-.671-2.087,1.87,1.87,0,0,1-.325-.913c.033-.007.133.343.46.833a9.767,9.767,0,0,1,.545.9,2.1,2.1,0,0,1,.212,1.3c-.182.91-.421,1.679-.576,2.257a4.161,4.161,0,0,1-.31.913" transform="translate(10.943 8.701)" fill="#263238"/>
              <g id="Grupo_1099978" data-name="Grupo 1099978" transform="translate(150.633 200.285)" opacity="0.3">
                <g id="Grupo_1099977" data-name="Grupo 1099977">
                  <g id="Grupo_1099976" data-name="Grupo 1099976" clip-path="url(#clip-path-21)">
                    <path id="Trazado_874353" data-name="Trazado 874353" d="M141.84,209.454a10.633,10.633,0,0,0,9.259,2.659c2.333-.47,4.548-1.74,6.923-1.585,2.6.169,4.749,1.991,7.122,3.066,4.43,2.007,9.6,1.365,14.3.113,2.162-.577,4.42-1.359,5.813-3.107a10.4,10.4,0,0,0,1.788-4.829,49.718,49.718,0,0,0,.7-9.57c-.047-2.008-.269-4.153-1.544-5.7a6.6,6.6,0,0,0-4.288-2.163,16.85,16.85,0,0,0-4.892.273,80.862,80.862,0,0,0-35.444,15.2" transform="translate(-141.58 -188.248)"/>
                  </g>
                </g>
              </g>
              <path id="Trazado_874354" data-name="Trazado 874354" d="M166.409,201.407s-29.812,13.333-32.845,14c-10.063,2.209-21.569-7.3-18.373-18.136,1.188-4.03,17.228-48.613,17.228-48.613l15.265,21.095-6.459,21.59,16.911-1.122Z" transform="translate(7.331 9.505)" fill="#e0e0e0"/>
              <path id="Trazado_874355" data-name="Trazado 874355" d="M155.182,189.129a5.823,5.823,0,0,1-1.178.164l-3.262.277c-2.776.216-6.657.485-11.078.766l-.371.023L139.4,190c.321-1.077.654-2.2.995-3.34,1.509-5.041,2.9-9.595,3.936-12.883.5-1.569.925-2.876,1.25-3.887a8.075,8.075,0,0,1,.528-1.4,8.06,8.06,0,0,1-.331,1.463c-.283,1.025-.649,2.347-1.088,3.936-.943,3.315-2.279,7.887-3.787,12.927-.344,1.144-.68,2.261-1,3.339l-.265-.334c4.422-.259,8.307-.463,11.087-.586l3.272-.121a5.77,5.77,0,0,1,1.189.02" transform="translate(8.907 10.773)" fill="#263238"/>
              <path id="Trazado_874356" data-name="Trazado 874356" d="M161.938,199.872c.054.135-6.49,2.961-14.616,6.31S132.558,212.138,132.5,212s6.489-2.96,14.617-6.31,14.762-5.956,14.818-5.821" transform="translate(8.473 12.78)" fill="#263238"/>
              <path id="Trazado_874357" data-name="Trazado 874357" d="M156.926,187.753l-2.353-11.447a1.472,1.472,0,0,1,1.448-1.768l29.629.138a1.471,1.471,0,0,1,1.454,1.643l-3.059,26.225A2.045,2.045,0,0,1,182,204.352l-19.322-.15a2.045,2.045,0,0,1-1.965-1.541Z" transform="translate(9.882 11.16)" fill="#455a64"/>
              <path id="Trazado_874358" data-name="Trazado 874358" d="M154.328,181.293h0a3.113,3.113,0,0,1,2.91,1.987c.485,1.264,1.2,2.741,1.984,3.171,1.454.794,3.967,1.427,5.29.78s6.613-5.409,7.539-4.879,1.719,1.719.794,2.777-5.82,4.232-4.894,5.291,11.243-3.6,12.83-3.189,2.513,1.386,1.587,2.023-7.936,3.282-8.333,4.208c0,0,10.581-2.778,10.978-2.116s1.058,1.719,0,2.116-10.185,2.778-10.978,3.174a19.236,19.236,0,0,1-4.079,1.191,43.515,43.515,0,0,0-4.262,1.352,9.341,9.341,0,0,1-6.58-.177l-1.071-.436a4.2,4.2,0,0,1-2.608-4.142l.216-3.607-1.154-2.977Z" transform="translate(9.868 11.592)" fill="#b78876"/>
              <path id="Trazado_874359" data-name="Trazado 874359" d="M171.169,178.748a1.077,1.077,0,1,1-1.077-1.077,1.077,1.077,0,0,1,1.077,1.077" transform="translate(10.807 11.361)" fill="#fafafa"/>
              <rect id="Rectángulo_401434" data-name="Rectángulo 401434" width="12.126" height="3.922" transform="translate(189.849 171.843)" fill="#263238"/>
              <path id="Trazado_874360" data-name="Trazado 874360" d="M152.016,230.6l-12.882-.315.608-3.9,12.723.493Z" transform="translate(8.896 14.475)" fill="#455a64"/>
              <path id="Trazado_874361" data-name="Trazado 874361" d="M186.8,230.5l-32.365-.237.429-3.577,31.9.085Z" transform="translate(9.875 14.495)" fill="#455a64"/>
              <path id="Trazado_874362" data-name="Trazado 874362" d="M166.528,226.566v4.308a1.177,1.177,0,0,0,1.067,1.263h8.911a1.177,1.177,0,0,0,1.066-1.263v-4.308a1.177,1.177,0,0,0-1.066-1.263H167.6a1.177,1.177,0,0,0-1.067,1.263m9.649,3.98h-8.254v-3.653h8.254Z" transform="translate(10.648 14.406)" fill="#fafafa"/>
              <path id="Trazado_874363" data-name="Trazado 874363" d="M187.467,226.805v3.653l6.838.119.1-3.892Z" transform="translate(11.987 14.495)" fill="#455a64"/>
              <path id="Trazado_874364" data-name="Trazado 874364" d="M123.769,418.65s.009-.164.053-.481c.052-.339.124-.8.215-1.4.205-1.258.5-3.065.875-5.381.783-4.7,1.909-11.446,3.3-19.775,2.786-16.721,6.627-39.779,10.869-65.245,4.213-25.492,7.941-48.582,10.577-65.3,1.3-8.343,2.356-15.1,3.089-19.807.366-2.317.652-4.127.849-5.385.1-.595.178-1.059.235-1.4.056-.315.1-.473.1-.473s-.006.165-.044.482c-.044.34-.1.808-.181,1.405-.174,1.262-.425,3.076-.746,5.4-.648,4.689-1.66,11.464-2.914,19.835-2.538,16.74-6.2,39.84-10.417,65.335S131.491,375,128.6,391.677c-1.462,8.317-2.646,15.057-3.471,19.747-.42,2.308-.748,4.11-.978,5.363-.114.593-.2,1.054-.268,1.392-.063.314-.11.471-.11.471" transform="translate(7.914 14.962)" fill="#455a64"/>
              <path id="Trazado_874365" data-name="Trazado 874365" d="M180.96,419.388c-.153,0,.115-41.475.6-92.621.484-51.164,1-92.627,1.153-92.625s-.115,41.466-.6,92.63c-.483,51.147-1,92.617-1.152,92.616" transform="translate(11.568 14.972)" fill="#455a64"/>
              <path id="Trazado_874366" data-name="Trazado 874366" d="M192.7,408.941c0,.153-6.472.277-14.455.277s-14.457-.123-14.457-.277,6.472-.277,14.457-.277,14.455.123,14.455.277" transform="translate(10.473 26.131)" fill="#455a64"/>
              <path id="Trazado_874367" data-name="Trazado 874367" d="M140.811,407.9a4.725,4.725,0,0,1-1.16.111l-3.161.109-10.431.254c-4.076.083-7.768.118-10.44.091-1.336-.012-2.417-.035-3.164-.067a4.751,4.751,0,0,1-1.161-.105,4.739,4.739,0,0,1,1.16-.111l3.162-.109,10.432-.254c4.075-.084,7.766-.118,10.438-.091,1.336.012,2.417.035,3.164.067a4.744,4.744,0,0,1,1.161.105" transform="translate(7.116 26.07)" fill="#455a64"/>
              <path id="Trazado_874368" data-name="Trazado 874368" d="M216.33,170.549a26.1,26.1,0,0,1-.277-5.353,26.11,26.11,0,0,1,.277-5.354,26.11,26.11,0,0,1,.277,5.354,26.1,26.1,0,0,1-.277,5.353" transform="translate(13.815 10.221)" fill="#263238"/>
              <path id="Trazado_874369" data-name="Trazado 874369" d="M220.079,171.231a24.056,24.056,0,0,1-2.4-5.521,24.1,24.1,0,0,1-1.486-5.835,51.447,51.447,0,0,1,2.011,5.655,51.6,51.6,0,0,1,1.877,5.7" transform="translate(13.822 10.223)" fill="#263238"/>
            </g>
          </g>
        </g>
      </g>
    </g>
  </g>
</svg>
