<svg xmlns="http://www.w3.org/2000/svg" xmlns:xlink="http://www.w3.org/1999/xlink" width="191.526" height="204" viewBox="0 0 191.526 204">
  <defs>
    <clipPath id="clip-path">
      <rect id="Rectángulo_401093" data-name="Rectángulo 401093" width="190" height="148.488" fill="none"/>
    </clipPath>
    <clipPath id="clip-path-4">
      <rect id="Rectángulo_401043" data-name="Rectángulo 401043" width="25.067" height="5.26" fill="none"/>
    </clipPath>
    <clipPath id="clip-path-5">
      <rect id="Rectángulo_401044" data-name="Rectángulo 401044" width="24.494" height="5.225" fill="none"/>
    </clipPath>
    <clipPath id="clip-path-6">
      <rect id="Rectángulo_401045" data-name="Rectángulo 401045" width="18.247" height="6.875" fill="none"/>
    </clipPath>
    <clipPath id="clip-path-7">
      <rect id="Rectángulo_401046" data-name="Rectángulo 401046" width="14.504" height="3.088" fill="none"/>
    </clipPath>
    <clipPath id="clip-path-8">
      <rect id="Rectángulo_401047" data-name="Rectángulo 401047" width="1.359" height="4.616" fill="none"/>
    </clipPath>
    <clipPath id="clip-path-9">
      <rect id="Rectángulo_401048" data-name="Rectángulo 401048" width="4.439" height="6.136" fill="none"/>
    </clipPath>
    <clipPath id="clip-path-11">
      <rect id="Rectángulo_401054" data-name="Rectángulo 401054" width="10.008" height="37.077" fill="none"/>
    </clipPath>
    <clipPath id="clip-path-12">
      <rect id="Rectángulo_401056" data-name="Rectángulo 401056" width="6.98" height="8.295" fill="none"/>
    </clipPath>
    <clipPath id="clip-path-14">
      <rect id="Rectángulo_401059" data-name="Rectángulo 401059" width="0.212" height="37.522" fill="none"/>
    </clipPath>
    <clipPath id="clip-path-15">
      <rect id="Rectángulo_401062" data-name="Rectángulo 401062" width="6.98" height="9.376" fill="none"/>
    </clipPath>
    <clipPath id="clip-path-16">
      <rect id="Rectángulo_401064" data-name="Rectángulo 401064" width="6.98" height="9.133" fill="none"/>
    </clipPath>
    <clipPath id="clip-path-17">
      <rect id="Rectángulo_401065" data-name="Rectángulo 401065" width="38.506" height="0.212" fill="none"/>
    </clipPath>
    <clipPath id="clip-path-18">
      <rect id="Rectángulo_401067" data-name="Rectángulo 401067" width="14.005" height="34.853" fill="none"/>
    </clipPath>
    <clipPath id="clip-path-19">
      <rect id="Rectángulo_401070" data-name="Rectángulo 401070" width="12.458" height="17.285" fill="none"/>
    </clipPath>
    <clipPath id="clip-path-20">
      <rect id="Rectángulo_401072" data-name="Rectángulo 401072" width="5.563" height="2.466" fill="none"/>
    </clipPath>
    <clipPath id="clip-path-22">
      <rect id="Rectángulo_401077" data-name="Rectángulo 401077" width="12.35" height="5.321" fill="none"/>
    </clipPath>
    <clipPath id="clip-path-23">
      <rect id="Rectángulo_401079" data-name="Rectángulo 401079" width="10.535" height="19.976" fill="none"/>
    </clipPath>
    <clipPath id="clip-path-24">
      <rect id="Rectángulo_401081" data-name="Rectángulo 401081" width="1.731" height="5.321" fill="none"/>
    </clipPath>
    <clipPath id="clip-path-25">
      <rect id="Rectángulo_401082" data-name="Rectángulo 401082" width="28.419" height="0.212" fill="none"/>
    </clipPath>
    <clipPath id="clip-path-26">
      <rect id="Rectángulo_401091" data-name="Rectángulo 401091" width="145.917" height="3.212" fill="none"/>
    </clipPath>
  </defs>
  <g id="Grupo_1100654" data-name="Grupo 1100654" transform="translate(-283.474 -1122.596)">
    <g id="Grupo_1099527" data-name="Grupo 1099527">
      <rect id="Rectángulo_401036" data-name="Rectángulo 401036" width="149" height="201" rx="40" transform="translate(284.974 1124.096)" fill="none" stroke="#ff725d" stroke-miterlimit="10" stroke-width="3"/>
      <g id="Grupo_1099221" data-name="Grupo 1099221" transform="translate(285 1150.352)">
        <g id="Grupo_1099220" data-name="Grupo 1099220" clip-path="url(#clip-path)">
          <g id="Grupo_1099149" data-name="Grupo 1099149">
            <g id="Grupo_1099148" data-name="Grupo 1099148" clip-path="url(#clip-path)">
              <path id="Trazado_873287" data-name="Trazado 873287" d="M253,17.433l-3.086-.346a9.916,9.916,0,1,1,1.986-2.946l0,0Z" transform="translate(-137.959 -0.156)" fill="#fff"/>
              <path id="Trazado_873288" data-name="Trazado 873288" d="M252.928,17.356l-1.123-3.288.049.009,0,0a.028.028,0,0,1-.04,0,.028.028,0,0,1-.008-.033,9.9,9.9,0,0,0,.781-4.816,9.647,9.647,0,0,0-.786-3.05,9.837,9.837,0,0,0-18.786,2.669,10.021,10.021,0,0,0,.476,4.5,9.687,9.687,0,0,0,2.257,3.618,9.866,9.866,0,0,0,14.079.015.028.028,0,0,1,.022-.008l3.083.373-3.089-.319.022-.008a9.9,9.9,0,0,1-10.882,2.255,10.01,10.01,0,0,1-3.317-2.227,9.793,9.793,0,0,1-2.29-3.659,10.126,10.126,0,0,1-.486-4.559A9.957,9.957,0,0,1,242.5.136a9.99,9.99,0,0,1,7.4,3.031,9.9,9.9,0,0,1,1.981,2.981,9.706,9.706,0,0,1,.782,3.081,9.9,9.9,0,0,1-.814,4.846l-.048-.029,0,0a.028.028,0,0,1,.039,0,.027.027,0,0,1,.009.013l1.07,3.305" transform="translate(-137.886 -0.079)" fill="#263238"/>
              <path id="Trazado_873289" data-name="Trazado 873289" d="M252.92,17.347s-.028-.075-.077-.218l-.217-.632-.831-2.437.053.009,0,0a.031.031,0,0,1-.044,0,.031.031,0,0,1-.009-.037,9.9,9.9,0,0,0,.78-4.815,9.65,9.65,0,0,0-.253-1.506,11.111,11.111,0,0,0-.533-1.542,9.832,9.832,0,0,0-18.776,2.667,10.017,10.017,0,0,0,.475,4.5,9.7,9.7,0,0,0,2.256,3.616,9.869,9.869,0,0,0,6.78,2.953l.422,0a2.652,2.652,0,0,0,.415-.015l.807-.075a13.616,13.616,0,0,0,1.5-.336,9.87,9.87,0,0,0,4.15-2.513.029.029,0,0,1,.024-.009l2.284.274.594.073c.134.017.206.028.206.028s-.063,0-.194-.017l-.587-.059-2.308-.241.024-.009a9.866,9.866,0,0,1-4.164,2.56,13.724,13.724,0,0,1-1.512.346l-.815.079a2.709,2.709,0,0,1-.42.017l-.427,0a9.963,9.963,0,0,1-6.868-2.97,9.8,9.8,0,0,1-2.291-3.66,10.139,10.139,0,0,1-.486-4.562,9.908,9.908,0,0,1,1.734-4.479,4.4,4.4,0,0,1,.364-.481l.38-.465.42-.426a4.122,4.122,0,0,1,.435-.406l.455-.379c.148-.13.322-.226.48-.341s.32-.226.489-.323l.513-.278A9.814,9.814,0,0,1,242.494.122a9.936,9.936,0,0,1,9.388,6.016,11.209,11.209,0,0,1,.533,1.561,9.772,9.772,0,0,1,.249,1.521,9.9,9.9,0,0,1-.816,4.848l-.053-.032,0,0a.031.031,0,0,1,.043-.005.033.033,0,0,1,.01.015l.8,2.47.2.628c.044.14.064.208.064.208" transform="translate(-137.877 -0.07)" fill="#263238"/>
              <path id="Trazado_873290" data-name="Trazado 873290" d="M252.837,17.276l-.281-.848-.347-1.053-.224-.682-.124-.38-.065-.2-.033-.1c-.012-.042-.018-.053-.034-.034l-.005-.03.053.031-.029.009A9.909,9.909,0,0,0,243.564.139,9.752,9.752,0,0,0,239.2.727a10.153,10.153,0,0,0-3.895,2.645l0,0a10.118,10.118,0,0,0-2.4,4.961,10.105,10.105,0,0,0,.753,5.793,9.933,9.933,0,0,0,10.429,5.671h-.007a9.892,9.892,0,0,0,5.643-2.888l.067.1-.024.009-.015-.124,2.748.285.339.032-.014.126-2.411-.294-.6-.072a.5.5,0,0,0-.062-.006.021.021,0,0,0,.021-.012l-.013.012-.027.027-.108.107-.22.208a9.983,9.983,0,0,1-5.313,2.512h-.007a10.1,10.1,0,0,1-4.521-.418,10,10,0,0,1-3.781-2.3,9.822,9.822,0,0,1-2.361-3.588,10.1,10.1,0,0,1-.614-4.11,9.53,9.53,0,0,1,1.052-3.859,9.883,9.883,0,0,1,18.657,5.314,9.956,9.956,0,0,1-.32,1.775q-.111.4-.242.758l-.132.346-.069.165-.031.075c0,.011.013.02.023,0l.012.032-.053-.009.022-.026,1.107,3.293-.075-.2-.214-.605L251.692,14a.02.02,0,0,1,.012-.025h.01l.053.009a.019.019,0,0,1,.016.022v0l0,.006c-.019.043-.105.021-.093-.034a.92.92,0,0,1,.033-.086l.068-.164.13-.345q.128-.355.236-.756a9.88,9.88,0,0,0,.311-1.767,9.722,9.722,0,0,0-.621-4.319A9.792,9.792,0,0,0,236.3,2.609,9.744,9.744,0,0,0,233.962,5.6a9.427,9.427,0,0,0-1.036,3.816,9.986,9.986,0,0,0,.61,4.061,9.707,9.707,0,0,0,2.335,3.542,9.868,9.868,0,0,0,3.735,2.267,9.975,9.975,0,0,0,4.47.41h-.007a9.862,9.862,0,0,0,5.252-2.482l.217-.205.106-.105.026-.026.015-.014a.124.124,0,0,1,.056-.024.4.4,0,0,1,.088.006l.6.072,2.416.295a.064.064,0,0,1-.014.127l-.343-.032-2.748-.285a.064.064,0,0,1-.015-.123l.024-.009a.063.063,0,0,1,.067.1,10.016,10.016,0,0,1-5.709,2.923H244.1a10.055,10.055,0,0,1-10.551-5.747,10.22,10.22,0,0,1-.757-5.862,10.225,10.225,0,0,1,2.43-5.011l0,0A10.247,10.247,0,0,1,239.164.631a9.847,9.847,0,0,1,4.409-.587,9.991,9.991,0,0,1,9.063,9.473A9.953,9.953,0,0,1,251.783,14a.02.02,0,0,1-.027.011h0l-.053-.032a.02.02,0,0,1-.007-.026l0,0a.052.052,0,0,1,.076-.011A.14.14,0,0,1,251.8,14l.033.1.064.2.122.38.219.684.338,1.056.2.639.061.216" transform="translate(-137.794 0.001)" fill="#263238"/>
              <path id="Trazado_873291" data-name="Trazado 873291" d="M245.466,19.393l1.366-1.366,2.634,2.342,5.171-4.976,1.268,1.366L249.271,23Z" transform="translate(-145.381 -9.117)" fill="#ff725e"/>
            </g>
          </g>
          <g id="Grupo_1099169" data-name="Grupo 1099169">
            <g id="Grupo_1099168" data-name="Grupo 1099168" clip-path="url(#clip-path)">
              <path id="Trazado_873292" data-name="Trazado 873292" d="M241.238,94.421c-.271.032-16.956,6.218-16.956,6.218l2.3,2.914s7.542.019,12.593-1.4a44.231,44.231,0,0,0,9.46-4.046l6.625-2.545-.262-8.4Z" transform="translate(-132.835 -51.628)" fill="#ae7461"/>
              <path id="Trazado_873293" data-name="Trazado 873293" d="M271.009,91.992l2.846,7.93s10.128-3.094,9.774-2.973-2-10.777-2-10.777-.491.536-1.6,1.659Z" transform="translate(-160.51 -51.037)" fill="#e0e0e0"/>
              <path id="Trazado_873294" data-name="Trazado 873294" d="M196.745,120.8c-.118-.036-.007-.267.236-.4s3.535-1.222,3.832-1.306,3.151-.309,3.151-.309,2.762.643,3.33.676a1.5,1.5,0,0,0,.326-.029,20.742,20.742,0,0,0,2.134-.635c.04.005,1.394,3.461,1.394,3.461a8.261,8.261,0,0,0-1.944.2c-.076.833-.911,1.636-2.38,1.753s-1.2-.053-1.71.25a.55.55,0,0,1-.894-.494c.037-.446-.06-.993.732-1.263s.771-.109.679-.346a1.539,1.539,0,0,0-1.177-1.03c-.747-.079-4.513.4-5.142.192s-.537-.438-.537-.438a5.881,5.881,0,0,1-1.647.074.808.808,0,0,1-.384-.357" transform="translate(-116.497 -70.352)" fill="#ae7461"/>
              <path id="Trazado_873295" data-name="Trazado 873295" d="M288.136,322.289l.384,7.874s-7.874,3.036-7.945,4.5l15.294-.2-.1-12.293Z" transform="translate(-166.176 -190.811)" fill="#263238"/>
              <path id="Trazado_873296" data-name="Trazado 873296" d="M295.859,350.521l-.058-1.239-14.641.653s-.677.3-.594.783Z" transform="translate(-166.166 -206.868)" fill="#455a64"/>
              <path id="Trazado_873297" data-name="Trazado 873297" d="M299.45,341.486c0,.075.377.1.747.339s.57.547.639.516c.069-.016-.049-.46-.5-.738s-.9-.186-.884-.118" transform="translate(-177.354 -202.208)" fill="#fff"/>
              <path id="Trazado_873298" data-name="Trazado 873298" d="M295.537,343.223c-.016.073.309.2.566.508s.335.646.41.641c.07.011.116-.427-.212-.81s-.764-.411-.764-.34" transform="translate(-175.037 -203.261)" fill="#fff"/>
              <path id="Trazado_873299" data-name="Trazado 873299" d="M292.472,346.145c.068.015.167-.36-.03-.766s-.548-.565-.579-.5.188.278.345.615.19.647.264.653" transform="translate(-172.858 -204.251)" fill="#fff"/>
              <path id="Trazado_873300" data-name="Trazado 873300" d="M299.72,336.763c.032.068.373-.04.8-.016s.754.152.791.087-.282-.327-.78-.347-.845.218-.807.276" transform="translate(-177.513 -199.289)" fill="#fff"/>
              <path id="Trazado_873301" data-name="Trazado 873301" d="M336.245,323.208l.4,8.663-1.658,6.943a.888.888,0,0,0,1.492.835c1.293-1.3,6.027-6.105,5.962-6.737-.075-.732.183-9.166.183-9.166Z" transform="translate(-198.388 -191.425)" fill="#263238"/>
              <path id="Trazado_873302" data-name="Trazado 873302" d="M336.783,353.142l6.723-7.57.009.367a1.337,1.337,0,0,1-.3.875c-.536.66-2.053,2.449-5.634,6.081a.888.888,0,0,1-.8.248" transform="translate(-199.465 -204.671)" fill="#455a64"/>
              <path id="Trazado_873303" data-name="Trazado 873303" d="M338.841,353.335a1.917,1.917,0,0,0-1.779-.824c-.008-.021.1-.091.3-.124a1.417,1.417,0,0,1,1.376.637c.105.176.122.3.1.311" transform="translate(-199.631 -208.698)" fill="#fff"/>
              <path id="Trazado_873304" data-name="Trazado 873304" d="M337.613,356.76a2.65,2.65,0,0,0-1.626-.444.987.987,0,0,1,.9-.095c.514.137.771.514.726.539" transform="translate(-198.994 -210.947)" fill="#fff"/>
              <path id="Trazado_873305" data-name="Trazado 873305" d="M340.593,349.606a4.56,4.56,0,0,0-2.455-.9,2.43,2.43,0,0,1,2.455.9" transform="translate(-200.268 -206.484)" fill="#fff"/>
              <path id="Trazado_873306" data-name="Trazado 873306" d="M341.11,344.048c-.022.053-.506-.136-1.129-.144s-1.114.154-1.134.1a2.2,2.2,0,0,1,2.263.044" transform="translate(-200.687 -203.569)" fill="#fff"/>
              <path id="Trazado_873307" data-name="Trazado 873307" d="M340.9,337.747a2.823,2.823,0,0,0-2.314.134c-.015-.018.077-.129.274-.249a1.937,1.937,0,0,1,1.738-.1c.21.1.314.2.3.216" transform="translate(-200.535 -199.814)" fill="#fff"/>
              <path id="Trazado_873308" data-name="Trazado 873308" d="M339.379,334.16a.75.75,0,0,1-.02-.328,2.281,2.281,0,0,1,.241-.865,1.009,1.009,0,0,1,.422-.493.357.357,0,0,1,.4.07.584.584,0,0,1,.146.388,1.256,1.256,0,0,1-1.073,1.187,1.457,1.457,0,0,1-1.449-.728.5.5,0,0,1-.033-.42.351.351,0,0,1,.362-.194,1.244,1.244,0,0,1,.578.283,2.553,2.553,0,0,1,.608.66.782.782,0,0,1,.14.3,4.063,4.063,0,0,0-.827-.847,1.161,1.161,0,0,0-.51-.235.187.187,0,0,0-.2.1.349.349,0,0,0,.038.275,1.3,1.3,0,0,0,1.263.616,1.09,1.09,0,0,0,.925-.995.42.42,0,0,0-.091-.275.193.193,0,0,0-.222-.042.917.917,0,0,0-.365.411,3.365,3.365,0,0,0-.34,1.129" transform="translate(-200.177 -196.894)" fill="#fff"/>
              <path id="Trazado_873309" data-name="Trazado 873309" d="M312.592,173.658c0,.407,4.769,16.423,5.271,24.295s2.009,7.736,2.385,12.487,1.152,20.544,1.152,20.544h8.535s-1.278-26.924-1.278-30.045a13.53,13.53,0,0,0-1.13-5.429s.628-13.844.753-17.373a71.326,71.326,0,0,0-1.381-16.83c-1.381-5.7-.251-4.75-.251-4.75L310.835,159Z" transform="translate(-184.097 -92.688)" fill="#263238"/>
              <path id="Trazado_873310" data-name="Trazado 873310" d="M292.282,162.453c-.122.965-.612,40.054.856,43.99s1.252,13.436,1.054,18.051l.246,7.629h8.283s.812-27.038.69-31.109a45.83,45.83,0,0,1,.734-8.551l2.2-8.415.6-24.216h-14.3Z" transform="translate(-173.005 -94.663)" fill="#263238"/>
              <path id="Trazado_873311" data-name="Trazado 873311" d="M314,196.45a2.036,2.036,0,0,1,.188.274l.5.8,1.783,2.908-.041-.03a.129.129,0,0,1,.051.034l.018.027a.378.378,0,0,1,.022.047c.011.03.022.058.03.087.017.057.031.114.045.171.027.115.051.23.073.348.046.235.087.476.128.723l.239,1.543c.155,1.069.319,2.208.49,3.392.438,3.064.858,5.832,1.2,7.829l.415,2.362c.048.265.086.478.116.642a.114.114,0,1,1-.031.007l-.144-.636c-.121-.553-.283-1.357-.466-2.353-.369-1.993-.807-4.761-1.244-7.826l-.483-3.392q-.119-.8-.23-1.542-.062-.368-.122-.72c-.022-.116-.044-.231-.069-.342-.013-.055-.026-.111-.041-.163-.007-.027-.016-.051-.024-.074a.206.206,0,0,0-.013-.029l0-.009a.051.051,0,0,0,.03-.042l-.051.022-1.737-2.941-.474-.822a2.116,2.116,0,0,1-.156-.3" transform="translate(-185.971 -116.351)" fill="#455a64"/>
              <path id="Trazado_873312" data-name="Trazado 873312" d="M345.117,339.059c0,.047-1.936.085-4.324.085s-4.324-.038-4.324-.085,1.935-.085,4.324-.085,4.324.038,4.324.085" transform="translate(-199.279 -200.763)" fill="#455a64"/>
              <path id="Trazado_873313" data-name="Trazado 873313" d="M306.109,337.009c0,.047-1.854.085-4.141.085s-4.142-.038-4.142-.085,1.854-.085,4.142-.085,4.141.038,4.141.085" transform="translate(-176.392 -199.549)" fill="#455a64"/>
              <path id="Trazado_873314" data-name="Trazado 873314" d="M317.135,118.133l-1.651-15.446,2.89-24.563s-9.554-4.3-9.458-4.456-9.6,2.317-9.979,2.471l-.468.453-4.941,1.2L292.5,97.367c-.575-.019-2.123,21.066-.983,21.441a36.274,36.274,0,0,0,15.139,1.49c8.948-.875,10.483-2.165,10.483-2.165" transform="translate(-172.412 -43.628)" fill="#53bced"/>
              <g id="Grupo_1099152" data-name="Grupo 1099152" transform="translate(118.817 64.054)" opacity="0.8">
                <g id="Grupo_1099151" data-name="Grupo 1099151">
                  <g id="Grupo_1099150" data-name="Grupo 1099150" clip-path="url(#clip-path-4)">
                    <path id="Trazado_873315" data-name="Trazado 873315" d="M291.408,160.848c0,.559,17.142,3.2,25.067-.189l-.381-3.562s-16.253,1.55-24.484.193Z" transform="translate(-291.408 -157.097)" fill="#fff"/>
                  </g>
                </g>
              </g>
              <g id="Grupo_1099155" data-name="Grupo 1099155" transform="translate(119.112 59.201)" opacity="0.8">
                <g id="Grupo_1099154" data-name="Grupo 1099154">
                  <g id="Grupo_1099153" data-name="Grupo 1099153" clip-path="url(#clip-path-5)">
                    <path id="Trazado_873316" data-name="Trazado 873316" d="M292.131,148.812c0,.559,16.649,3.346,24.494-.045l-.411-3.572a59.081,59.081,0,0,1-23.816.295Z" transform="translate(-292.131 -145.195)" fill="#fff"/>
                  </g>
                </g>
              </g>
              <path id="Trazado_873317" data-name="Trazado 873317" d="M312.811,138.446a2.118,2.118,0,0,1-.033-.348q-.021-.371-.055-1c-.046-.868-.086-2.126-.114-3.68-.061-3.109-.027-7.4.125-12.146s.369-9.031.531-12.135c.085-1.536.154-2.787.2-3.675q.041-.628.065-1a2.123,2.123,0,0,1,.037-.347,2.158,2.158,0,0,1,.006.349q-.009.371-.025,1c-.033.889-.079,2.14-.135,3.678-.124,3.105-.314,7.395-.468,12.135s-.21,9.03-.188,12.137c.008,1.553.026,2.811.047,3.679q.009.629.015,1a2.146,2.146,0,0,1-.009.349" transform="translate(-185.131 -61.664)" fill="#263238"/>
              <path id="Trazado_873318" data-name="Trazado 873318" d="M310.311,77.183c-.039.654,1.915,9.939,1.915,9.939l8.064-12.411-.559-.918L311.7,75.721Z" transform="translate(-183.787 -43.706)" fill="#e0e0e0"/>
              <path id="Trazado_873319" data-name="Trazado 873319" d="M296.046,37.538A2.077,2.077,0,0,1,297,36.465a20.5,20.5,0,0,1,13.856-1.2,4.621,4.621,0,0,1,3.111,1.8l.012.073a2.258,2.258,0,0,1-.546,2.207,4.754,4.754,0,0,1-1.953,1.114,25.277,25.277,0,0,1-10.668.82,11.579,11.579,0,0,1-2.488-.437,4.439,4.439,0,0,1-2.106-1.354,1.8,1.8,0,0,1-.173-1.947" transform="translate(-175.216 -20.493)" fill="#ff725e"/>
              <g id="Grupo_1099158" data-name="Grupo 1099158" transform="translate(120.623 14.108)" opacity="0.3">
                <g id="Grupo_1099157" data-name="Grupo 1099157">
                  <g id="Grupo_1099156" data-name="Grupo 1099156" clip-path="url(#clip-path-6)">
                    <path id="Trazado_873320" data-name="Trazado 873320" d="M296.046,37.538A2.077,2.077,0,0,1,297,36.465a20.5,20.5,0,0,1,13.856-1.2,4.621,4.621,0,0,1,3.111,1.8l.012.073a2.258,2.258,0,0,1-.546,2.207,4.754,4.754,0,0,1-1.953,1.114,25.277,25.277,0,0,1-10.668.82,11.579,11.579,0,0,1-2.488-.437,4.439,4.439,0,0,1-2.106-1.354,1.8,1.8,0,0,1-.173-1.947" transform="translate(-295.839 -34.601)"/>
                  </g>
                </g>
              </g>
              <path id="Trazado_873321" data-name="Trazado 873321" d="M331.974,40.922a27.76,27.76,0,0,0,.885-4.706,9.7,9.7,0,0,0-.7-4.692c-.1-.221-.923-1.691-1.162-1.651-.171.029.369,1.416.293,1.572a8.219,8.219,0,0,0-.593,4.845,21.666,21.666,0,0,0,1.281,4.632" transform="translate(-195.788 -17.692)" fill="#263238"/>
              <path id="Trazado_873322" data-name="Trazado 873322" d="M300.851,32.289a7.165,7.165,0,0,1,6.285-7.411l.368-.046c4-.257,6.453,3,6.6,7l.022,12.953L307.1,50.162l-1.045-3.028s-.185-1.764-.191-1.763-3.891-.124-4.408-3.935c-.25-1.841-.455-5.674-.6-9.145" transform="translate(-178.18 -14.699)" fill="#ae7461"/>
              <path id="Trazado_873323" data-name="Trazado 873323" d="M313.146,72.2a9.29,9.29,0,0,0,4.789-2.081,4.734,4.734,0,0,1-4.673,3.14Z" transform="translate(-185.466 -41.529)" fill="#6f4439"/>
              <path id="Trazado_873324" data-name="Trazado 873324" d="M305.075,51.483a.549.549,0,0,0,.593.485.525.525,0,0,0,.5-.561.549.549,0,0,0-.593-.486.526.526,0,0,0-.5.561" transform="translate(-180.685 -30.159)" fill="#263238"/>
              <path id="Trazado_873325" data-name="Trazado 873325" d="M303.321,45.742c.076.063.452-.294,1.038-.365s1.053.17,1.107.09c.027-.035-.057-.155-.261-.269a1.506,1.506,0,0,0-.9-.16,1.45,1.45,0,0,0-.816.379c-.163.161-.208.3-.171.325" transform="translate(-179.64 -26.667)" fill="#263238"/>
              <path id="Trazado_873326" data-name="Trazado 873326" d="M317.065,50.713a.549.549,0,0,0,.593.485.525.525,0,0,0,.5-.561.55.55,0,0,0-.593-.486.526.526,0,0,0-.5.561" transform="translate(-187.786 -29.703)" fill="#263238"/>
              <path id="Trazado_873327" data-name="Trazado 873327" d="M317.485,44.589c.077.063.453-.293,1.039-.364s1.052.169,1.107.09c.027-.036-.057-.156-.262-.269a1.505,1.505,0,0,0-.9-.16,1.455,1.455,0,0,0-.815.378c-.163.161-.209.3-.172.325" transform="translate(-188.029 -25.985)" fill="#263238"/>
              <path id="Trazado_873328" data-name="Trazado 873328" d="M311.449,50.171a3.927,3.927,0,0,0-.974-.055c-.152,0-.3-.009-.335-.108a.77.77,0,0,1,.045-.456l.3-1.2a19.759,19.759,0,0,0,.628-3.106,19.727,19.727,0,0,0-.876,3.048l-.283,1.2a.877.877,0,0,0-.005.6.38.38,0,0,0,.274.189,1.027,1.027,0,0,0,.258,0,3.858,3.858,0,0,0,.966-.117" transform="translate(-183.542 -26.8)" fill="#263238"/>
              <path id="Trazado_873329" data-name="Trazado 873329" d="M315.622,57.792c-.1.006-.019.643-.508,1.162s-1.175.533-1.17.622c0,.041.166.1.454.077a1.6,1.6,0,0,0,.981-.483,1.39,1.39,0,0,0,.385-.97c-.009-.269-.1-.418-.142-.409" transform="translate(-185.938 -34.228)" fill="#263238"/>
              <path id="Trazado_873330" data-name="Trazado 873330" d="M316.855,38.913c.077.152.654,0,1.352,0s1.278.117,1.352-.037c.032-.074-.083-.212-.326-.338a2.349,2.349,0,0,0-2.06.026c-.24.133-.352.274-.318.347" transform="translate(-187.659 -22.693)" fill="#263238"/>
              <path id="Trazado_873331" data-name="Trazado 873331" d="M303.312,40.844c.119.121.507-.067.992-.134.482-.083.908-.021.985-.172.033-.073-.048-.2-.243-.3a1.449,1.449,0,0,0-1.594.246c-.155.158-.194.3-.141.362" transform="translate(-179.628 -23.75)" fill="#263238"/>
              <path id="Trazado_873332" data-name="Trazado 873332" d="M333.181,48.7c.062-.036,2.527-1.1,2.765,1.521s-2.939,2.376-2.951,2.3.186-3.823.186-3.823" transform="translate(-197.222 -28.699)" fill="#ae7461"/>
              <path id="Trazado_873333" data-name="Trazado 873333" d="M335.956,52.6c.011-.009.049.028.129.056a.458.458,0,0,0,.342-.024,1.134,1.134,0,0,0,.43-1.061,1.51,1.51,0,0,0-.187-.642.529.529,0,0,0-.375-.319.233.233,0,0,0-.258.15c-.029.077-.007.127-.021.133s-.06-.039-.049-.149a.292.292,0,0,1,.088-.173.344.344,0,0,1,.246-.09.644.644,0,0,1,.514.363,1.555,1.555,0,0,1,.224.716,1.19,1.19,0,0,1-.563,1.192.491.491,0,0,1-.424-.031c-.087-.057-.106-.115-.1-.121" transform="translate(-198.975 -29.896)" fill="#6f4439"/>
              <path id="Trazado_873334" data-name="Trazado 873334" d="M304.007,27.068c-.444-.2.717-1.677,1.721-2.236a9.346,9.346,0,0,1,5.375-1.189,6.338,6.338,0,0,1,4.324,2.625,10.346,10.346,0,0,1,1.589,5.17,3.141,3.141,0,0,1-.239,1.632c-.318.61-.991,1.032-.895,1.829a1.1,1.1,0,0,1-.207.823c-.438.55-1.064.118-1.373-.34a7.611,7.611,0,0,1-.972-3.373,7.685,7.685,0,0,1-.039-2.508c.093-.447.265-.877.332-1.329a1.58,1.58,0,0,0-.293-1.294,1.624,1.624,0,0,0-.23-.2,2.744,2.744,0,0,0-2.755-.294c-1.434.643-3.891,1.63-4.591,1.183a4.051,4.051,0,0,1-1.272-1.1Z" transform="translate(-179.995 -13.961)" fill="#263238"/>
              <path id="Trazado_873335" data-name="Trazado 873335" d="M300.752,38.21a9.123,9.123,0,0,1,4.113-1.347c6.5-.386,10.327,1.67,10.327,1.67l-.061-1.9s-9.632-1.2-9.7-1.193-2.885.7-2.95.729-1.739.429-1.739.429a5.426,5.426,0,0,0,.009,1.608" transform="translate(-178.087 -20.993)" fill="#455a64"/>
              <g id="Grupo_1099161" data-name="Grupo 1099161" transform="translate(122.6 14.452)" opacity="0.3">
                <g id="Grupo_1099160" data-name="Grupo 1099160">
                  <g id="Grupo_1099159" data-name="Grupo 1099159" clip-path="url(#clip-path-7)">
                    <path id="Trazado_873336" data-name="Trazado 873336" d="M300.752,38.21a9.123,9.123,0,0,1,4.113-1.347c6.5-.386,10.327,1.67,10.327,1.67l-.061-1.9s-9.632-1.2-9.7-1.193-2.885.7-2.95.729-1.739.429-1.739.429a5.426,5.426,0,0,0,.009,1.608" transform="translate(-300.688 -35.445)"/>
                  </g>
                </g>
              </g>
              <path id="Trazado_873337" data-name="Trazado 873337" d="M295.794,26.743s1.467-2.962,9.061-2.519c7.967.465,9.15,2.495,9.15,2.495a2.6,2.6,0,0,0-.943-2.66,9.851,9.851,0,0,0-2.563-5.834,14.612,14.612,0,0,0-2.7-1.852l-.079-.526s-.592-.6-3.268-.493c-2.765.11-3.267,1.006-3.267,1.006l-.034.476A8.875,8.875,0,0,0,297,24.568s-1.439,1.09-1.2,2.175" transform="translate(-175.173 -9.086)" fill="#0d66bf"/>
              <g id="Grupo_1099164" data-name="Grupo 1099164" transform="translate(131.267 6.761)" opacity="0.3">
                <g id="Grupo_1099163" data-name="Grupo 1099163">
                  <g id="Grupo_1099162" data-name="Grupo 1099162" clip-path="url(#clip-path-8)">
                    <path id="Trazado_873338" data-name="Trazado 873338" d="M323.223,16.583a5.835,5.835,0,0,0-1.213,2.271,15.282,15.282,0,0,0-.041,2.344,7.414,7.414,0,0,1,1.334-4.089Z" transform="translate(-321.944 -16.583)"/>
                  </g>
                </g>
              </g>
              <path id="Trazado_873339" data-name="Trazado 873339" d="M314.835,34.856a.615.615,0,0,0-.155-.066l-.455-.156c-.2-.069-.442-.146-.73-.217s-.612-.172-.98-.24a27.7,27.7,0,0,0-5.8-.605,20.241,20.241,0,0,0-5.787.733c-.354.123-.676.234-.949.352-.267.134-.5.237-.682.345l-.4.274a.579.579,0,0,0-.131.1.626.626,0,0,0,.152-.075l.412-.242c.182-.1.42-.19.687-.314.273-.108.595-.209.946-.324a21.621,21.621,0,0,1,5.751-.675,30.48,30.48,0,0,1,5.779.55c.367.06.692.151.981.213s.535.129.736.187l.464.124a.615.615,0,0,0,.166.032" transform="translate(-176.947 -19.883)" fill="#263238"/>
              <path id="Trazado_873340" data-name="Trazado 873340" d="M323,16.582a2.908,2.908,0,0,0-.479.532,3.788,3.788,0,0,0-.821,1.531,5.134,5.134,0,0,0-.1,1.735,2.128,2.128,0,0,0,.146.7,4.345,4.345,0,0,0-.02-.712,6.292,6.292,0,0,1,.147-1.684,4.285,4.285,0,0,1,.749-1.5,2.806,2.806,0,0,0,.378-.607" transform="translate(-190.455 -9.821)" fill="#263238"/>
              <g id="Grupo_1099167" data-name="Grupo 1099167" transform="translate(132.696 8.103)" opacity="0.3">
                <g id="Grupo_1099166" data-name="Grupo 1099166">
                  <g id="Grupo_1099165" data-name="Grupo 1099165" clip-path="url(#clip-path-9)">
                    <path id="Trazado_873341" data-name="Trazado 873341" d="M325.452,20.323a.526.526,0,0,1,.049-.335.294.294,0,0,1,.289-.109.816.816,0,0,1,.3.13,8.465,8.465,0,0,1,3.8,5.833.139.139,0,0,1-.2.154,9.48,9.48,0,0,0-2.87-.886c-.327-.051-.791,0-.949-.326a1.761,1.761,0,0,1-.129-.638q-.143-1.911-.287-3.823" transform="translate(-325.447 -19.874)" fill="#fff"/>
                  </g>
                </g>
              </g>
              <path id="Trazado_873342" data-name="Trazado 873342" d="M309.122,21.566A9.21,9.21,0,0,0,309,20.021a9.283,9.283,0,0,0-.2-1.537,5.405,5.405,0,0,0,.027,1.555,5.432,5.432,0,0,0,.3,1.527" transform="translate(-182.867 -10.947)" fill="#263238"/>
              <path id="Trazado_873343" data-name="Trazado 873343" d="M330.413,126.569s10.332-3.616,10.823-4.223l-3.241-6.978s7.326-3.919,7.539-3.791,4.472,10.861,2.385,14.226-9.05,4.478-16.759,4.137l-.823-.053Z" transform="translate(-195.647 -66.081)" fill="#ae7461"/>
              <path id="Trazado_873344" data-name="Trazado 873344" d="M350.126,87.028S356.179,100,356,100.14l-8.506,4.378s-3.013-4.886-3.239-6.693-.045-11.655,5.873-10.8" transform="translate(-203.856 -51.513)" fill="#e0e0e0"/>
              <path id="Trazado_873345" data-name="Trazado 873345" d="M265.561,136.173a.155.155,0,0,0-.055.3c2.116.826,7.977,3.107,8.25,3.137.335.037,14.208.528,13.953.223a69.88,69.88,0,0,0-7-3.572c-.577-.16-11.986-.106-15.153-.088" transform="translate(-157.191 -80.637)" fill="#263238"/>
              <path id="Trazado_873346" data-name="Trazado 873346" d="M301.8,139.48s-.227-.537.206-.763a3.117,3.117,0,0,1,2.249.382c.6.382,1.279.423,2.146.856a5.909,5.909,0,0,1,2.1,2.475h2.311l-1.114,3.535a17.328,17.328,0,0,1-2.744.158c-.66-.1-5.261-1.465-5.776-1.527s-1.093-1.32-2.929-2.022a21.834,21.834,0,0,1-3.734-1.98s.454-.763,1.176-.516a.7.7,0,0,1,.681-.495c.516.041,5.384,1.485,5.508,1.485s2.5.1,2.5.1Z" transform="translate(-174.433 -82.104)" fill="#ae7461"/>
              <path id="Trazado_873347" data-name="Trazado 873347" d="M360.307,138.87a5.764,5.764,0,0,0-3.38-.926,3.408,3.408,0,0,1,3.38.926" transform="translate(-211.396 -81.617)" fill="#6f4439"/>
            </g>
          </g>
          <rect id="Rectángulo_401050" data-name="Rectángulo 401050" width="22.623" height="37.077" transform="translate(68.035 50.193)" fill="#d3d3d3"/>
          <path id="Trazado_873348" data-name="Trazado 873348" d="M189.478,160.176H166.835v-37.1h22.643Zm-22.623-.021h22.6V123.1h-22.6Z" transform="translate(-98.811 -72.895)" fill="#263238"/>
          <rect id="Rectángulo_401051" data-name="Rectángulo 401051" width="3.583" height="3.583" transform="translate(81.926 51.433)" fill="#e0e0e0"/>
          <rect id="Rectángulo_401052" data-name="Rectángulo 401052" width="1.792" height="3.583" transform="translate(86.336 51.433)" fill="#e0e0e0"/>
          <g id="Grupo_1099219" data-name="Grupo 1099219">
            <g id="Grupo_1099218" data-name="Grupo 1099218" clip-path="url(#clip-path)">
              <g id="Grupo_1099172" data-name="Grupo 1099172" transform="translate(80.649 50.193)" opacity="0.3">
                <g id="Grupo_1099171" data-name="Grupo 1099171">
                  <g id="Grupo_1099170" data-name="Grupo 1099170" clip-path="url(#clip-path-11)">
                    <rect id="Rectángulo_401053" data-name="Rectángulo 401053" width="10.008" height="37.077"/>
                  </g>
                </g>
              </g>
              <path id="Trazado_873349" data-name="Trazado 873349" d="M198.025,160.15c-.059,0-.106-8.33-.106-18.6s.047-18.606.106-18.606.106,8.329.106,18.606-.047,18.6-.106,18.6" transform="translate(-117.221 -72.813)" fill="#263238"/>
              <g id="Grupo_1099175" data-name="Grupo 1099175" transform="translate(70.986 50.193)" opacity="0.3">
                <g id="Grupo_1099174" data-name="Grupo 1099174">
                  <g id="Grupo_1099173" data-name="Grupo 1099173" clip-path="url(#clip-path-12)">
                    <rect id="Rectángulo_401055" data-name="Rectángulo 401055" width="6.98" height="8.295" transform="translate(0 0)" fill="#fff"/>
                  </g>
                </g>
              </g>
              <g id="Grupo_1099178" data-name="Grupo 1099178" transform="translate(70.986 78.975)" opacity="0.3">
                <g id="Grupo_1099177" data-name="Grupo 1099177">
                  <g id="Grupo_1099176" data-name="Grupo 1099176" clip-path="url(#clip-path-12)">
                    <rect id="Rectángulo_401057" data-name="Rectángulo 401057" width="6.98" height="8.295" fill="#fff"/>
                  </g>
                </g>
              </g>
              <g id="Grupo_1099181" data-name="Grupo 1099181" transform="translate(74.12 50.187)" opacity="0.3">
                <g id="Grupo_1099180" data-name="Grupo 1099180">
                  <g id="Grupo_1099179" data-name="Grupo 1099179" clip-path="url(#clip-path-14)">
                    <path id="Trazado_873350" data-name="Trazado 873350" d="M181.892,160.61c-.059,0-.106-8.4-.106-18.76s.047-18.762.106-18.762.106,8.4.106,18.762-.047,18.76-.106,18.76" transform="translate(-181.786 -123.088)"/>
                  </g>
                </g>
              </g>
              <rect id="Rectángulo_401060" data-name="Rectángulo 401060" width="51.951" height="34.854" transform="translate(12.33 52.832)" fill="#d3d3d3"/>
              <path id="Trazado_873351" data-name="Trazado 873351" d="M82.037,164.274s-.006-.219-.009-.635-.006-1.036-.01-1.84c0-1.615-.012-3.982-.022-7.011-.011-6.056-.026-14.759-.044-25.367l.085.085-51.946.021h0l.106-.106c0,12.419-.006,24.227-.009,34.854l-.1-.1,37.424.048,10.694.026,2.845.012.735.006c.166,0,.253.006.253.006s-.08,0-.241.006l-.724.006-2.826.012-10.671.026-37.488.048h-.1v-.1c0-10.626-.006-22.435-.009-34.854v-.106h.11l51.946.021h.085v.085c-.018,10.63-.034,19.351-.044,25.42-.009,3.022-.017,5.382-.022,6.992,0,.8-.007,1.407-.009,1.824s-.009.617-.009.617" transform="translate(-17.756 -76.588)" fill="#263238"/>
              <g id="Grupo_1099184" data-name="Grupo 1099184" transform="translate(28.113 52.832)" opacity="0.3">
                <g id="Grupo_1099183" data-name="Grupo 1099183">
                  <g id="Grupo_1099182" data-name="Grupo 1099182" clip-path="url(#clip-path-15)">
                    <rect id="Rectángulo_401061" data-name="Rectángulo 401061" width="6.98" height="9.377" transform="translate(0 0)" fill="#fff"/>
                  </g>
                </g>
              </g>
              <g id="Grupo_1099187" data-name="Grupo 1099187" transform="translate(27.815 78.552)" opacity="0.3">
                <g id="Grupo_1099186" data-name="Grupo 1099186">
                  <g id="Grupo_1099185" data-name="Grupo 1099185" clip-path="url(#clip-path-16)">
                    <rect id="Rectángulo_401063" data-name="Rectángulo 401063" width="6.98" height="9.133" transform="translate(0)" fill="#fff"/>
                  </g>
                </g>
              </g>
              <g id="Grupo_1099190" data-name="Grupo 1099190" transform="translate(11.77 69.127)" opacity="0.3">
                <g id="Grupo_1099189" data-name="Grupo 1099189">
                  <g id="Grupo_1099188" data-name="Grupo 1099188" clip-path="url(#clip-path-17)">
                    <path id="Trazado_873352" data-name="Trazado 873352" d="M67.372,169.645c0,.059-8.621.106-19.252.106s-19.254-.047-19.254-.106,8.619-.106,19.254-.106,19.252.047,19.252.106" transform="translate(-28.866 -169.539)"/>
                  </g>
                </g>
              </g>
              <path id="Trazado_873353" data-name="Trazado 873353" d="M148.692,204.746h-3.143a.2.2,0,0,1-.195-.195v-3.143a.2.2,0,0,1,.195-.194h3.143a.2.2,0,0,1,.195.194v3.143a.2.2,0,0,1-.195.195" transform="translate(-86.088 -119.172)" fill="#e0e0e0"/>
              <g id="Grupo_1099193" data-name="Grupo 1099193" transform="translate(50.276 52.832)" opacity="0.3">
                <g id="Grupo_1099192" data-name="Grupo 1099192">
                  <g id="Grupo_1099191" data-name="Grupo 1099191" clip-path="url(#clip-path-18)">
                    <rect id="Rectángulo_401066" data-name="Rectángulo 401066" width="14.005" height="34.854" transform="translate(0 0)"/>
                  </g>
                </g>
              </g>
              <path id="Trazado_873354" data-name="Trazado 873354" d="M123.151,164.659c-.059,0-.106-7.657-.106-17.1s.047-17.1.106-17.1.106,7.655.106,17.1-.047,17.1-.106,17.1" transform="translate(-72.875 -77.265)" fill="#263238"/>
              <rect id="Rectángulo_401068" data-name="Rectángulo 401068" width="26.047" height="17.285" transform="translate(94.411 69.91)" fill="#afafaf"/>
              <path id="Trazado_873355" data-name="Trazado 873355" d="M257.6,188.74H231.527V171.434H257.6Zm-26.047-.02h26.026V171.455H231.548Z" transform="translate(-137.126 -101.535)" fill="#263238"/>
              <g id="Grupo_1099196" data-name="Grupo 1099196" transform="translate(108.001 69.91)" opacity="0.3">
                <g id="Grupo_1099195" data-name="Grupo 1099195">
                  <g id="Grupo_1099194" data-name="Grupo 1099194" clip-path="url(#clip-path-19)">
                    <rect id="Rectángulo_401069" data-name="Rectángulo 401069" width="12.458" height="17.285" transform="translate(0 0)"/>
                  </g>
                </g>
              </g>
              <path id="Trazado_873356" data-name="Trazado 873356" d="M264.727,188.8c-.059,0-.106-3.861-.106-8.622s.047-8.623.106-8.623.106,3.86.106,8.623-.047,8.622-.106,8.622" transform="translate(-156.726 -101.609)" fill="#263238"/>
              <g id="Grupo_1099199" data-name="Grupo 1099199" transform="translate(98.972 69.95)" opacity="0.3">
                <g id="Grupo_1099198" data-name="Grupo 1099198">
                  <g id="Grupo_1099197" data-name="Grupo 1099197" clip-path="url(#clip-path-20)">
                    <rect id="Rectángulo_401071" data-name="Rectángulo 401071" width="5.563" height="2.466" transform="translate(0)" fill="#fff"/>
                  </g>
                </g>
              </g>
              <g id="Grupo_1099202" data-name="Grupo 1099202" transform="translate(98.972 84.696)" opacity="0.3">
                <g id="Grupo_1099201" data-name="Grupo 1099201">
                  <g id="Grupo_1099200" data-name="Grupo 1099200" clip-path="url(#clip-path-20)">
                    <rect id="Rectángulo_401073" data-name="Rectángulo 401073" width="5.563" height="2.466" transform="translate(0)" fill="#fff"/>
                  </g>
                </g>
              </g>
              <rect id="Rectángulo_401075" data-name="Rectángulo 401075" width="38.874" height="19.976" transform="translate(146.219 67.186)" fill="#afafaf"/>
              <path id="Trazado_873357" data-name="Trazado 873357" d="M397.483,184.751h-38.9v-20h38.9Zm-38.874-.02h38.854V164.775H358.609Z" transform="translate(-212.38 -97.578)" fill="#263238"/>
              <g id="Grupo_1099205" data-name="Grupo 1099205" transform="translate(172.743 75.725)" opacity="0.3">
                <g id="Grupo_1099204" data-name="Grupo 1099204">
                  <g id="Grupo_1099203" data-name="Grupo 1099203" clip-path="url(#clip-path-22)">
                    <rect id="Rectángulo_401076" data-name="Rectángulo 401076" width="12.35" height="5.321" fill="#fff"/>
                  </g>
                </g>
              </g>
              <g id="Grupo_1099208" data-name="Grupo 1099208" transform="translate(174.558 67.186)" opacity="0.3">
                <g id="Grupo_1099207" data-name="Grupo 1099207">
                  <g id="Grupo_1099206" data-name="Grupo 1099206" clip-path="url(#clip-path-23)">
                    <rect id="Rectángulo_401078" data-name="Rectángulo 401078" width="10.535" height="19.976" transform="translate(0 0)"/>
                  </g>
                </g>
              </g>
              <path id="Trazado_873358" data-name="Trazado 873358" d="M427.964,184.5c-.059,0-.106-4.395-.106-9.815s.047-9.816.106-9.816.106,4.394.106,9.816-.047,9.815-.106,9.815" transform="translate(-253.406 -97.646)" fill="#263238"/>
              <g id="Grupo_1099211" data-name="Grupo 1099211" transform="translate(146.218 75.725)" opacity="0.3">
                <g id="Grupo_1099210" data-name="Grupo 1099210">
                  <g id="Grupo_1099209" data-name="Grupo 1099209" clip-path="url(#clip-path-24)">
                    <rect id="Rectángulo_401080" data-name="Rectángulo 401080" width="1.73" height="5.321" transform="translate(0)" fill="#fff"/>
                  </g>
                </g>
              </g>
              <g id="Grupo_1099214" data-name="Grupo 1099214" transform="translate(146.139 77.854)" opacity="0.3">
                <g id="Grupo_1099213" data-name="Grupo 1099213">
                  <g id="Grupo_1099212" data-name="Grupo 1099212" clip-path="url(#clip-path-25)">
                    <path id="Trazado_873359" data-name="Trazado 873359" d="M386.836,191.05c0,.059-6.362.106-14.209.106s-14.211-.047-14.211-.106,6.361-.106,14.211-.106,14.209.047,14.209.106" transform="translate(-358.416 -190.944)"/>
                  </g>
                </g>
              </g>
              <rect id="Rectángulo_401083" data-name="Rectángulo 401083" width="2.178" height="3.452" transform="translate(147.382 68.965)" fill="#e0e0e0"/>
              <rect id="Rectángulo_401084" data-name="Rectángulo 401084" width="1.089" height="2.172" transform="translate(150.017 68.965)" fill="#e0e0e0"/>
              <rect id="Rectángulo_401085" data-name="Rectángulo 401085" width="1.089" height="2.172" transform="translate(151.545 68.965)" fill="#e0e0e0"/>
              <path id="Trazado_873360" data-name="Trazado 873360" d="M11.572,220.476A1.274,1.274,0,1,1,10.3,219.2a1.273,1.273,0,0,1,1.273,1.273" transform="translate(-5.345 -129.827)" fill="#263238"/>
              <path id="Trazado_873361" data-name="Trazado 873361" d="M184.588,220.055H3.314a3.313,3.313,0,1,1,0-6.627H184.588a3.313,3.313,0,1,1,0,6.627" transform="translate(0 -126.406)" fill="#263238"/>
              <path id="Trazado_873362" data-name="Trazado 873362" d="M184.917,220.805H4.351a3.055,3.055,0,0,1,0-6.11H184.917a3.055,3.055,0,1,1,0,6.11" transform="translate(-0.768 -127.157)" fill="#455a64"/>
              <rect id="Rectángulo_401086" data-name="Rectángulo 401086" width="179.713" height="12.922" transform="translate(9.428 93.649)" fill="#455a64"/>
              <path id="Trazado_873363" data-name="Trazado 873363" d="M198.358,229.527c0,.059-41.248.106-92.119.106-50.888,0-92.127-.048-92.127-.106s41.239-.106,92.127-.106c50.87,0,92.119.047,92.119.106" transform="translate(-8.358 -135.878)" fill="#263238"/>
              <path id="Trazado_873364" data-name="Trazado 873364" d="M135.844,220.476a1.274,1.274,0,1,1-1.273-1.273,1.273,1.273,0,0,1,1.273,1.273" transform="translate(-78.947 -129.827)" fill="#263238"/>
              <path id="Trazado_873365" data-name="Trazado 873365" d="M260.115,220.476a1.274,1.274,0,1,1-1.273-1.273,1.273,1.273,0,0,1,1.273,1.273" transform="translate(-152.549 -129.827)" fill="#263238"/>
              <path id="Trazado_873366" data-name="Trazado 873366" d="M384.387,220.476a1.274,1.274,0,1,1-1.273-1.273,1.273,1.273,0,0,1,1.273,1.273" transform="translate(-226.151 -129.827)" fill="#263238"/>
              <rect id="Rectángulo_401087" data-name="Rectángulo 401087" width="34.311" height="91.954" transform="translate(155.689 50.196)" fill="#455a64"/>
              <rect id="Rectángulo_401088" data-name="Rectángulo 401088" width="6.3" height="35.324" transform="translate(18.544 106.57)" fill="#455a64"/>
              <rect id="Rectángulo_401089" data-name="Rectángulo 401089" width="6.3" height="35.324" transform="translate(84.054 106.57)" fill="#455a64"/>
              <path id="Trazado_873367" data-name="Trazado 873367" d="M381.629,210.413c-.059,0-.106-19.188-.106-42.853s.047-42.857.106-42.857.106,19.184.106,42.857-.047,42.853-.106,42.853" transform="translate(-225.963 -73.857)" fill="#263238"/>
              <path id="Trazado_873368" data-name="Trazado 873368" d="M168.189,261.219c0,.059-32.4.106-72.362.106s-72.369-.047-72.369-.106,32.395-.106,72.369-.106,72.362.047,72.362.106" transform="translate(-13.893 -154.649)" fill="#263238"/>
              <g id="Grupo_1099217" data-name="Grupo 1099217" transform="translate(9.565 93.649)" opacity="0.3">
                <g id="Grupo_1099216" data-name="Grupo 1099216">
                  <g id="Grupo_1099215" data-name="Grupo 1099215" clip-path="url(#clip-path-26)">
                    <rect id="Rectángulo_401090" data-name="Rectángulo 401090" width="145.917" height="3.212" transform="translate(0)"/>
                  </g>
                </g>
              </g>
            </g>
          </g>
        </g>
      </g>
    </g>
  </g>
</svg>
