<svg xmlns="http://www.w3.org/2000/svg" xmlns:xlink="http://www.w3.org/1999/xlink" width="191.526" height="204" viewBox="0 0 191.526 204">
  <defs>
    <clipPath id="clip-path">
      <rect id="Rectángulo_401286" data-name="Rectángulo 401286" width="190" height="174.08" fill="none"/>
    </clipPath>
    <clipPath id="clip-path-4">
      <rect id="Rectángulo_401219" data-name="Rectángulo 401219" width="118.689" height="32.777" fill="#636363"/>
    </clipPath>
    <clipPath id="clip-path-6">
      <rect id="Rectángulo_401225" data-name="Rectángulo 401225" width="37.117" height="27.148" fill="none"/>
    </clipPath>
    <clipPath id="clip-path-7">
      <rect id="Rectángulo_401226" data-name="Rectángulo 401226" width="22.835" height="27.06" fill="none"/>
    </clipPath>
    <clipPath id="clip-path-8">
      <rect id="Rectángulo_401227" data-name="Rectángulo 401227" width="32.767" height="21.377" fill="none"/>
    </clipPath>
    <clipPath id="clip-path-10">
      <rect id="Rectángulo_401229" data-name="Rectángulo 401229" width="17.506" height="29.943" fill="none"/>
    </clipPath>
    <clipPath id="clip-path-11">
      <rect id="Rectángulo_401230" data-name="Rectángulo 401230" width="40.071" height="20.035" fill="none"/>
    </clipPath>
    <clipPath id="clip-path-12">
      <rect id="Rectángulo_401231" data-name="Rectángulo 401231" width="20.035" height="20.035" fill="none"/>
    </clipPath>
    <clipPath id="clip-path-13">
      <rect id="Rectángulo_401232" data-name="Rectángulo 401232" width="28.74" height="5.627" fill="none"/>
    </clipPath>
    <clipPath id="clip-path-14">
      <rect id="Rectángulo_401239" data-name="Rectángulo 401239" width="11.142" height="10.603" fill="none"/>
    </clipPath>
    <clipPath id="clip-path-15">
      <rect id="Rectángulo_401250" data-name="Rectángulo 401250" width="25.406" height="44.072" fill="none"/>
    </clipPath>
    <clipPath id="clip-path-16">
      <rect id="Rectángulo_401251" data-name="Rectángulo 401251" width="3.525" height="3.668" fill="none"/>
    </clipPath>
    <clipPath id="clip-path-17">
      <rect id="Rectángulo_401261" data-name="Rectángulo 401261" width="31.96" height="3.032" fill="none"/>
    </clipPath>
    <clipPath id="clip-path-18">
      <rect id="Rectángulo_401265" data-name="Rectángulo 401265" width="4.547" height="1.44" fill="none"/>
    </clipPath>
    <clipPath id="clip-path-22">
      <rect id="Rectángulo_401281" data-name="Rectángulo 401281" width="2.72" height="3.759" fill="none"/>
    </clipPath>
    <clipPath id="clip-path-23">
      <rect id="Rectángulo_401282" data-name="Rectángulo 401282" width="3.195" height="3.822" fill="none"/>
    </clipPath>
    <clipPath id="clip-path-24">
      <rect id="Rectángulo_401283" data-name="Rectángulo 401283" width="8.106" height="3.629" fill="none"/>
    </clipPath>
    <clipPath id="clip-path-25">
      <rect id="Rectángulo_401284" data-name="Rectángulo 401284" width="2.389" height="3.1" fill="none"/>
    </clipPath>
  </defs>
  <g id="Grupo_1100658" data-name="Grupo 1100658" transform="translate(-287.479 -2488.758)">
    <g id="Grupo_1099886" data-name="Grupo 1099886" transform="translate(4644.006 12030.162)">
      <rect id="Rectángulo_401040" data-name="Rectángulo 401040" width="149" height="201" rx="40" transform="translate(-4355.026 -9539.904)" fill="none" stroke="#ff725d" stroke-miterlimit="10" stroke-width="3"/>
      <g id="Grupo_1099674" data-name="Grupo 1099674" transform="translate(-4355 -9512.984)">
        <g id="Grupo_1099673" data-name="Grupo 1099673" clip-path="url(#clip-path)">
          <rect id="Rectángulo_401213" data-name="Rectángulo 401213" width="139.197" height="8.842" transform="translate(44.89 -0.001)" fill="#abb4c0"/>
          <rect id="Rectángulo_401214" data-name="Rectángulo 401214" width="139.197" height="2.306" transform="translate(44.89 6.536)" fill="#c7c7c7"/>
          <rect id="Rectángulo_401215" data-name="Rectángulo 401215" width="118.69" height="140.885" transform="translate(55.143 8.842)" fill="#d3d3d3"/>
          <line id="Línea_583" data-name="Línea 583" x2="118.69" transform="translate(55.143 11.038)" fill="none" stroke="#53bced" stroke-miterlimit="10" stroke-width="0.5"/>
          <line id="Línea_584" data-name="Línea 584" x2="118.69" transform="translate(55.143 13.204)" fill="none" stroke="#53bced" stroke-miterlimit="10" stroke-width="0.5"/>
          <line id="Línea_585" data-name="Línea 585" x2="118.69" transform="translate(55.143 15.37)" fill="none" stroke="#53bced" stroke-miterlimit="10" stroke-width="0.5"/>
          <line id="Línea_586" data-name="Línea 586" x2="118.69" transform="translate(55.143 17.537)" fill="none" stroke="#53bced" stroke-miterlimit="10" stroke-width="0.5"/>
          <line id="Línea_587" data-name="Línea 587" x2="118.69" transform="translate(55.143 19.703)" fill="none" stroke="#53bced" stroke-miterlimit="10" stroke-width="0.5"/>
          <line id="Línea_588" data-name="Línea 588" x2="118.69" transform="translate(55.143 21.869)" fill="none" stroke="#53bced" stroke-miterlimit="10" stroke-width="0.5"/>
          <line id="Línea_589" data-name="Línea 589" x2="118.69" transform="translate(55.143 24.035)" fill="none" stroke="#53bced" stroke-miterlimit="10" stroke-width="0.5"/>
          <line id="Línea_590" data-name="Línea 590" x2="118.69" transform="translate(55.143 26.201)" fill="none" stroke="#53bced" stroke-miterlimit="10" stroke-width="0.5"/>
          <line id="Línea_591" data-name="Línea 591" x2="118.69" transform="translate(55.143 28.367)" fill="none" stroke="#53bced" stroke-miterlimit="10" stroke-width="0.5"/>
          <line id="Línea_592" data-name="Línea 592" x2="118.69" transform="translate(55.143 30.533)" fill="none" stroke="#53bced" stroke-miterlimit="10" stroke-width="0.5"/>
          <line id="Línea_593" data-name="Línea 593" x2="118.69" transform="translate(55.143 32.7)" fill="none" stroke="#53bced" stroke-miterlimit="10" stroke-width="0.5"/>
          <line id="Línea_594" data-name="Línea 594" x2="118.69" transform="translate(55.143 34.866)" fill="none" stroke="#53bced" stroke-miterlimit="10" stroke-width="0.5"/>
          <line id="Línea_595" data-name="Línea 595" x2="118.69" transform="translate(55.143 37.032)" fill="none" stroke="#53bced" stroke-miterlimit="10" stroke-width="0.5"/>
          <line id="Línea_596" data-name="Línea 596" x2="118.69" transform="translate(55.143 39.198)" fill="none" stroke="#53bced" stroke-miterlimit="10" stroke-width="0.5"/>
          <line id="Línea_597" data-name="Línea 597" x2="118.69" transform="translate(55.143 41.364)" fill="none" stroke="#53bced" stroke-miterlimit="10" stroke-width="0.5"/>
          <line id="Línea_598" data-name="Línea 598" x2="118.69" transform="translate(55.143 43.53)" fill="none" stroke="#53bced" stroke-miterlimit="10" stroke-width="0.5"/>
          <line id="Línea_599" data-name="Línea 599" x2="118.69" transform="translate(55.143 45.697)" fill="none" stroke="#53bced" stroke-miterlimit="10" stroke-width="0.5"/>
          <line id="Línea_600" data-name="Línea 600" x2="118.69" transform="translate(55.143 47.863)" fill="none" stroke="#53bced" stroke-miterlimit="10" stroke-width="0.5"/>
          <line id="Línea_601" data-name="Línea 601" x2="118.69" transform="translate(55.143 50.029)" fill="none" stroke="#53bced" stroke-miterlimit="10" stroke-width="0.5"/>
          <line id="Línea_602" data-name="Línea 602" x2="118.69" transform="translate(55.143 52.195)" fill="none" stroke="#53bced" stroke-miterlimit="10" stroke-width="0.5"/>
          <line id="Línea_603" data-name="Línea 603" x2="118.69" transform="translate(55.143 54.361)" fill="none" stroke="#53bced" stroke-miterlimit="10" stroke-width="0.5"/>
          <line id="Línea_604" data-name="Línea 604" x2="118.69" transform="translate(55.143 56.527)" fill="none" stroke="#53bced" stroke-miterlimit="10" stroke-width="0.5"/>
          <line id="Línea_605" data-name="Línea 605" x2="118.69" transform="translate(55.143 58.694)" fill="none" stroke="#53bced" stroke-miterlimit="10" stroke-width="0.5"/>
          <line id="Línea_606" data-name="Línea 606" x2="118.69" transform="translate(55.143 60.86)" fill="none" stroke="#53bced" stroke-miterlimit="10" stroke-width="0.5"/>
          <line id="Línea_607" data-name="Línea 607" x2="118.69" transform="translate(55.143 63.026)" fill="none" stroke="#53bced" stroke-miterlimit="10" stroke-width="0.5"/>
          <line id="Línea_608" data-name="Línea 608" x2="118.69" transform="translate(55.143 65.192)" fill="none" stroke="#53bced" stroke-miterlimit="10" stroke-width="0.5"/>
          <line id="Línea_609" data-name="Línea 609" x2="118.69" transform="translate(55.143 67.358)" fill="none" stroke="#53bced" stroke-miterlimit="10" stroke-width="0.5"/>
          <line id="Línea_610" data-name="Línea 610" x2="118.69" transform="translate(55.143 69.524)" fill="none" stroke="#53bced" stroke-miterlimit="10" stroke-width="0.5"/>
          <line id="Línea_611" data-name="Línea 611" x2="118.69" transform="translate(55.143 71.691)" fill="none" stroke="#53bced" stroke-miterlimit="10" stroke-width="0.5"/>
          <line id="Línea_612" data-name="Línea 612" x2="118.69" transform="translate(55.143 73.857)" fill="none" stroke="#53bced" stroke-miterlimit="10" stroke-width="0.5"/>
          <line id="Línea_613" data-name="Línea 613" x2="118.69" transform="translate(55.143 76.023)" fill="none" stroke="#53bced" stroke-miterlimit="10" stroke-width="0.5"/>
          <line id="Línea_614" data-name="Línea 614" x2="118.69" transform="translate(55.143 78.189)" fill="none" stroke="#53bced" stroke-miterlimit="10" stroke-width="0.5"/>
          <line id="Línea_615" data-name="Línea 615" x2="118.69" transform="translate(55.143 80.355)" fill="none" stroke="#53bced" stroke-miterlimit="10" stroke-width="0.5"/>
          <line id="Línea_616" data-name="Línea 616" x2="118.69" transform="translate(55.143 82.521)" fill="none" stroke="#53bced" stroke-miterlimit="10" stroke-width="0.5"/>
          <line id="Línea_617" data-name="Línea 617" x2="118.69" transform="translate(55.143 84.688)" fill="none" stroke="#53bced" stroke-miterlimit="10" stroke-width="0.5"/>
          <line id="Línea_618" data-name="Línea 618" x2="118.69" transform="translate(55.143 86.854)" fill="none" stroke="#53bced" stroke-miterlimit="10" stroke-width="0.5"/>
          <line id="Línea_619" data-name="Línea 619" x2="118.69" transform="translate(55.143 89.02)" fill="none" stroke="#53bced" stroke-miterlimit="10" stroke-width="0.5"/>
          <line id="Línea_620" data-name="Línea 620" x2="118.69" transform="translate(55.143 91.186)" fill="none" stroke="#53bced" stroke-miterlimit="10" stroke-width="0.5"/>
          <line id="Línea_621" data-name="Línea 621" x2="118.69" transform="translate(55.143 93.352)" fill="none" stroke="#53bced" stroke-miterlimit="10" stroke-width="0.5"/>
          <line id="Línea_622" data-name="Línea 622" x2="118.69" transform="translate(55.143 95.518)" fill="none" stroke="#53bced" stroke-miterlimit="10" stroke-width="0.5"/>
          <line id="Línea_623" data-name="Línea 623" x2="118.69" transform="translate(55.143 97.685)" fill="none" stroke="#53bced" stroke-miterlimit="10" stroke-width="0.5"/>
          <line id="Línea_624" data-name="Línea 624" x2="118.69" transform="translate(55.143 99.851)" fill="none" stroke="#53bced" stroke-miterlimit="10" stroke-width="0.5"/>
          <line id="Línea_625" data-name="Línea 625" x2="118.69" transform="translate(55.143 102.017)" fill="none" stroke="#53bced" stroke-miterlimit="10" stroke-width="0.5"/>
          <line id="Línea_626" data-name="Línea 626" x2="118.69" transform="translate(55.143 104.183)" fill="none" stroke="#53bced" stroke-miterlimit="10" stroke-width="0.5"/>
          <line id="Línea_627" data-name="Línea 627" x2="118.69" transform="translate(55.143 106.349)" fill="none" stroke="#53bced" stroke-miterlimit="10" stroke-width="0.5"/>
          <line id="Línea_628" data-name="Línea 628" x2="118.69" transform="translate(55.143 108.515)" fill="none" stroke="#53bced" stroke-miterlimit="10" stroke-width="0.5"/>
          <line id="Línea_629" data-name="Línea 629" x2="118.69" transform="translate(55.143 110.681)" fill="none" stroke="#53bced" stroke-miterlimit="10" stroke-width="0.5"/>
          <line id="Línea_630" data-name="Línea 630" x2="118.69" transform="translate(55.143 112.848)" fill="none" stroke="#53bced" stroke-miterlimit="10" stroke-width="0.5"/>
          <line id="Línea_631" data-name="Línea 631" x2="118.69" transform="translate(55.143 115.014)" fill="none" stroke="#53bced" stroke-miterlimit="10" stroke-width="0.5"/>
          <line id="Línea_632" data-name="Línea 632" x2="118.69" transform="translate(55.143 117.18)" fill="none" stroke="#53bced" stroke-miterlimit="10" stroke-width="0.5"/>
          <line id="Línea_633" data-name="Línea 633" x2="118.69" transform="translate(55.143 119.346)" fill="none" stroke="#53bced" stroke-miterlimit="10" stroke-width="0.5"/>
          <line id="Línea_634" data-name="Línea 634" x2="118.69" transform="translate(55.143 121.512)" fill="none" stroke="#53bced" stroke-miterlimit="10" stroke-width="0.5"/>
          <line id="Línea_635" data-name="Línea 635" x2="118.69" transform="translate(55.143 123.678)" fill="none" stroke="#53bced" stroke-miterlimit="10" stroke-width="0.5"/>
          <line id="Línea_636" data-name="Línea 636" x2="118.69" transform="translate(55.143 125.845)" fill="none" stroke="#53bced" stroke-miterlimit="10" stroke-width="0.5"/>
          <line id="Línea_637" data-name="Línea 637" x2="118.69" transform="translate(55.143 128.011)" fill="none" stroke="#53bced" stroke-miterlimit="10" stroke-width="0.5"/>
          <line id="Línea_638" data-name="Línea 638" x2="118.69" transform="translate(55.143 130.177)" fill="none" stroke="#53bced" stroke-miterlimit="10" stroke-width="0.5"/>
          <line id="Línea_639" data-name="Línea 639" x2="118.69" transform="translate(55.143 132.343)" fill="none" stroke="#53bced" stroke-miterlimit="10" stroke-width="0.5"/>
          <line id="Línea_640" data-name="Línea 640" x2="118.69" transform="translate(55.143 134.509)" fill="none" stroke="#53bced" stroke-miterlimit="10" stroke-width="0.5"/>
          <line id="Línea_641" data-name="Línea 641" x2="118.69" transform="translate(55.143 136.675)" fill="none" stroke="#53bced" stroke-miterlimit="10" stroke-width="0.5"/>
          <line id="Línea_642" data-name="Línea 642" x2="118.69" transform="translate(55.143 138.842)" fill="none" stroke="#53bced" stroke-miterlimit="10" stroke-width="0.5"/>
          <line id="Línea_643" data-name="Línea 643" x2="118.69" transform="translate(55.143 141.008)" fill="none" stroke="#53bced" stroke-miterlimit="10" stroke-width="0.5"/>
          <line id="Línea_644" data-name="Línea 644" x2="118.69" transform="translate(55.143 143.174)" fill="none" stroke="#53bced" stroke-miterlimit="10" stroke-width="0.5"/>
          <line id="Línea_645" data-name="Línea 645" x2="118.69" transform="translate(55.143 145.34)" fill="none" stroke="#53bced" stroke-miterlimit="10" stroke-width="0.5"/>
          <line id="Línea_646" data-name="Línea 646" x2="118.69" transform="translate(55.143 147.506)" fill="none" stroke="#53bced" stroke-miterlimit="10" stroke-width="0.5"/>
          <g id="Grupo_1099594" data-name="Grupo 1099594">
            <g id="Grupo_1099593" data-name="Grupo 1099593" clip-path="url(#clip-path)">
              <g id="Grupo_1099592" data-name="Grupo 1099592" transform="translate(55.143 8.842)" opacity="0.1">
                <g id="Grupo_1099591" data-name="Grupo 1099591">
                  <g id="Grupo_1099590" data-name="Grupo 1099590" clip-path="url(#clip-path-4)">
                    <path id="Trazado_873739" data-name="Trazado 873739" d="M101.585,16.288h118.69V32.324L101.585,49.066Z" transform="translate(-101.585 -16.287)" fill="#636363"/>
                  </g>
                </g>
              </g>
            </g>
          </g>
          <rect id="Rectángulo_401221" data-name="Rectángulo 401221" width="6.263" height="141.128" transform="translate(173.833 8.842)" fill="#dbdbdb"/>
          <rect id="Rectángulo_401222" data-name="Rectángulo 401222" width="6.263" height="141.128" transform="translate(48.88 8.842)" fill="#dbdbdb"/>
          <rect id="Rectángulo_401223" data-name="Rectángulo 401223" width="6.379" height="110.571" transform="translate(121.633 53.744)" fill="#37474f"/>
          <rect id="Rectángulo_401224" data-name="Rectángulo 401224" width="0.822" height="102.199" transform="translate(124.411 57.93)" fill="#263238"/>
          <path id="Trazado_873740" data-name="Trazado 873740" d="M213.173,123l5.916,1.678V99.007l-5.916,1.678Z" transform="translate(-97.456 -45.263)" fill="#263238"/>
          <path id="Trazado_873741" data-name="Trazado 873741" d="M239.167,144.415l-3.344,2.517v59.231l3.344,2.517Z" transform="translate(-107.811 -66.022)" fill="#263238"/>
          <path id="Trazado_873742" data-name="Trazado 873742" d="M299.772,258.491H241.983v2.341l57.789-1.6Z" transform="translate(-110.627 -118.174)" fill="#263238"/>
          <path id="Trazado_873743" data-name="Trazado 873743" d="M56.037,250.3H0v29.949H115.637V258.764l-9.208-8.464Z" transform="translate(0 -114.429)" fill="#ff725d"/>
          <g id="Grupo_1099605" data-name="Grupo 1099605">
            <g id="Grupo_1099604" data-name="Grupo 1099604" clip-path="url(#clip-path)">
              <g id="Grupo_1099597" data-name="Grupo 1099597" transform="translate(5.257 138.67)" opacity="0.2">
                <g id="Grupo_1099596" data-name="Grupo 1099596">
                  <g id="Grupo_1099595" data-name="Grupo 1099595" clip-path="url(#clip-path-6)">
                    <path id="Trazado_873744" data-name="Trazado 873744" d="M44.694,282.6H11.786a18.559,18.559,0,1,1,32.908,0" transform="translate(-9.684 -255.457)"/>
                  </g>
                </g>
              </g>
              <g id="Grupo_1099600" data-name="Grupo 1099600" transform="translate(92.802 138.758)" opacity="0.2">
                <g id="Grupo_1099599" data-name="Grupo 1099599">
                  <g id="Grupo_1099598" data-name="Grupo 1099598" clip-path="url(#clip-path-7)">
                    <path id="Trazado_873745" data-name="Trazado 873745" d="M193.795,261.2V282.68H173.066a18.563,18.563,0,0,1,14.276-27.018c.13-.017.256-.029.386-.042Z" transform="translate(-170.96 -255.62)"/>
                  </g>
                </g>
              </g>
              <g id="Grupo_1099603" data-name="Grupo 1099603" transform="translate(56.038 135.87)" opacity="0.2">
                <g id="Grupo_1099602" data-name="Grupo 1099602">
                  <g id="Grupo_1099601" data-name="Grupo 1099601" clip-path="url(#clip-path-8)">
                    <path id="Trazado_873746" data-name="Trazado 873746" d="M136,271.676H111.115l-7.882-7.106V250.3H136Z" transform="translate(-103.232 -250.299)"/>
                  </g>
                </g>
              </g>
            </g>
          </g>
          <path id="Trazado_873747" data-name="Trazado 873747" d="M196.064,250.3h15.2v3.674l-6,4.789Z" transform="translate(-89.634 -114.429)" fill="#37474f"/>
          <g id="Grupo_1099658" data-name="Grupo 1099658">
            <g id="Grupo_1099657" data-name="Grupo 1099657" clip-path="url(#clip-path)">
              <g id="Grupo_1099608" data-name="Grupo 1099608" transform="translate(41.352 135.87)" opacity="0.2">
                <g id="Grupo_1099607" data-name="Grupo 1099607">
                  <g id="Grupo_1099606" data-name="Grupo 1099606" clip-path="url(#clip-path-10)">
                    <path id="Trazado_873748" data-name="Trazado 873748" d="M81.954,250.3H76.178l7.747,29.943H89.7Z" transform="translate(-76.178 -250.299)" fill="#fff"/>
                    <path id="Trazado_873749" data-name="Trazado 873749" d="M92.787,250.3H91.161l7.747,29.943h1.626Z" transform="translate(-83.028 -250.299)" fill="#fff"/>
                  </g>
                </g>
              </g>
              <path id="Trazado_873750" data-name="Trazado 873750" d="M207.425,273.088l-.238-.028.268,2.259.224-.082c-.015-.358-.047-.721-.09-1.082s-.1-.715-.164-1.067m-.341-.518.213-.119a16.113,16.113,0,0,0-.626-2.074l-.243.015Zm.255,5.519.24-.039a15.518,15.518,0,0,0,.122-2.162l-.232-.067Zm-.907-8.319a15.748,15.748,0,0,0-.972-1.931l-.238.056,1.022,2.03Zm.316,11.029.242,0a15.613,15.613,0,0,0,.5-2.108l-.219-.107Zm-3.15-15.153,1.361,1.823.156-.186a15.141,15.141,0,0,0-1.3-1.732Zm2.1,17.719.236.042a16.02,16.02,0,0,0,.858-1.987l-.195-.144Zm-4.087-19.648,1.658,1.557.122-.206a15.92,15.92,0,0,0-1.576-1.486Zm2.6,21.992.226.081a16.214,16.214,0,0,0,1.187-1.809l-.164-.173Zm-4.894-23.551,1.9,1.245.085-.226a15.991,15.991,0,0,0-1.813-1.186Zm3.027,25.6.206.119a16.34,16.34,0,0,0,1.483-1.576l-.132-.2Zm-5.561-26.737,2.089.9.046-.239a16.013,16.013,0,0,0-1.991-.854Zm3.362,28.429.186.156a15.917,15.917,0,0,0,1.733-1.294l-.1-.219Zm-6.05-29.106,2.213.521,0-.245a15.686,15.686,0,0,0-2.108-.495Zm3.595,30.4.154.184a15.573,15.573,0,0,0,1.935-.973l-.059-.234Zm-6.292-30.827-.067.228,2.267.13-.038-.236a15.439,15.439,0,0,0-2.162-.122m3.769,31.872a15.4,15.4,0,0,0,2.074-.623l-.018-.239-2.175.655Zm-5.5-31.762c-.362.043-.719.1-1.07.165l-.028.237,2.259-.267-.082-.224c-.358.014-.718.046-1.079.089m2.709,32.148c.358-.015.721-.047,1.082-.09s.722-.1,1.074-.166l.024-.233-2.259.267Zm-6.49-31.23.014.239,2.178-.656-.119-.206a15.482,15.482,0,0,0-2.074.622m3.681,31.129a15.527,15.527,0,0,0,2.162.122l.067-.228-2.271-.13Zm-6.219-29.913.055.234,2.031-1.022-.155-.188a15.808,15.808,0,0,0-1.931.976m3.468,29.324a15.056,15.056,0,0,0,2.108.5l.1-.214-2.213-.521ZM181.054,263.8l.1.219,1.822-1.361-.182-.157a15.755,15.755,0,0,0-1.736,1.3m3.149,26.624a15.7,15.7,0,0,0,1.991.857l.141-.194-2.089-.9Zm-5.115-24.614.131.2,1.558-1.654-.206-.119a15.372,15.372,0,0,0-1.483,1.576m2.734,23.118a15.625,15.625,0,0,0,1.813,1.189l.169-.163-1.9-1.249Zm-4.324-20.8.163.173,1.245-1.9-.223-.082a15.886,15.886,0,0,0-1.186,1.809m2.236,18.91a15.585,15.585,0,0,0,1.58,1.486l.194-.131-1.655-1.557Zm-3.4-16.348.194.141.9-2.09-.236-.042a15.709,15.709,0,0,0-.857,1.991m1.674,14.129a15.975,15.975,0,0,0,1.3,1.737l.219-.1-1.361-1.822Zm-2.372-11.4.215.1.521-2.213h-.241a15.606,15.606,0,0,0-.495,2.108m1.055,8.919a15.734,15.734,0,0,0,.976,1.935l.231-.059-1.022-2.03Zm-.914-8.318-.233.041a16.031,16.031,0,0,0-.125,2.162l.228.067Zm.255,5.522-.2.115a15.442,15.442,0,0,0,.623,2.077l.235-.017Zm-.367-2.75-.221.079c.015.358.047.717.09,1.079s.1.722.166,1.077l.233.025Z" transform="translate(-80.195 -118.824)" fill="#263238"/>
              <path id="Trazado_873751" data-name="Trazado 873751" d="M207.456,275.321l.224-.082c.012.219.02.434.021.651l-.231-.067-.13,2.268.24-.039c-.023.216-.058.429-.092.643l-.218-.107-.521,2.213.241,0c-.063.207-.129.414-.2.618l-.2-.144-.9,2.089.236.042c-.1.193-.2.386-.309.574l-.163-.173-1.249,1.9.226.081c-.13.173-.267.346-.4.512l-.132-.2-1.557,1.657.206.119c-.157.148-.321.293-.486.435l-.1-.219-1.823,1.358.186.156c-.182.119-.367.236-.553.345l-.059-.234-2.03,1.023.155.184c-.2.086-.4.166-.6.239l-.017-.239-2.175.655.119.206c-.211.049-.422.092-.634.131l.025-.233-2.259.267.078.221c-.215.011-.43.02-.647.021l.067-.228-2.271-.13.042.236c-.216-.023-.429-.054-.643-.092l.1-.214-2.213-.521v.237c-.207-.063-.414-.129-.618-.2l.141-.194-2.089-.9-.042.232c-.193-.1-.379-.2-.567-.307l.169-.163-1.9-1.249-.082.223q-.259-.195-.508-.4l.194-.131-1.655-1.557-.119.2q-.221-.235-.434-.483l.219-.1-1.361-1.822-.153.182c-.119-.182-.232-.364-.341-.55l.23-.059-1.022-2.03-.184.154c-.083-.2-.166-.4-.239-.6l.236-.017-.655-2.175-.2.115c-.049-.207-.091-.419-.13-.631l.233.025-.268-2.259-.221.079c-.015-.215-.02-.431-.024-.647l.228.067.129-2.271-.232.041c.023-.215.054-.429.091-.643l.215.1.521-2.213h-.241c.063-.206.133-.414.2-.618l.195.141.9-2.09-.235-.042q.149-.29.309-.571l.164.173,1.245-1.9-.223-.082c.13-.173.263-.345.4-.512l.131.2,1.557-1.654-.206-.119c.157-.151.318-.293.483-.434l.1.219,1.823-1.361-.183-.157c.182-.119.368-.232.554-.341l.055.234,2.03-1.022-.155-.188c.2-.086.4-.166.607-.239l.015.239,2.178-.656-.118-.206c.211-.049.422-.1.637-.131l-.028.237,2.259-.267-.083-.224c.218-.016.434-.02.65-.021l-.067.228,2.268.13-.039-.236c.215.023.429.054.643.091l-.106.219,2.212.521,0-.245c.206.063.414.133.618.206l-.145.2,2.09.9.045-.239q.29.149.571.309l-.173.167,1.9,1.245.085-.226c.173.133.343.267.512.4l-.2.136,1.658,1.557.122-.206c.148.157.293.318.431.483l-.219.1,1.361,1.823.156-.186c.119.181.235.367.345.556l-.238.056,1.023,2.03.188-.155c.086.2.166.4.239.607l-.243.015.656,2.178.213-.119c.046.211.092.422.128.638l-.237-.028Z" transform="translate(-80.196 -118.825)" fill="#263238"/>
              <path id="Trazado_873752" data-name="Trazado 873752" d="M201.9,259.59l-2.259.267.028-.237.081-.736,1.818-.215.25.7Z" transform="translate(-91.269 -118.255)" fill="#263238"/>
              <path id="Trazado_873753" data-name="Trazado 873753" d="M196.847,260.329l-2.178.656-.014-.239-.048-.734,1.757-.529.365.641Z" transform="translate(-88.968 -118.627)" fill="#263238"/>
              <path id="Trazado_873754" data-name="Trazado 873754" d="M191.957,261.961l-2.03,1.022-.055-.234-.176-.717,1.638-.826.469.566Z" transform="translate(-86.723 -119.416)" fill="#263238"/>
              <path id="Trazado_873755" data-name="Trazado 873755" d="M187.471,264.433l-1.822,1.361-.1-.219-.3-.677,1.469-1.1.563.475Z" transform="translate(-84.693 -120.602)" fill="#263238"/>
              <path id="Trazado_873756" data-name="Trazado 873756" d="M183.524,267.671l-1.557,1.655-.131-.2-.411-.615,1.256-1.336.638.375Z" transform="translate(-82.941 -122.145)" fill="#263238"/>
              <path id="Trazado_873757" data-name="Trazado 873757" d="M180.228,271.58l-1.245,1.9-.164-.173-.514-.533,1.006-1.534.694.257Z" transform="translate(-81.516 -124.003)" fill="#263238"/>
              <path id="Trazado_873758" data-name="Trazado 873758" d="M177.7,276.031l-.9,2.09-.194-.141-.593-.436.723-1.685.727.131Z" transform="translate(-80.466 -126.114)" fill="#263238"/>
              <path id="Trazado_873759" data-name="Trazado 873759" d="M175.994,280.9l-.521,2.213-.215-.1-.663-.327.421-1.785.737,0Z" transform="translate(-79.819 -128.417)" fill="#263238"/>
              <path id="Trazado_873760" data-name="Trazado 873760" d="M175.179,285.9l-.13,2.271-.228-.067-.708-.206.1-1.832.729-.125Z" transform="translate(-79.599 -130.703)" fill="#263238"/>
              <path id="Trazado_873761" data-name="Trazado 873761" d="M175.094,291l.267,2.259-.233-.025-.739-.084-.216-1.818.7-.254Z" transform="translate(-79.627 -133.037)" fill="#263238"/>
              <path id="Trazado_873762" data-name="Trazado 873762" d="M176.488,298.243l-.236.017-.738.049-.529-1.757.644-.37.2-.115Z" transform="translate(-79.998 -135.353)" fill="#263238"/>
              <path id="Trazado_873763" data-name="Trazado 873763" d="M178.488,302.965l-.231.059-.719.176-.826-1.638.569-.472.185-.155Z" transform="translate(-80.787 -137.578)" fill="#263238"/>
              <path id="Trazado_873764" data-name="Trazado 873764" d="M181.3,307.283l-.219.1-.677.3-1.1-1.47.478-.566.153-.182Z" transform="translate(-81.973 -139.647)" fill="#263238"/>
              <path id="Trazado_873765" data-name="Trazado 873765" d="M184.83,311.067l-.194.131-.618.411-1.336-1.256.375-.642.119-.2Z" transform="translate(-83.516 -141.498)" fill="#263238"/>
              <path id="Trazado_873766" data-name="Trazado 873766" d="M188.985,314.2l-.169.163-.537.511-1.532-1,.256-.7.082-.223Z" transform="translate(-85.375 -143.07)" fill="#263238"/>
              <path id="Trazado_873767" data-name="Trazado 873767" d="M193.625,316.582l-.141.195-.436.6-1.685-.726.13-.728.042-.232Z" transform="translate(-87.485 -144.323)" fill="#263238"/>
              <path id="Trazado_873768" data-name="Trazado 873768" d="M198.617,318.151l-.1.215-.327.66-1.785-.417,0-.74v-.238Z" transform="translate(-89.789 -145.211)" fill="#263238"/>
              <path id="Trazado_873769" data-name="Trazado 873769" d="M203.67,318.849l-.067.228-.206.712-1.832-.1-.125-.729-.042-.236Z" transform="translate(-92.073 -145.709)" fill="#263238"/>
              <path id="Trazado_873770" data-name="Trazado 873770" d="M208.765,318.44l-.025.233-.084.74-1.818.215-.254-.7-.079-.222Z" transform="translate(-94.408 -145.581)" fill="#263238"/>
              <path id="Trazado_873771" data-name="Trazado 873771" d="M213.747,317.043l.018.239.049.738-1.757.529-.366-.644-.118-.206Z" transform="translate(-96.724 -144.942)" fill="#263238"/>
              <path id="Trazado_873772" data-name="Trazado 873772" d="M218.7,315.77l-1.638.822-.472-.566-.155-.185,2.03-1.022.059.234Z" transform="translate(-98.949 -143.926)" fill="#263238"/>
              <path id="Trazado_873773" data-name="Trazado 873773" d="M223.182,312.72l-1.469,1.1-.563-.478-.186-.156,1.823-1.357.1.219Z" transform="translate(-101.018 -142.558)" fill="#263238"/>
              <path id="Trazado_873774" data-name="Trazado 873774" d="M227.115,308.973l-1.257,1.332-.638-.371-.206-.119,1.557-1.658.132.2Z" transform="translate(-102.87 -140.88)" fill="#263238"/>
              <path id="Trazado_873775" data-name="Trazado 873775" d="M230.375,304.638l-1,1.533-.694-.257-.226-.081,1.249-1.9.164.173Z" transform="translate(-104.441 -138.948)" fill="#263238"/>
              <path id="Trazado_873776" data-name="Trazado 873776" d="M232.877,299.846l-.726,1.685-.725-.134-.235-.042.9-2.09.2.144Z" transform="translate(-105.694 -136.815)" fill="#263238"/>
              <path id="Trazado_873777" data-name="Trazado 873777" d="M234.53,294.747l-.417,1.785-.737,0-.242,0,.521-2.213.219.107Z" transform="translate(-106.582 -134.551)" fill="#263238"/>
              <path id="Trazado_873778" data-name="Trazado 873778" d="M235.293,289.492l-.1,1.832-.726.124-.239.039.13-2.268.231.067Z" transform="translate(-107.08 -132.222)" fill="#263238"/>
              <path id="Trazado_873779" data-name="Trazado 873779" d="M234.917,284.243l.215,1.818-.7.25-.225.083-.267-2.259.237.028Z" transform="translate(-106.952 -129.897)" fill="#263238"/>
              <path id="Trazado_873780" data-name="Trazado 873780" d="M234.052,280.858l-.638.365-.213.119-.656-2.178.243-.015.734-.048Z" transform="translate(-106.313 -127.597)" fill="#263238"/>
              <path id="Trazado_873781" data-name="Trazado 873781" d="M232.1,275.83l-.563.468-.188.155-1.022-2.03.238-.056.713-.175Z" transform="translate(-105.297 -125.352)" fill="#263238"/>
              <path id="Trazado_873782" data-name="Trazado 873782" d="M229.323,271.222l-.475.559-.156.186-1.361-1.823.219-.1.674-.3Z" transform="translate(-103.929 -123.323)" fill="#263238"/>
              <path id="Trazado_873783" data-name="Trazado 873783" d="M225.81,267.176l-.368.637-.122.206-1.658-1.557.2-.136.612-.408Z" transform="translate(-102.251 -121.57)" fill="#263238"/>
              <path id="Trazado_873784" data-name="Trazado 873784" d="M221.676,263.808l-.253.69-.085.226-1.9-1.245.172-.167.534-.51Z" transform="translate(-100.32 -120.145)" fill="#263238"/>
              <path id="Trazado_873785" data-name="Trazado 873785" d="M217.035,261.228l-.131.724-.045.239-2.09-.9.145-.195.436-.593Z" transform="translate(-98.186 -119.095)" fill="#263238"/>
              <path id="Trazado_873786" data-name="Trazado 873786" d="M212.036,259.511l0,.734,0,.244-2.213-.52.107-.219.327-.661Z" transform="translate(-95.922 -118.448)" fill="#263238"/>
              <path id="Trazado_873787" data-name="Trazado 873787" d="M206.99,259.675l-2.268-.13.068-.228.206-.709,1.832.1.124.725Z" transform="translate(-93.593 -118.228)" fill="#263238"/>
              <path id="Trazado_873788" data-name="Trazado 873788" d="M207.118,277.139a13.034,13.034,0,1,1-14.475-11.413,13.034,13.034,0,0,1,14.475,11.413" transform="translate(-82.811 -121.44)" fill="#37474f"/>
              <path id="Trazado_873789" data-name="Trazado 873789" d="M206.417,281.6a8.389,8.389,0,1,1-9.317-7.346,8.389,8.389,0,0,1,9.317,7.346" transform="translate(-86.723 -125.352)" fill="#455a64"/>
              <path id="Trazado_873790" data-name="Trazado 873790" d="M205.712,286.084a3.713,3.713,0,1,1-4.124-3.252,3.713,3.713,0,0,1,4.124,3.252" transform="translate(-90.662 -129.29)" fill="#263238"/>
              <path id="Trazado_873791" data-name="Trazado 873791" d="M201.646,290.378a4.838,4.838,0,1,1,4.236-5.372,4.844,4.844,0,0,1-4.236,5.372M200.56,281.2a4.4,4.4,0,1,0,4.891,3.857,4.409,4.409,0,0,0-4.891-3.857" transform="translate(-89.715 -128.344)" fill="#263238"/>
              <path id="Trazado_873792" data-name="Trazado 873792" d="M203.843,276.824a.787.787,0,1,1-.875-.689.787.787,0,0,1,.875.689" transform="translate(-92.473 -126.238)" fill="#263238"/>
              <path id="Trazado_873793" data-name="Trazado 873793" d="M197.849,278.776a.788.788,0,1,1-1.1-.16.788.788,0,0,1,1.1.16" transform="translate(-89.802 -127.303)" fill="#263238"/>
              <path id="Trazado_873794" data-name="Trazado 873794" d="M193.634,283.463a.787.787,0,1,1-1.034.413.787.787,0,0,1,1.034-.413" transform="translate(-88.021 -129.561)" fill="#263238"/>
              <path id="Trazado_873795" data-name="Trazado 873795" d="M192.328,289.63a.787.787,0,1,1-.689.875.787.787,0,0,1,.689-.875" transform="translate(-87.609 -132.408)" fill="#263238"/>
              <path id="Trazado_873796" data-name="Trazado 873796" d="M194.279,295.624a.787.787,0,1,1-.16,1.1.788.788,0,0,1,.16-1.1" transform="translate(-88.674 -135.079)" fill="#263238"/>
              <path id="Trazado_873797" data-name="Trazado 873797" d="M198.967,299.84a.787.787,0,1,1,.413,1.034.787.787,0,0,1-.413-1.034" transform="translate(-90.932 -136.86)" fill="#263238"/>
              <path id="Trazado_873798" data-name="Trazado 873798" d="M205.134,301.146a.787.787,0,1,1,.875.689.788.788,0,0,1-.875-.689" transform="translate(-93.779 -137.272)" fill="#263238"/>
              <path id="Trazado_873799" data-name="Trazado 873799" d="M211.128,299.194a.787.787,0,1,1,1.1.16.788.788,0,0,1-1.1-.16" transform="translate(-96.45 -136.207)" fill="#263238"/>
              <path id="Trazado_873800" data-name="Trazado 873800" d="M215.344,294.507a.787.787,0,1,1,1.034-.413.787.787,0,0,1-1.034.413" transform="translate(-98.231 -133.949)" fill="#263238"/>
              <path id="Trazado_873801" data-name="Trazado 873801" d="M216.65,288.339a.787.787,0,1,1,.689-.875.788.788,0,0,1-.689.875" transform="translate(-98.643 -131.102)" fill="#263238"/>
              <path id="Trazado_873802" data-name="Trazado 873802" d="M214.7,282.345a.788.788,0,1,1,.16-1.1.787.787,0,0,1-.16,1.1" transform="translate(-97.578 -128.431)" fill="#263238"/>
              <path id="Trazado_873803" data-name="Trazado 873803" d="M210.011,278.13a.787.787,0,1,1-.413-1.034.787.787,0,0,1,.413,1.034" transform="translate(-95.32 -126.65)" fill="#263238"/>
              <path id="Trazado_873804" data-name="Trazado 873804" d="M46.144,273.088l-.237-.028.267,2.259.224-.082c-.015-.358-.047-.721-.09-1.082s-.1-.715-.164-1.067m-.341-.518.213-.119a16.115,16.115,0,0,0-.626-2.074l-.243.015Zm.255,5.519.24-.039a15.519,15.519,0,0,0,.122-2.162l-.232-.067Zm-.907-8.319a15.75,15.75,0,0,0-.972-1.931l-.238.056,1.022,2.03Zm.316,11.029.242,0a15.612,15.612,0,0,0,.5-2.108l-.219-.107Zm-3.15-15.153,1.361,1.823.156-.186a15.083,15.083,0,0,0-1.3-1.732Zm2.1,17.719.236.042a16.02,16.02,0,0,0,.858-1.987l-.195-.144Zm-4.087-19.648,1.658,1.557.122-.206a15.859,15.859,0,0,0-1.576-1.486Zm2.6,21.992.226.081a16.286,16.286,0,0,0,1.186-1.809l-.164-.173Zm-4.894-23.551,1.9,1.245.085-.226A15.991,15.991,0,0,0,38.2,261.99Zm3.027,25.6.206.119a16.34,16.34,0,0,0,1.483-1.576l-.132-.2ZM35.5,261.022l2.09.9.045-.239a16.014,16.014,0,0,0-1.991-.854Zm3.362,28.429.186.156a15.918,15.918,0,0,0,1.733-1.294l-.1-.219Zm-6.05-29.106,2.213.521,0-.245a15.688,15.688,0,0,0-2.108-.495Zm3.595,30.4.154.184a15.573,15.573,0,0,0,1.935-.973l-.059-.234Zm-6.292-30.827-.067.228,2.267.13-.038-.236a15.439,15.439,0,0,0-2.162-.122m3.769,31.872a15.4,15.4,0,0,0,2.074-.623l-.018-.239-2.175.655Zm-5.5-31.762c-.362.043-.719.1-1.07.165l-.028.237,2.259-.267-.082-.224c-.358.014-.718.046-1.079.089m2.709,32.148c.358-.015.721-.047,1.082-.09s.722-.1,1.074-.166l.024-.233-2.259.267Zm-6.49-31.23.014.239,2.178-.656-.119-.206a15.483,15.483,0,0,0-2.074.622m3.681,31.129a15.527,15.527,0,0,0,2.162.122l.067-.228-2.271-.13Zm-6.219-29.913.055.234,2.031-1.022-.155-.188a15.808,15.808,0,0,0-1.931.976m3.468,29.324a15.056,15.056,0,0,0,2.108.5l.1-.214-2.213-.521ZM19.773,263.8l.1.219,1.822-1.361-.182-.157a15.756,15.756,0,0,0-1.736,1.3m3.149,26.624a15.7,15.7,0,0,0,1.991.857l.141-.194-2.089-.9Zm-5.115-24.614.131.2,1.558-1.654-.206-.119a15.432,15.432,0,0,0-1.483,1.576m2.734,23.118a15.625,15.625,0,0,0,1.813,1.189l.169-.163-1.9-1.249Zm-4.324-20.8.163.173,1.246-1.9-.223-.082a15.886,15.886,0,0,0-1.186,1.809m2.236,18.91a15.586,15.586,0,0,0,1.58,1.486l.194-.131-1.655-1.557Zm-3.4-16.348.194.141.9-2.09-.236-.042a15.709,15.709,0,0,0-.857,1.991m1.674,14.129a15.976,15.976,0,0,0,1.3,1.737l.219-.1-1.361-1.822Zm-2.372-11.4.215.1.521-2.213h-.241a15.6,15.6,0,0,0-.495,2.108m1.055,8.919a15.735,15.735,0,0,0,.976,1.935l.231-.059-1.022-2.03Zm-.914-8.318-.233.041a16.033,16.033,0,0,0-.125,2.162l.228.067Zm.255,5.522-.2.115a15.443,15.443,0,0,0,.623,2.077l.235-.017Zm-.367-2.75-.221.079c.015.358.047.717.09,1.079s.1.722.166,1.077l.233.025Z" transform="translate(-6.463 -118.824)" fill="#263238"/>
              <path id="Trazado_873805" data-name="Trazado 873805" d="M46.175,275.321l.224-.082c.012.219.02.434.021.651l-.232-.067-.13,2.268.24-.039c-.023.216-.058.429-.091.643l-.218-.107-.521,2.213.241,0c-.064.207-.129.414-.2.618l-.2-.144-.9,2.089.235.042c-.1.193-.2.386-.309.574l-.163-.173-1.249,1.9.226.081c-.13.173-.267.346-.4.512l-.131-.2L41.06,287.76l.205.119c-.156.148-.321.293-.486.435l-.095-.219-1.823,1.358.186.156c-.181.119-.366.236-.553.345l-.06-.234-2.03,1.023.155.184c-.2.086-.4.166-.6.239l-.017-.239-2.175.655.119.206c-.211.049-.422.092-.634.131l.024-.233-2.259.267.078.221c-.215.011-.431.02-.647.021l.067-.228-2.271-.13.042.236c-.216-.023-.429-.054-.643-.092l.1-.214-2.213-.521v.237c-.207-.063-.414-.129-.618-.2l.141-.194-2.089-.9-.042.232c-.193-.1-.38-.2-.567-.307l.169-.163-1.9-1.249-.082.223q-.259-.195-.508-.4l.194-.131-1.655-1.557-.119.2q-.221-.235-.434-.483l.219-.1-1.361-1.822-.153.182c-.119-.182-.232-.364-.341-.55l.23-.059-1.022-2.03-.184.154c-.083-.2-.166-.4-.239-.6l.236-.017-.655-2.175-.2.115c-.049-.207-.091-.419-.13-.631l.233.025-.268-2.259-.221.079c-.015-.215-.02-.431-.024-.647l.228.067.129-2.271-.232.041c.023-.215.054-.429.091-.643l.215.1.521-2.213h-.241c.063-.206.133-.414.2-.618l.195.141.9-2.09-.235-.042q.149-.29.309-.571l.164.173,1.245-1.9-.223-.082c.13-.173.263-.345.4-.512l.131.2,1.557-1.654-.206-.119c.157-.151.318-.293.483-.434l.1.219,1.823-1.361-.183-.157c.181-.119.367-.232.554-.341l.055.234,2.03-1.022-.155-.188c.2-.086.4-.166.607-.239l.015.239,2.178-.656-.118-.206c.211-.049.422-.1.637-.131l-.028.237,2.259-.267-.083-.224c.218-.016.434-.02.65-.021l-.067.228,2.268.13-.039-.236c.215.023.429.054.643.091l-.107.219,2.214.521,0-.245c.206.063.414.133.618.206l-.145.2,2.09.9.045-.239q.29.149.571.309l-.172.167,1.9,1.245.085-.226c.173.133.343.267.512.4l-.2.136,1.658,1.557.122-.206c.148.157.293.318.43.483l-.219.1,1.361,1.823.156-.186c.119.181.235.367.345.556l-.238.056,1.023,2.03.188-.155c.086.2.166.4.24.607l-.244.015.656,2.178.214-.119c.046.211.092.422.128.638l-.238-.028Z" transform="translate(-6.463 -118.825)" fill="#263238"/>
              <path id="Trazado_873806" data-name="Trazado 873806" d="M40.616,259.59l-2.259.267.028-.237.08-.736,1.818-.215.25.7Z" transform="translate(-17.536 -118.255)" fill="#263238"/>
              <path id="Trazado_873807" data-name="Trazado 873807" d="M35.566,260.329l-2.178.656-.014-.239-.048-.734,1.757-.529.365.641Z" transform="translate(-15.235 -118.627)" fill="#263238"/>
              <path id="Trazado_873808" data-name="Trazado 873808" d="M30.676,261.961l-2.03,1.022-.055-.234-.176-.717,1.638-.826.469.566Z" transform="translate(-12.99 -119.416)" fill="#263238"/>
              <path id="Trazado_873809" data-name="Trazado 873809" d="M26.19,264.433l-1.822,1.361-.1-.219-.3-.677,1.469-1.1.563.475Z" transform="translate(-10.961 -120.602)" fill="#263238"/>
              <path id="Trazado_873810" data-name="Trazado 873810" d="M22.243,267.671l-1.557,1.655-.131-.2-.411-.615,1.256-1.336.638.375Z" transform="translate(-9.208 -122.145)" fill="#263238"/>
              <path id="Trazado_873811" data-name="Trazado 873811" d="M18.947,271.58l-1.245,1.9-.164-.173-.514-.533,1.006-1.534.694.257Z" transform="translate(-7.783 -124.003)" fill="#263238"/>
              <path id="Trazado_873812" data-name="Trazado 873812" d="M16.414,276.031l-.9,2.09-.195-.141-.593-.436.723-1.685.727.131Z" transform="translate(-6.733 -126.114)" fill="#263238"/>
              <path id="Trazado_873813" data-name="Trazado 873813" d="M14.712,280.9l-.521,2.213-.215-.1-.663-.327.421-1.785.737,0Z" transform="translate(-6.087 -128.417)" fill="#263238"/>
              <path id="Trazado_873814" data-name="Trazado 873814" d="M13.9,285.9l-.13,2.271-.228-.067-.708-.206.1-1.832.729-.125Z" transform="translate(-5.866 -130.703)" fill="#263238"/>
              <path id="Trazado_873815" data-name="Trazado 873815" d="M13.813,291l.267,2.259-.233-.025-.739-.084-.216-1.818.7-.254Z" transform="translate(-5.894 -133.037)" fill="#263238"/>
              <path id="Trazado_873816" data-name="Trazado 873816" d="M15.207,298.243l-.236.017-.738.049-.529-1.757.644-.37.2-.115Z" transform="translate(-6.265 -135.353)" fill="#263238"/>
              <path id="Trazado_873817" data-name="Trazado 873817" d="M17.206,302.965l-.231.059-.719.176-.826-1.638.569-.472.185-.155Z" transform="translate(-7.054 -137.578)" fill="#263238"/>
              <path id="Trazado_873818" data-name="Trazado 873818" d="M20.017,307.283l-.219.1-.677.3-1.1-1.47.478-.566.153-.182Z" transform="translate(-8.241 -139.647)" fill="#263238"/>
              <path id="Trazado_873819" data-name="Trazado 873819" d="M23.548,311.067l-.194.131-.618.411L21.4,310.354l.375-.642.119-.2Z" transform="translate(-9.784 -141.498)" fill="#263238"/>
              <path id="Trazado_873820" data-name="Trazado 873820" d="M27.7,314.2l-.169.163-.537.511-1.532-1,.256-.7.082-.223Z" transform="translate(-11.642 -143.07)" fill="#263238"/>
              <path id="Trazado_873821" data-name="Trazado 873821" d="M32.343,316.582l-.141.195-.436.6-1.685-.726.13-.728.042-.232Z" transform="translate(-13.752 -144.323)" fill="#263238"/>
              <path id="Trazado_873822" data-name="Trazado 873822" d="M37.336,318.151l-.1.215-.327.66-1.785-.417,0-.74v-.238Z" transform="translate(-16.056 -145.211)" fill="#263238"/>
              <path id="Trazado_873823" data-name="Trazado 873823" d="M42.389,318.849l-.067.228-.206.712-1.832-.1-.125-.729-.042-.236Z" transform="translate(-18.341 -145.709)" fill="#263238"/>
              <path id="Trazado_873824" data-name="Trazado 873824" d="M47.484,318.44l-.025.233-.084.74-1.818.215-.254-.7-.079-.222Z" transform="translate(-20.675 -145.581)" fill="#263238"/>
              <path id="Trazado_873825" data-name="Trazado 873825" d="M52.465,317.043l.018.239.049.738-1.757.529-.366-.644-.119-.206Z" transform="translate(-22.991 -144.942)" fill="#263238"/>
              <path id="Trazado_873826" data-name="Trazado 873826" d="M57.422,315.77l-1.638.822-.472-.566-.155-.185,2.03-1.022.059.234Z" transform="translate(-25.216 -143.926)" fill="#263238"/>
              <path id="Trazado_873827" data-name="Trazado 873827" d="M61.9,312.72l-1.469,1.1-.563-.478-.186-.156,1.823-1.357.1.219Z" transform="translate(-27.285 -142.558)" fill="#263238"/>
              <path id="Trazado_873828" data-name="Trazado 873828" d="M65.834,308.973l-1.257,1.332-.637-.371-.206-.119,1.557-1.658.132.2Z" transform="translate(-29.137 -140.88)" fill="#263238"/>
              <path id="Trazado_873829" data-name="Trazado 873829" d="M69.094,304.638l-1,1.533-.694-.257-.226-.081,1.249-1.9.163.173Z" transform="translate(-30.709 -138.948)" fill="#263238"/>
              <path id="Trazado_873830" data-name="Trazado 873830" d="M71.6,299.846l-.726,1.685-.725-.134-.235-.042.9-2.09.2.144Z" transform="translate(-31.961 -136.815)" fill="#263238"/>
              <path id="Trazado_873831" data-name="Trazado 873831" d="M73.249,294.747l-.417,1.785-.737,0-.242,0,.521-2.213.219.107Z" transform="translate(-32.849 -134.551)" fill="#263238"/>
              <path id="Trazado_873832" data-name="Trazado 873832" d="M74.012,289.492l-.1,1.832-.726.124-.239.039.13-2.268.231.067Z" transform="translate(-33.347 -132.222)" fill="#263238"/>
              <path id="Trazado_873833" data-name="Trazado 873833" d="M73.636,284.243l.215,1.818-.7.25-.225.083-.267-2.259.237.028Z" transform="translate(-33.219 -129.897)" fill="#263238"/>
              <path id="Trazado_873834" data-name="Trazado 873834" d="M72.771,280.858l-.638.365-.213.119-.656-2.178.243-.015.734-.048Z" transform="translate(-32.58 -127.597)" fill="#263238"/>
              <path id="Trazado_873835" data-name="Trazado 873835" d="M70.815,275.83l-.563.468-.188.155-1.022-2.03.238-.056.713-.175Z" transform="translate(-31.564 -125.352)" fill="#263238"/>
              <path id="Trazado_873836" data-name="Trazado 873836" d="M68.042,271.222l-.475.559-.156.186-1.361-1.823.219-.1.674-.3Z" transform="translate(-30.196 -123.323)" fill="#263238"/>
              <path id="Trazado_873837" data-name="Trazado 873837" d="M64.529,267.176l-.368.637-.122.206-1.658-1.557.2-.136.612-.408Z" transform="translate(-28.519 -121.57)" fill="#263238"/>
              <path id="Trazado_873838" data-name="Trazado 873838" d="M60.395,263.808l-.254.69-.085.226-1.9-1.245.172-.167.534-.51Z" transform="translate(-26.587 -120.145)" fill="#263238"/>
              <path id="Trazado_873839" data-name="Trazado 873839" d="M55.754,261.228l-.131.724-.045.239-2.09-.9.145-.195.436-.593Z" transform="translate(-24.453 -119.095)" fill="#263238"/>
              <path id="Trazado_873840" data-name="Trazado 873840" d="M50.755,259.511l0,.734,0,.244-2.213-.52.107-.219.327-.661Z" transform="translate(-22.189 -118.448)" fill="#263238"/>
              <path id="Trazado_873841" data-name="Trazado 873841" d="M45.71,259.675l-2.267-.13.067-.228.206-.709,1.832.1.124.725Z" transform="translate(-19.86 -118.228)" fill="#263238"/>
              <path id="Trazado_873842" data-name="Trazado 873842" d="M45.836,277.139a13.034,13.034,0,1,1-14.475-11.413,13.034,13.034,0,0,1,14.475,11.413" transform="translate(-9.078 -121.44)" fill="#37474f"/>
              <path id="Trazado_873843" data-name="Trazado 873843" d="M45.136,281.6a8.389,8.389,0,1,1-9.317-7.346,8.389,8.389,0,0,1,9.317,7.346" transform="translate(-12.99 -125.352)" fill="#455a64"/>
              <path id="Trazado_873844" data-name="Trazado 873844" d="M44.431,286.084a3.713,3.713,0,1,1-4.124-3.252,3.713,3.713,0,0,1,4.124,3.252" transform="translate(-16.929 -129.29)" fill="#263238"/>
              <path id="Trazado_873845" data-name="Trazado 873845" d="M40.364,290.378a4.838,4.838,0,1,1,4.236-5.372,4.843,4.843,0,0,1-4.236,5.372M39.279,281.2a4.4,4.4,0,1,0,4.891,3.857,4.409,4.409,0,0,0-4.891-3.857" transform="translate(-15.982 -128.344)" fill="#263238"/>
              <path id="Trazado_873846" data-name="Trazado 873846" d="M42.562,276.824a.787.787,0,1,1-.875-.689.787.787,0,0,1,.875.689" transform="translate(-18.741 -126.238)" fill="#263238"/>
              <path id="Trazado_873847" data-name="Trazado 873847" d="M36.568,278.776a.788.788,0,1,1-1.1-.16.787.787,0,0,1,1.1.16" transform="translate(-16.069 -127.303)" fill="#263238"/>
              <path id="Trazado_873848" data-name="Trazado 873848" d="M32.353,283.463a.787.787,0,1,1-1.034.413.787.787,0,0,1,1.034-.413" transform="translate(-14.289 -129.561)" fill="#263238"/>
              <path id="Trazado_873849" data-name="Trazado 873849" d="M31.047,289.63a.787.787,0,1,1-.689.875.788.788,0,0,1,.689-.875" transform="translate(-13.876 -132.408)" fill="#263238"/>
              <path id="Trazado_873850" data-name="Trazado 873850" d="M33,295.624a.787.787,0,1,1-.16,1.1.788.788,0,0,1,.16-1.1" transform="translate(-14.941 -135.079)" fill="#263238"/>
              <path id="Trazado_873851" data-name="Trazado 873851" d="M37.686,299.84a.787.787,0,1,1,.413,1.034.787.787,0,0,1-.413-1.034" transform="translate(-17.2 -136.86)" fill="#263238"/>
              <path id="Trazado_873852" data-name="Trazado 873852" d="M43.853,301.146a.787.787,0,1,1,.875.689.788.788,0,0,1-.875-.689" transform="translate(-20.046 -137.272)" fill="#263238"/>
              <path id="Trazado_873853" data-name="Trazado 873853" d="M49.847,299.194a.787.787,0,1,1,1.1.16.787.787,0,0,1-1.1-.16" transform="translate(-22.717 -136.207)" fill="#263238"/>
              <path id="Trazado_873854" data-name="Trazado 873854" d="M54.063,294.507a.787.787,0,1,1,1.034-.413.787.787,0,0,1-1.034.413" transform="translate(-24.498 -133.949)" fill="#263238"/>
              <path id="Trazado_873855" data-name="Trazado 873855" d="M55.369,288.339a.787.787,0,1,1,.689-.875.788.788,0,0,1-.689.875" transform="translate(-24.911 -131.102)" fill="#263238"/>
              <path id="Trazado_873856" data-name="Trazado 873856" d="M53.417,282.345a.788.788,0,1,1,.16-1.1.787.787,0,0,1-.16,1.1" transform="translate(-23.845 -128.431)" fill="#263238"/>
              <path id="Trazado_873857" data-name="Trazado 873857" d="M48.729,278.13a.787.787,0,1,1-.413-1.034.787.787,0,0,1,.413,1.034" transform="translate(-21.587 -126.65)" fill="#263238"/>
              <path id="Trazado_873858" data-name="Trazado 873858" d="M47.033,272.805h-2.1a17.938,17.938,0,0,0-35.876,0h-2.1a20.035,20.035,0,0,1,40.071,0" transform="translate(-3.183 -115.559)" fill="#ff725d"/>
              <g id="Grupo_1099611" data-name="Grupo 1099611" transform="translate(1.767 133.182)" opacity="0.2">
                <g id="Grupo_1099610" data-name="Grupo 1099610" transform="translate(2 4)">
                  <g id="Grupo_1099609" data-name="Grupo 1099609" clip-path="url(#clip-path-11)">
                    <path id="Trazado_873859" data-name="Trazado 873859" d="M47.033,272.805h-2.1a17.938,17.938,0,0,0-35.876,0h-2.1a20.035,20.035,0,0,1,40.071,0" transform="translate(-6.962 -252.77)" fill="#fff"/>
                  </g>
                </g>
              </g>
              <path id="Trazado_873860" data-name="Trazado 873860" d="M170.342,272.805h-2.1a20.058,20.058,0,0,1,20.035-20.035v2.1a17.958,17.958,0,0,0-17.938,17.937" transform="translate(-76.916 -115.559)" fill="#ff725d"/>
              <g id="Grupo_1099614" data-name="Grupo 1099614" transform="translate(91.328 136.99)" opacity="0.2">
                <g id="Grupo_1099613" data-name="Grupo 1099613">
                  <g id="Grupo_1099612" data-name="Grupo 1099612" clip-path="url(#clip-path-12)">
                    <path id="Trazado_873861" data-name="Trazado 873861" d="M170.342,272.805h-2.1a20.058,20.058,0,0,1,20.035-20.035v2.1a17.958,17.958,0,0,0-17.938,17.937" transform="translate(-168.244 -252.77)" fill="#fff"/>
                  </g>
                </g>
              </g>
              <path id="Trazado_873862" data-name="Trazado 873862" d="M28.739,239.933H2.558L0,245.56h28.74Z" transform="translate(0 -109.69)" fill="#ff725d"/>
              <g id="Grupo_1099617" data-name="Grupo 1099617" transform="translate(0 128.243)" opacity="0.1">
                <g id="Grupo_1099616" data-name="Grupo 1099616" transform="translate(0 2)">
                  <g id="Grupo_1099615" data-name="Grupo 1099615" clip-path="url(#clip-path-13)">
                    <path id="Trazado_873863" data-name="Trazado 873863" d="M28.739,239.933H2.558L0,245.56h28.74Z" transform="translate(0 -239.933)"/>
                  </g>
                </g>
              </g>
              <rect id="Rectángulo_401233" data-name="Rectángulo 401233" width="26.182" height="19.113" transform="translate(2.558 111.13)" fill="#ff725d"/>
              <g id="Grupo_1099620" data-name="Grupo 1099620" transform="translate(15.25 113.106)" opacity="0.1">
                <g id="Grupo_1099619" data-name="Grupo 1099619">
                  <g id="Grupo_1099618" data-name="Grupo 1099618" clip-path="url(#clip-path-14)">
                    <rect id="Rectángulo_401234" data-name="Rectángulo 401234" width="11.143" height="1.116" transform="translate(0)"/>
                    <rect id="Rectángulo_401235" data-name="Rectángulo 401235" width="11.143" height="1.116" transform="translate(0 2.372)"/>
                    <rect id="Rectángulo_401236" data-name="Rectángulo 401236" width="11.143" height="1.116" transform="translate(0 4.743)"/>
                    <rect id="Rectángulo_401237" data-name="Rectángulo 401237" width="11.143" height="1.116" transform="translate(0 7.115)"/>
                    <rect id="Rectángulo_401238" data-name="Rectángulo 401238" width="11.143" height="1.116" transform="translate(0 9.487)"/>
                  </g>
                </g>
              </g>
              <path id="Trazado_873864" data-name="Trazado 873864" d="M168.6,126.974h-9.516v-.712h9.221l1.518-1.518v-14.18h-7.28l-7.625,5-.391-.6,7.8-5.118h8.206v15.187Z" transform="translate(-70.646 -50.221)" fill="#263238"/>
              <rect id="Rectángulo_401240" data-name="Rectángulo 401240" width="5.58" height="13.018" transform="translate(92.455 61.321)" fill="#263238"/>
              <rect id="Rectángulo_401241" data-name="Rectángulo 401241" width="1.5" height="0.713" transform="translate(98.035 71.864)" fill="#263238"/>
              <rect id="Rectángulo_401242" data-name="Rectángulo 401242" width="1.5" height="0.713" transform="translate(98.035 63.807)" fill="#263238"/>
              <rect id="Rectángulo_401243" data-name="Rectángulo 401243" width="20.09" height="2.651" transform="translate(71.294 100.122) rotate(-45.001)" fill="#263238"/>
              <path id="Trazado_873865" data-name="Trazado 873865" d="M151.1,175.725l-2.5,2.5-4.264-2.987,3.7-3.7Z" transform="translate(-65.983 -78.423)" fill="#37474f"/>
              <rect id="Rectángulo_401244" data-name="Rectángulo 401244" width="1.604" height="9.769" transform="translate(83.329 99.086) rotate(-45)" fill="#263238"/>
              <path id="Trazado_873866" data-name="Trazado 873866" d="M120.935,177.371l-7.277-34.925L96.913,93.295h-47.6l-.419,59.336H44.088L46.8,90.777h51.8l19.227,50.349,8.766,36.245Z" transform="translate(-20.156 -41.501)" fill="#37474f"/>
              <path id="Trazado_873867" data-name="Trazado 873867" d="M161.439,185.961l-6.279,8.115V204.4L148.6,220.886h20.113Z" transform="translate(-67.937 -85.016)" fill="#263238"/>
              <path id="Trazado_873868" data-name="Trazado 873868" d="M88.777,229.282H52.944V204.326h27.23Z" transform="translate(-24.204 -93.412)" fill="#37474f"/>
              <rect id="Rectángulo_401245" data-name="Rectángulo 401245" width="28.474" height="5.491" transform="translate(32.996 105.423)" fill="#263238"/>
              <path id="Trazado_873869" data-name="Trazado 873869" d="M53.609,145.8,57.5,171.483H65.32L58.652,144.5Z" transform="translate(-24.509 -66.059)" fill="#263238"/>
              <rect id="Rectángulo_401246" data-name="Rectángulo 401246" width="57.367" height="44.071" transform="translate(132.633 95.09)" fill="#afafaf"/>
              <g id="Grupo_1099626" data-name="Grupo 1099626" transform="translate(164.593 95.09)" opacity="0.2">
                <g id="Grupo_1099625" data-name="Grupo 1099625">
                  <g id="Grupo_1099624" data-name="Grupo 1099624" clip-path="url(#clip-path-15)">
                    <rect id="Rectángulo_401249" data-name="Rectángulo 401249" width="25.406" height="44.072" transform="translate(0.001 0.001)"/>
                  </g>
                </g>
              </g>
              <path id="Trazado_873870" data-name="Trazado 873870" d="M328.486,218.734q-2.941-5.076-5.829-10.185l-5.745-10.236-5.671-10.281q-2.821-5.148-5.585-10.333,2.943,5.076,5.831,10.185l5.744,10.236L322.9,208.4q2.822,5.148,5.586,10.332" transform="translate(-139.736 -81.239)" fill="#d3d3d3"/>
              <path id="Trazado_873871" data-name="Trazado 873871" d="M328.486,177.7q-2.767,5.182-5.586,10.332l-5.671,10.281-5.744,10.236q-2.886,5.11-5.831,10.185,2.765-5.183,5.585-10.333l5.671-10.281,5.745-10.236q2.886-5.11,5.829-10.185" transform="translate(-139.736 -81.239)" fill="#d3d3d3"/>
              <g id="Grupo_1099629" data-name="Grupo 1099629" transform="translate(146.152 95.09)" opacity="0.7">
                <g id="Grupo_1099628" data-name="Grupo 1099628">
                  <g id="Grupo_1099627" data-name="Grupo 1099627" clip-path="url(#clip-path-16)">
                    <path id="Trazado_873872" data-name="Trazado 873872" d="M269.24,178.844h.454l.365-.306.338.306h.737l.119-.11.153.11h.6l.053-.078.112.078.16-.137.181.137h.254v-3.668H269.24Z" transform="translate(-269.24 -175.175)" fill="#fff"/>
                  </g>
                </g>
              </g>
              <rect id="Rectángulo_401252" data-name="Rectángulo 401252" width="0.169" height="2.392" transform="translate(137.59 135.19)" fill="#fff"/>
              <rect id="Rectángulo_401253" data-name="Rectángulo 401253" width="0.169" height="2.392" transform="translate(137.183 135.19)" fill="#fff"/>
              <rect id="Rectángulo_401254" data-name="Rectángulo 401254" width="0.169" height="2.392" transform="translate(136.775 135.19)" fill="#fff"/>
              <rect id="Rectángulo_401255" data-name="Rectángulo 401255" width="0.169" height="2.392" transform="translate(136.368 135.19)" fill="#fff"/>
              <rect id="Rectángulo_401256" data-name="Rectángulo 401256" width="0.169" height="2.392" transform="translate(135.961 135.19)" fill="#fff"/>
              <rect id="Rectángulo_401257" data-name="Rectángulo 401257" width="0.169" height="2.392" transform="translate(135.554 135.19)" fill="#fff"/>
              <rect id="Rectángulo_401258" data-name="Rectángulo 401258" width="0.169" height="2.392" transform="translate(135.147 135.19)" fill="#fff"/>
              <rect id="Rectángulo_401259" data-name="Rectángulo 401259" width="0.169" height="2.392" transform="translate(134.74 135.19)" fill="#fff"/>
              <rect id="Rectángulo_401260" data-name="Rectángulo 401260" width="0.169" height="2.392" transform="translate(134.333 135.19)" fill="#fff"/>
              <path id="Trazado_873873" data-name="Trazado 873873" d="M256.3,251.257l-.653.182h1.532l-.653-.184v-.879c.467-.061.653-.522.653-1.328h-1.532c0,.8.186,1.267.653,1.328Z" transform="translate(-116.872 -113.857)" fill="#fff"/>
              <path id="Trazado_873874" data-name="Trazado 873874" d="M259.123,250.267h.4v1.171h1.024v-1.171h.4l-.914-1.22Z" transform="translate(-118.463 -113.856)" fill="#fff"/>
              <g id="Grupo_1099632" data-name="Grupo 1099632" transform="translate(132.633 136.131)" opacity="0.1">
                <g id="Grupo_1099631" data-name="Grupo 1099631">
                  <g id="Grupo_1099630" data-name="Grupo 1099630" clip-path="url(#clip-path-17)">
                    <path id="Trazado_873875" data-name="Trazado 873875" d="M244.336,253.811v-.923l31.96-2.109v3.031Z" transform="translate(-244.336 -250.779)"/>
                  </g>
                </g>
              </g>
              <rect id="Rectángulo_401262" data-name="Rectángulo 401262" width="4.547" height="4.04" transform="translate(135.282 140.258)" fill="#636363"/>
              <g id="Grupo_1099638" data-name="Grupo 1099638" transform="translate(135.282 140.258)" opacity="0.3">
                <g id="Grupo_1099637" data-name="Grupo 1099637">
                  <g id="Grupo_1099636" data-name="Grupo 1099636" clip-path="url(#clip-path-18)">
                    <path id="Trazado_873876" data-name="Trazado 873876" d="M253.762,259.272l-4.547.55v-1.44h4.547Z" transform="translate(-249.215 -258.383)"/>
                  </g>
                </g>
              </g>
              <rect id="Rectángulo_401266" data-name="Rectángulo 401266" width="4.547" height="4.04" transform="translate(159.054 140.258)" fill="#636363"/>
              <g id="Grupo_1099644" data-name="Grupo 1099644" transform="translate(159.054 140.258)" opacity="0.3">
                <g id="Grupo_1099643" data-name="Grupo 1099643">
                  <g id="Grupo_1099642" data-name="Grupo 1099642" clip-path="url(#clip-path-18)">
                    <path id="Trazado_873877" data-name="Trazado 873877" d="M297.555,259.272l-4.547.55v-1.44h4.547Z" transform="translate(-293.008 -258.383)"/>
                  </g>
                </g>
              </g>
              <rect id="Rectángulo_401270" data-name="Rectángulo 401270" width="4.547" height="4.04" transform="translate(182.826 140.258)" fill="#636363"/>
              <g id="Grupo_1099650" data-name="Grupo 1099650" transform="translate(182.826 140.258)" opacity="0.3">
                <g id="Grupo_1099649" data-name="Grupo 1099649">
                  <g id="Grupo_1099648" data-name="Grupo 1099648" clip-path="url(#clip-path-18)">
                    <path id="Trazado_873878" data-name="Trazado 873878" d="M341.349,259.272l-4.547.55v-1.44h4.547Z" transform="translate(-336.802 -258.383)"/>
                  </g>
                </g>
              </g>
              <rect id="Rectángulo_401274" data-name="Rectángulo 401274" width="57.101" height="1.095" transform="translate(132.776 139.163)" fill="#636363"/>
              <rect id="Rectángulo_401277" data-name="Rectángulo 401277" width="57.101" height="1.095" transform="translate(132.776 144.298)" fill="#636363"/>
            </g>
          </g>
          <g id="Grupo_1099672" data-name="Grupo 1099672">
            <g id="Grupo_1099671" data-name="Grupo 1099671" clip-path="url(#clip-path)">
              <path id="Trazado_873879" data-name="Trazado 873879" d="M86.947,122.748a5.2,5.2,0,0,1-2.455,3.316c-2.466,1.4-1.586,2.2-1.235,5.318a3.034,3.034,0,0,1-4.038,3.343,2.008,2.008,0,0,0,2.167-1.794c.265-2.309-3.417-6.021-1.474-9.254,2.513-4.184,7.036-.928,7.036-.928" transform="translate(-36.216 -55.565)" fill="#263238"/>
              <path id="Trazado_873880" data-name="Trazado 873880" d="M88.273,126.462c.024-.045.1,0,.08.042a4.112,4.112,0,0,1-.853,1.206c-.466.448-1.062.68-1.553,1.092-1.249,1.048-.563,2.767-.192,4.06a3.325,3.325,0,0,1-1.777,4.224.021.021,0,0,1-.017-.039,3.2,3.2,0,0,0,1.9-2.725c.056-1.141-.572-2.174-.7-3.288a2.525,2.525,0,0,1,.52-2.145,6.315,6.315,0,0,1,1.087-.754,4.461,4.461,0,0,0,1.51-1.672" transform="translate(-38.378 -57.806)" fill="#263238"/>
              <path id="Trazado_873881" data-name="Trazado 873881" d="M86.113,122.255c.018.011,0,.042-.017.033a7.08,7.08,0,0,0-4.1-1.047,4.291,4.291,0,0,0-3.273,3.055c-.527,1.676.466,2.9,1.286,4.26a6.408,6.408,0,0,1,1.131,3.183c0,.036-.059.037-.063,0-.223-1.813-1.281-3.16-2.146-4.7a3.51,3.51,0,0,1,.1-3.73c1.6-2.743,4.65-2.537,7.08-1.051" transform="translate(-35.862 -55.399)" fill="#263238"/>
              <path id="Trazado_873882" data-name="Trazado 873882" d="M131.437,233.256c-.7.249-21.145-.062-21.922-.542-.093-.054-.554-3.973-.554-3.973l1.992-15.147,13.411-.15-2.272,12.947s2.986,1.285,5.452,2.412c0,0,.007,0,.007.005a29.307,29.307,0,0,1,3.144,1.56c.794.616,1.447,2.643.743,2.888" transform="translate(-49.814 -97.58)" fill="#f7a9a0"/>
              <path id="Trazado_873883" data-name="Trazado 873883" d="M131.438,242.21c-.7.248-21.148-.061-21.922-.542-.094-.055-.557-3.972-.557-3.972l.614-4.668,12.877.279-.356,2.037s2.984,1.286,5.451,2.411c0,0,0,0,.005.007a29.344,29.344,0,0,1,3.144,1.56c.793.617,1.446,2.645.745,2.888" transform="translate(-49.812 -106.533)" fill="#ebebeb"/>
              <path id="Trazado_873884" data-name="Trazado 873884" d="M131.264,243.83c-.718.243-21.285.269-22.068-.228-.3-.184-.479-3.18-.591-6.807,0-.038,0-.076,0-.114l13.268-.164,0,.225s7.877,3.511,8.681,4.148,1.435,2.7.717,2.94" transform="translate(-49.65 -108.128)" fill="#0d66bf"/>
              <path id="Trazado_873885" data-name="Trazado 873885" d="M132.306,248.477c-3.467-.081-17.459-.079-20.891.1-.028,0-.028.02,0,.022,3.434.155,17.425.04,20.892-.069.073,0,.073-.055,0-.057" transform="translate(-50.925 -113.573)" fill="#263238"/>
              <path id="Trazado_873886" data-name="Trazado 873886" d="M131.647,236.919a4.831,4.831,0,0,0-4.074.932c-.041.037.014.094.058.08a19.154,19.154,0,0,1,4.01-.84.087.087,0,0,0,.005-.173" transform="translate(-58.316 -108.267)" fill="#263238"/>
              <path id="Trazado_873887" data-name="Trazado 873887" d="M133.463,238.009a4.831,4.831,0,0,0-4.074.932c-.041.037.014.094.058.08a19.187,19.187,0,0,1,4.011-.84.087.087,0,0,0,0-.172" transform="translate(-59.146 -108.766)" fill="#263238"/>
              <path id="Trazado_873888" data-name="Trazado 873888" d="M135.278,239.1a4.831,4.831,0,0,0-4.074.932c-.041.037.014.094.058.08a19.2,19.2,0,0,1,4.011-.84.087.087,0,0,0,.005-.172" transform="translate(-59.976 -109.265)" fill="#263238"/>
              <path id="Trazado_873889" data-name="Trazado 873889" d="M105.781,203.147l-14.341.076s4.326-21.83,3.8-22.526c-.572-.752-17.816,3.415-22.412-2.429-3.136-3.987-1.131-12.226-1.131-12.226l16.956.221s.025.4.04,2.36a65.591,65.591,0,0,1,13.426-.142c4.806.618,7.26,4.489,7.244,7-.074,11.106-3.577,27.662-3.577,27.662" transform="translate(-32.487 -75.91)" fill="#455a64"/>
              <path id="Trazado_873890" data-name="Trazado 873890" d="M123.819,229.551c-1.655-.117-3.309-.149-4.967-.176s-3.315-.03-4.971.005c-.935.02-1.868.088-2.8.111-.03,0-.031.05,0,.05.834.012,1.667.072,2.5.089s1.644.03,2.466.037c1.657.014,3.314.007,4.971.011.934,0,1.867-.024,2.8-.06a.034.034,0,0,0,0-.068" transform="translate(-50.771 -104.854)" fill="#263238"/>
              <path id="Trazado_873891" data-name="Trazado 873891" d="M88.614,168.706a1.036,1.036,0,0,1-.08.176.022.022,0,0,0,.007.031c-.194.541-.285,1.121-.472,1.664A2.631,2.631,0,0,1,87.007,172a10.382,10.382,0,0,1-3.531,1.234c-.039.008-.028.065.009.067a6.652,6.652,0,0,0,2.069-.251,5.383,5.383,0,0,0,1.76-.777,2.707,2.707,0,0,0,1.042-1.467,8.71,8.71,0,0,0,.2-.958,7.413,7.413,0,0,0,.156-1.123.052.052,0,0,0-.1-.015" transform="translate(-38.152 -77.111)" fill="#263238"/>
              <path id="Trazado_873892" data-name="Trazado 873892" d="M95.4,200.073c1.088-5.351,3.909-19.67,3.44-20.389a20.622,20.622,0,0,0-3.953.219c-5.359.508-14.33,1.357-17.789-1.11-3.638-2.594-2.33-10.548-2.273-10.885.012-.073.161-.215.147.012-.005.082-1.22,8.158,2.282,10.655,3.378,2.409,12.286,1.566,17.608,1.061,2.581-.244,3.835-.353,4.136-.166.82.511-2.666,17.322-3.477,20.732-.015.061-.187.2-.12-.129" transform="translate(-34.082 -76.711)" fill="#263238"/>
              <path id="Trazado_873893" data-name="Trazado 873893" d="M88.955,142.757l.763,9.582s-15.483-.779-19.305-1.3c0,0,4.757-15.439,9.178-19.653,2.211-2.108,4.624-1.782,6.068-.114.365.422,3.957,5.622,4.295,8.009a4.449,4.449,0,0,1-1,3.476" transform="translate(-32.19 -59.392)" fill="#ebebeb"/>
              <path id="Trazado_873894" data-name="Trazado 873894" d="M89.719,152.6l-.764-9.581a4.453,4.453,0,0,0,1-3.475c-.338-2.388-3.927-7.588-4.294-8.009a4.168,4.168,0,0,0-.44-.441l2.294,7.208-6.176-7.819a4.865,4.865,0,0,0-1.745,1.168C75.17,135.86,70.412,151.3,70.412,151.3c3.823.52,19.307,1.3,19.307,1.3" transform="translate(-32.19 -59.651)" fill="#53bced"/>
              <path id="Trazado_873895" data-name="Trazado 873895" d="M73.346,158.2l17.3,1.251-.12-1.528-16.688-1.2c-.156.513-.358,1-.5,1.479" transform="translate(-33.532 -71.646)" fill="#ebebeb"/>
              <path id="Trazado_873896" data-name="Trazado 873896" d="M71.795,162.994l18.362,1.324-.125-1.528-17.761-1.28c-.157.539-.353,1.035-.476,1.484" transform="translate(-32.822 -73.837)" fill="#ebebeb"/>
              <path id="Trazado_873897" data-name="Trazado 873897" d="M92.3,126.716c.023.312,1.149,2.493,2.534,2.647.452.049.831-2.4.831-2.4l.069-.174.969-2.445-2.674-2.383-.39-.321s-.221.686-.487,1.543c-.013.04-.026.08-.039.122s-.032.093-.045.139c-.042.128-.084.258-.123.389-.03.1-.06.2-.087.3s-.058.208-.088.313a16.929,16.929,0,0,0-.47,2.271" transform="translate(-42.197 -55.609)" fill="#f7a9a0"/>
              <path id="Trazado_873898" data-name="Trazado 873898" d="M93.87,123.181a5.272,5.272,0,0,0,2.583,3.6l.969-2.444-2.674-2.383-.39-.321s-.221.687-.487,1.544" transform="translate(-42.914 -55.609)" fill="#263238"/>
              <path id="Trazado_873899" data-name="Trazado 873899" d="M99.9,114.744c1.089,4.485-1.474,5.644-2.442,5.877-.878.212-3.895.823-5.442-3.525s.194-6.272,2.177-6.864,4.617.027,5.707,4.511" transform="translate(-41.798 -50.309)" fill="#f7a9a0"/>
              <path id="Trazado_873900" data-name="Trazado 873900" d="M104.109,116.4a2.985,2.985,0,0,1-.318.034.516.516,0,0,1-.33-.027.165.165,0,0,1-.062-.191.409.409,0,0,1,.352-.214.6.6,0,0,1,.422.085.175.175,0,0,1-.065.313" transform="translate(-47.267 -53.03)" fill="#263238"/>
              <path id="Trazado_873901" data-name="Trazado 873901" d="M98.85,117.775a3.1,3.1,0,0,0,.29-.131.52.52,0,0,0,.271-.191.165.165,0,0,0-.044-.2.407.407,0,0,0-.412-.007.6.6,0,0,0-.321.288.175.175,0,0,0,.216.237" transform="translate(-45.084 -53.579)" fill="#263238"/>
              <path id="Trazado_873902" data-name="Trazado 873902" d="M100.679,120.1c-.005-.011-.02.02-.017.033.085.3.13.664-.121.833-.008,0,0,.02.007.016.325-.13.259-.609.131-.882" transform="translate(-45.962 -54.905)" fill="#263238"/>
              <path id="Trazado_873903" data-name="Trazado 873903" d="M99.907,119.635c-.5.083-.3,1.077.167,1s.252-1.069-.167-1" transform="translate(-45.541 -54.692)" fill="#263238"/>
              <path id="Trazado_873904" data-name="Trazado 873904" d="M99.316,119.8c-.075.074-.14.191-.243.222-.118.037-.231-.048-.331-.132-.01-.009-.017,0-.014.015.036.191.149.371.359.358.192-.012.291-.208.3-.409,0-.037-.04-.083-.07-.053" transform="translate(-45.135 -54.765)" fill="#263238"/>
              <path id="Trazado_873905" data-name="Trazado 873905" d="M104.052,119.3c0-.012.027.01.029.022.051.311.161.657.46.705.009,0,.011.017,0,.017-.35.019-.492-.443-.49-.745" transform="translate(-47.569 -54.537)" fill="#263238"/>
              <path id="Trazado_873906" data-name="Trazado 873906" d="M104.264,118.6c.489-.135.723.852.27.977s-.68-.864-.27-.977" transform="translate(-47.57 -54.212)" fill="#263238"/>
              <path id="Trazado_873907" data-name="Trazado 873907" d="M104.816,118.488c.091.034.19.111.285.094s.164-.144.208-.263c0-.012.015-.006.018.007.05.187.034.4-.138.478-.157.073-.317-.061-.407-.238-.017-.033,0-.092.034-.079" transform="translate(-47.9 -54.089)" fill="#263238"/>
              <path id="Trazado_873908" data-name="Trazado 873908" d="M101.724,124.713c.077.073.153.173.267.181a.834.834,0,0,0,.337-.084.011.011,0,0,1,.014.016.423.423,0,0,1-.4.176.333.333,0,0,1-.251-.275c-.005-.018.019-.025.03-.015" transform="translate(-46.491 -57.013)" fill="#263238"/>
              <path id="Trazado_873909" data-name="Trazado 873909" d="M102.991,119.555s.163.445.21.661c0,.021-.046.041-.118.061,0,0,0,0-.009,0a1.051,1.051,0,0,1-1.082-.168c-.02-.018,0-.046.026-.037a1.586,1.586,0,0,0,1,.066c0-.063-.3-.753-.27-.763a1.912,1.912,0,0,1,.515,0c-.312-.937-.772-1.816-1.069-2.753a.03.03,0,0,1,.054-.026,16,16,0,0,1,1.277,2.916c.044.119-.436.053-.531.035" transform="translate(-46.624 -53.302)" fill="#263238"/>
              <path id="Trazado_873910" data-name="Trazado 873910" d="M92.323,122.58s-1.213-1.272-1.805-.818.472,2.4,1.274,2.57a.781.781,0,0,0,.971-.573Z" transform="translate(-41.303 -55.621)" fill="#f7a9a0"/>
              <path id="Trazado_873911" data-name="Trazado 873911" d="M91.242,122.859c-.012,0-.012.018,0,.021a1.973,1.973,0,0,1,1.195,1.066.431.431,0,0,0-.655-.019c-.012.012,0,.032.019.027a.479.479,0,0,1,.547.086,2.3,2.3,0,0,1,.315.384c.032.044.114.005.088-.047l-.007-.011c-.09-.68-.762-1.549-1.5-1.506" transform="translate(-41.709 -56.167)" fill="#263238"/>
              <path id="Trazado_873912" data-name="Trazado 873912" d="M91.383,116.294c.484-.126,1.494-1.725,1.067-4.1a17.711,17.711,0,0,1,.138,2.5,4.326,4.326,0,0,0,.246-2.818,7.869,7.869,0,0,0,2.158.629,3.035,3.035,0,0,0,1.552-.121c.051-.078-1.357-.234-1.8-.576a16.006,16.006,0,0,0,3.737.508,4.016,4.016,0,0,0-2.164-3.452c-1.928-.778-4.4.96-4.984,1.805a3.165,3.165,0,0,0-1.51,1.737c-.68,1.447,1.035,4.021,1.557,3.886" transform="translate(-40.994 -49.681)" fill="#263238"/>
              <path id="Trazado_873913" data-name="Trazado 873913" d="M98.594,111.165l-1.485.587a24.919,24.919,0,0,0-2.744.845,21.971,21.971,0,0,0-3.02,1.436l-1.6.632a4.638,4.638,0,0,1-.153-.492,4.539,4.539,0,0,1,2.76-5.76,4.617,4.617,0,0,1,6.013,2.3,4.775,4.775,0,0,1,.229.453" transform="translate(-40.866 -49.381)" fill="#0d66bf"/>
              <g id="Grupo_1099661" data-name="Grupo 1099661" transform="translate(53.122 58.633)" opacity="0.1">
                <g id="Grupo_1099660" data-name="Grupo 1099660">
                  <g id="Grupo_1099659" data-name="Grupo 1099659" clip-path="url(#clip-path-22)">
                    <path id="Trazado_873914" data-name="Trazado 873914" d="M100.581,111.477l-.747.3-1.973-3.747a4.1,4.1,0,0,1,.588,0,8.79,8.79,0,0,1,2.132,3.452" transform="translate(-97.861 -108.014)"/>
                  </g>
                </g>
              </g>
              <path id="Trazado_873915" data-name="Trazado 873915" d="M96.047,112.176l2.172-.734a9.291,9.291,0,0,0-2.589-3.761,8.329,8.329,0,0,0-2.236.617.41.41,0,0,0-.192.4c.84-.44,2.586,2.7,2.846,3.48" transform="translate(-42.608 -49.223)" fill="#0d66bf"/>
              <g id="Grupo_1099664" data-name="Grupo 1099664" transform="translate(50.592 59.131)" opacity="0.5">
                <g id="Grupo_1099663" data-name="Grupo 1099663">
                  <g id="Grupo_1099662" data-name="Grupo 1099662" clip-path="url(#clip-path-23)">
                    <path id="Trazado_873916" data-name="Trazado 873916" d="M96.395,112.635l-.347.117c-.261-.775-2.006-3.919-2.846-3.478a.481.481,0,0,1,.08-.308c.19-.125.85.074,1.442.839a11.948,11.948,0,0,1,1.67,2.83" transform="translate(-93.2 -108.931)" fill="#fff"/>
                  </g>
                </g>
              </g>
              <path id="Trazado_873917" data-name="Trazado 873917" d="M89.393,117.31a.212.212,0,0,0,.324.1c.657-.435,5.833-3.2,9.114-3.538.142-.015.184-.536-.106-.537a16.274,16.274,0,0,0-4.69,1.194,22.158,22.158,0,0,0-4.465,2.3.39.39,0,0,0-.178.484" transform="translate(-40.856 -51.814)" fill="#0d66bf"/>
              <path id="Trazado_873918" data-name="Trazado 873918" d="M89.741,116.587a13.656,13.656,0,0,1,3.075-1.823,7.028,7.028,0,0,1,.545-.553,17.765,17.765,0,0,1,4.5-1.4c.066,0,.309.326.309.326a2.364,2.364,0,0,1,.722-.043,12.619,12.619,0,0,0-2.318.5,34.362,34.362,0,0,0-5.48,2.215,11.65,11.65,0,0,0-1.356.771" transform="translate(-41.027 -51.576)" fill="#0d66bf"/>
              <g id="Grupo_1099667" data-name="Grupo 1099667" transform="translate(48.889 61.239)" opacity="0.7">
                <g id="Grupo_1099666" data-name="Grupo 1099666">
                  <g id="Grupo_1099665" data-name="Grupo 1099665" clip-path="url(#clip-path-24)">
                    <path id="Trazado_873919" data-name="Trazado 873919" d="M98.169,112.951a.186.186,0,0,0-.13-.047,8.231,8.231,0,0,0-1.743.384,23.832,23.832,0,0,0-2.665.983,6.255,6.255,0,0,0-.641.584,23.159,23.159,0,0,0-2.927,1.589,14.634,14.634,0,0,1,2.9-1.68,7.031,7.031,0,0,1,.544-.554,17.77,17.77,0,0,1,4.5-1.4c.03,0,.094.064.156.136" transform="translate(-90.063 -112.814)" fill="#fff"/>
                  </g>
                </g>
              </g>
              <g id="Grupo_1099670" data-name="Grupo 1099670" transform="translate(48.812 59.77)" opacity="0.2">
                <g id="Grupo_1099669" data-name="Grupo 1099669">
                  <g id="Grupo_1099668" data-name="Grupo 1099668" clip-path="url(#clip-path-25)">
                    <path id="Trazado_873920" data-name="Trazado 873920" d="M89.922,113.208a4.291,4.291,0,0,1,1.76-3.1l.629.853-.875.495-.419-.154.057.446-.227.152-.182.243-.026.126a1.822,1.822,0,0,0-.717.939" transform="translate(-89.922 -110.108)" fill="#fff"/>
                  </g>
                </g>
              </g>
              <path id="Trazado_873921" data-name="Trazado 873921" d="M87.479,137.339c.791,5.352,3.843,14.162,5.363,15,2.841,1.557,11.4,2.532,14.322,2.455,1.26-.034,2.139-7.847,1.419-8.987-.426-.675-11.6-.309-11.838-.5-.363-.295-3.84-6.342-6-8.99-3.182-3.908-3.71-1.956-3.269,1.027" transform="translate(-39.931 -61.318)" fill="#f7a9a0"/>
              <path id="Trazado_873922" data-name="Trazado 873922" d="M121.924,155.053s3.945-.291,6.38-.336a14.913,14.913,0,0,1,4.7.578c1.505.656,7.381,4.357,6.515,5.8-.785,1.307-5.429-2.514-5.429-2.514s5.028,3.442,3.793,4.842-5.908-3.615-5.908-3.615,5.086,3.652,3.585,4.895c-1.135.939-5.624-3.365-5.624-3.365s4.35,3.169,3.225,4.185c-1.243,1.123-5.636-2.59-5.636-2.59a8.561,8.561,0,0,1-7.421,1.3c-.411-.11,1.822-9.182,1.822-9.182" transform="translate(-54.884 -70.731)" fill="#f7a9a0"/>
              <path id="Trazado_873923" data-name="Trazado 873923" d="M142.824,159.439c.605.383,1.22.766,1.789,1.2s1.124.891,1.65,1.378a12.226,12.226,0,0,1,1.867,2.087,26.367,26.367,0,0,0-3.641-3.313c-.568-.435-1.114-.9-1.682-1.333-.014-.011,0-.03.017-.021" transform="translate(-65.284 -72.889)" fill="#263238"/>
              <path id="Trazado_873924" data-name="Trazado 873924" d="M139.863,163.172c.752.522,1.517,1.013,2.246,1.569s1.365,1.141,2.05,1.742c.053.047.01.06-.045.015-.709-.574-1.408-1.049-2.124-1.614s-1.409-1.159-2.142-1.7c-.011-.008,0-.025.014-.017" transform="translate(-63.932 -74.596)" fill="#263238"/>
              <path id="Trazado_873925" data-name="Trazado 873925" d="M136.728,165.917a20.451,20.451,0,0,1,3.25,2.662c.05.048-.007.059-.061.013-1.063-.905-1.892-1.623-3.216-2.634-.021-.016,0-.057.026-.041" transform="translate(-62.492 -75.851)" fill="#263238"/>
              <path id="Trazado_873926" data-name="Trazado 873926" d="M94.032,140.076l-5.961,3.463s-1.547-5.366-1.265-8.433,1.674-2.506,3.14-.783,4.086,5.753,4.086,5.753" transform="translate(-39.669 -60.765)" fill="#ebebeb"/>
              <path id="Trazado_873927" data-name="Trazado 873927" d="M94.03,144.749c.038-.023.066,0,.029.021a46.347,46.347,0,0,1-5.015,2.886c-.013.006-.022-.014-.011-.022.76-.575,4.572-2.626,5-2.885" transform="translate(-40.701 -66.17)" fill="#263238"/>
              <path id="Trazado_873928" data-name="Trazado 873928" d="M94.653,138.023c1.04,1.438,2.089,2.982,3.061,4.419.017.026-.262.131-.371.181-.042.019-.049-.03-.011-.053a1.344,1.344,0,0,0,.206-.149c-.983-1.452-1.963-2.906-2.9-4.387a.011.011,0,0,1,.017-.012" transform="translate(-43.264 -63.098)" fill="#263238"/>
            </g>
          </g>
        </g>
      </g>
    </g>
  </g>
</svg>
