<svg xmlns="http://www.w3.org/2000/svg" width="146.559" height="129.374" viewBox="0 0 146.559 129.374">
  <g id="Grupo_1100650" data-name="Grupo 1100650" transform="translate(-1020 -7011.946)">
    <g id="Grupo_1100649" data-name="Grupo 1100649" transform="translate(-20.811 -1191.107)">
      <g id="Grupo_1100245" data-name="Grupo 1100245" transform="translate(995.87 8188.075)">
        <rect id="Rect치ngulo_401023" data-name="Rect치ngulo 401023" width="126.094" height="129.373" rx="20" transform="translate(44.941 14.978)" fill="#53bced"/>
        <rect id="Rect치ngulo_401024" data-name="Rect치ngulo 401024" width="123.264" height="61.816" rx="20" transform="translate(66.736 70.047)" fill="none" stroke="#ff725d" stroke-miterlimit="10" stroke-width="3"/>
      </g>
    </g>
    <path id="Trazado_874832" data-name="Trazado 874832" d="M72.208,58.923a2.941,2.941,0,0,0,2.933-2.933v5.866a2.941,2.941,0,0,1-2.933,2.933H39.943a2.942,2.942,0,0,1-2.933-2.933V55.99a2.942,2.942,0,0,0,2.933,2.933Z" transform="translate(1053.796 7063.069)" fill="#0d66bf"/>
    <path id="Trazado_874833" data-name="Trazado 874833" d="M72.208,23.99H39.943a2.941,2.941,0,0,0-2.933,2.933v44a2.942,2.942,0,0,0,2.933,2.933H72.208a2.941,2.941,0,0,0,2.933-2.933v-44A2.942,2.942,0,0,0,72.208,23.99Z" transform="translate(1053.796 7048.138)" fill="#0d66bf"/>
    <g id="Grupo_1100339" data-name="Grupo 1100339" transform="translate(1096.673 7089.728)">
      <path id="Trazado_874834" data-name="Trazado 874834" d="M57.943,35.99a2.933,2.933,0,1,1-2.933,2.933A2.94,2.94,0,0,1,57.943,35.99Z" transform="translate(-34.478 -35.99)" fill="#ccd1d9"/>
      <path id="Trazado_874835" data-name="Trazado 874835" d="M50.943,35.99a2.933,2.933,0,1,1-2.933,2.933A2.94,2.94,0,0,1,50.943,35.99Z" transform="translate(-37.744 -35.99)" fill="#ccd1d9"/>
      <path id="Trazado_874836" data-name="Trazado 874836" d="M43.943,35.99a2.933,2.933,0,1,1-2.933,2.933A2.94,2.94,0,0,1,43.943,35.99Z" transform="translate(-41.01 -35.99)" fill="#ccd1d9"/>
      <path id="Trazado_874837" data-name="Trazado 874837" d="M43.943,49.99a2.933,2.933,0,1,1-2.933,2.933A2.94,2.94,0,0,1,43.943,49.99Z" transform="translate(-41.01 -29.458)" fill="#ccd1d9"/>
      <path id="Trazado_874838" data-name="Trazado 874838" d="M50.943,42.99a2.933,2.933,0,1,1-2.933,2.933A2.94,2.94,0,0,1,50.943,42.99Z" transform="translate(-37.744 -32.724)" fill="#ccd1d9"/>
      <path id="Trazado_874839" data-name="Trazado 874839" d="M57.943,49.99a2.933,2.933,0,1,1-2.933,2.933A2.94,2.94,0,0,1,57.943,49.99Z" transform="translate(-34.478 -29.458)" fill="#ccd1d9"/>
      <path id="Trazado_874840" data-name="Trazado 874840" d="M57.943,42.99a2.933,2.933,0,1,1-2.933,2.933A2.94,2.94,0,0,1,57.943,42.99Z" transform="translate(-34.478 -32.724)" fill="#ccd1d9"/>
      <path id="Trazado_874841" data-name="Trazado 874841" d="M50.943,49.99a2.933,2.933,0,1,1-2.933,2.933A2.94,2.94,0,0,1,50.943,49.99Z" transform="translate(-37.744 -29.458)" fill="#ccd1d9"/>
    </g>
    <path id="Trazado_874842" data-name="Trazado 874842" d="M65.942,27.99a1.471,1.471,0,0,1,1.467,1.467V32.39a1.471,1.471,0,0,1-1.467,1.467H42.477A1.471,1.471,0,0,1,41.01,32.39V29.457a1.471,1.471,0,0,1,1.467-1.467Z" transform="translate(1055.663 7050.005)" fill="#5d9cec"/>
    <path id="Trazado_874843" data-name="Trazado 874843" d="M43.943,42.99a2.933,2.933,0,1,1-2.933,2.933A2.94,2.94,0,0,1,43.943,42.99Z" transform="translate(1055.663 7057.003)" fill="#ccd1d9"/>
    <path id="Trazado_874844" data-name="Trazado 874844" d="M31.256,2.01l2.933,8.8H20.99l2.933-8.8Z" transform="translate(1046.322 7037.883)" fill="#ccd1d9"/>
    <path id="Trazado_874845" data-name="Trazado 874845" d="M33.255,2.01l-2.933,8.8H.99l7.333-8.8Z" transform="translate(1036.99 7037.883)" fill="#df4933"/>
    <path id="Trazado_874846" data-name="Trazado 874846" d="M52.922,2.01l7.333,8.8H30.923L27.99,2.01Z" transform="translate(1049.588 7037.883)" fill="#df4933"/>
    <path id="Trazado_874847" data-name="Trazado 874847" d="M72.853,8.01V31.446H56.75a2.941,2.941,0,0,0-2.933,2.933V71.073H.99V8.01H30.322V21.224l6.6-2.948,6.6,2.948V8.01Z" transform="translate(1036.99 7040.682)" fill="#ff725d"/>
    <path id="Trazado_874848" data-name="Trazado 874848" d="M32.857,41.945H6.459a1.467,1.467,0,1,1,0-2.933h26.4a1.467,1.467,0,0,1,0,2.933Z" transform="translate(1038.857 7055.147)" fill="#df4933"/>
    <path id="Trazado_874849" data-name="Trazado 874849" d="M32.857,44.939H6.459a1.467,1.467,0,0,1,0-2.933h26.4a1.467,1.467,0,0,1,0,2.933Z" transform="translate(1038.857 7056.544)" fill="#df4933"/>
    <path id="Trazado_874850" data-name="Trazado 874850" d="M19.658,47.933H6.459a1.467,1.467,0,0,1,0-2.933h13.2a1.467,1.467,0,0,1,0,2.933Z" transform="translate(1038.857 7057.941)" fill="#df4933"/>
    <path id="Trazado_874851" data-name="Trazado 874851" d="M31.258,8.01H20.99V21.224l.006,0c0,.023.012.043.013.067a2.48,2.48,0,0,0,.147.566c.015.029.013.062.031.091a1.439,1.439,0,0,0,.657.59.989.989,0,0,0,.109.044,1.478,1.478,0,0,0,.509.1h0a1.507,1.507,0,0,0,.5-.1c.044-.018.088-.032.129-.053s.067-.022.1-.04l4.4-2.52L32,22.49c.032.019.069.026.1.043s.079.032.12.048a1.478,1.478,0,0,0,.5.1h0a1.484,1.484,0,0,0,.5-.1c.041-.016.081-.031.119-.048a1.453,1.453,0,0,0,.411-.276c.006-.006.009-.013.015-.019A1.48,1.48,0,0,0,34,21.944c.015-.026.015-.054.026-.081a1.4,1.4,0,0,0,.092-.277,1.318,1.318,0,0,0,.057-.286c0-.026.013-.048.016-.075h0s0,0,0-.007V8.01Z" transform="translate(1046.322 7040.682)" fill="#e6e9ed"/>
  </g>
</svg>
