<svg xmlns="http://www.w3.org/2000/svg" width="146.559" height="129.373" viewBox="0 0 146.559 129.373">
  <g id="Grupo_1100653" data-name="Grupo 1100653" transform="translate(-737.47 -11417.443)">
    <g id="Grupo_1100282" data-name="Grupo 1100282" transform="translate(692.53 11402.465)">
      <rect id="Rect치ngulo_401023" data-name="Rect치ngulo 401023" width="126.094" height="129.373" rx="20" transform="translate(44.941 14.978)" fill="#ff725d"/>
      <rect id="Rect치ngulo_401024" data-name="Rect치ngulo 401024" width="123.264" height="61.816" rx="20" transform="translate(66.736 70.047)" fill="none" stroke="#0d66bf" stroke-miterlimit="10" stroke-width="3"/>
    </g>
    <g id="Grupo_1100426" data-name="Grupo 1100426" transform="translate(733.556 11440.336)">
      <path id="Trazado_875091" data-name="Trazado 875091" d="M90.527,0H52.344A4.446,4.446,0,0,0,50.5.4L37.559,13.342a4.448,4.448,0,0,0-.4,1.842V66.709L40.125,68.5H91.957V2.965Z" transform="translate(0 0)" fill="#eceaec"/>
      <path id="Trazado_875092" data-name="Trazado 875092" d="M40.126,69.673H93.493V2.965A2.965,2.965,0,0,0,90.528,0V42.16a2.972,2.972,0,0,1-2.371,2.9A25.208,25.208,0,0,0,68.875,64.338a2.972,2.972,0,0,1-2.9,2.371H37.161A2.965,2.965,0,0,0,40.126,69.673Z" transform="translate(-0.001)" fill="#dbd8db"/>
      <path id="Trazado_875093" data-name="Trazado 875093" d="M270.665,286.494c0,12.281-9.051,21.552-21.332,21.552a22.946,22.946,0,0,1-16.6-6.762,22.236,22.236,0,0,1,31.4-31.393s6.54,5.6,6.54,16.6Z" transform="translate(-155.841 -216.821)" fill="#0d66bf"/>
      <path id="Trazado_875094" data-name="Trazado 875094" d="M97.933,250.707H96.45a1.482,1.482,0,1,1,0-2.965h1.482a1.482,1.482,0,1,1,0,2.965Z" transform="translate(-47.431 -203.27)" fill="#0d66bf"/>
      <path id="Trazado_875095" data-name="Trazado 875095" d="M159.977,250.707H137.74a1.482,1.482,0,1,1,0-2.965h22.236a1.482,1.482,0,0,1,0,2.965Z" transform="translate(-81.309 -203.27)" fill="#615260"/>
      <path id="Trazado_875096" data-name="Trazado 875096" d="M97.933,283.739H96.45a1.482,1.482,0,0,1,0-2.965h1.482a1.482,1.482,0,0,1,0,2.965Z" transform="translate(-47.431 -230.372)" fill="#0d66bf"/>
      <path id="Trazado_875097" data-name="Trazado 875097" d="M152.565,283.739H137.74a1.482,1.482,0,0,1,0-2.965h14.824a1.482,1.482,0,1,1,0,2.965Z" transform="translate(-81.309 -230.372)" fill="#736572"/>
      <path id="Trazado_875098" data-name="Trazado 875098" d="M97.933,316.772H96.45a1.482,1.482,0,0,1,0-2.965h1.482a1.482,1.482,0,0,1,0,2.965Z" transform="translate(-47.431 -257.475)" fill="#0d66bf"/>
      <path id="Trazado_875099" data-name="Trazado 875099" d="M148.118,316.772H137.741a1.482,1.482,0,0,1,0-2.965h10.377a1.482,1.482,0,0,1,0,2.965Z" transform="translate(-81.31 -257.475)" fill="#615260"/>
      <path id="Trazado_875100" data-name="Trazado 875100" d="M293.8,364.627a1.478,1.478,0,0,1-1.048-.434l-7.412-7.412a1.482,1.482,0,1,1,2.1-2.1l6.364,6.364,13.776-13.776a1.482,1.482,0,0,1,2.1,2.1l-14.824,14.824A1.477,1.477,0,0,1,293.8,364.627Z" transform="translate(-203.271 -284.577)" fill="#fff"/>
      <path id="Trazado_875101" data-name="Trazado 875101" d="M289.866,295.639a22.236,22.236,0,0,1-31.4,31.393,22.236,22.236,0,1,0,31.4-31.393Z" transform="translate(-181.582 -242.568)" fill="#0d66bf"/>
      <path id="Trazado_875102" data-name="Trazado 875102" d="M49.363,15.169A2.965,2.965,0,0,0,52.328,12.2V2.227a4.481,4.481,0,0,0-1.3.9L40.288,13.866a4.48,4.48,0,0,0-.9,1.3h9.978Z" transform="translate(-1.826 -1.827)" fill="#dbd8db"/>
      <path id="Trazado_875103" data-name="Trazado 875103" d="M119.234,96.194h-2.777l-4.447,11.859,2.777,1.042,3.059-8.159L120.9,109.1l2.777-1.042Z" transform="translate(-61.414 -78.926)" fill="#53bced"/>
      <g id="Grupo_1100423" data-name="Grupo 1100423" transform="translate(50.502 28.165)">
        <path id="Trazado_875104" data-name="Trazado 875104" d="M117.416,161.345a1.489,1.489,0,0,1-.469-.077l-4.447-1.482a1.482,1.482,0,1,1,.938-2.812l3.978,1.326,3.978-1.326a1.482,1.482,0,0,1,.938,2.812l-4.447,1.482A1.489,1.489,0,0,1,117.416,161.345Z" transform="translate(-111.487 -156.897)" fill="#53bced"/>
      </g>
      <path id="Trazado_875105" data-name="Trazado 875105" d="M218.33,96.194h-2.777l-4.447,11.859,2.777,1.042,3.059-8.159L220,109.1l2.777-1.042Z" transform="translate(-142.721 -78.926)" fill="#53bced"/>
      <g id="Grupo_1100424" data-name="Grupo 1100424" transform="translate(68.291 28.165)">
        <path id="Trazado_875106" data-name="Trazado 875106" d="M216.512,161.345a1.489,1.489,0,0,1-.469-.077l-4.447-1.482a1.482,1.482,0,0,1,.938-2.812l3.978,1.326,3.978-1.326a1.482,1.482,0,0,1,.938,2.812l-4.447,1.482A1.49,1.49,0,0,1,216.512,161.345Z" transform="translate(-210.583 -156.897)" fill="#53bced"/>
      </g>
      <path id="Trazado_875107" data-name="Trazado 875107" d="M144.946,70.512H134.569V67.547a1.482,1.482,0,1,0-2.965,0v2.965H121.227a1.482,1.482,0,1,0,0,2.965H131.6V91.266h2.965V73.477h10.377a1.482,1.482,0,1,0,0-2.965Z" transform="translate(-67.76 -54.206)" fill="#53bced"/>
      <g id="Grupo_1100425" data-name="Grupo 1100425" transform="translate(57.914 35.578)">
        <path id="Trazado_875108" data-name="Trazado 875108" d="M166.117,201.159H154.257a1.482,1.482,0,1,1,0-2.965h11.859a1.482,1.482,0,1,1,0,2.965Z" transform="translate(-152.775 -198.194)" fill="#53bced"/>
      </g>
      <circle id="Elipse_11492" data-name="Elipse 11492" cx="1.482" cy="1.482" r="1.482" transform="translate(63.844 16.307)" fill="#f6f6f6"/>
    </g>
  </g>
</svg>
