<svg xmlns="http://www.w3.org/2000/svg" xmlns:xlink="http://www.w3.org/1999/xlink" width="400" height="444.25" viewBox="0 0 400 444.25">
  <defs>
    <clipPath id="clip-path">
      <rect id="Rectángulo_401546" data-name="Rectángulo 401546" width="396.314" height="428.5" fill="none"/>
    </clipPath>
    <clipPath id="clip-path-2">
      <path id="Trazado_874594" data-name="Trazado 874594" d="M0,0H396.314V424.881H0Z" fill="none"/>
    </clipPath>
    <clipPath id="clip-path-3">
      <rect id="Rectángulo_401531" data-name="Rectángulo 401531" width="396.314" height="396.5" fill="none"/>
    </clipPath>
    <clipPath id="clip-path-4">
      <rect id="Rectángulo_401525" data-name="Rectángulo 401525" width="85.872" height="78.715" fill="none"/>
    </clipPath>
    <clipPath id="clip-path-6">
      <rect id="Rectángulo_401534" data-name="Rectángulo 401534" width="146.774" height="134.539" fill="none"/>
    </clipPath>
    <clipPath id="clip-path-9">
      <rect id="Rectángulo_401539" data-name="Rectángulo 401539" width="2.872" height="2.703" fill="none"/>
    </clipPath>
    <clipPath id="clip-path-10">
      <rect id="Rectángulo_401540" data-name="Rectángulo 401540" width="36.805" height="3.681" fill="none"/>
    </clipPath>
    <clipPath id="clip-path-11">
      <rect id="Rectángulo_401541" data-name="Rectángulo 401541" width="2.844" height="2.698" fill="none"/>
    </clipPath>
    <clipPath id="clip-path-12">
      <rect id="Rectángulo_401542" data-name="Rectángulo 401542" width="36.755" height="6.105" fill="none"/>
    </clipPath>
    <clipPath id="clip-path-13">
      <rect id="Rectángulo_401543" data-name="Rectángulo 401543" width="23.084" height="7.281" fill="none"/>
    </clipPath>
    <clipPath id="clip-path-14">
      <rect id="Rectángulo_401544" data-name="Rectángulo 401544" width="15.032" height="3.653" fill="none"/>
    </clipPath>
  </defs>
  <g id="Grupo_1100656" data-name="Grupo 1100656" transform="translate(-180 -3086.813)">
    <g id="Grupo_1100097" data-name="Grupo 1100097" transform="translate(-874 -590.433)">
      <g id="Grupo_1099924" data-name="Grupo 1099924" transform="translate(1054 3677.245)">
        <g id="Grupo_54356" data-name="Grupo 54356" transform="translate(0)">
          <path id="Trazado_874173" data-name="Trazado 874173" d="M30.391,0H258.208C274.993,0,288.6,16.045,288.6,35.837V366.318c0,41.585-28.588,75.3-63.853,75.3H63.854a55.2,55.2,0,0,1-10.83-1.079C23,434.586,0,403.62,0,366.318V35.837C0,16.045,13.607,0,30.391,0Z" transform="translate(0 1.193)" fill="#53bced"/>
          <path id="Trazado_103528" data-name="Trazado 103528" d="M1020.294,671.049H947.8c-47.283,0-85.751-38.716-85.751-86.305V268.719a41.584,41.584,0,0,1,41.4-41.67h161.194a41.584,41.584,0,0,1,41.4,41.67V584.744C1106.044,632.333,1067.577,671.049,1020.294,671.049ZM903.448,229.316a39.322,39.322,0,0,0-39.151,39.4V584.744c0,46.338,37.457,84.038,83.5,84.038h72.5c46.04,0,83.5-37.7,83.5-84.038V268.719a39.322,39.322,0,0,0-39.15-39.4Z" transform="translate(-791.044 -227.049)" fill="#db6e5f"/>
        </g>
      </g>
    </g>
    <g id="Grupo_1100144" data-name="Grupo 1100144" transform="translate(183.686 3134.563)">
      <g id="Grupo_1100143" data-name="Grupo 1100143" transform="translate(0 -32)" clip-path="url(#clip-path)">
        <g id="Grupo_1100110" data-name="Grupo 1100110" transform="translate(0 3.619)">
          <g id="Enmascarar_grupo_1098688" data-name="Enmascarar grupo 1098688" clip-path="url(#clip-path-2)">
            <path id="Trazado_874463" data-name="Trazado 874463" d="M331.074,279.482a26.9,26.9,0,0,1,6.557-2.85l1.351-6.491,10.965-.192,1.579,6.438a26.887,26.887,0,0,1,6.654,2.618l5.542-3.633,7.89,7.619-3.435,5.665a26.865,26.865,0,0,1,2.85,6.558l6.489,1.351.193,10.966-6.438,1.579a26.876,26.876,0,0,1-2.618,6.652l3.633,5.542-7.617,7.89L359,325.759a26.9,26.9,0,0,1-6.558,2.85l-1.351,6.49-10.966.193-1.578-6.439a26.866,26.866,0,0,1-6.653-2.618l-5.542,3.633-7.89-7.619,3.436-5.665a26.852,26.852,0,0,1-2.851-6.558l-6.49-1.351-.192-10.965,6.438-1.579a26.9,26.9,0,0,1,2.618-6.653l-3.633-5.542,7.617-7.89Zm5.845,14.608a11.765,11.765,0,1,0,16.636-.293,11.765,11.765,0,0,0-16.636.293" transform="translate(-24.012 7.63)" fill="#ebebeb"/>
            <path id="Trazado_874464" data-name="Trazado 874464" d="M376.227,7.1a20,20,0,0,1,4.882-2.121L382.115.143,390.281,0l1.175,4.794a19.985,19.985,0,0,1,4.954,1.95l4.127-2.706,5.875,5.674-2.557,4.219a19.986,19.986,0,0,1,2.121,4.883l4.833,1.006.143,8.165-4.794,1.176a20.028,20.028,0,0,1-1.949,4.954l2.7,4.127-5.672,5.876-4.219-2.558a20.05,20.05,0,0,1-4.884,2.121l-1.005,4.834-8.166.143-1.175-4.795a20.014,20.014,0,0,1-4.954-1.95l-4.126,2.706-5.876-5.673,2.558-4.22a20,20,0,0,1-2.122-4.883l-4.833-1.005-.143-8.165,4.795-1.176a20,20,0,0,1,1.949-4.954l-2.7-4.126,5.672-5.876Zm4.353,10.878a8.761,8.761,0,1,0,12.388-.218,8.761,8.761,0,0,0-12.388.218" transform="translate(-27.85 28.381)" fill="#f5f5f5"/>
            <path id="Trazado_874593" data-name="Trazado 874593" d="M376.227,7.1a20,20,0,0,1,4.882-2.121L382.115.143,390.281,0l1.175,4.794a19.985,19.985,0,0,1,4.954,1.95l4.127-2.706,5.875,5.674-2.557,4.219a19.986,19.986,0,0,1,2.121,4.883l4.833,1.006.143,8.165-4.794,1.176a20.028,20.028,0,0,1-1.949,4.954l2.7,4.127-5.672,5.876-4.219-2.558a20.05,20.05,0,0,1-4.884,2.121l-1.005,4.834-8.166.143-1.175-4.795a20.014,20.014,0,0,1-4.954-1.95l-4.126,2.706-5.876-5.673,2.558-4.22a20,20,0,0,1-2.122-4.883l-4.833-1.005-.143-8.165,4.795-1.176a20,20,0,0,1,1.949-4.954l-2.7-4.126,5.672-5.876Zm4.353,10.878a8.761,8.761,0,1,0,12.388-.218,8.761,8.761,0,0,0-12.388.218" transform="translate(-247.978 4.052)" fill="#f5f5f5"/>
            <path id="Trazado_874465" data-name="Trazado 874465" d="M142.41,234.877a12.493,12.493,0,0,1,3.057-1.328l.631-3.027,5.113-.09.737,3a12.513,12.513,0,0,1,3.1,1.22l2.585-1.694,3.68,3.553-1.6,2.642a12.513,12.513,0,0,1,1.328,3.058l3.027.631.09,5.113-3,.737a12.531,12.531,0,0,1-1.221,3.1l1.694,2.585-3.552,3.68-2.642-1.6a12.543,12.543,0,0,1-3.059,1.329l-.63,3.027-5.114.09-.736-3a12.548,12.548,0,0,1-3.1-1.22l-2.585,1.694-3.68-3.553,1.6-2.642a12.5,12.5,0,0,1-1.328-3.058l-3.027-.63-.09-5.114,3-.737a12.58,12.58,0,0,1,1.221-3.1l-1.694-2.585,3.552-3.68Zm2.726,6.813a5.487,5.487,0,1,0,7.758-.137,5.487,5.487,0,0,0-7.758.137" transform="translate(-10.276 10.668)" fill="#ebebeb"/>
          </g>
        </g>
        <g id="Grupo_1100115" data-name="Grupo 1100115" transform="translate(0 32)">
          <g id="Grupo_1100114" data-name="Grupo 1100114" clip-path="url(#clip-path-3)">
            <path id="Trazado_874466" data-name="Trazado 874466" d="M313.327,317.92l-109.215-.062c-13.135-.006-23.78-10.217-23.777-22.808l.054-262.45c0-12.6,10.662-22.807,23.8-22.8l109.216.061c13.135.007,23.778,10.218,23.776,22.809l-.054,262.45c0,12.6-10.661,22.807-23.8,22.8" transform="translate(-13.862 -0.753)" fill="#455a64"/>
            <path id="Trazado_874467" data-name="Trazado 874467" d="M313.9,19.917,292.72,19.9l-61.842-.035-7.448,0-18.533-.01c-9.2-.006-16.669,7.144-16.672,15.967l-.052,256.17c0,8.819,7.452,15.969,16.651,15.974l109,.061c9.2.006,16.669-7.144,16.672-15.967l.052-256.17c0-8.819-7.452-15.968-16.651-15.974" transform="translate(-14.465 -1.526)" fill="#fff"/>
            <rect id="Rectángulo_401523" data-name="Rectángulo 401523" width="85.872" height="78.714" transform="translate(212.645 137.363)" fill="#ff725e"/>
            <g id="Grupo_1100113" data-name="Grupo 1100113" transform="translate(212.645 137.362)" opacity="0.3">
              <g id="Grupo_1100112" data-name="Grupo 1100112">
                <g id="Grupo_1100111" data-name="Grupo 1100111" clip-path="url(#clip-path-4)">
                  <rect id="Rectángulo_401524" data-name="Rectángulo 401524" width="85.872" height="78.714" transform="translate(0 0.001)"/>
                </g>
              </g>
            </g>
            <rect id="Rectángulo_401526" data-name="Rectángulo 401526" width="72.354" height="78.714" transform="translate(191.276 137.363)" fill="#ff725e"/>
            <path id="Trazado_874468" data-name="Trazado 874468" d="M285.563,227.657c-.133,0-.24-17.654-.24-39.426s.107-39.431.24-39.431.24,17.65.24,39.431-.107,39.426-.24,39.426" transform="translate(-21.933 -11.438)" fill="#263238"/>
            <path id="Trazado_874469" data-name="Trazado 874469" d="M320.392,191.492c0,.133-8.021.24-17.912.24s-17.915-.107-17.915-.24,8.019-.24,17.915-.24,17.912.107,17.912.24" transform="translate(-21.874 -14.702)" fill="#263238"/>
            <path id="Trazado_874470" data-name="Trazado 874470" d="M314.243,228.157H309.72a.346.346,0,0,1,0-.692H313.9V223.31a.346.346,0,1,1,.692,0v4.5a.346.346,0,0,1-.346.346" transform="translate(-23.782 -17.139)" fill="#fff"/>
            <path id="Trazado_874471" data-name="Trazado 874471" d="M314.233,217.266a.346.346,0,0,1-.346-.346v-4.707h-4.3a.346.346,0,0,1,0-.692h4.642a.346.346,0,0,1,.346.346v5.053a.346.346,0,0,1-.346.346" transform="translate(-23.772 -16.26)" fill="#fff"/>
            <path id="Trazado_874472" data-name="Trazado 874472" d="M298.3,217.384a.346.346,0,0,1-.346-.346v-5.171a.346.346,0,0,1,.346-.346h4.616a.346.346,0,1,1,0,.692h-4.269v4.825a.346.346,0,0,1-.346.346" transform="translate(-22.904 -16.26)" fill="#fff"/>
            <path id="Trazado_874473" data-name="Trazado 874473" d="M302.8,228.176h-4.5a.346.346,0,0,1-.346-.346v-4.263a.346.346,0,1,1,.692,0v3.917h4.15a.346.346,0,0,1,0,.692" transform="translate(-22.904 -17.159)" fill="#fff"/>
            <path id="Trazado_874474" data-name="Trazado 874474" d="M309.116,224.318H303.43a.346.346,0,0,1-.346-.346v-8.767a.346.346,0,0,1,.346-.346h5.686a.346.346,0,0,1,.346.346v8.767a.346.346,0,0,1-.346.346m-5.339-.692h4.993v-8.075h-4.993Z" transform="translate(-23.298 -16.516)" fill="#fff"/>
            <path id="Trazado_874475" data-name="Trazado 874475" d="M307.064,223.111a.49.49,0,1,1-.49-.49.49.49,0,0,1,.49.49" transform="translate(-23.529 -17.113)" fill="#fff"/>
            <path id="Trazado_874476" data-name="Trazado 874476" d="M307.1,216.991h-1.279a.346.346,0,0,1,0-.692H307.1a.346.346,0,1,1,0,.692" transform="translate(-23.482 -16.627)" fill="#fff"/>
            <path id="Trazado_874477" data-name="Trazado 874477" d="M257.639,195.567h-36.5a2.212,2.212,0,1,1,0-4.424h36.5a2.212,2.212,0,1,1,0,4.424" transform="translate(-16.829 -14.693)" fill="#fff"/>
            <path id="Trazado_874478" data-name="Trazado 874478" d="M230.985,202.963H221.14a2.212,2.212,0,1,1,0-4.424h9.845a2.212,2.212,0,1,1,0,4.424" transform="translate(-16.829 -15.262)" fill="#fff"/>
            <path id="Trazado_874479" data-name="Trazado 874479" d="M229.6,211.639a42.067,42.067,0,0,1-8.975,0,42.069,42.069,0,0,1,8.975,0" transform="translate(-16.96 -16.25)" fill="#fff"/>
            <path id="Trazado_874480" data-name="Trazado 874480" d="M260.84,228.068h-1.359a1.856,1.856,0,0,1-1.855-1.855v-1.359A1.856,1.856,0,0,1,259.481,223h1.359a1.856,1.856,0,0,1,1.856,1.856v1.359a1.856,1.856,0,0,1-1.856,1.855" transform="translate(-19.804 -17.142)" fill="#fff"/>
            <path id="Trazado_874481" data-name="Trazado 874481" d="M268.516,228.068h-1.359a1.856,1.856,0,0,1-1.855-1.855v-1.359A1.856,1.856,0,0,1,267.157,223h1.359a1.856,1.856,0,0,1,1.855,1.856v1.359a1.856,1.856,0,0,1-1.855,1.855" transform="translate(-20.394 -17.142)" fill="#fff"/>
            <path id="Trazado_874482" data-name="Trazado 874482" d="M276.192,228h-1.359a1.856,1.856,0,0,1-1.855-1.855v-1.359a1.856,1.856,0,0,1,1.855-1.856h1.359a1.856,1.856,0,0,1,1.856,1.856v1.359A1.856,1.856,0,0,1,276.192,228" transform="translate(-20.984 -17.136)" fill="#fff"/>
            <rect id="Rectángulo_401527" data-name="Rectángulo 401527" width="28.095" height="11.336" transform="translate(202.32 151.77)" fill="#fff"/>
            <path id="Trazado_874483" data-name="Trazado 874483" d="M415.343,115.4H378.352a3.032,3.032,0,0,1,0-6.063h36.992a3.032,3.032,0,1,1,0,6.063" transform="translate(-28.851 -8.405)" fill="#e0e0e0"/>
            <path id="Trazado_874484" data-name="Trazado 874484" d="M415.343,128.3H378.352a3.032,3.032,0,0,1,0-6.063h36.992a3.032,3.032,0,1,1,0,6.063" transform="translate(-28.851 -9.396)" fill="#e0e0e0"/>
            <path id="Trazado_874485" data-name="Trazado 874485" d="M389.491,140.919h-11.14a3.032,3.032,0,0,1,0-6.063h11.14a3.032,3.032,0,1,1,0,6.063" transform="translate(-28.851 -10.366)" fill="#e0e0e0"/>
            <path id="Trazado_874486" data-name="Trazado 874486" d="M364.733,100.761c.1.091-9.477,10.32-21.38,22.843s-21.633,22.606-21.73,22.514,9.475-10.318,21.382-22.845,21.632-22.6,21.728-22.512" transform="translate(-24.723 -7.745)" fill="#263238"/>
            <path id="Trazado_874487" data-name="Trazado 874487" d="M326.868,149.272a3.81,3.81,0,1,1-3.811-3.811,3.81,3.81,0,0,1,3.811,3.811" transform="translate(-24.541 -11.182)" fill="#263238"/>
            <path id="Trazado_874488" data-name="Trazado 874488" d="M210.7,195.691a3.81,3.81,0,1,1-3.811-3.811,3.811,3.811,0,0,1,3.811,3.811" transform="translate(-15.611 -14.75)" fill="#263238"/>
            <path id="Trazado_874489" data-name="Trazado 874489" d="M328.381,222.3a3.81,3.81,0,1,1-3.811-3.811,3.81,3.81,0,0,1,3.811,3.811" transform="translate(-24.657 -16.796)" fill="#263238"/>
            <path id="Trazado_874490" data-name="Trazado 874490" d="M306.452,72.386H221.68a4.589,4.589,0,1,1,0-9.179h84.772a4.589,4.589,0,1,1,0,9.179" transform="translate(-16.688 -4.859)" fill="#e0e0e0"/>
            <path id="Trazado_874491" data-name="Trazado 874491" d="M290.5,92.932H240.533a4.589,4.589,0,0,1,0-9.179H290.5a4.589,4.589,0,1,1,0,9.179" transform="translate(-18.137 -6.438)" fill="#e0e0e0"/>
            <rect id="Rectángulo_401528" data-name="Rectángulo 401528" width="10.515" height="10.515" transform="translate(346.468 80.393)" fill="#ff725e"/>
            <path id="Trazado_874492" data-name="Trazado 874492" d="M165.028,103.541H128.037a3.032,3.032,0,1,1,0-6.063h36.992a3.032,3.032,0,1,1,0,6.063" transform="translate(-9.609 -7.493)" fill="#e0e0e0"/>
            <path id="Trazado_874493" data-name="Trazado 874493" d="M165.028,116.441H128.037a3.032,3.032,0,0,1,0-6.064h36.992a3.032,3.032,0,0,1,0,6.064" transform="translate(-9.609 -8.485)" fill="#e0e0e0"/>
            <path id="Trazado_874494" data-name="Trazado 874494" d="M139.177,129.062h-11.14a3.032,3.032,0,1,1,0-6.063h11.14a3.032,3.032,0,0,1,0,6.063" transform="translate(-9.609 -9.455)" fill="#e0e0e0"/>
            <rect id="Rectángulo_401529" data-name="Rectángulo 401529" width="10.515" height="10.514" transform="translate(115.395 69.447)" fill="#ff725e"/>
            <path id="Trazado_874495" data-name="Trazado 874495" d="M422.7,239.725H385.708a3.032,3.032,0,0,1,0-6.064H422.7a3.032,3.032,0,0,1,0,6.064" transform="translate(-29.416 -17.962)" fill="#e0e0e0"/>
            <path id="Trazado_874496" data-name="Trazado 874496" d="M422.7,252.625H385.708a3.032,3.032,0,0,1,0-6.064H422.7a3.032,3.032,0,0,1,0,6.064" transform="translate(-29.416 -18.953)" fill="#e0e0e0"/>
            <path id="Trazado_874497" data-name="Trazado 874497" d="M396.847,265.246h-11.14a3.032,3.032,0,1,1,0-6.063h11.14a3.032,3.032,0,1,1,0,6.063" transform="translate(-29.416 -19.923)" fill="#e0e0e0"/>
            <rect id="Rectángulo_401530" data-name="Rectángulo 401530" width="10.514" height="10.515" transform="translate(353.26 197.731)" fill="#ff725e"/>
            <path id="Trazado_874498" data-name="Trazado 874498" d="M370.421,222.6a9.714,9.714,0,0,1-1.559.093l-4.252.077c-3.59.043-8.549.07-14.027.07s-10.439-.027-14.029-.07l-4.251-.077a9.7,9.7,0,0,1-1.559-.093,9.7,9.7,0,0,1,1.559-.093l4.251-.077c3.59-.043,8.55-.07,14.029-.07s10.437.027,14.027.07l4.252.077a9.71,9.71,0,0,1,1.559.093" transform="translate(-25.424 -17.093)" fill="#263238"/>
            <path id="Trazado_874499" data-name="Trazado 874499" d="M153.033,142.01c.094-.094,11.366,11.026,25.173,24.832s24.928,25.081,24.834,25.175-11.363-11.023-25.175-24.834S152.939,142.1,153.033,142.01" transform="translate(-11.764 -10.916)" fill="#263238"/>
            <path id="Trazado_874500" data-name="Trazado 874500" d="M198.442,133.824a.462.462,0,0,1-.462-.462V119.74a.462.462,0,0,1,.462-.462h13.647a.462.462,0,0,1,0,.923H198.9v13.161a.462.462,0,0,1-.462.462" transform="translate(-15.219 -9.169)" fill="#ff725e"/>
            <path id="Trazado_874501" data-name="Trazado 874501" d="M327.842,133.835a.462.462,0,0,1-.462-.462V120.188H314.219a.462.462,0,0,1,0-.923h13.623a.461.461,0,0,1,.462.462v13.647a.462.462,0,0,1-.462.462" transform="translate(-24.119 -9.168)" fill="#ff725e"/>
            <path id="Trazado_874502" data-name="Trazado 874502" d="M327.84,257.551H314.194a.462.462,0,0,1,0-.923h13.185V243.466a.462.462,0,0,1,.923,0v13.624a.462.462,0,0,1-.462.462" transform="translate(-24.117 -18.68)" fill="#ff725e"/>
            <path id="Trazado_874503" data-name="Trazado 874503" d="M212.064,257.383H198.442a.462.462,0,0,1-.462-.462V243.275a.462.462,0,1,1,.923,0V256.46h13.161a.462.462,0,0,1,0,.923" transform="translate(-15.219 -18.665)" fill="#ff725e"/>
            <path id="Trazado_874504" data-name="Trazado 874504" d="M273.577,307.8a11.255,11.255,0,1,1-11.256-11.256A11.256,11.256,0,0,1,273.577,307.8" transform="translate(-19.299 -22.795)" fill="#e0e0e0"/>
            <path id="Trazado_874505" data-name="Trazado 874505" d="M205.187,44.757l7.607-7.478a1.731,1.731,0,0,0-2.448-2.447l-7.607,7.477a1.731,1.731,0,1,0,2.448,2.448" transform="translate(-15.546 -2.64)" fill="#e0e0e0"/>
            <path id="Trazado_874506" data-name="Trazado 874506" d="M212.734,42.368l-7.477-7.607a1.731,1.731,0,1,0-2.448,2.448l7.477,7.607a1.731,1.731,0,0,0,2.448-2.448" transform="translate(-15.552 -2.634)" fill="#e0e0e0"/>
            <path id="Trazado_874507" data-name="Trazado 874507" d="M330.768,234.05c0,.133-31.982.24-71.425.24s-71.432-.107-71.432-.24,31.975-.24,71.432-.24,71.425.107,71.425.24" transform="translate(-14.445 -17.973)" fill="#263238"/>
          </g>
        </g>
        <rect id="Rectángulo_401532" data-name="Rectángulo 401532" width="146.773" height="134.539" transform="translate(142.756 292.48)" fill="#ff725e"/>
        <g id="Grupo_1100120" data-name="Grupo 1100120" transform="translate(0 32)">
          <g id="Grupo_1100119" data-name="Grupo 1100119" clip-path="url(#clip-path-3)">
            <g id="Grupo_1100118" data-name="Grupo 1100118" transform="translate(142.755 260.479)" opacity="0.3">
              <g id="Grupo_1100117" data-name="Grupo 1100117">
                <g id="Grupo_1100116" data-name="Grupo 1100116" clip-path="url(#clip-path-6)">
                  <rect id="Rectángulo_401533" data-name="Rectángulo 401533" width="146.773" height="134.539" transform="translate(0.001 0.001)"/>
                </g>
              </g>
            </g>
          </g>
        </g>
        <rect id="Rectángulo_401536" data-name="Rectángulo 401536" width="123.667" height="134.539" transform="translate(106.232 292.48)" fill="#ff725e"/>
        <g id="Grupo_1100122" data-name="Grupo 1100122" transform="translate(0 32)">
          <g id="Grupo_1100121" data-name="Grupo 1100121" clip-path="url(#clip-path-3)">
            <path id="Trazado_874508" data-name="Trazado 874508" d="M249.023,416.951c-.133,0-.24-30.174-.24-67.388s.107-67.394.24-67.394.24,30.168.24,67.394-.107,67.388-.24,67.388" transform="translate(-19.124 -21.69)" fill="#263238"/>
            <path id="Trazado_874509" data-name="Trazado 874509" d="M308.539,355.152c0,.133-13.709.24-30.617.24s-30.619-.107-30.619-.24,13.706-.24,30.619-.24,30.617.107,30.617.24" transform="translate(-19.01 -27.282)" fill="#263238"/>
            <path id="Trazado_874510" data-name="Trazado 874510" d="M298,418.11h-7.731a.923.923,0,0,1,0-1.846h6.808v-6.769a.923.923,0,1,1,1.846,0v7.692a.922.922,0,0,1-.923.923" transform="translate(-22.242 -31.407)" fill="#fff"/>
            <path id="Trazado_874511" data-name="Trazado 874511" d="M297.983,399.494a.922.922,0,0,1-.923-.923v-7.714h-7.011a.923.923,0,0,1,0-1.846h7.934a.922.922,0,0,1,.923.923v8.637a.922.922,0,0,1-.923.923" transform="translate(-22.225 -29.903)" fill="#fff"/>
            <path id="Trazado_874512" data-name="Trazado 874512" d="M270.751,399.7a.922.922,0,0,1-.923-.923v-8.838a.922.922,0,0,1,.923-.923h7.889a.923.923,0,0,1,0,1.846h-6.966v7.915a.922.922,0,0,1-.923.923" transform="translate(-20.742 -29.903)" fill="#fff"/>
            <path id="Trazado_874513" data-name="Trazado 874513" d="M278.437,418.144h-7.686a.922.922,0,0,1-.923-.923v-7.286a.923.923,0,1,1,1.846,0V416.3h6.763a.923.923,0,0,1,0,1.846" transform="translate(-20.742 -31.441)" fill="#fff"/>
            <path id="Trazado_874514" data-name="Trazado 874514" d="M289.238,411.549h-9.719a.923.923,0,0,1-.923-.923V395.64a.923.923,0,0,1,.923-.923h9.719a.923.923,0,0,1,.923.923v14.986a.923.923,0,0,1-.923.923m-8.8-1.846h7.871V396.564h-7.871Z" transform="translate(-21.416 -30.342)" fill="#fff"/>
            <path id="Trazado_874515" data-name="Trazado 874515" d="M285.759,409.181a.837.837,0,1,1-.837-.837.837.837,0,0,1,.837.837" transform="translate(-21.838 -31.389)" fill="#fff"/>
            <path id="Trazado_874516" data-name="Trazado 874516" d="M285.785,399.025H283.6a.923.923,0,0,1,0-1.846h2.185a.923.923,0,1,1,0,1.846" transform="translate(-21.729 -30.531)" fill="#fff"/>
            <path id="Trazado_874517" data-name="Trazado 874517" d="M201.279,362.1H138.9a3.781,3.781,0,0,1,0-7.561h62.383a3.781,3.781,0,0,1,0,7.561" transform="translate(-10.386 -27.254)" fill="#fff"/>
            <path id="Trazado_874518" data-name="Trazado 874518" d="M155.723,374.744H138.9a3.781,3.781,0,0,1,0-7.561h16.827a3.781,3.781,0,0,1,0,7.561" transform="translate(-10.386 -28.225)" fill="#fff"/>
            <path id="Trazado_874519" data-name="Trazado 874519" d="M153.365,389.588a61.281,61.281,0,0,1-7.669.241,61.278,61.278,0,0,1-7.67-.241,61.383,61.383,0,0,1,7.67-.24,61.386,61.386,0,0,1,7.669.24" transform="translate(-10.61 -29.929)" fill="#fff"/>
            <path id="Trazado_874520" data-name="Trazado 874520" d="M208.068,417.653h-4.954a1.856,1.856,0,0,1-1.856-1.855v-4.955a1.856,1.856,0,0,1,1.856-1.855h4.954a1.856,1.856,0,0,1,1.856,1.855V415.8a1.856,1.856,0,0,1-1.856,1.855" transform="translate(-15.471 -31.439)" fill="#fff"/>
            <path id="Trazado_874521" data-name="Trazado 874521" d="M221.188,417.653h-4.954a1.856,1.856,0,0,1-1.856-1.855v-4.955a1.856,1.856,0,0,1,1.856-1.855h4.954a1.856,1.856,0,0,1,1.855,1.855V415.8a1.856,1.856,0,0,1-1.855,1.855" transform="translate(-16.479 -31.439)" fill="#fff"/>
            <path id="Trazado_874522" data-name="Trazado 874522" d="M234.308,417.536h-4.954a1.856,1.856,0,0,1-1.856-1.855v-4.955a1.856,1.856,0,0,1,1.856-1.855h4.954a1.856,1.856,0,0,1,1.855,1.855v4.955a1.856,1.856,0,0,1-1.855,1.855" transform="translate(-17.488 -31.43)" fill="#fff"/>
            <rect id="Rectángulo_401537" data-name="Rectángulo 401537" width="57.187" height="19.584" transform="translate(126.085 292.821)" fill="#fff"/>
            <path id="Trazado_874523" data-name="Trazado 874523" d="M330.2,379.81c5.77,4.16,6.054,12.894,1.264,17.8-2.076,2.128,1.184,5.395,3.264,3.264a16.643,16.643,0,0,0,4.659-12.822,16.443,16.443,0,0,0-6.857-12.229,2.327,2.327,0,0,0-3.158.827,2.359,2.359,0,0,0,.828,3.158" transform="translate(-25.295 -28.864)" fill="#ff725e"/>
            <path id="Trazado_874524" data-name="Trazado 874524" d="M337.973,373.484c9.236,6.614,9.92,20.66,2.135,28.588-2.083,2.121,1.178,5.387,3.263,3.263a24.206,24.206,0,0,0,3.355-29.011A23.182,23.182,0,0,0,340.3,369.5a2.326,2.326,0,0,0-3.158.828,2.358,2.358,0,0,0,.828,3.157" transform="translate(-25.892 -28.378)" fill="#ff725e"/>
            <path id="Trazado_874525" data-name="Trazado 874525" d="M346.4,366.129c9.839,7.018,12.872,20.482,8.391,31.346a25.493,25.493,0,0,1-5.382,8.068c-2.087,2.118,1.174,5.383,3.264,3.263a31.54,31.54,0,0,0,4.281-37.953,29.969,29.969,0,0,0-8.224-8.71,2.327,2.327,0,0,0-3.158.828,2.358,2.358,0,0,0,.828,3.157" transform="translate(-26.54 -27.812)" fill="#ff725e"/>
          </g>
        </g>
        <g id="Grupo_1100142" data-name="Grupo 1100142" transform="translate(0 32)">
          <g id="Grupo_1100141" data-name="Grupo 1100141" clip-path="url(#clip-path-3)">
            <path id="Trazado_874526" data-name="Trazado 874526" d="M73.518,396.963l-.585,27.946,36.785.866c-.127-3.326-18.982-10.442-18.982-10.442l1.153-17.891Z" transform="translate(-5.606 -30.515)" fill="#455a64"/>
            <g id="Grupo_1100125" data-name="Grupo 1100125" transform="translate(72.687 382.993)" opacity="0.6">
              <g id="Grupo_1100124" data-name="Grupo 1100124">
                <g id="Grupo_1100123" data-name="Grupo 1100123" clip-path="url(#clip-path-9)">
                  <path id="Trazado_874527" data-name="Trazado 874527" d="M79.847,414.937a1.42,1.42,0,0,0-1.081,1.6,1.446,1.446,0,0,0,1.663,1.027,1.5,1.5,0,0,0,1.136-1.695,1.52,1.52,0,0,0-1.856-.887" transform="translate(-78.74 -414.885)" fill="#fff"/>
                </g>
              </g>
            </g>
            <g id="Grupo_1100128" data-name="Grupo 1100128" transform="translate(67.326 391.58)" opacity="0.6">
              <g id="Grupo_1100127" data-name="Grupo 1100127">
                <g id="Grupo_1100126" data-name="Grupo 1100126" clip-path="url(#clip-path-10)">
                  <path id="Trazado_874528" data-name="Trazado 874528" d="M72.933,427l.174-2.815,35.2,1.883s1.621.712,1.408,1.8Z" transform="translate(-72.933 -424.187)" fill="#fff"/>
                </g>
              </g>
            </g>
            <path id="Trazado_874529" data-name="Trazado 874529" d="M92.586,416.673c-.01.17-.91.225-1.808.75-.913.5-1.388,1.228-1.552,1.156-.164-.036.13-1.045,1.23-1.663s2.174-.4,2.131-.244" transform="translate(-6.856 -32.016)" fill="#263238"/>
            <path id="Trazado_874530" data-name="Trazado 874530" d="M96.8,418.413c.037.165-.749.436-1.377,1.14-.651.686-.825,1.459-1,1.447-.17.023-.268-.974.532-1.835s1.851-.913,1.85-.751" transform="translate(-7.249 -32.158)" fill="#263238"/>
            <path id="Trazado_874531" data-name="Trazado 874531" d="M99.238,422.961c-.165.032-.392-.822.093-1.74s1.336-1.269,1.409-1.126c.1.142-.462.628-.847,1.388-.406.75-.476,1.465-.654,1.478" transform="translate(-7.613 -32.29)" fill="#263238"/>
            <path id="Trazado_874532" data-name="Trazado 874532" d="M92.316,412.186c-.079.153-.9-.1-1.915-.059-1.017.021-1.817.325-1.906.177-.1-.126.688-.736,1.886-.768s2.026.519,1.935.65" transform="translate(-6.802 -31.635)" fill="#263238"/>
            <path id="Trazado_874533" data-name="Trazado 874533" d="M91.343,407.507a3.644,3.644,0,0,1-1.843-.053,8.588,8.588,0,0,1-1.912-.6,8.763,8.763,0,0,1-1.045-.556,2.231,2.231,0,0,1-.545-.423.708.708,0,0,1-.059-.9,1.006,1.006,0,0,1,.8-.369,2.5,2.5,0,0,1,.689.106,6.9,6.9,0,0,1,1.135.4,6.537,6.537,0,0,1,1.671,1.094c.835.767,1.109,1.409,1.046,1.44-.083.054-.484-.487-1.336-1.124a7.462,7.462,0,0,0-1.62-.914,7.178,7.178,0,0,0-1.051-.333c-.387-.106-.718-.116-.823.045-.038.062-.042.087.036.2a1.8,1.8,0,0,0,.4.309,10.029,10.029,0,0,0,.96.548,10.577,10.577,0,0,0,1.763.687,13.149,13.149,0,0,1,1.734.458" transform="translate(-6.596 -31.101)" fill="#263238"/>
            <path id="Trazado_874534" data-name="Trazado 874534" d="M91.506,407.55a2.664,2.664,0,0,1-.441-1.693,5.376,5.376,0,0,1,.3-1.9,5.6,5.6,0,0,1,.5-1.046,1.51,1.51,0,0,1,1.2-.851.859.859,0,0,1,.757.5,2.256,2.256,0,0,1,.172.643,3.646,3.646,0,0,1-.03,1.172,3.891,3.891,0,0,1-.835,1.78c-.742.884-1.5,1.069-1.511,1.012-.057-.087.578-.4,1.15-1.253a3.874,3.874,0,0,0,.626-1.622,3.415,3.415,0,0,0-.007-1.007c-.048-.371-.186-.672-.334-.638-.182-.007-.5.264-.659.555a5.709,5.709,0,0,0-.481.933,5.947,5.947,0,0,0-.4,1.729c-.078,1.019.1,1.659,0,1.683" transform="translate(-7 -30.906)" fill="#263238"/>
            <path id="Trazado_874535" data-name="Trazado 874535" d="M40.032,399.293l-3.514,27.73L0,422.492c.613-3.272,20.307-7.548,20.307-7.548l1.481-17.866Z" transform="translate(0 -30.523)" fill="#455a64"/>
            <g id="Grupo_1100131" data-name="Grupo 1100131" transform="translate(29.846 384.218)" opacity="0.6">
              <g id="Grupo_1100130" data-name="Grupo 1100130">
                <g id="Grupo_1100129" data-name="Grupo 1100129" clip-path="url(#clip-path-11)">
                  <path id="Trazado_874536" data-name="Trazado 874536" d="M34.267,416.319a1.421,1.421,0,0,1,.835,1.737,1.445,1.445,0,0,1-1.8.772,1.5,1.5,0,0,1-.875-1.843,1.521,1.521,0,0,1,1.966-.606" transform="translate(-32.331 -416.212)" fill="#fff"/>
                </g>
              </g>
            </g>
            <g id="Grupo_1100134" data-name="Grupo 1100134" transform="translate(0 390.395)" opacity="0.6">
              <g id="Grupo_1100133" data-name="Grupo 1100133">
                <g id="Grupo_1100132" data-name="Grupo 1100132" clip-path="url(#clip-path-12)">
                  <path id="Trazado_874537" data-name="Trazado 874537" d="M36.516,429.009l.238-2.81L1.655,422.9s-1.707.467-1.654,1.573Z" transform="translate(0 -422.904)" fill="#fff"/>
                </g>
              </g>
            </g>
            <path id="Trazado_874538" data-name="Trazado 874538" d="M21.382,416.153c-.015.169.868.356,1.679,1.007.829.631,1.193,1.418,1.365,1.371.168-.012.024-1.052-.973-1.825s-2.092-.713-2.072-.553" transform="translate(-1.644 -31.982)" fill="#263238"/>
            <path id="Trazado_874539" data-name="Trazado 874539" d="M17.036,417.264c-.061.158.677.541,1.2,1.329.544.774.6,1.564.782,1.579.164.047.407-.925-.258-1.893s-1.7-1.175-1.72-1.015" transform="translate(-1.309 -32.071)" fill="#263238"/>
            <path id="Trazado_874540" data-name="Trazado 874540" d="M14.02,421.415c.158.056.508-.755.162-1.735s-1.135-1.451-1.227-1.32c-.118.126.364.689.634,1.5.291.8.256,1.519.431,1.558" transform="translate(-0.994 -32.158)" fill="#263238"/>
            <path id="Trazado_874541" data-name="Trazado 874541" d="M22.264,411.761c.056.163.9.032,1.9.222,1,.171,1.749.588,1.859.455.118-.109-.571-.828-1.753-1.037s-2.08.217-2.009.36" transform="translate(-1.711 -31.62)" fill="#263238"/>
            <path id="Trazado_874542" data-name="Trazado 874542" d="M23.744,407.291a3.649,3.649,0,0,0,1.831.218,8.611,8.611,0,0,0,1.98-.318,8.735,8.735,0,0,0,1.114-.4,2.232,2.232,0,0,0,.6-.338.709.709,0,0,0,.191-.887,1.008,1.008,0,0,0-.735-.482,2.531,2.531,0,0,0-.7,0,6.977,6.977,0,0,0-1.182.228,6.505,6.505,0,0,0-1.813.837c-.937.636-1.3,1.23-1.245,1.27.074.066.55-.411,1.486-.916a7.451,7.451,0,0,1,1.736-.667,7.066,7.066,0,0,1,1.087-.175c.4-.049.727-.01.807.165.029.066.03.091-.064.188a1.842,1.842,0,0,1-.442.246,9.642,9.642,0,0,1-1.029.4,10.538,10.538,0,0,1-1.845.422,13.318,13.318,0,0,0-1.782.2" transform="translate(-1.825 -31.137)" fill="#263238"/>
            <path id="Trazado_874543" data-name="Trazado 874543" d="M23.8,407.3c.06.034.487-.526.685-1.61a5.364,5.364,0,0,0-.02-1.924,5.573,5.573,0,0,0-.338-1.108,1.515,1.515,0,0,0-1.061-1.018.859.859,0,0,0-.823.388,2.258,2.258,0,0,0-.265.61,3.677,3.677,0,0,0-.142,1.165,3.91,3.91,0,0,0,.564,1.883c.606.983,1.325,1.277,1.347,1.221.07-.078-.512-.48-.954-1.407a3.885,3.885,0,0,1-.382-1.7,3.426,3.426,0,0,1,.155-1c.1-.36.283-.638.424-.582.182.02.457.335.571.646a5.642,5.642,0,0,1,.339.993,5.949,5.949,0,0,1,.145,1.77c-.073,1.019-.34,1.627-.246,1.664" transform="translate(-1.678 -30.873)" fill="#263238"/>
            <path id="Trazado_874544" data-name="Trazado 874544" d="M101.3,236.173l-60.65,1.94s-13.5,90.143-13.126,96.405L19.2,399.906l24.223.848s3.811-21.2,6.467-35.716c1.768-9.656,4.994-23.822,5.869-31.885S68.7,269.6,68.7,269.6s1.049,64.549,1.073,67.233-2.8,63.872-2.8,63.872H91.026c1.243-11.043,4.194-55.236,4.83-64.167,1.147-16.122,6.787-62.51,7.314-74.15s-1.874-26.212-1.874-26.212" transform="translate(-1.476 -18.155)" fill="#263238"/>
            <path id="Trazado_874545" data-name="Trazado 874545" d="M52.377,246.188a19.02,19.02,0,0,1-.171-5.624,19.021,19.021,0,0,1,.171,5.624" transform="translate(-4.002 -18.492)" fill="#455a64"/>
            <path id="Trazado_874546" data-name="Trazado 874546" d="M54.792,245.551a13.717,13.717,0,0,1,.445-4.756,13.777,13.777,0,0,1-.445,4.756" transform="translate(-4.206 -18.51)" fill="#455a64"/>
            <path id="Trazado_874547" data-name="Trazado 874547" d="M94.877,245.609a10.176,10.176,0,0,1,0-4.109,10.175,10.175,0,0,1,0,4.109" transform="translate(-7.277 -18.564)" fill="#455a64"/>
            <path id="Trazado_874548" data-name="Trazado 874548" d="M97.449,246.69a7.726,7.726,0,0,1,.432-5.19,19.526,19.526,0,0,1-.249,2.592,19.578,19.578,0,0,1-.183,2.6" transform="translate(-7.47 -18.564)" fill="#455a64"/>
            <path id="Trazado_874549" data-name="Trazado 874549" d="M76.541,268.579a5.148,5.148,0,0,1,.14-1.055c.129-.755.292-1.711.487-2.851.4-2.408.866-5.747,1.169-9.457s.374-7.083.368-9.523c-.008-1.157-.016-2.126-.021-2.892a5.115,5.115,0,0,1,.031-1.063,5.212,5.212,0,0,1,.131,1.056c.061.682.115,1.671.155,2.895a87.02,87.02,0,0,1-.247,9.561,86.922,86.922,0,0,1-1.294,9.476c-.236,1.2-.45,2.168-.618,2.831a5.109,5.109,0,0,1-.3,1.022" transform="translate(-5.883 -18.582)" fill="#455a64"/>
            <path id="Trazado_874550" data-name="Trazado 874550" d="M74.128,242.468a2.2,2.2,0,0,0-1.212.676,1.7,1.7,0,0,0-.4,1.357,1.574,1.574,0,0,0,2.744.522,1.7,1.7,0,0,0,.129-1.408,2.2,2.2,0,0,0-.88-1.073c0-.019.161-.023.4.1a1.739,1.739,0,0,1,.752.864,1.943,1.943,0,0,1-.078,1.713,1.931,1.931,0,0,1-3.453-.656,1.95,1.95,0,0,1,.557-1.623,1.744,1.744,0,0,1,1.017-.527c.273-.029.418.031.414.051" transform="translate(-5.544 -18.634)" fill="#455a64"/>
            <path id="Trazado_874551" data-name="Trazado 874551" d="M44.685,349.8a51.4,51.4,0,0,1-6.134-2.293,51.339,51.339,0,0,1-5.975-2.681,51.454,51.454,0,0,1,6.135,2.293,51.373,51.373,0,0,1,5.974,2.681" transform="translate(-2.504 -26.506)" fill="#455a64"/>
            <path id="Trazado_874552" data-name="Trazado 874552" d="M105.583,231.994c-.215-.775-5.045-40.792-5.045-40.792l2.507-51.935-21.61-7.579-3.42-2.612-21.722.252-2.461,3.665-20.568,9.361,5.732,42.55L40.6,220.511,42.124,233.7l60.963,3.635Z" transform="translate(-2.557 -9.922)" fill="#ff725e"/>
            <g id="Grupo_1100137" data-name="Grupo 1100137" transform="translate(76.874 195.38)" opacity="0.3">
              <g id="Grupo_1100136" data-name="Grupo 1100136">
                <g id="Grupo_1100135" data-name="Grupo 1100135" clip-path="url(#clip-path-13)">
                  <path id="Trazado_874553" data-name="Trazado 874553" d="M106.11,211.649,83.3,214.39a4.034,4.034,0,0,0,2.636,3.955,9.565,9.565,0,0,0,5.035.318,22.333,22.333,0,0,1,5.074-.462c1.7.15,3.356.822,5.062.717a5.607,5.607,0,0,0,5.005-7.27" transform="translate(-83.275 -211.649)"/>
                </g>
              </g>
            </g>
            <path id="Trazado_874554" data-name="Trazado 874554" d="M108.515,140.115s5.059.708,8.013,9.57,9.9,41.065,10.34,43.28-1.482,9.287-9.193,12.451a26.748,26.748,0,0,1-13.26,2.079v-16.3l3.249-3.545-1.272-5.75Z" transform="translate(-8.026 -10.771)" fill="#ff725e"/>
            <path id="Trazado_874555" data-name="Trazado 874555" d="M122.253,192.333a6.606,6.606,0,0,1-.772-.324c-.492-.218-1.206-.532-2.107-.863a20.479,20.479,0,0,0-3.236-.92,14.585,14.585,0,0,0-1.966-.248,7.946,7.946,0,0,0-2.106.125,11.025,11.025,0,0,0-6.31,3.691,7.422,7.422,0,0,0-1.1,1.964,7.156,7.156,0,0,1-.246.8.739.739,0,0,1,.028-.215c.029-.139.065-.348.132-.61a6.935,6.935,0,0,1,1.052-2.037,10.9,10.9,0,0,1,6.4-3.818,8.049,8.049,0,0,1,2.163-.125,14.3,14.3,0,0,1,1.994.266,19.279,19.279,0,0,1,3.252.977c.9.354,1.605.692,2.087.935.241.12.426.221.549.29a.762.762,0,0,1,.184.116" transform="translate(-8.026 -14.584)" fill="#263238"/>
            <path id="Trazado_874556" data-name="Trazado 874556" d="M117.908,189.188c-.016.041-.61-.235-1.631-.443a8.985,8.985,0,0,0-7.6,1.9c-.8.665-1.2,1.187-1.23,1.159a1.56,1.56,0,0,1,.258-.379,7.453,7.453,0,0,1,.864-.906,8.581,8.581,0,0,1,7.742-1.938,7.366,7.366,0,0,1,1.188.391,1.566,1.566,0,0,1,.407.212" transform="translate(-8.259 -14.478)" fill="#263238"/>
            <path id="Trazado_874557" data-name="Trazado 874557" d="M107.016,154.5c.065,0,.02,7.932-.1,17.713s-.267,17.713-.331,17.712-.02-7.931.1-17.715.267-17.711.331-17.71" transform="translate(-8.191 -11.877)" fill="#263238"/>
            <path id="Trazado_874558" data-name="Trazado 874558" d="M105.611,193.581l-12.146-.157a2.294,2.294,0,0,0-2.017,1.159L83.14,212.572l.313,1.213H97.571l8.256-18.548Z" transform="translate(-6.391 -14.868)" fill="#263238"/>
            <path id="Trazado_874559" data-name="Trazado 874559" d="M105.581,196.177l-.449,1.014-2.461,4.977s-6.366-.57-7.367-.7-1.535.934-1.6,1.563a2.247,2.247,0,0,0,.534,1.348,29.36,29.36,0,0,1-5.273-2.177c-1.335-.935-2-.348-2-.348a1.836,1.836,0,0,0-2.8.348,22.993,22.993,0,0,0,1.936,4.688c.534.817,3.471,3.656,3.671,3.99s2.469.934,5.073,2.36a3.852,3.852,0,0,0,4.507-.462,3.37,3.37,0,0,0,.366-.03c.6-.066,2.2-1.6,2.6-1.554s.734-.048,1.535-.934a26.537,26.537,0,0,0,3.525-6.657c.466-1.589.193-2,.06-2.1a7.551,7.551,0,0,0,2.356.7c1.669.267,2.537-.934,2.67-3.2s-5.007-2.216-6.876-2.817" transform="translate(-6.469 -15.08)" fill="#ffc09d"/>
            <path id="Trazado_874560" data-name="Trazado 874560" d="M105.557,207.228a1.788,1.788,0,0,1-.422.1,10.2,10.2,0,0,1-1.174.145,13.857,13.857,0,0,1-7.546-1.636,9.963,9.963,0,0,1-1.008-.618,1.78,1.78,0,0,1-.342-.267c.02-.031.533.312,1.418.756a15.343,15.343,0,0,0,7.471,1.619c.99-.038,1.6-.138,1.6-.1" transform="translate(-7.308 -15.755)" fill="#ff9b6c"/>
            <path id="Trazado_874561" data-name="Trazado 874561" d="M106.309,202.486a4.273,4.273,0,0,1-3,.135c.011-.06.679.04,1.5,0s1.478-.193,1.495-.135" transform="translate(-7.942 -15.564)" fill="#ff9b6c"/>
            <path id="Trazado_874562" data-name="Trazado 874562" d="M109.479,202.155c-.025.055-.926-.327-2.084-.645s-2.125-.462-2.119-.522a8.966,8.966,0,0,1,4.2,1.167" transform="translate(-8.093 -15.449)" fill="#ff9b6c"/>
            <path id="Trazado_874563" data-name="Trazado 874563" d="M109.164,197.612c.056.019-.174.714-.183,1.6a3.683,3.683,0,0,0,.112,1.1c.09.265.271.33.259.359,0,.011-.055.015-.136-.025a.6.6,0,0,1-.255-.275,2.748,2.748,0,0,1-.186-1.165,2.916,2.916,0,0,1,.388-1.594" transform="translate(-8.362 -15.19)" fill="#ff9b6c"/>
            <path id="Trazado_874564" data-name="Trazado 874564" d="M101.265,210.909a.715.715,0,0,1-.2.007l-.566-.02c-.49-.025-1.2-.063-2.074-.164A15.353,15.353,0,0,1,95.4,210.1a10.069,10.069,0,0,1-1.684-.728c-.56-.3-1.111-.661-1.675-1.02-2.537-1.619-4.795-3.079-6.253-4.037l-.035-.023.006-.039a2.2,2.2,0,0,1,.807-1.448,1.976,1.976,0,0,1,.378-.238.48.48,0,0,1,.146-.051,4.641,4.641,0,0,0-.478.342,2.187,2.187,0,0,0-.723,1.408l-.03-.061c1.483.919,3.757,2.355,6.293,3.974.565.36,1.111.716,1.661,1.017a10.275,10.275,0,0,0,1.648.726,16.128,16.128,0,0,0,2.985.669c.867.12,1.575.179,2.063.229l.562.058a.706.706,0,0,1,.195.034" transform="translate(-6.592 -15.567)" fill="#ff9b6c"/>
            <path id="Trazado_874565" data-name="Trazado 874565" d="M99.139,213.378a3.177,3.177,0,0,1-.6-.066c-.381-.059-.932-.155-1.608-.3a30.524,30.524,0,0,1-5.159-1.592,10.619,10.619,0,0,1-2.561-1.531,15.093,15.093,0,0,1-1.742-1.7c-.458-.518-.806-.955-1.045-1.259a3.145,3.145,0,0,1-.352-.486,3.46,3.46,0,0,1,.413.436c.258.287.622.71,1.091,1.212a16.568,16.568,0,0,0,1.753,1.651,10.869,10.869,0,0,0,2.525,1.491,35.358,35.358,0,0,0,5.11,1.639c.668.165,1.213.282,1.59.365a3.735,3.735,0,0,1,.582.144" transform="translate(-6.617 -15.869)" fill="#ff9b6c"/>
            <path id="Trazado_874566" data-name="Trazado 874566" d="M35.66,154.121a32.813,32.813,0,0,1-1.281-3.684,32.786,32.786,0,0,1-1.06-3.753,32.727,32.727,0,0,1,1.281,3.684,32.668,32.668,0,0,1,1.06,3.753" transform="translate(-2.561 -11.276)" fill="#263238"/>
            <path id="Trazado_874567" data-name="Trazado 874567" d="M108.571,142.8a5.631,5.631,0,0,1-.113,1.1c-.1.756-.221,1.644-.352,2.625-.114.983-.217,1.873-.3,2.631a5.565,5.565,0,0,1-.161,1.09,4.84,4.84,0,0,1,0-1.1c.032-.679.108-1.616.237-2.648s.286-1.957.421-2.624a4.853,4.853,0,0,1,.274-1.068" transform="translate(-8.272 -10.977)" fill="#263238"/>
            <path id="Trazado_874568" data-name="Trazado 874568" d="M83.488,208.918a5.711,5.711,0,0,1-.907.726c-.6.446-1.487,1.061-2.6,1.794a88.694,88.694,0,0,1-18.66,9.252c-1.259.444-2.287.779-3,.986a5.789,5.789,0,0,1-1.126.282,5.674,5.674,0,0,1,1.07-.45l2.948-1.119c2.482-.961,5.875-2.381,9.514-4.182s6.819-3.645,9.086-5.04l2.676-1.669a5.657,5.657,0,0,1,1.005-.58" transform="translate(-4.396 -16.059)" fill="#263238"/>
            <g id="Grupo_1100140" data-name="Grupo 1100140" transform="translate(18.073 193.297)" opacity="0.3">
              <g id="Grupo_1100139" data-name="Grupo 1100139">
                <g id="Grupo_1100138" data-name="Grupo 1100138" clip-path="url(#clip-path-14)">
                  <path id="Trazado_874569" data-name="Trazado 874569" d="M34.5,212.955a34.555,34.555,0,0,0-6.917-3.042,11.62,11.62,0,0,0-7.435.179c-.259.107-.552.277-.57.558-.027.39.465.575.851.637,4.636.736,9.535,1.077,14.179,1.759" transform="translate(-19.578 -209.393)"/>
                </g>
              </g>
            </g>
            <path id="Trazado_874570" data-name="Trazado 874570" d="M61.11,255.093a61.088,61.088,0,0,1-6.131-5.614C53.6,247.725,52.7,246.71,52.7,246.71S47.008,245,44.914,242.6s-5.531-5.884-5.531-5.884l-6.75,7.072s3.893,6.311,4.209,8.391,2.694,7.812,2.694,7.812l12.954-7.745s2.759,3.861,4.526,4.283c1.447.344,3.981,1.391,4.093-1.433" transform="translate(-2.509 -18.196)" fill="#ffc09d"/>
            <path id="Trazado_874571" data-name="Trazado 874571" d="M31.684,143.46s-4.669,1.188-9.3,18.593c-4.178,15.714-9.857,46.048-9.664,49.1s18.24,30.421,18.24,30.421l3.9,1.386,8.383-6.97s2.736-4.537,1.957-5.645-4.258-3.43-4.258-3.43l-6.861-18.936,3.808-25.1Z" transform="translate(-0.978 -11.028)" fill="#ff725e"/>
            <path id="Trazado_874572" data-name="Trazado 874572" d="M28.2,212.065a1.951,1.951,0,0,1,.5.032l1.424.19,5.168.787.1.015.037.1,3.929,10.7c1.07,2.984,2.078,5.792,2.951,8.225l-.063-.087c.565.476,1.123.879,1.624,1.375a5.722,5.722,0,0,1,1.112,1.607,5.655,5.655,0,0,1,.47,3.106,7.888,7.888,0,0,1-.592,1.933,3.1,3.1,0,0,1-.3.648,3.154,3.154,0,0,1,.181-.691,9.214,9.214,0,0,0,.475-1.917,5.54,5.54,0,0,0-.534-2.938,5.474,5.474,0,0,0-1.075-1.49c-.46-.44-1.051-.86-1.614-1.323l-.044-.036-.018-.051c-.888-2.429-1.913-5.231-3-8.208-1.447-4.049-2.78-7.774-3.838-10.737l.138.115-5.142-.942-1.409-.284a1.845,1.845,0,0,1-.487-.136" transform="translate(-2.168 -16.301)" fill="#263238"/>
            <path id="Trazado_874573" data-name="Trazado 874573" d="M37.843,163.853c.125-.006.913,12.795,1.76,28.589s1.433,28.61,1.308,28.616-.913-12.792-1.76-28.592-1.433-28.607-1.308-28.613" transform="translate(-2.908 -12.595)" fill="#263238"/>
            <path id="Trazado_874574" data-name="Trazado 874574" d="M73.517,144.218a2.326,2.326,0,0,1-.745.126,13.778,13.778,0,0,1-2.058.019,16.6,16.6,0,0,1-11.8-6.04,13.882,13.882,0,0,1-1.188-1.68,2.342,2.342,0,0,1-.333-.678c.064-.041.615.879,1.755,2.157a17.845,17.845,0,0,0,11.6,5.935c1.7.176,2.772.085,2.777.161" transform="translate(-4.411 -10.452)" fill="#263238"/>
            <path id="Trazado_874575" data-name="Trazado 874575" d="M84.913,132.884a4.116,4.116,0,0,1,.448,1.75,8.643,8.643,0,0,1-3.369,7.743,4.137,4.137,0,0,1-1.585.865c-.035-.063.57-.39,1.391-1.1a9.332,9.332,0,0,0,3.256-7.485c-.037-1.087-.21-1.753-.141-1.771" transform="translate(-6.181 -10.215)" fill="#263238"/>
            <path id="Trazado_874576" data-name="Trazado 874576" d="M91.059,86.076a4.3,4.3,0,0,0,1.959-8.33,4.474,4.474,0,0,0-3.775-7.608,5.354,5.354,0,0,0-8-4.521,6.022,6.022,0,0,0-7.41-.272,4.282,4.282,0,0,0-3.9,7.2" transform="translate(-5.283 -4.935)" fill="#263238"/>
            <path id="Trazado_874577" data-name="Trazado 874577" d="M90.773,87.134a18.246,18.246,0,0,0-17.89-17.1l-.944-.017c-10.2.415-15.542,9.308-14.845,19.49l.973,35.781c2.294,5.455,6.051,9.875,12.982,11.041a9.272,9.272,0,0,0,7.807-2.132,7.7,7.7,0,0,0,2.618-5.513l.1-7.1s9.82-1.35,10.114-11.139c.142-4.728-.358-14.49-.913-23.318" transform="translate(-4.384 -5.383)" fill="#ffc09d"/>
            <path id="Trazado_874578" data-name="Trazado 874578" d="M82.641,125.54a23.748,23.748,0,0,1-12.763-3.982s2.893,7.1,12.678,6.392Z" transform="translate(-5.372 -9.344)" fill="#ff9b6c"/>
            <path id="Trazado_874579" data-name="Trazado 874579" d="M90.488,97.7a1.4,1.4,0,0,1-1.374,1.387A1.337,1.337,0,0,1,87.7,97.8a1.4,1.4,0,0,1,1.372-1.387A1.339,1.339,0,0,1,90.488,97.7" transform="translate(-6.741 -7.411)" fill="#263238"/>
            <path id="Trazado_874580" data-name="Trazado 874580" d="M90.752,93.586c-.176.179-1.222-.623-2.728-.646-1.5-.044-2.621.711-2.78.523-.078-.083.1-.409.591-.751a3.834,3.834,0,0,1,2.23-.644,3.687,3.687,0,0,1,2.167.741c.457.364.607.7.521.776" transform="translate(-6.551 -7.077)" fill="#263238"/>
            <path id="Trazado_874581" data-name="Trazado 874581" d="M76.25,98.042a1.4,1.4,0,0,1-1.374,1.387,1.337,1.337,0,0,1-1.419-1.286,1.4,1.4,0,0,1,1.372-1.387,1.337,1.337,0,0,1,1.421,1.287" transform="translate(-5.647 -7.437)" fill="#263238"/>
            <path id="Trazado_874582" data-name="Trazado 874582" d="M74.724,93.607c-.177.179-1.224-.623-2.727-.645-1.5-.044-2.621.71-2.781.522-.078-.083.1-.409.592-.751a3.833,3.833,0,0,1,2.229-.644,3.684,3.684,0,0,1,2.167.741c.455.364.606.7.521.776" transform="translate(-5.319 -7.079)" fill="#263238"/>
            <path id="Trazado_874583" data-name="Trazado 874583" d="M80.846,104.881a9.946,9.946,0,0,1,2.452-.4c.385-.032.75-.1.819-.364a1.954,1.954,0,0,0-.236-1.144q-.516-1.4-1.085-2.946c-1.5-4.194-2.586-7.639-2.416-7.7s1.526,3.292,3.03,7.486q.543,1.551,1.037,2.962a2.222,2.222,0,0,1,.173,1.511.964.964,0,0,1-.642.551,2.558,2.558,0,0,1-.654.078,9.847,9.847,0,0,1-2.478-.04" transform="translate(-6.177 -7.097)" fill="#263238"/>
            <path id="Trazado_874584" data-name="Trazado 874584" d="M74.369,88.209c-.09.421-1.451.37-3,.75-1.562.344-2.779.993-3.026.651-.112-.165.069-.571.541-1.02a4.815,4.815,0,0,1,2.175-1.125,4.646,4.646,0,0,1,2.42.059c.606.2.932.486.9.686" transform="translate(-5.251 -6.713)" fill="#263238"/>
            <path id="Trazado_874585" data-name="Trazado 874585" d="M90.7,89.031c-.317.318-1.419-.128-2.778-.255-1.355-.17-2.531.026-2.768-.352-.1-.182.107-.509.636-.791a4.141,4.141,0,0,1,2.306-.375,4.089,4.089,0,0,1,2.162.864c.452.389.583.752.441.908" transform="translate(-6.544 -6.705)" fill="#263238"/>
            <path id="Trazado_874586" data-name="Trazado 874586" d="M89.717,82.533s-2.474-6.178-5.406-7.661c-3.549-1.8-5.159,2.107-8.554,1.093s-6.782-2.737-10.315-.162c-3.866,2.819-2.115,4.876-2.427,9.216-1.267,17.6-4.571,22.522-5.34,14.209-.084-.911-2.594-1.678-2.9-5.525-.4-4.989-.482-11.039.692-14.553.99-2.962,2.724-4.99,5.81-7.205,4.87-3.5,11.475-3.457,15.952-2.926s13.032,5.843,12.487,13.515" transform="translate(-4.19 -5.285)" fill="#263238"/>
            <path id="Trazado_874587" data-name="Trazado 874587" d="M58.067,101.27a2.657,2.657,0,0,0-2.824-2.612c-1.83.141-3.88,1.142-3.826,4.918.1,6.7,6.8,5.22,6.809,5.028.006-.13-.094-4.532-.159-7.334" transform="translate(-3.952 -7.583)" fill="#ffc09d"/>
            <path id="Trazado_874588" data-name="Trazado 874588" d="M56.923,106.286c-.03-.021-.115.084-.312.176a1.158,1.158,0,0,1-.871.03,2.886,2.886,0,0,1-1.373-2.571,3.848,3.848,0,0,1,.3-1.675,1.347,1.347,0,0,1,.865-.907.594.594,0,0,1,.693.309c.092.186.052.32.087.331.019.017.142-.114.085-.39a.748.748,0,0,0-.27-.415.882.882,0,0,0-.648-.162,1.641,1.641,0,0,0-1.2,1.056,3.961,3.961,0,0,0-.378,1.872,3.031,3.031,0,0,0,1.744,2.869,1.253,1.253,0,0,0,1.064-.193c.206-.168.238-.318.215-.33" transform="translate(-4.143 -7.764)" fill="#ff9b6c"/>
            <path id="Trazado_874589" data-name="Trazado 874589" d="M58.481,85.817a6.364,6.364,0,0,0,2.812,1.359,2.184,2.184,0,0,0,2.45-1.493c.088-.464-.017-1.007.3-1.362.374-.423,1.046-.277,1.605-.208a4.273,4.273,0,0,0,4.489-2.984,1.8,1.8,0,0,0,2.4.27,9.642,9.642,0,0,0,1.857-1.918,2.752,2.752,0,0,1,2.318-1.109,6.665,6.665,0,0,0,1.45.346c.881-.063,1.328-1.085,1.476-1.954s.27-1.887,1.023-2.348a3.5,3.5,0,0,1,2.395-.024c.808.134,1.855-.038,2.077-.825a1.59,1.59,0,0,0-.278-1.219,4.336,4.336,0,0,0-5.089-1.732,5.877,5.877,0,0,0-10.777-1.33,5.964,5.964,0,0,0-9.571,2.006,4.323,4.323,0,0,0-4.985,6.2,4.1,4.1,0,0,0-2.316,3.229c-.05,1.385,1.276,2.79,2.619,2.448a2.395,2.395,0,0,0,4.1,2.461" transform="translate(-4.006 -5.097)" fill="#263238"/>
            <path id="Trazado_874590" data-name="Trazado 874590" d="M80.273,73.117a.337.337,0,0,1,0,.123c-.01.08-.018.2-.049.356a4.222,4.222,0,0,1-.509,1.281A4.787,4.787,0,0,1,78.2,76.434a4.453,4.453,0,0,1-2.756.734l.116-.147a2.427,2.427,0,0,1-.167,1.846,6.917,6.917,0,0,1-1.175,1.626,4.925,4.925,0,0,1-.763.755,2.33,2.33,0,0,1-1.068.375,2.445,2.445,0,0,1-2.141-.81l.251-.067a5.023,5.023,0,0,1-2.191,3.437,3.664,3.664,0,0,1-2.211.681,6.6,6.6,0,0,1-2.158-.514l.181-.076A5.275,5.275,0,0,1,62.5,86.312a2.808,2.808,0,0,1-2.344.594,3.686,3.686,0,0,1-2.788-2.936l.15.074a3.453,3.453,0,0,1-2.307.3,3.737,3.737,0,0,1-1.591-.743,3.237,3.237,0,0,1-.733-.832,1.592,1.592,0,0,1-.164-.349,4.033,4.033,0,0,0,.967,1.091,3.718,3.718,0,0,0,1.554.674,3.308,3.308,0,0,0,2.177-.318l.126-.069.024.142a3.479,3.479,0,0,0,2.639,2.721,2.551,2.551,0,0,0,2.128-.563,5.038,5.038,0,0,0,1.523-1.935l.055-.123.126.047a6.36,6.36,0,0,0,2.064.489,3.378,3.378,0,0,0,2.042-.634A4.752,4.752,0,0,0,70.216,80.7l.047-.316.2.249a2.174,2.174,0,0,0,1.891.715,2.083,2.083,0,0,0,.946-.324,4.856,4.856,0,0,0,.719-.708,6.753,6.753,0,0,0,1.147-1.555,2.191,2.191,0,0,0,.175-1.67l-.052-.161.168.014a4.309,4.309,0,0,0,2.64-.662,4.761,4.761,0,0,0,1.5-1.471,5.2,5.2,0,0,0,.668-1.695" transform="translate(-4.053 -5.62)" fill="#455a64"/>
            <path id="Trazado_874591" data-name="Trazado 874591" d="M76.019,108.023a23.126,23.126,0,0,1,5.288,1.754l.015.048a4.552,4.552,0,0,1-1.7,3.263,2.669,2.669,0,0,1-2.69-.051,2.991,2.991,0,0,1-1.456-2.171,6.25,6.25,0,0,1,.545-2.843" transform="translate(-5.799 -8.304)" fill="#ff9b6c"/>
            <path id="Trazado_874592" data-name="Trazado 874592" d="M78.493,113.272a2.907,2.907,0,0,1-1.694-.5,2.673,2.673,0,0,1-1.027-1.553,4.349,4.349,0,0,1,.149-2.336,4.117,4.117,0,0,1,.21-.548c.045-.036-.034-.008.031-.012l.279.086,1.152.36,1.958.582a7.437,7.437,0,0,0,1.842.421,7.473,7.473,0,0,0-1.737-.742l-1.927-.68-1.143-.387c-.108-.033-.178-.065-.325-.1a.493.493,0,0,0-.524.208,3.587,3.587,0,0,0-.271.671,4.565,4.565,0,0,0-.119,2.592,2.92,2.92,0,0,0,1.263,1.72,2.283,2.283,0,0,0,1.384.376c.342-.031.509-.129.5-.153" transform="translate(-5.781 -8.29)" fill="#263238"/>
          </g>
        </g>
      </g>
    </g>
  </g>
</svg>
