<svg xmlns="http://www.w3.org/2000/svg" xmlns:xlink="http://www.w3.org/1999/xlink" width="295.043" height="306.908" viewBox="0 0 295.043 306.908">
  <defs>
    <clipPath id="clip-path">
      <rect id="Rectángulo_401831" data-name="Rectángulo 401831" width="292.271" height="306.908" rx="40" transform="translate(392.729 1942.32)" fill="#53bced"/>
    </clipPath>
    <clipPath id="clip-path-2">
      <rect id="Rectángulo_401830" data-name="Rectángulo 401830" width="298.63" height="510.688" fill="none"/>
    </clipPath>
    <clipPath id="clip-path-4">
      <rect id="Rectángulo_401820" data-name="Rectángulo 401820" width="50.567" height="50.478" fill="none"/>
    </clipPath>
    <clipPath id="clip-path-5">
      <rect id="Rectángulo_401821" data-name="Rectángulo 401821" width="4.33" height="4.308" fill="none"/>
    </clipPath>
    <clipPath id="clip-path-6">
      <rect id="Rectángulo_401822" data-name="Rectángulo 401822" width="55.691" height="4.927" fill="none"/>
    </clipPath>
    <clipPath id="clip-path-7">
      <rect id="Rectángulo_401823" data-name="Rectángulo 401823" width="4.325" height="4.307" fill="none"/>
    </clipPath>
    <clipPath id="clip-path-8">
      <rect id="Rectángulo_401824" data-name="Rectángulo 401824" width="55.701" height="4.456" fill="none"/>
    </clipPath>
    <clipPath id="clip-path-9">
      <rect id="Rectángulo_401825" data-name="Rectángulo 401825" width="33.132" height="59.381" fill="none"/>
    </clipPath>
    <clipPath id="clip-path-10">
      <rect id="Rectángulo_401826" data-name="Rectángulo 401826" width="29.786" height="19.667" fill="none"/>
    </clipPath>
    <clipPath id="clip-path-11">
      <rect id="Rectángulo_401827" data-name="Rectángulo 401827" width="39.648" height="42.089" fill="none"/>
    </clipPath>
    <clipPath id="clip-path-12">
      <rect id="Rectángulo_401828" data-name="Rectángulo 401828" width="27.842" height="16.25" fill="none"/>
    </clipPath>
  </defs>
  <g id="Grupo_1100664" data-name="Grupo 1100664" transform="translate(-392.729 -1942.32)">
    <g id="Grupo_1100553" data-name="Grupo 1100553" transform="translate(-522.272 -84.442)">
      <g id="Grupo_1099891" data-name="Grupo 1099891" transform="translate(915 2050.066)">
        <rect id="Rectángulo_5157" data-name="Rectángulo 5157" width="273.596" height="283.604" rx="40" transform="translate(0 0)" fill="#53bced"/>
        <rect id="Rectángulo_400986" data-name="Rectángulo 400986" width="189.474" height="253.507" rx="40" transform="translate(104.069 12.302)" fill="none" stroke="#ff725d" stroke-miterlimit="10" stroke-width="3"/>
      </g>
    </g>
    <g id="Enmascarar_grupo_1098691" data-name="Enmascarar grupo 1098691" clip-path="url(#clip-path)">
      <g id="Grupo_1100590" data-name="Grupo 1100590" transform="translate(386.37 1942.32)">
        <g id="Grupo_1100589" data-name="Grupo 1100589" clip-path="url(#clip-path-2)">
          <path id="Trazado_875423" data-name="Trazado 875423" d="M52.618,38.836,74.2,242.308l216.98-26.863L267,16.382Z" transform="translate(7.45 2.319)" fill="#455a64"/>
          <g id="Grupo_1100588" data-name="Grupo 1100588">
            <g id="Grupo_1100587" data-name="Grupo 1100587" clip-path="url(#clip-path-2)">
              <path id="Trazado_875424" data-name="Trazado 875424" d="M145,57.784l-36.076,4.088a5.694,5.694,0,1,1-1.282-11.316l36.076-4.088A5.694,5.694,0,1,1,145,57.784" transform="translate(14.524 6.574)" fill="#263238"/>
              <path id="Trazado_875425" data-name="Trazado 875425" d="M271.73,215.447s-.147-.307-.416-.92-.663-1.533-1.18-2.731c-1.035-2.419-2.561-5.985-4.539-10.611l-16.945-39.84c-14.455-34.1-34.85-82.205-58.629-138.3l.538-.142,11.492,99.35c4.055,35.158,7.951,68.934,11.515,99.837l-.557-.014c10.035-59.982,18.636-111.407,24.732-147.849,3.067-18.207,5.5-32.668,7.175-42.589.844-4.946,1.494-8.759,1.936-11.347l.51-2.922c.118-.656.19-.989.19-.989s-.04.338-.142,1-.26,1.646-.465,2.93c-.42,2.591-1.041,6.409-1.846,11.362-1.634,9.927-4.016,24.4-7.015,42.615-6.044,36.451-14.573,87.888-24.521,147.884a.281.281,0,0,1-.556-.015c-3.574-30.9-7.481-64.675-11.548-99.832L190,22.969a.281.281,0,0,1,.539-.142c23.7,56.126,44.026,104.264,58.432,138.381,7.179,17.058,12.883,30.607,16.795,39.9,1.943,4.641,3.44,8.218,4.456,10.646q.748,1.807,1.137,2.749c.253.619.371.938.371.938" transform="translate(26.9 2.319)" fill="#263238"/>
              <rect id="Rectángulo_401819" data-name="Rectángulo 401819" width="20.404" height="20.687" transform="matrix(0.995, -0.104, 0.104, 0.995, 236.103, 22.713)" fill="#ebebeb"/>
              <path id="Trazado_875426" data-name="Trazado 875426" d="M247.952,195.367l-20.264,2.481L225.4,176.919l20.3-2.115Z" transform="translate(31.913 24.749)" fill="#ebebeb"/>
              <path id="Trazado_875427" data-name="Trazado 875427" d="M7.661,120.93l32.051,51.636c4.73,8.592,12.217,13.049,21.12,8.936,9.8-4.527,10.906-9.616,7.921-21.961A118.22,118.22,0,0,0,64.409,146.5s12.223-8.132,6.3-21.374c-3.42-7.647-12.7-24.3-19.937-37a19.02,19.02,0,0,0-24.51-7.847l-7.955,3.675A26.843,26.843,0,0,0,7.661,120.93" transform="translate(0.584 11.117)" fill="#ffbe9d"/>
              <path id="Trazado_875428" data-name="Trazado 875428" d="M59.349,138.066a35.038,35.038,0,0,1-19.485,2.852s8.213,7.875,20.8.619Z" transform="translate(5.644 19.548)" fill="#eb996e"/>
              <path id="Trazado_875429" data-name="Trazado 875429" d="M48.845,99.047c-.12.353-2.031-.043-4.053.9-2.032.91-3.035,2.637-3.37,2.49-.159-.059-.126-.612.3-1.381a5.682,5.682,0,0,1,2.557-2.3,5.455,5.455,0,0,1,3.368-.408c.842.189,1.258.535,1.194.7" transform="translate(5.852 13.909)" fill="#263238"/>
              <path id="Trazado_875430" data-name="Trazado 875430" d="M33.083,112.6a2.073,2.073,0,0,1-.936,2.735,1.981,1.981,0,0,1-2.722-.8,2.071,2.071,0,0,1,.934-2.735,1.983,1.983,0,0,1,2.724.8" transform="translate(4.137 15.793)" fill="#263238"/>
              <path id="Trazado_875431" data-name="Trazado 875431" d="M48.67,104.618a2.073,2.073,0,0,1-.937,2.735,1.98,1.98,0,0,1-2.72-.8,2.071,2.071,0,0,1,.934-2.735,1.983,1.983,0,0,1,2.724.8" transform="translate(6.344 14.664)" fill="#263238"/>
              <path id="Trazado_875432" data-name="Trazado 875432" d="M31.84,107.194c-.12.353-2.033-.042-4.053.9-2.032.91-3.037,2.637-3.371,2.491-.158-.061-.127-.612.3-1.381a5.683,5.683,0,0,1,2.557-2.3,5.463,5.463,0,0,1,3.368-.408c.84.191,1.257.537,1.194.7" transform="translate(3.445 15.063)" fill="#263238"/>
              <path id="Trazado_875433" data-name="Trazado 875433" d="M44.663,120.008a14.747,14.747,0,0,1,3.013-2.111c.492-.292.934-.621.857-1.014-.05-.429-.524-.887-1.053-1.372l-3.345-3.228c-4.71-4.621-8.373-8.517-8.186-8.706s4.158,3.405,8.868,8.026q1.723,1.718,3.291,3.282a3.3,3.3,0,0,1,1.206,1.9,1.429,1.429,0,0,1-.5,1.148,3.866,3.866,0,0,1-.822.527,14.466,14.466,0,0,1-3.329,1.543" transform="translate(5.089 14.664)" fill="#263238"/>
              <path id="Trazado_875434" data-name="Trazado 875434" d="M21.4,109.37c-.272-.584,1.509-1.95,3.14-4.017,1.675-2.035,2.63-4.065,3.259-3.924.292.075.434.739.243,1.756a8.86,8.86,0,0,1-4.876,6.049c-.953.4-1.631.406-1.767.136" transform="translate(3.025 14.36)" fill="#263238"/>
              <path id="Trazado_875435" data-name="Trazado 875435" d="M37.892,96.591c.224-.621,1.965-.7,3.849-1.368,1.905-.605,3.346-1.592,3.894-1.229.249.182.175.75-.354,1.454a6.321,6.321,0,0,1-6.24,2.094c-.842-.245-1.24-.655-1.15-.951" transform="translate(5.363 13.297)" fill="#263238"/>
              <path id="Trazado_875436" data-name="Trazado 875436" d="M15.975,122.531c-.269.006-10.282,1.5-5.837,10.372s12.433,2.575,12.321,2.313-6.484-12.685-6.484-12.685" transform="translate(1.274 17.348)" fill="#ffbe9d"/>
              <path id="Trazado_875437" data-name="Trazado 875437" d="M17.716,132.675c-.054-.009-.1.186-.3.436a1.73,1.73,0,0,1-1.143.6c-1.11.126-2.644-.966-3.489-2.542a5.7,5.7,0,0,1-.676-2.429,1.992,1.992,0,0,1,.567-1.768.878.878,0,0,1,1.123-.034c.243.188.276.394.33.386.037.009.116-.244-.138-.575a1.109,1.109,0,0,0-.628-.38,1.31,1.31,0,0,0-.968.2,2.429,2.429,0,0,0-.924,2.185,5.858,5.858,0,0,0,.7,2.74c.952,1.758,2.706,2.973,4.174,2.7a1.85,1.85,0,0,0,1.3-.943c.164-.356.112-.578.073-.579" transform="translate(1.624 17.888)" fill="#eb996e"/>
              <path id="Trazado_875438" data-name="Trazado 875438" d="M11.871,130.73c1.219-.967,4.179-.8,5.359.218s1.982,2.412,3.16,3.429,3.034,1.571,4.258.611a3.051,3.051,0,0,0,.927-2.921,8.387,8.387,0,0,0-1.314-2.916c-2.473-3.959-5.282-7.719-7.408-11.875s-3.554-8.834-3-13.467,3.416-9.173,7.8-10.783c2.9-1.067,6.142-.793,9.1-1.688a12.111,12.111,0,0,0,7.727-7.271c.163-.441,1.142-2.017,1.142-2.017-.1-.218-1.176-2-2.234-2.345-7.869-2.553-18.463.614-24.9,5.812S1.6,99.011,1.618,107.284,6.954,124.62,11.871,130.73" transform="translate(0.229 11.157)" fill="#263238"/>
              <path id="Trazado_875439" data-name="Trazado 875439" d="M34.827,84.266c-4.884,2.51-13.5,8.779-16,13.666-.3.578-.518,1.414.025,1.769.412.268.951.029,1.39-.191,2.935-1.466,11.209-3.742,14.45-4.254s6.554-1.11,9.378-2.779,5.1-4.652,5.014-7.932l1.483-.12c-4.634-2.948-10.853-2.671-15.737-.161" transform="translate(2.622 11.652)" fill="#263238"/>
              <path id="Trazado_875440" data-name="Trazado 875440" d="M50.567,86.311a18.594,18.594,0,0,0-11.853.1C26.88,90.7,9.824,102.827,9.079,126.967c0,0-5.013-5.469-6.864-9.479-1.236-2.677-7-19.364,7.088-31.96,0,0,20.361-20.853,41.265.783" transform="translate(0 10.829)" fill="#ff725e"/>
              <g id="Grupo_1100562" data-name="Grupo 1100562" transform="translate(0 87.317)" opacity="0.2">
                <g id="Grupo_1100561" data-name="Grupo 1100561">
                  <g id="Grupo_1100560" data-name="Grupo 1100560" clip-path="url(#clip-path-4)">
                    <path id="Trazado_875441" data-name="Trazado 875441" d="M50.567,86.311a17.679,17.679,0,0,0-13.288.087c-10.4,4.257-27.5,17.819-28.2,40.568,0,0-5.013-5.469-6.864-9.479-1.236-2.677-7-19.364,7.088-31.96,0,0,20.361-20.853,41.265.783" transform="translate(0 -76.488)"/>
                  </g>
                </g>
              </g>
              <path id="Trazado_875442" data-name="Trazado 875442" d="M8.166,125.013c1.1-10.541,5.83-19.626,11.479-28.254s16.512-19.6,24.45-26.182c2.384-1.976,4.925-3.916,7.916-4.716s6.553-.209,8.5,2.2c2.436,3.014-1.186,11.074-3.074,14.458a102.871,102.871,0,0,1-6.289,9.1s-2.854-6.389-13.576-2.989c-14.616,4.636-29.661,36.93-29.4,36.382" transform="translate(1.156 9.277)" fill="#ff725e"/>
              <path id="Trazado_875443" data-name="Trazado 875443" d="M48.4,121.175a3.613,3.613,0,0,0-5.008,3.4,2.566,2.566,0,0,0,1.058,2.137,3.354,3.354,0,0,0,2.89.01c.143-.051.308-.1.486-.158a2.557,2.557,0,0,0,1.692-3.281,7.045,7.045,0,0,0-1.119-2.105" transform="translate(6.143 17.118)" fill="#eb996e"/>
              <path id="Trazado_875444" data-name="Trazado 875444" d="M49.719,124.179c.041-.025.159.236.065.663a3.056,3.056,0,0,1-.25.747,1.721,1.721,0,0,1-.29.44,3.282,3.282,0,0,1-.474.328,5.536,5.536,0,0,1-2.57.788,5.457,5.457,0,0,1-1.61-.152,2.028,2.028,0,0,1-1.426-1.169,3.662,3.662,0,0,1,.5-3.3,3.8,3.8,0,0,1,2.216-1.562,2.826,2.826,0,0,1,2.416.271,5.908,5.908,0,0,0-2.3.132,3.522,3.522,0,0,0-1.878,1.461,3.228,3.228,0,0,0-.412,2.767c.348.908,1.579,1,2.467,1.006a5.517,5.517,0,0,0,2.387-.61,3.989,3.989,0,0,0,.418-.234,1.593,1.593,0,0,0,.259-.324,3.972,3.972,0,0,0,.317-.648,6.075,6.075,0,0,0,.158-.6" transform="translate(6.083 17.109)" fill="#263238"/>
              <path id="Trazado_875445" data-name="Trazado 875445" d="M57.722,416.939,43.707,436.37s28.17,9.979,28.228,15.281l-55.417.179L31.976,414.1Z" transform="translate(2.339 58.629)" fill="#455a64"/>
              <g id="Grupo_1100565" data-name="Grupo 1100565" transform="translate(27.331 491.667)" opacity="0.6">
                <g id="Grupo_1100564" data-name="Grupo 1100564">
                  <g id="Grupo_1100563" data-name="Grupo 1100563" clip-path="url(#clip-path-5)">
                    <path id="Trazado_875446" data-name="Trazado 875446" d="M25.664,430.762a2.265,2.265,0,0,0-1.693,2.5,2.177,2.177,0,0,0,2.465,1.7,2.388,2.388,0,0,0,1.779-2.658,2.258,2.258,0,0,0-2.759-1.484" transform="translate(-23.942 -430.69)" fill="#fff"/>
                  </g>
                </g>
              </g>
              <g id="Grupo_1100568" data-name="Grupo 1100568" transform="translate(18.857 505.761)" opacity="0.6">
                <g id="Grupo_1100567" data-name="Grupo 1100567">
                  <g id="Grupo_1100566" data-name="Grupo 1100566" clip-path="url(#clip-path-6)">
                    <path id="Trazado_875447" data-name="Trazado 875447" d="M16.518,447.735l1.927-4.7,51.762,1.876a3.828,3.828,0,0,1,2,3.05Z" transform="translate(-16.518 -443.035)" fill="#fff"/>
                  </g>
                </g>
              </g>
              <path id="Trazado_875448" data-name="Trazado 875448" d="M41.777,433.438c-.023.269-1.38.324-2.753,1.127-1.4.766-2.139,1.9-2.382,1.782-.245-.065.239-1.66,1.918-2.6s3.289-.553,3.218-.307" transform="translate(5.179 61.325)" fill="#263238"/>
              <path id="Trazado_875449" data-name="Trazado 875449" d="M46.59,435.776c.049.265-1.145.666-2.12,1.763-1.008,1.069-1.3,2.292-1.57,2.267-.256.03-.364-1.563.874-2.9s2.822-1.385,2.815-1.127" transform="translate(6.051 61.68)" fill="#263238"/>
              <path id="Trazado_875450" data-name="Trazado 875450" d="M48.728,442.557c-.248.046-.556-1.324.212-2.769s2.062-1.97,2.164-1.74c.142.231-.718.983-1.331,2.179-.64,1.182-.775,2.316-1.046,2.33" transform="translate(6.86 62.012)" fill="#263238"/>
              <path id="Trazado_875451" data-name="Trazado 875451" d="M43.693,431.008c-.215.167-1.142-.74-2.546-1.356-1.39-.644-2.684-.741-2.7-1.011-.048-.245,1.445-.6,3.088.153s2.376,2.088,2.159,2.215" transform="translate(5.443 60.645)" fill="#263238"/>
              <path id="Trazado_875452" data-name="Trazado 875452" d="M46.14,427.668a5.2,5.2,0,0,1-2.542-1.114,12.468,12.468,0,0,1-2.312-1.97,13.111,13.111,0,0,1-1.128-1.408,3.427,3.427,0,0,1-.51-.932,1.179,1.179,0,0,1,.458-1.371,1.486,1.486,0,0,1,1.333-.1,3.618,3.618,0,0,1,.9.546,9.969,9.969,0,0,1,1.349,1.227A9.783,9.783,0,0,1,45.37,425.1c.708,1.6.71,2.7.605,2.716-.148.033-.387-.992-1.2-2.413a11.061,11.061,0,0,0-1.72-2.261,10.337,10.337,0,0,0-1.267-1.083c-.477-.374-.935-.577-1.176-.4-.09.07-.112.1-.067.309a2.739,2.739,0,0,0,.377.682,14.757,14.757,0,0,0,1.013,1.35,15.428,15.428,0,0,0,2.056,2.009c1.281,1.035,2.211,1.518,2.148,1.651" transform="translate(5.604 59.558)" fill="#263238"/>
              <path id="Trazado_875453" data-name="Trazado 875453" d="M44.919,427.9c-.105,0-.213-1.1.392-2.751a9.008,9.008,0,0,1,1.551-2.639,9.166,9.166,0,0,1,1.317-1.266,2.3,2.3,0,0,1,2.18-.585,1.3,1.3,0,0,1,.758,1.17,3.725,3.725,0,0,1-.143,1.047,6.152,6.152,0,0,1-.739,1.717,6.39,6.39,0,0,1-2.226,2.162c-1.563.888-2.727.738-2.712.644a22.475,22.475,0,0,0,2.352-1.2,6.38,6.38,0,0,0,1.84-2.047,5.692,5.692,0,0,0,.589-1.492c.154-.574.14-1.1-.087-1.13a1.584,1.584,0,0,0-1.251.449,9.235,9.235,0,0,0-1.227,1.108,10.02,10.02,0,0,0-1.593,2.329c-.715,1.464-.85,2.508-1,2.488" transform="translate(6.348 59.544)" fill="#263238"/>
              <path id="Trazado_875454" data-name="Trazado 875454" d="M101.1,416.9,87.6,436.693s28.421,9.241,28.616,14.541l-55.416.734,14.494-37.235Z" transform="translate(8.608 58.719)" fill="#455a64"/>
              <g id="Grupo_1100571" data-name="Grupo 1100571" transform="translate(77.468 492.513)" opacity="0.6">
                <g id="Grupo_1100570" data-name="Grupo 1100570">
                  <g id="Grupo_1100569" data-name="Grupo 1100569" clip-path="url(#clip-path-7)">
                    <path id="Trazado_875455" data-name="Trazado 875455" d="M69.526,431.513a2.262,2.262,0,0,0-1.627,2.543,2.175,2.175,0,0,0,2.507,1.635,2.387,2.387,0,0,0,1.709-2.7,2.257,2.257,0,0,0-2.8-1.411" transform="translate(-67.86 -431.43)" fill="#fff"/>
                  </g>
                </g>
              </g>
              <g id="Grupo_1100574" data-name="Grupo 1100574" transform="translate(69.405 506.232)" opacity="0.6">
                <g id="Grupo_1100573" data-name="Grupo 1100573">
                  <g id="Grupo_1100572" data-name="Grupo 1100572" clip-path="url(#clip-path-8)">
                    <path id="Trazado_875456" data-name="Trazado 875456" d="M60.8,447.9l1.627-4.456,51.993,1.123a3.829,3.829,0,0,1,2.081,3Z" transform="translate(-60.797 -443.448)" fill="#fff"/>
                  </g>
                </g>
              </g>
              <path id="Trazado_875457" data-name="Trazado 875457" d="M85.7,433.776c-.016.271-1.371.361-2.724,1.2-1.373.8-2.088,1.958-2.335,1.845-.248-.059.194-1.667,1.849-2.652s3.274-.637,3.209-.39" transform="translate(11.409 61.376)" fill="#263238"/>
              <path id="Trazado_875458" data-name="Trazado 875458" d="M90.57,435.985c.056.264-1.127.7-2.073,1.817-.979,1.094-1.242,2.325-1.51,2.307-.256.035-.4-1.553.8-2.926s2.784-1.457,2.784-1.2" transform="translate(12.291 61.711)" fill="#263238"/>
              <path id="Trazado_875459" data-name="Trazado 875459" d="M92.885,442.7c-.247.051-.591-1.309.139-2.774s2.009-2.023,2.119-1.795c.147.226-.693,1-1.274,2.212-.611,1.2-.716,2.336-.984,2.356" transform="translate(13.108 62.025)" fill="#263238"/>
              <path id="Trazado_875460" data-name="Trazado 875460" d="M87.561,431.287c-.21.171-1.161-.71-2.58-1.289-1.408-.608-2.7-.671-2.726-.942-.056-.244,1.429-.632,3.09.073s2.429,2.025,2.216,2.158" transform="translate(11.646 60.7)" fill="#263238"/>
              <path id="Trazado_875461" data-name="Trazado 875461" d="M89.918,427.884a5.2,5.2,0,0,1-2.57-1.047,12.528,12.528,0,0,1-2.363-1.91,13.076,13.076,0,0,1-1.163-1.379,3.437,3.437,0,0,1-.535-.918,1.181,1.181,0,0,1,.421-1.381,1.484,1.484,0,0,1,1.331-.132,3.624,3.624,0,0,1,.913.521,9.933,9.933,0,0,1,1.38,1.193,9.787,9.787,0,0,1,1.749,2.512c.749,1.585.781,2.685.675,2.7-.147.037-.412-.982-1.26-2.381a11.053,11.053,0,0,0-1.777-2.217,10.276,10.276,0,0,0-1.3-1.049c-.486-.362-.949-.551-1.186-.365-.088.072-.108.106-.058.311a2.758,2.758,0,0,0,.394.672,14.693,14.693,0,0,0,1.048,1.323,15.322,15.322,0,0,0,2.107,1.954c1.307,1,2.25,1.46,2.191,1.595" transform="translate(11.781 59.609)" fill="#263238"/>
              <path id="Trazado_875462" data-name="Trazado 875462" d="M88.685,428.158c-.105,0-.242-1.1.32-2.76a8.985,8.985,0,0,1,2.767-3.98,2.293,2.293,0,0,1,2.164-.64,1.3,1.3,0,0,1,.788,1.151,3.78,3.78,0,0,1-.115,1.05,6.168,6.168,0,0,1-.694,1.735,6.38,6.38,0,0,1-2.168,2.218c-1.541.929-2.709.809-2.7.716a22.685,22.685,0,0,0,2.32-1.265,6.373,6.373,0,0,0,1.787-2.094,5.7,5.7,0,0,0,.55-1.507c.139-.579.111-1.1-.115-1.128a1.583,1.583,0,0,0-1.24.482,9.219,9.219,0,0,0-1.2,1.139,10,10,0,0,0-1.531,2.37c-.676,1.482-.785,2.53-.937,2.513" transform="translate(12.543 59.564)" fill="#263238"/>
              <path id="Trazado_875463" data-name="Trazado 875463" d="M90.968,172.3,128.3,186.25s19.754.89,27.323,2.62c8.386,1.917,39.333,7.23,39.333,7.23l-4.639,16.752s-37.323,1.466-50.921.218c-11.344-1.04-16.836-1.291-16.836-1.291L88.25,208.065l-9.919-13.019Z" transform="translate(11.09 24.394)" fill="#ffbe9d"/>
              <path id="Trazado_875464" data-name="Trazado 875464" d="M187.948,193.2s12.9-5.2,13.689-5.7,15.346-2.1,15.346-2.1-.007,3.789-3.023,5.466-9.412,1.7-9.074,4.021,4.926,5.018,4.926,5.018,7.689.256,8.572,2.179-.4,4.843-.4,4.843,1.825,2.073.585,3.808a3.215,3.215,0,0,1-2.6,1.631s.024,3.137-1.919,4.353a7.474,7.474,0,0,1-3.806.884s-3.476,3.276-7.524,2.573c-1.3-.225-13.5-1.327-15.9-2.93s-4.341-5.516-6.974-6.491Z" transform="translate(25.463 26.249)" fill="#e0e0e0"/>
              <path id="Trazado_875465" data-name="Trazado 875465" d="M189.225,192.882l-12.193-5.233-6.207,25.869,14.011-.613Z" transform="translate(24.186 26.568)" fill="#e0e0e0"/>
              <path id="Trazado_875466" data-name="Trazado 875466" d="M214.888,204.435a5.222,5.222,0,0,1-1.968.326c-1.225.089-2.919.071-4.765.122a10.983,10.983,0,0,1-4.786-.715,3.4,3.4,0,0,1-1.639-1.162c.061-.08.661.392,1.791.771a12.889,12.889,0,0,0,4.614.511c1.878-.051,3.559.034,4.775.053a9.307,9.307,0,0,1,1.977.094" transform="translate(28.561 28.741)" fill="#263238"/>
              <path id="Trazado_875467" data-name="Trazado 875467" d="M212.918,208.979c.058.156-1.973.861-4.569.858a11.3,11.3,0,0,1-4.605-.635c.027-.172,2.077.068,4.6.04,2.525,0,4.53-.42,4.575-.264" transform="translate(28.846 29.583)" fill="#263238"/>
              <path id="Trazado_875468" data-name="Trazado 875468" d="M207.782,213.743a13.6,13.6,0,0,1-7.183-1.035,16.774,16.774,0,0,1,3.606.418,16.783,16.783,0,0,1,3.577.618" transform="translate(28.401 30.109)" fill="#263238"/>
              <path id="Trazado_875469" data-name="Trazado 875469" d="M28.639,149.638c-.817.511-6.757,17.069-8.9,28.579-2.054,11.055-4.965,23.551,5.516,49.554,10,24.8,24.316,36.169,24.316,36.169l37.438,7.488,8.94-47.8L76.012,172.111,67.452,152.2s-32.4-6.578-38.814-2.566" transform="translate(2.513 21.002)" fill="#e0e0e0"/>
              <path id="Trazado_875470" data-name="Trazado 875470" d="M52.248,291.53c1.112,1.112,55.508,63.637,55.508,63.637l-.918,9.278L71.8,443.394l41.889,18.482s40.832-95.542,44.637-108.882-7.077-30.158-10.463-37.3c-4.324-9.122-41.312-65.762-41.312-65.762L40.392,265.592Z" transform="translate(5.719 35.386)" fill="#ff725e"/>
              <path id="Trazado_875471" data-name="Trazado 875471" d="M75.925,306.561l2.683,19.107L28.684,427.883l33.6,16.027,51.127-96.788Z" transform="translate(4.061 43.404)" fill="#ff725e"/>
              <path id="Trazado_875472" data-name="Trazado 875472" d="M60.594,154.075s-8.2-5.732-17.628-3.739c-9.753,2.064-23.15,28.8-24.606,42.985-.014.142-.029.283-.042.425a77.513,77.513,0,0,0,5.317,36.678L43.57,279.753l62.938-1.953,3.482-13.138L95.925,223.4s-22.82,39.912-31.5,39.321-15.853,1-22.676-8.423-19.916-35.355-20.114-36.044-2.761-14.494-1.184-21.2,13.409-28.593,13.409-28.593,11.314-21.816,26.731-14.39" transform="translate(2.541 21.225)" fill="#ff725e"/>
              <path id="Trazado_875473" data-name="Trazado 875473" d="M68.37,435.993a2.056,2.056,0,0,1,.135-.381c.113-.274.261-.636.449-1.094.422-.99,1.019-2.393,1.782-4.184,1.585-3.656,3.853-8.889,6.651-15.342l22.149-50.525,3.529-8.009-.023.087c.339-3,.67-5.948.994-8.812l.068.223L75.814,315.312l-8.24-9.593q-1.406-1.661-2.192-2.589l-.556-.678a1.3,1.3,0,0,1-.176-.242,1.29,1.29,0,0,1,.215.207c.153.167.349.379.6.645l2.264,2.526c1.982,2.244,4.824,5.462,8.37,9.48l28.447,32.508.083.1-.014.127c-.32,2.864-.648,5.807-.983,8.812l0,.046-.018.041-3.525,8.01c-8.706,19.688-16.586,37.514-22.309,50.455-2.87,6.421-5.2,11.628-6.824,15.266l-1.882,4.138c-.211.447-.378.8-.5,1.071a2.092,2.092,0,0,1-.191.356" transform="translate(9.153 42.787)" fill="#263238"/>
              <path id="Trazado_875474" data-name="Trazado 875474" d="M43.615,196.311l49.138,21.429,13.887-40.726L56.96,153.559" transform="translate(6.175 21.741)" fill="#e0e0e0"/>
              <path id="Trazado_875475" data-name="Trazado 875475" d="M56.96,153.559a1.111,1.111,0,0,1,.252.091l.725.315,2.784,1.263L71.1,160.034l35.663,16.721.232.108-.083.242c-2.1,6.177-4.37,12.842-6.716,19.733-2.513,7.356-4.937,14.452-7.171,20.993l-.1.293L92.639,218l-35.22-15.475L47.244,198l-2.707-1.232-.694-.329a1.046,1.046,0,0,1-.228-.127,1.089,1.089,0,0,1,.249.081l.712.285,2.744,1.146L57.562,202.2l35.3,15.281-.382.168c2.227-6.542,4.643-13.642,7.147-21,2.354-6.889,4.629-13.552,6.739-19.725l.148.35L70.944,160.361,60.639,155.4,57.9,154.056l-.7-.36a1.078,1.078,0,0,1-.232-.137" transform="translate(6.175 21.741)" fill="#263238"/>
              <path id="Trazado_875476" data-name="Trazado 875476" d="M56.778,239.628a7.631,7.631,0,0,1,.869-1.269c.6-.785,1.43-1.945,2.434-3.392a76.205,76.205,0,0,0,6.752-11.957,65.5,65.5,0,0,0,4.278-13.037c.2-.857.337-1.642.461-2.331s.234-1.282.3-1.771a7.66,7.66,0,0,1,.295-1.509A7.8,7.8,0,0,1,72.1,205.9c-.033.494-.1,1.1-.2,1.792s-.2,1.493-.377,2.362a58.077,58.077,0,0,1-4.147,13.2,66.231,66.231,0,0,1-6.951,11.958c-1.054,1.424-1.942,2.549-2.6,3.292a7.608,7.608,0,0,1-1.049,1.126" transform="translate(8.038 28.934)" fill="#263238"/>
              <path id="Trazado_875477" data-name="Trazado 875477" d="M36.047,183.595c-.021.007-.087-.132-.194-.4s-.255-.676-.426-1.2a29.991,29.991,0,0,1-1.064-4.575,27.274,27.274,0,0,1-.163-6.98,22.59,22.59,0,0,1,2.5-8.178,18.783,18.783,0,0,1,5.6-6.462,16.819,16.819,0,0,1,6.418-2.766,14.5,14.5,0,0,1,4.708-.153,10.063,10.063,0,0,1,1.257.255,1.277,1.277,0,0,1,.421.146,18.2,18.2,0,0,0-6.3.164,16.915,16.915,0,0,0-6.185,2.8,18.66,18.66,0,0,0-5.4,6.3,22.686,22.686,0,0,0-2.48,7.961,28.483,28.483,0,0,0,.035,6.859,38.136,38.136,0,0,0,.87,4.57,12.082,12.082,0,0,1,.4,1.67" transform="translate(4.821 21.626)" fill="#263238"/>
              <path id="Trazado_875478" data-name="Trazado 875478" d="M73.365,276.365c-.15.067-3.1-6.107-6.587-13.793s-6.2-13.972-6.047-14.039,3.1,6.106,6.588,13.794,6.2,13.971,6.046,14.038" transform="translate(8.598 35.188)" fill="#263238"/>
              <path id="Trazado_875479" data-name="Trazado 875479" d="M66.61,250.144c-.016-.025.106-.163.412-.266a2,2,0,0,1,1.341.083,2.266,2.266,0,0,1,1.357,1.5,2.266,2.266,0,0,1-3.477,2.26,2.268,2.268,0,0,1-.82-1.851,2,2,0,0,1,.468-1.259c.218-.237.394-.293.411-.268a2.759,2.759,0,0,0-.459,1.523,1.912,1.912,0,0,0,.727,1.416,1.758,1.758,0,0,0,2.615-1.7,1.913,1.913,0,0,0-1-1.239,2.755,2.755,0,0,0-1.579-.2" transform="translate(9.263 35.367)" fill="#263238"/>
              <path id="Trazado_875480" data-name="Trazado 875480" d="M72.49,261.381c.026.092-.6.152-.982.9a1.542,1.542,0,0,0-.075,1.3,1.4,1.4,0,0,0,2.5-.231,1.545,1.545,0,0,0-.312-1.267c-.514-.664-1.139-.607-1.13-.7,0-.031.135-.107.412-.09a1.651,1.651,0,0,1,1.033.516,1.9,1.9,0,0,1,.531,1.666,1.912,1.912,0,0,1-3.537.327,1.9,1.9,0,0,1,.217-1.734,1.664,1.664,0,0,1,.921-.7c.269-.066.421-.017.422.014" transform="translate(10.025 36.994)" fill="#263238"/>
              <path id="Trazado_875481" data-name="Trazado 875481" d="M72.42,288.732a7.243,7.243,0,0,1,.312.832l.8,2.353c.685,2.083,1.646,5.013,2.837,8.64l-.3-.112,28.63-17.6,2.371-1.448-.056.462-9.1-9.159.347.039L79.784,284.262l-5.376,3.3-1.456.876a4.114,4.114,0,0,1-.532.291,2.817,2.817,0,0,1,.444-.325l1.373-.912,5.249-3.408L97.96,272.266l.188-.121.159.16,9.125,9.135.266.267-.322.2-2.37,1.449L76.277,300.791l-.224.136-.075-.248c-1.12-3.7-2.024-6.679-2.668-8.8l-.686-2.347a5.419,5.419,0,0,1-.2-.8" transform="translate(10.253 38.531)" fill="#263238"/>
              <path id="Trazado_875482" data-name="Trazado 875482" d="M113.5,339.543a40.869,40.869,0,0,1-6.456,2.6,40.94,40.94,0,0,1-6.654,2.038,40.751,40.751,0,0,1,6.456-2.6,40.979,40.979,0,0,1,6.654-2.039" transform="translate(14.213 48.071)" fill="#263238"/>
              <path id="Trazado_875483" data-name="Trazado 875483" d="M115.347,347.695a54.715,54.715,0,0,1-7.811-1.925,54.707,54.707,0,0,1-7.647-2.5A54.559,54.559,0,0,1,107.7,345.2a54.658,54.658,0,0,1,7.646,2.5" transform="translate(14.142 48.599)" fill="#263238"/>
              <path id="Trazado_875484" data-name="Trazado 875484" d="M43.22,257.942a27.359,27.359,0,0,1,3.559.162c2.192.135,5.222.252,8.568.185s6.369-.317,8.553-.543a27.127,27.127,0,0,1,3.549-.312,17.367,17.367,0,0,1-3.5.728,68.829,68.829,0,0,1-17.207.361,17.272,17.272,0,0,1-3.525-.581" transform="translate(6.119 36.445)" fill="#263238"/>
              <path id="Trazado_875485" data-name="Trazado 875485" d="M54.677,262.325c-.029-.171,2.733-.732,6.055-1.707s5.956-1.976,6.024-1.816a21.335,21.335,0,0,1-5.857,2.387,21.364,21.364,0,0,1-6.222,1.136" transform="translate(7.741 36.639)" fill="#263238"/>
              <path id="Trazado_875486" data-name="Trazado 875486" d="M86.992,248.844a18.778,18.778,0,0,1-.425-2.9,68.45,68.45,0,0,0-1.253-6.926,67.972,67.972,0,0,0-2-6.75,18.8,18.8,0,0,1-.927-2.783,11.7,11.7,0,0,1,1.32,2.633A44.938,44.938,0,0,1,86.985,245.9a11.679,11.679,0,0,1,.007,2.944" transform="translate(11.663 32.49)" fill="#263238"/>
              <path id="Trazado_875487" data-name="Trazado 875487" d="M113.792,428.448c-.065.151-9.5-3.752-21.076-8.716s-20.907-9.113-20.843-9.264,9.5,3.751,21.078,8.717,20.906,9.112,20.841,9.263" transform="translate(10.176 58.114)" fill="#263238"/>
              <path id="Trazado_875488" data-name="Trazado 875488" d="M67.38,419.32c-.068.15-7.77-3.266-17.2-7.627s-17.02-8.018-16.95-8.168,7.767,3.266,17.2,7.628,17.018,8.018,16.949,8.167" transform="translate(4.705 57.131)" fill="#263238"/>
              <g id="Grupo_1100577" data-name="Grupo 1100577" transform="translate(80.344 352.508)" opacity="0.3">
                <g id="Grupo_1100576" data-name="Grupo 1100576">
                  <g id="Grupo_1100575" data-name="Grupo 1100575" clip-path="url(#clip-path-9)">
                    <path id="Trazado_875489" data-name="Trazado 875489" d="M96.225,368.17,97.4,346.214,70.379,308.789l33.132,38.044-.989,8.812Z" transform="translate(-70.379 -308.789)"/>
                  </g>
                </g>
              </g>
              <g id="Grupo_1100580" data-name="Grupo 1100580" transform="translate(87.688 321.011)" opacity="0.3">
                <g id="Grupo_1100579" data-name="Grupo 1100579">
                  <g id="Grupo_1100578" data-name="Grupo 1100578" clip-path="url(#clip-path-10)">
                    <path id="Trazado_875490" data-name="Trazado 875490" d="M76.813,298.564l1.61,2.3L106.6,283.051l-1.358-1.853Z" transform="translate(-76.813 -281.198)"/>
                  </g>
                </g>
              </g>
              <g id="Grupo_1100583" data-name="Grupo 1100583" transform="translate(53.991 219.884)" opacity="0.3">
                <g id="Grupo_1100582" data-name="Grupo 1100582">
                  <g id="Grupo_1100581" data-name="Grupo 1100581" clip-path="url(#clip-path-11)">
                    <path id="Trazado_875491" data-name="Trazado 875491" d="M47.295,192.613s14.275,8.252,19.173,10.722c4.638,2.338,7.042,3.73,7.042,3.73S73.287,218.2,63,234.7c0,0,15.725-19.58,17.988-24.78l5.951-.018Z" transform="translate(-47.295 -192.613)"/>
                  </g>
                </g>
              </g>
              <g id="Grupo_1100586" data-name="Grupo 1100586" transform="translate(52.999 293.63)" opacity="0.3">
                <g id="Grupo_1100585" data-name="Grupo 1100585">
                  <g id="Grupo_1100584" data-name="Grupo 1100584" clip-path="url(#clip-path-12)">
                    <path id="Trazado_875492" data-name="Trazado 875492" d="M66.987,257.213a52.771,52.771,0,0,1-20.561,1.047A26.388,26.388,0,0,0,66.287,259.3a20.676,20.676,0,0,1-6.6,2.65c2.224.43,5.087-.177,7.288-.709a69.711,69.711,0,0,0,7.289,12.221,140.9,140.9,0,0,0-7.281-16.252" transform="translate(-46.426 -257.213)"/>
                  </g>
                </g>
              </g>
              <path id="Trazado_875493" data-name="Trazado 875493" d="M96.515,22.822,120.674.3l-.687,33.26,27.577.513L131.428,58.187l30.9,16.125-39.862.767-3.2,30.3L93.644,83.433,63.508,104.379l7.009-31.157-32.406-5.1L64.078,49.147,45.684,27.894l28.792,1.2L76.875,1.5Z" transform="translate(5.396 0.042)" fill="#fff"/>
              <path id="Trazado_875494" data-name="Trazado 875494" d="M96.6,22.864s-.438-.451-1.3-1.366l-3.8-4.081L76.859,1.636l.237-.081c-.653,7.665-1.448,16.981-2.351,27.6l-.016.177-.178-.007L45.759,28.157l.177-.366L64.349,49.026l.176.2-.216.159L38.354,68.378l-.118-.482,32.408,5.086.3.047-.067.3c-2.227,9.917-4.587,20.418-7,31.159l-.452-.3c9.653-6.713,19.8-13.765,30.133-20.949l.188-.131.174.15c1.75,1.5,3.639,3.117,5.536,4.741l20.083,17.2-.486.194q1.637-15.47,3.206-30.3l.027-.255.256,0,39.861-.752-.122.518L131.394,58.454l-.251-.131.158-.235,16.157-24.1.187.358L120.068,33.8l-.2,0,0-.2q.435-19.521.741-33.258l.244.108-18.038,16.7-4.647,4.285c-1.042.959-1.573,1.428-1.573,1.428s.532-.522,1.573-1.506L102.8,17,120.659.234l.25-.234L120.9.342Q120.64,14.1,120.271,33.6l-.2-.2,27.577.482.421.007-.233.35q-7.574,11.336-16.118,24.131L131.629,58l30.9,16.105.954.5-1.075.021-39.862.783.283-.259q-1.562,14.805-3.194,30.3l-.058.561-.428-.366L99.07,88.442c-1.9-1.623-3.787-3.242-5.536-4.741l.363.018L63.759,104.661l-.618.429.166-.734c2.419-10.74,4.784-21.24,7.017-31.156l.233.342-32.4-5.117-.64-.1.523-.381C47.1,61.333,55.794,54.989,64.016,48.989l-.04.362C57.475,41.824,51.3,34.676,45.6,28.081l-.334-.388.511.022,28.791,1.235-.194.17c.942-10.612,1.768-19.926,2.449-27.589l.027-.311.21.229c6.275,6.862,11.153,12.2,14.474,15.827l3.776,4.147c.852.94,1.289,1.44,1.289,1.44" transform="translate(5.311)" fill="#263238"/>
              <path id="Trazado_875495" data-name="Trazado 875495" d="M86.193,32.386l1.143,18.044a2.927,2.927,0,0,0,5.831.136l2-18.134a2.3,2.3,0,0,0-2.315-2.549l-4.4.062a2.3,2.3,0,0,0-2.26,2.442" transform="translate(12.203 4.231)" fill="#263238"/>
              <path id="Trazado_875496" data-name="Trazado 875496" d="M94.854,59.886a4.4,4.4,0,1,1-2.792-5.567,4.4,4.4,0,0,1,2.792,5.567" transform="translate(12.214 7.659)" fill="#263238"/>
            </g>
          </g>
        </g>
      </g>
    </g>
  </g>
</svg>
