<svg xmlns="http://www.w3.org/2000/svg" xmlns:xlink="http://www.w3.org/1999/xlink" width="114.25" height="114.251" viewBox="0 0 114.25 114.251">
  <defs>
    <filter id="Trazado_873178" x="0" y="0" width="114.25" height="114.251" filterUnits="userSpaceOnUse">
      <feOffset dy="3" input="SourceAlpha"/>
      <feGaussianBlur stdDeviation="3" result="blur"/>
      <feFlood flood-opacity="0.161"/>
      <feComposite operator="in" in2="blur"/>
      <feComposite in="SourceGraphic"/>
    </filter>
  </defs>
  <g id="Grupo_1100649" data-name="Grupo 1100649" transform="translate(-3.687 -94.619)">
    <g id="Grupo_1099034" data-name="Grupo 1099034" transform="translate(12.687 100.619)">
      <g transform="matrix(1, 0, 0, 1, -9, -6)" filter="url(#Trazado_873178)">
        <path id="Trazado_873178-2" data-name="Trazado 873178" d="M220.937,159.14a48.125,48.125,0,1,1-48.125-48.125A48.126,48.126,0,0,1,220.937,159.14Z" transform="translate(-115.69 -105.02)" fill="#fff"/>
      </g>
      <g id="Grupo_1100591" data-name="Grupo 1100591" transform="translate(-27.765 -17.098)">
        <path id="Trazado_875497" data-name="Trazado 875497" d="M104.8,45.434,74.9,32.145a1.664,1.664,0,0,0-1.35,0l-29.9,13.289a1.661,1.661,0,0,0-.986,1.518V83.5a1.661,1.661,0,0,0,.986,1.518L73.554,98.3a1.662,1.662,0,0,0,1.35,0l29.9-13.289a1.661,1.661,0,0,0,.986-1.518V46.952a1.661,1.661,0,0,0-.986-1.518Z" transform="translate(0 -0.002)" fill="#ff9500"/>
        <path id="Trazado_875498" data-name="Trazado 875498" d="M246.008,98.3l29.9-13.289a1.661,1.661,0,0,0,.986-1.518V46.95a1.661,1.661,0,0,0-.986-1.518l-29.9-13.289a1.664,1.664,0,0,0-.675-.143V98.445A1.666,1.666,0,0,0,246.008,98.3Z" transform="translate(-171.105)" fill="#fbab01"/>
        <path id="Trazado_875499" data-name="Trazado 875499" d="M75.087,60.24l31.4-13.957a1.646,1.646,0,0,0-.828-.85l-29.9-13.289a1.664,1.664,0,0,0-1.35,0l-29.9,13.289a1.646,1.646,0,0,0-.828.85Z" transform="translate(-0.859 -0.001)" fill="#fac100"/>
        <path id="Trazado_875500" data-name="Trazado 875500" d="M134.292,87.01l31.946-14.2-4.09-1.818L130.2,85.192Z" transform="translate(-73.903 -32.921)" fill="#fbab01"/>
        <path id="Trazado_875503" data-name="Trazado 875503" d="M14.95,0A14.95,14.95,0,1,1,0,14.95,14.95,14.95,0,0,1,14.95,0Z" transform="translate(79.212 68.545)" fill="#0d66bf"/>
        <path id="Trazado_875501" data-name="Trazado 875501" d="M294.771,300.724a14.111,14.111,0,0,1-8.737-25.2,14.942,14.942,0,1,0,19.815,19.815,14.083,14.083,0,0,1-11.079,5.384Z" transform="translate(-198.117 -205.601)" fill="#0d66bf"/>
        <path id="Trazado_875502" data-name="Trazado 875502" d="M331.148,342.294a1.656,1.656,0,0,1-1.175-.487l-4.153-4.153a1.661,1.661,0,1,1,2.349-2.349l2.978,2.978,7.131-7.131a1.661,1.661,0,1,1,2.349,2.349l-8.306,8.306A1.656,1.656,0,0,1,331.148,342.294Z" transform="translate(-238.646 -252.155)" fill="#eaeff0"/>
      </g>
    </g>
  </g>
</svg>
