<svg xmlns="http://www.w3.org/2000/svg" xmlns:xlink="http://www.w3.org/1999/xlink" width="96.501" height="96.5" viewBox="0 0 96.501 96.5">
  <defs>
    <filter id="Trazado_873160" x="0" y="0" width="96.501" height="96.5" filterUnits="userSpaceOnUse">
      <feOffset dy="3" input="SourceAlpha"/>
      <feGaussianBlur stdDeviation="3" result="blur"/>
      <feFlood flood-opacity="0.161"/>
      <feComposite operator="in" in2="blur"/>
      <feComposite in="SourceGraphic"/>
    </filter>
  </defs>
  <g id="Grupo_1100650" data-name="Grupo 1100650" transform="translate(-268.673 -339.325)">
    <g id="Grupo_1099024" data-name="Grupo 1099024" transform="translate(277.673 345.325)">
      <g transform="matrix(1, 0, 0, 1, -9, -6)" filter="url(#Trazado_873160)">
        <path id="Trazado_873160-2" data-name="Trazado 873160" d="M313.261,134.345A39.251,39.251,0,1,1,274.011,95.1,39.251,39.251,0,0,1,313.261,134.345Z" transform="translate(-225.76 -89.1)" fill="#fff"/>
      </g>
      <g id="Grupo_1100599" data-name="Grupo 1100599" transform="translate(6.005 9.489)">
        <path id="Trazado_875508" data-name="Trazado 875508" d="M58.414,14.409V47.443a2.6,2.6,0,0,1-2.594,2.6c-4.729,0-17.1,0-46.633-.018a2.6,2.6,0,0,1-2.6-2.6V14.409a2.6,2.6,0,0,1,2.6-2.6H55.811a2.6,2.6,0,0,1,2.6,2.6Z" transform="translate(1.682 0)" fill="#ededed"/>
        <g id="Grupo_1100598" data-name="Grupo 1100598" transform="translate(11.914 18.285)">
          <path id="Trazado_875509" data-name="Trazado 875509" d="M27.738,16.785H30.26V42.068H27.738Z" transform="translate(-3.859 -16.785)" fill="#2c3642"/>
          <path id="Trazado_875510" data-name="Trazado 875510" d="M38.214,16.785h2.522V42.068H38.214Z" transform="translate(-0.703 -16.785)" fill="#2c3642"/>
          <path id="Trazado_875511" data-name="Trazado 875511" d="M41.659,16.785H44.2V42.068H41.659Z" transform="translate(0.335 -16.785)" fill="#2c3642"/>
          <path id="Trazado_875512" data-name="Trazado 875512" d="M14.54,16.785h2.481V42.037H14.54Z" transform="translate(-7.835 -16.785)" fill="#2c3642"/>
          <path id="Trazado_875513" data-name="Trazado 875513" d="M19.309,16.785h5.3V42.068l-5.3-.032Z" transform="translate(-6.398 -16.785)" fill="#2c3642"/>
          <path id="Trazado_875514" data-name="Trazado 875514" d="M32.614,16.785H37.9V42.068H32.614Z" transform="translate(-2.39 -16.785)" fill="#2c3642"/>
          <path id="Trazado_875515" data-name="Trazado 875515" d="M25.385,16.785h1.221V42.068H25.385Z" transform="translate(-4.568 -16.785)" fill="#2c3642"/>
          <path id="Trazado_875516" data-name="Trazado 875516" d="M9.387,16.785h5.364V42.037H9.387Z" transform="translate(-9.387 -16.785)" fill="#2c3642"/>
        </g>
        <path id="Trazado_875517" data-name="Trazado 875517" d="M67.363,26.983h0a2.086,2.086,0,0,1-2.086,2.086H3.086A2.086,2.086,0,0,1,1,26.983H1A2.086,2.086,0,0,1,3.086,24.9H65.277A2.086,2.086,0,0,1,67.363,26.983Z" transform="translate(0 3.943)" fill="#f34624"/>
      </g>
    </g>
  </g>
</svg>
