<svg xmlns="http://www.w3.org/2000/svg" width="146.559" height="129.373" viewBox="0 0 146.559 129.373">
  <g id="Grupo_1100649" data-name="Grupo 1100649" transform="translate(-455.751 -9141.189)">
    <g id="Grupo_1100252" data-name="Grupo 1100252" transform="translate(410.811 9126.211)">
      <rect id="Rect치ngulo_401023" data-name="Rect치ngulo 401023" width="126.094" height="129.373" rx="20" transform="translate(44.941 14.978)" fill="#53bced"/>
      <rect id="Rect치ngulo_401024" data-name="Rect치ngulo 401024" width="123.264" height="61.816" rx="20" transform="translate(66.736 70.047)" fill="none" stroke="#ff725d" stroke-miterlimit="10" stroke-width="3"/>
    </g>
    <g id="Grupo_1100375" data-name="Grupo 1100375" transform="translate(463.624 9112.64)">
      <path id="Trazado_874946" data-name="Trazado 874946" d="M55.593,216.176H49V192.068l26.4-15.244,3.3,5.709L55.593,195.874Z" transform="translate(-38.232 -100.514)" fill="#636363"/>
      <path id="Trazado_874947" data-name="Trazado 874947" d="M357.552,216.176h-6.593v-20.3l-23.107-13.341,3.3-5.709,26.4,15.244Z" transform="translate(-255.805 -100.514)" fill="#636363"/>
      <path id="Trazado_874948" data-name="Trazado 874948" d="M241,252.1h4.945v22.809H241Z" transform="translate(-188.039 -159.251)" fill="#636363"/>
      <path id="Trazado_874949" data-name="Trazado 874949" d="M256,252.1h3.3v22.809H256Z" transform="translate(-199.742 -159.251)" fill="#636363"/>
      <path id="Trazado_874950" data-name="Trazado 874950" d="M161.58,48H144V97.225h24.613l3.516-4.244V55.655h-3.516Z" transform="translate(-112.355 0)" fill="#e8e8e8"/>
      <path id="Trazado_874951" data-name="Trazado 874951" d="M280.613,48H263.032L256,55.655v41.57h24.613Z" transform="translate(-199.742 0)" fill="#d3d3d3"/>
      <path id="Trazado_874952" data-name="Trazado 874952" d="M224,48V63.311l7.032-2.334,3.516-6.227L231.032,48Z" transform="translate(-174.775)" fill="#ff725d"/>
      <path id="Trazado_874953" data-name="Trazado 874953" d="M256,48V60.977l7.032,2.334V48Z" transform="translate(-199.742 0)" fill="#ff725d"/>
      <path id="Trazado_874954" data-name="Trazado 874954" d="M296.066,193h7v6.593h-7Z" transform="translate(-231.004 -113.135)" fill="#ff725d"/>
      <path id="Trazado_874955" data-name="Trazado 874955" d="M202.768,336H192v28.129h14.064l1.648-3V340.372h-1.648Z" transform="translate(-149.807 -224.71)" fill="#e8e8e8"/>
      <path id="Trazado_874956" data-name="Trazado 874956" d="M270.064,336H259.3l-3.3,4.372v23.757h14.064Z" transform="translate(-199.742 -224.71)" fill="#afafaf"/>
      <path id="Trazado_874957" data-name="Trazado 874957" d="M241,336v9.518h3.3l1.648-4.759L244.3,336Z" transform="translate(-188.039 -224.71)" fill="#ff725d"/>
      <path id="Trazado_874958" data-name="Trazado 874958" d="M256,336h3.3v9.518H256Z" transform="translate(-199.742 -224.71)" fill="#ff725d"/>
      <path id="Trazado_874959" data-name="Trazado 874959" d="M28.129,364.129H0V336H10.768l3.3,4.372,3.3-4.372H28.129Z" transform="translate(0 -224.71)" fill="#e8e8e8"/>
      <path id="Trazado_874960" data-name="Trazado 874960" d="M49,336h6.593v9.518H49Z" transform="translate(-38.232 -224.71)" fill="#ff725d"/>
      <path id="Trazado_874961" data-name="Trazado 874961" d="M412.129,364.129H384V336h10.768l3.3,4.372,3.3-4.372h10.768Z" transform="translate(-299.614 -224.71)" fill="#afafaf"/>
      <path id="Trazado_874962" data-name="Trazado 874962" d="M433,336h6.593v9.518H433Z" transform="translate(-337.846 -224.71)" fill="#ff725d"/>
    </g>
  </g>
</svg>
