<svg xmlns="http://www.w3.org/2000/svg" width="146.56" height="129.374" viewBox="0 0 146.56 129.374">
  <g id="Grupo_1100677" data-name="Grupo 1100677" transform="translate(-1020 -6644.127)">
    <g id="Grupo_1099073" data-name="Grupo 1099073" transform="translate(714.189 -1055.377)">
      <path id="Trazado_99075" data-name="Trazado 99075" d="M0,32.095Z" transform="translate(305.811 7673)" fill="#ff725d"/>
      <g id="Grupo_1100676" data-name="Grupo 1100676" transform="translate(305.811 7699.504)">
        <g id="Grupo_1100675" data-name="Grupo 1100675">
          <g id="Grupo_1100673" data-name="Grupo 1100673">
            <g id="Grupo_1100669" data-name="Grupo 1100669">
              <g id="Grupo_1100668" data-name="Grupo 1100668">
                <g id="Grupo_1100667" data-name="Grupo 1100667">
                  <g id="Grupo_1100666" data-name="Grupo 1100666">
                    <g id="Grupo_1100241" data-name="Grupo 1100241">
                      <rect id="Rect치ngulo_401023" data-name="Rect치ngulo 401023" width="126.094" height="129.373" rx="20" fill="#53bced"/>
                      <path id="Rect치ngulo_401024" data-name="Rect치ngulo 401024" d="M20-1.5h83.264a21.483,21.483,0,0,1,21.5,21.5V41.816a21.483,21.483,0,0,1-21.5,21.5H20a21.483,21.483,0,0,1-21.5-21.5V20A21.483,21.483,0,0,1,20-1.5Zm83.264,61.816a18.521,18.521,0,0,0,18.5-18.5V20a18.521,18.521,0,0,0-18.5-18.5H20A18.521,18.521,0,0,0,1.5,20V41.816A18.521,18.521,0,0,0,20,60.316Z" transform="translate(21.795 55.069)" fill="#ff725d"/>
                    </g>
                  </g>
                </g>
              </g>
            </g>
          </g>
        </g>
      </g>
    </g>
    <g id="Grupo_1100337" data-name="Grupo 1100337" transform="translate(1022.184 6650.139)">
      <g id="Grupo_1100670" data-name="Grupo 1100670">
        <g id="Grupo_1100330" data-name="Grupo 1100330" transform="translate(10 10)">
          <path id="Trazado_874782" data-name="Trazado 874782" d="M116.716,224.541A21.78,21.78,0,0,1,95,202.825V196h43.432v6.825A21.78,21.78,0,0,1,116.716,224.541Z" transform="translate(-77.421 -157.532)" fill="#0d66bf"/>
          <path id="Trazado_874783" data-name="Trazado 874783" d="M26.043,335.21,39.988,332H58.6l13.946,3.21A20.682,20.682,0,0,1,88.59,355.365v11.794H10V355.365A20.682,20.682,0,0,1,26.043,335.21Z" transform="translate(-10 -265.405)" fill="#ff725d"/>
          <g id="Grupo_1100325" data-name="Grupo 1100325" transform="translate(10.754 93.481)">
            <path id="Trazado_874784" data-name="Trazado 874784" d="M318,462h4.136v8.273H318Z" transform="translate(-265.055 -462)" fill="#ff7b7b"/>
            <path id="Trazado_874785" data-name="Trazado 874785" d="M62,462h4.136v8.273H62Z" transform="translate(-62 -462)" fill="#ff7b7b"/>
          </g>
          <g id="Grupo_1100328" data-name="Grupo 1100328" transform="translate(26.617 66.595)">
            <path id="Trazado_874786" data-name="Trazado 874786" d="M142.071,332h18.614l3.371.776-12.678,34.383L138.7,332.776Z" transform="translate(-138.7 -332)" fill="#edeff1"/>
            <path id="Trazado_874787" data-name="Trazado 874787" d="M142.071,332h18.614l3.371.776-6.529,17.706-6.149-7.107-6.149,7.107L138.7,332.776Z" transform="translate(-138.7 -332)" fill="#d3d3d3"/>
            <g id="Grupo_1100326" data-name="Grupo 1100326" transform="translate(0)">
              <path id="Trazado_874788" data-name="Trazado 874788" d="M209.307,332l3.371.776-5.994,16.256L200,341.307Z" transform="translate(-187.322 -332)" fill="#edeff1"/>
              <path id="Trazado_874789" data-name="Trazado 874789" d="M142.071,332l-3.371.776,5.994,16.256,6.684-7.724Z" transform="translate(-138.7 -332)" fill="#edeff1"/>
            </g>
            <g id="Grupo_1100327" data-name="Grupo 1100327" transform="translate(8.838 9.307)">
              <path id="Trazado_874790" data-name="Trazado 874790" d="M183.2,414.349h4.136l1.772,7.713-3.84,10.414-3.84-10.414Z" transform="translate(-181.433 -406.625)" fill="#0d66bf"/>
              <path id="Trazado_874791" data-name="Trazado 874791" d="M190,409.349h4.136v1.034H190Z" transform="translate(-188.228 -402.659)" fill="#0d66bf"/>
              <path id="Trazado_874792" data-name="Trazado 874792" d="M187.75,377l3.194,3.691-1.126,3h-4.136l-1.126-3Z" transform="translate(-183.91 -377)" fill="#0d66bf"/>
            </g>
          </g>
          <path id="Trazado_874793" data-name="Trazado 874793" d="M155,294.548V284h18.614v10.548a9.307,9.307,0,1,1-18.614,0Z" transform="translate(-125.012 -227.332)" fill="#ffd3b3"/>
          <path id="Trazado_874794" data-name="Trazado 874794" d="M164.307,290.591a23.674,23.674,0,0,1-9.307-1.9V284h18.614v4.689A23.674,23.674,0,0,1,164.307,290.591Z" transform="translate(-125.012 -227.332)" fill="#fcb98b"/>
          <g id="Grupo_1100329" data-name="Grupo 1100329" transform="translate(14.684 19.648)">
            <path id="Trazado_874795" data-name="Trazado 874795" d="M83.9,146h2.482v10.754H83.9a2.9,2.9,0,0,1-2.9-2.9V148.9A2.9,2.9,0,0,1,83.9,146Z" transform="translate(-81 -137.521)" fill="#ffd3b3"/>
            <path id="Trazado_874796" data-name="Trazado 874796" d="M295.482,146H293v10.754h2.482a2.9,2.9,0,0,0,2.9-2.9V148.9A2.9,2.9,0,0,0,295.482,146Z" transform="translate(-249.155 -137.521)" fill="#ffd3b3"/>
            <path id="Trazado_874797" data-name="Trazado 874797" d="M145.468,105v20.388a19.234,19.234,0,0,1-38.468,0V105Z" transform="translate(-101.623 -105)" fill="#ffd3b3"/>
          </g>
          <path id="Trazado_874798" data-name="Trazado 874798" d="M116.716,10A21.78,21.78,0,0,0,95,31.716v6.411h2.482V48.882l3.1-10.961c11.765-.338,21.68-2.166,26.679-8.066,0,0,1.8,5.656,5.791,8.066l2.9,10.961V38.127h2.482V31.716A21.78,21.78,0,0,0,116.716,10Z" transform="translate(-77.421 -10)" fill="#0d66bf"/>
        </g>
      </g>
      <g id="Grupo_1100331" data-name="Grupo 1100331" transform="translate(80.318 36.059)">
        <ellipse id="Elipse_11485" data-name="Elipse 11485" cx="12" cy="12.5" rx="12" ry="12.5" transform="translate(0.436 -0.305)" fill="#ffe352"/>
        <circle id="Elipse_11486" data-name="Elipse 11486" cx="11" cy="11" r="11" transform="translate(1.436 1.695)" fill="#ffb236"/>
        <circle id="Elipse_11487" data-name="Elipse 11487" cx="10" cy="10" r="10" transform="translate(2.436 2.695)" fill="#ffe352"/>
        <path id="Trazado_874799" data-name="Trazado 874799" d="M394.136,162.4a1.655,1.655,0,1,1,1.655-1.655h2.482a4.144,4.144,0,0,0-2.9-3.946v-1.6H392.9v1.6a4.136,4.136,0,0,0,1.241,8.082,1.655,1.655,0,1,1-1.655,1.655H390a4.144,4.144,0,0,0,2.9,3.946v1.6h2.482v-1.6a4.136,4.136,0,0,0-1.241-8.082Z" transform="translate(-381.727 -151.229)" fill="#6e83b7"/>
      </g>
      <g id="Grupo_1100336" data-name="Grupo 1100336" transform="translate(73.7 60.877)">
        <g id="Grupo_1100332" data-name="Grupo 1100332">
          <path id="Trazado_874800" data-name="Trazado 874800" d="M354.5,306.877H319.551A1.551,1.551,0,0,1,318,305.326V257.551A1.551,1.551,0,0,1,319.551,256H354.5a1.551,1.551,0,0,1,1.551,1.551v47.775A1.551,1.551,0,0,1,354.5,306.877Z" transform="translate(-318 -256)" fill="#0d66bf"/>
          <path id="Trazado_874801" data-name="Trazado 874801" d="M318,315.5h38.054v1.034H318Z" transform="translate(-318 -303.194)" fill="#466089"/>
          <path id="Trazado_874802" data-name="Trazado 874802" d="M0,0H6.618V31.023H0Z" transform="translate(34.538 3.102) rotate(90)" fill="#80d6fb"/>
          <path id="Trazado_874803" data-name="Trazado 874803" d="M0,0H1.034V31.023H0Z" transform="translate(34.538 8.686) rotate(90)" fill="#46bee8"/>
        </g>
        <g id="Grupo_1100333" data-name="Grupo 1100333" transform="translate(3.516 16.339)">
          <path id="Trazado_874804" data-name="Trazado 874804" d="M348.857,349.477H335.62a.62.62,0,0,1-.62-.62V335.62a.62.62,0,0,1,.62-.62h13.236a.62.62,0,0,1,.62.62v13.236A.62.62,0,0,1,348.857,349.477Z" transform="translate(-335 -335)" fill="#edeff1"/>
          <path id="Trazado_874805" data-name="Trazado 874805" d="M428.857,349.477H415.62a.62.62,0,0,1-.62-.62V335.62a.62.62,0,0,1,.62-.62h13.236a.62.62,0,0,1,.62.62v13.236A.62.62,0,0,1,428.857,349.477Z" transform="translate(-398.455 -335)" fill="#edeff1"/>
          <path id="Trazado_874806" data-name="Trazado 874806" d="M348.857,429.477H335.62a.62.62,0,0,1-.62-.62V415.62a.62.62,0,0,1,.62-.62h13.236a.62.62,0,0,1,.62.62v13.236A.62.62,0,0,1,348.857,429.477Z" transform="translate(-335 -398.455)" fill="#edeff1"/>
          <path id="Trazado_874807" data-name="Trazado 874807" d="M428.857,429.477H415.62a.62.62,0,0,1-.62-.62V415.62a.62.62,0,0,1,.62-.62h13.236a.62.62,0,0,1,.62.62v13.236A.62.62,0,0,1,428.857,429.477Z" transform="translate(-398.455 -398.455)" fill="#edeff1"/>
        </g>
        <g id="Grupo_1100335" data-name="Grupo 1100335" transform="translate(6.308 19.131)">
          <path id="Trazado_874808" data-name="Trazado 874808" d="M357.393,351.912h-3.412V348.5h-2.068v3.412H348.5v2.068h3.412v3.412h2.068v-3.412h3.412Z" transform="translate(-348.5 -348.5)" fill="#6e83b7"/>
          <path id="Trazado_874809" data-name="Trazado 874809" d="M358.692,432.177l-1.462-1.463L354.7,433.24l-2.526-2.526-1.462,1.463,2.526,2.526-2.526,2.526,1.462,1.463,2.526-2.526,2.526,2.526,1.462-1.463-2.526-2.526Z" transform="translate(-350.257 -413.711)" fill="#6e83b7"/>
          <path id="Trazado_874810" data-name="Trazado 874810" d="M428.5,365h8.893v2.068H428.5Z" transform="translate(-411.955 -361.588)" fill="#6e83b7"/>
          <g id="Grupo_1100334" data-name="Grupo 1100334" transform="translate(16.545 16.303)">
            <circle id="Elipse_11488" data-name="Elipse 11488" cx="1.213" cy="1.213" r="1.213" transform="translate(3.234)" fill="#6e83b7"/>
            <circle id="Elipse_11489" data-name="Elipse 11489" cx="1.213" cy="1.213" r="1.213" transform="translate(3.234 6.953)" fill="#6e83b7"/>
            <path id="Trazado_874811" data-name="Trazado 874811" d="M428.5,445h8.893v2.068H428.5Z" transform="translate(-428.5 -441.345)" fill="#6e83b7"/>
          </g>
        </g>
      </g>
    </g>
  </g>
</svg>
