<svg xmlns="http://www.w3.org/2000/svg" width="193" height="204" viewBox="0 0 193 204">
  <g id="Grupo_1100658" data-name="Grupo 1100658" transform="translate(-703.938 -4260.158)">
    <rect id="Rectángulo_401403" data-name="Rectángulo 401403" width="190" height="201" rx="40" transform="translate(705.438 4261.658)" fill="none" stroke="#ff725d" stroke-miterlimit="10" stroke-width="3"/>
    <g id="Grupo_1099912" data-name="Grupo 1099912" transform="translate(733.938 4298.658)">
      <path id="Trazado_874132" data-name="Trazado 874132" d="M60,15h7.734V30.469H60Zm0,0" transform="translate(-44.531 -11.133)" fill="#5a5a5a"/>
      <path id="Trazado_874133" data-name="Trazado 874133" d="M150,15h7.734V30.469H150Zm0,0" transform="translate(-111.328 -11.133)" fill="#444"/>
      <path id="Trazado_874134" data-name="Trazado 874134" d="M22.07,129.805,7.734,115.47v-9.256l3.391-8.479L14.663,90,2.8,97.735l-2.52,6.3A3.9,3.9,0,0,0,0,105.469v11.6a3.864,3.864,0,0,0,1.133,2.734L16.6,135.274a3.867,3.867,0,1,0,5.468-5.468Zm0,0" transform="translate(0 -66.797)" fill="#5a5a5a"/>
      <path id="Trazado_874135" data-name="Trazado 874135" d="M172.927,104.034l-2.52-6.3L159.024,90l6.445,16.213v9.256l-14.336,14.336a3.867,3.867,0,1,0,5.468,5.468L172.07,119.8a3.864,3.864,0,0,0,1.133-2.734v-11.6a3.9,3.9,0,0,0-.276-1.435Zm0,0" transform="translate(-111.328 -66.797)" fill="#444"/>
      <path id="Trazado_874136" data-name="Trazado 874136" d="M389.07,270h-23.2A3.829,3.829,0,0,0,362,273.867v23.719a3.829,3.829,0,0,0,3.867,3.867h23.2a3.83,3.83,0,0,0,3.867-3.867V273.867A3.829,3.829,0,0,0,389.07,270Zm0,0" transform="translate(-268.672 -200.391)" fill="#53bced"/>
      <path id="Trazado_874137" data-name="Trazado 874137" d="M437.469,273.867v23.719a3.829,3.829,0,0,1-3.867,3.867H422V270h11.6A3.829,3.829,0,0,1,437.469,273.867Zm0,0" transform="translate(-313.203 -200.391)" fill="#0d66bf"/>
      <path id="Trazado_874138" data-name="Trazado 874138" d="M237.07,270h-23.2A3.829,3.829,0,0,0,210,273.867v23.719a3.829,3.829,0,0,0,3.867,3.867h23.2a3.829,3.829,0,0,0,3.867-3.867V273.867A3.829,3.829,0,0,0,237.07,270Zm0,0" transform="translate(-155.859 -200.391)" fill="#53bced"/>
      <path id="Trazado_874139" data-name="Trazado 874139" d="M274.336,273.867v23.719a3.829,3.829,0,0,1-3.867,3.867H255V270h15.469A3.829,3.829,0,0,1,274.336,273.867Zm0,0" transform="translate(-189.258 -200.391)" fill="#0d66bf"/>
      <path id="Trazado_874140" data-name="Trazado 874140" d="M132,3.867a3.829,3.829,0,0,1-3.867,3.867H3.867A3.829,3.829,0,0,1,0,3.867,3.829,3.829,0,0,1,3.867,0H128.133A3.829,3.829,0,0,1,132,3.867Zm0,0" transform="translate(0)" fill="#6e6e6e"/>
      <path id="Trazado_874141" data-name="Trazado 874141" d="M75,362h93.328v38.672H75Zm0,0" transform="translate(-55.664 -268.672)" fill="#5a5a5a"/>
      <path id="Trazado_874142" data-name="Trazado 874142" d="M255,362h46.922v38.672H255Zm0,0" transform="translate(-189.258 -268.672)" fill="#444"/>
      <path id="Trazado_874143" data-name="Trazado 874143" d="M90,392h85.594v23.2H90Zm0,0" transform="translate(-66.797 -290.937)" fill="#d3d3d8"/>
      <path id="Trazado_874144" data-name="Trazado 874144" d="M255,392h43.055v23.2H255Zm0,0" transform="translate(-189.258 -290.937)" fill="#babac0"/>
      <path id="Trazado_874145" data-name="Trazado 874145" d="M199.336,362a19.336,19.336,0,1,0,19.336,19.336A19.344,19.344,0,0,0,199.336,362Zm0,0" transform="translate(-133.594 -268.672)" fill="#5a5a5a"/>
      <path id="Trazado_874146" data-name="Trazado 874146" d="M274.336,381.336A19.344,19.344,0,0,1,255,400.672V362A19.344,19.344,0,0,1,274.336,381.336Zm0,0" transform="translate(-189.258 -268.672)" fill="#444"/>
      <path id="Trazado_874147" data-name="Trazado 874147" d="M221.6,392a11.6,11.6,0,1,0,11.6,11.6A11.585,11.585,0,0,0,221.6,392Zm0,0" transform="translate(-155.859 -290.937)" fill="#ececf1"/>
      <path id="Trazado_874148" data-name="Trazado 874148" d="M266.6,403.6A11.586,11.586,0,0,1,255,415.2V392A11.585,11.585,0,0,1,266.6,403.6Zm0,0" transform="translate(-189.258 -290.937)" fill="#e2e2e7"/>
      <path id="Trazado_874149" data-name="Trazado 874149" d="M19.336,400.672a19.336,19.336,0,1,1,19.336-19.336A19.359,19.359,0,0,1,19.336,400.672Zm0,0" transform="translate(0 -268.672)" fill="#5a5a5a"/>
      <path id="Trazado_874150" data-name="Trazado 874150" d="M41.6,392a11.6,11.6,0,1,0,11.6,11.6A11.615,11.615,0,0,0,41.6,392Zm0,0" transform="translate(-22.266 -290.937)" fill="#ececf1"/>
      <path id="Trazado_874151" data-name="Trazado 874151" d="M381.336,400.672a19.336,19.336,0,1,1,19.336-19.336A19.359,19.359,0,0,1,381.336,400.672Zm0,0" transform="translate(-268.672 -268.672)" fill="#444"/>
      <path id="Trazado_874152" data-name="Trazado 874152" d="M403.6,392a11.6,11.6,0,1,0,11.6,11.6A11.615,11.615,0,0,0,403.6,392Zm0,0" transform="translate(-290.938 -290.937)" fill="#e2e2e7"/>
      <path id="Trazado_874153" data-name="Trazado 874153" d="M429.734,425.867A3.867,3.867,0,1,1,425.867,422,3.867,3.867,0,0,1,429.734,425.867Zm0,0" transform="translate(-313.203 -313.203)" fill="#444"/>
      <path id="Trazado_874154" data-name="Trazado 874154" d="M67.734,425.867A3.867,3.867,0,1,1,63.867,422,3.867,3.867,0,0,1,67.734,425.867Zm0,0" transform="translate(-44.531 -313.203)" fill="#5a5a5a"/>
      <path id="Trazado_874155" data-name="Trazado 874155" d="M247.734,425.867A3.867,3.867,0,1,1,243.867,422,3.829,3.829,0,0,1,247.734,425.867Zm0,0" transform="translate(-178.125 -313.203)" fill="#5a5a5a"/>
      <path id="Trazado_874156" data-name="Trazado 874156" d="M258.867,425.867A3.829,3.829,0,0,1,255,429.734V422A3.829,3.829,0,0,1,258.867,425.867Zm0,0" transform="translate(-189.258 -313.203)" fill="#444"/>
      <path id="Trazado_874157" data-name="Trazado 874157" d="M87.07,180h-23.2A3.829,3.829,0,0,0,60,183.867v23.2a3.83,3.83,0,0,0,3.867,3.867h23.2a3.829,3.829,0,0,0,3.867-3.867v-23.2A3.829,3.829,0,0,0,87.07,180Zm0,0" transform="translate(-44.531 -133.594)" fill="#53bced"/>
      <path id="Trazado_874158" data-name="Trazado 874158" d="M135.469,183.867v23.2a3.829,3.829,0,0,1-3.867,3.867H120V180h11.6A3.829,3.829,0,0,1,135.469,183.867Zm0,0" transform="translate(-89.063 -133.594)" fill="#0d66bf"/>
      <path id="Trazado_874159" data-name="Trazado 874159" d="M221.063,3.867A3.83,3.83,0,0,1,217.2,7.734H120V0h97.2A3.829,3.829,0,0,1,221.063,3.867Zm0,0" transform="translate(-89.063)" fill="#5a5a5a"/>
      <path id="Trazado_874160" data-name="Trazado 874160" d="M67.107,75.469H10.8L16.06,62.4A3.781,3.781,0,0,1,19.618,60H58.29a3.781,3.781,0,0,1,3.558,2.4Zm0,0" transform="translate(-8.016 -44.531)" fill="#ff725d"/>
      <path id="Trazado_874161" data-name="Trazado 874161" d="M148.153,75.469H120V60h19.336a3.781,3.781,0,0,1,3.558,2.4Zm0,0" transform="translate(-89.063 -44.531)" fill="#ff725d"/>
    </g>
  </g>
</svg>
