<svg xmlns="http://www.w3.org/2000/svg" width="146.559" height="129.374" viewBox="0 0 146.559 129.374">
  <g id="Grupo_1100649" data-name="Grupo 1100649" transform="translate(-1020 -7386.946)">
    <g id="Grupo_1100247" data-name="Grupo 1100247" transform="translate(975.06 7371.968)">
      <rect id="Rect치ngulo_401023" data-name="Rect치ngulo 401023" width="126.094" height="129.373" rx="20" transform="translate(44.941 14.978)" fill="#53bced"/>
      <rect id="Rect치ngulo_401024" data-name="Rect치ngulo 401024" width="123.264" height="61.816" rx="20" transform="translate(66.736 70.047)" fill="none" stroke="#ff725d" stroke-miterlimit="10" stroke-width="3"/>
    </g>
    <g id="Grupo_1100359" data-name="Grupo 1100359" transform="translate(1019.617 7369.449)">
      <g id="Grupo_1100344" data-name="Grupo 1100344" transform="translate(12.744 29.483)">
        <g id="CorelEMF" transform="translate(0 0)">
          <path id="Trazado_874865" data-name="Trazado 874865" d="M15.014,29.483H74.567a2.194,2.194,0,0,1,1.605.665L86.979,40.955a2.2,2.2,0,0,1,.665,1.605v81.734a2.269,2.269,0,0,1-2.265,2.264H15.014a2.27,2.27,0,0,1-2.27-2.264V31.753a2.275,2.275,0,0,1,2.27-2.27Z" transform="translate(-12.744 -29.483)" fill="#eceff1" fill-rule="evenodd"/>
          <g id="Grupo_1100343" data-name="Grupo 1100343">
            <path id="Trazado_874866" data-name="Trazado 874866" d="M286.518,30.333V41.139a1.138,1.138,0,0,0,1.135,1.135H298.46a2.271,2.271,0,0,0-.47-.665L287.183,30.8a2.385,2.385,0,0,0-.665-.47Z" transform="translate(-223.755 -30.138)" fill="#d1d1d6" fill-rule="evenodd"/>
            <path id="Trazado_874867" data-name="Trazado 874867" d="M15.014,29.483h2.265v97.075H15.014a2.27,2.27,0,0,1-2.27-2.264V31.753a2.275,2.275,0,0,1,2.27-2.27Z" transform="translate(-12.744 -29.483)" fill="#d1d1d6" fill-rule="evenodd"/>
          </g>
        </g>
      </g>
      <g id="Grupo_1100349" data-name="Grupo 1100349" transform="translate(24.61 39.744)">
        <g id="Grupo_1100345" data-name="Grupo 1100345" transform="translate(3.49 16.155)">
          <path id="Trazado_874868" data-name="Trazado 874868" d="M81.031,144.708h10a1.308,1.308,0,0,1,1.3,1.3v10a1.308,1.308,0,0,1-1.3,1.3h-10a1.308,1.308,0,0,1-1.3-1.3v-10A1.308,1.308,0,0,1,81.031,144.708Z" transform="translate(-79.726 -144.708)" fill="#0d66bf" fill-rule="evenodd"/>
          <path id="Trazado_874869" data-name="Trazado 874869" d="M119.035,144.708h2.293a1.308,1.308,0,0,1,1.3,1.3v10a1.308,1.308,0,0,1-1.3,1.3h-2.293a1.308,1.308,0,0,0,1.3-1.3v-10A1.308,1.308,0,0,0,119.035,144.708Z" transform="translate(-110.023 -144.708)" fill="#0d66bf" fill-rule="evenodd"/>
        </g>
        <g id="Grupo_1100346" data-name="Grupo 1100346" transform="translate(3.49 38.88)">
          <path id="Trazado_874870" data-name="Trazado 874870" d="M81.031,243.836h10a1.308,1.308,0,0,1,1.3,1.3v10a1.308,1.308,0,0,1-1.3,1.3h-10a1.308,1.308,0,0,1-1.3-1.3v-10A1.308,1.308,0,0,1,81.031,243.836Z" transform="translate(-79.726 -243.836)" fill="#ff725d" fill-rule="evenodd"/>
          <path id="Trazado_874871" data-name="Trazado 874871" d="M119.035,243.836h2.293a1.308,1.308,0,0,1,1.3,1.3v10a1.308,1.308,0,0,1-1.3,1.3h-2.293a1.308,1.308,0,0,0,1.3-1.3v-10A1.308,1.308,0,0,0,119.035,243.836Z" transform="translate(-110.023 -243.836)" fill="#ff725d" fill-rule="evenodd"/>
        </g>
        <g id="Grupo_1100347" data-name="Grupo 1100347" transform="translate(3.49 61.606)">
          <path id="Trazado_874872" data-name="Trazado 874872" d="M81.031,342.967h10a1.312,1.312,0,0,1,1.3,1.309v10a1.308,1.308,0,0,1-1.3,1.3h-10a1.308,1.308,0,0,1-1.3-1.3v-10A1.312,1.312,0,0,1,81.031,342.967Z" transform="translate(-79.726 -342.967)" fill="#0d66bf" fill-rule="evenodd"/>
          <path id="Trazado_874873" data-name="Trazado 874873" d="M119.035,342.967h2.293a1.312,1.312,0,0,1,1.3,1.309v10a1.308,1.308,0,0,1-1.3,1.3h-2.293a1.308,1.308,0,0,0,1.3-1.3v-10A1.312,1.312,0,0,0,119.035,342.967Z" transform="translate(-110.023 -342.967)" fill="#0d66bf" fill-rule="evenodd"/>
        </g>
        <g id="Grupo_1100348" data-name="Grupo 1100348">
          <path id="Trazado_874874" data-name="Trazado 874874" d="M179.668,153.625a1.834,1.834,0,1,1,0-3.668h20.669a1.834,1.834,0,1,1,0,3.668Z" transform="translate(-151.853 -132.599)" fill="#a79ba7" fill-rule="evenodd"/>
          <path id="Trazado_874875" data-name="Trazado 874875" d="M179.668,182.126a1.834,1.834,0,1,1,0-3.668h13.455a1.834,1.834,0,0,1,0,3.668Z" transform="translate(-151.853 -154.566)" fill="#a79ba7" fill-rule="evenodd"/>
          <path id="Trazado_874876" data-name="Trazado 874876" d="M179.668,252.753a1.834,1.834,0,1,1,0-3.668h20.669a1.834,1.834,0,1,1,0,3.668Z" transform="translate(-151.853 -209.002)" fill="#a79ba7" fill-rule="evenodd"/>
          <path id="Trazado_874877" data-name="Trazado 874877" d="M179.668,281.255a1.834,1.834,0,1,1,0-3.668h13.455a1.834,1.834,0,0,1,0,3.668Z" transform="translate(-151.853 -230.97)" fill="#a79ba7" fill-rule="evenodd"/>
          <path id="Trazado_874878" data-name="Trazado 874878" d="M179.668,351.906a1.834,1.834,0,1,1,0-3.668h20.669a1.834,1.834,0,1,1,0,3.668Z" transform="translate(-151.853 -285.424)" fill="#a79ba7" fill-rule="evenodd"/>
          <path id="Trazado_874879" data-name="Trazado 874879" d="M179.668,380.407a1.834,1.834,0,1,1,0-3.668h13.455a1.834,1.834,0,0,1,0,3.668Z" transform="translate(-151.853 -307.391)" fill="#a79ba7" fill-rule="evenodd"/>
          <path id="Trazado_874880" data-name="Trazado 874880" d="M66.337,77.91a1.834,1.834,0,0,1,0-3.668H102.07a1.834,1.834,0,0,1,0,3.668Z" transform="translate(-64.503 -74.242)" fill="#a79ba7" fill-rule="evenodd"/>
        </g>
      </g>
      <g id="Grupo_1100352" data-name="Grupo 1100352" transform="translate(79.198 69.445)">
        <g id="Grupo_1100350" data-name="Grupo 1100350">
          <path id="Trazado_874881" data-name="Trazado 874881" d="M331.852,203.8v29.3a1.276,1.276,0,0,1-1.276,1.276H303.892a1.276,1.276,0,0,1-1.276-1.276V203.8Z" transform="translate(-302.616 -203.796)" fill="#0d66bf" fill-rule="evenodd"/>
          <path id="Trazado_874882" data-name="Trazado 874882" d="M417.51,203.8h1.913v29.3a1.276,1.276,0,0,1-1.276,1.276h-1.913a1.276,1.276,0,0,0,1.276-1.276Z" transform="translate(-390.187 -203.796)" fill="#0d66bf" fill-rule="evenodd"/>
        </g>
        <g id="Grupo_1100351" data-name="Grupo 1100351" transform="translate(9.628)">
          <path id="Trazado_874883" data-name="Trazado 874883" d="M354.594,203.8v10.823a1.221,1.221,0,0,1-1.221,1.221h-7.537a1.221,1.221,0,0,1-1.221-1.221V203.8Z" transform="translate(-344.614 -203.796)" fill="#d3d3d3" fill-rule="evenodd"/>
          <path id="Trazado_874884" data-name="Trazado 874884" d="M375.693,203.8h1.914v10.823a1.221,1.221,0,0,1-1.221,1.221h-1.914a1.221,1.221,0,0,0,1.221-1.221Z" transform="translate(-367.627 -203.796)" fill="#abb4c0" fill-rule="evenodd"/>
        </g>
      </g>
      <g id="Grupo_1100355" data-name="Grupo 1100355" transform="translate(63.434 102.311)">
        <g id="Grupo_1100353" data-name="Grupo 1100353">
          <path id="Trazado_874885" data-name="Trazado 874885" d="M263.088,347.157v29.3a1.276,1.276,0,0,1-1.276,1.276H235.128a1.275,1.275,0,0,1-1.276-1.276v-29.3Z" transform="translate(-233.852 -347.157)" fill="#0d66bf" fill-rule="evenodd"/>
          <path id="Trazado_874886" data-name="Trazado 874886" d="M348.746,347.157h1.913v29.3a1.276,1.276,0,0,1-1.276,1.276H347.47a1.276,1.276,0,0,0,1.276-1.276Z" transform="translate(-321.423 -347.157)" fill="#0d66bf" fill-rule="evenodd"/>
        </g>
        <g id="Grupo_1100354" data-name="Grupo 1100354" transform="translate(9.628)">
          <path id="Trazado_874887" data-name="Trazado 874887" d="M285.83,347.157V357.98a1.221,1.221,0,0,1-1.221,1.221h-7.537a1.221,1.221,0,0,1-1.221-1.221V347.157Z" transform="translate(-275.85 -347.157)" fill="#d3d3d3" fill-rule="evenodd"/>
          <path id="Trazado_874888" data-name="Trazado 874888" d="M306.929,347.157h1.913V357.98a1.221,1.221,0,0,1-1.221,1.221h-1.914a1.221,1.221,0,0,0,1.221-1.221Z" transform="translate(-298.863 -347.157)" fill="#abb4c0" fill-rule="evenodd"/>
        </g>
      </g>
      <g id="Grupo_1100358" data-name="Grupo 1100358" transform="translate(94.583 102.311)">
        <g id="Grupo_1100356" data-name="Grupo 1100356">
          <path id="Trazado_874889" data-name="Trazado 874889" d="M398.964,347.157v29.3a1.275,1.275,0,0,1-1.276,1.276H371a1.276,1.276,0,0,1-1.276-1.276v-29.3Z" transform="translate(-369.728 -347.157)" fill="#0d66bf" fill-rule="evenodd"/>
          <path id="Trazado_874890" data-name="Trazado 874890" d="M484.622,347.157h1.913v29.3a1.275,1.275,0,0,1-1.276,1.276h-1.913a1.276,1.276,0,0,0,1.276-1.276Z" transform="translate(-457.299 -347.157)" fill="#0d66bf" fill-rule="evenodd"/>
        </g>
        <g id="Grupo_1100357" data-name="Grupo 1100357" transform="translate(9.628)">
          <path id="Trazado_874891" data-name="Trazado 874891" d="M421.707,347.157V357.98a1.221,1.221,0,0,1-1.221,1.221h-7.537a1.221,1.221,0,0,1-1.221-1.221V347.157Z" transform="translate(-411.727 -347.157)" fill="#d3d3d3" fill-rule="evenodd"/>
          <path id="Trazado_874892" data-name="Trazado 874892" d="M442.806,347.157h1.913V357.98A1.221,1.221,0,0,1,443.5,359.2h-1.913a1.221,1.221,0,0,0,1.221-1.221Z" transform="translate(-434.74 -347.157)" fill="#abb4c0" fill-rule="evenodd"/>
        </g>
      </g>
    </g>
  </g>
</svg>
