<svg xmlns="http://www.w3.org/2000/svg" width="146.559" height="129.374" viewBox="0 0 146.559 129.374">
  <g id="Grupo_1100665" data-name="Grupo 1100665" transform="translate(-455.751 -7640.408)">
    <g id="Grupo_1100664" data-name="Grupo 1100664">
      <g id="Grupo_1100663" data-name="Grupo 1100663">
        <g id="Grupo_1099070" data-name="Grupo 1099070" transform="translate(410.811 7625.43)">
          <rect id="Rect치ngulo_401023" data-name="Rect치ngulo 401023" width="126.094" height="129.373" rx="20" transform="translate(44.941 14.978)" fill="#53bced"/>
          <rect id="Rect치ngulo_401024" data-name="Rect치ngulo 401024" width="123.264" height="61.816" rx="20" transform="translate(66.736 70.047)" fill="none" stroke="#ff725d" stroke-miterlimit="10" stroke-width="3"/>
        </g>
      </g>
    </g>
    <g id="Grupo_1100324" data-name="Grupo 1100324" transform="translate(468.648 7664.383)">
      <g id="Grupo_1100301" data-name="Grupo 1100301" transform="translate(20.145 4.63)">
        <g id="Grupo_1100288" data-name="Grupo 1100288" transform="translate(29.648 4.832)">
          <path id="Trazado_874728" data-name="Trazado 874728" d="M273.982,53.828v15.86a.8.8,0,0,1-.805.8v.552H246.286v-.552a.8.8,0,0,1-.805-.8V53.828a.8.8,0,0,1,.805-.805h26.891A.8.8,0,0,1,273.982,53.828Z" transform="translate(-245.481 -53.023)" fill="#0d66bf"/>
          <path id="Trazado_874729" data-name="Trazado 874729" d="M255.5,53.023V69.67a.825.825,0,0,1-.781.822h-8.429a.8.8,0,0,1-.805-.8V53.828a.8.8,0,0,1,.805-.805Z" transform="translate(-245.481 -53.023)" fill="#0d66bf"/>
          <path id="Trazado_874730" data-name="Trazado 874730" d="M388.338,53.83V69.691a.8.8,0,0,1-.8.8h-2.856a.8.8,0,0,0,.8-.8V53.83a.8.8,0,0,0-.8-.8h2.856A.8.8,0,0,1,388.338,53.83Z" transform="translate(-359.837 -53.025)" fill="#0d66bf"/>
          <g id="Grupo_1100285" data-name="Grupo 1100285" transform="translate(15.327 2.699)">
            <g id="Grupo_1100284" data-name="Grupo 1100284">
              <path id="Trazado_874731" data-name="Trazado 874731" d="M332.906,70.9h-.161a1.379,1.379,0,0,1,0-2.758h.161a1.379,1.379,0,1,1,0,2.758Z" transform="translate(-331.366 -68.145)" fill="#fdd330"/>
            </g>
          </g>
          <g id="Grupo_1100287" data-name="Grupo 1100287" transform="translate(19.739 2.699)">
            <g id="Grupo_1100286" data-name="Grupo 1100286">
              <path id="Trazado_874732" data-name="Trazado 874732" d="M357.63,70.9h-.162a1.379,1.379,0,0,1,0-2.758h.162a1.379,1.379,0,0,1,0,2.758Z" transform="translate(-356.09 -68.145)" fill="#fdd330"/>
            </g>
          </g>
        </g>
        <g id="Grupo_1100300" data-name="Grupo 1100300" transform="translate(0)">
          <g id="Grupo_1100298" data-name="Grupo 1100298">
            <g id="Grupo_1100295" data-name="Grupo 1100295">
              <g id="Grupo_1100290" data-name="Grupo 1100290" transform="translate(14.726)">
                <path id="Trazado_874733" data-name="Trazado 874733" d="M184.166,26.769V47.423a.825.825,0,0,1-.824.824V48.8H162.688v-.552a.825.825,0,0,1-.824-.824V26.769a.825.825,0,0,1,.824-.824h20.655A.825.825,0,0,1,184.166,26.769Z" transform="translate(-161.864 -25.945)" fill="#ff725d"/>
                <g id="Grupo_1100289" data-name="Grupo 1100289">
                  <path id="Trazado_874734" data-name="Trazado 874734" d="M167.227,69.284v13.1a.8.8,0,0,1-.8.8h-3.736a.825.825,0,0,1-.824-.824V68.481h4.559A.8.8,0,0,1,167.227,69.284Z" transform="translate(-161.864 -60.89)" fill="#ff725d"/>
                  <path id="Trazado_874735" data-name="Trazado 874735" d="M269.925,26.769V47.423a.825.825,0,0,1-.824.824h-2.85a.825.825,0,0,0,.824-.824V26.769a.825.825,0,0,0-.824-.824h2.85A.825.825,0,0,1,269.925,26.769Z" transform="translate(-247.623 -25.945)" fill="#ff725d"/>
                </g>
              </g>
              <g id="Grupo_1100294" data-name="Grupo 1100294" transform="translate(0 7.59)">
                <path id="Trazado_874736" data-name="Trazado 874736" d="M96.01,83.189v.552H80.149v-.552a.8.8,0,0,1-.8-.8v-13.1a.8.8,0,0,1,.8-.8H96.01a.8.8,0,0,1,.8.8v13.1A.8.8,0,0,1,96.01,83.189Z" transform="translate(-79.345 -68.478)" fill="#0d66bf"/>
                <path id="Trazado_874737" data-name="Trazado 874737" d="M160.387,69.282v13.1a.8.8,0,0,1-.8.8h-2.856a.8.8,0,0,0,.8-.8v-13.1a.8.8,0,0,0-.8-.8h2.856A.8.8,0,0,1,160.387,69.282Z" transform="translate(-142.918 -68.478)" fill="#0d66bf"/>
                <g id="Grupo_1100293" data-name="Grupo 1100293" transform="translate(3.744 2.698)">
                  <path id="Trazado_874738" data-name="Trazado 874738" d="M148.17,98.231v4.583h-5.541a.8.8,0,0,1-.8-.8V99.035a.8.8,0,0,1,.8-.8Z" transform="translate(-134.419 -95.619)" fill="#0d66bf"/>
                  <path id="Trazado_874739" data-name="Trazado 874739" d="M161.233,98.231h2.856v4.583h-2.856Z" transform="translate(-150.363 -95.619)" fill="#0d66bf"/>
                  <g id="Grupo_1100291" data-name="Grupo 1100291">
                    <path id="Trazado_874740" data-name="Trazado 874740" d="M101.865,86.355H101.7a1.379,1.379,0,1,1,0-2.758h.162a1.379,1.379,0,1,1,0,2.758Z" transform="translate(-100.325 -83.597)" fill="#0d66bf"/>
                  </g>
                  <g id="Grupo_1100292" data-name="Grupo 1100292" transform="translate(0 3.928)">
                    <path id="Trazado_874741" data-name="Trazado 874741" d="M101.865,108.368H101.7a1.379,1.379,0,0,1,0-2.758h.162a1.379,1.379,0,1,1,0,2.758Z" transform="translate(-100.325 -105.61)" fill="#0d66bf"/>
                  </g>
                </g>
              </g>
            </g>
            <g id="Grupo_1100296" data-name="Grupo 1100296" transform="translate(30.162 4.98)">
              <path id="Trazado_874742" data-name="Trazado 874742" d="M249.738,64.607a1.379,1.379,0,0,1-1.379-1.379v-8a1.379,1.379,0,0,1,2.758,0v8A1.379,1.379,0,0,1,249.738,64.607Z" transform="translate(-248.359 -53.852)" fill="#fca62f"/>
            </g>
            <g id="Grupo_1100297" data-name="Grupo 1100297" transform="translate(25.877 4.98)">
              <path id="Trazado_874743" data-name="Trazado 874743" d="M225.728,59.092a1.379,1.379,0,0,1-1.379-1.379V55.231a1.379,1.379,0,1,1,2.758,0v2.482a1.379,1.379,0,0,1-1.379,1.379Z" transform="translate(-224.349 -53.852)" fill="#fca62f"/>
            </g>
          </g>
          <g id="Grupo_1100299" data-name="Grupo 1100299" transform="translate(47.475 13.562)">
            <path id="Trazado_874744" data-name="Trazado 874744" d="M359.585,110.682v.552H346.292v-.552a.919.919,0,0,1-.919-.919v-6.9a.919.919,0,0,1,.919-.919h13.292a.919.919,0,0,1,.919.919v6.9a.919.919,0,0,1-.919.919Z" transform="translate(-345.373 -101.942)" fill="#70d9e6"/>
            <path id="Trazado_874745" data-name="Trazado 874745" d="M413.449,102.86v6.9a.92.92,0,0,1-.919.919h-2.712a.92.92,0,0,0,.919-.919v-6.9a.92.92,0,0,0-.919-.919h2.712A.92.92,0,0,1,413.449,102.86Z" transform="translate(-398.317 -101.941)" fill="#3ad1e0"/>
          </g>
        </g>
      </g>
      <g id="Grupo_1100305" data-name="Grupo 1100305" transform="translate(13.339 26.931)">
        <g id="Grupo_1100303" data-name="Grupo 1100303" transform="translate(0 3.309)">
          <path id="Trazado_874746" data-name="Trazado 874746" d="M41.207,169.454H117.87v8.988H41.207Z" transform="translate(-41.207 -169.454)" fill="#848181"/>
          <g id="Grupo_1100302" data-name="Grupo 1100302">
            <path id="Trazado_874747" data-name="Trazado 874747" d="M41.207,169.454h3.848v8.988H41.207Z" transform="translate(-41.207 -169.454)" fill="#756f6f"/>
            <path id="Trazado_874748" data-name="Trazado 874748" d="M449.231,169.454h3.848v8.988h-3.848Z" transform="translate(-376.416 -169.454)" fill="#756f6f"/>
          </g>
        </g>
        <path id="Trazado_874749" data-name="Trazado 874749" d="M41.207,150.916H117.87v4.812H41.207Z" transform="translate(-41.207 -150.915)" fill="#efe2dd"/>
        <g id="Grupo_1100304" data-name="Grupo 1100304">
          <path id="Trazado_874750" data-name="Trazado 874750" d="M41.207,150.911h3.848v4.813H41.207Z" transform="translate(-41.207 -150.911)" fill="#e0d3ce"/>
          <path id="Trazado_874751" data-name="Trazado 874751" d="M449.231,150.911h3.848v4.813h-3.848Z" transform="translate(-376.416 -150.911)" fill="#e0d3ce"/>
        </g>
      </g>
      <g id="Grupo_1100309" data-name="Grupo 1100309" transform="translate(13.339 72.758)">
        <g id="Grupo_1100307" data-name="Grupo 1100307" transform="translate(0 3.861)">
          <path id="Trazado_874752" data-name="Trazado 874752" d="M41.207,429.338H117.87v8.988H41.207Z" transform="translate(-41.207 -429.338)" fill="#848181"/>
          <g id="Grupo_1100306" data-name="Grupo 1100306">
            <path id="Trazado_874753" data-name="Trazado 874753" d="M449.231,429.338h3.848v8.988h-3.848Z" transform="translate(-376.416 -429.338)" fill="#756f6f"/>
            <path id="Trazado_874754" data-name="Trazado 874754" d="M41.207,429.338h3.848v8.988H41.207Z" transform="translate(-41.207 -429.338)" fill="#756f6f"/>
          </g>
        </g>
        <path id="Trazado_874755" data-name="Trazado 874755" d="M117.87,408.256v4.813H41.207v-4.813h7.322V407.7h61.924v.552Z" transform="translate(-41.207 -407.704)" fill="#efe2dd"/>
        <g id="Grupo_1100308" data-name="Grupo 1100308" transform="translate(0 0.552)">
          <path id="Trazado_874756" data-name="Trazado 874756" d="M449.231,410.795h3.848v4.813h-3.848Z" transform="translate(-376.416 -410.795)" fill="#e0d3ce"/>
          <path id="Trazado_874757" data-name="Trazado 874757" d="M41.207,410.795h3.848v4.813H41.207Z" transform="translate(-41.207 -410.795)" fill="#e0d3ce"/>
        </g>
      </g>
      <path id="Trazado_874758" data-name="Trazado 874758" d="M13.877,91.37H8.2a.919.919,0,0,1-.919-.919V.919A.919.919,0,0,1,8.2,0h5.673A.919.919,0,0,1,14.8.919V90.451A.919.919,0,0,1,13.877,91.37Z" transform="translate(0 0)" fill="#9e9797"/>
      <path id="Trazado_874759" data-name="Trazado 874759" d="M34.071,91.37H31.866V0h2.205a.919.919,0,0,1,.919.919V90.451A.919.919,0,0,1,34.071,91.37Z" transform="translate(-20.194)" fill="#848181"/>
      <path id="Trazado_874760" data-name="Trazado 874760" d="M469.218,91.37h-5.673a.919.919,0,0,1-.919-.919V.919A.919.919,0,0,1,463.545,0h5.673a.919.919,0,0,1,.919.919V90.451A.919.919,0,0,1,469.218,91.37Z" transform="translate(-374.082 0)" fill="#9e9797"/>
      <path id="Trazado_874761" data-name="Trazado 874761" d="M489.411,91.37h-2.205V0h2.205a.919.919,0,0,1,.919.919V90.451A.919.919,0,0,1,489.411,91.37Z" transform="translate(-394.275)" fill="#848181"/>
      <g id="Grupo_1100323" data-name="Grupo 1100323" transform="translate(19.837 48.443)">
        <path id="Trazado_874762" data-name="Trazado 874762" d="M140.311,272.372V295.4a.92.92,0,0,1-.919.919H120a.92.92,0,0,1-.919-.919V272.372a.92.92,0,0,1,.919-.919h19.39A.92.92,0,0,1,140.311,272.372Z" transform="translate(-111.683 -271.453)" fill="#9e9797"/>
        <path id="Trazado_874763" data-name="Trazado 874763" d="M221.162,272.372V295.4a.92.92,0,0,1-.919.919H217.5a.92.92,0,0,0,.919-.919V272.372a.92.92,0,0,0-.919-.919h2.747A.92.92,0,0,1,221.162,272.372Z" transform="translate(-192.534 -271.453)" fill="#848181"/>
        <path id="Trazado_874764" data-name="Trazado 874764" d="M126.95,305.191v17.346a.823.823,0,0,1-.824.824H120a.92.92,0,0,1-.919-.919V304.367h7.043A.825.825,0,0,1,126.95,305.191Z" transform="translate(-111.683 -298.493)" fill="#848181"/>
        <g id="Grupo_1100311" data-name="Grupo 1100311" transform="translate(0 5.874)">
          <path id="Trazado_874765" data-name="Trazado 874765" d="M89.389,323.363H78.443a.824.824,0,0,1-.824-.824V305.194a.824.824,0,0,1,.824-.824H89.389a.824.824,0,0,1,.824.824v17.346A.824.824,0,0,1,89.389,323.363Z" transform="translate(-77.619 -304.369)" fill="#0d66bf"/>
          <path id="Trazado_874766" data-name="Trazado 874766" d="M131.5,305.191v17.346a.823.823,0,0,1-.824.824h-2.8a.823.823,0,0,0,.824-.824V305.191a.825.825,0,0,0-.824-.824h2.8A.825.825,0,0,1,131.5,305.191Z" transform="translate(-118.911 -304.367)" fill="#0d66bf"/>
          <g id="Grupo_1100310" data-name="Grupo 1100310" transform="translate(4.917)">
            <path id="Trazado_874767" data-name="Trazado 874767" d="M107.93,304.367v7.049a1.379,1.379,0,1,1-2.758,0v-7.049Z" transform="translate(-105.172 -304.367)" fill="#0d66bf"/>
          </g>
        </g>
        <g id="Grupo_1100321" data-name="Grupo 1100321" transform="translate(19.893 2.565)">
          <g id="Grupo_1100318" data-name="Grupo 1100318">
            <g id="Grupo_1100313" data-name="Grupo 1100313" transform="translate(14.726)">
              <path id="Trazado_874768" data-name="Trazado 874768" d="M293.913,286.651v20.655a.825.825,0,0,1-.824.824H272.435a.825.825,0,0,1-.824-.824V286.651a.825.825,0,0,1,.824-.824h20.655A.825.825,0,0,1,293.913,286.651Z" transform="translate(-271.611 -285.827)" fill="#0d66bf"/>
              <g id="Grupo_1100312" data-name="Grupo 1100312">
                <path id="Trazado_874769" data-name="Trazado 874769" d="M276.974,329.166v13.1a.8.8,0,0,1-.8.8h-3.736a.825.825,0,0,1-.824-.824V328.363h4.559a.8.8,0,0,1,.8.8Z" transform="translate(-271.611 -320.772)" fill="#0d66bf"/>
                <path id="Trazado_874770" data-name="Trazado 874770" d="M379.672,286.651v20.655a.825.825,0,0,1-.824.824H376a.825.825,0,0,0,.824-.824V286.651a.825.825,0,0,0-.824-.824h2.85A.825.825,0,0,1,379.672,286.651Z" transform="translate(-357.37 -285.827)" fill="#0d66bf"/>
              </g>
            </g>
            <g id="Grupo_1100317" data-name="Grupo 1100317" transform="translate(0 7.59)">
              <path id="Trazado_874771" data-name="Trazado 874771" d="M205.757,343.072H189.9a.8.8,0,0,1-.8-.8v-13.1a.8.8,0,0,1,.8-.8h15.861a.8.8,0,0,1,.8.8v13.1A.8.8,0,0,1,205.757,343.072Z" transform="translate(-189.092 -328.361)" fill="#ff725d"/>
              <path id="Trazado_874772" data-name="Trazado 874772" d="M270.134,329.164v13.1a.8.8,0,0,1-.8.8h-2.856a.8.8,0,0,0,.8-.8v-13.1a.8.8,0,0,0-.8-.8h2.856A.8.8,0,0,1,270.134,329.164Z" transform="translate(-252.665 -328.36)" fill="#ff725d"/>
              <g id="Grupo_1100316" data-name="Grupo 1100316" transform="translate(3.744 2.698)">
                <path id="Trazado_874773" data-name="Trazado 874773" d="M257.916,358.113V362.7h-5.541a.8.8,0,0,1-.8-.8v-2.975a.8.8,0,0,1,.8-.8Z" transform="translate(-244.165 -355.502)" fill="#ff725d"/>
                <path id="Trazado_874774" data-name="Trazado 874774" d="M270.979,358.113h2.856V362.7h-2.856Z" transform="translate(-260.109 -355.502)" fill="#ff725d"/>
                <g id="Grupo_1100314" data-name="Grupo 1100314">
                  <path id="Trazado_874775" data-name="Trazado 874775" d="M211.611,346.237h-.161a1.379,1.379,0,1,1,0-2.758h.161a1.379,1.379,0,1,1,0,2.758Z" transform="translate(-210.071 -343.48)" fill="#ff725d"/>
                </g>
                <g id="Grupo_1100315" data-name="Grupo 1100315" transform="translate(0 3.928)">
                  <path id="Trazado_874776" data-name="Trazado 874776" d="M211.611,368.25h-.161a1.379,1.379,0,1,1,0-2.758h.161a1.379,1.379,0,1,1,0,2.758Z" transform="translate(-210.071 -365.492)" fill="#ff725d"/>
                </g>
              </g>
            </g>
          </g>
          <g id="Grupo_1100319" data-name="Grupo 1100319" transform="translate(30.162 4.98)">
            <path id="Trazado_874777" data-name="Trazado 874777" d="M359.484,324.49a1.379,1.379,0,0,1-1.379-1.379v-8a1.379,1.379,0,0,1,2.758,0v8A1.379,1.379,0,0,1,359.484,324.49Z" transform="translate(-358.105 -313.735)" fill="#3ad1e0"/>
          </g>
          <g id="Grupo_1100320" data-name="Grupo 1100320" transform="translate(25.877 4.981)">
            <path id="Trazado_874778" data-name="Trazado 874778" d="M335.476,318.975A1.379,1.379,0,0,1,334.1,317.6v-2.482a1.379,1.379,0,1,1,2.758,0V317.6A1.379,1.379,0,0,1,335.476,318.975Z" transform="translate(-334.097 -313.736)" fill="#3ad1e0"/>
          </g>
        </g>
        <g id="Grupo_1100322" data-name="Grupo 1100322" transform="translate(48.535 16.127)">
          <path id="Trazado_874779" data-name="Trazado 874779" d="M363.8,370.564H350.51a.919.919,0,0,1-.919-.919v-6.9a.919.919,0,0,1,.919-.919H363.8a.919.919,0,0,1,.919.919v6.9A.919.919,0,0,1,363.8,370.564Z" transform="translate(-349.591 -361.824)" fill="#fee265"/>
          <path id="Trazado_874780" data-name="Trazado 874780" d="M417.667,362.742v6.9a.92.92,0,0,1-.919.919h-2.712a.92.92,0,0,0,.919-.919v-6.9a.92.92,0,0,0-.919-.919h2.712A.92.92,0,0,1,417.667,362.742Z" transform="translate(-402.535 -361.823)" fill="#fdd330"/>
        </g>
        <path id="Trazado_874781" data-name="Trazado 874781" d="M179.337,276.325h-4.913a.735.735,0,0,1-.735-.735v-4.136h6.384v4.136A.735.735,0,0,1,179.337,276.325Z" transform="translate(-156.544 -271.453)" fill="#fcb44d"/>
      </g>
    </g>
  </g>
</svg>
