<svg xmlns="http://www.w3.org/2000/svg" width="146.559" height="129.373" viewBox="0 0 146.559 129.373">
  <g id="Grupo_1100649" data-name="Grupo 1100649" transform="translate(-1040.811 -8949.054)">
    <g id="Grupo_1100250" data-name="Grupo 1100250" transform="translate(995.87 8934.075)">
      <rect id="Rect치ngulo_401023" data-name="Rect치ngulo 401023" width="126.094" height="129.373" rx="20" transform="translate(44.941 14.978)" fill="#53bced"/>
      <rect id="Rect치ngulo_401024" data-name="Rect치ngulo 401024" width="123.264" height="61.816" rx="20" transform="translate(66.736 70.047)" fill="none" stroke="#ff725d" stroke-miterlimit="10" stroke-width="3"/>
    </g>
    <g id="Grupo_1100369" data-name="Grupo 1100369" transform="translate(1044.027 8939.451)">
      <g id="Grupo_1100361" data-name="Grupo 1100361" transform="translate(16.001 20.217)">
        <path id="Trazado_874901" data-name="Trazado 874901" d="M94.912,95.41h-6.05V41.834H22.051V95.41H16V35.86L55.457,20.217,94.912,35.86Z" transform="translate(-16.001 -20.217)" fill="#636363" fill-rule="evenodd"/>
        <path id="Trazado_874902" data-name="Trazado 874902" d="M106.7,95.41h-2.791V36.55L64.976,21.116l2.267-.9L106.7,35.86ZM33.837,41.834V95.41H31.046V41.834Z" transform="translate(-27.787 -20.217)" fill="#685e68" fill-rule="evenodd"/>
        <path id="Trazado_874903" data-name="Trazado 874903" d="M155.567,74.655h16.558a1.211,1.211,0,0,1,1.207,1.207v2.492a1.211,1.211,0,0,1-1.207,1.207H155.567a1.211,1.211,0,0,1-1.207-1.207V75.862A1.211,1.211,0,0,1,155.567,74.655Z" transform="translate(-124.391 -62.863)" fill="#0d66bf" fill-rule="evenodd"/>
        <path id="Trazado_874904" data-name="Trazado 874904" d="M155.567,74.655h.805v1.686a1.211,1.211,0,0,0,1.207,1.207h15.753v.805a1.211,1.211,0,0,1-1.207,1.207H155.566a1.211,1.211,0,0,1-1.207-1.207V75.862A1.211,1.211,0,0,1,155.567,74.655Z" transform="translate(-124.39 -62.863)" fill="#53bced" fill-rule="evenodd"/>
      </g>
      <g id="Grupo_1100365" data-name="Grupo 1100365" transform="translate(25.377 62.98)">
        <path id="Trazado_874917" data-name="Trazado 874917" d="M74.673,217.64H60.112a.828.828,0,0,0-.827.827v14.307a1.083,1.083,0,0,0,1.081,1.081H74.419a1.083,1.083,0,0,0,1.081-1.081V218.467a.828.828,0,0,0-.827-.827Z" transform="translate(-59.285 -217.64)" fill="#e8e8e8" fill-rule="evenodd"/>
        <path id="Trazado_874918" data-name="Trazado 874918" d="M121.993,217.64h-2.05a.828.828,0,0,1,.827.827v14.307a1.083,1.083,0,0,1-1.081,1.081h2.05a1.083,1.083,0,0,0,1.081-1.081V218.467A.828.828,0,0,0,121.993,217.64Z" transform="translate(-106.605 -217.64)" fill="#afafaf" fill-rule="evenodd"/>
        <path id="Trazado_874919" data-name="Trazado 874919" d="M89.612,217.64H84.183v5.513a1.1,1.1,0,0,0,1.1,1.1H88.51a1.1,1.1,0,0,0,1.1-1.1Z" transform="translate(-78.79 -217.64)" fill="#d3d3d3" fill-rule="evenodd"/>
        <path id="Trazado_874920" data-name="Trazado 874920" d="M100.854,217.64H99.635v5.513a1.1,1.1,0,0,1-1.1,1.1h1.218a1.1,1.1,0,0,0,1.1-1.1Z" transform="translate(-90.032 -217.64)" fill="#afafaf" fill-rule="evenodd"/>
      </g>
      <g id="Grupo_1100373" data-name="Grupo 1100373" transform="translate(41.592 62.98)">
        <path id="Trazado_874917-2" data-name="Trazado 874917" d="M74.673,217.64H60.112a.828.828,0,0,0-.827.827v14.307a1.083,1.083,0,0,0,1.081,1.081H74.419a1.083,1.083,0,0,0,1.081-1.081V218.467a.828.828,0,0,0-.827-.827Z" transform="translate(-59.285 -217.64)" fill="#e8e8e8" fill-rule="evenodd"/>
        <path id="Trazado_874918-2" data-name="Trazado 874918" d="M121.993,217.64h-2.05a.828.828,0,0,1,.827.827v14.307a1.083,1.083,0,0,1-1.081,1.081h2.05a1.083,1.083,0,0,0,1.081-1.081V218.467A.828.828,0,0,0,121.993,217.64Z" transform="translate(-106.605 -217.64)" fill="#afafaf" fill-rule="evenodd"/>
        <path id="Trazado_874919-2" data-name="Trazado 874919" d="M89.612,217.64H84.183v5.513a1.1,1.1,0,0,0,1.1,1.1H88.51a1.1,1.1,0,0,0,1.1-1.1Z" transform="translate(-78.79 -217.64)" fill="#d3d3d3" fill-rule="evenodd"/>
        <path id="Trazado_874920-2" data-name="Trazado 874920" d="M100.854,217.64H99.635v5.513a1.1,1.1,0,0,1-1.1,1.1h1.218a1.1,1.1,0,0,0,1.1-1.1Z" transform="translate(-90.032 -217.64)" fill="#afafaf" fill-rule="evenodd"/>
      </g>
      <g id="Grupo_1100371" data-name="Grupo 1100371" transform="translate(25.377 46.764)">
        <path id="Trazado_874917-3" data-name="Trazado 874917" d="M74.673,217.64H60.112a.828.828,0,0,0-.827.827v14.307a1.083,1.083,0,0,0,1.081,1.081H74.419a1.083,1.083,0,0,0,1.081-1.081V218.467a.828.828,0,0,0-.827-.827Z" transform="translate(-59.285 -217.64)" fill="#e8e8e8" fill-rule="evenodd"/>
        <path id="Trazado_874918-3" data-name="Trazado 874918" d="M121.993,217.64h-2.05a.828.828,0,0,1,.827.827v14.307a1.083,1.083,0,0,1-1.081,1.081h2.05a1.083,1.083,0,0,0,1.081-1.081V218.467A.828.828,0,0,0,121.993,217.64Z" transform="translate(-106.605 -217.64)" fill="#afafaf" fill-rule="evenodd"/>
        <path id="Trazado_874919-3" data-name="Trazado 874919" d="M89.612,217.64H84.183v5.513a1.1,1.1,0,0,0,1.1,1.1H88.51a1.1,1.1,0,0,0,1.1-1.1Z" transform="translate(-78.79 -217.64)" fill="#d3d3d3" fill-rule="evenodd"/>
        <path id="Trazado_874920-3" data-name="Trazado 874920" d="M100.854,217.64H99.635v5.513a1.1,1.1,0,0,1-1.1,1.1h1.218a1.1,1.1,0,0,0,1.1-1.1Z" transform="translate(-90.032 -217.64)" fill="#afafaf" fill-rule="evenodd"/>
      </g>
      <g id="Grupo_1100370" data-name="Grupo 1100370" transform="translate(25.377 79.195)">
        <path id="Trazado_874917-4" data-name="Trazado 874917" d="M74.673,217.64H60.112a.828.828,0,0,0-.827.827v14.307a1.083,1.083,0,0,0,1.081,1.081H74.419a1.083,1.083,0,0,0,1.081-1.081V218.467a.828.828,0,0,0-.827-.827Z" transform="translate(-59.285 -217.64)" fill="#e8e8e8" fill-rule="evenodd"/>
        <path id="Trazado_874918-4" data-name="Trazado 874918" d="M121.993,217.64h-2.05a.828.828,0,0,1,.827.827v14.307a1.083,1.083,0,0,1-1.081,1.081h2.05a1.083,1.083,0,0,0,1.081-1.081V218.467A.828.828,0,0,0,121.993,217.64Z" transform="translate(-106.605 -217.64)" fill="#afafaf" fill-rule="evenodd"/>
        <path id="Trazado_874919-4" data-name="Trazado 874919" d="M89.612,217.64H84.183v5.513a1.1,1.1,0,0,0,1.1,1.1H88.51a1.1,1.1,0,0,0,1.1-1.1Z" transform="translate(-78.79 -217.64)" fill="#d3d3d3" fill-rule="evenodd"/>
        <path id="Trazado_874920-4" data-name="Trazado 874920" d="M100.854,217.64H99.635v5.513a1.1,1.1,0,0,1-1.1,1.1h1.218a1.1,1.1,0,0,0,1.1-1.1Z" transform="translate(-90.032 -217.64)" fill="#afafaf" fill-rule="evenodd"/>
      </g>
      <g id="Grupo_1100374" data-name="Grupo 1100374" transform="translate(41.592 79.195)">
        <path id="Trazado_874917-5" data-name="Trazado 874917" d="M74.673,217.64H60.112a.828.828,0,0,0-.827.827v14.307a1.083,1.083,0,0,0,1.081,1.081H74.419a1.083,1.083,0,0,0,1.081-1.081V218.467a.828.828,0,0,0-.827-.827Z" transform="translate(-59.285 -217.64)" fill="#e8e8e8" fill-rule="evenodd"/>
        <path id="Trazado_874918-5" data-name="Trazado 874918" d="M121.993,217.64h-2.05a.828.828,0,0,1,.827.827v14.307a1.083,1.083,0,0,1-1.081,1.081h2.05a1.083,1.083,0,0,0,1.081-1.081V218.467A.828.828,0,0,0,121.993,217.64Z" transform="translate(-106.605 -217.64)" fill="#afafaf" fill-rule="evenodd"/>
        <path id="Trazado_874919-5" data-name="Trazado 874919" d="M89.612,217.64H84.183v5.513a1.1,1.1,0,0,0,1.1,1.1H88.51a1.1,1.1,0,0,0,1.1-1.1Z" transform="translate(-78.79 -217.64)" fill="#d3d3d3" fill-rule="evenodd"/>
        <path id="Trazado_874920-5" data-name="Trazado 874920" d="M100.854,217.64H99.635v5.513a1.1,1.1,0,0,1-1.1,1.1h1.218a1.1,1.1,0,0,0,1.1-1.1Z" transform="translate(-90.032 -217.64)" fill="#afafaf" fill-rule="evenodd"/>
      </g>
      <g id="Grupo_1100367" data-name="Grupo 1100367" transform="translate(49.151 47.414)">
        <path id="Trazado_874925" data-name="Trazado 874925" d="M221.79,174.051a3.222,3.222,0,0,1,3.216,3.216v59.176a3.222,3.222,0,0,1-3.216,3.216H172.262a3.222,3.222,0,0,1-3.216-3.216V177.267a3.222,3.222,0,0,1,3.216-3.216Z" transform="translate(-169.046 -167.926)" fill="#636363" fill-rule="evenodd"/>
        <path id="Trazado_874926" data-name="Trazado 874926" d="M393.387,239.659h4.151a3.222,3.222,0,0,0,3.216-3.216V177.267a3.222,3.222,0,0,0-3.216-3.216h-4.151Z" transform="translate(-344.794 -167.926)" fill="#636363" fill-rule="evenodd"/>
        <path id="Trazado_874927" data-name="Trazado 874927" d="M235.267,194.707H191.147a1.449,1.449,0,0,0-1.446,1.446v53.768a1.449,1.449,0,0,0,1.446,1.446h44.12a1.449,1.449,0,0,0,1.446-1.446V196.153A1.449,1.449,0,0,0,235.267,194.707Z" transform="translate(-185.227 -184.108)" fill="#eceff1" fill-rule="evenodd"/>
        <path id="Trazado_874928" data-name="Trazado 874928" d="M393.387,251.367h1.446c.045,0,.091,0,.135-.006a1.449,1.449,0,0,0,1.311-1.44V196.152a1.45,1.45,0,0,0-1.311-1.44c-.044,0-.089-.006-.135-.006h-1.446Z" transform="translate(-344.794 -184.107)" fill="#d1d1d6" fill-rule="evenodd"/>
        <path id="Trazado_874929" data-name="Trazado 874929" d="M242.5,149.956h4.584a1.42,1.42,0,0,0,1.328-.874,5.469,5.469,0,0,1,10.047,0,1.42,1.42,0,0,0,1.328.874h4.584a1.449,1.449,0,0,1,1.446,1.446v5.469a1.449,1.449,0,0,1-1.446,1.446H242.5a1.449,1.449,0,0,1-1.446-1.446V151.4A1.449,1.449,0,0,1,242.5,149.956Z" transform="translate(-225.459 -145.775)" fill="#ff725d" fill-rule="evenodd"/>
        <path id="Trazado_874930" data-name="Trazado 874930" d="M262.928,171.993H241.057a1.449,1.449,0,0,0,1.446,1.446h21.872a1.449,1.449,0,0,0,1.446-1.446v-5.47a1.449,1.449,0,0,0-1.446-1.446v5.47a1.449,1.449,0,0,1-1.446,1.446Z" transform="translate(-225.459 -160.896)" fill="#ff725d" fill-rule="evenodd"/>
        <path id="Trazado_874931" data-name="Trazado 874931" d="M292.206,162.115a1.663,1.663,0,1,0-1.663-1.663A1.666,1.666,0,0,0,292.206,162.115Z" transform="translate(-264.226 -155.97)" fill="#eceff1" fill-rule="evenodd"/>
        <path id="Trazado_874932" data-name="Trazado 874932" d="M295.755,240.376a1.733,1.733,0,0,1,0-3.466h15.112a1.733,1.733,0,1,1,0,3.466Zm0,30.424a1.733,1.733,0,0,1,0-3.466h15.112a1.733,1.733,0,1,1,0,3.466Zm0,6.431a1.733,1.733,0,0,1,0-3.466h15.112a1.733,1.733,0,1,1,0,3.466Zm0-21.643a1.733,1.733,0,0,1,0-3.466h15.112a1.733,1.733,0,1,1,0,3.466Zm0,6.431a1.733,1.733,0,0,1,0-3.466h15.112a1.733,1.733,0,1,1,0,3.466Zm0-15.212a1.733,1.733,0,0,1,0-3.466h15.112a1.733,1.733,0,1,1,0,3.466Z" transform="translate(-266.952 -217.17)" fill="#a79ba7" fill-rule="evenodd"/>
        <path id="Trazado_874933" data-name="Trazado 874933" d="M226.443,379.419h5.423a1.8,1.8,0,0,1,1.79,1.79v5.423a1.8,1.8,0,0,1-1.79,1.79h-5.423a1.8,1.8,0,0,1-1.79-1.79v-5.423A1.8,1.8,0,0,1,226.443,379.419Z" transform="translate(-212.608 -328.81)" fill="#0d66bf" fill-rule="evenodd"/>
        <path id="Trazado_874934" data-name="Trazado 874934" d="M249.057,379.419h1.927a1.8,1.8,0,0,1,1.789,1.79v5.423a1.8,1.8,0,0,1-1.789,1.789h-1.927a1.8,1.8,0,0,0,1.789-1.789v-5.423a1.8,1.8,0,0,0-1.789-1.79Z" transform="translate(-231.726 -328.81)" fill="#0d66bf" fill-rule="evenodd"/>
        <path id="Trazado_874935" data-name="Trazado 874935" d="M226.443,309.2h5.423a1.8,1.8,0,0,1,1.79,1.79v5.423a1.8,1.8,0,0,1-1.79,1.79h-5.423a1.8,1.8,0,0,1-1.79-1.79v-5.423A1.8,1.8,0,0,1,226.443,309.2Z" transform="translate(-212.608 -273.798)" fill="#ff725d" fill-rule="evenodd"/>
        <path id="Trazado_874936" data-name="Trazado 874936" d="M249.057,309.2h1.927a1.8,1.8,0,0,1,1.789,1.79v5.423a1.8,1.8,0,0,1-1.789,1.79h-1.927a1.8,1.8,0,0,0,1.789-1.79v-5.423a1.8,1.8,0,0,0-1.789-1.79Z" transform="translate(-231.726 -273.798)" fill="#ff725d" fill-rule="evenodd"/>
        <path id="Trazado_874937" data-name="Trazado 874937" d="M226.443,238.974h5.423a1.8,1.8,0,0,1,1.79,1.79v5.423a1.8,1.8,0,0,1-1.79,1.79h-5.423a1.8,1.8,0,0,1-1.79-1.79v-5.423A1.8,1.8,0,0,1,226.443,238.974Z" transform="translate(-212.608 -218.787)" fill="#0d66bf" fill-rule="evenodd"/>
        <path id="Trazado_874938" data-name="Trazado 874938" d="M249.057,238.974h1.927a1.8,1.8,0,0,1,1.789,1.79v5.423a1.8,1.8,0,0,1-1.789,1.79h-1.927a1.8,1.8,0,0,0,1.789-1.79v-5.423a1.794,1.794,0,0,0-1.789-1.79Z" transform="translate(-231.726 -218.787)" fill="#0d66bf" fill-rule="evenodd"/>
      </g>
      <g id="Grupo_1100368" data-name="Grupo 1100368" transform="translate(62.86 66.877)">
        <path id="Trazado_874939" data-name="Trazado 874939" d="M396.414,390.507a17.6,17.6,0,0,1-2.969,3.269l8.074,7.914,3.074-3.168Z" transform="translate(-358.547 -356.96)" fill="#abb4c0" fill-rule="evenodd"/>
        <path id="Trazado_874940" data-name="Trazado 874940" d="M404.227,390.256a2.029,2.029,0,0,1-.879,1.179l8.02,7.968.982-1.076Z" transform="translate(-366.305 -356.763)" fill="#636363" fill-rule="evenodd"/>
        <path id="Trazado_874941" data-name="Trazado 874941" d="M433.3,433.162l3.469-3.575a1.6,1.6,0,0,0-.034-2.249l-9.608-9.323a1.6,1.6,0,0,0-2.249.034l-3.469,3.575a1.6,1.6,0,0,0,.034,2.249l9.608,9.323A1.6,1.6,0,0,0,433.3,433.162Z" transform="translate(-380.102 -378.159)" fill="#636363" fill-rule="evenodd"/>
        <path id="Trazado_874942" data-name="Trazado 874942" d="M441.424,418.015l9.608,9.323a1.6,1.6,0,0,1,.034,2.249l-3.469,3.575a1.577,1.577,0,0,1-.431.315,1.6,1.6,0,0,0,1.852-.315l3.469-3.575a1.6,1.6,0,0,0-.034-2.249l-9.608-9.323a1.6,1.6,0,0,0-1.818-.281A1.579,1.579,0,0,1,441.424,418.015Z" transform="translate(-395.823 -378.16)" fill="#12263f" fill-rule="evenodd"/>
        <path id="Trazado_874945" data-name="Trazado 874945" d="M17.5,0A17.5,17.5,0,1,1,0,17.5,17.5,17.5,0,0,1,17.5,0Z" transform="translate(0 24.739) rotate(-45)" fill="#53bced"/>
        <path id="Trazado_874943" data-name="Trazado 874943" d="M343.551,269.07a17.5,17.5,0,1,1,0,34.992q-.427,0-.849-.021a17.5,17.5,0,0,0,0-34.951Q343.124,269.071,343.551,269.07Z" transform="translate(-318.796 -261.827)" fill="#0d66bf" fill-rule="evenodd"/>
        <circle id="Elipse_11491" data-name="Elipse 11491" cx="12.563" cy="12.563" r="12.563" transform="translate(9.099 33.142) rotate(-73.142)" fill="#eceff1"/>
        <path id="Trazado_874944" data-name="Trazado 874944" d="M301.185,291.844c.285,0,.569.01.849.029a12.563,12.563,0,0,0,0,25.068c-.281.019-.564.029-.849.029a12.563,12.563,0,1,1,0-25.126Z" transform="translate(-276.43 -279.668)" fill="#d1d1d6" fill-rule="evenodd"/>
      </g>
    </g>
  </g>
</svg>
