<svg xmlns="http://www.w3.org/2000/svg" width="193" height="204" viewBox="0 0 193 204">
  <g id="Grupo_1100657" data-name="Grupo 1100657" transform="translate(-290.938 -4260.158)">
    <rect id="Rect치ngulo_401401" data-name="Rect치ngulo 401401" width="190" height="201" rx="40" transform="translate(292.438 4261.658)" fill="none" stroke="#ff725d" stroke-miterlimit="10" stroke-width="3"/>
    <g id="Grupo_64820" data-name="Grupo 64820" transform="translate(150.585 -1533.874)">
      <g id="FLAT" transform="translate(148.353 5813.94)">
        <path id="Trazado_874113" data-name="Trazado 874113" d="M160.236,107.379l3.445,8.942-.317,1.538a163.2,163.2,0,0,0,0,65.921l.317,1.538-3.445,8.942a2.456,2.456,0,0,0,2.2,3.379h59.441a2.456,2.456,0,0,0,2.2-3.379l-3.445-8.942.318-1.538a163.2,163.2,0,0,0,0-65.921l-.317-1.538,3.445-8.942a2.456,2.456,0,0,0-2.2-3.379H162.44A2.456,2.456,0,0,0,160.236,107.379Z" transform="translate(-99.645 -60.894)" fill="#0d66bf"/>
        <path id="Trazado_874114" data-name="Trazado 874114" d="M208,152h34.5v4.928H208Z" transform="translate(-132.859 -94.108)" fill="#0f5284"/>
        <path id="Trazado_874115" data-name="Trazado 874115" d="M208,352h34.5v4.928H208Z" transform="translate(-132.859 -232.503)" fill="#0f5284"/>
        <ellipse id="Elipse_11481" data-name="Elipse 11481" cx="10" cy="9.5" rx="10" ry="9.5" transform="translate(82.694 72.694)" fill="#53bced"/>
        <path id="Trazado_874116" data-name="Trazado 874116" d="M208,320h14.785v4.928H208Z" transform="translate(-132.859 -210.36)" fill="#0f5284"/>
        <path id="Trazado_874117" data-name="Trazado 874117" d="M272,320h14.785v4.928H272Z" transform="translate(-177.145 -210.36)" fill="#0f5284"/>
        <circle id="Elipse_11482" data-name="Elipse 11482" cx="7.5" cy="7.5" r="7.5" transform="translate(57.694 146.694)" fill="#636363"/>
        <circle id="Elipse_11483" data-name="Elipse 11483" cx="7.5" cy="7.5" r="7.5" transform="translate(131.694 146.694)" fill="#636363"/>
        <g id="Grupo_1099911" data-name="Grupo 1099911" transform="translate(16 18.464)">
          <path id="Trazado_874118" data-name="Trazado 874118" d="M56.035,152.139H162a4.928,4.928,0,1,0,0-9.857H58.5a2.464,2.464,0,0,1-2.464-2.464V33.857A9.857,9.857,0,0,0,46.178,24H28.928a4.928,4.928,0,1,0,0,9.857H43.714a2.464,2.464,0,0,1,2.464,2.464V142.282A9.857,9.857,0,0,0,56.035,152.139Z" transform="translate(-21.536 -24)" fill="#636363"/>
          <path id="Trazado_874119" data-name="Trazado 874119" d="M32,368H44.321v4.928H32Z" transform="translate(-27.072 -262.039)" fill="#a2c4dd"/>
          <path id="Trazado_874120" data-name="Trazado 874120" d="M16,400H28.321v4.928H16Z" transform="translate(-16 -284.182)" fill="#a2c4dd"/>
          <path id="Trazado_874121" data-name="Trazado 874121" d="M48,336h7.393v4.928H48Z" transform="translate(-38.143 -239.896)" fill="#a2c4dd"/>
        </g>
        <path id="Trazado_874122" data-name="Trazado 874122" d="M248,16h4.928v7.393H248Z" transform="translate(-160.538)" fill="#efd1bd"/>
        <path id="Trazado_874123" data-name="Trazado 874123" d="M264,40h7.393v4.928H264Z" transform="translate(-171.61 -16.607)" fill="#efd1bd"/>
        <path id="Trazado_874124" data-name="Trazado 874124" d="M248,56h4.928v7.393H248Z" transform="translate(-160.538 -27.679)" fill="#efd1bd"/>
        <path id="Trazado_874125" data-name="Trazado 874125" d="M224,40h7.393v4.928H224Z" transform="translate(-143.931 -16.607)" fill="#efd1bd"/>
        <path id="Trazado_874126" data-name="Trazado 874126" d="M400,152h4.928v4.928H400Z" transform="translate(-265.718 -94.108)" fill="#b3d0e2"/>
        <path id="Trazado_874127" data-name="Trazado 874127" d="M336,32h4.928v4.928H336Z" transform="translate(-221.432 -11.072)" fill="#b3d0e2"/>
        <rect id="Rect치ngulo_401407" data-name="Rect치ngulo 401407" width="40" height="64" rx="16" transform="translate(116.694 72.694)" fill="#ff725d"/>
        <path id="Trazado_874128" data-name="Trazado 874128" d="M376,200v12.321h9.857V200" transform="translate(-249.111 -127.323)" fill="#efd1bd"/>
        <path id="Trazado_874129" data-name="Trazado 874129" d="M344,304h39.427v27.106a4.928,4.928,0,0,1-4.928,4.928h-29.57A4.928,4.928,0,0,1,344,331.106Z" transform="translate(-226.968 -199.289)" fill="#ff725d"/>
        <path id="Trazado_874130" data-name="Trazado 874130" d="M376,304h9.857v12.321H376Z" transform="translate(-249.111 -199.289)" fill="#f2b486"/>
        <path id="Trazado_874131" data-name="Trazado 874131" d="M406.863,24h-.156A16.391,16.391,0,0,1,392,38.706v.157A16.391,16.391,0,0,1,406.706,53.57h.157a16.391,16.391,0,0,1,14.707-14.706v-.158A16.391,16.391,0,0,1,406.863,24Z" transform="translate(-260.182 -5.536)" fill="#efd1bd"/>
      </g>
    </g>
  </g>
</svg>
