<svg xmlns="http://www.w3.org/2000/svg" xmlns:xlink="http://www.w3.org/1999/xlink" width="366.508" height="466.369" viewBox="0 0 366.508 466.369">
  <defs>
    <clipPath id="clip-path">
      <rect id="Rectángulo_401511" data-name="Rectángulo 401511" width="349.27" height="402.002" fill="none"/>
    </clipPath>
    <clipPath id="clip-path-4">
      <rect id="Rectángulo_401479" data-name="Rectángulo 401479" width="9.075" height="13.149" fill="none"/>
    </clipPath>
    <clipPath id="clip-path-8">
      <rect id="Rectángulo_401504" data-name="Rectángulo 401504" width="84.504" height="63.958" fill="none"/>
    </clipPath>
    <clipPath id="clip-path-9">
      <rect id="Rectángulo_401505" data-name="Rectángulo 401505" width="45.736" height="31.8" fill="none"/>
    </clipPath>
    <clipPath id="clip-path-10">
      <rect id="Rectángulo_401506" data-name="Rectángulo 401506" width="33.407" height="46.576" fill="none"/>
    </clipPath>
    <clipPath id="clip-path-11">
      <rect id="Rectángulo_401507" data-name="Rectángulo 401507" width="69.487" height="22.226" fill="none"/>
    </clipPath>
    <clipPath id="clip-path-12">
      <rect id="Rectángulo_401508" data-name="Rectángulo 401508" width="68.628" height="67.042" fill="none"/>
    </clipPath>
    <clipPath id="clip-path-13">
      <rect id="Rectángulo_401509" data-name="Rectángulo 401509" width="6.395" height="42.999" fill="none"/>
    </clipPath>
  </defs>
  <g id="Grupo_1100649" data-name="Grupo 1100649" transform="translate(-213.492 -8711.746)">
    <g id="Grupo_1100024" data-name="Grupo 1100024" transform="translate(-840.508 5034.501)">
      <g id="Grupo_1099924" data-name="Grupo 1099924" transform="translate(1054 3677.245)">
        <g id="Grupo_54356" data-name="Grupo 54356" transform="translate(0 0)">
          <path id="Trazado_874173" data-name="Trazado 874173" d="M35.762,0H303.838C323.588,0,339.6,16.785,339.6,37.49V383.214c0,43.5-33.64,78.769-75.137,78.769H75.137a72.808,72.808,0,0,1-12.744-1.128C27.067,454.63,0,422.236,0,383.214V37.49C0,16.785,16.011,0,35.762,0Z" transform="translate(0 1.193)" fill="#53bced"/>
          <path id="Trazado_103528" data-name="Trazado 103528" d="M1053.37,691.417H965.719c-57.166,0-103.675-40.492-103.675-90.264V270.631c0-24.031,22.455-43.582,50.058-43.582h194.886c27.6,0,50.056,19.551,50.056,43.582V601.153C1157.044,650.925,1110.536,691.417,1053.37,691.417ZM912.1,229.42c-26.1,0-47.334,18.487-47.334,41.211V601.153c0,48.464,45.286,87.893,100.951,87.893h87.652c55.664,0,100.95-39.429,100.95-87.893V270.631c0-22.723-21.234-41.211-47.333-41.211Z" transform="translate(-791.044 -227.049)" fill="#db6e5f"/>
        </g>
      </g>
    </g>
    <g id="Grupo_1100074" data-name="Grupo 1100074" transform="translate(230.73 8776.113)">
      <g id="Grupo_1100073" data-name="Grupo 1100073" clip-path="url(#clip-path)">
        <rect id="Rectángulo_401467" data-name="Rectángulo 401467" width="104.638" height="80.707" transform="translate(55.411 320.236)" fill="#f5f5f5"/>
        <g id="Grupo_1100042" data-name="Grupo 1100042">
          <g id="Grupo_1100041" data-name="Grupo 1100041" clip-path="url(#clip-path)">
            <path id="Trazado_874370" data-name="Trazado 874370" d="M84.461,411.52c.144,0,.262-17.989.262-40.176s-.118-40.18-.262-40.18-.262,17.986-.262,40.18.117,40.176.262,40.176" transform="translate(-2.834 -11.146)" fill="#ebebeb"/>
            <rect id="Rectángulo_401468" data-name="Rectángulo 401468" width="8.022" height="9.068" transform="translate(64.283 382.574)" fill="#fafafa"/>
            <rect id="Rectángulo_401469" data-name="Rectángulo 401469" width="11.886" height="17.221" transform="translate(116.241 320.445)" fill="#ebebeb"/>
            <rect id="Rectángulo_401470" data-name="Rectángulo 401470" width="11.886" height="17.221" transform="translate(116.241 383.482)" fill="#ebebeb"/>
            <rect id="Rectángulo_401471" data-name="Rectángulo 401471" width="132.1" height="101.887" transform="translate(153.902 298.712)" fill="#ebebeb"/>
            <path id="Trazado_874371" data-name="Trazado 874371" d="M261.7,410.275c-.145,0-.262-22.711-.262-50.719s.117-50.724.262-50.724.262,22.706.262,50.724-.117,50.719-.262,50.719" transform="translate(-8.8 -10.395)" fill="#e0e0e0"/>
            <rect id="Rectángulo_401472" data-name="Rectángulo 401472" width="10.127" height="11.448" transform="translate(264.674 377.409)" fill="#fafafa"/>
            <rect id="Rectángulo_401473" data-name="Rectángulo 401473" width="15.005" height="21.741" transform="translate(194.202 298.975)" fill="#e0e0e0"/>
            <rect id="Rectángulo_401474" data-name="Rectángulo 401474" width="15.005" height="21.741" transform="translate(194.202 378.555)" fill="#e0e0e0"/>
          </g>
        </g>
        <rect id="Rectángulo_401476" data-name="Rectángulo 401476" width="79.894" height="61.621" transform="translate(141.586 339.957)" fill="#ff725e"/>
        <rect id="Rectángulo_401477" data-name="Rectángulo 401477" width="6.125" height="6.924" transform="translate(148.361 387.552)" fill="#fafafa"/>
        <g id="Grupo_1100050" data-name="Grupo 1100050">
          <g id="Grupo_1100049" data-name="Grupo 1100049" clip-path="url(#clip-path)">
            <g id="Grupo_1100045" data-name="Grupo 1100045" transform="translate(188.032 340.116)" opacity="0.3">
              <g id="Grupo_1100044" data-name="Grupo 1100044">
                <g id="Grupo_1100043" data-name="Grupo 1100043" clip-path="url(#clip-path-4)">
                  <rect id="Rectángulo_401478" data-name="Rectángulo 401478" width="9.075" height="13.149" transform="translate(0 -0.001)" fill="#fff"/>
                </g>
              </g>
            </g>
            <g id="Grupo_1100048" data-name="Grupo 1100048" transform="translate(188.032 388.246)" opacity="0.3">
              <g id="Grupo_1100047" data-name="Grupo 1100047">
                <g id="Grupo_1100046" data-name="Grupo 1100046" clip-path="url(#clip-path-4)">
                  <rect id="Rectángulo_401480" data-name="Rectángulo 401480" width="9.075" height="13.149" transform="translate(0 0)" fill="#fff"/>
                </g>
              </g>
            </g>
            <path id="Trazado_874372" data-name="Trazado 874372" d="M167.139,413.9c-.242,0-.437-13.553-.437-30.268s.2-30.27.437-30.27.437,13.55.437,30.27-.2,30.268-.437,30.268" transform="translate(-5.611 -11.893)" fill="#263238"/>
          </g>
        </g>
        <rect id="Rectángulo_401483" data-name="Rectángulo 401483" width="4.755" height="183.424" transform="translate(0 19.227)" fill="#263238"/>
        <rect id="Rectángulo_401484" data-name="Rectángulo 401484" width="4.025" height="183.424" transform="translate(8.605 19.228)" fill="#263238"/>
        <rect id="Rectángulo_401485" data-name="Rectángulo 401485" width="14.781" height="151.62" transform="translate(17.295 19.229)" fill="#263238"/>
        <rect id="Rectángulo_401486" data-name="Rectángulo 401486" width="3.647" height="151.62" transform="translate(35.833 19.229)" fill="#263238"/>
        <rect id="Rectángulo_401487" data-name="Rectángulo 401487" width="3.647" height="151.62" transform="translate(47.803 19.229)" fill="#263238"/>
        <rect id="Rectángulo_401488" data-name="Rectángulo 401488" width="3.647" height="151.62" transform="translate(63.42 19.229)" fill="#263238"/>
        <rect id="Rectángulo_401489" data-name="Rectángulo 401489" width="3.647" height="151.62" transform="translate(76.424 19.229)" fill="#263238"/>
        <rect id="Rectángulo_401490" data-name="Rectángulo 401490" width="3.647" height="151.62" transform="translate(118.872 19.229)" fill="#263238"/>
        <rect id="Rectángulo_401491" data-name="Rectángulo 401491" width="7.869" height="177.928" transform="translate(181.317 19.228)" fill="#263238"/>
        <rect id="Rectángulo_401492" data-name="Rectángulo 401492" width="3.647" height="151.62" transform="translate(223.787 19.229)" fill="#263238"/>
        <rect id="Rectángulo_401493" data-name="Rectángulo 401493" width="3.647" height="151.62" transform="translate(239.677 19.229)" fill="#263238"/>
        <rect id="Rectángulo_401494" data-name="Rectángulo 401494" width="8.927" height="186.621" transform="translate(251.778 18.986)" fill="#263238"/>
        <rect id="Rectángulo_401495" data-name="Rectángulo 401495" width="3.647" height="151.62" transform="translate(153.949 19.229)" fill="#263238"/>
        <rect id="Rectángulo_401496" data-name="Rectángulo 401496" width="7.469" height="151.62" transform="translate(99.183 19.229)" fill="#263238"/>
        <rect id="Rectángulo_401497" data-name="Rectángulo 401497" width="7.468" height="151.62" transform="translate(130.135 19.229)" fill="#263238"/>
        <rect id="Rectángulo_401498" data-name="Rectángulo 401498" width="7.469" height="151.62" transform="translate(141.926 19.229)" fill="#263238"/>
        <rect id="Rectángulo_401499" data-name="Rectángulo 401499" width="7.469" height="151.62" transform="translate(197.697 19.229)" fill="#263238"/>
        <rect id="Rectángulo_401500" data-name="Rectángulo 401500" width="7.469" height="151.62" transform="translate(208.993 19.229)" fill="#263238"/>
        <rect id="Rectángulo_401501" data-name="Rectángulo 401501" width="14.036" height="151.62" transform="translate(162.265 19.229)" fill="#263238"/>
        <rect id="Rectángulo_401502" data-name="Rectángulo 401502" width="11.51" height="151.62" transform="translate(83.659 19.229)" fill="#263238"/>
        <path id="Trazado_874373" data-name="Trazado 874373" d="M34.289,185.381v32.492H30.947V188.351H23.289v-2.971Z" transform="translate(-0.784 -6.24)" fill="#263238"/>
        <g id="Grupo_1100052" data-name="Grupo 1100052">
          <g id="Grupo_1100051" data-name="Grupo 1100051" clip-path="url(#clip-path)">
            <path id="Trazado_874374" data-name="Trazado 874374" d="M66.011,203.891a7.588,7.588,0,0,1,1.649,4.921,8.2,8.2,0,0,1-1.532,4.943A9.659,9.659,0,0,1,61.741,217a18.057,18.057,0,0,1-6.707,1.137q-5.847,0-9.19-2.507a8.073,8.073,0,0,1-3.343-6.822,7.711,7.711,0,0,1,1.6-4.945,9.655,9.655,0,0,1,4.665-3.039,8.107,8.107,0,0,1-3.806-2.808,7.308,7.308,0,0,1-1.3-4.341,7.432,7.432,0,0,1,3.086-6.266,13.469,13.469,0,0,1,8.285-2.321,15.938,15.938,0,0,1,6.012,1.045,9.092,9.092,0,0,1,4.015,2.994,7.456,7.456,0,0,1,1.439,4.549,7.138,7.138,0,0,1-1.346,4.341,8.412,8.412,0,0,1-3.853,2.808,9.873,9.873,0,0,1,4.711,3.063m-4.224,9.655a5.6,5.6,0,0,0,2.437-4.781,5.536,5.536,0,0,0-2.437-4.757,11.447,11.447,0,0,0-6.754-1.741,11.355,11.355,0,0,0-6.706,1.741,5.538,5.538,0,0,0-2.437,4.757,5.6,5.6,0,0,0,2.413,4.8,11.332,11.332,0,0,0,6.731,1.741,11.334,11.334,0,0,0,6.754-1.764m-12.648-15.5a9.727,9.727,0,0,0,5.895,1.579,9.839,9.839,0,0,0,5.919-1.579,4.971,4.971,0,0,0,2.158-4.223,5.03,5.03,0,0,0-2.2-4.318,9.9,9.9,0,0,0-5.872-1.578,9.76,9.76,0,0,0-5.871,1.578,5.321,5.321,0,0,0-.023,8.541" transform="translate(-1.431 -6.23)" fill="#263238"/>
            <path id="Trazado_874375" data-name="Trazado 874375" d="M93.31,189.34q3.434,4.247,3.435,12a20.617,20.617,0,0,1-1.857,9.191,13,13,0,0,1-5.2,5.686,15.335,15.335,0,0,1-7.8,1.926,14.641,14.641,0,0,1-7.706-1.764l1.346-2.693a11.338,11.338,0,0,0,6.313,1.532,10.775,10.775,0,0,0,8.448-3.411q3.063-3.411,3.063-9.91,0-1.206-.139-2.646a8.767,8.767,0,0,1-3.853,4.108,12.361,12.361,0,0,1-6.081,1.463,12.838,12.838,0,0,1-5.685-1.207,9.248,9.248,0,0,1-3.876-3.412,9.4,9.4,0,0,1-1.393-5.128,9.594,9.594,0,0,1,1.439-5.245,9.5,9.5,0,0,1,3.969-3.5,12.839,12.839,0,0,1,5.686-1.23q6.45,0,9.887,4.247m-5.176,11.721a7.308,7.308,0,0,0,2.947-2.554,6.443,6.443,0,0,0,1.068-3.62,6.306,6.306,0,0,0-1-3.434A7.169,7.169,0,0,0,88.2,188.9a10.262,10.262,0,0,0-4.641-.975,8.4,8.4,0,0,0-5.732,1.926,6.473,6.473,0,0,0-2.205,5.129,6.4,6.4,0,0,0,2.205,5.106,8.81,8.81,0,0,0,5.964,1.9,9.675,9.675,0,0,0,4.34-.928" transform="translate(-2.434 -6.23)" fill="#263238"/>
            <path id="Trazado_874376" data-name="Trazado 874376" d="M111.43,185.381v32.492h-3.342V188.351h-7.659v-2.971Z" transform="translate(-3.38 -6.24)" fill="#263238"/>
            <path id="Trazado_874377" data-name="Trazado 874377" d="M138.607,201.232a8.485,8.485,0,0,1,3.226,7.078,9.729,9.729,0,0,1-1.322,5.06,9.009,9.009,0,0,1-3.969,3.5,14.876,14.876,0,0,1-6.5,1.277,19.227,19.227,0,0,1-6.615-1.137,13.514,13.514,0,0,1-5.036-3.04l1.624-2.646a11.986,11.986,0,0,0,4.27,2.715A15.4,15.4,0,0,0,130,215.087a9.594,9.594,0,0,0,6.243-1.81,5.93,5.93,0,0,0,2.205-4.828,5.757,5.757,0,0,0-2.484-5.06q-2.483-1.716-8.378-1.717h-6.916l1.672-16.293h17.778v2.971H125.262L124.149,198.7h4.177q7.055,0,10.281,2.53" transform="translate(-3.985 -6.24)" fill="#263238"/>
            <path id="Trazado_874378" data-name="Trazado 874378" d="M153.265,216.145a13.061,13.061,0,0,1-4.595-5.731,24.293,24.293,0,0,1,0-17.593,13.078,13.078,0,0,1,4.595-5.731,12.259,12.259,0,0,1,13.414,0,13.238,13.238,0,0,1,4.619,5.731,23.992,23.992,0,0,1,0,17.593,13.221,13.221,0,0,1-4.619,5.731,12.269,12.269,0,0,1-13.414,0m11.7-2.647a10.193,10.193,0,0,0,3.365-4.594,22.6,22.6,0,0,0,0-14.574,10.2,10.2,0,0,0-3.365-4.6,8.682,8.682,0,0,0-9.979,0,10.2,10.2,0,0,0-3.366,4.6,22.619,22.619,0,0,0,0,14.574,10.2,10.2,0,0,0,3.366,4.594,8.673,8.673,0,0,0,9.979,0" transform="translate(-4.948 -6.23)" fill="#263238"/>
            <path id="Trazado_874379" data-name="Trazado 874379" d="M227.238,185.023v2.251l-12.927,28.635H210.87l12.706-28.062H207.693v5.781H204.56v-8.6Z" transform="translate(-6.885 -6.228)" fill="#263238"/>
            <path id="Trazado_874380" data-name="Trazado 874380" d="M253.4,213.075V215.9H231.739v-2.25l12.84-12.575a16.6,16.6,0,0,0,3.287-4.126,7.841,7.841,0,0,0,.86-3.506,5.176,5.176,0,0,0-1.875-4.259,8.314,8.314,0,0,0-5.36-1.522q-5.427,0-8.427,3.442l-2.25-1.942a11.858,11.858,0,0,1,4.61-3.265,16.58,16.58,0,0,1,6.331-1.146,11.567,11.567,0,0,1,7.479,2.227,7.434,7.434,0,0,1,2.757,6.111,10.47,10.47,0,0,1-1.059,4.588,19.228,19.228,0,0,1-4.014,5.074l-10.5,10.324Z" transform="translate(-7.769 -6.218)" fill="#263238"/>
          </g>
        </g>
        <path id="Trazado_874381" data-name="Trazado 874381" d="M195.947,108.077l-19.295,21.8,26.262,10,19.474-23.761Z" transform="translate(-5.946 -3.638)" fill="#ff725e"/>
        <g id="Grupo_1100072" data-name="Grupo 1100072">
          <g id="Grupo_1100071" data-name="Grupo 1100071" clip-path="url(#clip-path)">
            <path id="Trazado_874382" data-name="Trazado 874382" d="M223.3,116.4s55.741,57.885,55.2,58.241-16.436,19.474-16.436,19.474l-58.242-53.953Z" transform="translate(-6.861 -3.918)" fill="#ff725e"/>
            <path id="Trazado_874383" data-name="Trazado 874383" d="M176.652,130.632l55.562,53.417,28.942,10.541-58.241-53.954Z" transform="translate(-5.946 -4.397)" fill="#ff725e"/>
            <g id="Grupo_1100055" data-name="Grupo 1100055" transform="translate(170.706 126.235)" opacity="0.3">
              <g id="Grupo_1100054" data-name="Grupo 1100054">
                <g id="Grupo_1100053" data-name="Grupo 1100053" clip-path="url(#clip-path-8)">
                  <path id="Trazado_874384" data-name="Trazado 874384" d="M176.652,130.632l55.562,53.417,28.942,10.541-58.241-53.954Z" transform="translate(-176.652 -130.632)"/>
                </g>
              </g>
            </g>
            <g id="Grupo_1100058" data-name="Grupo 1100058" transform="translate(170.706 104.439)" opacity="0.3">
              <g id="Grupo_1100057" data-name="Grupo 1100057">
                <g id="Grupo_1100056" data-name="Grupo 1100056" clip-path="url(#clip-path-9)">
                  <path id="Trazado_874385" data-name="Trazado 874385" d="M195.947,108.077l-19.295,21.8,26.262,10,19.474-23.761Z" transform="translate(-176.652 -108.077)" fill="#fff"/>
                </g>
              </g>
            </g>
            <path id="Trazado_874386" data-name="Trazado 874386" d="M251.621,145.866s6.357.24,7.076.96,6.357,12.112,6.357,12.112l1.919,1.2.544,16.948-16.9,1.483-5.7,3.392-5.617-.507a1.973,1.973,0,0,1-1.861-1.729l-.451-3.636s2.315-.547,2.894,1.116l.212.785,3.115.228,3.326-2.458.216-1.3-10.845.723L231.425,172s1.915-2.4,3.843-1.405a11.61,11.61,0,0,1,1.48.72l9.065-2.135-17.491.169a3.354,3.354,0,0,1,3.462-3.706c2.678-.082,9.473-.8,9.473-.8s5.206-.434,5.423-2.169-14.679-5.712-15.4-7.592.145-3.76,3.615-2.675,13.449,5.35,16.269,5.133,5.351-2.747,5.495-3.833-1.446-4.555-1.446-4.555-3.858-.277-3.592-3.284" transform="translate(-7.685 -4.91)" fill="#ffc09d"/>
            <path id="Trazado_874387" data-name="Trazado 874387" d="M204.462,110.543c-.254-.077-7.67,8.363-7.67,8.363l5.7,1.743,8.025-8.266Z" transform="translate(-6.624 -3.721)" fill="#fff"/>
            <path id="Trazado_874388" data-name="Trazado 874388" d="M186.907,133.757c-.1-.093,4.353-5.2,9.952-11.4s10.225-11.158,10.328-11.065-4.353,5.2-9.954,11.4-10.223,11.155-10.326,11.063" transform="translate(-6.291 -3.746)" fill="#263238"/>
            <path id="Trazado_874389" data-name="Trazado 874389" d="M244.766,188.666c-.094.1-13.123-11.672-29.1-26.3S186.812,135.8,186.906,135.7s13.121,11.67,29.1,26.3,28.852,26.566,28.758,26.668" transform="translate(-6.291 -4.567)" fill="#263238"/>
            <path id="Trazado_874390" data-name="Trazado 874390" d="M274.142,115.4l2.5,2.86c.181,14.134,14.58,33.839,14.58,33.839l7.574-32.059L296.046,107.8l-8.26-.955-3.251-4.337Z" transform="translate(-9.227 -3.45)" fill="#455a64"/>
            <path id="Trazado_874391" data-name="Trazado 874391" d="M260.516,84.122c-2.986.89-7.388,5.45-11.207,9.7-1.834,2.041-.829,5.608,1.11,7.549l2.48,2.482a5.164,5.164,0,0,0,6.885.378l1.725-1.384a5.166,5.166,0,0,1,7.132.642l7.181,8.265a5.163,5.163,0,0,0,7.594.221l.033-.033a5.165,5.165,0,0,0,.312-6.867l-16.03-19.715a5.039,5.039,0,0,0-1.532-1.277c-1.162-.617-2.887-.8-5.683.038" transform="translate(-8.359 -2.812)" fill="#ff725e"/>
            <path id="Trazado_874392" data-name="Trazado 874392" d="M260.373,104.657a14.822,14.822,0,0,0,2.546,1.683s-1.418,1.995-.054,3.357a6.059,6.059,0,0,0,3.276,1.57,3.306,3.306,0,0,0,2.654,3.46c2.9.681,10.97-.5,11.254-1.239s.985-2.745-.889-3.2a22.214,22.214,0,0,0-4.4-.445s3.823-1.421,1.556-4.489c-1.04-1.407-5.7-.014-5.7-.014l-3.49.4s3.194-2.25.7-4.517a1.908,1.908,0,0,0-2.916,0Z" transform="translate(-8.764 -3.384)" fill="#ffc09d"/>
            <path id="Trazado_874393" data-name="Trazado 874393" d="M274.931,98.612s-2.823-.362-2.171-2.1a21.018,21.018,0,0,1,3.764-5.5A2.915,2.915,0,0,1,279.564,90c.869.362,3.836,2.606,4.343,5.211s1.014,5.646.579,6.876a12.451,12.451,0,0,1-.855,1.953l-4.974-6.117s-2.536,1.024-3.725.69" transform="translate(-9.177 -3.025)" fill="#ffc09d"/>
            <path id="Trazado_874394" data-name="Trazado 874394" d="M263.685,101.587a7.128,7.128,0,0,1,.424-1.525l-.008.043a3.131,3.131,0,0,0-.484-1.554,13.841,13.841,0,0,0-1.51-1.612l-3.955-4a3.942,3.942,0,0,0-3.83-.827,4.654,4.654,0,0,0-1.572.9l-1.3,1.024L249.6,95.553c-.443.36-.664.56-.682.555a10.8,10.8,0,0,1,2.31-2.343c.382-.335.8-.7,1.268-1.078a4.981,4.981,0,0,1,1.686-1.017,4.362,4.362,0,0,1,4.313.895c1.476,1.481,2.783,2.871,3.929,4.073a12.488,12.488,0,0,1,1.5,1.73,3.261,3.261,0,0,1,.433,1.738v.027l-.007.017a7.122,7.122,0,0,1-.663,1.437" transform="translate(-8.378 -3.078)" fill="#263238"/>
            <path id="Trazado_874395" data-name="Trazado 874395" d="M270.61,95.36a10.293,10.293,0,0,1-2.35,2.824,10.293,10.293,0,0,1-2.921,2.227,19.566,19.566,0,0,1,2.573-2.591,19.677,19.677,0,0,1,2.7-2.46" transform="translate(-8.931 -3.209)" fill="#263238"/>
            <path id="Trazado_874396" data-name="Trazado 874396" d="M268.5,105.73a15.613,15.613,0,0,1-5.52.867,15.623,15.623,0,0,1,5.52-.867" transform="translate(-8.851 -3.556)" fill="#ff9b6c"/>
            <path id="Trazado_874397" data-name="Trazado 874397" d="M275.814,109.924a18.268,18.268,0,0,1-9.508,1.82c0-.149,2.168-.256,4.782-.763s4.673-1.2,4.725-1.056" transform="translate(-8.963 -3.699)" fill="#ff9b6c"/>
            <path id="Trazado_874398" data-name="Trazado 874398" d="M281.066,94.134a3.784,3.784,0,0,1-2.807,4.118c-.065-.134.991-.658,1.762-1.815a15.877,15.877,0,0,0,1.046-2.3" transform="translate(-9.366 -3.168)" fill="#ff9b6c"/>
            <path id="Trazado_874399" data-name="Trazado 874399" d="M250.761,98.265s3.665,5.151,5.307,5.25c1.153.071,2.9-1.983,3.836-3.211a1.242,1.242,0,0,0-.13-1.647l-3.968-3.848-.926-.246Z" transform="translate(-8.44 -3.183)" fill="#263238"/>
            <g id="Grupo_1100061" data-name="Grupo 1100061" transform="translate(218.307 91.38)" opacity="0.6">
              <g id="Grupo_1100060" data-name="Grupo 1100060">
                <g id="Grupo_1100059" data-name="Grupo 1100059" clip-path="url(#clip-path-10)">
                  <path id="Trazado_874400" data-name="Trazado 874400" d="M250.114,98.112l-24.2,19.487,22.582,23.539,10.719-41.079a1.24,1.24,0,0,0-.158-1.288l-4.085-3.962-.927-.246Z" transform="translate(-225.911 -94.563)" fill="#fff"/>
                </g>
              </g>
            </g>
            <path id="Trazado_874401" data-name="Trazado 874401" d="M343.139,30.085,340.464,75c-.454,7.637-2.683,18.763-14.725,17.494-10.365-1.89-12.424-11.979-11.993-19.106.206-3.38.369-6.2.367-6.549,0,0-11.368-1.757-11.52-13.121-.073-5.493.7-16.817,1.511-27.054A21.172,21.172,0,0,1,325.194,7.183h1.1c11.825.679,17.854,11.1,16.848,22.9" transform="translate(-10.185 -0.242)" fill="#ffc09d"/>
            <path id="Trazado_874402" data-name="Trazado 874402" d="M314.509,68.76A27.463,27.463,0,0,0,329.3,64.371s-3.6,8.3-14.943,7.292Z" transform="translate(-10.581 -2.167)" fill="#ff9b6c"/>
            <path id="Trazado_874403" data-name="Trazado 874403" d="M323.8,33.507c.208.244,1.588-.711,3.485-.626,1.9.058,3.242,1.116,3.459.887.105-.1-.1-.536-.684-1.014a4.753,4.753,0,0,0-2.756-1,4.586,4.586,0,0,0-2.786.792c-.6.434-.82.851-.717.962" transform="translate(-10.898 -1.069)" fill="#263238"/>
            <path id="Trazado_874404" data-name="Trazado 874404" d="M323.017,39.214a1.535,1.535,0,0,0,1.482,1.547,1.469,1.469,0,0,0,1.581-1.386,1.535,1.535,0,0,0-1.48-1.548,1.47,1.47,0,0,0-1.583,1.387" transform="translate(-10.872 -1.273)" fill="#263238"/>
            <path id="Trazado_874405" data-name="Trazado 874405" d="M317.754,46.331a11.525,11.525,0,0,0-2.837-.509c-.445-.045-.868-.133-.943-.438a2.27,2.27,0,0,1,.3-1.322q.628-1.619,1.316-3.4c1.826-4.837,3.148-8.814,2.953-8.886s-1.835,3.79-3.661,8.627q-.66,1.789-1.26,3.417a2.585,2.585,0,0,0-.23,1.751,1.124,1.124,0,0,0,.734.651,3.052,3.052,0,0,0,.758.1,11.383,11.383,0,0,0,2.875,0" transform="translate(-10.545 -1.07)" fill="#263238"/>
            <path id="Trazado_874406" data-name="Trazado 874406" d="M323.769,27.312c.194.416,1.7.057,3.525.1,1.822,0,3.326.4,3.526-.008.087-.2-.207-.576-.834-.933A5.746,5.746,0,0,0,327.3,25.8a5.683,5.683,0,0,0-2.689.6c-.632.341-.931.713-.845.911" transform="translate(-10.897 -0.868)" fill="#e0e0e0"/>
            <path id="Trazado_874407" data-name="Trazado 874407" d="M305.961,28.051c.174.357,1.678.083,3.471.157,1.8.042,3.262.41,3.478.066.095-.164-.178-.492-.783-.809a6.26,6.26,0,0,0-2.615-.628,6.472,6.472,0,0,0-2.679.458c-.639.277-.949.587-.873.757" transform="translate(-10.298 -0.903)" fill="#e0e0e0"/>
            <path id="Trazado_874408" data-name="Trazado 874408" d="M343.584,39.579c.194-.084,7.807-2.317,7.566,5.453s-7.992,5.926-8,5.7.432-11.155.432-11.155" transform="translate(-11.55 -1.32)" fill="#ffc09d"/>
            <path id="Trazado_874409" data-name="Trazado 874409" d="M345.7,47.953c.035-.024.132.1.358.211a1.355,1.355,0,0,0,1.012.052c.83-.275,1.562-1.558,1.643-2.957a4.478,4.478,0,0,0-.319-1.949,1.565,1.565,0,0,0-.987-1.071.688.688,0,0,0-.81.346c-.111.215-.067.371-.108.383-.022.019-.162-.135-.09-.454a.862.862,0,0,1,.321-.477,1.024,1.024,0,0,1,.755-.175,1.9,1.9,0,0,1,1.376,1.249,4.6,4.6,0,0,1,.4,2.181c-.1,1.564-.945,3-2.079,3.294a1.447,1.447,0,0,1-1.231-.244c-.235-.2-.271-.374-.244-.388" transform="translate(-11.635 -1.409)" fill="#ff9b6c"/>
            <path id="Trazado_874410" data-name="Trazado 874410" d="M353.27,26.458c-1.418-2.849-1.559-6.136-2.222-9.248S348.915,10.817,346,9.536l-.07.025c-2.606-1.273-5.914-1.527-8.253.178-.256-4.066-3.556-7.508-7.412-8.823s-10.2-1.154-14.083.093c-3,.962-5.988,3.163-9.667,6.446a38.11,38.11,0,0,0-4.3,4.506l-4.177,10.307,2.529,5.745c.148.389.3.778.494,1.166l0-.025,1.8,11.853c.4-3.169.961-14.249,1.358-17.417a17.782,17.782,0,0,0,13.06-4.927c1.876-1.8,3.415-4.112,5.821-5.094,3.1-1.266,6.6.07,9.673,1.393l-.125-.13a14.223,14.223,0,0,1,4.148,3.473,44.2,44.2,0,0,0,.565,18.8c.231.924.905,2.84,1.766,3.246,1.691.8,2.287-.94,3.4-1.806a4.617,4.617,0,0,1,3.22-.551,69.529,69.529,0,0,0,2.706-7.886,7.087,7.087,0,0,0,3.236.451q-.413-1.234-.828-2.467a3.72,3.72,0,0,0,1.347.731,1.263,1.263,0,0,0,1.361-.48c.338-.573-.014-1.286-.31-1.882" transform="translate(-10.032 0)" fill="#e0e0e0"/>
            <path id="Trazado_874411" data-name="Trazado 874411" d="M335.284,11.156a9.7,9.7,0,0,1,1.059,1.118,8.132,8.132,0,0,1,1.464,3.876,14.342,14.342,0,0,1,.081,2.893c-.07,1.041-.234,2.149-.4,3.317a29.833,29.833,0,0,0-.352,3.7,13,13,0,0,0,.114,1.973,4.075,4.075,0,0,0,.661,1.953,1.709,1.709,0,0,0,1.556.651,2.539,2.539,0,0,0,1.493-.707,5.865,5.865,0,0,0,1.3-2.795l-.239.012a9.48,9.48,0,0,0,1.2,2.466,3.369,3.369,0,0,0,2.111,1.356,2.176,2.176,0,0,0,1.18-.121,1.876,1.876,0,0,0,.847-.722,1.942,1.942,0,0,0,.312-.985,1.405,1.405,0,0,0-.3-.9l-.128.1a7.313,7.313,0,0,0,2.3,2,6.6,6.6,0,0,0,.732.346,1.226,1.226,0,0,0,.265.086,1.424,1.424,0,0,0-.247-.127c-.163-.081-.406-.2-.705-.381a7.534,7.534,0,0,1-2.21-2.017l-.128.1a1.451,1.451,0,0,1-.045,1.684,1.7,1.7,0,0,1-.765.639,1.979,1.979,0,0,1-1.069.1,3.159,3.159,0,0,1-1.958-1.284,9.327,9.327,0,0,1-1.157-2.412l-.137-.374-.1.386a5.683,5.683,0,0,1-1.235,2.671,2.291,2.291,0,0,1-1.336.632,1.441,1.441,0,0,1-1.322-.552A3.856,3.856,0,0,1,337.513,28a12.955,12.955,0,0,1-.115-1.934,30.372,30.372,0,0,1,.333-3.669c.158-1.168.314-2.282.376-3.337a14.2,14.2,0,0,0-.116-2.933,8.016,8.016,0,0,0-1.567-3.914,4.6,4.6,0,0,0-1.14-1.054" transform="translate(-11.285 -0.375)" fill="#fff"/>
            <path id="Trazado_874412" data-name="Trazado 874412" d="M298.292,19.394s.026.032.085.084l.268.226a3.764,3.764,0,0,0,.456.341,6.016,6.016,0,0,0,.662.412,10.055,10.055,0,0,0,4.774,1.219,12.837,12.837,0,0,0,7-2.027,22.233,22.233,0,0,0,6.345-6.331c.921-1.309,1.691-2.663,2.523-3.906a15.023,15.023,0,0,1,2.772-3.258,7.726,7.726,0,0,1,3.4-1.741,5.531,5.531,0,0,1,1.731-.074,6.072,6.072,0,0,1,1.551.416,6.553,6.553,0,0,1,3.409,3.334,7.864,7.864,0,0,1,.461,1.736.407.407,0,0,0,0-.119c-.009-.095-.017-.21-.029-.35a5.7,5.7,0,0,0-.337-1.306,6.427,6.427,0,0,0-1.141-1.806,6.632,6.632,0,0,0-2.29-1.661,6.242,6.242,0,0,0-1.6-.445,5.729,5.729,0,0,0-1.8.062,7.923,7.923,0,0,0-3.512,1.769,15.149,15.149,0,0,0-2.831,3.3c-.842,1.25-1.613,2.6-2.525,3.9a22.239,22.239,0,0,1-6.256,6.274,12.762,12.762,0,0,1-6.871,2.048,10.206,10.206,0,0,1-4.725-1.122,16.156,16.156,0,0,1-1.52-.972" transform="translate(-10.04 -0.138)" fill="#fff"/>
            <path id="Trazado_874413" data-name="Trazado 874413" d="M305.888,32.959c.208.244,1.588-.711,3.485-.626,1.895.057,3.242,1.116,3.459.887.105-.1-.1-.536-.684-1.014a4.753,4.753,0,0,0-2.756-1,4.586,4.586,0,0,0-2.786.792c-.6.434-.819.851-.717.962" transform="translate(-10.295 -1.05)" fill="#263238"/>
            <path id="Trazado_874414" data-name="Trazado 874414" d="M307.017,38.841a1.534,1.534,0,0,0,1.482,1.547A1.468,1.468,0,0,0,310.079,39a1.535,1.535,0,0,0-1.48-1.548,1.469,1.469,0,0,0-1.582,1.387" transform="translate(-10.334 -1.261)" fill="#263238"/>
            <path id="Trazado_874415" data-name="Trazado 874415" d="M303.079,11.1c-1.038,1.214-2.587,2.283-4.162,2.02a11.871,11.871,0,0,1-1.657-.6c-.574.3-.557,2.206-.206,2.751a10.135,10.135,0,0,0,1.115,1.3c-1.918.888-3.582.3-5.522-.547a9.741,9.741,0,0,0,5.31,8.137,3.413,3.413,0,0,0,3.118.246,3.93,3.93,0,0,0,1.517-2.353A42.641,42.641,0,0,0,304.6,11.747Z" transform="translate(-9.85 -0.374)" fill="#e0e0e0"/>
            <path id="Trazado_874416" data-name="Trazado 874416" d="M317.232,53.224c-.015.065.417.248,1.164.244a4.539,4.539,0,0,0,4.309-3.367c.185-.725.11-1.189.044-1.19-.085-.007-.153.432-.415,1.066a4.945,4.945,0,0,1-3.969,3.1c-.679.1-1.121.06-1.134.144" transform="translate(-10.677 -1.646)" fill="#263238"/>
            <path id="Trazado_874417" data-name="Trazado 874417" d="M307.938,370.526l6.729,23.879s-21.432,15.026-20.607,19.563l45.661-11.7-8.994-37.647Z" transform="translate(-9.897 -12.272)" fill="#455a64"/>
            <path id="Trazado_874418" data-name="Trazado 874418" d="M329.418,389.6a1.945,1.945,0,0,1,1.822,1.85,1.872,1.872,0,0,1-1.773,1.866,2.053,2.053,0,0,1-1.919-1.969c.087-.963,1.139-1.967,2.054-1.731" transform="translate(-11.024 -13.113)" fill="#e0e0e0"/>
            <path id="Trazado_874419" data-name="Trazado 874419" d="M339.716,403.446l-1.051-3.758-43.386,12.625s-1.811,1.427-1.223,2.835Z" transform="translate(-9.893 -13.453)" fill="#263238"/>
            <path id="Trazado_874420" data-name="Trazado 874420" d="M315.2,395.546c.063.227,1.2.044,2.48.5,1.288.419,2.1,1.264,2.278,1.121.2-.1-.471-1.378-2.025-1.9s-2.831.083-2.732.28" transform="translate(-10.609 -13.297)" fill="#263238"/>
            <path id="Trazado_874421" data-name="Trazado 874421" d="M310.939,399.068c0,.234,1.063.375,2.056,1.147,1.016.742,1.462,1.738,1.681,1.671.218-.017.046-1.394-1.207-2.33s-2.579-.707-2.531-.488" transform="translate(-10.466 -13.425)" fill="#263238"/>
            <path id="Trazado_874422" data-name="Trazado 874422" d="M309.172,405.8c.215,0,.246-1.224-.632-2.328s-2.042-1.335-2.09-1.121c-.08.22.76.718,1.468,1.636.729.9,1.027,1.848,1.254,1.813" transform="translate(-10.314 -13.54)" fill="#263238"/>
            <path id="Trazado_874423" data-name="Trazado 874423" d="M313.581,389.527c.144.185,1.09-.393,2.371-.628,1.277-.262,2.364-.08,2.432-.306.089-.2-1.076-.8-2.581-.5s-2.376,1.281-2.223,1.433" transform="translate(-10.554 -13.06)" fill="#263238"/>
            <path id="Trazado_874424" data-name="Trazado 874424" d="M323.233,372.345l.708,26.1s-25.568,11-25.974,15.776l50.69-.4-.109-41.743Z" transform="translate(-10.029 -12.523)" fill="#455a64"/>
            <path id="Trazado_874425" data-name="Trazado 874425" d="M341.41,397.566a2.124,2.124,0,0,1,1.45,2.409,1.988,1.988,0,0,1-2.317,1.493,2.242,2.242,0,0,1-1.523-2.559,2.052,2.052,0,0,1,2.579-1.279" transform="translate(-11.408 -13.379)" fill="#e0e0e0"/>
            <path id="Trazado_874426" data-name="Trazado 874426" d="M348.673,415.526l-.188-4.611-48.537,1.961s-2.249,1.024-1.981,2.651Z" transform="translate(-10.028 -13.831)" fill="#263238"/>
            <path id="Trazado_874427" data-name="Trazado 874427" d="M325.353,400c.01.253,1.249.359,2.473,1.164,1.245.773,1.881,1.866,2.108,1.764.228-.051-.153-1.564-1.651-2.512s-2.984-.648-2.929-.416" transform="translate(-10.951 -13.455)" fill="#263238"/>
            <path id="Trazado_874428" data-name="Trazado 874428" d="M319.565,402.405c-.055.246,1.02.669,1.87,1.735.878,1.04,1.1,2.2,1.346,2.185.233.039.393-1.449-.687-2.753s-2.525-1.408-2.529-1.166" transform="translate(-10.756 -13.541)" fill="#263238"/>
            <path id="Trazado_874429" data-name="Trazado 874429" d="M316.269,409.15c.225.052.56-1.218-.086-2.6s-1.808-1.927-1.911-1.715c-.138.21.619.949,1.133,2.094.539,1.131.618,2.2.865,2.223" transform="translate(-10.577 -13.624)" fill="#263238"/>
            <path id="Trazado_874430" data-name="Trazado 874430" d="M324.855,393.391c.105.23,1.239-.129,2.638-.043,1.4.057,2.494.53,2.622.311.142-.185-.929-1.115-2.578-1.192s-2.8.726-2.682.924" transform="translate(-10.934 -13.209)" fill="#263238"/>
            <path id="Trazado_874431" data-name="Trazado 874431" d="M350.31,190.511l1.653,12.048a43.889,43.889,0,0,1,.019,11.787l-1.118,8.341s-2.25,62.3-2.358,60.018c0,0,1.213,45.677,2.124,55.374,1.654,17.619.166,49.992.166,49.992H321.974L311.593,285.743l-6.445-63.817L293.938,192.88Z" transform="translate(-9.893 -6.412)" fill="#263238"/>
            <path id="Trazado_874432" data-name="Trazado 874432" d="M282.051,193.456l.317,12.19,1.734,88.623a44.955,44.955,0,0,0,2.411,12.2l23.606,68.074,1.348,4.661,17.337-4.293L315.91,191.781Z" transform="translate(-9.493 -6.455)" fill="#263238"/>
            <path id="Trazado_874433" data-name="Trazado 874433" d="M305.619,223.81a2.465,2.465,0,0,0-.01.43c.006.31.014.728.024,1.26.034,1.138.083,2.765.146,4.845.117,4.208.411,10.293.828,17.808.875,15.027,2.509,35.764,5.055,58.585,2.508,22.833,5.275,43.437,7.3,58.345,1.028,7.429,1.86,13.452,2.441,17.648.3,2.059.527,3.668.689,4.795l.192,1.245a2.425,2.425,0,0,0,.084.421,2.636,2.636,0,0,0-.029-.429c-.035-.308-.08-.723-.139-1.252-.139-1.13-.336-2.743-.589-4.809-.54-4.2-1.314-10.233-2.271-17.672-1.926-14.92-4.634-35.529-7.139-58.354-2.546-22.812-4.239-43.533-5.211-58.548-.466-7.508-.818-13.588-1-17.792-.106-2.078-.189-3.7-.247-4.839-.033-.531-.059-.948-.077-1.258a2.53,2.53,0,0,0-.045-.428" transform="translate(-10.286 -7.533)" fill="#455a64"/>
            <path id="Trazado_874434" data-name="Trazado 874434" d="M323.948,395.052a5.132,5.132,0,0,1,.088,1.1q.029,1.207.074,3.064l-.323-.026a.158.158,0,0,0,.073.163c.073.034.095.017.086.021h.008c.007,0,.013,0,0,0l-.025.009-.063.026-.133.061-.275.131-.575.285-1.24.629-2.809,1.444-6.623,3.423c-4.25,2.253-8.23,4.073-10.724,5.969a12.575,12.575,0,0,0-2.664,2.536,5.1,5.1,0,0,0-.652,1.178,2.176,2.176,0,0,1,.49-1.288,11.454,11.454,0,0,1,2.61-2.708c2.5-2.009,6.468-3.884,10.71-6.134,2.373-1.228,4.63-2.375,6.649-3.381l2.836-1.394,1.259-.6.588-.27.285-.126.144-.059.075-.029.045-.015.04-.009.026,0c-.006,0,.018-.013.094.023a.174.174,0,0,1,.082.168l-.348,1,.025-1.025q.045-1.857.074-3.064a5.131,5.131,0,0,1,.088-1.1" transform="translate(-10.036 -13.297)" fill="#263238"/>
            <g id="Grupo_1100064" data-name="Grupo 1100064" transform="translate(272.969 189.345)" opacity="0.3">
              <g id="Grupo_1100063" data-name="Grupo 1100063">
                <g id="Grupo_1100062" data-name="Grupo 1100062" clip-path="url(#clip-path-11)">
                  <path id="Trazado_874435" data-name="Trazado 874435" d="M282.477,210.659s9.434,5.094,27.1,7.1c25.249,2.867,42.382-10.365,42.382-10.365l-1.321-11.454-68.166,4.493Z" transform="translate(-282.477 -195.94)"/>
                </g>
              </g>
            </g>
            <path id="Trazado_874436" data-name="Trazado 874436" d="M352.937,84.261c8.58,11.969,4.961,41.371,4.961,41.371L353.888,187l0,7.259s.306,5.976-21.355,13.2-53.665-5.416-53.665-5.416,5.883-44.777,10.19-69.629q.845-4.872,1.7-9.1a91.8,91.8,0,0,1,23.2-44.857l.2-.215,26.285-6.192a56.737,56.737,0,0,1,12.5,12.216" transform="translate(-9.386 -2.425)" fill="#ff725e"/>
            <path id="Trazado_874437" data-name="Trazado 874437" d="M279.788,199.221s21.588,10.645,40.881,8.073a78.314,78.314,0,0,0,33.218-12.987v6.735s-15.277,12.77-36.329,12.756a108.872,108.872,0,0,1-38.693-7.646Z" transform="translate(-9.386 -6.54)" fill="#e0e0e0"/>
            <path id="Trazado_874438" data-name="Trazado 874438" d="M287.284,147.017l69.283,4.775-1.04,16.449-70.331-7.5Z" transform="translate(-9.599 -4.948)" fill="#e0e0e0"/>
            <g id="Grupo_1100067" data-name="Grupo 1100067" transform="translate(272.209 115.31)" opacity="0.3">
              <g id="Grupo_1100066" data-name="Grupo 1100066">
                <g id="Grupo_1100065" data-name="Grupo 1100065" clip-path="url(#clip-path-12)">
                  <path id="Trazado_874439" data-name="Trazado 874439" d="M281.69,183.5s6.152,4.627,19.9,2.127S337.211,180,342,175.836a24.908,24.908,0,0,0,8.192-17.083c.558-6.875-.962-39.427-.962-39.427L327,158.961,282.94,174.585Z" transform="translate(-281.69 -119.326)"/>
                </g>
              </g>
            </g>
            <path id="Trazado_874440" data-name="Trazado 874440" d="M336.178,78.454c6.663,0,13.77,10.77,14.5,17.093s-1.838,57.288-2.88,63.092c-2.1,11.671-11.7,13.735-11.7,13.735s-23.015,6.646-38.5,7.855a49.741,49.741,0,0,1-26.486-5.105l-3.763.24.941-19.388,3.907.654,42.492-10.408s-2.71-43.566-2.468-44.291c0,0,2.178-23.466,23.961-23.477" transform="translate(-8.998 -2.641)" fill="#455a64"/>
            <path id="Trazado_874441" data-name="Trazado 874441" d="M274.664,158.437a2.759,2.759,0,0,1,.581-.193l1.688-.459,6.231-1.6,20.6-5.08,11.109-2.76.124-.031.093.087c.989.932,1.954,1.82,2.9,2.637a30.569,30.569,0,0,0,2.833,2.139,24.52,24.52,0,0,1,4.464,3.848,17.234,17.234,0,0,1,2.191,3.156c.211.393.357.7.449.917a1.15,1.15,0,0,1,.119.332c-.027.013-.242-.416-.7-1.174a19.361,19.361,0,0,0-2.271-3.043A25.4,25.4,0,0,0,320.6,153.5a30.125,30.125,0,0,1-2.89-2.129c-.959-.816-1.933-1.7-2.933-2.627l.216.056-11.1,2.8-20.636,4.937-6.269,1.44-1.71.367a2.861,2.861,0,0,1-.6.095" transform="translate(-9.245 -4.992)" fill="#263238"/>
            <path id="Trazado_874442" data-name="Trazado 874442" d="M335.4,76.8c-1.59-.2-26.62,9.346-29.643,36.648-.938,8.479.023,27.2,10.6,30.2s31.856-6.208,31.856-6.208,9.9-35.858,7.665-42.313S344.568,77.978,335.4,76.8" transform="translate(-10.282 -2.585)" fill="#455a64"/>
            <path id="Trazado_874443" data-name="Trazado 874443" d="M317.284,101.159a1.666,1.666,0,0,1,.019.469c-.012.363-.026.8-.043,1.335-.056,1.239-.13,2.9-.221,4.908-.188,4.143-.414,9.867-.538,16.193s-.129,12.058-.123,16.207c0,2.014,0,3.673,0,4.913-.008.531-.014.972-.019,1.336a1.654,1.654,0,0,1-.041.467,1.661,1.661,0,0,1-.061-.465c-.02-.363-.045-.8-.075-1.335-.056-1.16-.112-2.838-.161-4.913-.1-4.149-.148-9.885-.025-16.22s.407-12.062.686-16.2c.14-2.071.271-3.745.381-4.9.055-.53.1-.968.137-1.331a1.635,1.635,0,0,1,.082-.461" transform="translate(-10.633 -3.405)" fill="#263238"/>
            <g id="Grupo_1100070" data-name="Grupo 1100070" transform="translate(300.062 100.622)" opacity="0.3">
              <g id="Grupo_1100069" data-name="Grupo 1100069">
                <g id="Grupo_1100068" data-name="Grupo 1100068" clip-path="url(#clip-path-13)">
                  <path id="Trazado_874444" data-name="Trazado 874444" d="M310.527,126.58c-.331,10.208,5.448,20.546,5.448,20.546l.933-43c-4.2,3.494-6.107,14-6.382,22.453" transform="translate(-310.513 -104.127)"/>
                </g>
              </g>
            </g>
            <path id="Trazado_874445" data-name="Trazado 874445" d="M334.639,74.5c-12.286,2.464-24.458,12.813-32.391,25.763S291.9,147.7,291.9,147.7l7.955.264s-3.367-19.482,5.166-43.534S334.7,76.138,334.7,76.138Z" transform="translate(-9.825 -2.508)" fill="#e0e0e0"/>
            <path id="Trazado_874446" data-name="Trazado 874446" d="M353.506,96.142a2.144,2.144,0,0,1,.047.531c.01.4.022.908.038,1.524.026,1.322.019,3.236-.019,5.6-.072,4.73-.363,11.259-.777,18.461s-.761,13.723-.924,18.446c-.073,2.308-.134,4.2-.179,5.593-.023.615-.042,1.117-.057,1.522a2.116,2.116,0,0,1-.054.531,2.141,2.141,0,0,1-.047-.531c-.01-.4-.022-.908-.037-1.523-.027-1.323-.02-3.237.018-5.6.072-4.73.363-11.261.777-18.465s.76-13.719.924-18.442c.073-2.309.134-4.2.179-5.594.023-.615.042-1.118.057-1.522a2.116,2.116,0,0,1,.054-.531" transform="translate(-11.83 -3.236)" fill="#263238"/>
            <path id="Trazado_874447" data-name="Trazado 874447" d="M341.793,82.681a34.811,34.811,0,0,0-3.749-1.2,16.507,16.507,0,0,0-16.811,6.061,34.689,34.689,0,0,0-2.124,3.313,3.75,3.75,0,0,1,.363-1.006,14.348,14.348,0,0,1,1.477-2.521,16.128,16.128,0,0,1,17.178-6.192,14.341,14.341,0,0,1,2.745,1,3.746,3.746,0,0,1,.922.543" transform="translate(-10.74 -2.714)" fill="#263238"/>
            <path id="Trazado_874448" data-name="Trazado 874448" d="M311.958,75.923l30.274-7.811.483,4.707-11.731,1.817L309.56,84.63Z" transform="translate(-10.419 -2.293)" fill="#455a64"/>
            <path id="Trazado_874449" data-name="Trazado 874449" d="M336.318,76.138s19.579,3.7,22.852,19.276c0,0-1.184-8.4-5.556-12.725-8.82-8.732-17.485-8.19-17.485-8.19Z" transform="translate(-11.314 -2.507)" fill="#e0e0e0"/>
            <path id="Trazado_874450" data-name="Trazado 874450" d="M336.059,74.066c.137-.024.305.548.376,1.277s.015,1.322-.125,1.325-.306-.568-.377-1.277-.013-1.3.126-1.325" transform="translate(-11.306 -2.493)" fill="#263238"/>
          </g>
        </g>
      </g>
    </g>
  </g>
</svg>
