<svg xmlns="http://www.w3.org/2000/svg" width="146.559" height="129.373" viewBox="0 0 146.559 129.373">
  <g id="Grupo_1100649" data-name="Grupo 1100649" transform="translate(-1040.811 -9324.054)">
    <g id="Grupo_1100253" data-name="Grupo 1100253" transform="translate(995.87 9309.075)">
      <rect id="Rect치ngulo_401023" data-name="Rect치ngulo 401023" width="126.094" height="129.373" rx="20" transform="translate(44.941 14.978)" fill="#53bced"/>
      <rect id="Rect치ngulo_401024" data-name="Rect치ngulo 401024" width="123.264" height="61.816" rx="20" transform="translate(66.736 70.047)" fill="none" stroke="#ff725d" stroke-miterlimit="10" stroke-width="3"/>
    </g>
    <g id="Grupo_1100377" data-name="Grupo 1100377" transform="translate(1030.493 9336.406)">
      <g id="Grupo_1100376" data-name="Grupo 1100376" transform="translate(27.657 11.962)">
        <path id="Trazado_874963" data-name="Trazado 874963" d="M71.577,59.6H131.51a8.84,8.84,0,0,1,8.815,8.815v79.592a2.392,2.392,0,0,1-2.392,2.392H89.207a8.84,8.84,0,0,1-8.815-8.815V73.6Z" transform="translate(-62.762 -59.6)" fill="#eaf6ff" fill-rule="evenodd"/>
        <path id="Trazado_874964" data-name="Trazado 874964" d="M27.657,103.745H45.288V68.415a8.815,8.815,0,0,0-17.631,0Z" transform="translate(-27.657 -59.6)" fill="#d3dde6" fill-rule="evenodd"/>
        <path id="Trazado_874965" data-name="Trazado 874965" d="M168.23,427.657h52.013v8.464a8.488,8.488,0,0,1-8.464,8.464H159.414a8.84,8.84,0,0,0,8.815-8.815Z" transform="translate(-132.97 -353.786)" fill="#d3dde6" fill-rule="evenodd"/>
        <path id="Trazado_874966" data-name="Trazado 874966" d="M192.954,92.924l8.511,14.74,8.5,14.735a1.31,1.31,0,0,1-1.135,1.965H174.8a1.31,1.31,0,0,1-1.135-1.965l8.511-14.735,8.5-14.74a1.31,1.31,0,0,1,2.269,0Z" transform="translate(-144.223 -85.712)" fill="#ff725d" fill-rule="evenodd"/>
        <path id="Trazado_874967" data-name="Trazado 874967" d="M253.446,139.716h3.141a.811.811,0,0,1,.883.754l-.655,10.143a.844.844,0,0,1-.883.749H254.1a.854.854,0,0,1-.889-.749l-.655-10.143A.816.816,0,0,1,253.446,139.716Z" transform="translate(-207.418 -123.636)" fill="#eaf6ff" fill-rule="evenodd"/>
        <path id="Trazado_874968" data-name="Trazado 874968" d="M256.88,218.506a1.989,1.989,0,1,0-1.989-1.989A1.989,1.989,0,0,0,256.88,218.506Z" transform="translate(-209.284 -183.433)" fill="#fff" fill-rule="evenodd"/>
      </g>
      <path id="Trazado_874969" data-name="Trazado 874969" d="M159.024,292.082a1.445,1.445,0,0,1,0-2.89h33.294a1.445,1.445,0,1,1,0,2.89Zm-11.453,18.139a1.442,1.442,0,1,1,0-2.884h6.089a1.442,1.442,0,1,1,0,2.884Zm0-9.066a1.445,1.445,0,1,1,0-2.89h6.089a1.445,1.445,0,1,1,0,2.89Zm0-9.072a1.445,1.445,0,1,1,0-2.89h6.089a1.445,1.445,0,1,1,0,2.89Zm11.453,18.139a1.442,1.442,0,0,1,0-2.884h33.294a1.442,1.442,0,1,1,0,2.884Zm0-9.066a1.445,1.445,0,0,1,0-2.89h33.294a1.445,1.445,0,1,1,0,2.89Z" transform="translate(-94.692 -231.15)" fill="#d3dde6"/>
      <path id="Trazado_874970" data-name="Trazado 874970" d="M341.681,31.826a15.913,15.913,0,1,0-15.91-15.911,15.914,15.914,0,0,0,15.91,15.911Z" transform="translate(-238.281 0)" fill="#0d66bf" fill-rule="evenodd"/>
      <path id="Trazado_874971" data-name="Trazado 874971" d="M356.7,51.888a1.443,1.443,0,0,1,2.041-2.041l3.486,3.492,11.161-11.161a1.443,1.443,0,1,1,2.041,2.042L363.251,56.4a1.437,1.437,0,0,1-2.041,0Z" transform="translate(-262.664 -33.375)" fill="#eaf6ff"/>
      <path id="Trazado_874972" data-name="Trazado 874972" d="M395.978.105a15.916,15.916,0,0,1,3.638,30.762,15.625,15.625,0,0,1-3.638.854A15.913,15.913,0,1,0,397.8,0a15.571,15.571,0,0,0-1.819.105Z" transform="translate(-294.397 0)" fill="#0d66bf" fill-rule="evenodd"/>
      <path id="Trazado_874973" data-name="Trazado 874973" d="M395.6,158.018v54.118h3.714V158.024a15.756,15.756,0,0,1-3.638,0A.364.364,0,0,1,395.6,158.018Z" transform="translate(-294.095 -126.303)" fill="#d3dde6" fill-rule="evenodd"/>
      <path id="Trazado_874974" data-name="Trazado 874974" d="M257.108,93.644l8.1,14.021,8.5,14.735a1.31,1.31,0,0,1-1.135,1.965h3.094A1.31,1.31,0,0,0,276.8,122.4l-8.5-14.735-8.511-14.74a1.31,1.31,0,0,0-2.269,0Z" transform="translate(-183.399 -73.75)" fill="#ff725d" fill-rule="evenodd"/>
    </g>
  </g>
</svg>
