<svg xmlns="http://www.w3.org/2000/svg" width="146.559" height="129.373" viewBox="0 0 146.559 129.373">
  <g id="Grupo_1100649" data-name="Grupo 1100649" transform="translate(-455.751 -9509.33)">
    <path id="Trazado_875544" data-name="Trazado 875544" d="M20,0h86.094a20,20,0,0,1,20,20v89.373a20,20,0,0,1-20,20H20a20,20,0,0,1-20-20V20A20,20,0,0,1,20,0Z" transform="translate(455.751 9509.33)" fill="#53bced"/>
    <path id="Trazado_875545" data-name="Trazado 875545" d="M20,0h83.264a20,20,0,0,1,20,20V41.816a20,20,0,0,1-20,20H20a20,20,0,0,1-20-20V20A20,20,0,0,1,20,0Z" transform="translate(477.547 9564.399)" fill="none" stroke="#ff725d" stroke-width="3"/>
    <path id="Trazado_874975" data-name="Trazado 874975" d="M20.277,133.033H81.061a5.443,5.443,0,0,0,5.427-5.427V45.113a5.443,5.443,0,0,0-5.427-5.427H52.931a2.262,2.262,0,0,1-4.523,0H20.277a5.443,5.443,0,0,0-5.427,5.427v82.492A5.443,5.443,0,0,0,20.277,133.033Z" transform="translate(461.075 9487.366)" fill="#5f7080" fill-rule="evenodd"/>
    <path id="Trazado_874976" data-name="Trazado 874976" d="M20.277,39.686a5.443,5.443,0,0,0-5.427,5.427v82.492a5.443,5.443,0,0,0,5.427,5.427Z" transform="translate(461.075 9487.366)" fill="#566573" fill-rule="evenodd"/>
    <path id="Trazado_874977" data-name="Trazado 874977" d="M48.179,73.015h57.166v78.874H48.179Z" transform="translate(434.982 9461.273)" fill="#f3f5fb"/>
    <path id="Trazado_874978" data-name="Trazado 874978" d="M48.179,73.015h5.427v78.874H48.179Z" transform="translate(434.982 9461.273)" fill="#dbe2ec"/>
    <path id="Trazado_874979" data-name="Trazado 874979" d="M90.677,27.56H129.39V16.445H116.478a6.445,6.445,0,0,0-12.89,0H90.677Zm19.356-13.377a2.262,2.262,0,1,1-2.262,2.262A2.262,2.262,0,0,1,110.033,14.183Z" transform="translate(401.71 9510.607)" fill="#ff725d" fill-rule="evenodd"/>
    <path id="Trazado_874980" data-name="Trazado 874980" d="M90.677,39.686H96.1V50.8H90.677Z" transform="translate(401.71 9487.366)" fill="#ff725d"/>
    <path id="Trazado_874981" data-name="Trazado 874981" d="M98.149,142.681a1.3,1.3,0,1,1,0-2.605h25.869a1.3,1.3,0,0,1,0,2.605Zm-13.36-30.113a1.3,1.3,0,1,1,0-2.605h39.23a1.3,1.3,0,1,1,0,2.605Zm13.36,10.038a1.3,1.3,0,1,1,0-2.605h25.869a1.3,1.3,0,1,1,0,2.605Zm0,10.037a1.3,1.3,0,1,1,0-2.605h25.869a1.3,1.3,0,0,1,0,2.605Zm0,20.075a1.3,1.3,0,1,1,0-2.605h14.609a1.3,1.3,0,1,1,0,2.605Zm0,10.037a1.3,1.3,0,1,1,0-2.605h14.609a1.3,1.3,0,1,1,0,2.605Zm0,10.038a1.3,1.3,0,1,1,0-2.605h14.609a1.3,1.3,0,1,1,0,2.605Z" transform="translate(407.34 9432.348)" fill="#77899b" fill-rule="evenodd"/>
    <path id="Trazado_874982" data-name="Trazado 874982" d="M83.777,198.938a1.3,1.3,0,0,1,2.066-1.567l.762,1,3.166-4.162a1.3,1.3,0,0,1,2.066,1.567l-4.185,5.5a1.3,1.3,0,0,1-2.08.019l-1.8-2.361Zm0-50.188a1.3,1.3,0,0,1,2.066-1.567l.762,1,3.166-4.162a1.3,1.3,0,0,1,2.066,1.567l-4.185,5.5a1.3,1.3,0,0,1-2.08.019l-1.8-2.361Zm0,10.037a1.3,1.3,0,0,1,2.066-1.567l.762,1,3.166-4.162a1.3,1.3,0,1,1,2.066,1.567l-4.185,5.5a1.3,1.3,0,0,1-2.08.019l-1.8-2.361Zm0,10.038a1.3,1.3,0,0,1,2.066-1.567l.762,1,3.166-4.162a1.3,1.3,0,0,1,2.066,1.567l-4.185,5.5a1.3,1.3,0,0,1-2.08.019l-1.8-2.361Zm0,10.037a1.3,1.3,0,0,1,2.066-1.567l.762,1,3.166-4.162a1.3,1.3,0,0,1,2.066,1.567l-4.185,5.5a1.3,1.3,0,0,1-2.08.019l-1.8-2.361Zm0,10.038a1.3,1.3,0,0,1,2.066-1.567l.762,1,3.166-4.162a1.3,1.3,0,0,1,2.066,1.567l-4.185,5.5a1.3,1.3,0,0,1-2.08.019l-1.8-2.361Z" transform="translate(407.318 9406.084)" fill="#0d66bf" fill-rule="evenodd"/>
    <path id="Trazado_875546" data-name="Trazado 875546" d="M13.694,0H30.421A13.694,13.694,0,0,1,44.115,13.694V30.421A13.694,13.694,0,0,1,30.421,44.115H13.694A13.694,13.694,0,0,1,0,30.421V13.694A13.694,13.694,0,0,1,13.694,0Z" transform="translate(536.522 9583.311)" fill="#afafaf"/>
    <path id="Trazado_875547" data-name="Trazado 875547" d="M13.694,0h6.74A13.694,13.694,0,0,1,34.128,13.694V30.421A13.694,13.694,0,0,1,20.434,44.115h-6.74A13.694,13.694,0,0,1,0,30.421V13.694A13.694,13.694,0,0,1,13.694,0Z" transform="translate(546.509 9583.311)" fill="#e8e8e8"/>
    <path id="Trazado_874983" data-name="Trazado 874983" d="M372.17,321.039V298.807H354.224v22.232l8.973-5.181Z" transform="translate(195.382 9284.504)" fill="#fb695b" fill-rule="evenodd"/>
  </g>
</svg>
