<svg xmlns="http://www.w3.org/2000/svg" xmlns:xlink="http://www.w3.org/1999/xlink" width="295.043" height="273.926" viewBox="0 0 295.043 273.926">
  <defs>
    <clipPath id="clip-path">
      <rect id="Rectángulo_401743" data-name="Rectángulo 401743" width="251.116" height="273.926" fill="none"/>
    </clipPath>
    <clipPath id="clip-path-3">
      <rect id="Rectángulo_401691" data-name="Rectángulo 401691" width="68.903" height="75.408" fill="none"/>
    </clipPath>
    <clipPath id="clip-path-4">
      <rect id="Rectángulo_401722" data-name="Rectángulo 401722" width="54.561" height="45.046" fill="none"/>
    </clipPath>
    <clipPath id="clip-path-5">
      <rect id="Rectángulo_401725" data-name="Rectángulo 401725" width="98.13" height="60.879" fill="none"/>
    </clipPath>
    <clipPath id="clip-path-6">
      <rect id="Rectángulo_401727" data-name="Rectángulo 401727" width="37.162" height="60.881" fill="none"/>
    </clipPath>
    <clipPath id="clip-path-7">
      <rect id="Rectángulo_401738" data-name="Rectángulo 401738" width="60.962" height="15.222" fill="none"/>
    </clipPath>
  </defs>
  <g id="Grupo_1100649" data-name="Grupo 1100649" transform="translate(-391.457 -9787.79)">
    <g id="Grupo_1100266" data-name="Grupo 1100266" transform="translate(-523.543 7784.147)">
      <g id="Grupo_1099891" data-name="Grupo 1099891" transform="translate(915 2050.066)">
        <rect id="Rectángulo_5157" data-name="Rectángulo 5157" width="273.596" height="227.502" rx="40" transform="translate(0 0)" fill="#53bced"/>
        <rect id="Rectángulo_400986" data-name="Rectángulo 400986" width="189.474" height="197.405" rx="40" transform="translate(104.069 12.302)" fill="none" stroke="#ff725d" stroke-miterlimit="10" stroke-width="3"/>
      </g>
      <g id="Grupo_1100399" data-name="Grupo 1100399" transform="translate(935.17 2003.643)">
        <g id="Grupo_1100398" data-name="Grupo 1100398" clip-path="url(#clip-path)">
          <g id="Grupo_1100395" data-name="Grupo 1100395">
            <g id="Grupo_1100394" data-name="Grupo 1100394" clip-path="url(#clip-path)">
              <path id="Trazado_874984" data-name="Trazado 874984" d="M91.863,276.072S108.9,338.648,113,347.888h66.051c-11.4-29.853-23.467-68.91-23.813-71.623-.02-.125-.029-.193-.029-.193Z" transform="translate(-24.611 -73.962)" fill="#37474f"/>
              <path id="Trazado_874985" data-name="Trazado 874985" d="M104.51,287.4c.414,5.081,18.893,59.12,20.445,63.491h.953S105.839,291.108,104.76,287.4c-.029-.154-.269-.154-.25,0" transform="translate(-27.999 -76.967)" fill="#263238"/>
              <path id="Trazado_874986" data-name="Trazado 874986" d="M146.066,276.069l-8.529,56.181-.3,1.9v.007l-.754,5.081-.059.359-.2,1.354v.015l-1.047,6.918H113c-4.1-9.239-21.135-71.818-21.135-71.818Z" transform="translate(-24.611 -73.961)" fill="#263238"/>
              <path id="Trazado_874987" data-name="Trazado 874987" d="M45.414,347.867h62.5c.02-.269.039-.481.048-.655.019-.279.039-.423.039-.423.346-.193.693-.385,1.048-.568,3.677-2,6.9-3.561,9.557-4.745.452-.2.885-.395,1.309-.587,1.2-.52,2.28-.963,3.176-1.309,2.3-.914,3.58-1.318,3.58-1.318.077-.193.144-.376.212-.568,9.057-23.05,14.514-58.178,15.024-61.45.019-.174.029-.25.029-.25H52.661c-5.313,16.621-15.971,47.174-7.247,71.874" transform="translate(-11.279 -73.941)" fill="#37474f"/>
              <path id="Trazado_874988" data-name="Trazado 874988" d="M153.926,358.783a138.774,138.774,0,0,0-21.862,10.182.247.247,0,0,0,.2.45c7.365-3.163,14.875-6.19,22.056-9.754a.482.482,0,0,0-.4-.878" transform="translate(-35.345 -96.113)" fill="#263238"/>
              <path id="Trazado_874989" data-name="Trazado 874989" d="M159.677,289.686c-.02-.255-.467-.311-.465-.037a245.807,245.807,0,0,1-1.235,24.607c-.343,3.794-3.394,24.758-9.972,23.23-1.1-.255-1.664-1.34-1.837-3-.208-2,.543-4.445.873-6.429.73-4.389,1.316-8.792,1.693-13.225a120.318,120.318,0,0,0-.268-24.8.212.212,0,0,0-.424.024c.01,11.456-.29,22.89-2,34.237-.823,5.453-3.57,13.662,2.133,14.5,5.81.855,9.567-12.9,10.276-16.658,1.979-10.5,2.057-21.829,1.228-32.449" transform="translate(-38.754 -77.551)" fill="#263238"/>
              <path id="Trazado_874990" data-name="Trazado 874990" d="M148.694,355.662a35.444,35.444,0,0,0-1.48,4.346,9.863,9.863,0,0,0-.615,3.572c.026.231.332.254.455.1a12.562,12.562,0,0,0,1.529-3.475c.5-1.344,1.03-2.679,1.492-4.036a.736.736,0,0,0-1.381-.5" transform="translate(-39.269 -95.162)" fill="#263238"/>
              <path id="Trazado_874991" data-name="Trazado 874991" d="M99.062,298.1a11.7,11.7,0,0,0-.28-2.722.139.139,0,0,0-.266.007,10.826,10.826,0,0,0-.307,2.351c-.092.9-.211,1.8-.308,2.705a39.884,39.884,0,0,1-.964,5.477,19.478,19.478,0,0,1-5.021,9.025,26.149,26.149,0,0,1-8.5,5.594c-3.532,1.5-7.251,2.055-10.9,3.127a.139.139,0,0,0,.043.27,31.413,31.413,0,0,0,11.8-2.324,25.233,25.233,0,0,0,8.86-5.652,19.74,19.74,0,0,0,5.166-9.285,27.683,27.683,0,0,0,.707-5.493,25.117,25.117,0,0,0-.037-3.079" transform="translate(-19.403 -79.11)" fill="#263238"/>
              <path id="Trazado_874992" data-name="Trazado 874992" d="M57.2,349.563a66.955,66.955,0,0,1-3.446-16.746,108.685,108.685,0,0,1-.087-17.149c.3-2.846.514-5.7,1-8.521.236-1.409.4-2.831.7-4.23l.876-4.2c.154-.7.285-1.4.459-2.092l.551-2.07,1.124-4.13c.391-1.371.892-2.711,1.332-4.066s.914-2.7,1.391-4.04c-.63,2.783-1.41,5.516-2.029,8.288l-.884,4.165-.453,2.078c-.145.694-.246,1.4-.371,2.094l-.733,4.186c-.256,1.393-.387,2.805-.587,4.206-.439,2.8-.641,5.622-.911,8.438a138.969,138.969,0,0,0-.237,16.957c.081,1.413.15,2.827.3,4.234l.191,2.116.269,2.107a65.842,65.842,0,0,0,1.551,8.369" transform="translate(-14.298 -75.637)" fill="#263238"/>
              <path id="Trazado_874993" data-name="Trazado 874993" d="M133.568,154.049c11.98,19.671,35.7,50.663,47.136,57.558,12.718,7.666,49.085-18.357,72.58-33.932,4.671-3.1-17.115-40.865-21.933-37.3-12.587,9.306-38.613,30.915-42.065,30.182-2.824-.6-26.857-17.329-40.316-26.926-21.423-15.275-23.831-3.423-15.4,10.42" transform="translate(-34.573 -36.56)" fill="#d3766a"/>
              <path id="Trazado_874994" data-name="Trazado 874994" d="M222.117,145.79l20.207,43.4s-43.991,28.767-57.673,25.27-42.767-43.77-51.295-59.576-4.555-24.7,11.972-14.088,41.982,27.569,44.651,27.655,32.138-22.659,32.138-22.659" transform="translate(-34.559 -36.482)" fill="#0d66bf"/>
              <path id="Trazado_874995" data-name="Trazado 874995" d="M260.836,200.842c-5.782-18.545-14.673-37.158-15.991-40.512-.062-.159-.311-.04-.239.117,1.465,3.223,9.317,25.6,15.967,40.524.077.173.319.05.264-.129" transform="translate(-65.528 -42.934)" fill="#263238"/>
              <g id="Grupo_1100381" data-name="Grupo 1100381" transform="translate(94.436 102.892)" opacity="0.1">
                <g id="Grupo_1100380" data-name="Grupo 1100380">
                  <g id="Grupo_1100379" data-name="Grupo 1100379" clip-path="url(#clip-path-3)">
                    <path id="Trazado_874996" data-name="Trazado 874996" d="M197.9,213.835c-5.281,1.785-9.994,2.63-13.248,1.8-13.682-3.5-42.769-43.77-51.3-59.572-3.645-6.768-5.01-12.258-4.073-15.513,16.389,17.616,54.746,58.517,68.617,73.289" transform="translate(-128.995 -140.546)"/>
                  </g>
                </g>
              </g>
              <path id="Trazado_874997" data-name="Trazado 874997" d="M274.325,173.594l-17.928-39.1c.63-.814,3.322-2.426,5.98-4.93,0-.017,6.968-9.584,9.779-19.992,2.376-8.738,4.9-21.985,9.65-20.883,6.926,1.587,5.743,18.721,4.465,28.516,4.98-2.007,9.456-3.268,12.333-3.047,9.553.736,11.691,43.8,3.641,49.287-7.762,5.293-22.639,10.91-27.921,10.153" transform="translate(-68.691 -23.742)" fill="#d3766a"/>
              <rect id="Rectángulo_401692" data-name="Rectángulo 401692" width="83.581" height="63.437" transform="matrix(0.074, -0.997, 0.997, 0.074, 168.229, 149.164)" fill="#455a64"/>
              <rect id="Rectángulo_401693" data-name="Rectángulo 401693" width="72.857" height="51.41" transform="translate(174.625 144.265) rotate(-85.729)" fill="#fff"/>
              <rect id="Rectángulo_401694" data-name="Rectángulo 401694" width="72.857" height="19.263" transform="matrix(0.074, -0.997, 0.997, 0.074, 174.625, 144.264)" fill="#ebebeb"/>
              <rect id="Rectángulo_401695" data-name="Rectángulo 401695" width="0.958" height="13.873" transform="translate(202.12 80.393) rotate(-85.73)" fill="#ebebeb"/>
              <rect id="Rectángulo_401696" data-name="Rectángulo 401696" width="0.958" height="23.979" transform="matrix(0.074, -0.997, 0.997, 0.074, 201.923, 83.037)" fill="#ebebeb"/>
              <rect id="Rectángulo_401697" data-name="Rectángulo 401697" width="0.958" height="18.631" transform="matrix(0.074, -0.997, 0.997, 0.074, 201.726, 85.682)" fill="#ebebeb"/>
              <rect id="Rectángulo_401698" data-name="Rectángulo 401698" width="0.958" height="10.752" transform="translate(201.33 90.97) rotate(-85.728)" fill="#ebebeb"/>
              <rect id="Rectángulo_401699" data-name="Rectángulo 401699" width="0.958" height="18.631" transform="translate(201.133 93.615) rotate(-85.73)" fill="#ebebeb"/>
              <rect id="Rectángulo_401700" data-name="Rectángulo 401700" width="0.958" height="23.979" transform="translate(200.935 96.259) rotate(-85.728)" fill="#ebebeb"/>
              <rect id="Rectángulo_401701" data-name="Rectángulo 401701" width="0.958" height="13.873" transform="translate(200.738 98.904) rotate(-85.73)" fill="#ebebeb"/>
              <rect id="Rectángulo_401702" data-name="Rectángulo 401702" width="0.958" height="23.979" transform="translate(200.343 104.192) rotate(-85.728)" fill="#ebebeb"/>
              <rect id="Rectángulo_401703" data-name="Rectángulo 401703" width="0.958" height="17.395" transform="translate(200.145 106.836) rotate(-85.728)" fill="#ebebeb"/>
              <rect id="Rectángulo_401704" data-name="Rectángulo 401704" width="0.958" height="12.915" transform="matrix(0.074, -0.997, 0.997, 0.074, 199.948, 109.48)" fill="#ebebeb"/>
              <rect id="Rectángulo_401705" data-name="Rectángulo 401705" width="0.958" height="21.597" transform="translate(199.75 112.125) rotate(-85.729)" fill="#ebebeb"/>
              <rect id="Rectángulo_401706" data-name="Rectángulo 401706" width="0.958" height="17.396" transform="translate(199.355 117.413) rotate(-85.728)" fill="#ebebeb"/>
              <rect id="Rectángulo_401707" data-name="Rectángulo 401707" width="0.958" height="23.979" transform="translate(199.158 120.057) rotate(-85.728)" fill="#ebebeb"/>
              <rect id="Rectángulo_401708" data-name="Rectángulo 401708" width="0.958" height="21.597" transform="translate(198.763 125.346) rotate(-85.729)" fill="#ebebeb"/>
              <rect id="Rectángulo_401709" data-name="Rectángulo 401709" width="0.958" height="12.791" transform="translate(198.565 127.991) rotate(-85.73)" fill="#ebebeb"/>
              <rect id="Rectángulo_401710" data-name="Rectángulo 401710" width="0.958" height="23.979" transform="translate(198.368 130.634) rotate(-85.728)" fill="#ebebeb"/>
              <rect id="Rectángulo_401711" data-name="Rectángulo 401711" width="0.958" height="17.395" transform="translate(197.973 135.923) rotate(-85.728)" fill="#ebebeb"/>
              <rect id="Rectángulo_401712" data-name="Rectángulo 401712" width="0.958" height="23.979" transform="translate(197.775 138.567) rotate(-85.728)" fill="#ebebeb"/>
              <rect id="Rectángulo_401713" data-name="Rectángulo 401713" width="0.958" height="21.597" transform="translate(197.578 141.212) rotate(-85.729)" fill="#ebebeb"/>
              <rect id="Rectángulo_401714" data-name="Rectángulo 401714" width="0.958" height="6.366" transform="translate(183.29 92.282) rotate(-85.727)" fill="#a6a6a6"/>
              <rect id="Rectángulo_401715" data-name="Rectángulo 401715" width="0.958" height="10.599" transform="translate(183.093 94.927) rotate(-85.73)" fill="#a6a6a6"/>
              <rect id="Rectángulo_401716" data-name="Rectángulo 401716" width="0.958" height="8.856" transform="translate(182.895 97.57) rotate(-85.729)" fill="#a6a6a6"/>
              <rect id="Rectángulo_401717" data-name="Rectángulo 401717" width="0.958" height="10.6" transform="translate(182.5 102.859) rotate(-85.73)" fill="#a6a6a6"/>
              <rect id="Rectángulo_401718" data-name="Rectángulo 401718" width="0.958" height="11.263" transform="translate(182.303 105.503) rotate(-85.728)" fill="#a6a6a6"/>
              <rect id="Rectángulo_401719" data-name="Rectángulo 401719" width="0.958" height="7.898" transform="translate(182.105 108.148) rotate(-85.731)" fill="#a6a6a6"/>
              <rect id="Rectángulo_401720" data-name="Rectángulo 401720" width="0.958" height="9.333" transform="translate(181.908 110.792) rotate(-85.726)" fill="#a6a6a6"/>
              <rect id="Rectángulo_401721" data-name="Rectángulo 401721" width="11.393" height="32.153" transform="translate(189.565 73.503) rotate(-85.729)" fill="#a6a6a6"/>
              <path id="Trazado_874998" data-name="Trazado 874998" d="M288.777,89.853l-22.813-1.7h0l.659-8.817,22.813,1.7Z" transform="translate(-71.254 -21.254)" fill="#a6a6a6"/>
              <path id="Trazado_874999" data-name="Trazado 874999" d="M291.5,123.307c-2.072,4.527,4.45,4.377,4.45,4.377s-9.335,2.478-9.666,7.972c-.3,5.3,7.567,4.836,8.131,4.811-.493.135-9.011,2.637-8.775,8.192.25,5.773,8.073,3.955,8.579,3.835-.425.274-5.985,3.991-4.846,8.17,1.961,7.18,16.438-1.932,22.253-.35,0,0-1.556,10.161-1.54,10.466,0,0,13.951-8.388,15.646-16.351a5.2,5.2,0,0,0-2.842-5.859s4.8-2.208,4.749-6.587c-.031-2.248-3.654-4.2-3.654-4.2s3.767-1.928,3.481-5.82c-.217-3.107-3.818-4.581-3.818-4.581s2.758-3.529,1.5-6.631c-2.515-6.262-29.209-7.137-33.654,2.554" transform="translate(-76.524 -31.086)" fill="#d3766a"/>
              <path id="Trazado_875000" data-name="Trazado 875000" d="M326.693,130.415a.07.07,0,0,0,.031-.137c-8.709-2.43-19.021-2.431-27.551.728-.28.1-.233.6.1.548,9.414-1.575,17.894-2.222,27.423-1.138" transform="translate(-80.102 -34.436)" fill="#263238"/>
              <path id="Trazado_875001" data-name="Trazado 875001" d="M327.12,145.06c.1.012.124-.16.017-.188-8.986-2.456-20.6-2.138-30,2.661-.323.165-.447.635-.061.474,6.494-2.717,21.477-3.966,30.049-2.947" transform="translate(-79.524 -38.409)" fill="#263238"/>
              <path id="Trazado_875002" data-name="Trazado 875002" d="M296.539,164.422c9.194-4.253,18.826-5.131,28.848-4.61.13.007.127-.179.019-.214-4.833-1.59-11.257-1.256-16.233-.573a26.71,26.71,0,0,0-12.783,5.076c-.149.111-.048.412.149.321" transform="translate(-79.387 -42.452)" fill="#263238"/>
              <path id="Trazado_875003" data-name="Trazado 875003" d="M145.742,238.036l-2.583-28.259s7.547-11.533,6.448-25.168c-.8-9.923-29.145-44.626-30.967-46.328-7.325-6.826-19.684-4.1-24.756-.269-28.1,21.234-27.855,55.177-37.359,99.967Z" transform="translate(-15.144 -35.926)" fill="#0d66bf"/>
              <path id="Trazado_875004" data-name="Trazado 875004" d="M145.742,247.974l-2.583-28.259s9.72-12.953,6.448-25.168-12.95-23.353-12.95-23.353H94.869s-3.782,36.562-13.353,42.788a26.893,26.893,0,0,1-19.781,4.07l-5.21,29.865Z" transform="translate(-15.144 -45.864)" fill="#37474f"/>
              <path id="Trazado_875005" data-name="Trazado 875005" d="M138.4,232.38a82.1,82.1,0,0,1,12.143.185c2,.207,3.985.506,5.97.848.989.171,1.978.307,2.973.439a12.958,12.958,0,0,0,3.139.122.072.072,0,0,1,.019.143,22.074,22.074,0,0,1-2.949.383,21.421,21.421,0,0,1-2.882-.111c-2.035-.191-4.059-.477-6.092-.688-4.1-.428-8.2-.854-12.322-.985-.19-.006-.19-.328,0-.336" transform="translate(-37.039 -62.22)" fill="#263238"/>
              <path id="Trazado_875006" data-name="Trazado 875006" d="M125.648,238.359a88.694,88.694,0,0,1,9.831-1.95c1.658-.226,3.316-.355,4.988-.441.8-.041,1.6-.067,2.395-.084.879-.019,1.761.081,2.639.05.091,0,.112.137.018.143-.827.055-1.649.247-2.471.349s-1.654.2-2.481.3c-1.655.2-3.307.429-4.964.619-3.318.379-6.617.791-9.919,1.285-.179.026-.2-.23-.036-.272" transform="translate(-33.632 -63.195)" fill="#263238"/>
              <path id="Trazado_875007" data-name="Trazado 875007" d="M84.716,150.051c-5.174,7.355-44.3,53.849-55.34,60.88-8.4,5.345-30.448,8.616-29.336-12.249.74-13.9,56.37-53.148,78.821-62.662,10.31-4.369,16.711-1.4,5.855,14.031" transform="translate(0 -35.95)" fill="#0d66bf"/>
              <path id="Trazado_875008" data-name="Trazado 875008" d="M12.152,226.183a23.144,23.144,0,0,0,10.11.444,26.834,26.834,0,0,0,9.451-3.486,34.412,34.412,0,0,0,4.131-2.909c1.305-1.074,2.549-2.238,3.782-3.411,2.452-2.364,4.822-4.822,7.156-7.314,4.716-4.941,9.265-10.046,13.829-15.137l13.634-15.339c-2.092,2.71-4.259,5.358-6.409,8.022q-3.267,3.959-6.588,7.874-6.657,7.818-13.669,15.334c-2.368,2.478-4.77,4.924-7.267,7.284-1.257,1.172-2.524,2.335-3.871,3.423a29.562,29.562,0,0,1-4.311,2.9,27.365,27.365,0,0,1-9.792,3.286,24.915,24.915,0,0,1-5.164.1,18.9,18.9,0,0,1-5.023-1.068" transform="translate(-3.256 -47.964)" fill="#263238"/>
              <path id="Trazado_875009" data-name="Trazado 875009" d="M89.811,186.082a34.451,34.451,0,0,1,2.805-2.052c.958-.642,1.907-1.263,2.879-1.922a9.663,9.663,0,0,1-2.572,2.378,13.829,13.829,0,0,1-3.112,1.6" transform="translate(-24.061 -48.788)" fill="#263238"/>
              <path id="Trazado_875010" data-name="Trazado 875010" d="M108.313,161.28H114.7a81.14,81.14,0,0,0-3.868-27.093l-4.128,1.048s4.066,16.934,1.607,26.044" transform="translate(-28.587 -35.95)" fill="#37474f"/>
              <path id="Trazado_875011" data-name="Trazado 875011" d="M142.7,137.037s8.614,12.4,15.856,24.551H154.5l-16.247-26.249Z" transform="translate(-37.039 -36.259)" fill="#37474f"/>
              <path id="Trazado_875012" data-name="Trazado 875012" d="M115.434,129.383c.507,1.778,8.581,12.193,16.78,11.411,2.67-.259,2.976-14.055,2.976-14.055l.191-1.093,2.655-15.307L119.7,99.784,117.055,98.4s-.451,4.236-.958,9.516c-.025.245-.05.49-.073.752-.037.3-.075.579-.1.858-.086.788-.171,1.593-.238,2.4-.054.611-.109,1.206-.143,1.849-.05.646-.084,1.272-.134,1.917a100.084,100.084,0,0,0,.021,13.7" transform="translate(-30.865 -26.361)" fill="#d3766a"/>
              <path id="Trazado_875013" data-name="Trazado 875013" d="M116.42,107.913a31.164,31.164,0,0,0,19.286,17.733l2.655-15.307-18.34-10.555L117.378,98.4s-.45,4.236-.958,9.516" transform="translate(-31.19 -26.361)" fill="#263238"/>
              <path id="Trazado_875014" data-name="Trazado 875014" d="M113.521,94.95c-4.887-3.269-18.6-8.084-25.855,2.57-10.35,15.206,12.068,41.881,13.219,55.9,2.085,25.395,15.279,39.657,26.98,32.562,13.112-7.95,12.306-29.568-12.322-53.986-15.4-15.268-17.744-26.417-14.2-28.978s9.055-.3,9.055-.3Z" transform="translate(-22.758 -24.374)" fill="#263238"/>
              <path id="Trazado_875015" data-name="Trazado 875015" d="M110.653,93.564a34.884,34.884,0,0,0-7.919-2.936,20.653,20.653,0,0,0-8.549-.308,14.084,14.084,0,0,0-7.647,4.1,18.227,18.227,0,0,0-4.368,7.514,20.477,20.477,0,0,0-.4,8.653,37.667,37.667,0,0,0,2.374,8.214,75.691,75.691,0,0,0,8.445,14.611,111.483,111.483,0,0,1-7.291-15.06,40.143,40.143,0,0,1-2.04-7.974,19.278,19.278,0,0,1,.441-8.013,16.965,16.965,0,0,1,3.932-6.918,13.16,13.16,0,0,1,6.814-3.919,21.092,21.092,0,0,1,8.148-.138,34,34,0,0,1,4.076.868q2.008.583,3.988,1.308" transform="translate(-21.832 -24.113)" fill="#263238"/>
              <path id="Trazado_875016" data-name="Trazado 875016" d="M115.435,135.224c2.272,2.592,4.821,4.918,7.27,7.328,2.484,2.375,4.953,4.759,7.347,7.2s4.708,4.961,6.827,7.623a51.781,51.781,0,0,1,5.652,8.418,26.515,26.515,0,0,1,3.109,9.459,28.883,28.883,0,0,1-.829,9.958,21.513,21.513,0,0,1-4.669,8.82,19.455,19.455,0,0,1-3.808,3.341,17.515,17.515,0,0,1-2.217,1.265,9.014,9.014,0,0,1-2.413.848,12.691,12.691,0,0,0,4.851-1.756,20.04,20.04,0,0,0,4.152-3.166,21.353,21.353,0,0,0,3.2-4.17,23.145,23.145,0,0,0,2.09-4.84,27.183,27.183,0,0,0,1.043-5.166l.113-1.313.056-1.314a19.777,19.777,0,0,0-.078-2.664,27.633,27.633,0,0,0-3.2-10.042c-3.327-6.2-8.049-11.407-13.014-16.18-2.491-2.392-5.084-4.662-7.7-6.9-2.629-2.22-5.264-4.418-7.789-6.755" transform="translate(-30.926 -36.228)" fill="#263238"/>
              <path id="Trazado_875017" data-name="Trazado 875017" d="M121.981,94.835c-.978-1.284-3.189-2.168-4.183-1.737s-4.928,7.888-4.2,9.85,4.513,1.163,4.513,1.163Z" transform="translate(-30.411 -24.912)" fill="#ffc727"/>
              <path id="Trazado_875018" data-name="Trazado 875018" d="M155.477,67.4c5.749,26.653-9.565,33.106-15.313,34.339-5.218,1.119-23.13,4.269-31.6-21.646s2.1-37.014,13.9-40.206,27.265.861,33.014,27.514" transform="translate(-28.264 -10.436)" fill="#d3766a"/>
              <path id="Trazado_875019" data-name="Trazado 875019" d="M160.362,71.454a17.9,17.9,0,0,1-1.879-.123,3.042,3.042,0,0,1-1.892-.491.969.969,0,0,1-.166-1.172,2.4,2.4,0,0,1,2.267-.893,3.537,3.537,0,0,1,2.373.922,1.035,1.035,0,0,1-.7,1.758" transform="translate(-41.874 -18.424)" fill="#263238"/>
              <path id="Trazado_875020" data-name="Trazado 875020" d="M135.849,80.7a17.916,17.916,0,0,0,1.769-.646,3.044,3.044,0,0,0,1.678-1,.969.969,0,0,0-.17-1.171,2.4,2.4,0,0,0-2.427-.22,3.535,3.535,0,0,0-2.018,1.553,1.035,1.035,0,0,0,1.168,1.489" transform="translate(-36.043 -20.748)" fill="#263238"/>
              <path id="Trazado_875021" data-name="Trazado 875021" d="M142.129,86.432c-.026-.067-.129.111-.114.185.365,1.821.476,3.969-1.078,4.854-.048.028-.028.119.032.1,1.974-.623,1.8-3.472,1.16-5.139" transform="translate(-37.751 -23.152)" fill="#263238"/>
              <path id="Trazado_875022" data-name="Trazado 875022" d="M139.205,84.2c-2.983.269-2.224,6.215.539,5.964,2.719-.245,1.961-6.191-.539-5.964" transform="translate(-36.782 -22.555)" fill="#263238"/>
              <path id="Trazado_875023" data-name="Trazado 875023" d="M137.079,84.815c-.477.4-.909,1.061-1.527,1.2-.715.164-1.342-.389-1.892-.927-.057-.056-.1,0-.093.081.129,1.141.716,2.254,1.958,2.268,1.134.013,1.805-1.1,1.944-2.279.026-.219-.2-.509-.39-.346" transform="translate(-35.784 -22.71)" fill="#263238"/>
              <path id="Trazado_875024" data-name="Trazado 875024" d="M157.627,83.184c.01-.072.151.078.154.154.069,1.856.461,3.97,2.179,4.469.053.015.054.109-.008.1-2.064-.147-2.556-2.958-2.324-4.728" transform="translate(-42.215 -22.281)" fill="#263238"/>
              <path id="Trazado_875025" data-name="Trazado 875025" d="M159.155,80.385c2.963-.432,3.609,5.527.864,5.926-2.7.394-3.347-5.565-.864-5.926" transform="translate(-42.223 -21.53)" fill="#263238"/>
              <path id="Trazado_875026" data-name="Trazado 875026" d="M161.251,80.445c.556.28,1.131.821,1.765.814.734-.007,1.215-.69,1.624-1.341.042-.067.1-.021.109.058.141,1.14-.171,2.358-1.376,2.661-1.1.277-2.011-.648-2.42-1.764-.076-.207.075-.541.3-.428" transform="translate(-43.115 -21.402)" fill="#263238"/>
              <path id="Trazado_875027" data-name="Trazado 875027" d="M147.129,105.888c.478.4.969.958,1.645.959a4.895,4.895,0,0,0,1.951-.628.065.065,0,0,1,.088.089,2.5,2.5,0,0,1-2.267,1.2,1.976,1.976,0,0,1-1.589-1.518c-.037-.1.1-.156.171-.1" transform="translate(-39.37 -28.362)" fill="#263238"/>
              <path id="Trazado_875028" data-name="Trazado 875028" d="M154.17,88.837s.762,2.693.943,3.988c.016.122-.288.223-.724.31-.021.009-.031.02-.052.009a6.217,6.217,0,0,1-6.3-1.466c-.106-.114.039-.271.168-.206a9.371,9.371,0,0,0,5.847.827c.042-.372-1.46-4.569-1.257-4.614a11.415,11.415,0,0,1,3.035.256c-1.426-5.656-3.747-11.038-5.082-16.691a.178.178,0,0,1,.326-.131c2.832,5.468,4.615,11.941,6.237,17.744.209.722-2.592.121-3.141-.027" transform="translate(-39.65 -19.03)" fill="#263238"/>
              <path id="Trazado_875029" data-name="Trazado 875029" d="M105.812,79.106c4.633.358,5.7-9.356,5.7-9.356s9.415.028,12.521-13.511a20.863,20.863,0,0,1-4.167,11.2s16.6-1.76,23.591-15.653c0,0-2.789,7.076-5.4,9.593,0,0,6.964-1.942,10.358-7.6,0,0,2.907,8.019,5.145,10.233,0,0-.686-29.048-27.6-25.958,0,0-16.851,1.119-22.9,14.457s2.755,26.6,2.755,26.6" transform="translate(-27.041 -10.133)" fill="#263238"/>
              <path id="Trazado_875030" data-name="Trazado 875030" d="M111.819,94.628s-6.972-7.7-10.538-5.106,2.425,14.267,7.134,15.372a4.61,4.61,0,0,0,5.817-3.234Z" transform="translate(-26.844 -23.841)" fill="#d3766a"/>
              <path id="Trazado_875031" data-name="Trazado 875031" d="M104.115,94.23a.062.062,0,0,0-.009.123c3.316.879,5.346,3.592,6.893,6.478-1.086-1.048-2.444-1.526-3.865-.212-.075.069.02.187.106.157a2.837,2.837,0,0,1,3.221.59,13.647,13.647,0,0,1,1.8,2.317c.184.263.674.048.525-.264-.01-.023-.023-.046-.034-.07-.43-4.031-4.267-9.262-8.636-9.12" transform="translate(-27.878 -25.244)" fill="#263238"/>
              <path id="Trazado_875032" data-name="Trazado 875032" d="M112.344,110.415a1.492,1.492,0,1,0,1.492-1.492,1.492,1.492,0,0,0-1.492,1.492" transform="translate(-30.098 -29.181)" fill="#fff"/>
              <path id="Trazado_875033" data-name="Trazado 875033" d="M145.41,40.172c-3.174.252-19.426,6.09-25.76,11.665s-15.965,20.444-16.459,21.222S90.51,47.891,110.827,35.806c22.136-13.167,34.583,4.365,34.583,4.365" transform="translate(-26.555 -8.28)" fill="#0d66bf"/>
              <path id="Trazado_875034" data-name="Trazado 875034" d="M105.911,69.929s8.26-23.852,14.893-30.844,23.868-15.345,36.621-14.072c9.948.993-7.639,19.109-7.639,19.109a6.352,6.352,0,0,0-4.759-3.1c-6.135-.379-15.906,4.641-21.141,8.533-6.587,4.9-17.976,20.374-17.976,20.374" transform="translate(-28.375 -6.666)" fill="#0d66bf"/>
              <g id="Grupo_1100384" data-name="Grupo 1100384" transform="translate(77.373 18.217)" opacity="0.2">
                <g id="Grupo_1100383" data-name="Grupo 1100383">
                  <g id="Grupo_1100382" data-name="Grupo 1100382" clip-path="url(#clip-path-4)">
                    <path id="Trazado_875035" data-name="Trazado 875035" d="M105.911,69.929s8.26-23.852,14.893-30.844,23.868-15.345,36.621-14.072c9.948.993-7.639,19.109-7.639,19.109a6.352,6.352,0,0,0-4.759-3.1c-6.135-.379-15.906,4.641-21.141,8.533-6.587,4.9-17.976,20.374-17.976,20.374" transform="translate(-105.912 -24.883)"/>
                  </g>
                </g>
              </g>
              <rect id="Rectángulo_401723" data-name="Rectángulo 401723" width="98.129" height="60.878" transform="translate(39.757 153.88)" fill="#d3d3d3"/>
              <g id="Grupo_1100387" data-name="Grupo 1100387" transform="translate(33.943 145.472)" opacity="0.2">
                <g id="Grupo_1100386" data-name="Grupo 1100386" transform="translate(6 9)">
                  <g id="Grupo_1100385" data-name="Grupo 1100385" clip-path="url(#clip-path-5)">
                    <rect id="Rectángulo_401724" data-name="Rectángulo 401724" width="98.129" height="60.878" transform="translate(0)"/>
                  </g>
                </g>
              </g>
              <g id="Grupo_1100390" data-name="Grupo 1100390" transform="translate(39.762 153.881)" opacity="0.2">
                <g id="Grupo_1100389" data-name="Grupo 1100389">
                  <g id="Grupo_1100388" data-name="Grupo 1100388" clip-path="url(#clip-path-6)">
                    <rect id="Rectángulo_401726" data-name="Rectángulo 401726" width="37.162" height="60.881"/>
                  </g>
                </g>
              </g>
              <path id="Trazado_875036" data-name="Trazado 875036" d="M57.81,268.416q4.128-6.494,8.182-13.029l8.063-13.094,7.959-13.152q3.96-6.587,7.839-13.218-4.129,6.493-8.183,13.028l-8.062,13.095L65.649,255.2q-3.96,6.587-7.839,13.218" transform="translate(-15.488 -57.848)" fill="#e8e8e8"/>
              <path id="Trazado_875037" data-name="Trazado 875037" d="M57.81,215.923q3.883,6.629,7.839,13.218l7.959,13.152,8.062,13.095q4.051,6.537,8.183,13.028-3.881-6.629-7.839-13.218l-7.959-13.151-8.063-13.095q-4.051-6.537-8.182-13.029" transform="translate(-15.488 -57.848)" fill="#e8e8e8"/>
              <rect id="Rectángulo_401728" data-name="Rectángulo 401728" width="11.286" height="11.286" transform="translate(52.625 153.881)" fill="#ebebeb"/>
              <rect id="Rectángulo_401729" data-name="Rectángulo 401729" width="0.791" height="11.148" transform="translate(116.476 198.553)" fill="#263238"/>
              <rect id="Rectángulo_401730" data-name="Rectángulo 401730" width="0.791" height="11.148" transform="translate(118.374 198.553)" fill="#263238"/>
              <rect id="Rectángulo_401731" data-name="Rectángulo 401731" width="0.791" height="11.148" transform="translate(120.271 198.553)" fill="#263238"/>
              <rect id="Rectángulo_401732" data-name="Rectángulo 401732" width="0.791" height="11.148" transform="translate(122.168 198.553)" fill="#263238"/>
              <rect id="Rectángulo_401733" data-name="Rectángulo 401733" width="0.791" height="11.148" transform="translate(124.065 198.553)" fill="#263238"/>
              <rect id="Rectángulo_401734" data-name="Rectángulo 401734" width="0.791" height="11.148" transform="translate(125.961 198.553)" fill="#263238"/>
              <rect id="Rectángulo_401735" data-name="Rectángulo 401735" width="0.791" height="11.148" transform="translate(127.859 198.553)" fill="#263238"/>
              <rect id="Rectángulo_401736" data-name="Rectángulo 401736" width="0.791" height="11.148" transform="translate(129.756 198.553)" fill="#263238"/>
              <rect id="Rectángulo_401737" data-name="Rectángulo 401737" width="0.791" height="11.148" transform="translate(131.653 198.553)" fill="#263238"/>
              <path id="Trazado_875038" data-name="Trazado 875038" d="M147.006,281.514l3.043.846h-7.14l3.042-.856v-4.1c-2.177-.285-3.042-2.434-3.042-6.19h7.14c0,3.746-.865,5.9-3.043,6.19Z" transform="translate(-38.286 -72.662)" fill="#263238"/>
              <path id="Trazado_875039" data-name="Trazado 875039" d="M137.521,276.9h-1.864v5.458h-4.773V276.9h-1.873l4.259-5.685Z" transform="translate(-34.563 -72.661)" fill="#263238"/>
              <g id="Grupo_1100393" data-name="Grupo 1100393" transform="translate(76.924 199.541)" opacity="0.1">
                <g id="Grupo_1100392" data-name="Grupo 1100392">
                  <g id="Grupo_1100391" data-name="Grupo 1100391" clip-path="url(#clip-path-7)">
                    <path id="Trazado_875040" data-name="Trazado 875040" d="M166.037,287.785v-5.338l-60.962-9.883V287.78Z" transform="translate(-105.075 -272.563)"/>
                  </g>
                </g>
              </g>
              <rect id="Rectángulo_401739" data-name="Rectángulo 401739" width="82.972" height="1.959" transform="translate(49.472 151.922)" fill="#ebebeb"/>
              <rect id="Rectángulo_401740" data-name="Rectángulo 401740" width="82.972" height="1.959" transform="translate(47.321 149.962)" fill="#c7c7c7"/>
              <path id="Trazado_875041" data-name="Trazado 875041" d="M86.252,249.622c-8.347-7.412-56.307-34.233-66.019-37.583s-23.417,1.054-19.046,15.656,53.653,57.733,72.251,60.8c6.542,1.077,15.834-36.186,12.814-38.867" transform="translate(-0.094 -56.522)" fill="#d3766a"/>
              <path id="Trazado_875042" data-name="Trazado 875042" d="M128.283,275.931c-1.911-1.476-1.149-2.489,3.142-2.527,4.342-.047,21.312,3.458,22.029-2.582.731-6.06-23.365-10.625-30.508-10.015-7.144.593-18.482,4.1-18.482,4.1,4.51,1.832,15.02,7.318,23.819,11.025" transform="translate(-27.987 -69.858)" fill="#d3766a"/>
              <path id="Trazado_875043" data-name="Trazado 875043" d="M91.121,300.9c12.887,4.695,28.645,11.325,43.863,8.515a7.661,7.661,0,0,0,4.426-2.364c6.843-1.138,8.36-4.711,8.36-4.711,6.05-3.012,7.1-6.88,7.1-6.88s8.019-1.424,7.963-6.414c-.045-5.6-11.3-2.5-18.528-4.584-16.564-4.771-38.774-16.187-43.414-18.038Z" transform="translate(-24.412 -71.378)" fill="#d3766a"/>
              <path id="Trazado_875044" data-name="Trazado 875044" d="M135.178,300.892a110.9,110.9,0,0,0,14.738,3.355c5.545.7,11,.44,16.556.316a.135.135,0,0,1,.026.268c-10.026,1.818-22.006.217-31.384-3.717-.227-.1-.183-.288.063-.222" transform="translate(-36.159 -80.608)" fill="#263238"/>
              <path id="Trazado_875045" data-name="Trazado 875045" d="M129.242,313.976c4.841,1.007,13.36,2.723,28.654.936.05-.006.076.077.022.091a52.6,52.6,0,0,1-28.724-.8c-.3-.088-.274-.3.048-.23" transform="translate(-34.556 -84.114)" fill="#263238"/>
              <path id="Trazado_875046" data-name="Trazado 875046" d="M126.183,321.069c8.3,1.4,13.7,1.231,22.507.587.05,0,.07.082.015.092-9.926,1.783-13.73,1.3-22.61-.4-.305-.059-.236-.333.088-.278" transform="translate(-33.73 -86.015)" fill="#263238"/>
              <path id="Trazado_875047" data-name="Trazado 875047" d="M88.663,246.831l-23.3,45.811S24.584,268.949,2.723,231.523c-7.284-12.471.034-29.2,22.12-20.252s63.82,35.56,63.82,35.56" transform="translate(0 -55.925)" fill="#0d66bf"/>
              <path id="Trazado_875048" data-name="Trazado 875048" d="M100.768,256.181c-3.688,6.693-17.783,34.637-20.419,40.88-.183.433.047.654.3.228,11.537-19.792,17.1-34.2,20.384-40.952.082-.169-.165-.325-.259-.155" transform="translate(-21.508 -68.614)" fill="#263238"/>
            </g>
          </g>
          <g id="Grupo_1100397" data-name="Grupo 1100397">
            <g id="Grupo_1100396" data-name="Grupo 1100396" clip-path="url(#clip-path)">
              <path id="Trazado_875049" data-name="Trazado 875049" d="M241.62,28.054a25.126,25.126,0,0,1-41.991,15.9L187.057,45.8l6.291-10.869a25.134,25.134,0,1,1,48.273-6.872" transform="translate(-50.114 -0.081)" fill="#fff"/>
              <path id="Trazado_875050" data-name="Trazado 875050" d="M241.311,27.973a25.3,25.3,0,0,1-5.073,12.74,27.968,27.968,0,0,1-2.278,2.622,28.391,28.391,0,0,1-2.652,2.246,24.793,24.793,0,0,1-16.321,5.055,22.021,22.021,0,0,1-3.478-.362,25.364,25.364,0,0,1-12.434-6.139l.3.092-12.561,1.928-.911.14.462-.8L192.615,34.6l-.029.43a25.414,25.414,0,0,1,1.548-22.4,25.7,25.7,0,0,1,7.871-8.382A25.567,25.567,0,0,1,224.1,1.275a25.675,25.675,0,0,1,9.692,5.943,25.281,25.281,0,0,1,7.522,20.756m0,0a25.2,25.2,0,0,0-7.631-20.643,25.362,25.362,0,0,0-9.692-5.718A25.075,25.075,0,0,0,212.809.775a24.694,24.694,0,0,0-10.38,4.1,25.9,25.9,0,0,0-7.519,8.2,24.806,24.806,0,0,0-3.19,10.634,25.1,25.1,0,0,0,1.769,10.948l.091.225-.12.2-6.328,10.848-.449-.663,12.585-1.763.174-.024.124.116A24.756,24.756,0,0,0,211.6,49.8a21.533,21.533,0,0,0,3.41.414,24.173,24.173,0,0,0,3.439-.005,24.777,24.777,0,0,0,6.713-1.478,23.4,23.4,0,0,0,6.062-3.267,28.167,28.167,0,0,0,2.654-2.216,27.869,27.869,0,0,0,2.286-2.6,25.254,25.254,0,0,0,5.147-12.682" transform="translate(-49.804 0)" fill="#263238"/>
              <path id="Trazado_875051" data-name="Trazado 875051" d="M219.5,43.785,208.764,32.919l3.606-3.563L218.64,35.7,231.668,15.28l4.275,2.726Z" transform="translate(-55.93 -4.094)" fill="#ff725d"/>
            </g>
          </g>
        </g>
      </g>
    </g>
  </g>
</svg>
