<svg xmlns="http://www.w3.org/2000/svg" width="85" height="67.819" viewBox="0 0 85 67.819">
  <g id="Grupo_1100651" data-name="Grupo 1100651" transform="translate(-705 -10949.95)">
    <path id="Trazado_874724" data-name="Trazado 874724" d="M10,0H75A10.027,10.027,0,0,1,85,10.053V57.766A10.027,10.027,0,0,1,75,67.819H10A10.027,10.027,0,0,1,0,57.766V10.053A10.027,10.027,0,0,1,10,0Z" transform="translate(705 10949.95)" fill="#0d66bf"/>
    <g id="Grupo_1100400" data-name="Grupo 1100400" transform="translate(722.563 10908.693)">
      <path id="Trazado_875054" data-name="Trazado 875054" d="M25.282,68.7a1.837,1.837,0,1,0,3.674,0V65.331h30.63L35.825,55.65,12.062,65.331H25.283V68.7Z" transform="translate(-10.887)" fill="#fff"/>
      <path id="Trazado_875055" data-name="Trazado 875055" d="M73.346,355.685a1.531,1.531,0,1,0,1.531,1.531A1.533,1.533,0,0,0,73.346,355.685Z" transform="translate(-64.819 -270.808)" fill="#fff"/>
      <path id="Trazado_875056" data-name="Trazado 875056" d="M332.562,253.228a1.531,1.531,0,1,0-1.531-1.531A1.533,1.533,0,0,0,332.562,253.228Z" transform="translate(-298.785 -175.568)" fill="#fff"/>
      <path id="Trazado_875057" data-name="Trazado 875057" d="M20.992,185.476a4.759,4.759,0,0,1-9.519,0v-.443H0v26.43H49.875v-10.1H46.35a3.525,3.525,0,0,1,0-7.05h3.525v-9.279H20.992Zm-17.88,4.44H6.035v2.923H3.112Zm5.414,17.724a4.453,4.453,0,1,1,4.453-4.453A4.458,4.458,0,0,1,8.527,207.641Zm11.17-2.018H16.775V202.7H19.7Zm15.611-.788H32.386v-2.923h2.922Zm2.923,2.923H35.308v-2.923h2.922Zm-4.453-19.3a4.453,4.453,0,1,1-4.453,4.453,4.458,4.458,0,0,1,4.453-4.453Z" transform="translate(0 -116.78)" fill="#fff"/>
    </g>
  </g>
</svg>
