<svg xmlns="http://www.w3.org/2000/svg" width="85" height="70.045" viewBox="0 0 85 70.045">
  <g id="Grupo_1100651" data-name="Grupo 1100651" transform="translate(-705 -10859.643)">
    <path id="Trazado_875052" data-name="Trazado 875052" d="M10,0H75A10.2,10.2,0,0,1,85,10.383V59.662A10.2,10.2,0,0,1,75,70.045H10A10.2,10.2,0,0,1,0,59.662V10.383A10.2,10.2,0,0,1,10,0Z" transform="translate(705 10859.643)" fill="#0d66bf"/>
    <path id="Trazado_875053" data-name="Trazado 875053" d="M31.927,60.231H40.77a.886.886,0,0,1,.883.883V67.39H31.043V61.115A.886.886,0,0,1,31.927,60.231Zm46.1,5.591a1.62,1.62,0,0,1,1.5,2.216L78.121,72.6a63.511,63.511,0,0,1,0,27.634l1.407,4.56a1.62,1.62,0,0,1-1.5,2.216H49.43a1.62,1.62,0,0,1-1.5-2.216l1.406-4.56a63.513,63.513,0,0,1,0-27.634l-1.406-4.559a1.62,1.62,0,0,1,1.5-2.216ZM55.775,101.292h15.9a1.061,1.061,0,1,0,0-2.121h-15.9a1.061,1.061,0,1,0,0,2.121Zm13.251-7.36h-10.6a1.061,1.061,0,0,0,0,2.121h10.6a1.061,1.061,0,0,0,0-2.121ZM55.775,73.658h15.9a1.061,1.061,0,1,0,0-2.121h-15.9a1.061,1.061,0,1,0,0,2.121Zm13.251,3.117h-10.6a1.061,1.061,0,0,0,0,2.121h10.6a1.061,1.061,0,0,0,0-2.121ZM32.491,95.342a5.832,5.832,0,1,1-5.832,5.832A5.832,5.832,0,0,1,32.491,95.342Zm0,3.457a2.375,2.375,0,1,0,2.375,2.375A2.375,2.375,0,0,0,32.491,98.8Zm14.331,2.375.317-1.029A64.142,64.142,0,0,1,45.69,86.414a65.6,65.6,0,0,1,.783-10.2H18.341L24.133,95a8.884,8.884,0,0,0,1.27,2.566,7.954,7.954,0,0,1,15.041,3.611ZM16.8,69.511H46.161l.978,3.171q-.155.705-.293,1.415H16.8a.8.8,0,0,1-.8-.8v-3A.8.8,0,0,1,16.8,69.511Zm26.979-6.479V67.39h1.914A3.751,3.751,0,0,1,49.43,63.7h1.754a.887.887,0,0,0-.857-.669Zm-24.68-.2,7.659-4.422a.886.886,0,0,1,1.207.323l1.023,1.772a2.986,2.986,0,0,0-.061.6V67.39H20.7l-1.932-3.347A.886.886,0,0,1,19.095,62.837ZM35.572,58.11h5.2a3.014,3.014,0,0,1,3,2.8h2.414V54.122a.886.886,0,0,0-.883-.883H36.455a.886.886,0,0,0-.883.883V58.11Z" transform="translate(699.679 10814.542)" fill="#fff" fill-rule="evenodd"/>
  </g>
</svg>
