<svg xmlns="http://www.w3.org/2000/svg" width="85" height="70.045" viewBox="0 0 85 70.045">
  <g id="Grupo_1100650" data-name="Grupo 1100650" transform="translate(-810 -10859.643)">
    <rect id="Rectángulo_401684" data-name="Rectángulo 401684" width="85" height="70.045" rx="10" transform="translate(810 10859.643)" fill="#0d66bf"/>
    <g id="raw_material" transform="translate(826.375 10827.202)">
      <g id="XMLID_434_" transform="translate(0.5 46.906)">
        <path id="XMLID_16_" d="M1.363,48.632H3.837V55.25H32.263V48.632h2.474a.863.863,0,1,0,0-1.726H1.363a.863.863,0,1,0,0,1.726Z" transform="translate(-0.5 -46.906)" fill="#fff"/>
        <path id="XMLID_15_" d="M132.626,225.248a3.7,3.7,0,0,0,3.7-3.7c0-1.406-2.054-4.466-3.7-6.538-1.641,2.073-3.7,5.133-3.7,6.538A3.7,3.7,0,0,0,132.626,225.248Z" transform="translate(-115.076 -196.88)" fill="#fff"/>
        <path id="XMLID_438_" d="M31.437,165.223H59.862V140.25H31.437Zm13.554-18.829a.863.863,0,0,1,1.317,0c.487.576,4.763,5.7,4.763,8.459a5.421,5.421,0,0,1-10.843,0C40.228,152.1,44.5,146.97,44.991,146.394Z" transform="translate(-28.1 -130.18)" fill="#fff"/>
        <path id="XMLID_12_" d="M311.935,327.544a6.444,6.444,0,0,1-3.49-.939,5.235,5.235,0,0,0-5.332,0,6.719,6.719,0,0,1-2.2.834.861.861,0,0,1-.694-.182l-1.834,5.109a5.38,5.38,0,0,0,1.233.127,4.783,4.783,0,0,0,2.667-.73,6.954,6.954,0,0,1,6.978,0,5.237,5.237,0,0,0,5.334,0,6.447,6.447,0,0,1,3.491-.939c.225,0,.438.009.644.025l-1.777-4.95a.86.86,0,0,1-.3.158,6.005,6.005,0,0,0-1.233.55,6.445,6.445,0,0,1-3.489.938Z" transform="translate(-266.255 -295.781)" fill="#fff"/>
        <path id="XMLID_11_" d="M55.011,391.377l-1.432-3.989a.859.859,0,0,1-.488.082,6.031,6.031,0,0,0-.753-.043,4.787,4.787,0,0,0-2.668.73,6.956,6.956,0,0,1-6.979,0,5.234,5.234,0,0,0-5.333,0,6.443,6.443,0,0,1-3.49.939,7.09,7.09,0,0,1-1.606-.168v-1.5H3.837v6.618H1.363a.863.863,0,0,0,0,1.726h53.4a.863.863,0,0,0,.863-.863A10.423,10.423,0,0,0,55.011,391.377Z" transform="translate(-0.5 -350.658)" fill="#fff"/>
        <path id="XMLID_10_" d="M322.063,255.613a6.954,6.954,0,0,1,6.977,0,5.238,5.238,0,0,0,5.334,0,7.586,7.586,0,0,1,1.576-.691.858.858,0,0,1,.231-.033l-.75-2.09a7.249,7.249,0,0,0-13.646,0l-1.232,3.431A5.3,5.3,0,0,0,322.063,255.613Z" transform="translate(-286.027 -226.307)" fill="#fff"/>
      </g>
    </g>
  </g>
</svg>
