<svg xmlns="http://www.w3.org/2000/svg" width="85" height="67.819" viewBox="0 0 85 67.819">
  <g id="Grupo_1100652" data-name="Grupo 1100652" transform="translate(-810 -10949.95)">
    <rect id="Rectángulo_401685" data-name="Rectángulo 401685" width="85" height="67.819" rx="10" transform="translate(810 10949.95)" fill="#0d66bf"/>
    <g id="Grupo_1100401" data-name="Grupo 1100401" transform="translate(827.403 10958.763)">
      <path id="Trazado_875058" data-name="Trazado 875058" d="M14.421,116.323,5.953,103.707.6,105.966a.984.984,0,0,0-.6.907v35.878a.984.984,0,0,0,.984.984H23.621V110.181l-6.975,6.406a1.478,1.478,0,0,1-2.224-.264Zm0,0" transform="translate(0 -93.54)" fill="#fff"/>
      <path id="Trazado_875059" data-name="Trazado 875059" d="M288.726,103.707l-8.468,12.616a1.477,1.477,0,0,1-2.224.264l-6.975-6.406v33.554H293.7a.984.984,0,0,0,.984-.984V106.872a.985.985,0,0,0-.6-.907ZM277.369,135.3a1.476,1.476,0,1,1-2.953,0v-.5a1.476,1.476,0,1,1,2.953,0Zm0-11.681a1.476,1.476,0,1,1-2.953,0v-.5a1.476,1.476,0,1,1,2.953,0Zm0,0" transform="translate(-244.485 -93.54)" fill="#fff"/>
      <path id="Trazado_875060" data-name="Trazado 875060" d="M210.25,67.766l4.485,4.536,4.485-4.536Zm0,0" transform="translate(-189.638 -61.122)" fill="#fff"/>
      <path id="Trazado_875061" data-name="Trazado 875061" d="M277.695,24.1l7.056,6.481,7.639-11.38-2.781-7.149L277.695,24.1Zm0,0" transform="translate(-250.471 -10.866)" fill="#fff"/>
      <path id="Trazado_875062" data-name="Trazado 875062" d="M92.057,30.576l7.056-6.481L87.2,12.047c-1.115,2.863-.6,1.551-2.781,7.149l7.639,11.38Zm0,0" transform="translate(-76.142 -10.866)" fill="#fff"/>
      <path id="Trazado_875063" data-name="Trazado 875063" d="M161.691,3.691,165.342,0H143.23l3.65,3.691Zm0,0" transform="translate(-129.189)" fill="#fff"/>
    </g>
  </g>
</svg>
