<svg xmlns="http://www.w3.org/2000/svg" xmlns:xlink="http://www.w3.org/1999/xlink" width="296.5" height="257.963" viewBox="0 0 296.5 257.963">
  <defs>
    <clipPath id="clip-path">
      <path id="Trazado_873108" data-name="Trazado 873108" d="M30.311-51.916H36.66L30.311-79.55,43.8-115.807l86.464-12.185,43.047,40.715v35.361h33.953c19.006,0,34.414,10.645,34.414,23.775V106.2c0,13.131-15.407,23.775-34.414,23.775H30.311C11.3,129.97-4.1,119.326-4.1,106.2c0,0-23.938-11.293-25.229-57.061S-4.1,4.941-4.1,4.941V-28.14C-4.1-41.271,11.3-51.916,30.311-51.916Z" transform="translate(29.377 127.992)" fill="#ffdc39"/>
    </clipPath>
    <clipPath id="clip-path-2">
      <rect id="Rectángulo_401766" data-name="Rectángulo 401766" width="295.053" height="257.963" rx="40" transform="translate(1125 2416.281)" fill="#53bced"/>
    </clipPath>
    <clipPath id="clip-path-3">
      <rect id="Rectángulo_401765" data-name="Rectángulo 401765" width="315.586" height="321.231" fill="none"/>
    </clipPath>
    <clipPath id="clip-path-5">
      <rect id="Rectángulo_401757" data-name="Rectángulo 401757" width="12.665" height="50.336" fill="none"/>
    </clipPath>
    <clipPath id="clip-path-6">
      <rect id="Rectángulo_401758" data-name="Rectángulo 401758" width="11.456" height="63.405" fill="none"/>
    </clipPath>
    <clipPath id="clip-path-7">
      <rect id="Rectángulo_401759" data-name="Rectángulo 401759" width="36.787" height="20.17" fill="none"/>
    </clipPath>
    <clipPath id="clip-path-9">
      <rect id="Rectángulo_401762" data-name="Rectángulo 401762" width="45.46" height="9.31" fill="none"/>
    </clipPath>
    <clipPath id="clip-path-10">
      <rect id="Rectángulo_401763" data-name="Rectángulo 401763" width="12.908" height="43.249" fill="none"/>
    </clipPath>
  </defs>
  <g id="Grupo_1100655" data-name="Grupo 1100655" transform="translate(-1125 -2469.32)">
    <path id="Trazado_875544" data-name="Trazado 875544" d="M40,0H233.6a40,40,0,0,1,40,40V162.088a40,40,0,0,1-40,40H40a40,40,0,0,1-40-40V40A40,40,0,0,1,40,0Z" transform="translate(1146.458 2525.195)" fill="#53bced"/>
    <path id="Trazado_875545" data-name="Trazado 875545" d="M40,0h76.678a40,40,0,0,1,40,40V87.114a40,40,0,0,1-40,40H40a40,40,0,0,1-40-40V40A40,40,0,0,1,40,0Z" transform="translate(1263.322 2575.374)" fill="none" stroke="#ff725d" stroke-width="3"/>
    <g id="Grupo_1100654" data-name="Grupo 1100654">
      <g id="Grupo_1100653" data-name="Grupo 1100653">
        <g id="Enmascarar_grupo_1098690" data-name="Enmascarar grupo 1098690" transform="translate(0 53.039)" clip-path="url(#clip-path-2)">
          <g id="Grupo_1100484" data-name="Grupo 1100484" transform="translate(1125 2416.281)">
            <g id="Grupo_1100483" data-name="Grupo 1100483" clip-path="url(#clip-path-3)">
              <g id="Grupo_1100474" data-name="Grupo 1100474">
                <g id="Grupo_1100473" data-name="Grupo 1100473" clip-path="url(#clip-path-3)">
                  <path id="Trazado_875207" data-name="Trazado 875207" d="M129.744,238.369s-2-8.707-10.082-8.271-10.04.436-13.533,0-8.9-4.638-10.426-3.328-.675,4.149,2.163,6.674a27.752,27.752,0,0,0,7.712,4.242L95.252,239.46s-9.3-4.964-11.485-4.091a3.387,3.387,0,0,0-2.01,3.291s-3.859-1.736-4.951-.206-1.358,2.549-.266,3.422c0,0-.716-.708-2.722-.117-1.713.506-1.567,3.665,0,4.517l.529.3s14.628,8.427,15.075,8.486c2.584.343,18.351-.328,26.469-.705a8.3,8.3,0,0,1,7.408,3.869l13.075,20.723,14.763-17Z" transform="translate(-10.402 -32.461)" fill="#b78876"/>
                  <path id="Trazado_875208" data-name="Trazado 875208" d="M104.484,245.04a16.037,16.037,0,0,1-2.39.528c-1.51.286-3.642.665-6.12,1.086l-.063.01-.062-.028-3.305-1.515-7.89-3.653-2.38-1.135a4,4,0,0,1-.847-.472,4.123,4.123,0,0,1,.918.314l2.436,1.006,3.592,1.544,4.356,1.992,3.3,1.534-.125-.017c2.482-.393,4.623-.716,6.145-.929a16.1,16.1,0,0,1,2.434-.265" transform="translate(-11.668 -34.372)" fill="#aa6550"/>
                  <path id="Trazado_875209" data-name="Trazado 875209" d="M103.13,250.429a20.056,20.056,0,0,0-3.308,1.885,20.136,20.136,0,0,0-2.587,2.795,7.411,7.411,0,0,1,5.895-4.679" transform="translate(-13.932 -35.884)" fill="#aa6550"/>
                  <path id="Trazado_875210" data-name="Trazado 875210" d="M122.09,236.2c.054-.006.093.529.377,1.39a7.2,7.2,0,0,0,1.99,3.065l.3.268-.4.075a20.641,20.641,0,0,0-9.635,4.642c-1.3,1.1-1.977,1.922-2.037,1.869a2.469,2.469,0,0,1,.427-.618,15.518,15.518,0,0,1,1.4-1.487,18.955,18.955,0,0,1,5.667-3.63,19.17,19.17,0,0,1,4.11-1.17l-.1.344a6.913,6.913,0,0,1-1.948-3.292,3.4,3.4,0,0,1-.149-1.456" transform="translate(-16.148 -33.848)" fill="#aa6550"/>
                  <path id="Trazado_875211" data-name="Trazado 875211" d="M110.463,239.077a24.29,24.29,0,0,1-5.629,1.512c-1.583.3-3.028.5-4.079.6a6.255,6.255,0,0,1-1.711.068c-.015-.131,2.558-.512,5.707-1.108l4.026-.8a7.822,7.822,0,0,1,1.686-.278" transform="translate(-14.193 -34.258)" fill="#aa6550"/>
                  <path id="Trazado_875212" data-name="Trazado 875212" d="M93.543,251.3a21.094,21.094,0,0,1-2.447-.978c-1.5-.623-3.6-1.414-5.931-2.251s-4.448-1.623-5.948-2.264a12.96,12.96,0,0,1-2.374-1.157,19.229,19.229,0,0,1,2.49.864l5.984,2.138c2.339.839,4.433,1.682,5.907,2.382a12.165,12.165,0,0,1,2.319,1.266" transform="translate(-11.012 -35.058)" fill="#aa6550"/>
                  <path id="Trazado_875213" data-name="Trazado 875213" d="M99.623,252a9.76,9.76,0,0,1-6.306.625c.014-.13,1.432-.053,3.161-.23s3.106-.52,3.145-.395" transform="translate(-13.373 -36.109)" fill="#aa6550"/>
                  <path id="Trazado_875214" data-name="Trazado 875214" d="M187.442,193.59s-13.059,7.512-15.794,30.471c-1.426,11.969-6.639,34.228-6.639,34.228l-10.72-12.052L138.078,264.8s17.519,37.39,27.455,47.587,29.523,13.335,29.523,13.335L199,263.232Z" transform="translate(-19.787 -27.742)" fill="#e8505b"/>
                  <path id="Trazado_875215" data-name="Trazado 875215" d="M293.717,180.649l-30.179-5.282-38.473,1.91s-32.04,13.226-30.411,13.7l-6.243,61.855,15.478,29.886-3.817,63.641H306.234l-5.541-44.256-6.947-53.331,13.182,41.285,2,56.3h29.559c3.121-24.518,4.1-58.582,4.1-58.582l-24.124-78.8a45.974,45.974,0,0,0-20.433-26.2,25.3,25.3,0,0,0-4.312-2.131" transform="translate(-27 -25.131)" fill="#e8505b"/>
                  <path id="Trazado_875216" data-name="Trazado 875216" d="M195.3,230.011a1.72,1.72,0,0,1,.074.314c.044.231.1.539.173.93.146.845.354,2.046.62,3.582.526,3.112,1.276,7.618,2.138,13.2s1.833,12.23,2.757,19.637,1.792,15.573,2.286,24.178c.045.8.09,1.6.132,2.337v.016c-.451,16.7-.964,31.7-1.432,42.522-.236,5.413-.454,9.781-.641,12.8-.1,1.486-.177,2.649-.233,3.467-.031.378-.055.675-.074.9a1.71,1.71,0,0,1-.039.306,1.574,1.574,0,0,1-.005-.308c.008-.225.018-.523.031-.9.036-.819.087-1.982.151-3.47.119-3.043.29-7.406.5-12.8.388-10.827.85-25.829,1.3-42.521v.016c-.042-.738-.087-1.534-.132-2.333-.493-8.59-1.357-16.749-2.248-24.154s-1.841-14.058-2.661-19.64c-.841-5.562-1.522-10.07-2-13.216-.23-1.541-.411-2.747-.538-3.595-.054-.394-.1-.7-.129-.937a1.734,1.734,0,0,1-.029-.321" transform="translate(-27.986 -32.961)" fill="#263238"/>
                  <path id="Trazado_875217" data-name="Trazado 875217" d="M303.3,228.247a1.363,1.363,0,0,1-.1-.393c-.052-.314-.115-.691-.189-1.145q-.059-.383-.127-.83c-.035-.3-.046-.637-.072-1a21.662,21.662,0,0,1-.08-2.433q.015-.68.031-1.417c.016-.493.092-1,.138-1.53a32.214,32.214,0,0,1,.513-3.352,33.877,33.877,0,0,1,6.523-13.974,32.047,32.047,0,0,1,2.24-2.546c.375-.375.717-.76,1.085-1.088l1.067-.935a21.7,21.7,0,0,1,1.916-1.5c.29-.21.553-.415.81-.584l.717-.436,1-.589a1.405,1.405,0,0,1,.363-.179,1.423,1.423,0,0,1-.317.256l-.95.658-.691.465c-.247.178-.5.391-.781.609a23.73,23.73,0,0,0-1.857,1.539l-1.037.946c-.357.332-.689.718-1.055,1.094-.748.74-1.434,1.631-2.183,2.544a34.813,34.813,0,0,0-6.446,13.809c-.218,1.159-.46,2.257-.547,3.306-.053.522-.137,1.024-.162,1.511s-.04.953-.059,1.4a23.75,23.75,0,0,0,.013,2.412c.014.355.013.687.035.99s.06.573.087.828c.042.457.077.836.106,1.151a1.425,1.425,0,0,1,.007.407" transform="translate(-43.38 -27.846)" fill="#263238"/>
                  <path id="Trazado_875218" data-name="Trazado 875218" d="M323.853,300.753a2.6,2.6,0,0,1-.2-.511c-.125-.385-.285-.878-.484-1.487-.423-1.35-1.007-3.211-1.722-5.488-1.45-4.635-3.446-11.039-5.737-18.084s-4.42-13.415-6.131-17.946c-.889-2.252-1.756-4.017-2.286-5.27-.269-.624-.469-1.113-.6-1.447a2.469,2.469,0,0,1-.173-.519,2.557,2.557,0,0,1,.255.483l.673,1.411c.577,1.227,1.488,2.973,2.42,5.224,1.8,4.527,3.966,10.876,6.263,17.926s4.242,13.472,5.615,18.13c.687,2.33,1.225,4.22,1.587,5.53l.4,1.511a2.489,2.489,0,0,1,.111.536" transform="translate(-43.926 -35.826)" fill="#263238"/>
                  <path id="Trazado_875219" data-name="Trazado 875219" d="M349.357,306.733c-.022.076-1.147-.254-3-.542a27.839,27.839,0,0,0-14.41,1.573c-1.751.683-2.778,1.246-2.817,1.177a2.973,2.973,0,0,1,.687-.459,17.758,17.758,0,0,1,2.01-1.01,24.96,24.96,0,0,1,14.584-1.592,17.831,17.831,0,0,1,2.181.553,2.98,2.98,0,0,1,.769.3" transform="translate(-47.165 -43.77)" fill="#263238"/>
                  <path id="Trazado_875220" data-name="Trazado 875220" d="M192.855,297.17a10.667,10.667,0,0,1-.8-1.192c-.524-.756-1.3-1.843-2.332-3.126-2.045-2.586-5.051-6.017-8.39-9.79s-6.368-7.194-8.5-9.718c-1.065-1.264-1.92-2.292-2.492-3.018a8.729,8.729,0,0,1-.858-1.152,8.973,8.973,0,0,1,.991,1.04l2.6,2.924,8.6,9.628c3.341,3.775,6.316,7.246,8.306,9.893a37.635,37.635,0,0,1,2.23,3.227c.238.4.392.726.505.942a1.172,1.172,0,0,1,.146.343" transform="translate(-24.287 -38.573)" fill="#263238"/>
                  <g id="Grupo_1100466" data-name="Grupo 1100466" transform="translate(162.502 247.645)" opacity="0.3">
                    <g id="Grupo_1100465" data-name="Grupo 1100465">
                      <g id="Grupo_1100464" data-name="Grupo 1100464" clip-path="url(#clip-path-5)">
                        <path id="Trazado_875221" data-name="Trazado 875221" d="M201.65,339.405c.487-17.3,1.383-33.253-.185-50.336-.7,15.161-6.222,32.906-11.78,47.028Z" transform="translate(-189.684 -289.069)"/>
                      </g>
                    </g>
                  </g>
                  <g id="Grupo_1100469" data-name="Grupo 1100469" transform="translate(262.114 212.627)" opacity="0.3">
                    <g id="Grupo_1100468" data-name="Grupo 1100468">
                      <g id="Grupo_1100467" data-name="Grupo 1100467" clip-path="url(#clip-path-6)">
                        <path id="Trazado_875222" data-name="Trazado 875222" d="M310.589,259.21s-4.927-11.016-4.593-11.016a167.767,167.767,0,0,0,11.417,63.4Z" transform="translate(-305.959 -248.194)"/>
                      </g>
                    </g>
                  </g>
                  <path id="Trazado_875223" data-name="Trazado 875223" d="M285.855,329.253a4.056,4.056,0,0,1-.59.377l-1.732,1.006c-1.5.885-3.664,2.163-6.315,3.792s-5.808,3.567-9.394,5.6a83.179,83.179,0,0,1-12.117,5.726,40.836,40.836,0,0,1-13.127,2.671,19.7,19.7,0,0,1-5.82-.822,13.828,13.828,0,0,1-4.536-2.378,11.524,11.524,0,0,1-4.073-6.083,8.707,8.707,0,0,1-.265-2,4.114,4.114,0,0,1,.039-.7,12.914,12.914,0,0,0,.393,2.651,11.564,11.564,0,0,0,4.1,5.88,13.641,13.641,0,0,0,4.45,2.273,19.591,19.591,0,0,0,5.709.764,41.1,41.1,0,0,0,12.976-2.681,85.679,85.679,0,0,0,12.069-5.664c3.586-2,6.753-3.926,9.431-5.509s4.868-2.833,6.392-3.673l1.775-.933a4,4,0,0,1,.633-.3" transform="translate(-32.657 -47.183)" fill="#263238"/>
                  <path id="Trazado_875224" data-name="Trazado 875224" d="M291.415,299.968a9.932,9.932,0,0,1-.331,1.492,17.68,17.68,0,0,1-.5,1.722c-.223.662-.445,1.43-.788,2.241-.318.822-.675,1.719-1.133,2.65-.415.95-.958,1.916-1.509,2.944a43.877,43.877,0,0,1-9.578,11.673c-.9.742-1.742,1.462-2.593,2.056-.824.631-1.634,1.156-2.377,1.628-.729.5-1.438.863-2.044,1.211a17.8,17.8,0,0,1-1.591.826,9.894,9.894,0,0,1-1.4.615,10.045,10.045,0,0,1,1.318-.769c.434-.229.96-.516,1.547-.888s1.284-.75,2-1.259c.727-.486,1.521-1.022,2.328-1.66.835-.6,1.66-1.326,2.544-2.069a45.893,45.893,0,0,0,9.492-11.568c.556-1.013,1.106-1.964,1.532-2.9.469-.916.84-1.8,1.174-2.606.36-.8.6-1.553.845-2.2s.43-1.221.569-1.691a10.054,10.054,0,0,1,.5-1.443" transform="translate(-38.344 -42.986)" fill="#263238"/>
                  <path id="Trazado_875225" data-name="Trazado 875225" d="M193.758,253.112c-.027.12-4.489-.761-9.966-1.968s-9.9-2.283-9.872-2.4,4.488.761,9.968,1.969,9.9,2.283,9.87,2.4" transform="translate(-24.923 -35.644)" fill="#fafafa"/>
                  <path id="Trazado_875226" data-name="Trazado 875226" d="M193.892,247.407a16.1,16.1,0,0,1-2.821-.318c-1.732-.265-4.115-.689-6.739-1.188l-6.711-1.316a20.16,20.16,0,0,1-2.766-.629,16.122,16.122,0,0,1,2.821.318c1.732.265,4.115.689,6.74,1.188l6.71,1.316a20.162,20.162,0,0,1,2.766.629" transform="translate(-25.057 -34.957)" fill="#fafafa"/>
                  <path id="Trazado_875227" data-name="Trazado 875227" d="M289.173,248.623c0,.123-19.285.078-43.068-.1s-43.07-.424-43.069-.547,19.282-.079,43.072.1,43.065.423,43.064.547" transform="translate(-29.096 -35.526)" fill="#fafafa"/>
                  <path id="Trazado_875228" data-name="Trazado 875228" d="M290.422,253.808c0,.123-19.844.223-44.317.223s-44.322-.1-44.322-.223,19.84-.223,44.322-.223,44.317.1,44.317.223" transform="translate(-28.916 -36.339)" fill="#fafafa"/>
                  <path id="Trazado_875229" data-name="Trazado 875229" d="M341.991,241.957c0-.009.034-.015.1-.019-.037.1-.077.031-.129.053h-.077l0-.082h.1l.272,0L342,242c-1.582.581-8.209,2.825-16.034,5.8l-11.529,4.434-3.5,1.338a8.225,8.225,0,0,1-1.3.439,8.03,8.03,0,0,1,1.238-.6c.809-.359,1.985-.864,3.445-1.471,2.92-1.217,6.973-2.85,11.489-4.559,7.833-2.983,14.522-5.09,16.163-5.479l.012.093-.1-.01h-.005l0-.082h.015l.021,0,.04.005c.05.027.1-.036.124.066-.068-.011-.1-.021-.1-.029" transform="translate(-44.372 -34.666)" fill="#fafafa"/>
                  <path id="Trazado_875230" data-name="Trazado 875230" d="M340.941,235.507c.039.116-7.482,2.75-16.8,5.88s-16.9,5.575-16.943,5.457,7.482-2.749,16.8-5.88,16.9-5.574,16.94-5.457" transform="translate(-44.023 -33.748)" fill="#fafafa"/>
                  <path id="Trazado_875231" data-name="Trazado 875231" d="M272.527,176.116a4.051,4.051,0,0,1,.079.691,16.374,16.374,0,0,1,.051,2,21.531,21.531,0,0,1-1.518,7.168,22.128,22.128,0,0,1-6.353,8.775,21.8,21.8,0,0,1-25.132,1.536,22.132,22.132,0,0,1-7.375-7.938,21.546,21.546,0,0,1-2.379-6.929,16.607,16.607,0,0,1-.192-1.987,4.082,4.082,0,0,1-.005-.7,4.041,4.041,0,0,1,.1.689c.032.453.128,1.115.273,1.964a22.4,22.4,0,0,0,2.484,6.806,22.086,22.086,0,0,0,7.32,7.744,21.55,21.55,0,0,0,24.651-1.505,22.1,22.1,0,0,0,6.322-8.576,22.374,22.374,0,0,0,1.637-7.058c.041-.86.057-1.528.033-1.982a4.019,4.019,0,0,1,.01-.7" transform="translate(-32.916 -25.238)" fill="#fafafa"/>
                  <path id="Trazado_875232" data-name="Trazado 875232" d="M155.285,257.12a3.843,3.843,0,0,1-.451.828c-.314.518-.791,1.253-1.4,2.147a84.271,84.271,0,0,1-10.925,12.892c-.782.749-1.428,1.34-1.889,1.733a3.814,3.814,0,0,1-.743.581,3.866,3.866,0,0,1,.624-.707l1.785-1.831c1.5-1.549,3.54-3.727,5.67-6.237s3.941-4.877,5.222-6.614l1.514-2.062a3.818,3.818,0,0,1,.595-.731" transform="translate(-20.044 -36.846)" fill="#fafafa"/>
                  <g id="Grupo_1100472" data-name="Grupo 1100472" transform="translate(212.196 267.318)" opacity="0.3">
                    <g id="Grupo_1100471" data-name="Grupo 1100471">
                      <g id="Grupo_1100470" data-name="Grupo 1100470" clip-path="url(#clip-path-7)">
                        <path id="Trazado_875233" data-name="Trazado 875233" d="M267.519,329.206c-4.326,2.459-10.16,2.849-15.367,2.987a6.616,6.616,0,0,1-2.9-.383,2.451,2.451,0,0,1-1.556-2.284c.1-1.177,1.278-1.935,2.37-2.388,4.206-1.741,8.929-1.641,13.343-2.751,7.529-1.892,15.206-7.265,21.068-12.355a45.794,45.794,0,0,1-16.959,17.173" transform="translate(-247.691 -312.033)"/>
                      </g>
                    </g>
                  </g>
                  <path id="Trazado_875234" data-name="Trazado 875234" d="M246.338,182.776h0a19.333,19.333,0,0,1-17.791-19.441c.042-4.814.093-8.664.093-8.664s-15.511-2.412-15.7-17.919,2.5-51.117,2.5-51.117a53.9,53.9,0,0,1,54.157,6.807l2.3,1.769L267.165,164.8a19.33,19.33,0,0,1-20.826,17.979" transform="translate(-30.513 -11.644)" fill="#b78876"/>
                  <path id="Trazado_875235" data-name="Trazado 875235" d="M231.232,165.73a36.057,36.057,0,0,0,20.217-5.746s-4.779,11.161-20.253,9.764Z" transform="translate(-33.131 -22.926)" fill="#aa6550"/>
                  <path id="Trazado_875236" data-name="Trazado 875236" d="M279.421,115.047c.265-.115,10.656-3.152,10.317,7.451s-10.913,8.075-10.923,7.77.606-15.221.606-15.221" transform="translate(-39.955 -16.417)" fill="#b78876"/>
                  <path id="Trazado_875237" data-name="Trazado 875237" d="M282.743,126.935c.048-.033.181.135.488.289a1.85,1.85,0,0,0,1.379.072c1.133-.375,2.133-2.123,2.245-4.032a6.1,6.1,0,0,0-.432-2.661,2.136,2.136,0,0,0-1.344-1.462.94.94,0,0,0-1.106.472c-.152.291-.092.505-.148.522-.03.026-.222-.185-.123-.62a1.183,1.183,0,0,1,.439-.651,1.4,1.4,0,0,1,1.03-.237,2.6,2.6,0,0,1,1.877,1.706,6.271,6.271,0,0,1,.546,2.975c-.136,2.134-1.294,4.1-2.84,4.493a1.982,1.982,0,0,1-1.681-.334c-.32-.272-.368-.511-.331-.529" transform="translate(-40.516 -16.997)" fill="#aa6550"/>
                  <path id="Trazado_875238" data-name="Trazado 875238" d="M222.424,115.057a2.215,2.215,0,0,0,2.136,2.234,2.117,2.117,0,0,0,2.282-2,2.215,2.215,0,0,0-2.133-2.236,2.121,2.121,0,0,0-2.285,2" transform="translate(-31.874 -16.201)" fill="#263238"/>
                  <path id="Trazado_875239" data-name="Trazado 875239" d="M219.274,111.443c.275.289,1.952-.953,4.336-.947,2.381-.027,4.129,1.2,4.388.906.127-.129-.152-.65-.914-1.205a6.077,6.077,0,0,0-3.513-1.082,5.829,5.829,0,0,0-3.45,1.114c-.733.562-.982,1.085-.846,1.214" transform="translate(-31.418 -15.636)" fill="#263238"/>
                  <path id="Trazado_875240" data-name="Trazado 875240" d="M249.134,115.663a2.215,2.215,0,0,0,2.135,2.234,2.118,2.118,0,0,0,2.283-2,2.214,2.214,0,0,0-2.133-2.235,2.119,2.119,0,0,0-2.285,2" transform="translate(-35.701 -16.288)" fill="#263238"/>
                  <path id="Trazado_875241" data-name="Trazado 875241" d="M246.618,111.962c.275.289,1.955-.953,4.337-.947,2.38-.027,4.128,1.2,4.387.906.127-.129-.15-.65-.914-1.2a6.076,6.076,0,0,0-3.513-1.083,5.832,5.832,0,0,0-3.451,1.114c-.731.563-.981,1.085-.846,1.214" transform="translate(-35.336 -15.711)" fill="#263238"/>
                  <path id="Trazado_875242" data-name="Trazado 875242" d="M235.512,129.659a15.769,15.769,0,0,0-3.871-.7c-.609-.063-1.185-.184-1.288-.6a3.1,3.1,0,0,1,.407-1.8q.858-2.209,1.8-4.634c2.5-6.6,4.308-12.022,4.042-12.121s-2.508,5.169-5.007,11.767q-.9,2.44-1.725,4.662a3.522,3.522,0,0,0-.315,2.388,1.524,1.524,0,0,0,1,.89,4.164,4.164,0,0,0,1.033.144c2.416.129,3.914.141,3.924.005" transform="translate(-32.879 -15.735)" fill="#263238"/>
                  <path id="Trazado_875243" data-name="Trazado 875243" d="M245.9,101.15c.234.649,2.614.342,5.409.679,2.8.281,5.058,1.1,5.429.518.165-.278-.228-.888-1.139-1.515a9.479,9.479,0,0,0-8.257-.912c-1.027.414-1.544.923-1.442,1.229" transform="translate(-35.237 -14.239)" fill="#263238"/>
                  <path id="Trazado_875244" data-name="Trazado 875244" d="M220.293,103.368c.419.541,2.06-.021,4.035-.047,1.973-.1,3.646.364,4.031-.2.169-.275-.094-.817-.825-1.33a5.844,5.844,0,0,0-6.5.2c-.7.556-.927,1.114-.742,1.378" transform="translate(-31.56 -14.459)" fill="#263238"/>
                  <path id="Trazado_875245" data-name="Trazado 875245" d="M207.031,72.745a5.721,5.721,0,0,1,2.113-5.114,4.061,4.061,0,0,1,5.262.392,4.738,4.738,0,0,1,4.073-5.747c2.53-.159,4.686,1.75,7.13,2.421a11.517,11.517,0,0,0,7.241-.836c2.3-.924,4.44-2.2,6.764-3.048a19.832,19.832,0,0,1,25.363,11.644c3.391-1.061,7.245.661,9.336,3.535a14.439,14.439,0,0,1,2.212,10.175,32.266,32.266,0,0,1-1.773,6.958c0,.2.021.395.016.595-.16,8.528-1.124,18.542-4.762,18.6-6.34.1-4.83-11.849-4.83-11.849-7.782-3.008-4.883-14.667-6.829-16.436s-6.016-5.879-22.308,2.448c-6.327,3.234-14.739,3.134-19.331,2.091-.135-.028-.272-.05-.405-.082-.028-.008-.066-.012-.094-.019-.051-.014-.086-.04-.135-.055a14.658,14.658,0,0,1-4.179-1.773,8.255,8.255,0,0,1-3.443-3.829,4.52,4.52,0,0,1,.889-4.853,9.939,9.939,0,0,1-2.311-5.217" transform="translate(-29.665 -8.545)" fill="#263238"/>
                  <path id="Trazado_875246" data-name="Trazado 875246" d="M234.112,141.091a10.664,10.664,0,0,0,1.382,2.709,3.6,3.6,0,0,0,2.558,1.485,3.231,3.231,0,0,0,2.731-1.489,5.157,5.157,0,0,0,.761-3.106c-.044-.979-.493-2.148-1.466-2.263a2.451,2.451,0,0,0-1.181.262l-5.115,2.074" transform="translate(-33.501 -19.836)" fill="#aa6550"/>
                  <path id="Trazado_875247" data-name="Trazado 875247" d="M235.993,145.211a7.4,7.4,0,0,0,2.728-.337A3.9,3.9,0,0,0,240.783,143a4.1,4.1,0,0,0,.067-3.346,3.662,3.662,0,0,0-.445-.764c-.2-.212-.165-.2-.386-.17-.208.057-.545.214-.82.321l-.84.343c-1.095.443-2.086.829-2.924,1.143a9.336,9.336,0,0,1-2.785.839,9.324,9.324,0,0,1,2.532-1.433c.805-.389,1.77-.837,2.847-1.323l.828-.37a9.047,9.047,0,0,1,.935-.385,1.2,1.2,0,0,1,.759.021,1.4,1.4,0,0,1,.564.446,4.384,4.384,0,0,1,.576.97,4.8,4.8,0,0,1-.157,4.092,4.375,4.375,0,0,1-2.6,2.1,4.126,4.126,0,0,1-2.216.087c-.509-.134-.747-.308-.727-.358" transform="translate(-33.339 -19.747)" fill="#263238"/>
                  <path id="Trazado_875248" data-name="Trazado 875248" d="M260.557,84.93a9.331,9.331,0,0,0,.008-1.876A7.317,7.317,0,0,0,258.14,78.7a9.866,9.866,0,0,0-6.981-2.305,30.4,30.4,0,0,0-9.072,2.029c-1.584.522-3.146,1.019-4.7,1.362a24.348,24.348,0,0,1-4.535.552,24.627,24.627,0,0,1-7.64-1,23.739,23.739,0,0,1-4.781-2.027c-.537-.3-.936-.559-1.2-.742a1.941,1.941,0,0,1-.394-.3c.025-.04.591.332,1.679.881a26.331,26.331,0,0,0,4.787,1.874,25.091,25.091,0,0,0,7.537.894,24.5,24.5,0,0,0,4.45-.567c1.522-.343,3.068-.839,4.651-1.36a30.036,30.036,0,0,1,9.209-2.016,10.1,10.1,0,0,1,7.206,2.49,7.328,7.328,0,0,1,2.382,4.572,4.263,4.263,0,0,1-.184,1.9" transform="translate(-31.36 -10.887)" fill="#455a64"/>
                  <path id="Trazado_875249" data-name="Trazado 875249" d="M279.995,111.961c-.015.007-.084-.105-.2-.326s-.286-.553-.482-.989a19.937,19.937,0,0,1-1.235-3.854,21.259,21.259,0,0,1-.4-5.994,53.291,53.291,0,0,1,1.384-7.2,14.112,14.112,0,0,0,.015-7.127,7.211,7.211,0,0,0-1.486-2.7,5.428,5.428,0,0,0-2.228-1.462,5.086,5.086,0,0,0-3.827.1,7.337,7.337,0,0,0-1.191.834,2.954,2.954,0,0,1,1.109-.992A5.144,5.144,0,0,1,275.461,82a5.694,5.694,0,0,1,2.4,1.512,7.5,7.5,0,0,1,1.607,2.83,14.273,14.273,0,0,1,.032,7.346,57.4,57.4,0,0,0-1.412,7.146,21.938,21.938,0,0,0,.3,5.9,23.2,23.2,0,0,0,1.083,3.851,14.04,14.04,0,0,1,.522,1.382" transform="translate(-38.74 -11.709)" fill="#455a64"/>
                  <path id="Trazado_875250" data-name="Trazado 875250" d="M261.771,82.05a3.215,3.215,0,0,1,.007-.623c.016-.452.039-1.043.066-1.779a20.622,20.622,0,0,0-.716-6.44,11.4,11.4,0,0,0-2.072-3.913A8.007,8.007,0,0,0,254.9,66.55a10.5,10.5,0,0,0-5.55.227,25.642,25.642,0,0,0-5.551,2.515,45.8,45.8,0,0,1-5.5,2.831,16.833,16.833,0,0,1-5.671,1.139,17.9,17.9,0,0,1-5.194-.637,20.072,20.072,0,0,1-4.213-1.737,17.229,17.229,0,0,1-4.989-4.259,10.858,10.858,0,0,1-1.011-1.474,3.135,3.135,0,0,1-.3-.546,3.323,3.323,0,0,1,.377.5,13.473,13.473,0,0,0,1.072,1.411,17.855,17.855,0,0,0,5.008,4.089,20.133,20.133,0,0,0,4.155,1.653,17.723,17.723,0,0,0,5.085.583,16.546,16.546,0,0,0,5.517-1.133,46.585,46.585,0,0,0,5.444-2.813,25.767,25.767,0,0,1,5.652-2.549,10.876,10.876,0,0,1,5.781-.2,8.365,8.365,0,0,1,4.342,2.914,11.594,11.594,0,0,1,2.088,4.06,19.673,19.673,0,0,1,.584,6.54c-.045.774-.105,1.373-.152,1.779a3.162,3.162,0,0,1-.1.615" transform="translate(-31.085 -9.259)" fill="#455a64"/>
                </g>
              </g>
              <path id="Trazado_875251" data-name="Trazado 875251" d="M171.047,186.248,138.5,184.859V152.308h32.552Z" transform="translate(-19.847 -21.826)" fill="#e8505b"/>
              <rect id="Rectángulo_401761" data-name="Rectángulo 401761" width="32.552" height="32.552" transform="translate(131.556 121.171)" fill="#e8505b"/>
              <path id="Trazado_875252" data-name="Trazado 875252" d="M176.492,183.3l12.908-9.31V141.44l-12.908,9.31Z" transform="translate(-25.292 -20.269)" fill="#e8505b"/>
              <path id="Trazado_875253" data-name="Trazado 875253" d="M138.5,150.75l12.908-9.31h32.552l-12.908,9.31Z" transform="translate(-19.847 -20.269)" fill="#e8505b"/>
              <path id="Trazado_875254" data-name="Trazado 875254" d="M176.492,184.69l12.908-10.7V141.441l-12.908,9.31Z" transform="translate(-25.292 -20.269)" fill="#e8505b"/>
              <g id="Grupo_1100482" data-name="Grupo 1100482">
                <g id="Grupo_1100481" data-name="Grupo 1100481" clip-path="url(#clip-path-3)">
                  <g id="Grupo_1100477" data-name="Grupo 1100477" transform="translate(118.648 121.172)" opacity="0.3">
                    <g id="Grupo_1100476" data-name="Grupo 1100476">
                      <g id="Grupo_1100475" data-name="Grupo 1100475" clip-path="url(#clip-path-9)">
                        <path id="Trazado_875255" data-name="Trazado 875255" d="M138.5,150.75l12.908-9.31h32.552l-12.908,9.31Z" transform="translate(-138.495 -141.441)" fill="#fff"/>
                      </g>
                    </g>
                  </g>
                  <g id="Grupo_1100480" data-name="Grupo 1100480" transform="translate(151.2 121.172)" opacity="0.4">
                    <g id="Grupo_1100479" data-name="Grupo 1100479">
                      <g id="Grupo_1100478" data-name="Grupo 1100478" clip-path="url(#clip-path-10)">
                        <path id="Trazado_875256" data-name="Trazado 875256" d="M176.492,184.69l12.908-10.7V141.441l-12.908,9.31Z" transform="translate(-176.492 -141.441)"/>
                      </g>
                    </g>
                  </g>
                  <path id="Trazado_875257" data-name="Trazado 875257" d="M196.613,180.889a4.783,4.783,0,0,1,.2,1.918c-.158.319-.044.088-.079.159h0l0,0-.005,0-.009.007-.021.015-.039.029-.079.058-.153.112-.294.208c-.19.13-.364.243-.513.334-.3.181-.5.271-.532.226s.107-.213.362-.451c.128-.119.284-.255.46-.4l.281-.227.151-.117.076-.059.039-.03.021-.015.009-.007.005,0,0,0h0l-.079.159a4.757,4.757,0,0,1,.2-1.918" transform="translate(-27.955 -25.922)" fill="#e8505b"/>
                  <path id="Trazado_875258" data-name="Trazado 875258" d="M196.837,171.288a10.733,10.733,0,0,1,0,4.112,10.69,10.69,0,0,1,0-4.112" transform="translate(-28.179 -24.546)" fill="#e8505b"/>
                  <path id="Trazado_875259" data-name="Trazado 875259" d="M196.837,161.687a10.733,10.733,0,0,1,0,4.112,10.69,10.69,0,0,1,0-4.112" transform="translate(-28.179 -23.17)" fill="#e8505b"/>
                  <path id="Trazado_875260" data-name="Trazado 875260" d="M196.837,152.086a10.737,10.737,0,0,1,0,4.113,10.694,10.694,0,0,1,0-4.113" transform="translate(-28.179 -21.794)" fill="#e8505b"/>
                  <path id="Trazado_875261" data-name="Trazado 875261" d="M196.837,142.485a10.733,10.733,0,0,1,0,4.112,10.69,10.69,0,0,1,0-4.112" transform="translate(-28.179 -20.419)" fill="#e8505b"/>
                  <path id="Trazado_875262" data-name="Trazado 875262" d="M194.631,135.413a4.778,4.778,0,0,1,1.918-.2c.4.4.111.111.2.2h0v.194l0,.19c0,.114-.007.232-.011.36-.01.23-.025.437-.043.61-.036.347-.087.562-.141.562s-.105-.215-.141-.562c-.018-.173-.033-.38-.043-.61,0-.128-.008-.246-.012-.36l0-.19v-.194h0c.089.089-.2-.2.2.2a4.778,4.778,0,0,1-1.918-.2" transform="translate(-27.891 -19.376)" fill="#e8505b"/>
                  <path id="Trazado_875263" data-name="Trazado 875263" d="M186.042,135.413a8.574,8.574,0,0,1,3.679,0,8.574,8.574,0,0,1-3.679,0" transform="translate(-26.66 -19.376)" fill="#e8505b"/>
                  <path id="Trazado_875264" data-name="Trazado 875264" d="M177.453,135.413a8.574,8.574,0,0,1,3.679,0,8.574,8.574,0,0,1-3.679,0" transform="translate(-25.43 -19.376)" fill="#e8505b"/>
                  <path id="Trazado_875265" data-name="Trazado 875265" d="M168.864,135.413a8.574,8.574,0,0,1,3.679,0,8.574,8.574,0,0,1-3.679,0" transform="translate(-24.199 -19.376)" fill="#e8505b"/>
                  <path id="Trazado_875266" data-name="Trazado 875266" d="M160.275,135.413a8.574,8.574,0,0,1,3.679,0,8.574,8.574,0,0,1-3.679,0" transform="translate(-22.968 -19.376)" fill="#e8505b"/>
                  <path id="Trazado_875267" data-name="Trazado 875267" d="M151.866,135.84c-.04-.048.123-.254.417-.546l.029-.03.069-.005c.314-.03.724-.046,1.169-.046a4.409,4.409,0,0,1,1.839.2,4.385,4.385,0,0,1-1.839.2c-.445,0-.856-.016-1.169-.045l.1-.037c-.34.235-.575.359-.613.31" transform="translate(-21.762 -19.376)" fill="#e8505b"/>
                  <path id="Trazado_875268" data-name="Trazado 875268" d="M145.256,141.035c-.07-.085.506-.679,1.288-1.329s1.474-1.106,1.544-1.02-.506.679-1.288,1.328-1.473,1.106-1.543,1.021" transform="translate(-20.815 -19.873)" fill="#e8505b"/>
                  <path id="Trazado_875269" data-name="Trazado 875269" d="M138.647,146.52c-.07-.085.505-.679,1.287-1.329s1.473-1.106,1.544-1.02-.506.679-1.288,1.328-1.474,1.106-1.543,1.021" transform="translate(-19.868 -20.659)" fill="#e8505b"/>
                  <path id="Trazado_875270" data-name="Trazado 875270" d="M133.568,152.8a4.778,4.778,0,0,1-.181-1.92c.144-.3.04-.084.073-.152h0l0,0,.005,0,.009-.009.019-.015.039-.032.075-.061.148-.12.284-.221c.183-.139.352-.26.5-.356.29-.194.487-.292.523-.249s-.1.218-.342.467c-.123.125-.272.268-.442.422l-.27.239-.145.124-.075.063-.038.032-.019.015-.009.009-.005,0,0,0v0h0l.072-.151a4.772,4.772,0,0,1-.218,1.916" transform="translate(-19.115 -21.445)" fill="#e8505b"/>
                  <path id="Trazado_875271" data-name="Trazado 875271" d="M133.48,161.572a9.149,9.149,0,0,1,.037-3.805,9.149,9.149,0,0,1-.037,3.805" transform="translate(-19.102 -22.608)" fill="#e8505b"/>
                  <path id="Trazado_875272" data-name="Trazado 875272" d="M133.393,170.455a9.15,9.15,0,0,1,.037-3.805,9.15,9.15,0,0,1-.037,3.805" transform="translate(-19.089 -23.881)" fill="#e8505b"/>
                  <path id="Trazado_875273" data-name="Trazado 875273" d="M133.307,179.338a9.169,9.169,0,0,1,.038-3.805,9.168,9.168,0,0,1-.038,3.805" transform="translate(-19.077 -25.154)" fill="#e8505b"/>
                  <path id="Trazado_875274" data-name="Trazado 875274" d="M133.22,188.221a9.169,9.169,0,0,1,.038-3.805,9.169,9.169,0,0,1-.038,3.805" transform="translate(-19.065 -26.427)" fill="#e8505b"/>
                  <path id="Trazado_875275" data-name="Trazado 875275" d="M135.066,195.249a4.763,4.763,0,0,1-1.921.168l-.2-.2h0v-.1l0-.1,0-.19c.005-.114.01-.231.015-.36.013-.23.029-.436.049-.609.039-.347.092-.561.146-.561s.1.216.136.564c.016.174.029.38.037.61,0,.128.005.246.008.36l0,.192v.194h0c-.088-.09.2.2-.2-.2a4.767,4.767,0,0,1,1.915.231" transform="translate(-19.049 -27.7)" fill="#e8505b"/>
                  <path id="Trazado_875276" data-name="Trazado 875276" d="M143.3,195.676a8.371,8.371,0,0,1-3.634-.06,8.371,8.371,0,0,1,3.634.06" transform="translate(-20.014 -28.008)" fill="#e8505b"/>
                  <path id="Trazado_875277" data-name="Trazado 875277" d="M151.783,195.815a8.375,8.375,0,0,1-3.635-.06,8.376,8.376,0,0,1,3.635.06" transform="translate(-21.23 -28.028)" fill="#e8505b"/>
                  <path id="Trazado_875278" data-name="Trazado 875278" d="M160.266,195.955a8.371,8.371,0,0,1-3.634-.06,8.371,8.371,0,0,1,3.634.06" transform="translate(-22.446 -28.048)" fill="#e8505b"/>
                  <path id="Trazado_875279" data-name="Trazado 875279" d="M168.75,196.094a8.372,8.372,0,0,1-3.634-.06,8.372,8.372,0,0,1,3.634.06" transform="translate(-23.662 -28.068)" fill="#e8505b"/>
                  <path id="Trazado_875280" data-name="Trazado 875280" d="M177.234,196.233a8.336,8.336,0,0,1-3.634-.06,8.407,8.407,0,0,1,3.634.06" transform="translate(-24.877 -28.088)" fill="#e8505b"/>
                  <path id="Trazado_875281" data-name="Trazado 875281" d="M184.45,192.159c.067.088-.529.65-1.328,1.256s-1.5,1.025-1.57.938.529-.65,1.329-1.257,1.5-1.025,1.569-.937" transform="translate(-26.016 -27.535)" fill="#e8505b"/>
                  <path id="Trazado_875282" data-name="Trazado 875282" d="M191.216,187.038c.067.088-.529.65-1.328,1.256s-1.5,1.025-1.57.937.529-.65,1.329-1.256,1.5-1.025,1.569-.937" transform="translate(-26.986 -26.801)" fill="#e8505b"/>
                  <path id="Trazado_875283" data-name="Trazado 875283" d="M151.456,133.445c.1-.05.372.294.61.767s.351.9.253.947-.372-.294-.61-.767-.351-.9-.253-.947" transform="translate(-21.699 -19.122)" fill="#e8505b"/>
                  <path id="Trazado_875284" data-name="Trazado 875284" d="M147.533,125.65c.1-.05.555.658,1.019,1.58a4.549,4.549,0,0,1,.662,1.76c-.1.05-.555-.658-1.019-1.58a4.544,4.544,0,0,1-.662-1.76" transform="translate(-21.139 -18.006)" fill="#e8505b"/>
                  <path id="Trazado_875285" data-name="Trazado 875285" d="M143.608,117.854c.1-.05.555.658,1.019,1.58a4.549,4.549,0,0,1,.662,1.76c-.1.05-.555-.658-1.019-1.58a4.544,4.544,0,0,1-.662-1.76" transform="translate(-20.577 -16.888)" fill="#e8505b"/>
                  <path id="Trazado_875286" data-name="Trazado 875286" d="M139.682,110.057c.1-.049.555.659,1.019,1.581a4.549,4.549,0,0,1,.662,1.76c-.1.05-.555-.658-1.019-1.58a4.541,4.541,0,0,1-.662-1.761" transform="translate(-20.014 -15.771)" fill="#e8505b"/>
                  <path id="Trazado_875287" data-name="Trazado 875287" d="M135.757,102.261c.1-.05.555.658,1.019,1.58a4.559,4.559,0,0,1,.663,1.76c-.1.05-.556-.658-1.019-1.58a4.528,4.528,0,0,1-.662-1.76" transform="translate(-19.452 -14.654)" fill="#e8505b"/>
                  <path id="Trazado_875288" data-name="Trazado 875288" d="M131.831,94.465c.1-.05.555.658,1.019,1.58a4.548,4.548,0,0,1,.662,1.76c-.1.05-.555-.658-1.019-1.58a4.544,4.544,0,0,1-.662-1.76" transform="translate(-18.889 -13.537)" fill="#e8505b"/>
                  <path id="Trazado_875289" data-name="Trazado 875289" d="M127.906,86.669c.1-.05.554.658,1.019,1.58a4.549,4.549,0,0,1,.662,1.76c-.1.05-.555-.657-1.019-1.58a4.517,4.517,0,0,1-.661-1.76" transform="translate(-18.327 -12.42)" fill="#e8505b"/>
                  <path id="Trazado_875290" data-name="Trazado 875290" d="M123.98,78.873c.1-.05.555.658,1.019,1.58a4.549,4.549,0,0,1,.662,1.76c-.1.05-.555-.658-1.019-1.58a4.544,4.544,0,0,1-.662-1.76" transform="translate(-17.764 -11.302)" fill="#e8505b"/>
                  <path id="Trazado_875291" data-name="Trazado 875291" d="M121.007,72.974c.1-.05.372.294.61.767s.351.9.253.947-.372-.294-.61-.767-.351-.9-.253-.947" transform="translate(-17.336 -10.457)" fill="#e8505b"/>
                  <path id="Trazado_875292" data-name="Trazado 875292" d="M81.008,146.944c-.009.11-.444.165-.972.124s-.949-.164-.941-.274.444-.165.971-.124.949.164.941.274" transform="translate(-11.335 -21.016)" fill="#e8505b"/>
                  <path id="Trazado_875293" data-name="Trazado 875293" d="M89.778,147.637a4.958,4.958,0,0,1-1.965.046,4.961,4.961,0,0,1-1.934-.351,4.949,4.949,0,0,1,1.965-.047,4.974,4.974,0,0,1,1.934.352" transform="translate(-12.307 -21.099)" fill="#e8505b"/>
                  <path id="Trazado_875294" data-name="Trazado 875294" d="M98.88,148.35a9.687,9.687,0,0,1-3.9-.3,9.648,9.648,0,0,1,3.9.3" transform="translate(-13.611 -21.201)" fill="#e8505b"/>
                  <path id="Trazado_875295" data-name="Trazado 875295" d="M107.981,149.063a9.688,9.688,0,0,1-3.9-.3,9.648,9.648,0,0,1,3.9.3" transform="translate(-14.915 -21.303)" fill="#e8505b"/>
                  <path id="Trazado_875296" data-name="Trazado 875296" d="M117.083,149.776a4.94,4.94,0,0,1-1.965.046,4.994,4.994,0,0,1-1.934-.35,9.627,9.627,0,0,1,3.9.3" transform="translate(-16.22 -21.406)" fill="#e8505b"/>
                  <path id="Trazado_875297" data-name="Trazado 875297" d="M126.185,150.488a9.688,9.688,0,0,1-3.9-.3,9.648,9.648,0,0,1,3.9.3" transform="translate(-17.524 -21.508)" fill="#e8505b"/>
                  <path id="Trazado_875298" data-name="Trazado 875298" d="M133.3,151.039c-.009.11-.444.165-.972.124s-.949-.164-.941-.274.444-.165.971-.124.949.164.941.274" transform="translate(-18.828 -21.603)" fill="#e8505b"/>
                  <path id="Trazado_875299" data-name="Trazado 875299" d="M130.606,33.97A33.781,33.781,0,1,1,96.824.189,33.781,33.781,0,0,1,130.606,33.97" transform="translate(-9.034 -0.027)" fill="#fff" fill-rule="evenodd"/>
                  <path id="Trazado_875300" data-name="Trazado 875300" d="M130.572,33.943s-.023-.185-.048-.547-.057-.908-.1-1.6q-.031-.531-.069-1.181c-.045-.433-.137-.9-.212-1.411s-.168-1.058-.26-1.644a18.4,18.4,0,0,0-.44-1.843A32.177,32.177,0,0,0,125.7,16.75,33.57,33.57,0,0,0,117.144,7.2L115.69,6.12c-.511-.335-1.049-.642-1.581-.97-.543-.308-1.058-.685-1.641-.948l-1.746-.837-.888-.421L108.9,2.6l-1.892-.69c-.643-.212-1.316-.35-1.981-.53A17.126,17.126,0,0,0,103,.924a31.34,31.34,0,0,0-4.25-.492C98.02.407,97.29.336,96.555.348L94.331.463c-.373.026-.75.023-1.122.073L92.088.708c-.748.123-1.509.211-2.261.367a35.444,35.444,0,0,0-4.48,1.315,34.878,34.878,0,0,0-4.381,1.925c-.709.385-1.39.833-2.092,1.249-.344.22-.711.408-1.038.656l-.989.74A37.942,37.942,0,0,0,73.037,10.2l-1.707,1.88-.429.473-.386.511-.769,1.029-.773,1.034L68.3,16.23l-.675,1.112-.339.558L67,18.488l-1.14,2.368q-.454,1.24-.912,2.488A35.9,35.9,0,0,0,63.21,33.938a35.889,35.889,0,0,0,1.731,10.6q.456,1.249.911,2.488l1.141,2.37.286.588.339.558.675,1.113.677,1.105.772,1.034.769,1.029.386.511.43.473,1.707,1.88a37.729,37.729,0,0,0,3.811,3.239l.989.741c.327.248.694.436,1.038.656.7.416,1.383.864,2.092,1.25A35.145,35.145,0,0,0,85.347,65.5a35.594,35.594,0,0,0,4.481,1.314c.752.156,1.513.243,2.261.368l1.121.172c.373.049.75.046,1.123.072l2.224.115c.736.012,1.466-.059,2.191-.084a31.34,31.34,0,0,0,4.25-.493,16.92,16.92,0,0,0,2.035-.461c.666-.181,1.338-.317,1.981-.53l1.892-.69.932-.339.888-.421,1.746-.838c.582-.264,1.1-.639,1.64-.948.532-.328,1.071-.635,1.581-.97l1.454-1.084a33.571,33.571,0,0,0,8.557-9.546,32.209,32.209,0,0,0,3.738-8.964,18.1,18.1,0,0,0,.44-1.842q.139-.879.26-1.644c.075-.51.168-.978.212-1.411q.039-.65.069-1.181.066-1.043.1-1.6c.025-.362.048-.547.048-.547s0,.185-.007.547-.035.91-.062,1.608q-.023.532-.051,1.185c-.039.434-.125.906-.194,1.418l-.242,1.653a18.107,18.107,0,0,1-.425,1.854,32.048,32.048,0,0,1-3.7,9.041,33.684,33.684,0,0,1-8.577,9.657L115.855,62c-.514.34-1.055.651-1.592.984-.547.314-1.065.693-1.652.962l-1.759.851-.894.428-.941.345-1.908.7c-.649.217-1.327.357-2,.541a17.423,17.423,0,0,1-2.054.471,31.521,31.521,0,0,1-4.291.507c-.732.027-1.469.1-2.213.09l-2.247-.111c-.377-.025-.757-.022-1.135-.071l-1.133-.171c-.756-.123-1.525-.212-2.286-.368A37.1,37.1,0,0,1,80.788,63.9c-.718-.388-1.407-.84-2.118-1.261-.348-.222-.719-.411-1.05-.662l-1-.748a38.171,38.171,0,0,1-3.858-3.272q-.86-.947-1.729-1.9l-.435-.478-.391-.517-.779-1.04-.782-1.046-.684-1.117-.685-1.126-.343-.565-.29-.595-1.156-2.4q-.46-1.254-.924-2.518a36.245,36.245,0,0,1-1.753-10.724,36.224,36.224,0,0,1,1.755-10.721q.464-1.262.924-2.516.58-1.2,1.155-2.4l.291-.594.343-.565.684-1.125.685-1.117.782-1.045.779-1.041L70.6,12.3l.435-.478,1.729-1.9A38.153,38.153,0,0,1,76.62,6.654l1-.748c.332-.25.7-.44,1.051-.662.71-.421,1.4-.872,2.117-1.26a35.325,35.325,0,0,1,4.433-1.94A35.822,35.822,0,0,1,89.752.722c.761-.156,1.53-.243,2.286-.368L93.171.183c.377-.049.758-.046,1.134-.071L96.552,0c.744-.009,1.481.063,2.213.09A31.522,31.522,0,0,1,103.056.6a17.251,17.251,0,0,1,2.053.47c.672.184,1.35.326,2,.541l1.909.7.94.345.9.427,1.759.851c.587.269,1.105.649,1.652.963.535.332,1.077.644,1.591.983l1.463,1.1a33.67,33.67,0,0,1,8.577,9.656,32.068,32.068,0,0,1,3.7,9.041,18.142,18.142,0,0,1,.424,1.854q.13.884.243,1.654c.069.512.156.983.194,1.418q.028.653.051,1.186.04,1.046.062,1.608c.011.362.007.547.007.547" transform="translate(-9.001 0)" fill="#e8505b"/>
                  <path id="Trazado_875301" data-name="Trazado 875301" d="M103.592,25.141a.962.962,0,0,1,.312-.067,3.854,3.854,0,0,1,.915-.02,4.928,4.928,0,0,1,3.034,1.395,5.091,5.091,0,0,1-.025,7.292,5.1,5.1,0,0,1-6.026.818,5.092,5.092,0,0,1-1.967-7.023,4.927,4.927,0,0,1,2.552-2.152,3.834,3.834,0,0,1,.888-.224.955.955,0,0,1,.318-.019c.008.042-.433.086-1.147.388a4.937,4.937,0,0,0-2.365,2.147,4.819,4.819,0,0,0-.039,4.579,4.718,4.718,0,0,0,1.948,1.96,4.741,4.741,0,0,0,5.567-.756,4.716,4.716,0,0,0,1.354-2.408,4.814,4.814,0,0,0-1.257-4.4,4.929,4.929,0,0,0-2.851-1.439c-.769-.1-1.206-.026-1.21-.069" transform="translate(-14.208 -3.588)" fill="#263238"/>
                  <path id="Trazado_875302" data-name="Trazado 875302" d="M103.934,17.3a.731.731,0,0,1-.074-.155c-.051-.127-.117-.287-.2-.487q-.272-.693-.763-1.946l.068.04-4.565.658.087-.092c-.069.842-.146,1.778-.229,2.777l-.006.07-.066.028a11.232,11.232,0,0,0-2.562,1.51l-.063.048-.073-.033-2.542-1.146.172-.044-2.782,3.68,0-.2,1.8,2.132.064.076-.038.093a11.157,11.157,0,0,0-.75,2.867l-.012.1-.1.037-2.609.981.114-.191c.2,1.436.41,2.984.629,4.57l-.168-.16,2.776.241.115.01.045.106a11.211,11.211,0,0,0,1.492,2.552l.072.092-.048.107c-.362.8-.756,1.662-1.155,2.538l-.06-.237,3.673,2.792-.248.006,2.137-1.792.093-.077.112.046a11.111,11.111,0,0,0,2.854.753h0l.163.129v0l0,.005,0,.01.008.021.015.041.031.082.062.164.123.329.244.655q.244.653.487,1.3l-.214-.128,4.572-.619-.17.178q.125-1.4.246-2.776l.011-.119.109-.045a11.1,11.1,0,0,0,2.556-1.486l.093-.072.106.049,2.536,1.159-.23.058,2.8-3.667.005.23-1.787-2.141-.069-.083.041-.1a11.136,11.136,0,0,0,.762-2.861l.013-.1.1-.036,2.613-.97-.106.178-.607-4.573.138.132-2.776-.254-.087-.008-.033-.08a11.176,11.176,0,0,0-1.486-2.573l-.049-.064.033-.071,1.169-2.532.036.143-3.654-2.817.111,0-2.153,1.772-.03.025-.036-.015a11.827,11.827,0,0,0-2.153-.678l-.549-.109a.787.787,0,0,1-.181-.041,1.024,1.024,0,0,1,.187.008c.123.014.308.034.556.077a10.8,10.8,0,0,1,2.189.624l-.065.01c.581-.5,1.276-1.09,2.12-1.81l.054-.046.058.044,3.688,2.771.075.057-.039.087-1.145,2.543-.016-.135a11.415,11.415,0,0,1,1.544,2.623l-.119-.087,2.777.235.121.01.017.122c.2,1.444.41,2.962.633,4.57l.018.131-.125.047-2.608.982.111-.14a11.462,11.462,0,0,1-.774,2.955l-.027-.183,1.794,2.134.1.112-.089.117-2.789,3.674-.092.121-.139-.063-2.538-1.154.2-.023a11.493,11.493,0,0,1-2.642,1.543l.12-.164q-.12,1.374-.242,2.777l-.014.157-.157.021-4.571.623-.158.021-.056-.15q-.243-.648-.487-1.3l-.245-.655-.123-.328-.062-.164-.031-.082-.015-.041-.008-.021,0-.01,0-.005v0l.161.128h0a11.532,11.532,0,0,1-2.956-.781l.2-.032-2.137,1.79-.122.1-.127-.1-3.668-2.8-.125-.1.065-.142L93.36,35.47l.023.2a11.526,11.526,0,0,1-1.537-2.644l.158.117-2.776-.249-.148-.013-.02-.147c-.212-1.587-.42-3.136-.613-4.572l-.019-.141.134-.05L91.175,27l-.111.14a11.506,11.506,0,0,1,.786-2.95l.027.17-1.785-2.143-.081-.1.076-.1q1.475-1.928,2.8-3.662l.069-.091.1.047L95.6,19.482l-.135.016a11.418,11.418,0,0,1,2.634-1.52l-.072.1c.093-1,.182-1.933.26-2.775l.008-.081.08-.01,4.576-.583L103,14.62l.017.048q.446,1.253.691,1.945l.173.507a1.073,1.073,0,0,1,.052.181" transform="translate(-12.672 -2.095)" fill="#263238"/>
                  <path id="Trazado_875303" data-name="Trazado 875303" d="M95.665,49.191a6.244,6.244,0,0,1,1.6.424l1.18-.989,2.026,1.542-.638,1.4A6.224,6.224,0,0,1,100.673,53l1.533.135.342,2.523-1.441.538a6.207,6.207,0,0,1-.424,1.605l.989,1.18-1.542,2.025-1.4-.638a6.224,6.224,0,0,1-1.434.836L97.16,62.74l-2.523.343L94.1,61.641a6.241,6.241,0,0,1-1.605-.424l-1.18.989-2.026-1.542.639-1.4a6.225,6.225,0,0,1-.836-1.434l-1.533-.134-.342-2.523,1.441-.539a6.242,6.242,0,0,1,.423-1.6l-.988-1.18,1.541-2.026,1.4.638a6.286,6.286,0,0,1,1.434-.836l.134-1.532,2.523-.343Zm-1.036,3.5a2.732,2.732,0,1,0,3.074,2.34,2.732,2.732,0,0,0-3.074-2.34" transform="translate(-12.498 -6.843)" fill="#e8505b" fill-rule="evenodd"/>
                  <path id="Trazado_875304" data-name="Trazado 875304" d="M129.854,198.1c-.074-.082.5-.723,1.293-1.431s1.486-1.217,1.559-1.134-.5.722-1.293,1.431-1.486,1.217-1.559,1.134" transform="translate(-18.608 -28.02)" fill="#e8505b"/>
                  <path id="Trazado_875305" data-name="Trazado 875305" d="M123.2,204.091c-.074-.082.5-.723,1.293-1.431s1.486-1.217,1.559-1.134-.5.722-1.293,1.431-1.486,1.217-1.559,1.134" transform="translate(-17.653 -28.878)" fill="#e8505b"/>
                  <path id="Trazado_875306" data-name="Trazado 875306" d="M116.537,210.08c-.074-.082.5-.723,1.293-1.432s1.486-1.216,1.559-1.133-.5.722-1.293,1.431-1.486,1.217-1.559,1.134" transform="translate(-16.699 -29.736)" fill="#e8505b"/>
                  <path id="Trazado_875307" data-name="Trazado 875307" d="M109.879,216.069c-.075-.081.5-.722,1.292-1.431s1.486-1.216,1.559-1.133-.5.722-1.292,1.431-1.486,1.217-1.559,1.133" transform="translate(-15.745 -30.595)" fill="#e8505b"/>
                  <path id="Trazado_875308" data-name="Trazado 875308" d="M103.22,222.057c-.074-.082.5-.723,1.293-1.432s1.486-1.216,1.559-1.133-.5.722-1.293,1.431-1.486,1.217-1.559,1.134" transform="translate(-14.791 -31.453)" fill="#e8505b"/>
                  <path id="Trazado_875309" data-name="Trazado 875309" d="M107.227,248.8A33.781,33.781,0,1,1,73.445,215.02,33.781,33.781,0,0,1,107.227,248.8" transform="translate(-5.684 -30.813)" fill="#fff" fill-rule="evenodd"/>
                  <path id="Trazado_875310" data-name="Trazado 875310" d="M107.193,248.774s-.023-.185-.048-.547-.057-.908-.1-1.6q-.031-.531-.069-1.181c-.045-.433-.137-.9-.212-1.411s-.168-1.058-.26-1.644a18.4,18.4,0,0,0-.44-1.843,32.193,32.193,0,0,0-3.739-8.964,33.579,33.579,0,0,0-8.557-9.545l-1.455-1.084c-.511-.335-1.049-.642-1.581-.97-.543-.308-1.058-.684-1.641-.948l-1.746-.837-.888-.422-.933-.339-1.892-.69c-.643-.212-1.316-.35-1.981-.53a17.125,17.125,0,0,0-2.035-.461,31.355,31.355,0,0,0-4.25-.492c-.725-.025-1.455-.1-2.191-.084l-2.224.115c-.373.026-.75.023-1.122.073l-1.121.172c-.748.123-1.509.211-2.261.367a35.447,35.447,0,0,0-4.48,1.315,34.877,34.877,0,0,0-4.381,1.925c-.71.385-1.39.833-2.092,1.249-.344.22-.711.408-1.038.656l-.989.74a37.945,37.945,0,0,0-3.811,3.238l-1.707,1.88-.429.473-.386.511-.768,1.029-.773,1.034-.676,1.105-.675,1.112-.339.558-.287.588q-.568,1.18-1.14,2.368-.454,1.24-.912,2.488a33.279,33.279,0,0,0,0,21.194q.456,1.249.911,2.488l1.141,2.37.286.588.339.558.675,1.113.677,1.105.772,1.034.769,1.029.386.511.43.473,1.707,1.88a37.731,37.731,0,0,0,3.811,3.239l.989.741c.327.248.694.436,1.038.656.7.416,1.383.864,2.092,1.25a35.143,35.143,0,0,0,4.382,1.926,35.554,35.554,0,0,0,4.481,1.314c.752.156,1.513.243,2.261.368l1.121.172c.373.049.75.046,1.123.072l2.224.116c.736.01,1.466-.06,2.191-.085a31.349,31.349,0,0,0,4.25-.493,16.916,16.916,0,0,0,2.035-.461c.666-.181,1.338-.317,1.981-.53l1.892-.69.932-.339.888-.421,1.746-.837c.582-.265,1.1-.64,1.64-.949.532-.328,1.071-.635,1.581-.97l1.454-1.084a33.571,33.571,0,0,0,8.557-9.546A32.209,32.209,0,0,0,106.062,257a18.1,18.1,0,0,0,.44-1.842q.139-.879.26-1.644c.075-.51.168-.978.212-1.411q.039-.65.069-1.181.066-1.043.1-1.6c.025-.362.048-.547.048-.547s0,.185-.007.547-.035.91-.062,1.608q-.023.532-.051,1.185c-.039.434-.125.906-.194,1.418l-.242,1.653a18.111,18.111,0,0,1-.425,1.854,32.048,32.048,0,0,1-3.7,9.041,33.684,33.684,0,0,1-8.577,9.657l-1.462,1.1c-.514.34-1.055.651-1.592.984-.547.314-1.065.693-1.652.962l-1.759.851-.894.428-.941.345-1.908.7c-.649.217-1.327.357-2,.541a17.427,17.427,0,0,1-2.054.471,31.527,31.527,0,0,1-4.291.507c-.732.027-1.469.1-2.213.09l-2.247-.111c-.377-.025-.757-.022-1.135-.071l-1.133-.171c-.756-.123-1.525-.212-2.286-.367a37,37,0,0,1-8.965-3.261c-.718-.388-1.407-.84-2.118-1.261-.348-.222-.719-.411-1.05-.662l-1-.748a38.168,38.168,0,0,1-3.858-3.272l-1.729-1.9-.435-.478-.391-.517-.779-1.04-.782-1.046-.685-1.117-.684-1.126L43.554,265l-.291-.595-1.155-2.4q-.46-1.254-.924-2.518a33.649,33.649,0,0,1,0-21.445q.464-1.262.924-2.516.58-1.2,1.155-2.4l.291-.594.343-.565.684-1.125.685-1.117.782-1.045.779-1.04.391-.517.434-.478,1.73-1.9a38.157,38.157,0,0,1,3.857-3.271l1-.748c.332-.25.7-.44,1.051-.662.71-.421,1.4-.872,2.117-1.26a35.32,35.32,0,0,1,4.433-1.94,35.819,35.819,0,0,1,4.531-1.321c.761-.156,1.53-.243,2.286-.368l1.133-.171c.377-.049.758-.046,1.134-.071l2.247-.111c.744-.009,1.481.063,2.213.09a31.522,31.522,0,0,1,4.291.507,17.247,17.247,0,0,1,2.054.47c.672.184,1.35.326,2,.541l1.909.7.94.345.9.427,1.759.851c.587.269,1.105.649,1.652.963.535.332,1.077.644,1.591.983l1.463,1.1a33.67,33.67,0,0,1,8.577,9.656,32.068,32.068,0,0,1,3.7,9.041,18.147,18.147,0,0,1,.424,1.854q.13.884.243,1.654c.069.512.156.983.194,1.418q.028.653.051,1.186.04,1.046.062,1.608c.011.362.007.547.007.547" transform="translate(-5.651 -30.786)" fill="#e8505b"/>
                  <path id="Trazado_875311" data-name="Trazado 875311" d="M93.209,267a3.748,3.748,0,0,1-.651.043l-1.868.04-6.872.069-22.671.063H59.315V267c.026-8.468.049-16.062.066-21.592.028-2.711.051-4.914.067-6.487.016-.732.029-1.318.039-1.759a3.442,3.442,0,0,1,.041-.612,3.377,3.377,0,0,1,.042.612c.01.441.023,1.026.039,1.759.016,1.573.039,3.775.067,6.487.016,5.53.04,13.124.066,21.592l-.213-.213h1.616l22.671.063,6.872.069,1.868.04a3.751,3.751,0,0,1,.651.043" transform="translate(-8.5 -33.899)" fill="#263238"/>
                  <path id="Trazado_875312" data-name="Trazado 875312" d="M90.027,245.179a8.7,8.7,0,0,1-1,.96l-2.843,2.5c-2.412,2.094-5.766,4.963-9.485,8.112l-.563.477-.145.123-.139-.129c-1.487-1.381-2.907-2.7-4.218-3.92l.263.007-6.2,5.109-1.8,1.438a4.021,4.021,0,0,1-.672.481,3.927,3.927,0,0,1,.589-.58l1.725-1.525,6.1-5.228.133-.114.13.121,4.239,3.9-.284-.006.564-.477c3.72-3.149,7.1-5.982,9.566-8.016l2.931-2.393a8.645,8.645,0,0,1,1.113-.833" transform="translate(-9.06 -35.135)" fill="#263238"/>
                  <path id="Trazado_875313" data-name="Trazado 875313" d="M93.18,252.171a10.571,10.571,0,0,1-.148-2.1c-.038-1.3-.063-3.108-.065-5.12l.213.213h-.364c-2.095,0-3.991-.024-5.364-.062a11.512,11.512,0,0,1-2.222-.151,11.461,11.461,0,0,1,2.222-.152c1.372-.039,3.269-.063,5.364-.063h.578v.214c0,2.012-.027,3.817-.066,5.12a10.54,10.54,0,0,1-.147,2.1" transform="translate(-12.214 -35.071)" fill="#263238"/>
                  <path id="Trazado_875314" data-name="Trazado 875314" d="M67.795,138.364a33.781,33.781,0,1,1-33.781-33.781,33.781,33.781,0,0,1,33.781,33.781" transform="translate(-0.033 -14.987)" fill="#fff" fill-rule="evenodd"/>
                  <path id="Trazado_875315" data-name="Trazado 875315" d="M67.761,138.337s-.023-.185-.048-.547-.057-.908-.1-1.6q-.031-.531-.069-1.181c-.045-.433-.137-.9-.212-1.411s-.168-1.058-.26-1.644a18.637,18.637,0,0,0-.44-1.843,32.219,32.219,0,0,0-3.739-8.964,33.579,33.579,0,0,0-8.557-9.545l-1.455-1.084c-.511-.335-1.049-.642-1.581-.97-.543-.308-1.058-.684-1.641-.948l-1.746-.837-.888-.421L46.091,107l-1.892-.69c-.643-.212-1.316-.35-1.981-.53a17.127,17.127,0,0,0-2.035-.461,31.356,31.356,0,0,0-4.25-.492c-.725-.025-1.455-.1-2.191-.084l-2.224.115c-.373.026-.75.023-1.122.073l-1.121.172c-.748.123-1.509.211-2.261.367a35.584,35.584,0,0,0-4.48,1.314,34.885,34.885,0,0,0-4.381,1.926c-.71.385-1.39.833-2.092,1.249-.344.22-.711.408-1.038.656l-.989.74a37.946,37.946,0,0,0-3.811,3.238l-1.707,1.88-.429.473-.386.511-.768,1.029-.773,1.034-.676,1.105-.675,1.112-.339.558-.287.588-1.14,2.368-.912,2.488a33.279,33.279,0,0,0,0,21.194q.456,1.249.911,2.488l1.141,2.37.286.588.339.558.675,1.113.677,1.105.772,1.034.769,1.029.386.511.429.473,1.708,1.88a37.729,37.729,0,0,0,3.811,3.239l.989.741c.327.248.694.436,1.038.656.7.416,1.383.864,2.092,1.25a35.017,35.017,0,0,0,4.382,1.925,35.42,35.42,0,0,0,4.481,1.315c.752.156,1.513.243,2.261.368l1.121.172c.373.049.75.046,1.122.072l2.225.115c.736.011,1.466-.059,2.191-.084a31.356,31.356,0,0,0,4.25-.493,16.922,16.922,0,0,0,2.035-.461c.666-.181,1.338-.317,1.981-.53l1.892-.69.932-.339.888-.421,1.746-.838c.582-.264,1.1-.639,1.64-.948.532-.328,1.071-.635,1.581-.97l1.454-1.084a33.571,33.571,0,0,0,8.557-9.546,32.209,32.209,0,0,0,3.738-8.964,18.1,18.1,0,0,0,.44-1.842q.139-.879.26-1.644c.075-.51.168-.978.212-1.411q.039-.65.069-1.181.066-1.043.1-1.6c.025-.362.048-.547.048-.547s0,.185-.007.547-.035.91-.062,1.608q-.023.532-.051,1.185c-.039.434-.125.906-.194,1.418s-.156,1.065-.243,1.653a17.934,17.934,0,0,1-.424,1.855,32.033,32.033,0,0,1-3.7,9.04,33.667,33.667,0,0,1-8.576,9.657l-1.462,1.1c-.514.34-1.055.651-1.592.984-.547.314-1.065.693-1.652.962l-1.759.851-.894.428-.941.345-1.908.7c-.649.217-1.327.357-2,.541a17.424,17.424,0,0,1-2.054.471,31.522,31.522,0,0,1-4.291.507c-.732.027-1.469.1-2.213.09l-2.247-.111c-.377-.025-.757-.022-1.135-.071l-1.133-.171c-.756-.123-1.525-.212-2.286-.368a37.1,37.1,0,0,1-8.965-3.261c-.718-.388-1.407-.84-2.118-1.261-.348-.222-.719-.411-1.05-.662l-1-.748a38.071,38.071,0,0,1-3.858-3.273l-1.729-1.9-.435-.478-.391-.517-.779-1.04-.782-1.046-.685-1.117-.685-1.126-.343-.565-.291-.595-1.155-2.4q-.46-1.254-.924-2.518a33.649,33.649,0,0,1,0-21.445q.464-1.262.924-2.516.58-1.2,1.155-2.4l.291-.594.343-.565.684-1.125.685-1.117.782-1.045.779-1.04.391-.517.434-.478,1.729-1.9a38.256,38.256,0,0,1,3.858-3.271l1-.748c.332-.25.7-.44,1.05-.662.711-.421,1.4-.872,2.118-1.26a35.326,35.326,0,0,1,4.433-1.94,35.683,35.683,0,0,1,4.531-1.321c.761-.156,1.529-.243,2.286-.368l1.133-.171c.377-.049.758-.046,1.134-.071l2.247-.111c.744-.01,1.481.063,2.213.09a31.522,31.522,0,0,1,4.291.507,17.25,17.25,0,0,1,2.054.47c.671.184,1.349.326,2,.541l1.909.7.94.345.9.427,1.759.851c.587.269,1.105.649,1.652.963.535.332,1.077.644,1.591.983l1.463,1.1a33.67,33.67,0,0,1,8.577,9.656,32.068,32.068,0,0,1,3.7,9.041,18.143,18.143,0,0,1,.424,1.854q.13.884.243,1.654c.069.512.156.983.194,1.418q.028.653.051,1.186.04,1.046.062,1.608c.011.362.007.547.007.547" transform="translate(0 -14.96)" fill="#e8505b"/>
                  <path id="Trazado_875316" data-name="Trazado 875316" d="M38.164,126.779l3.66,7.416a.953.953,0,0,0,.716.521l8.184,1.189a.951.951,0,0,1,.528,1.623L45.33,143.3a.953.953,0,0,0-.273.842l1.4,8.151a.951.951,0,0,1-1.381,1l-7.32-3.848a.953.953,0,0,0-.886,0l-7.32,3.848a.951.951,0,0,1-1.38-1l1.4-8.151a.953.953,0,0,0-.274-.842l-5.921-5.772A.951.951,0,0,1,23.9,135.9l8.184-1.189a.952.952,0,0,0,.716-.521l3.66-7.416a.952.952,0,0,1,1.707,0" transform="translate(-3.308 -18.092)" fill="#fafafa"/>
                  <path id="Trazado_875317" data-name="Trazado 875317" d="M38.137,126.772c-.012.007-.043-.076-.156-.2a.924.924,0,0,0-1.534.3c-.207.433-.445.93-.712,1.484l-1.966,4.062-.6,1.227-.318.649a1.081,1.081,0,0,1-.637.508c-1.017.174-2.037.312-3.139.481l-3.438.513-1.814.275a.79.79,0,0,0-.431,1.258c1.864,1.811,3.853,3.745,5.947,5.781a1.179,1.179,0,0,1,.361,1.166q-.093.547-.187,1.1-.189,1.109-.381,2.242-.387,2.266-.788,4.624a.76.76,0,0,0,.332.84.734.734,0,0,0,.455.115,1.22,1.22,0,0,0,.487-.186l2.167-1.141,4.429-2.329.566-.3a1.144,1.144,0,0,1,.744-.089,2.756,2.756,0,0,1,.621.279l.554.291,2.2,1.157,4.289,2.254a.748.748,0,0,0,.862-.192.72.72,0,0,0,.188-.42,2.253,2.253,0,0,0-.061-.53q-.2-1.157-.39-2.29-.386-2.266-.754-4.433-.093-.541-.182-1.076a1.173,1.173,0,0,1,.41-1.12l1.515-1.47,2.9-2.81,1.378-1.336a.8.8,0,0,0-.1-1.318,2.833,2.833,0,0,0-.817-.176l-.87-.129-1.681-.251-3.124-.469-1.437-.217a7.071,7.071,0,0,1-.7-.122,1.067,1.067,0,0,1-.575-.457c-.768-1.58-1.43-2.944-1.976-4.068-.524-1.1-.936-1.962-1.228-2.574l-.311-.674a1.2,1.2,0,0,1-.093-.236,1.227,1.227,0,0,1,.13.218l.346.656,1.3,2.541,2.027,4.02a.834.834,0,0,0,.457.355c.182.051.442.069.665.105l1.439.2,3.128.44,1.683.238.87.123a2.94,2.94,0,0,1,.924.206,1.1,1.1,0,0,1,.561.856,1.127,1.127,0,0,1-.385.961l-1.37,1.343-2.884,2.824-1.508,1.477a.8.8,0,0,0-.3.8l.187,1.074q.374,2.165.767,4.432.2,1.133.395,2.289a2.487,2.487,0,0,1,.066.635,1.11,1.11,0,0,1-.284.64,1.138,1.138,0,0,1-1.307.291l-4.319-2.261-2.2-1.157-.555-.291a2.56,2.56,0,0,0-.519-.242.743.743,0,0,0-.486.058l-.554.29-4.43,2.328L29.8,153.363a1.594,1.594,0,0,1-.64.23,1.129,1.129,0,0,1-.695-.175,1.158,1.158,0,0,1-.509-1.24q.406-2.356.8-4.622.2-1.133.387-2.241.1-.554.191-1.1a.8.8,0,0,0-.252-.839l-5.947-5.837a1.113,1.113,0,0,1-.18-1.07,1.094,1.094,0,0,1,.8-.708l1.842-.268L29.038,135l3.109-.445a.831.831,0,0,0,.492-.385l.319-.633q.315-.631.611-1.221c.787-1.565,1.467-2.917,2.028-4.032l.744-1.468a1.006,1.006,0,0,1,1.01-.615.942.942,0,0,1,.661.344.6.6,0,0,1,.125.223" transform="translate(-3.281 -18.085)" fill="#263238"/>
                  <path id="Trazado_875318" data-name="Trazado 875318" d="M67.795,138.364a33.781,33.781,0,1,1-33.781-33.781,33.781,33.781,0,0,1,33.781,33.781" transform="translate(-0.033 -14.987)" fill="#fff" fill-rule="evenodd"/>
                  <path id="Trazado_875319" data-name="Trazado 875319" d="M67.761,138.337s-.023-.185-.048-.547-.057-.908-.1-1.6q-.031-.531-.069-1.181c-.045-.433-.137-.9-.212-1.411s-.168-1.058-.26-1.644a18.637,18.637,0,0,0-.44-1.843,32.219,32.219,0,0,0-3.739-8.964,33.579,33.579,0,0,0-8.557-9.545l-1.455-1.084c-.511-.335-1.049-.642-1.581-.97-.543-.308-1.058-.684-1.641-.948l-1.746-.837-.888-.421L46.091,107l-1.892-.69c-.643-.212-1.316-.35-1.981-.53a17.127,17.127,0,0,0-2.035-.461,31.356,31.356,0,0,0-4.25-.492c-.725-.025-1.455-.1-2.191-.084l-2.224.115c-.373.026-.75.023-1.122.073l-1.121.172c-.748.123-1.509.211-2.261.367a35.584,35.584,0,0,0-4.48,1.314,34.885,34.885,0,0,0-4.381,1.926c-.71.385-1.39.833-2.092,1.249-.344.22-.711.408-1.038.656l-.989.74a37.946,37.946,0,0,0-3.811,3.238l-1.707,1.88-.429.473-.386.511-.768,1.029-.773,1.034-.676,1.105-.675,1.112-.339.558-.287.588-1.14,2.368-.912,2.488a33.279,33.279,0,0,0,0,21.194q.456,1.249.911,2.488l1.141,2.37.286.588.339.558.675,1.113.677,1.105.772,1.034.769,1.029.386.511.429.473,1.708,1.88a37.729,37.729,0,0,0,3.811,3.239l.989.741c.327.248.694.436,1.038.656.7.416,1.383.864,2.092,1.25a35.017,35.017,0,0,0,4.382,1.925,35.42,35.42,0,0,0,4.481,1.315c.752.156,1.513.243,2.261.368l1.121.172c.373.049.75.046,1.122.072l2.225.115c.736.011,1.466-.059,2.191-.084a31.356,31.356,0,0,0,4.25-.493,16.922,16.922,0,0,0,2.035-.461c.666-.181,1.338-.317,1.981-.53l1.892-.69.932-.339.888-.421,1.746-.838c.582-.264,1.1-.639,1.64-.948.532-.328,1.071-.635,1.581-.97l1.454-1.084a33.571,33.571,0,0,0,8.557-9.546,32.209,32.209,0,0,0,3.738-8.964,18.1,18.1,0,0,0,.44-1.842q.139-.879.26-1.644c.075-.51.168-.978.212-1.411q.039-.65.069-1.181.066-1.043.1-1.6c.025-.362.048-.547.048-.547s0,.185-.007.547-.035.91-.062,1.608q-.023.532-.051,1.185c-.039.434-.125.906-.194,1.418s-.156,1.065-.243,1.653a17.934,17.934,0,0,1-.424,1.855,32.033,32.033,0,0,1-3.7,9.04,33.667,33.667,0,0,1-8.576,9.657l-1.462,1.1c-.514.34-1.055.651-1.592.984-.547.314-1.065.693-1.652.962l-1.759.851-.894.428-.941.345-1.908.7c-.649.217-1.327.357-2,.541a17.424,17.424,0,0,1-2.054.471,31.522,31.522,0,0,1-4.291.507c-.732.027-1.469.1-2.213.09l-2.247-.111c-.377-.025-.757-.022-1.135-.071l-1.133-.171c-.756-.123-1.525-.212-2.286-.368a37.1,37.1,0,0,1-8.965-3.261c-.718-.388-1.407-.84-2.118-1.261-.348-.222-.719-.411-1.05-.662l-1-.748a38.071,38.071,0,0,1-3.858-3.273l-1.729-1.9-.435-.478-.391-.517-.779-1.04-.782-1.046-.685-1.117-.685-1.126-.343-.565-.291-.595-1.155-2.4q-.46-1.254-.924-2.518a33.649,33.649,0,0,1,0-21.445q.464-1.262.924-2.516.58-1.2,1.155-2.4l.291-.594.343-.565.684-1.125.685-1.117.782-1.045.779-1.04.391-.517.434-.478,1.729-1.9a38.256,38.256,0,0,1,3.858-3.271l1-.748c.332-.25.7-.44,1.05-.662.711-.421,1.4-.872,2.118-1.26a35.326,35.326,0,0,1,4.433-1.94,35.683,35.683,0,0,1,4.531-1.321c.761-.156,1.529-.243,2.286-.368l1.133-.171c.377-.049.758-.046,1.134-.071l2.247-.111c.744-.01,1.481.063,2.213.09a31.522,31.522,0,0,1,4.291.507,17.25,17.25,0,0,1,2.054.47c.671.184,1.349.326,2,.541l1.909.7.94.345.9.427,1.759.851c.587.269,1.105.649,1.652.963.535.332,1.077.644,1.591.983l1.463,1.1a33.67,33.67,0,0,1,8.577,9.656,32.068,32.068,0,0,1,3.7,9.041,18.143,18.143,0,0,1,.424,1.854q.13.884.243,1.654c.069.512.156.983.194,1.418q.028.653.051,1.186.04,1.046.062,1.608c.011.362.007.547.007.547" transform="translate(0 -14.96)" fill="#e8505b"/>
                  <path id="Trazado_875320" data-name="Trazado 875320" d="M38.164,126.779l3.66,7.416a.953.953,0,0,0,.716.521l8.184,1.189a.951.951,0,0,1,.528,1.623L45.33,143.3a.953.953,0,0,0-.273.842l1.4,8.151a.951.951,0,0,1-1.381,1l-7.32-3.848a.953.953,0,0,0-.886,0l-7.32,3.848a.951.951,0,0,1-1.38-1l1.4-8.151a.953.953,0,0,0-.274-.842l-5.921-5.772A.951.951,0,0,1,23.9,135.9l8.184-1.189a.952.952,0,0,0,.716-.521l3.66-7.416a.952.952,0,0,1,1.707,0" transform="translate(-3.308 -18.092)" fill="#fafafa"/>
                  <path id="Trazado_875321" data-name="Trazado 875321" d="M38.137,126.772c-.012.007-.043-.076-.156-.2a.924.924,0,0,0-1.534.3c-.207.433-.445.93-.712,1.484l-1.966,4.062-.6,1.227-.318.649a1.081,1.081,0,0,1-.637.508c-1.017.174-2.037.312-3.139.481l-3.438.513-1.814.275a.79.79,0,0,0-.431,1.258c1.864,1.811,3.853,3.745,5.947,5.781a1.179,1.179,0,0,1,.361,1.166q-.093.547-.187,1.1-.189,1.109-.381,2.242-.387,2.266-.788,4.624a.76.76,0,0,0,.332.84.734.734,0,0,0,.455.115,1.22,1.22,0,0,0,.487-.186l2.167-1.141,4.429-2.329.566-.3a1.144,1.144,0,0,1,.744-.089,2.756,2.756,0,0,1,.621.279l.554.291,2.2,1.157,4.289,2.254a.748.748,0,0,0,.862-.192.72.72,0,0,0,.188-.42,2.253,2.253,0,0,0-.061-.53q-.2-1.157-.39-2.29-.386-2.266-.754-4.433-.093-.541-.182-1.076a1.173,1.173,0,0,1,.41-1.12l1.515-1.47,2.9-2.81,1.378-1.336a.8.8,0,0,0-.1-1.318,2.833,2.833,0,0,0-.817-.176l-.87-.129-1.681-.251-3.124-.469-1.437-.217a7.071,7.071,0,0,1-.7-.122,1.067,1.067,0,0,1-.575-.457c-.768-1.58-1.43-2.944-1.976-4.068-.524-1.1-.936-1.962-1.228-2.574l-.311-.674a1.2,1.2,0,0,1-.093-.236,1.227,1.227,0,0,1,.13.218l.346.656,1.3,2.541,2.027,4.02a.834.834,0,0,0,.457.355c.182.051.442.069.665.105l1.439.2,3.128.44,1.683.238.87.123a2.94,2.94,0,0,1,.924.206,1.1,1.1,0,0,1,.561.856,1.127,1.127,0,0,1-.385.961l-1.37,1.343-2.884,2.824-1.508,1.477a.8.8,0,0,0-.3.8l.187,1.074q.374,2.165.767,4.432.2,1.133.395,2.289a2.487,2.487,0,0,1,.066.635,1.11,1.11,0,0,1-.284.64,1.138,1.138,0,0,1-1.307.291l-4.319-2.261-2.2-1.157-.555-.291a2.56,2.56,0,0,0-.519-.242.743.743,0,0,0-.486.058l-.554.29-4.43,2.328L29.8,153.363a1.594,1.594,0,0,1-.64.23,1.129,1.129,0,0,1-.695-.175,1.158,1.158,0,0,1-.509-1.24q.406-2.356.8-4.622.2-1.133.387-2.241.1-.554.191-1.1a.8.8,0,0,0-.252-.839l-5.947-5.837a1.113,1.113,0,0,1-.18-1.07,1.094,1.094,0,0,1,.8-.708l1.842-.268L29.038,135l3.109-.445a.831.831,0,0,0,.492-.385l.319-.633q.315-.631.611-1.221c.787-1.565,1.467-2.917,2.028-4.032l.744-1.468a1.006,1.006,0,0,1,1.01-.615.942.942,0,0,1,.661.344.6.6,0,0,1,.125.223" transform="translate(-3.281 -18.085)" fill="#263238"/>
                </g>
              </g>
            </g>
          </g>
        </g>
      </g>
    </g>
  </g>
</svg>
