<svg xmlns="http://www.w3.org/2000/svg" width="58.594" height="70.313" viewBox="0 0 58.594 70.313">
  <g id="Grupo_1100657" data-name="Grupo 1100657" transform="translate(-706.172 -3660.983)">
    <g id="curso2-1-acord1.9b2dc0c6" transform="translate(705 3659.811)">
      <path id="Trazado_169033" data-name="Trazado 169033" d="M129.782,456H108.688A4.688,4.688,0,0,0,104,460.688h30.469A4.688,4.688,0,0,0,129.782,456Zm0,0" transform="translate(-88.765 -389.203)" fill="#1aacf1"/>
      <path id="Trazado_169034" data-name="Trazado 169034" d="M176,408h9.375v7.032H176Zm0,0" transform="translate(-150.218 -348.235)" fill="#53bced"/>
      <path id="Trazado_169035" data-name="Trazado 169035" d="M8,168H66.594v35.156H8Zm0,0" transform="translate(-6.828 -143.39)" fill="#ff725d"/>
      <path id="Trazado_169036" data-name="Trazado 169036" d="M40,8H89.219V61.907H40Zm0,0" transform="translate(-34.14 -6.828)" fill="#d2f1ff"/>
      <path id="Trazado_169038" data-name="Trazado 169038" d="M91.922,128,72,156.125h39.844Zm0,0" transform="translate(-61.453 -109.25)" fill="#ff725d"/>
      <path id="Trazado_169039" data-name="Trazado 169039" d="M40,8H89.219v9.375H40Zm0,0" transform="translate(-34.14 -6.828)" fill="#ff725d"/>
      <path id="Trazado_169045" data-name="Trazado 169045" d="M64,32h2.343v2.344H64Zm0,0" transform="translate(-54.625 -27.313)" fill="#afafaf"/>
      <path id="Trazado_169046" data-name="Trazado 169046" d="M96,32h2.343v2.344H96Zm0,0" transform="translate(-81.937 -27.313)" fill="#afafaf"/>
      <path id="Trazado_169047" data-name="Trazado 169047" d="M128,32h2.344v2.344H128Zm0,0" transform="translate(-109.25 -27.313)" fill="#afafaf"/>
      <path id="Trazado_169050" data-name="Trazado 169050" d="M200,280h2.343v2.343H200Zm0,0" transform="translate(-170.703 -238.985)" fill="#fff"/>
      <path id="Trazado_169051" data-name="Trazado 169051" d="M200,184h2.343v11.721H200Zm0,0" transform="translate(-170.703 -157.047)" fill="#fff"/>
    </g>
  </g>
</svg>
