<svg xmlns="http://www.w3.org/2000/svg" width="193" height="204" viewBox="0 0 193 204">
  <g id="Grupo_1100653" data-name="Grupo 1100653" transform="translate(-283.5 -2027.298)">
    <path id="Trazado_875544" data-name="Trazado 875544" d="M40,0H150a40,40,0,0,1,40,40V161a40,40,0,0,1-40,40H40A40,40,0,0,1,0,161V40A40,40,0,0,1,40,0Z" transform="translate(285 2028.798)" fill="none" stroke="#ff725d" stroke-width="3"/>
    <g id="Grupo_1100456" data-name="Grupo 1100456" transform="translate(307.346 2054.025)">
      <path id="Trazado_875174" data-name="Trazado 875174" d="M128.447,372.733H31.106a2.374,2.374,0,0,1-2.373-2.373V316.381h100.7a1.386,1.386,0,0,1,1.386,1.386V370.36A2.373,2.373,0,0,1,128.447,372.733Z" transform="translate(-20.456 -225.241)" fill="#d3d3d3"/>
      <path id="Trazado_875175" data-name="Trazado 875175" d="M120.764,403.11H91.879a1.794,1.794,0,0,1-1.794-1.794V375.425a1.794,1.794,0,0,1,1.794-1.794h28.885a1.794,1.794,0,0,1,1.794,1.794v25.891A1.794,1.794,0,0,1,120.764,403.11Z" transform="translate(-64.134 -265.999)" fill="#f6f6f6"/>
      <path id="Trazado_875176" data-name="Trazado 875176" d="M174.582,373.632h-8.9a1.794,1.794,0,0,1,1.794,1.794v25.891a1.794,1.794,0,0,1-1.794,1.794h8.9a1.794,1.794,0,0,0,1.794-1.794V375.426A1.794,1.794,0,0,0,174.582,373.632Z" transform="translate(-117.952 -265.999)" fill="#fff"/>
      <path id="Trazado_875177" data-name="Trazado 875177" d="M346.342,316.381V370.36a2.374,2.374,0,0,1-2.374,2.373h8.9a2.374,2.374,0,0,0,2.374-2.374V317.767a1.386,1.386,0,0,0-1.386-1.386Z" transform="translate(-244.881 -225.241)" fill="#abb4c0"/>
      <g id="Grupo_1100452" data-name="Grupo 1100452" transform="translate(0 59.803)">
        <path id="Trazado_875178" data-name="Trazado 875178" d="M112.7,223.384,4,251.059a1.77,1.77,0,0,1-2.2-1.46L.016,236.549A1.776,1.776,0,0,1,1.348,234.6l105.815-26.94a1.776,1.776,0,0,1,2.1,1.079l4.673,12.315A1.769,1.769,0,0,1,112.7,223.384Z" transform="translate(0 -207.6)" fill="#abb4c0"/>
        <path id="Trazado_875179" data-name="Trazado 875179" d="M357.456,221.049l-4.673-12.315a1.776,1.776,0,0,0-2.1-1.079l-8.628,2.2a1.776,1.776,0,0,1,2.1,1.079l4.673,12.315a1.77,1.77,0,0,1-1.235,2.335l8.628-2.2A1.77,1.77,0,0,0,357.456,221.049Z" transform="translate(-243.516 -207.599)" fill="#abb4c0"/>
      </g>
      <g id="Grupo_1100453" data-name="Grupo 1100453" transform="translate(68.86 108.027)">
        <path id="Trazado_875180" data-name="Trazado 875180" d="M241.2,379.323h6.37a2.161,2.161,0,0,0,0-4.321H241.2a2.161,2.161,0,0,0,0,4.321Z" transform="translate(-239.037 -375.002)" fill="#afafaf"/>
        <path id="Trazado_875181" data-name="Trazado 875181" d="M241.2,407.52h21.67a2.161,2.161,0,1,0,0-4.321H241.2a2.161,2.161,0,1,0,0,4.321Z" transform="translate(-239.037 -395.076)" fill="#afafaf"/>
        <path id="Trazado_875182" data-name="Trazado 875182" d="M262.868,431.4H241.2a2.161,2.161,0,1,0,0,4.321h21.67a2.161,2.161,0,1,0,0-4.321Z" transform="translate(-239.037 -415.15)" fill="#afafaf"/>
        <path id="Trazado_875183" data-name="Trazado 875183" d="M256.668,459.592H241.2a2.161,2.161,0,0,0,0,4.321h15.471a2.161,2.161,0,0,0,0-4.321Z" transform="translate(-239.037 -435.224)" fill="#afafaf"/>
      </g>
      <path id="Trazado_875184" data-name="Trazado 875184" d="M192.708,4.113V45.5a4.113,4.113,0,0,1-4.114,4.113H106.582a1.279,1.279,0,0,0-1.085.6L98.576,61.32a1.336,1.336,0,0,1-2.268,0L89.385,50.211a1.279,1.279,0,0,0-1.085-.6H67.624A4.113,4.113,0,0,1,63.511,45.5V4.118A4.118,4.118,0,0,1,67.629,0H188.595a4.113,4.113,0,0,1,4.113,4.113Z" transform="translate(-45.215 0)" fill="#f9f3f1"/>
      <g id="Grupo_1100454" data-name="Grupo 1100454" transform="translate(134.476)">
        <path id="Trazado_875185" data-name="Trazado 875185" d="M475.719,0h-8.9a4.113,4.113,0,0,1,4.113,4.113V45.5a4.113,4.113,0,0,1-4.112,4.113h8.9a4.114,4.114,0,0,0,4.114-4.113V4.113A4.114,4.114,0,0,0,475.719,0Z" transform="translate(-466.816)" fill="#f3eae6"/>
      </g>
      <path id="Trazado_875186" data-name="Trazado 875186" d="M409.8,67.776H389.863a2.491,2.491,0,0,1-2.492-2.492V45.352a2.491,2.491,0,0,1,2.492-2.492H409.8a2.491,2.491,0,0,1,2.492,2.492V65.284A2.491,2.491,0,0,1,409.8,67.776Z" transform="translate(-275.781 -30.513)" fill="#ff725d"/>
      <path id="Trazado_875187" data-name="Trazado 875187" d="M443.211,42.86h-8.9a2.491,2.491,0,0,1,2.492,2.492V65.284a2.491,2.491,0,0,1-2.492,2.492h8.9a2.491,2.491,0,0,0,2.492-2.492V45.352A2.491,2.491,0,0,0,443.211,42.86Z" transform="translate(-309.196 -30.513)" fill="#fd4755"/>
      <g id="Grupo_1100455" data-name="Grupo 1100455" transform="translate(27.236 9.836)">
        <path id="Trazado_875188" data-name="Trazado 875188" d="M228.693,38.467h9.074a2.161,2.161,0,0,0,0-4.321h-9.074a2.161,2.161,0,1,0,0,4.321Z" transform="translate(-188.51 -34.146)" fill="#afafaf"/>
        <path id="Trazado_875189" data-name="Trazado 875189" d="M246.841,120.338H228.693a2.161,2.161,0,1,0,0,4.321h18.149a2.161,2.161,0,1,0,0-4.321Z" transform="translate(-188.51 -95.509)" fill="#afafaf"/>
        <path id="Trazado_875190" data-name="Trazado 875190" d="M260.362,92.064H228.693a2.161,2.161,0,1,0,0,4.321h31.669a2.161,2.161,0,1,0,0-4.321Z" transform="translate(-188.51 -75.379)" fill="#afafaf"/>
        <path id="Trazado_875191" data-name="Trazado 875191" d="M121.865,120.338H96.706a2.161,2.161,0,0,0,0,4.321h25.159a2.161,2.161,0,0,0,0-4.321Z" transform="translate(-94.545 -95.509)" fill="#afafaf"/>
        <path id="Trazado_875192" data-name="Trazado 875192" d="M121.865,92.064H96.706a2.161,2.161,0,0,0,0,4.321h25.159a2.161,2.161,0,0,0,0-4.321Z" transform="translate(-94.545 -75.379)" fill="#afafaf"/>
        <path id="Trazado_875193" data-name="Trazado 875193" d="M228.693,68.111h31.669a2.161,2.161,0,1,0,0-4.321H228.693a2.161,2.161,0,1,0,0,4.321Z" transform="translate(-188.51 -55.25)" fill="#afafaf"/>
      </g>
      <path id="Trazado_875194" data-name="Trazado 875194" d="M417.786,70.219l2.74-2.74a2.161,2.161,0,0,0-3.056-3.055l-2.74,2.74-2.74-2.74a2.161,2.161,0,0,0-3.056,3.055l2.74,2.74-2.74,2.74a2.161,2.161,0,0,0,3.056,3.055l2.74-2.74,2.74,2.74a2.161,2.161,0,1,0,3.056-3.055Z" transform="translate(-290.682 -45.414)" fill="#f9f3f1"/>
      <path id="Trazado_875195" data-name="Trazado 875195" d="M126.446,47.388H103.232a1.187,1.187,0,0,1-1.187-1.187V38.9a1.187,1.187,0,0,1,1.187-1.187h23.214a1.187,1.187,0,0,1,1.187,1.187v7.3A1.187,1.187,0,0,1,126.446,47.388Z" transform="translate(-72.649 -26.851)" fill="#636363"/>
    </g>
  </g>
</svg>
