<svg xmlns="http://www.w3.org/2000/svg" width="193" height="204" viewBox="0 0 193 204">
  <g id="Grupo_1100662" data-name="Grupo 1100662" transform="translate(-694.645 -1502.241)">
    <rect id="Rectángulo_401815" data-name="Rectángulo 401815" width="190" height="201" rx="40" transform="translate(696.145 1503.741)" fill="none" stroke="#ff725d" stroke-miterlimit="10" stroke-width="3"/>
    <g id="Grupo_1100548" data-name="Grupo 1100548" transform="translate(714.383 1545.713)">
      <path id="Trazado_875400" data-name="Trazado 875400" d="M110.062,128.135H41.691a12.946,12.946,0,0,1-12.946-12.946V12.951A12.946,12.946,0,0,1,41.691,0h68.371a12.946,12.946,0,0,1,12.946,12.946V115.189A12.946,12.946,0,0,1,110.062,128.135Z" transform="translate(0 -0.004)" fill="#636363"/>
      <path id="Trazado_875401" data-name="Trazado 875401" d="M47.967,128.13H41.692a12.946,12.946,0,0,1-12.947-12.947V12.947A12.946,12.946,0,0,1,41.692,0h6.275A12.946,12.946,0,0,0,35.02,12.947V115.183A12.946,12.946,0,0,0,47.967,128.13Z" fill="#685e68"/>
      <path id="Trazado_875402" data-name="Trazado 875402" d="M141.018,39.984V142.219a3.929,3.929,0,0,1-3.924,3.924H68.724a3.929,3.929,0,0,1-3.924-3.924V39.984a3.929,3.929,0,0,1,3.924-3.924h68.37a3.929,3.929,0,0,1,3.924,3.924Z" transform="translate(-27.032 -27.036)" fill="#faf7f7"/>
      <path id="Trazado_875403" data-name="Trazado 875403" d="M74.109,146.143H68.724a3.929,3.929,0,0,1-3.924-3.924V39.984a3.929,3.929,0,0,1,3.924-3.924h5.386a3.929,3.929,0,0,0-3.924,3.924V142.219A3.929,3.929,0,0,0,74.109,146.143Z" transform="translate(-27.032 -27.036)" fill="#dedbee"/>
      <path id="Trazado_875404" data-name="Trazado 875404" d="M180.339,67.465H149.329a1.933,1.933,0,1,1,0-3.867h31.009a1.933,1.933,0,0,1,0,3.867Z" transform="translate(-88.958 -47.682)" fill="#685e68"/>
      <path id="Trazado_875405" data-name="Trazado 875405" d="M97.853,294.2,78.567,282.65l9.511-3.942,30.547,9.044,2.006,19.756Zm43.164-33.126-12.524,13.406,1.129-12.944a1.934,1.934,0,0,0-3.854-.338l-1.57,18.018-4.4,4.847-29.006-8.59,5.9-11.008a1.933,1.933,0,1,0-3.408-1.825l-5.568,10.4L75.836,256.859a1.934,1.934,0,1,0-3.117,2.289l12.233,16.667L64.8,284.173v4.187l9.32-3.864,20.336,12.179-5.824,14.419H92.8l5.019-12.431,21.284,12.431h7.665l-2.008-1.173-2.336-22.991,18.59-20.5Z" transform="translate(-27.032 -191.986)" fill="#d2cfe9"/>
      <g id="Grupo_1100547" data-name="Grupo 1100547" transform="translate(94.321 17.849)">
        <circle id="Elipse_11497" data-name="Elipse 11497" cx="24.084" cy="24.084" r="24.084" transform="translate(0 0.001)" fill="#ff725d"/>
        <path id="Trazado_875406" data-name="Trazado 875406" d="M320.323,118.871a24.084,24.084,0,1,1,0-46.926,24.092,24.092,0,0,0,0,46.926Z" transform="translate(-290.781 -71.324)" fill="#ff725d"/>
        <g id="Grupo_1100546" data-name="Grupo 1100546" transform="translate(19.435 6.458)">
          <path id="Trazado_875407" data-name="Trazado 875407" d="M373.09,120.506a4.648,4.648,0,0,1-4.649-4.649V101.777a4.649,4.649,0,1,1,9.3,0v14.081A4.648,4.648,0,0,1,373.09,120.506Z" transform="translate(-368.441 -97.128)" fill="#fff"/>
          <circle id="Elipse_11498" data-name="Elipse 11498" cx="4.649" cy="4.649" r="4.649" transform="translate(0 25.956)" fill="#fff"/>
        </g>
      </g>
    </g>
  </g>
</svg>
