<svg xmlns="http://www.w3.org/2000/svg" xmlns:xlink="http://www.w3.org/1999/xlink" width="191.526" height="205.255" viewBox="0 0 191.526 205.255">
  <defs>
    <clipPath id="clip-path">
      <rect id="Rectángulo_401111" data-name="Rectángulo 401111" width="160.755" height="196.547" fill="none"/>
    </clipPath>
    <clipPath id="clip-path-4">
      <rect id="Rectángulo_401105" data-name="Rectángulo 401105" width="4.484" height="175.09" fill="none"/>
    </clipPath>
    <clipPath id="clip-path-5">
      <rect id="Rectángulo_401108" data-name="Rectángulo 401108" width="4.483" height="182.682" fill="none"/>
    </clipPath>
  </defs>
  <g id="Grupo_1100655" data-name="Grupo 1100655" transform="translate(4356.526 10567.404)">
    <g id="Grupo_1099529" data-name="Grupo 1099529" transform="translate(-4640 -12050)">
      <rect id="Rectángulo_401037" data-name="Rectángulo 401037" width="149" height="201" rx="40" transform="translate(284.974 1484.096)" fill="none" stroke="#ff725d" stroke-miterlimit="10" stroke-width="3"/>
      <g id="Grupo_1099528" data-name="Grupo 1099528" transform="translate(314.245 1491.304)">
        <g id="Grupo_1099236" data-name="Grupo 1099236" clip-path="url(#clip-path)">
          <g id="Grupo_1099227" data-name="Grupo 1099227">
            <g id="Grupo_1099226" data-name="Grupo 1099226" clip-path="url(#clip-path)">
              <path id="Trazado_873369" data-name="Trazado 873369" d="M13.461,363.7l.843-5.27-9.432-1.574-1.339,7.868.579.137c2.578.585,13.176,2.616,15.007,2.355,2.043-.291-5.658-3.515-5.658-3.515" transform="translate(-1.704 -172.153)" fill="#e8505b"/>
              <path id="Trazado_873370" data-name="Trazado 873370" d="M19.521,373.645c-.014.089-3.558-.4-7.914-1.1s-7.877-1.334-7.863-1.423,3.557.4,7.915,1.1,7.876,1.334,7.862,1.423" transform="translate(-1.806 -179.029)" fill="#263238"/>
              <path id="Trazado_873371" data-name="Trazado 873371" d="M22.684,371.4c-.071-.054.04-.321.287-.563s.517-.35.568-.278-.113.285-.34.509-.443.386-.515.332" transform="translate(-10.933 -178.755)" fill="#263238"/>
              <path id="Trazado_873372" data-name="Trazado 873372" d="M23.735,372.081c-.078-.043.015-.349.254-.647s.514-.459.575-.393-.1.317-.32.6-.43.491-.508.445" transform="translate(-11.437 -178.989)" fill="#263238"/>
              <path id="Trazado_873373" data-name="Trazado 873373" d="M6.961,369.882c-.041.02-.16-.141-.327-.406a6.223,6.223,0,0,0-.7-.962,2.186,2.186,0,0,0-.95-.61c-.281-.084-.476-.07-.484-.119s.186-.14.528-.107a1.9,1.9,0,0,1,1.143.612,3.476,3.476,0,0,1,.664,1.081c.117.3.161.491.122.51" transform="translate(-2.172 -177.371)" fill="#263238"/>
              <path id="Trazado_873374" data-name="Trazado 873374" d="M22.167,370.245c.034.082-.157.239-.443.294s-.522-.017-.521-.106.208-.163.458-.213.471-.06.505.024" transform="translate(-10.229 -178.582)" fill="#263238"/>
              <path id="Trazado_873375" data-name="Trazado 873375" d="M21.881,369.029c-.006.09-.269.125-.589.079s-.562-.156-.542-.243.284-.123.59-.078.547.154.541.243" transform="translate(-10.01 -177.899)" fill="#263238"/>
              <path id="Trazado_873376" data-name="Trazado 873376" d="M78.11,362.91l-.2-5.333-9.559.289.215,7.978.594.022c2.642.073,13.433.005,15.179-.607,1.948-.682-6.233-2.349-6.233-2.349" transform="translate(-32.976 -172.501)" fill="#e8505b"/>
              <path id="Trazado_873377" data-name="Trazado 873377" d="M84.765,371.421c0,.09-3.569.295-7.977.458s-7.986.221-7.99.132,3.568-.294,7.978-.457,7.986-.222,7.989-.133" transform="translate(-33.189 -179.159)" fill="#263238"/>
              <path id="Trazado_873378" data-name="Trazado 873378" d="M87.572,369.037c-.08-.038-.023-.322.172-.608s.439-.444.5-.383-.056.3-.235.566-.359.465-.44.425" transform="translate(-42.229 -177.545)" fill="#263238"/>
              <path id="Trazado_873379" data-name="Trazado 873379" d="M88.767,369.5c-.084-.028-.053-.346.123-.685s.416-.55.488-.5-.037.33-.2.646-.326.566-.411.536" transform="translate(-42.801 -177.678)" fill="#263238"/>
              <path id="Trazado_873380" data-name="Trazado 873380" d="M71.731,370.653c-.036.027-.184-.107-.4-.334a6.3,6.3,0,0,0-.869-.809,2.2,2.2,0,0,0-1.051-.414c-.292-.028-.481.024-.5-.022s.155-.174.5-.207a1.9,1.9,0,0,1,1.24.378,3.489,3.489,0,0,1,.861.931c.173.269.254.45.218.477" transform="translate(-33.244 -177.944)" fill="#263238"/>
              <path id="Trazado_873381" data-name="Trazado 873381" d="M86.743,368c.049.074-.108.265-.377.375s-.515.085-.531,0,.172-.2.408-.3.45-.15.5-.075" transform="translate(-41.408 -177.512)" fill="#263238"/>
              <path id="Trazado_873382" data-name="Trazado 873382" d="M86.2,366.922c.012.089-.24.175-.562.191s-.582-.043-.579-.134.255-.175.563-.19.567.044.579.133" transform="translate(-41.033 -176.944)" fill="#263238"/>
              <path id="Trazado_873383" data-name="Trazado 873383" d="M108.694,98.335l-.537-1.736a15.76,15.76,0,0,0-.844-2.936,4.6,4.6,0,0,0-.764-1.313,7.034,7.034,0,0,0-1.345-1.334c-.5-.3-.386-1.046.133-1.089s1.908.757,2.974,2.3,1.265-1.368,1.357-2.429.528-4.325.875-4.547c.509-.325.963.173.847,1.229s-.241,4.255.319,4.291.945-5.373.945-5.373-.1-1.174.546-1.155c1.17.036.33,5.743.237,6.283-.065.376.543.437.592.029s.267-5.407,1.458-5.382c.914.019-.647,4.7-.12,5.776s.821-3.682,1.694-3.628c.325.021.566.081,0,2.777-.575,2.762-3.351,9.958-3.351,9.958l-5.083-1.817" transform="translate(-50.598 -40.642)" fill="#ffbe9d"/>
              <path id="Trazado_873384" data-name="Trazado 873384" d="M44.519,88.946l8.6.636c.115-1,.282-4.862.282-4.862a4.278,4.278,0,0,0,3.855-3.889c.264-3.554.151-11.761.151-11.761a12.387,12.387,0,0,0-12.519.8l-.552.373Z" transform="translate(-21.389 -32.679)" fill="#ffbe9d"/>
              <path id="Trazado_873385" data-name="Trazado 873385" d="M67.144,81.2a.518.518,0,1,1,.732.009.518.518,0,0,1-.732-.009" transform="translate(-32.321 -38.75)" fill="#263238"/>
              <path id="Trazado_873386" data-name="Trazado 873386" d="M67.368,80.032c-.06.058-.392-.232-.882-.264s-.861.2-.911.132c-.025-.03.038-.137.2-.245a1.208,1.208,0,0,1,1.431.106c.145.131.19.247.162.272" transform="translate(-31.631 -38.337)" fill="#263238"/>
              <path id="Trazado_873387" data-name="Trazado 873387" d="M57.327,80.621a.518.518,0,1,1-.721.126.518.518,0,0,1,.721-.126" transform="translate(-27.262 -38.848)" fill="#263238"/>
              <path id="Trazado_873388" data-name="Trazado 873388" d="M57.035,80.231c-.06.058-.392-.232-.882-.264s-.861.2-.911.132c-.025-.03.038-.138.2-.246a1.208,1.208,0,0,1,1.431.106c.145.131.191.247.162.272" transform="translate(-26.647 -38.433)" fill="#263238"/>
              <path id="Trazado_873389" data-name="Trazado 873389" d="M61.992,84.813a2.462,2.462,0,0,1,.8-.116c.128-.006.233-.027.248-.1a.694.694,0,0,0-.068-.375L62.65,83.2a14.129,14.129,0,0,1-.682-2.668,14.123,14.123,0,0,1,.939,2.588l.305,1.026a.814.814,0,0,1,.038.535.332.332,0,0,1-.231.188.8.8,0,0,1-.219.016,2.461,2.461,0,0,1-.808-.075" transform="translate(-29.889 -38.852)" fill="#263238"/>
              <path id="Trazado_873390" data-name="Trazado 873390" d="M58.809,89.6a9.481,9.481,0,0,0,2.36.846,1.357,1.357,0,0,1-1.631.44c-1.041-.455-.729-1.287-.729-1.287" transform="translate(-28.331 -43.195)" fill="#fff"/>
              <path id="Trazado_873391" data-name="Trazado 873391" d="M57.622,98.951a8.285,8.285,0,0,1-4.556-1.6s.938,2.628,4.508,2.526Z" transform="translate(-25.6 -46.962)" fill="#eb996e"/>
              <path id="Trazado_873392" data-name="Trazado 873392" d="M43.827,72.846l.432,2.55,1.584-.031-.1-5.312s6.283.482,7-2.031c0,0,1.847,2.779,4.155,2.768,0,0,2.011-.2.1-3-2.948-4.309-13.444-.847-13.444-.847a7.325,7.325,0,0,0-.381,2.444c-.043,2.732.657,3.463.657,3.463" transform="translate(-20.825 -31.658)" fill="#263238"/>
              <path id="Trazado_873393" data-name="Trazado 873393" d="M42.61,68.007l14-2.777s-1-5.6-8.549-3.971c-7.354,1.583-5.453,6.748-5.453,6.748" transform="translate(-20.449 -29.409)" fill="#53bced"/>
              <path id="Trazado_873394" data-name="Trazado 873394" d="M42.816,71.657c.2-.039,17.111.36,18.317-1.98.576-1.117-4.427-1.148-4.427-1.148l.113.351Z" transform="translate(-20.655 -33.059)" fill="#0d66bf"/>
              <path id="Trazado_873396" data-name="Trazado 873396" d="M43.407,78.641c-.077-.029-2.639-.362-2.4,2.663s3.217,1.78,3.216,1.693-.819-4.357-.819-4.357" transform="translate(-19.776 -37.926)" fill="#ffbe9d"/>
              <path id="Trazado_873397" data-name="Trazado 873397" d="M43.934,82.983c-.014-.009-.05.041-.136.089a.531.531,0,0,1-.393.04,1.308,1.308,0,0,1-.7-1.122,1.748,1.748,0,0,1,.087-.766.611.611,0,0,1,.364-.436.269.269,0,0,1,.322.12c.048.081.033.143.05.147s.061-.056.026-.179a.335.335,0,0,0-.134-.18.4.4,0,0,0-.3-.054.743.743,0,0,0-.512.513,1.793,1.793,0,0,0-.115.858,1.372,1.372,0,0,0,.873,1.245.567.567,0,0,0,.476-.119c.088-.082.1-.151.087-.156" transform="translate(-20.497 -38.899)" fill="#eb996e"/>
              <rect id="Rectángulo_401095" data-name="Rectángulo 401095" width="1.714" height="1.714" transform="translate(30.165 34.323) rotate(-1.108)" fill="#263238"/>
              <rect id="Rectángulo_401096" data-name="Rectángulo 401096" width="0.857" height="0.857" transform="translate(31.003 33.358) rotate(-1.108)" fill="#263238"/>
              <path id="Trazado_873398" data-name="Trazado 873398" d="M57.464,105.741s-2.642,16.833-4.508,16.921c-2.128.1-8.668-9.178-8.668-9.178h0c-4.185-6.461-9.711-7.505-11.725-7.666l.012-.8-9.9-.811s.016.851-.007,1.6l-4.38.006s-7.85-.359-9.026,10.183l5.643,4.461,2.313,8.608c.705,2.627-.37,5.981-1.552,11.875l-.708-.167-.3,5.938c-.041.279-.082.561-.122.848h.079l-2.393,47.406L0,240.877l13.763.514,12.691-44.8s1.1-35.817,2.217-35.839c1.881-.036,3.083,79.675,3.8,79.5s14.857-.036,14.857-.036-4.681-92.865-4.647-92.868l-1.213-17.579-.461-5.082h0c2.686,3.778,7.758,9.679,13.189,9.574,8.836-.171,10.076-27.56,10.076-27.56Z" transform="translate(0 -50.273)" fill="#455a64"/>
              <path id="Trazado_873399" data-name="Trazado 873399" d="M54.409,201.948a11.479,11.479,0,0,0,.82-1.527,11.62,11.62,0,0,0,.668-4.108c0-1.611,0-3.067-.007-4.225a11.26,11.26,0,0,1,.067-1.753,11.279,11.279,0,0,1,.124,1.749c.033,1.083.1,2.573.086,4.234a15.125,15.125,0,0,1-.208,2.336,7.963,7.963,0,0,1-.554,1.841,5.541,5.541,0,0,1-.664,1.113c-.2.232-.318.352-.332.34" transform="translate(-26.247 -91.821)" fill="#263238"/>
              <path id="Trazado_873400" data-name="Trazado 873400" d="M33.1,198.237a1.725,1.725,0,0,1,.072.486c.027.315.058.77.069,1.335a8.831,8.831,0,0,1-.862,4.324,4.841,4.841,0,0,1-1.643,1.829,3.942,3.942,0,0,1-1.918.6,3.1,3.1,0,0,1-1.334-.23,1.18,1.18,0,0,1-.424-.257,3.986,3.986,0,0,0,1.746.3A3.915,3.915,0,0,0,30.6,206a4.759,4.759,0,0,0,1.54-1.748,9.371,9.371,0,0,0,.909-4.2,16.933,16.933,0,0,1,.049-1.82" transform="translate(-13.054 -95.633)" fill="#263238"/>
              <path id="Trazado_873401" data-name="Trazado 873401" d="M78.427,207.314c.01.009-.085.152-.34.322a2.209,2.209,0,0,1-1.238.322,3.075,3.075,0,0,1-1.776-.662,6.91,6.91,0,0,1-1.557-1.708,8.832,8.832,0,0,1-1.431-3.9,7.869,7.869,0,0,1-.035-1.264,1.467,1.467,0,0,1,.068-.459c.047,0,0,.659.155,1.7a9.462,9.462,0,0,0,1.465,3.777,7.091,7.091,0,0,0,1.482,1.659,2.987,2.987,0,0,0,1.636.67,2.292,2.292,0,0,0,1.178-.224c.256-.133.376-.248.392-.231" transform="translate(-34.753 -96.466)" fill="#263238"/>
              <path id="Trazado_873402" data-name="Trazado 873402" d="M15.116,362.869c0,.075-3.053.024-6.812-.112s-6.806-.307-6.8-.382,3.052-.024,6.813.113,6.805.307,6.8.381" transform="translate(-0.724 -174.799)" fill="#263238"/>
              <path id="Trazado_873403" data-name="Trazado 873403" d="M76.828,359.336a2.4,2.4,0,0,1-.572.079l-1.568.115c-1.324.085-3.156.184-5.179.277s-3.857.162-5.184.2l-1.571.029a2.373,2.373,0,0,1-.577-.026,2.415,2.415,0,0,1,.575-.079l1.568-.115c1.325-.085,3.154-.185,5.177-.277s3.853-.162,5.18-.2l1.572-.029a2.4,2.4,0,0,1,.579.026" transform="translate(-29.995 -173.337)" fill="#263238"/>
              <path id="Trazado_873404" data-name="Trazado 873404" d="M28.9,214.884a1.085,1.085,0,0,1,.008.2c0,.147,0,.344,0,.595-.009.538-.023,1.305-.04,2.287-.043,1.985-.136,4.859-.279,8.407s-.343,7.772-.621,12.459c-.141,2.344-.3,4.8-.5,7.351-.11,1.272-.21,2.573-.433,3.881s-.5,2.615-.784,3.941c-2.361,10.586-5.013,20.041-7.083,26.835-1.032,3.4-1.966,6.118-2.619,7.994-.34.921-.606,1.641-.792,2.145l-.213.555a1.078,1.078,0,0,1-.082.186,1.216,1.216,0,0,1,.056-.2l.188-.564.744-2.161c.622-1.885,1.528-4.611,2.536-8.014,2.022-6.8,4.644-16.264,7-26.837.282-1.323.566-2.631.783-3.927s.322-2.588.434-3.86c.213-2.543.372-5,.52-7.344.292-4.685.509-8.907.679-12.453.154-3.536.278-6.4.365-8.4.039-.98.07-1.747.091-2.285l.03-.594a1.148,1.148,0,0,1,.019-.2" transform="translate(-7.454 -103.663)" fill="#263238"/>
              <path id="Trazado_873405" data-name="Trazado 873405" d="M75.215,292.425a.986.986,0,0,1-.025-.186c-.01-.137-.025-.319-.043-.549-.034-.5-.081-1.207-.143-2.111-.109-1.85-.266-4.5-.46-7.767-.369-6.559-.828-15.623-1.253-25.638s-.74-19.089-.939-25.656c-.09-3.271-.163-5.924-.213-7.776-.019-.906-.033-1.615-.042-2.115,0-.231,0-.413,0-.55a1.022,1.022,0,0,1,.008-.188.871.871,0,0,1,.02.187c.007.137.018.319.031.549.022.5.054,1.208.093,2.113.071,1.851.174,4.5.3,7.774.26,6.577.62,15.639,1.018,25.65.425,10.013.854,19.078,1.174,25.639.158,3.269.285,5.92.375,7.77.039.905.07,1.614.092,2.114.007.23.012.413.017.55a1.086,1.086,0,0,1,0,.188" transform="translate(-34.778 -106.078)" fill="#263238"/>
              <path id="Trazado_873406" data-name="Trazado 873406" d="M50.08,105.221a8.232,8.232,0,0,1,.012,1.392,20.062,20.062,0,0,1-.338,3.463l-.035.17-.155-.082c-.329-.173-.669-.356-1.009-.555-1.439-.839-2.66-1.714-3.562-2.315a16.212,16.212,0,0,1-1.445-1,8.742,8.742,0,0,1,1.548.84c.931.563,2.169,1.411,3.594,2.242.337.2.672.38,1,.554l-.19.088a26.462,26.462,0,0,0,.424-3.415,7.882,7.882,0,0,1,.159-1.383" transform="translate(-21.008 -50.76)" fill="#263238"/>
              <path id="Trazado_873407" data-name="Trazado 873407" d="M59.818,106.516a9.186,9.186,0,0,1-.283,1.29c-.1.4-.2.872-.37,1.393a7.231,7.231,0,0,1-.317.8.532.532,0,0,1-.185.227.3.3,0,0,1-.371-.043,1.756,1.756,0,0,1-.231-.454c-.481-1.148-.9-2.193-1.2-2.954a6.456,6.456,0,0,1-.422-1.254,6.454,6.454,0,0,1,.6,1.18c.339.743.788,1.776,1.27,2.924a2.125,2.125,0,0,0,.172.37c.025.019.014.016.04.006a.287.287,0,0,0,.089-.115,7.861,7.861,0,0,0,.32-.767c.178-.5.3-.97.42-1.361a4.978,4.978,0,0,1,.467-1.241" transform="translate(-27.227 -50.904)" fill="#263238"/>
              <path id="Trazado_873408" data-name="Trazado 873408" d="M57.949,141.75a1.9,1.9,0,0,1-.042-.37c-.018-.269-.041-.622-.07-1.063-.05-.954-.12-2.282-.205-3.91-.149-3.33-.352-7.878-.577-12.9-.194-5.028-.369-9.578-.5-12.909-.05-1.629-.091-2.959-.12-3.913-.008-.441-.014-.794-.019-1.065a1.978,1.978,0,0,1,.011-.372,1.851,1.851,0,0,1,.042.37q.027.4.07,1.062c.05.954.12,2.282.205,3.91.149,3.33.352,7.879.577,12.906.194,5.027.369,9.577.5,12.908.05,1.629.091,2.958.12,3.913.008.441.014.794.019,1.065a1.918,1.918,0,0,1-.011.372" transform="translate(-27.217 -50.772)" fill="#263238"/>
              <rect id="Rectángulo_401097" data-name="Rectángulo 401097" width="4.755" height="0.982" transform="translate(32.278 65.279) rotate(-1.104)" fill="#fff"/>
              <path id="Trazado_873409" data-name="Trazado 873409" d="M79.276,141.981c-.075.005-.375-3.592-.672-8.033s-.478-8.046-.4-8.052.375,3.591.672,8.034.477,8.046.4,8.051" transform="translate(-37.717 -60.734)" fill="#263238"/>
              <path id="Trazado_873410" data-name="Trazado 873410" d="M117.307,114.107a24.6,24.6,0,0,1-3.569-.679,24.527,24.527,0,0,1-3.508-.941,24.613,24.613,0,0,1,3.569.679,24.552,24.552,0,0,1,3.508.941" transform="translate(-53.177 -54.26)" fill="#263238"/>
              <path id="Trazado_873411" data-name="Trazado 873411" d="M112.574,109.48a.484.484,0,1,1-.475.493.484.484,0,0,1,.475-.493" transform="translate(-54.078 -52.815)" fill="#263238"/>
              <rect id="Rectángulo_401098" data-name="Rectángulo 401098" width="1.714" height="1.714" transform="translate(35.277 63.022) rotate(-1.09)" fill="#e8505b"/>
              <rect id="Rectángulo_401099" data-name="Rectángulo 401099" width="0.857" height="0.857" transform="translate(36.115 62.057) rotate(-1.108)" fill="#e8505b"/>
              <path id="Trazado_873412" data-name="Trazado 873412" d="M79.935,138.108l-.7,27.636-43.371-.22.142-28.01Z" transform="translate(-17.301 -66.339)" fill="#d3d3d3"/>
              <path id="Trazado_873413" data-name="Trazado 873413" d="M71.223,166.063c-.075,0,.022-6.172.215-13.779s.409-13.775.484-13.773-.022,6.171-.215,13.781-.409,13.774-.484,13.772" transform="translate(-34.347 -66.819)" fill="#263238"/>
              <path id="Trazado_873414" data-name="Trazado 873414" d="M35.862,166.037a1.616,1.616,0,0,1,.173-.293l.537-.811,2.025-2.947,6.759-9.667c2.643-3.774,5.024-7.2,6.724-9.691.851-1.246,1.527-2.262,1.994-2.965l.532-.813a1.669,1.669,0,0,1,.2-.274,1.569,1.569,0,0,1-.154.3l-.49.841c-.441.721-1.094,1.754-1.925,3.015-1.661,2.522-4.019,5.965-6.662,9.739s-5.064,7.17-6.824,9.622l-2.1,2.9-.579.781a1.561,1.561,0,0,1-.217.262" transform="translate(-17.3 -66.852)" fill="#263238"/>
              <path id="Trazado_873415" data-name="Trazado 873415" d="M54,166.107c-.063.04-4.056-6.188-8.918-13.91s-8.754-14.015-8.691-14.054,4.056,6.187,8.92,13.911,8.753,14.014,8.69,14.053" transform="translate(-17.556 -66.643)" fill="#263238"/>
              <rect id="Rectángulo_401100" data-name="Rectángulo 401100" width="1.426" height="6.964" transform="matrix(0.025, -1, 1, 0.025, 41.371, 96.146)" fill="#263238"/>
              <path id="Trazado_873416" data-name="Trazado 873416" d="M80.665,180.655a21.543,21.543,0,0,1,3.407-.129,21.64,21.64,0,0,1,3.407.14,21.765,21.765,0,0,1-3.407.129,21.648,21.648,0,0,1-3.407-.14" transform="translate(-38.914 -87.089)" fill="#263238"/>
              <path id="Trazado_873417" data-name="Trazado 873417" d="M100.6,138.151l-.27,10.668-1.493-1.2-1.958,1.117.271-10.668Z" transform="translate(-46.736 -66.604)" fill="#263238"/>
              <path id="Trazado_873418" data-name="Trazado 873418" d="M24.329,130.621s-2.1,14.67-1.11,15.506c5.509,4.631,13.161,7.061,15.9,7.825.4-.1.867-.222,1.4-.392a4.268,4.268,0,0,0,1.288-.671,6.552,6.552,0,0,0,1.326-1.233.562.562,0,0,1,1.046.188c.026.506-.787,1.812-2.31,2.763,0,0,3.51,5.646,4.628,6.153s4.318,1.951,3.779,2.228-4.44-.858-4.44-.858l-7.9-2.112s-26.128-4.1-24.387-16.082c1.067-7.346,2.23-13.968,2.653-15.642Z" transform="translate(-6.5 -61.892)" fill="#ffbe9d"/>
              <path id="Trazado_873419" data-name="Trazado 873419" d="M15.662,126.98l-2.344,16c-.542,4.929,2.758,8.841,7.2,11.043,6.761,3.35,16.8,5.738,16.713,5.723-.137-.025.679-7.143.679-7.143s-14.071-6.1-14.511-8.714,1.789-13.568,1.789-13.568Z" transform="translate(-6.397 -61.257)" fill="#455a64"/>
              <path id="Trazado_873420" data-name="Trazado 873420" d="M46.405,152.943a.445.445,0,0,1,0-.127c.006-.1.013-.221.022-.37.027-.347.064-.822.11-1.423l.454-5.231.054.094-7.076-3.428-2.046-1c-.688-.364-1.377-.764-2.058-1.2a20.371,20.371,0,0,1-2-1.464c-.321-.27-.636-.553-.94-.852a1.683,1.683,0,0,1-.41-.539,1.428,1.428,0,0,1-.115-.321,2.026,2.026,0,0,1-.07-.327,17.2,17.2,0,0,1,.482-4.976c.273-1.583.537-3.109.789-4.564.508-2.9.965-5.519,1.351-7.725a16.273,16.273,0,0,0,.356-2.972,5.15,5.15,0,0,0-.456-2.183,3.625,3.625,0,0,0-.827-1.145c-.242-.218-.393-.305-.385-.317a1.977,1.977,0,0,1,.421.276,3.483,3.483,0,0,1,.886,1.14,5.163,5.163,0,0,1,.512,2.226,16,16,0,0,1-.319,3.007l-1.294,7.738c-.247,1.456-.506,2.985-.774,4.569q-.1.595-.208,1.2c-.082.4-.149.8-.205,1.208a9.113,9.113,0,0,0-.062,2.475,1.821,1.821,0,0,0,.064.3,1.193,1.193,0,0,0,.1.278,1.4,1.4,0,0,0,.355.462c.3.293.607.572.923.838a20.364,20.364,0,0,0,1.967,1.448c.672.437,1.353.835,2.035,1.2l2.04,1,7.043,3.477.061.031-.007.065c-.226,2.189-.409,3.968-.539,5.224q-.1.9-.16,1.418c-.02.148-.035.269-.048.368a.468.468,0,0,1-.026.124" transform="translate(-15.568 -54.451)" fill="#263238"/>
              <path id="Trazado_873421" data-name="Trazado 873421" d="M55.726,174.6a4.4,4.4,0,0,1-.084,1.092c-.086.669-.226,1.592-.416,2.6s-.4,1.923-.574,2.575a4.117,4.117,0,0,1-.348,1.04c-.072-.019.284-1.645.657-3.666a30.391,30.391,0,0,1,.765-3.646" transform="translate(-26.193 -84.23)" fill="#263238"/>
              <path id="Trazado_873422" data-name="Trazado 873422" d="M39.007,181.038A.905.905,0,0,1,38.76,181l-.7-.167-2.545-.665c-2.142-.581-5.121-1.336-8.312-2.509a34.359,34.359,0,0,1-4.376-1.948,24.209,24.209,0,0,1-3.29-2.118,18.14,18.14,0,0,1-1.972-1.75c-.217-.223-.378-.4-.483-.53a.85.85,0,0,1-.151-.2c.018-.016.254.234.708.655a22.251,22.251,0,0,0,2.013,1.673,25.992,25.992,0,0,0,3.293,2.051A36.427,36.427,0,0,0,27.3,177.4c3.172,1.165,6.141,1.951,8.269,2.578l2.521.747.682.216a.89.89,0,0,1,.233.094" transform="translate(-8.17 -82.546)" fill="#263238"/>
              <path id="Trazado_873423" data-name="Trazado 873423" d="M59.072,177.5a.453.453,0,1,1-.462-.444.453.453,0,0,1,.462.444" transform="translate(-28.06 -85.413)" fill="#263238"/>
            </g>
          </g>
          <rect id="Rectángulo_401102" data-name="Rectángulo 401102" width="57.123" height="176.441" transform="translate(95.858 16.9)" fill="#e0e0e0"/>
          <path id="Trazado_873424" data-name="Trazado 873424" d="M257.618,35.262v167.2l27.327,7.892.089-175.09Z" transform="translate(-124.279 -17.011)" fill="#455a64"/>
          <g id="Grupo_1099235" data-name="Grupo 1099235">
            <g id="Grupo_1099234" data-name="Grupo 1099234" clip-path="url(#clip-path)">
              <path id="Trazado_873425" data-name="Trazado 873425" d="M261.851,189.706c.053,1.308-.449,2.392-1.122,2.42s-1.263-1.011-1.316-2.32.449-2.392,1.122-2.419,1.262,1.011,1.316,2.32" transform="translate(-125.143 -90.398)" fill="#fff"/>
              <path id="Trazado_873426" data-name="Trazado 873426" d="M261.691,189.984l5.381.721a.6.6,0,1,1-.18,1.181l-5.159-.876Z" transform="translate(-126.244 -91.651)" fill="#fff"/>
              <path id="Trazado_873427" data-name="Trazado 873427" d="M172.32,20.594V203.276h8.968V28.186h52.639v175.09H243.8V20.594Z" transform="translate(-83.13 -9.935)" fill="#263238"/>
              <rect id="Rectángulo_401103" data-name="Rectángulo 401103" width="4.484" height="175.09" transform="translate(93.674 18.251)" fill="#263238"/>
              <g id="Grupo_1099230" data-name="Grupo 1099230" transform="translate(93.674 18.251)" opacity="0.5">
                <g id="Grupo_1099229" data-name="Grupo 1099229">
                  <g id="Grupo_1099228" data-name="Grupo 1099228" clip-path="url(#clip-path-4)">
                    <rect id="Rectángulo_401104" data-name="Rectángulo 401104" width="4.484" height="175.09"/>
                  </g>
                </g>
              </g>
              <rect id="Rectángulo_401106" data-name="Rectángulo 401106" width="4.483" height="182.683" transform="translate(156.272 10.659)" fill="#263238"/>
              <g id="Grupo_1099233" data-name="Grupo 1099233" transform="translate(156.272 10.659)" opacity="0.5">
                <g id="Grupo_1099232" data-name="Grupo 1099232">
                  <g id="Grupo_1099231" data-name="Grupo 1099231" clip-path="url(#clip-path-5)">
                    <rect id="Rectángulo_401107" data-name="Rectángulo 401107" width="4.483" height="182.683" transform="translate(0)"/>
                  </g>
                </g>
              </g>
              <path id="Trazado_873428" data-name="Trazado 873428" d="M225.746,88.335a7.451,7.451,0,0,0,5.645,6.822c1.6.391,3.441.207,4.709,1.282,2.174,1.844.9,5.665,2.369,8.138.9,1.52,2.692,2.266,3.706,3.71,1.686,2.4.554,6.025-1.746,7.812s-5.363,2.128-8.246,2.054c-6.34-.164-12.832-2.179-17.416-6.673-2.153-2.111-9.132-10.136-5.963-21.707" transform="translate(-100.339 -42.614)" fill="#263238"/>
              <path id="Trazado_873429" data-name="Trazado 873429" d="M179.772,102.761s-11.093,9.647-11.38,8.471c-1.558-6.385-1.119-14.533-.868-17.654.174-.269.374-.564.61-.889a4.178,4.178,0,0,1,.992-.968,6.394,6.394,0,0,1,1.508-.845c.511-.145.594-.826.149-.991a4.49,4.49,0,0,0-3.178,1.3c-1.315,1.1-.78-1.512-.6-2.467s.59-3.933.337-4.213c-.369-.41-.889-.083-1.044.875s-.825,3.8-1.327,3.7.479-4.956.479-4.956.376-1.008-.2-1.149c-1.037-.254-1.69,4.971-1.74,5.47-.034.347-.584.252-.527-.119s1.083-4.821.029-5.09c-.808-.206-.577,4.294-1.3,5.111s.174-3.439-.607-3.6c-.291-.062-.517-.067-.681,2.441a55.4,55.4,0,0,0,.22,6.056c-.691,6.887-2.037,27.977,7.489,27.251,11.242-.857,13.83-9.72,13.83-9.72Z" transform="translate(-77.261 -40.023)" fill="#b78876"/>
              <path id="Trazado_873430" data-name="Trazado 873430" d="M211.8,94.156a37.41,37.41,0,0,0-.123-4.625,4,4,0,0,1-3.457-3.8c-.143-3.383.194-11.173.194-11.173l6.1-2.93,6.563,5.288L219.94,94.1Z" transform="translate(-100.432 -34.554)" fill="#b78876"/>
              <path id="Trazado_873431" data-name="Trazado 873431" d="M209.714,87.888a.422.422,0,1,0,.429-.425.428.428,0,0,0-.429.425" transform="translate(-101.169 -42.193)" fill="#263238"/>
              <path id="Trazado_873432" data-name="Trazado 873432" d="M208.936,86.886c.053.057.369-.21.823-.226s.791.213.839.151c.024-.027-.031-.131-.178-.239a1.1,1.1,0,0,0-1.327.06c-.138.12-.184.229-.157.254" transform="translate(-100.791 -41.67)" fill="#263238"/>
              <path id="Trazado_873433" data-name="Trazado 873433" d="M219.151,88.052a.422.422,0,1,0,.429-.425.427.427,0,0,0-.429.425" transform="translate(-105.722 -42.273)" fill="#263238"/>
              <path id="Trazado_873434" data-name="Trazado 873434" d="M218.654,87.055c.053.057.37-.21.823-.226s.791.213.84.151c.023-.027-.031-.131-.179-.239a1.1,1.1,0,0,0-1.327.06c-.138.12-.184.229-.157.254" transform="translate(-105.479 -41.751)" fill="#263238"/>
              <path id="Trazado_873435" data-name="Trazado 873435" d="M214.282,91.289a2.828,2.828,0,0,0-.74-.113c-.116-.008-.226-.028-.247-.112a.676.676,0,0,1,.071-.371l.328-.96a17.3,17.3,0,0,0,.731-2.5,17.431,17.431,0,0,0-.917,2.44c-.109.337-.214.657-.314.964a.771.771,0,0,0-.052.49.286.286,0,0,0,.194.174.719.719,0,0,0,.2.021,2.746,2.746,0,0,0,.748-.029" transform="translate(-102.812 -42.08)" fill="#263238"/>
              <path id="Trazado_873436" data-name="Trazado 873436" d="M216.189,95.925a8.648,8.648,0,0,1-2.207.737,1.241,1.241,0,0,0,1.5.464.983.983,0,0,0,.711-1.2" transform="translate(-103.228 -46.249)" fill="#fff"/>
              <path id="Trazado_873437" data-name="Trazado 873437" d="M214.934,104.88a8.075,8.075,0,0,0,4.389-1.437,4.246,4.246,0,0,1-4.332,2.267Z" transform="translate(-103.688 -49.903)" fill="#a36957"/>
              <path id="Trazado_873438" data-name="Trazado 873438" d="M225.476,78.226c-.031-.24-.064-.6-.1-.979v0a13.029,13.029,0,0,0-.181-1.373,10.6,10.6,0,0,0-8.881-8.518c-1.281-.022-3.509-.784-6.833,2.642a6.658,6.658,0,0,0-1.6,7.2l.557-.51,4.84-1.193a6.338,6.338,0,0,1,.562-3.751l.031-.029c.873,5.075,6.294,5.695,6.294,5.695l-.512,13.463c5.337-1.074,5.758-9.731,5.747-12.659Z" transform="translate(-100.069 -32.45)" fill="#263238"/>
              <path id="Trazado_873439" data-name="Trazado 873439" d="M246.344,204.971c.007-.066.014-.135.019-.174,0,.031-.009.085-.019.174" transform="translate(-118.84 -98.797)" fill="#b78876"/>
              <path id="Trazado_873440" data-name="Trazado 873440" d="M246.311,205.291c.007-.063.012-.113.017-.158l-.017.158" transform="translate(-118.824 -98.959)" fill="#b78876"/>
              <path id="Trazado_873441" data-name="Trazado 873441" d="M228.342,287.336s-12.494-42.118-12.732-43.466c-.216-1.217,5.572-30.767,6.411-38.432l-17.568.167s0,.047-.005.128l-8.487.234,4.247,84.161,9.3.24-.14-27.663c4.608,13.509,10.434,28.769,10.434,28.769Z" transform="translate(-94.534 -99.107)" fill="#b78876"/>
              <path id="Trazado_873442" data-name="Trazado 873442" d="M246.385,204.748c0-.013,0-.014,0,0" transform="translate(-118.86 -98.769)" fill="#b78876"/>
              <path id="Trazado_873443" data-name="Trazado 873443" d="M246.38,204.778l0-.02c0,.006,0,.011,0,.02" transform="translate(-118.858 -98.779)" fill="#b78876"/>
              <path id="Trazado_873444" data-name="Trazado 873444" d="M210.857,276.029c.026,0-.024.329-.054.919a18.289,18.289,0,0,0,.045,2.5,22.9,22.9,0,0,0,.622,3.65,36.47,36.47,0,0,0,1.49,4.291c1.157,3.023,2.19,5.765,2.926,7.755.351.966.64,1.762.858,2.361a5.92,5.92,0,0,1,.28.879,6.075,6.075,0,0,1-.378-.841c-.238-.592-.555-1.378-.938-2.331-.781-1.973-1.843-4.7-3-7.727-.288-.757-.568-1.5-.839-2.21a20.294,20.294,0,0,1-.64-2.117,21.472,21.472,0,0,1-.571-3.7,15.132,15.132,0,0,1,.04-2.521c.03-.3.068-.524.1-.679a.774.774,0,0,1,.058-.232" transform="translate(-101.609 -133.161)" fill="#a36957"/>
              <path id="Trazado_873445" data-name="Trazado 873445" d="M219.185,319.089c.014-.256.163-9.381.163-9.381s-3.061-8.46-3.139-8.2,2.976,17.583,2.976,17.583" transform="translate(-104.302 -145.448)" fill="#a36957"/>
              <path id="Trazado_873446" data-name="Trazado 873446" d="M238.556,367.652h0l8.219-3.982.95,1.765-2.9,1.641c-1.982,1.082-8.723,4.608-10.314,4.895-1.775.321,4.05-4.319,4.05-4.319" transform="translate(-112.967 -175.44)" fill="#e8505b"/>
              <path id="Trazado_873447" data-name="Trazado 873447" d="M234.1,373.275c-.038-.063,2.964-1.547,6.7-3.315s6.8-3.151,6.839-3.089-2.963,1.546-6.7,3.315-6.8,3.151-6.838,3.089" transform="translate(-112.935 -176.984)" fill="#263238"/>
              <path id="Trazado_873448" data-name="Trazado 873448" d="M256.181,366.9c-.039,0-.055-.157-.038-.4a2.388,2.388,0,0,1,.263-.95,1.606,1.606,0,0,1,.782-.718c.272-.109.462-.085.464-.054s-.156.081-.363.212a1.856,1.856,0,0,0-.623.673,4.382,4.382,0,0,0-.322.867c-.067.234-.123.38-.163.374" transform="translate(-123.564 -175.962)" fill="#263238"/>
              <path id="Trazado_873449" data-name="Trazado 873449" d="M241.784,372.039c-.012.076.256.174.581.281s.6.183.647.119-.185-.259-.543-.374-.673-.1-.685-.025" transform="translate(-116.64 -179.449)" fill="#263238"/>
              <path id="Trazado_873450" data-name="Trazado 873450" d="M240.7,372.914c-.021.073.219.214.536.314s.6.127.638.059-.2-.21-.536-.315-.617-.13-.638-.058" transform="translate(-116.115 -179.88)" fill="#263238"/>
              <path id="Trazado_873451" data-name="Trazado 873451" d="M239.8,373.7c-.032.07.141.2.373.319s.446.186.5.125-.1-.233-.346-.361-.493-.153-.525-.084" transform="translate(-115.68 -180.26)" fill="#263238"/>
              <path id="Trazado_873452" data-name="Trazado 873452" d="M240.019,370.007a1.715,1.715,0,0,0-.087-.861,2.507,2.507,0,0,0-.428-.881,2.071,2.071,0,0,0-.445-.429,1.271,1.271,0,0,0-.315-.171.615.615,0,0,0-.449.007.469.469,0,0,0-.155.7,3.2,3.2,0,0,0,.383.462,5.645,5.645,0,0,0,.764.656,2.49,2.49,0,0,0,.82.463c.027-.032-.255-.244-.677-.607a7.648,7.648,0,0,1-.69-.671,3.435,3.435,0,0,1-.334-.426c-.091-.135-.066-.3.028-.337s.283.018.44.131a1.945,1.945,0,0,1,.4.364,2.752,2.752,0,0,1,.45.789,4.36,4.36,0,0,0,.294.808" transform="translate(-114.837 -177.349)" fill="#263238"/>
              <path id="Trazado_873453" data-name="Trazado 873453" d="M238.905,371.1a2.212,2.212,0,0,0-.812-.5,4.462,4.462,0,0,0-1.025-.319,3.354,3.354,0,0,0-.651-.054,1.534,1.534,0,0,0-.366.043.541.541,0,0,0-.206.1.285.285,0,0,0-.109.243.836.836,0,0,0,.5.547,2.138,2.138,0,0,0,.631.2,5,5,0,0,0,1.084.035c.625-.04.964-.254.936-.284a7.4,7.4,0,0,1-.946.091,5.955,5.955,0,0,1-1.019-.089,1.925,1.925,0,0,1-.535-.184c-.159-.08-.333-.235-.342-.334-.047-.032.188-.111.386-.1a3.294,3.294,0,0,1,.591.034,5.178,5.178,0,0,1,.986.248,6.206,6.206,0,0,0,.9.325" transform="translate(-113.722 -178.605)" fill="#263238"/>
              <path id="Trazado_873454" data-name="Trazado 873454" d="M242.953,367.562a23.687,23.687,0,0,0,4.177-1.743,24.8,24.8,0,0,0,3.877-2.153,35.952,35.952,0,0,0-4.081,1.876,42.311,42.311,0,0,0-3.973,2.02" transform="translate(-117.204 -175.436)" fill="#263238"/>
              <path id="Trazado_873455" data-name="Trazado 873455" d="M200.21,368.859h0l8.244.059-.137,2.391-.538,0c-2.394-.006-12.171-.178-13.74-.677-1.75-.556,6.171-1.775,6.171-1.775" transform="translate(-93.485 -177.944)" fill="#e8505b"/>
              <path id="Trazado_873456" data-name="Trazado 873456" d="M193.927,371.543c.005-.071,3.243.054,7.232.278s7.218.464,7.213.534-3.241-.054-7.231-.278-7.219-.463-7.214-.534" transform="translate(-93.554 -179.229)" fill="#263238"/>
              <path id="Trazado_873457" data-name="Trazado 873457" d="M216.8,371.587c-.032-.023.047-.16.212-.36a2.868,2.868,0,0,1,.808-.684,1.963,1.963,0,0,1,1.121-.244c.3.034.457.143.439.17s-.185,0-.447.01a2.292,2.292,0,0,0-.954.281,5.407,5.407,0,0,0-.808.585c-.2.167-.339.265-.37.242" transform="translate(-104.585 -178.634)" fill="#263238"/>
              <path id="Trazado_873458" data-name="Trazado 873458" d="M204.989,369.065c-.057.058.119.267.339.509s.417.437.495.4,0-.305-.248-.571-.531-.4-.585-.341" transform="translate(-98.885 -178.037)" fill="#263238"/>
              <path id="Trazado_873459" data-name="Trazado 873459" d="M203.511,369.289c-.063.052.062.284.279.517s.452.389.524.347-.053-.273-.279-.517-.462-.4-.524-.347" transform="translate(-98.169 -178.146)" fill="#263238"/>
              <path id="Trazado_873460" data-name="Trazado 873460" d="M202.24,369.535c-.071.044,0,.236.132.445s.278.366.36.339.058-.242-.083-.468-.339-.359-.409-.316" transform="translate(-97.55 -178.266)" fill="#263238"/>
              <path id="Trazado_873461" data-name="Trazado 873461" d="M204.372,366.628a1.851,1.851,0,0,0,.446-.772,2.3,2.3,0,0,0,.159-.947,1.722,1.722,0,0,0-.129-.571,1.053,1.053,0,0,0-.172-.293.591.591,0,0,0-.4-.2.534.534,0,0,0-.562.524,2.765,2.765,0,0,0,.056.571,4.692,4.692,0,0,0,.271.913,2.057,2.057,0,0,0,.438.776,3.333,3.333,0,0,0-.225-.831,6.218,6.218,0,0,1-.2-.892,2.964,2.964,0,0,1-.035-.518c0-.157.124-.284.23-.272.126.005.238.148.306.317a1.616,1.616,0,0,1,.128.495,2.458,2.458,0,0,1-.085.88,4.153,4.153,0,0,0-.231.823" transform="translate(-98.276 -175.523)" fill="#263238"/>
              <path id="Trazado_873462" data-name="Trazado 873462" d="M202.807,367.049c.035-.014-.08-.336-.408-.8a3.8,3.8,0,0,0-.7-.749,3.106,3.106,0,0,0-.538-.349,1.529,1.529,0,0,0-.347-.135.617.617,0,0,0-.242-.011.347.347,0,0,0-.242.155.711.711,0,0,0,.1.7,1.829,1.829,0,0,0,.431.465,4.67,4.67,0,0,0,.93.536,1.551,1.551,0,0,0,.993.2,7.4,7.4,0,0,1-.885-.364,5.519,5.519,0,0,1-.839-.551,1.633,1.633,0,0,1-.357-.405.549.549,0,0,1-.1-.443c-.022-.049.232-.007.4.092a3.079,3.079,0,0,1,.5.3,4.547,4.547,0,0,1,.713.67c.362.423.55.715.592.7" transform="translate(-96.614 -176.079)" fill="#263238"/>
              <path id="Trazado_873463" data-name="Trazado 873463" d="M206.569,368.822a22.129,22.129,0,0,0,3.958.262,24.837,24.837,0,0,0,3.965-.141,34.686,34.686,0,0,0-3.962-.131c-2.184-.023-3.955-.066-3.961.01" transform="translate(-99.652 -177.905)" fill="#263238"/>
              <path id="Trazado_873464" data-name="Trazado 873464" d="M219.168,132.587s.341-1.26-.617-9c-.418-3.37-2.711-5.457-5.167-6.741l0-.045-.214-.062a20.24,20.24,0,0,0-6.435-1.872l-8.688-.141s-6.36-.793-10.416,3.616-6.815,7.013-6.815,7.013l6.473,7.779,1.733-1.717s-.181,3.58,1,5.663,2.8,4.925,2.8,4.925l-1.854,8.687c-1.15,3.308-4.936,15.4-3.45,27.385,1.839,14.838,2.133,19.176,2.133,19.176l20.982,2.87s8.386-31.417,5.513-43.9c-1.974-8.575-3.481-8.175-3.964-10.033l.546-13.353Z" transform="translate(-87.229 -55.318)" fill="#53bced"/>
              <path id="Trazado_873465" data-name="Trazado 873465" d="M198.237,141.453a10.886,10.886,0,0,1-1.743,2.938,10.886,10.886,0,0,1,1.743-2.938" transform="translate(-94.788 -68.239)" fill="#263238"/>
              <path id="Trazado_873466" data-name="Trazado 873466" d="M220.134,172.511a3.278,3.278,0,0,1-.669.134c-.433.071-1.063.152-1.843.232a52.168,52.168,0,0,1-12.235-.218c-.777-.109-1.4-.211-1.833-.3a3.372,3.372,0,0,1-.664-.157,3.27,3.27,0,0,1,.68.054l1.841.212c1.554.169,3.708.345,6.093.389s4.543-.058,6.1-.172l1.848-.146a3.274,3.274,0,0,1,.681-.03" transform="translate(-97.877 -83.071)" fill="#263238"/>
              <path id="Trazado_873467" data-name="Trazado 873467" d="M224.831,218.234a2.409,2.409,0,0,1-.081.414l-.284,1.175q-.1.386-.212.848c-.087.307-.2.635-.317.99-.241.705-.473,1.526-.852,2.387l-.558,1.366c-.2.473-.452.944-.689,1.443-.459,1.008-1.07,2.02-1.687,3.1a40.681,40.681,0,0,1-10.889,11.829c-1.025.7-1.983,1.4-2.95,1.937-.478.277-.926.57-1.381.806l-1.315.669c-.827.449-1.626.747-2.309,1.046-.345.143-.661.286-.961.4l-.828.281-1.147.38a2.487,2.487,0,0,1-.4.115,2.392,2.392,0,0,1,.388-.167l1.128-.428.817-.3c.3-.119.608-.268.949-.417.675-.311,1.465-.62,2.282-1.078l1.3-.682c.45-.24.893-.535,1.366-.815.956-.545,1.9-1.241,2.919-1.947a41.531,41.531,0,0,0,10.825-11.758c.619-1.069,1.234-2.071,1.7-3.069.24-.494.5-.96.7-1.429s.389-.92.571-1.351c.389-.852.633-1.665.886-2.364.121-.351.244-.675.337-.979s.163-.584.234-.839q.208-.727.333-1.16a2.5,2.5,0,0,1,.134-.4" transform="translate(-95.501 -105.28)" fill="#263238"/>
              <path id="Trazado_873468" data-name="Trazado 873468" d="M228.923,128.733a1.989,1.989,0,0,1-.329.189c-.219.115-.544.283-.969.487a13.255,13.255,0,0,1-3.793,1.254,7.019,7.019,0,0,1-2.771-.153,5.1,5.1,0,0,1-1.432-.624,5.38,5.38,0,0,1-1.228-1.112,24.19,24.19,0,0,1-1.858-2.972,5.152,5.152,0,0,0-2.588-2.463,6.036,6.036,0,0,0-3.6.225,13.913,13.913,0,0,1-3.434.741,5.01,5.01,0,0,1-5.193-5.317,5.236,5.236,0,0,1,.387-1.684,3.739,3.739,0,0,1,.782-1.239,7.025,7.025,0,0,0-.685,1.277,5.3,5.3,0,0,0-.334,1.653,4.76,4.76,0,0,0,2.127,4.2,4.83,4.83,0,0,0,2.908.859,13.861,13.861,0,0,0,3.368-.747,11.3,11.3,0,0,1,1.823-.4,4.392,4.392,0,0,1,1.936.174,4.068,4.068,0,0,1,1.623,1.07,8.508,8.508,0,0,1,1.1,1.511,24.68,24.68,0,0,0,1.824,2.951,4.807,4.807,0,0,0,2.527,1.679,6.894,6.894,0,0,0,2.687.18,13.943,13.943,0,0,0,3.773-1.161l.99-.44a2.019,2.019,0,0,1,.352-.14" transform="translate(-97.314 -55.992)" fill="#fff"/>
              <path id="Trazado_873469" data-name="Trazado 873469" d="M214.543,164.558a2.447,2.447,0,0,0,.368-.873,2.859,2.859,0,0,0-.806-2.358,3.73,3.73,0,0,0-1.5-.933,9.454,9.454,0,0,0-2.021-.442c-.728-.1-1.508-.155-2.306-.328a5.6,5.6,0,0,1-2.323-1,3.581,3.581,0,0,1-.857-.983,6.614,6.614,0,0,1-.512-1.141,12.214,12.214,0,0,0-.844-2.13,3.817,3.817,0,0,0-3.146-1.861,3.932,3.932,0,0,0-2.425.785,8.374,8.374,0,0,0-.713.648.813.813,0,0,1,.138-.213,3.506,3.506,0,0,1,.51-.518,3.925,3.925,0,0,1,2.492-.893,4,4,0,0,1,3.357,1.925,12.133,12.133,0,0,1,.878,2.168,4.157,4.157,0,0,0,1.288,2,5.4,5.4,0,0,0,2.212.951c.775.173,1.547.236,2.283.341a5.756,5.756,0,0,1,3.625,1.492,2.925,2.925,0,0,1,.768,2.506,1.8,1.8,0,0,1-.3.668c-.108.129-.167.192-.174.185" transform="translate(-95.259 -73.481)" fill="#fff"/>
              <path id="Trazado_873470" data-name="Trazado 873470" d="M231.083,221.538a7.326,7.326,0,0,0-2.069.089,22.944,22.944,0,0,0-2.363.619,11.375,11.375,0,0,1-3.2.576,9.351,9.351,0,0,1-3.873-.758,8.051,8.051,0,0,1-3.507-2.849,7.277,7.277,0,0,1-1.124-4.848,6.982,6.982,0,0,1,.8-2.55,6.2,6.2,0,0,1,1.829-2.054,5.892,5.892,0,0,0,1.921-1.793,1.963,1.963,0,0,0,.173-1.214,4.565,4.565,0,0,0-.414-1.2,7.064,7.064,0,0,1-.866-2.424,5.113,5.113,0,0,1,.361-2.452,5.971,5.971,0,0,1,3.176-3.175,8.834,8.834,0,0,1,3.882-.7,20.052,20.052,0,0,0,3.226-.093,5.273,5.273,0,0,0,2.235-.873,3.316,3.316,0,0,0,1.02-1.121c.166-.31.2-.5.223-.489a1.831,1.831,0,0,1-.174.513,3.223,3.223,0,0,1-1.006,1.182,5.3,5.3,0,0,1-2.272.936A19.56,19.56,0,0,1,225.8,197a8.7,8.7,0,0,0-3.79.709,5.758,5.758,0,0,0-3.038,3.064,4.884,4.884,0,0,0-.336,2.332,6.835,6.835,0,0,0,.85,2.339,4.815,4.815,0,0,1,.437,1.268,2.226,2.226,0,0,1-.2,1.375,6.062,6.062,0,0,1-2,1.89A6.221,6.221,0,0,0,215.2,214.4a7.041,7.041,0,0,0,1.069,4.679,7.849,7.849,0,0,0,3.39,2.782,9.2,9.2,0,0,0,3.78.772,11.4,11.4,0,0,0,3.167-.53,21.289,21.289,0,0,1,2.387-.577,6.106,6.106,0,0,1,1.552-.072,3.018,3.018,0,0,1,.535.087" transform="translate(-103.667 -93.702)" fill="#fff"/>
              <path id="Trazado_873471" data-name="Trazado 873471" d="M214.859,267.59c-.023,0,.025-.361.04-1.008a5.991,5.991,0,0,0-.471-2.651,2.6,2.6,0,0,0-1.259-1.276,4.862,4.862,0,0,0-2.092-.313,6.085,6.085,0,0,1-2.429-.3,2.839,2.839,0,0,1-1.049-.811,6.293,6.293,0,0,1-.715-1.135,9.4,9.4,0,0,0-1.326-2.179,6.612,6.612,0,0,0-1.841-1.467,6.3,6.3,0,0,0-3.887-.694,6.779,6.779,0,0,0-2.551.9c-.551.336-.82.58-.836.561s.056-.071.183-.188a5.327,5.327,0,0,1,.6-.461,6.506,6.506,0,0,1,2.578-1,6.4,6.4,0,0,1,4.031.663,6.789,6.789,0,0,1,1.924,1.512,6.668,6.668,0,0,1,.758,1.057c.219.381.406.78.609,1.171a3.608,3.608,0,0,0,1.63,1.828,5.957,5.957,0,0,0,2.324.3,5.029,5.029,0,0,1,2.186.359,2.79,2.79,0,0,1,1.336,1.4,5.8,5.8,0,0,1,.4,2.737c-.023.326-.056.578-.085.747a.939.939,0,0,1-.059.256" transform="translate(-94.767 -123.248)" fill="#fff"/>
              <path id="Trazado_873472" data-name="Trazado 873472" d="M200.935,196.183a9.6,9.6,0,0,1-.425.887,6.847,6.847,0,0,0-.772,2.514,3.317,3.317,0,0,0,.376,1.734,14.539,14.539,0,0,0,1.18,1.744,6.257,6.257,0,0,1,1.169,4.7,5.286,5.286,0,0,1-2.847,3.875,4.751,4.751,0,0,1-2.1.511,4.545,4.545,0,0,1-3.843-2.191,3.393,3.393,0,0,1-.3-.671.932.932,0,0,1-.06-.25c.027-.01.115.336.449.866a4.466,4.466,0,0,0,1.993,1.664,4.274,4.274,0,0,0,1.758.358,4.564,4.564,0,0,0,1.989-.508,5.076,5.076,0,0,0,2.694-3.7,6.067,6.067,0,0,0-1.107-4.511,14.049,14.049,0,0,1-1.177-1.787,3.485,3.485,0,0,1-.366-1.846,6.532,6.532,0,0,1,.868-2.551c.153-.278.281-.489.37-.631a.9.9,0,0,1,.149-.208" transform="translate(-93.257 -94.642)" fill="#fff"/>
              <path id="Trazado_873473" data-name="Trazado 873473" d="M237.594,147.978a2.768,2.768,0,0,1-.063-.617c-.023-.454-.051-1.017-.085-1.683-.072-1.481-.165-3.415-.269-5.552-.1-2.169-.173-4.135-.19-5.559-.009-.712-.009-1.288,0-1.686a2.784,2.784,0,0,1,.042-.619,2.775,2.775,0,0,1,.063.617c.023.454.051,1.016.085,1.683.072,1.481.166,3.415.27,5.553.1,2.169.172,4.134.19,5.558.01.712.01,1.289,0,1.687a2.742,2.742,0,0,1-.042.619" transform="translate(-114.323 -63.805)" fill="#263238"/>
              <path id="Trazado_873474" data-name="Trazado 873474" d="M213.8,149.684s.872,10.446-.127,11.145c-5.534,3.867-12.891,5.422-15.521,5.879-.365-.13-.791-.3-1.284-.512a4.107,4.107,0,0,1-1.151-.768,6.42,6.42,0,0,1-1.14-1.308.524.524,0,0,0-.994.076,4.527,4.527,0,0,0,1.935,2.864c1.348,1.058-1.306,1.115-2.272,1.153s-3.949.3-4.168.614c-.321.459.107.9,1.071.841s3.87-.037,3.874.485-4.92.641-4.92.641-1.059-.146-1.075.457c-.028,1.088,5.189.56,5.685.5.344-.043.367.524,0,.551s-4.915.009-4.955,1.117c-.03.849,4.3-.394,5.244.143s-3.381.6-3.377,1.414c0,.3.044.529,2.518.126a49.147,49.147,0,0,0,5.237-1.395l.005.026s25.728-2.206,25.084-13.807c-.436-7.85-.295-6.4-.774-10.527" transform="translate(-90.706 -72.071)" fill="#b78876"/>
            </g>
          </g>
        </g>
      </g>
    </g>
  </g>
</svg>
