<svg xmlns="http://www.w3.org/2000/svg" width="193" height="204" viewBox="0 0 193 204">
  <g id="Grupo_1100663" data-name="Grupo 1100663" transform="translate(-1114.645 -1502.241)">
    <rect id="Rectángulo_401818" data-name="Rectángulo 401818" width="190" height="201" rx="40" transform="translate(1116.145 1503.741)" fill="none" stroke="#ff725d" stroke-miterlimit="10" stroke-width="3"/>
    <g id="Grupo_1100550" data-name="Grupo 1100550" transform="translate(1141.148 1539.148)">
      <path id="Trazado_875408" data-name="Trazado 875408" d="M1,118.058a2.232,2.232,0,0,0,2.226,2.226h133.54a2.232,2.232,0,0,0,2.226-2.226V9H1Z" transform="translate(0 4.903)" fill="#f6f6f6"/>
      <path id="Trazado_875409" data-name="Trazado 875409" d="M138.992,9.451V13.9H1V9.451A4.437,4.437,0,0,1,5.451,5H134.54A4.437,4.437,0,0,1,138.992,9.451Z" transform="translate(0)" fill="#afafaf"/>
      <g id="Grupo_1100549" data-name="Grupo 1100549" transform="translate(5.454 7.221)">
        <path id="Trazado_875410" data-name="Trazado 875410" d="M5.238,6H5.216a2.237,2.237,0,1,0,.022,0Z" transform="translate(-3.001 -5.998)" fill="#e6e9ed"/>
        <path id="Trazado_875411" data-name="Trazado 875411" d="M8.237,6H8.215a2.237,2.237,0,1,0,.022,0Z" transform="translate(0.675 -5.998)" fill="#e6e9ed"/>
        <path id="Trazado_875412" data-name="Trazado 875412" d="M11.24,6h-.022a2.237,2.237,0,1,0,.022,0Z" transform="translate(4.355 -5.998)" fill="#e6e9ed"/>
      </g>
      <path id="Trazado_875413" data-name="Trazado 875413" d="M71.2,21.124a31.161,31.161,0,1,1-44.071,0,31.149,31.149,0,0,1,44.071,0Z" transform="translate(20.832 8.57)" fill="#ff725d"/>
      <path id="Trazado_875414" data-name="Trazado 875414" d="M55.875,21.116A31.074,31.074,0,0,0,30.5,12.178a31.149,31.149,0,0,1,0,61.943,31.152,31.152,0,0,0,25.377-53Z" transform="translate(36.155 8.577)" fill="#ff725d"/>
      <path id="Trazado_875415" data-name="Trazado 875415" d="M112.629,47.458H10.217a2.226,2.226,0,1,1,0-4.451H112.629a2.226,2.226,0,0,1,0,4.451Z" transform="translate(8.569 46.584)" fill="#ccd1d9"/>
      <path id="Trazado_875416" data-name="Trazado 875416" d="M81.56,50.459H19.219a2.226,2.226,0,0,1,0-4.451H81.56a2.226,2.226,0,1,1,0,4.451Z" transform="translate(19.602 50.262)" fill="#ccd1d9"/>
      <path id="Trazado_875417" data-name="Trazado 875417" d="M28.277,46.526a2.226,2.226,0,0,1-1.574-3.8L48.731,20.7a2.225,2.225,0,0,1,3.147,3.147L29.851,45.874a2.21,2.21,0,0,1-1.574.652Z" transform="translate(30.704 18.445)" fill="#fff"/>
      <path id="Trazado_875418" data-name="Trazado 875418" d="M50.3,46.526a2.22,2.22,0,0,1-1.574-.652L26.7,23.849A2.225,2.225,0,0,1,29.851,20.7L51.878,42.727a2.226,2.226,0,0,1-1.574,3.8Z" transform="translate(30.704 18.445)" fill="#fff"/>
      <path id="Trazado_875419" data-name="Trazado 875419" d="M21.491,52.5h46.77v2.228H21.491Z" transform="translate(25.115 58.224)" fill="#545c66"/>
      <path id="Trazado_875420" data-name="Trazado 875420" d="M63.81,51.505H25.942a4.451,4.451,0,1,0,0,8.9H63.81a4.451,4.451,0,1,0,0-8.9Z" transform="translate(25.115 57)" fill="#545c66"/>
      <path id="Trazado_875421" data-name="Trazado 875421" d="M63.81,50.5H25.942a4.451,4.451,0,1,0,0,8.9H63.81a4.451,4.451,0,1,0,0-8.9Z" transform="translate(25.115 55.773)" fill="#656d78"/>
    </g>
  </g>
</svg>
