<svg xmlns="http://www.w3.org/2000/svg" xmlns:xlink="http://www.w3.org/1999/xlink" width="191.526" height="215.3" viewBox="0 0 191.526 215.3">
  <defs>
    <clipPath id="clip-path">
      <rect id="Rectángulo_401165" data-name="Rectángulo 401165" width="171.044" height="215.3" fill="none"/>
    </clipPath>
    <clipPath id="clip-path-3">
      <rect id="Rectángulo_401112" data-name="Rectángulo 401112" width="112.468" height="136.202" fill="none"/>
    </clipPath>
    <clipPath id="clip-path-4">
      <rect id="Rectángulo_401115" data-name="Rectángulo 401115" width="8.39" height="39.458" fill="none"/>
    </clipPath>
    <clipPath id="clip-path-5">
      <rect id="Rectángulo_401116" data-name="Rectángulo 401116" width="30.208" height="39.866" fill="none"/>
    </clipPath>
    <clipPath id="clip-path-6">
      <rect id="Rectángulo_401117" data-name="Rectángulo 401117" width="29.042" height="10.971" fill="none"/>
    </clipPath>
    <clipPath id="clip-path-7">
      <rect id="Rectángulo_401123" data-name="Rectángulo 401123" width="6.769" height="8.462" fill="none"/>
    </clipPath>
    <clipPath id="clip-path-9">
      <rect id="Rectángulo_401126" data-name="Rectángulo 401126" width="37.342" height="0.31" fill="none"/>
    </clipPath>
    <clipPath id="clip-path-13">
      <rect id="Rectángulo_401135" data-name="Rectángulo 401135" width="6.77" height="8.462" fill="none"/>
    </clipPath>
    <clipPath id="clip-path-15">
      <rect id="Rectángulo_401138" data-name="Rectángulo 401138" width="37.343" height="0.31" fill="none"/>
    </clipPath>
    <clipPath id="clip-path-16">
      <rect id="Rectángulo_401142" data-name="Rectángulo 401142" width="6.639" height="1.246" fill="none"/>
    </clipPath>
    <clipPath id="clip-path-18">
      <rect id="Rectángulo_401148" data-name="Rectángulo 401148" width="6.638" height="1.246" fill="none"/>
    </clipPath>
    <clipPath id="clip-path-20">
      <rect id="Rectángulo_401155" data-name="Rectángulo 401155" width="5.874" height="7.343" fill="none"/>
    </clipPath>
    <clipPath id="clip-path-22">
      <rect id="Rectángulo_401158" data-name="Rectángulo 401158" width="32.405" height="0.31" fill="none"/>
    </clipPath>
    <clipPath id="clip-path-23">
      <rect id="Rectángulo_401159" data-name="Rectángulo 401159" width="20.384" height="7.78" fill="none"/>
    </clipPath>
    <clipPath id="clip-path-24">
      <rect id="Rectángulo_401160" data-name="Rectángulo 401160" width="16.167" height="4.335" fill="none"/>
    </clipPath>
    <clipPath id="clip-path-25">
      <rect id="Rectángulo_401161" data-name="Rectángulo 401161" width="1.861" height="5.02" fill="none"/>
    </clipPath>
    <clipPath id="clip-path-26">
      <rect id="Rectángulo_401162" data-name="Rectángulo 401162" width="4.458" height="7.2" fill="none"/>
    </clipPath>
    <clipPath id="clip-path-27">
      <rect id="Rectángulo_401163" data-name="Rectángulo 401163" width="13.775" height="7.7" fill="none"/>
    </clipPath>
  </defs>
  <g id="Grupo_1100656" data-name="Grupo 1100656" transform="translate(4356.526 10239.66)">
    <g id="Grupo_1099531" data-name="Grupo 1099531" transform="translate(-4640 -12050)">
      <rect id="Rectángulo_401038" data-name="Rectángulo 401038" width="149" height="201" rx="40" transform="translate(284.974 1817.096)" fill="none" stroke="#ff725d" stroke-miterlimit="10" stroke-width="3"/>
      <g id="Grupo_1099530" data-name="Grupo 1099530" transform="translate(303.956 1810.34)">
        <g id="Grupo_1099317" data-name="Grupo 1099317" clip-path="url(#clip-path)">
          <g id="Grupo_1099287" data-name="Grupo 1099287">
            <g id="Grupo_1099286" data-name="Grupo 1099286" clip-path="url(#clip-path)">
              <path id="Trazado_873475" data-name="Trazado 873475" d="M115.786.1H68.931V0H18.242C12.94,4.031-.209,77.625,0,88.441s1.138,52,1.138,52l10.314,17.568L65.1,159.6v.114l1.973-.055,1.86.055v-.108l53.642-1.505,10.314-17.568s.926-41.18,1.138-52S121.089,4.129,115.786.1" transform="translate(0 0)" fill="#455a64"/>
              <g id="Grupo_1099240" data-name="Grupo 1099240" transform="translate(10.78 13.543)" opacity="0.3">
                <g id="Grupo_1099239" data-name="Grupo 1099239">
                  <g id="Grupo_1099238" data-name="Grupo 1099238" clip-path="url(#clip-path-3)">
                    <path id="Trazado_873476" data-name="Trazado 873476" d="M129.834,78.892c-.865-21.407-5.186-52.2-9.507-54.25-3.483-1.655-32.634-1.785-43.8-1.773v-.083s-43.815-.293-48.134,1.759S19.75,57.388,18.885,78.8s-1.151,55.129,0,68.168S30.7,158.85,30.7,158.85s30.961,0,41.82.015v.108c1.184-.026,45.508-.026,45.508-.026s10.659,1.15,11.811-11.888.865-46.761,0-68.168" transform="translate(-18.125 -22.771)"/>
                  </g>
                </g>
              </g>
              <path id="Trazado_873477" data-name="Trazado 873477" d="M133.474,236.223l-131.747-.1s-1.41,11.051,2.1,16.935a6.4,6.4,0,0,0,5.505,3.087H65.349v.1h60.516a6.4,6.4,0,0,0,5.5-3.088c3.516-5.883,2.105-16.935,2.105-16.935" transform="translate(-0.587 -95.686)" fill="#263238"/>
              <rect id="Rectángulo_401113" data-name="Rectángulo 401113" width="18.161" height="33.626" transform="translate(113.266 151.251)" fill="#263238"/>
              <rect id="Rectángulo_401114" data-name="Rectángulo 401114" width="6.299" height="4.33" transform="translate(121.955 152.348)" fill="#ff725e"/>
              <path id="Trazado_873478" data-name="Trazado 873478" d="M210.342,150.556c.118,0,5.568-.8,7.225,0s.718,41.446-.9,41.844-6.322,0-6.322,0Z" transform="translate(-85.238 -60.866)" fill="#ff725e"/>
              <g id="Grupo_1099243" data-name="Grupo 1099243" transform="translate(131.773 48.228)" opacity="0.3">
                <g id="Grupo_1099242" data-name="Grupo 1099242">
                  <g id="Grupo_1099241" data-name="Grupo 1099241" clip-path="url(#clip-path-4)">
                    <path id="Trazado_873479" data-name="Trazado 873479" d="M221.645,116.35c.559-3.572,2.284-22.556,3.042-31.027.211-2.363,1.51-4.149,3.076-4.234h2.183c-1.566.085-2.864,1.871-3.076,4.234-.758,8.471-2.483,27.456-3.042,31.027s1.621,4.117,2.66,4.187H224.83s-3.909.44-3.185-4.186" transform="translate(-221.555 -81.088)"/>
                  </g>
                </g>
              </g>
              <path id="Trazado_873480" data-name="Trazado 873480" d="M176.006,260.706a.69.69,0,0,1-.048.156l-.17.448a17.708,17.708,0,0,1-.729,1.706,6.752,6.752,0,0,1-1.894,2.267,5.525,5.525,0,0,1-3.78,1.027h.017l-25.57.05-24.711-.045-7.489-.049-2.036-.029-.529-.015a.818.818,0,0,1-.181-.016.794.794,0,0,1,.181-.016l.529-.015,2.036-.029,7.489-.049,24.711-.046,25.57.05h.018a5.376,5.376,0,0,0,3.648-.953,6.727,6.727,0,0,0,1.889-2.186c.38-.7.6-1.292.776-1.675l.2-.438a.677.677,0,0,1,.076-.145" transform="translate(-44.125 -105.647)" fill="#455a64"/>
              <path id="Trazado_873481" data-name="Trazado 873481" d="M108.107,10.458c0-.086,12.19-.155,27.225-.155s27.227.069,27.227.155-12.188.155-27.227.155-27.225-.069-27.225-.155" transform="translate(-43.809 -4.175)" fill="#263238"/>
              <path id="Trazado_873482" data-name="Trazado 873482" d="M224.739,170.169s-7.718,1.175-8.552-12.134-.627-47.732,0-69.583,3.755-53.281,6.883-55.376,34.853-1.8,34.853-1.8.858,138.942,0,138.916-33.184-.026-33.184-.026" transform="translate(-87.384 -12.67)" fill="#455a64"/>
              <path id="Trazado_873483" data-name="Trazado 873483" d="M224.67,170.064s.3-.01.884-.015l2.6-.013,10-.021L254,170h3.831c-.011.011.083-.024-.032.023-.015.021.013-.06.014-.1l.018-.148c.02-.2.033-.405.044-.61.08-1.643.1-3.346.13-5.1.049-3.5.07-7.2.086-11.094.088-31.113-.121-74.143-.39-121.8l.153.154-2.569-.013c-6.03-.01-11.989.045-17.857.243-2.933.1-5.845.237-8.721.491a36.054,36.054,0,0,0-4.257.582c-.682.168-1.423.3-1.753.9a8.763,8.763,0,0,0-.833,1.918,61.36,61.36,0,0,0-1.788,8.23c-.448,2.752-.813,5.491-1.141,8.2-.651,5.43-1.147,10.762-1.554,15.969s-.715,10.294-.933,15.238-.31,9.749-.42,14.4c-.192,9.291-.3,17.948-.333,25.85s-.017,15.052.077,21.329c.054,3.139.111,6.059.212,8.746a65.641,65.641,0,0,0,.521,7.324,15.484,15.484,0,0,0,1.813,5.529,7.881,7.881,0,0,0,2.958,3.018,6.337,6.337,0,0,0,2.5.772,4.815,4.815,0,0,0,.671.021c.151,0,.227-.01.227-.01a3.809,3.809,0,0,1-.9.02,6.269,6.269,0,0,1-2.527-.748,7.919,7.919,0,0,1-3.007-3.027,15.515,15.515,0,0,1-1.853-5.557,65.13,65.13,0,0,1-.55-7.338c-.109-2.688-.175-5.609-.237-8.748-.11-6.278-.146-13.429-.123-21.332s.114-16.562.295-25.855c.1-4.646.193-9.453.406-14.4s.519-10.037.921-15.248.9-10.548,1.545-15.983c.327-2.717.692-5.46,1.139-8.218a61.506,61.506,0,0,1,1.8-8.277,9.011,9.011,0,0,1,.868-1.991,2.079,2.079,0,0,1,.377-.438,2.617,2.617,0,0,1,.507-.285l.525-.174.53-.129a36.4,36.4,0,0,1,4.3-.59c2.886-.255,5.8-.39,8.738-.494,5.874-.2,11.835-.254,17.868-.244l2.572.013h.153v.153c.268,47.658.441,90.688.3,121.8-.023,3.889-.052,7.593-.108,11.1-.032,1.752-.058,3.452-.142,5.1-.012.206-.025.412-.046.619l-.02.156a.441.441,0,0,1-.064.2c-.134.065-.07.019-.1.033h-.267l-1.207,0-2.355,0-15.834-.039-10-.036-2.6-.018c-.586-.005-.887-.016-.887-.016" transform="translate(-87.314 -12.565)" fill="#263238"/>
              <path id="Trazado_873484" data-name="Trazado 873484" d="M282.971,31.265V169.9h2.239V31.28Z" transform="translate(-114.67 -12.67)" fill="#263238"/>
              <g id="Grupo_1099246" data-name="Grupo 1099246" transform="translate(132.096 48.049)" opacity="0.3">
                <g id="Grupo_1099245" data-name="Grupo 1099245">
                  <g id="Grupo_1099244" data-name="Grupo 1099244" clip-path="url(#clip-path-5)">
                    <path id="Trazado_873485" data-name="Trazado 873485" d="M225.374,120.641s-3.91.441-3.186-4.186c.559-3.572,2.284-22.556,3.042-31.027.212-2.363,1.51-4.148,3.077-4.234l21.443-.408a2.51,2.51,0,0,1,2.557,2.509v34.831a2.525,2.525,0,0,1-2.526,2.525Z" transform="translate(-222.098 -80.786)"/>
                  </g>
                </g>
              </g>
              <path id="Trazado_873486" data-name="Trazado 873486" d="M254.594,191.841c.026,7.062-.008,26-.023,33.165a2.8,2.8,0,0,1-2.8,2.792H228.684a2.8,2.8,0,0,1-2.609-1.778l-3.569-9.088a2.807,2.807,0,0,1-.194-1.024v-24.97a2.8,2.8,0,0,1,2.9-2.8l26.676.914a2.8,2.8,0,0,1,2.707,2.791" transform="translate(-90.089 -76.239)" fill="#263238"/>
              <g id="Grupo_1099249" data-name="Grupo 1099249" transform="translate(134.028 94.397)" opacity="0.3">
                <g id="Grupo_1099248" data-name="Grupo 1099248">
                  <g id="Grupo_1099247" data-name="Grupo 1099247" clip-path="url(#clip-path-6)">
                    <path id="Trazado_873487" data-name="Trazado 873487" d="M226.674,169.684h26.389a1.327,1.327,0,0,0,1.327-1.327v-8.318a1.327,1.327,0,0,0-1.327-1.327H226.674a1.327,1.327,0,0,0-1.327,1.327v8.318a1.327,1.327,0,0,0,1.327,1.327" transform="translate(-225.347 -158.713)"/>
                  </g>
                </g>
              </g>
              <rect id="Rectángulo_401118" data-name="Rectángulo 401118" width="18.161" height="33.626" transform="translate(2.602 151.152)" fill="#263238"/>
              <rect id="Rectángulo_401119" data-name="Rectángulo 401119" width="6.299" height="4.33" transform="translate(5.775 152.249)" fill="#ff725e"/>
              <path id="Trazado_873488" data-name="Trazado 873488" d="M9.489,150.389c-.118,0-5.568-.8-7.225,0s-.718,41.445.9,41.844,6.322,0,6.322,0Z" transform="translate(-0.565 -60.799)" fill="#ff725e"/>
              <path id="Trazado_873489" data-name="Trazado 873489" d="M3.61,260.54a.678.678,0,0,1,.076.145l.2.438c.175.382.4.971.776,1.675a6.733,6.733,0,0,0,1.889,2.186,5.377,5.377,0,0,0,3.648.953h.018l25.57-.05,24.711.045,7.488.049,2.036.029.529.016a.788.788,0,0,1,.181.016.777.777,0,0,1-.181.015l-.529.015-2.036.029-7.488.049-24.711.045-25.57-.049.017,0a5.522,5.522,0,0,1-3.78-1.027,6.752,6.752,0,0,1-1.894-2.267,17.7,17.7,0,0,1-.729-1.706l-.17-.448a.693.693,0,0,1-.048-.156" transform="translate(-1.463 -105.58)" fill="#455a64"/>
              <path id="Trazado_873490" data-name="Trazado 873490" d="M80.14,10.291c0,.086-12.19.155-27.225.155s-27.227-.069-27.227-.155,12.188-.155,27.227-.155,27.225.069,27.225.155" transform="translate(-10.41 -4.107)" fill="#263238"/>
              <rect id="Rectángulo_401120" data-name="Rectángulo 401120" width="35.268" height="7.406" transform="translate(49.38 151.256)" fill="#e0e0e0"/>
              <rect id="Rectángulo_401121" data-name="Rectángulo 401121" width="36.803" height="33.8" transform="translate(15.95 99.111)" fill="#e8e8e8"/>
              <path id="Trazado_873491" data-name="Trazado 873491" d="M63.517,200.334s-.01-.22-.015-.633-.008-1.03-.015-1.817c-.008-1.6-.02-3.918-.035-6.87-.017-5.91-.04-14.343-.068-24.481l.132.132-36.8.023h0l.155-.155c-.007,12.316-.014,23.894-.019,33.8l-.136-.136,26.612.068,7.508.036,1.99.016.514.008a1.7,1.7,0,0,1,.179.008,1.225,1.225,0,0,1-.164.008l-.5.008-1.963.016-7.477.036-26.7.068h-.136v-.136c-.005-9.906-.012-21.484-.019-33.8v-.155h.158l36.8.023h.133v.132c-.028,10.173-.052,18.635-.068,24.564-.015,2.94-.026,5.252-.034,6.84q-.01,1.165-.015,1.791c-.005.4-.015.6-.015.6" transform="translate(-10.762 -67.422)" fill="#263238"/>
              <g id="Grupo_1099252" data-name="Grupo 1099252" transform="translate(30.229 99.742)" opacity="0.3">
                <g id="Grupo_1099251" data-name="Grupo 1099251">
                  <g id="Grupo_1099250" data-name="Grupo 1099250" clip-path="url(#clip-path-7)">
                    <rect id="Rectángulo_401122" data-name="Rectángulo 401122" width="6.77" height="8.462" transform="translate(0 -0.001)" fill="#fff"/>
                  </g>
                </g>
              </g>
              <g id="Grupo_1099255" data-name="Grupo 1099255" transform="translate(30.229 124.054)" opacity="0.3">
                <g id="Grupo_1099254" data-name="Grupo 1099254">
                  <g id="Grupo_1099253" data-name="Grupo 1099253" clip-path="url(#clip-path-7)">
                    <rect id="Rectángulo_401124" data-name="Rectángulo 401124" width="6.77" height="8.462" transform="translate(0)" fill="#fff"/>
                  </g>
                </g>
              </g>
              <g id="Grupo_1099258" data-name="Grupo 1099258" transform="translate(15.407 114.861)" opacity="0.3">
                <g id="Grupo_1099257" data-name="Grupo 1099257">
                  <g id="Grupo_1099256" data-name="Grupo 1099256" clip-path="url(#clip-path-9)">
                    <path id="Trazado_873492" data-name="Trazado 873492" d="M63.247,193.276c0,.086-8.36.155-18.67.155s-18.672-.069-18.672-.155,8.358-.155,18.672-.155,18.67.069,18.67.155" transform="translate(-25.905 -193.12)"/>
                  </g>
                </g>
              </g>
              <rect id="Rectángulo_401127" data-name="Rectángulo 401127" width="36.803" height="33.8" transform="translate(15.95 65.161)" fill="#636363"/>
              <g id="Grupo_1099261" data-name="Grupo 1099261" transform="translate(30.229 65.791)" opacity="0.3">
                <g id="Grupo_1099260" data-name="Grupo 1099260">
                  <g id="Grupo_1099259" data-name="Grupo 1099259" clip-path="url(#clip-path-7)">
                    <rect id="Rectángulo_401128" data-name="Rectángulo 401128" width="6.77" height="8.462" transform="translate(0)" fill="#fff"/>
                  </g>
                </g>
              </g>
              <g id="Grupo_1099264" data-name="Grupo 1099264" transform="translate(30.229 90.104)" opacity="0.3">
                <g id="Grupo_1099263" data-name="Grupo 1099263">
                  <g id="Grupo_1099262" data-name="Grupo 1099262" clip-path="url(#clip-path-7)">
                    <rect id="Rectángulo_401130" data-name="Rectángulo 401130" width="6.77" height="8.462" transform="translate(0)" fill="#fff"/>
                  </g>
                </g>
              </g>
              <g id="Grupo_1099267" data-name="Grupo 1099267" transform="translate(15.407 80.911)" opacity="0.3">
                <g id="Grupo_1099266" data-name="Grupo 1099266">
                  <g id="Grupo_1099265" data-name="Grupo 1099265" clip-path="url(#clip-path-9)">
                    <path id="Trazado_873493" data-name="Trazado 873493" d="M63.247,136.194c0,.086-8.36.155-18.67.155s-18.672-.069-18.672-.155,8.358-.155,18.672-.155,18.67.069,18.67.155" transform="translate(-25.905 -136.038)"/>
                  </g>
                </g>
              </g>
              <rect id="Rectángulo_401133" data-name="Rectángulo 401133" width="36.804" height="33.8" transform="translate(52.227 99.111)" fill="#afafaf"/>
              <g id="Grupo_1099270" data-name="Grupo 1099270" transform="translate(66.506 99.742)" opacity="0.3">
                <g id="Grupo_1099269" data-name="Grupo 1099269">
                  <g id="Grupo_1099268" data-name="Grupo 1099268" clip-path="url(#clip-path-13)">
                    <rect id="Rectángulo_401134" data-name="Rectángulo 401134" width="6.77" height="8.462" transform="translate(0 -0.001)" fill="#fff"/>
                  </g>
                </g>
              </g>
              <g id="Grupo_1099273" data-name="Grupo 1099273" transform="translate(66.506 124.054)" opacity="0.3">
                <g id="Grupo_1099272" data-name="Grupo 1099272">
                  <g id="Grupo_1099271" data-name="Grupo 1099271" clip-path="url(#clip-path-13)">
                    <rect id="Rectángulo_401136" data-name="Rectángulo 401136" width="6.77" height="8.462" fill="#fff"/>
                  </g>
                </g>
              </g>
              <g id="Grupo_1099276" data-name="Grupo 1099276" transform="translate(51.684 114.861)" opacity="0.3">
                <g id="Grupo_1099275" data-name="Grupo 1099275">
                  <g id="Grupo_1099274" data-name="Grupo 1099274" clip-path="url(#clip-path-15)">
                    <path id="Trazado_873494" data-name="Trazado 873494" d="M124.241,193.276c0,.086-8.36.155-18.67.155s-18.672-.069-18.672-.155,8.358-.155,18.672-.155,18.67.069,18.67.155" transform="translate(-86.899 -193.12)"/>
                  </g>
                </g>
              </g>
              <rect id="Rectángulo_401139" data-name="Rectángulo 401139" width="74.758" height="4.391" transform="translate(14.273 129.556)" fill="#6f4439"/>
              <rect id="Rectángulo_401140" data-name="Rectángulo 401140" width="6.639" height="5.157" transform="translate(14.39 133.947)" fill="#6f4439"/>
              <g id="Grupo_1099279" data-name="Grupo 1099279" transform="translate(14.39 133.947)" opacity="0.3">
                <g id="Grupo_1099278" data-name="Grupo 1099278">
                  <g id="Grupo_1099277" data-name="Grupo 1099277" clip-path="url(#clip-path-16)">
                    <rect id="Rectángulo_401141" data-name="Rectángulo 401141" width="6.639" height="1.246" transform="translate(0)"/>
                  </g>
                </g>
              </g>
              <rect id="Rectángulo_401143" data-name="Rectángulo 401143" width="6.639" height="5.157" transform="translate(48.332 133.947)" fill="#6f4439"/>
              <g id="Grupo_1099282" data-name="Grupo 1099282" transform="translate(48.333 133.947)" opacity="0.3">
                <g id="Grupo_1099281" data-name="Grupo 1099281">
                  <g id="Grupo_1099280" data-name="Grupo 1099280" clip-path="url(#clip-path-16)">
                    <rect id="Rectángulo_401144" data-name="Rectángulo 401144" width="6.639" height="1.246" transform="translate(0)"/>
                  </g>
                </g>
              </g>
              <rect id="Rectángulo_401146" data-name="Rectángulo 401146" width="6.639" height="5.157" transform="translate(82.392 133.947)" fill="#6f4439"/>
              <g id="Grupo_1099285" data-name="Grupo 1099285" transform="translate(82.393 133.947)" opacity="0.3">
                <g id="Grupo_1099284" data-name="Grupo 1099284">
                  <g id="Grupo_1099283" data-name="Grupo 1099283" clip-path="url(#clip-path-18)">
                    <rect id="Rectángulo_401147" data-name="Rectángulo 401147" width="6.639" height="1.246" transform="translate(-0.001)"/>
                  </g>
                </g>
              </g>
            </g>
          </g>
          <g id="Grupo_1099316" data-name="Grupo 1099316">
            <g id="Grupo_1099315" data-name="Grupo 1099315" clip-path="url(#clip-path)">
              <path id="Trazado_873495" data-name="Trazado 873495" d="M144.63,340.307l.2,8.19s-8.728,2.895-8.847,4.411l16.788.3.248-12.771Z" transform="translate(-55.104 -137.904)" fill="#263238"/>
              <path id="Trazado_873496" data-name="Trazado 873496" d="M159.035,353.054a.65.65,0,0,1,.463.749.659.659,0,0,1-.777.438.685.685,0,0,1-.487-.8.693.693,0,0,1,.862-.37" transform="translate(-64.111 -143.058)" fill="#e0e0e0"/>
              <path id="Trazado_873497" data-name="Trazado 873497" d="M152.763,361.114l-.028-1.289-16.085.2s-.751.294-.674.795Z" transform="translate(-55.1 -145.814)" fill="#455a64"/>
              <path id="Trazado_873498" data-name="Trazado 873498" d="M150.4,353.888c0,.077.411.12.811.376s.61.586.686.557c.076-.014-.04-.48-.53-.782s-.984-.223-.967-.152" transform="translate(-60.947 -143.381)" fill="#fff"/>
              <path id="Trazado_873499" data-name="Trazado 873499" d="M147.422,355.021c-.02.075.333.213.607.546s.349.682.431.68c.077.014.14-.44-.209-.848s-.827-.451-.829-.378" transform="translate(-59.74 -143.855)" fill="#fff"/>
              <path id="Trazado_873500" data-name="Trazado 873500" d="M145.26,357.445c.074.018.194-.368-.011-.8s-.586-.6-.621-.541.2.3.36.649.19.679.271.688" transform="translate(-58.606 -144.302)" fill="#fff"/>
              <path id="Trazado_873501" data-name="Trazado 873501" d="M175.087,340.307l.2,8.19s-8.728,2.895-8.847,4.411l16.787.3.248-12.771Z" transform="translate(-67.446 -137.904)" fill="#263238"/>
              <path id="Trazado_873502" data-name="Trazado 873502" d="M189.491,353.054a.649.649,0,0,1,.463.749.658.658,0,0,1-.777.438.685.685,0,0,1-.487-.8.694.694,0,0,1,.864-.37" transform="translate(-76.453 -143.058)" fill="#e0e0e0"/>
              <path id="Trazado_873503" data-name="Trazado 873503" d="M183.219,361.114l-.029-1.289-16.085.2s-.752.294-.674.795Z" transform="translate(-67.442 -145.814)" fill="#455a64"/>
              <path id="Trazado_873504" data-name="Trazado 873504" d="M180.855,353.888c0,.077.411.12.811.376s.61.586.686.557c.076-.014-.04-.48-.53-.782s-.984-.223-.967-.152" transform="translate(-73.289 -143.381)" fill="#fff"/>
              <path id="Trazado_873505" data-name="Trazado 873505" d="M177.877,355.021c-.02.075.334.213.607.546s.349.682.431.68c.077.014.14-.44-.209-.848s-.827-.451-.83-.378" transform="translate(-72.082 -143.855)" fill="#fff"/>
              <path id="Trazado_873506" data-name="Trazado 873506" d="M175.716,357.445c.074.018.194-.368-.011-.8s-.586-.6-.621-.541.2.3.36.649.19.679.271.688" transform="translate(-70.948 -144.302)" fill="#fff"/>
              <path id="Trazado_873507" data-name="Trazado 873507" d="M180.26,233.235c.786,6.4-.431,17.775-1.775,29.465,0,0,.837,6.294,1.13,11.54s-.212,24.251-.212,24.251H171.59l-6.052-33.372-2.451-27.909-7.313-7.251v-4.012s19.6-5.4,19.891-5.246,4.953,6.655,4.595,12.534" transform="translate(-63.125 -89.434)" fill="#263238"/>
              <path id="Trazado_873508" data-name="Trazado 873508" d="M145.388,266.861l5.692-34.606,13.392,7.473.331,5.9-7.876,26.9-.094,30.643h-8.98l-1.85-6.58.948-1.638Z" transform="translate(-58.916 -94.118)" fill="#263238"/>
              <path id="Trazado_873509" data-name="Trazado 873509" d="M150.358,243.746c.084.014-.737,5.433-1.834,12.1s-2.055,12.067-2.14,12.053.737-5.432,1.834-12.1,2.055-12.065,2.139-12.052" transform="translate(-59.318 -98.775)" fill="#455a64"/>
              <path id="Trazado_873510" data-name="Trazado 873510" d="M178.93,253.261a1.821,1.821,0,0,1-.13.478,6.513,6.513,0,0,1-.649,1.216,15.137,15.137,0,0,1-3.3,3.407l.055-.081a26.443,26.443,0,0,1-.952,2.647c-.977,2.4-1.832,4.577-2.375,6.181-.272.8-.48,1.455-.622,1.907a3.4,3.4,0,0,1-.247.7,3.369,3.369,0,0,1,.131-.728c.106-.464.283-1.129.529-1.944.491-1.628,1.319-3.831,2.3-6.229.361-.909.72-1.787.953-2.606l.015-.051.041-.031A16.573,16.573,0,0,0,178,254.849a11.145,11.145,0,0,0,.932-1.588" transform="translate(-69.175 -102.63)" fill="#455a64"/>
              <path id="Trazado_873511" data-name="Trazado 873511" d="M194.84,281.762a4.475,4.475,0,0,1-.072-.709c-.041-.462-.1-1.139-.191-2-.186-1.718-.5-4.169-.987-7.085l0-.015v-.015c.159-2.789.486-6.055.846-9.532.565-5.341,1.035-10.179,1.159-13.692.064-1.756.036-3.177-.023-4.157-.017-.491-.083-.867-.1-1.125a1.785,1.785,0,0,1-.02-.4,1.977,1.977,0,0,1,.081.387c.036.256.121.633.158,1.125a36.717,36.717,0,0,1,.121,4.173c-.067,3.526-.5,8.377-1.069,13.718-.361,3.476-.7,6.738-.887,9.516l0-.03c.458,2.929.739,5.387.878,7.115.073.863.1,1.544.118,2.009a4.69,4.69,0,0,1-.011.713" transform="translate(-78.448 -98.487)" fill="#455a64"/>
              <path id="Trazado_873512" data-name="Trazado 873512" d="M166.033,156.592a9,9,0,0,0-3.609.717L147.183,163.9l-7.828-11.419-4.783,1.365s5.684,17.138,9.11,19.712c2.421,1.818,9.428-1.383,14.148-3.117,2.6-.956,6.647-1.781,9.318-3.078l2.684-8.851a4.59,4.59,0,0,0-3.8-1.916" transform="translate(-54.533 -61.789)" fill="#ff9b6c"/>
              <path id="Trazado_873513" data-name="Trazado 873513" d="M136.373,139.243a1.875,1.875,0,0,0-1.019,1.805,1.067,1.067,0,0,1-.788,1.013,30.006,30.006,0,0,1-1.943-3.348c-.488-1.156-1.239-3.657-1.879-4.123s-1.257-.267-.919.587,1.253,3.739,1.018,3.942-3.258-3.837-3.67-3.7-1.134.566-.246,1.406a27.712,27.712,0,0,1,2.417,3.036s-3.211-2.907-3.534-2.295,0,.89.519,1.414,2.324,2.957,2.324,2.957-2.844-2.19-3.214-1.617-.4.71.2,1.136,5.37,5.482,5.555,5.64l1.947,1.665,2.719-2.842.275-1.224a18.9,18.9,0,0,0,.771-3.947c-.094-.969.128-1.75-.528-1.5" transform="translate(-50.724 -54.441)" fill="#ff9b6c"/>
              <path id="Trazado_873514" data-name="Trazado 873514" d="M165.979,175.156l-2.816-12.077s9.676-4.54,11.5-5.279c2.533-1.026,6.447-.009,7.286,2.179,2.612,6.808-2.782,9.737-2.782,9.737Z" transform="translate(-66.119 -63.784)" fill="#e0e0e0"/>
              <path id="Trazado_873515" data-name="Trazado 873515" d="M179.027,232.708a34.24,34.24,0,0,1-14.879,2.725c-7.862-.528-9.74-1.75-9.74-1.75l.328-2,23.755-.834Z" transform="translate(-62.571 -93.549)"/>
              <rect id="Rectángulo_401150" data-name="Rectángulo 401150" width="12.084" height="29.394" transform="translate(83.412 68.653)" fill="#abb4c0"/>
              <path id="Trazado_873516" data-name="Trazado 873516" d="M152.333,144.828H140.219V115.4h12.114Zm-12.083-.03H152.3V115.433H140.249Z" transform="translate(-56.822 -46.766)" fill="#263238"/>
              <rect id="Rectángulo_401153" data-name="Rectángulo 401153" width="31.938" height="29.332" transform="translate(52.067 68.716)" fill="#d3d3d3"/>
              <path id="Trazado_873517" data-name="Trazado 873517" d="M119.374,144.761s-.01-.193-.015-.551-.008-.9-.015-1.578c-.008-1.389-.02-3.4-.035-5.964-.017-5.13-.04-12.445-.068-21.239l.132.132-31.935.023h0l.155-.155c-.007,10.688-.014,20.735-.019,29.332l-.136-.136,23.088.068,6.517.036,1.728.016.448.008a1.3,1.3,0,0,1,.156.008.906.906,0,0,1-.141.008l-.433.008-1.7.016-6.486.036-23.175.068H87.3v-.136c-.005-8.6-.012-18.644-.019-29.332l.155-.155h0l31.935.023h.133v.132c-.028,8.829-.051,16.172-.068,21.323-.015,2.547-.026,4.552-.035,5.933q-.01,1.006-.015,1.554c-.005.349-.015.522-.015.522" transform="translate(-35.369 -46.713)" fill="#263238"/>
              <g id="Grupo_1099293" data-name="Grupo 1099293" transform="translate(64.458 69.263)" opacity="0.3">
                <g id="Grupo_1099292" data-name="Grupo 1099292">
                  <g id="Grupo_1099291" data-name="Grupo 1099291" clip-path="url(#clip-path-20)">
                    <rect id="Rectángulo_401154" data-name="Rectángulo 401154" width="5.874" height="7.344" transform="translate(0 -0.001)" fill="#fff"/>
                  </g>
                </g>
              </g>
              <g id="Grupo_1099296" data-name="Grupo 1099296" transform="translate(64.458 90.361)" opacity="0.3">
                <g id="Grupo_1099295" data-name="Grupo 1099295">
                  <g id="Grupo_1099294" data-name="Grupo 1099294" clip-path="url(#clip-path-20)">
                    <rect id="Rectángulo_401156" data-name="Rectángulo 401156" width="5.874" height="7.344" transform="translate(0 -0.001)" fill="#fff"/>
                  </g>
                </g>
              </g>
              <g id="Grupo_1099299" data-name="Grupo 1099299" transform="translate(51.595 82.363)" opacity="0.3">
                <g id="Grupo_1099298" data-name="Grupo 1099298">
                  <g id="Grupo_1099297" data-name="Grupo 1099297" clip-path="url(#clip-path-22)">
                    <path id="Trazado_873518" data-name="Trazado 873518" d="M119.154,138.636c0,.086-7.255.155-16.2.155s-16.2-.069-16.2-.155,7.253-.155,16.2-.155,16.2.069,16.2.155" transform="translate(-86.749 -138.48)"/>
                  </g>
                </g>
              </g>
              <path id="Trazado_873519" data-name="Trazado 873519" d="M162.629,127.431a2.316,2.316,0,0,1,1.16-1.106c4.9-1.988,10.5-1.7,15.531-.062a5.161,5.161,0,0,1,3.3,2.287l.006.083a2.52,2.52,0,0,1-.81,2.406,5.311,5.311,0,0,1-2.276,1.06c-3.89,1-8,.636-11.949-.07a12.875,12.875,0,0,1-2.729-.715,4.962,4.962,0,0,1-2.219-1.7,2.005,2.005,0,0,1-.012-2.182" transform="translate(-65.775 -50.628)" fill="#ff725e"/>
              <g id="Grupo_1099302" data-name="Grupo 1099302" transform="translate(96.537 74.307)" opacity="0.3">
                <g id="Grupo_1099301" data-name="Grupo 1099301">
                  <g id="Grupo_1099300" data-name="Grupo 1099300" clip-path="url(#clip-path-23)">
                    <path id="Trazado_873520" data-name="Trazado 873520" d="M162.629,127.431a2.316,2.316,0,0,1,1.16-1.106c4.9-1.988,10.5-1.7,15.531-.062a5.161,5.161,0,0,1,3.3,2.287l.006.083a2.52,2.52,0,0,1-.81,2.406,5.311,5.311,0,0,1-2.276,1.06c-3.89,1-8,.636-11.949-.07a12.875,12.875,0,0,1-2.729-.715,4.962,4.962,0,0,1-2.219-1.7,2.005,2.005,0,0,1-.012-2.182" transform="translate(-162.312 -124.935)"/>
                  </g>
                </g>
              </g>
              <path id="Trazado_873521" data-name="Trazado 873521" d="M189.922,134.643a31,31,0,0,0,1.418-5.155,10.825,10.825,0,0,0-.352-5.287c-.09-.255-.871-1.967-1.141-1.944-.193.017.281,1.61.181,1.776a9.181,9.181,0,0,0-1.106,5.338,24.162,24.162,0,0,0,1,5.273" transform="translate(-76.547 -49.543)" fill="#263238"/>
              <path id="Trazado_873522" data-name="Trazado 873522" d="M166.06,125.2a8,8,0,0,1,7.677-7.669l.414-.017c4.476.082,6.906,3.928,6.7,8.4l-.271,14.446L170.043,144l.4-2.634s0-1.148-.009-1.148-4.319-.5-4.543-4.785c-.108-2.072.015-6.357.172-10.234" transform="translate(-67.207 -47.622)" fill="#ffc09d"/>
              <path id="Trazado_873523" data-name="Trazado 873523" d="M173.554,154.412a10.373,10.373,0,0,0,5.521-1.875s-1.215,3.238-5.512,3.023Z" transform="translate(-70.33 -61.813)" fill="#ff9b6c"/>
              <path id="Trazado_873524" data-name="Trazado 873524" d="M168.574,136.461a.613.613,0,0,0,.615.595.587.587,0,0,0,.61-.578.613.613,0,0,0-.615-.595.586.586,0,0,0-.61.578" transform="translate(-68.312 -55.065)" fill="#263238"/>
              <path id="Trazado_873525" data-name="Trazado 873525" d="M167.86,132.9c.079.077.53-.285,1.189-.31s1.156.286,1.225.2c.034-.037-.049-.178-.266-.324a1.68,1.68,0,0,0-.984-.261,1.616,1.616,0,0,0-.943.346c-.2.164-.259.311-.221.346" transform="translate(-68.018 -53.575)" fill="#263238"/>
              <path id="Trazado_873526" data-name="Trazado 873526" d="M178.385,136.376a.614.614,0,0,0,.616.595.586.586,0,0,0,.61-.578A.614.614,0,0,0,179,135.8a.587.587,0,0,0-.61.578" transform="translate(-72.288 -55.03)" fill="#263238"/>
              <path id="Trazado_873527" data-name="Trazado 873527" d="M178.739,132.914c.079.077.531-.285,1.19-.31s1.156.286,1.225.2c.033-.037-.049-.178-.267-.323a1.682,1.682,0,0,0-.984-.261,1.619,1.619,0,0,0-.943.347c-.2.164-.259.311-.221.345" transform="translate(-72.427 -53.58)" fill="#263238"/>
              <path id="Trazado_873528" data-name="Trazado 873528" d="M173.951,138.313a4.366,4.366,0,0,0-1.079-.15c-.169-.011-.329-.037-.363-.152a.859.859,0,0,1,.093-.5l.447-1.3a22.057,22.057,0,0,0,.984-3.4,22.065,22.065,0,0,0-1.256,3.311c-.149.457-.291.893-.426,1.309a.977.977,0,0,0-.061.665.425.425,0,0,0,.287.235,1.125,1.125,0,0,0,.288.028,4.293,4.293,0,0,0,1.085-.042" transform="translate(-69.802 -53.818)" fill="#263238"/>
              <path id="Trazado_873529" data-name="Trazado 873529" d="M177.019,142.7c-.108,0-.08.714-.673,1.247s-1.357.484-1.359.585c-.008.045.175.132.5.128a1.785,1.785,0,0,0,1.136-.447,1.552,1.552,0,0,0,.518-1.043c.015-.3-.071-.475-.12-.469" transform="translate(-70.911 -57.828)" fill="#263238"/>
              <path id="Trazado_873530" data-name="Trazado 873530" d="M178.624,128.511c.072.177.727.065,1.5.128.779.046,1.411.248,1.508.083.043-.079-.073-.243-.332-.407a2.627,2.627,0,0,0-2.3-.161c-.28.125-.417.272-.385.356" transform="translate(-72.383 -51.856)" fill="#263238"/>
              <path id="Trazado_873531" data-name="Trazado 873531" d="M168.165,129.17c.122.145.57-.029,1.116-.058.545-.048,1.012.061,1.113-.1.043-.078-.035-.225-.243-.359a1.618,1.618,0,0,0-1.8.127c-.187.162-.244.319-.19.39" transform="translate(-68.138 -52.048)" fill="#263238"/>
              <path id="Trazado_873532" data-name="Trazado 873532" d="M190.549,136.885c.072-.034,2.914-.99,2.938,1.948s-3.149,2.409-3.155,2.326.217-4.273.217-4.273" transform="translate(-77.129 -55.4)" fill="#ffc09d"/>
              <path id="Trazado_873533" data-name="Trazado 873533" d="M192.19,140.629c.013-.01.052.035.139.074a.509.509,0,0,0,.382,0,1.267,1.267,0,0,0,.577-1.141,1.69,1.69,0,0,0-.149-.732.59.59,0,0,0-.388-.39.26.26,0,0,0-.3.143c-.039.082-.019.141-.035.146s-.063-.049-.04-.17a.323.323,0,0,1,.114-.185.384.384,0,0,1,.282-.077.718.718,0,0,1,.538.451,1.731,1.731,0,0,1,.184.817,1.329,1.329,0,0,1-.736,1.275.547.547,0,0,1-.469-.074c-.092-.072-.108-.137-.1-.143" transform="translate(-77.881 -56.044)" fill="#ff9b6c"/>
              <path id="Trazado_873534" data-name="Trazado 873534" d="M169.343,119.985c-.475-.263.953-1.8,2.122-2.33a10.432,10.432,0,0,1,6.091-.828,7.08,7.08,0,0,1,4.571,3.319,11.554,11.554,0,0,1,1.292,5.9,3.506,3.506,0,0,1-.415,1.794c-.41.649-1.2,1.057-1.165,1.954a1.231,1.231,0,0,1-.306.9c-.538.572-1.195.034-1.5-.506a8.506,8.506,0,0,1-.771-3.843,8.6,8.6,0,0,1,.188-2.794c.144-.49.375-.952.492-1.449a1.762,1.762,0,0,0-.207-1.467,1.83,1.83,0,0,0-.238-.242,3.065,3.065,0,0,0-3.039-.581c-1.655.584-4.48,1.456-5.218.894a4.522,4.522,0,0,1-1.314-1.335Z" transform="translate(-68.586 -47.27)" fill="#263238"/>
              <path id="Trazado_873535" data-name="Trazado 873535" d="M166.238,127.937a10.189,10.189,0,0,1,4.7-1.121c7.266.169,11.339,2.809,11.339,2.809l.106-2.114s-10.609-2.217-10.683-2.221-3.275.514-3.351.54-1.975.317-1.975.317a6.056,6.056,0,0,0-.138,1.79" transform="translate(-67.357 -50.772)" fill="#455a64"/>
              <g id="Grupo_1099305" data-name="Grupo 1099305" transform="translate(98.861 74.518)" opacity="0.6">
                <g id="Grupo_1099304" data-name="Grupo 1099304">
                  <g id="Grupo_1099303" data-name="Grupo 1099303" clip-path="url(#clip-path-24)">
                    <path id="Trazado_873536" data-name="Trazado 873536" d="M166.238,127.937a10.189,10.189,0,0,1,4.7-1.121c7.266.169,11.339,2.809,11.339,2.809l.106-2.114s-10.609-2.217-10.683-2.221-3.275.514-3.351.54-1.975.317-1.975.317a6.056,6.056,0,0,0-.138,1.79" transform="translate(-166.218 -125.29)"/>
                  </g>
                </g>
              </g>
              <path id="Trazado_873537" data-name="Trazado 873537" d="M162.351,122.145s1.906-3.161,10.316-1.969c8.823,1.251,9.953,3.619,9.953,3.619s.626-2.011-.8-3.048a11,11,0,0,0-2.315-6.728,16.286,16.286,0,0,0-2.833-2.309l-.04-.593s-.6-.721-3.591-.849c-3.087-.131-3.729.818-3.729.818l-.081.526a9.912,9.912,0,0,0-5.336,8.222s-1.7,1.081-1.538,2.309" transform="translate(-65.786 -44.68)" fill="#0d66bf"/>
              <g id="Grupo_1099308" data-name="Grupo 1099308" transform="translate(109.019 66.438)" opacity="0.3">
                <g id="Grupo_1099307" data-name="Grupo 1099307">
                  <g id="Grupo_1099306" data-name="Grupo 1099306" clip-path="url(#clip-path-25)">
                    <path id="Trazado_873538" data-name="Trazado 873538" d="M185.119,111.705a6.519,6.519,0,0,0-1.559,2.416,17.091,17.091,0,0,0-.262,2.6c.583-2.857,1.009-3.258,1.861-4.428Z" transform="translate(-183.298 -111.705)"/>
                  </g>
                </g>
              </g>
              <path id="Trazado_873539" data-name="Trazado 873539" d="M182.865,126.341a.683.683,0,0,0-.167-.087l-.492-.216c-.214-.095-.478-.2-.792-.309s-.666-.247-1.069-.358a30.956,30.956,0,0,0-6.4-1.207,22.6,22.6,0,0,0-6.507.283c-.406.1-.773.2-1.088.305-.31.125-.582.218-.791.322l-.469.268a.634.634,0,0,0-.155.1.684.684,0,0,0,.176-.07l.481-.232c.212-.092.486-.173.793-.286.314-.1.68-.178,1.083-.274a24.127,24.127,0,0,1,6.462-.222,34.09,34.09,0,0,1,6.381,1.144c.4.1.756.232,1.072.328s.584.193.8.276l.5.181a.663.663,0,0,0,.182.051" transform="translate(-66.835 -50.272)" fill="#263238"/>
              <path id="Trazado_873540" data-name="Trazado 873540" d="M185.059,111.7a3.271,3.271,0,0,0-.582.548,4.236,4.236,0,0,0-1.055,1.629,5.764,5.764,0,0,0-.27,1.922,2.382,2.382,0,0,0,.1.8,4.895,4.895,0,0,0,.043-.794,7.019,7.019,0,0,1,.318-1.861,4.782,4.782,0,0,1,.972-1.6,3.132,3.132,0,0,0,.476-.641" transform="translate(-74.219 -45.266)" fill="#263238"/>
              <g id="Grupo_1099311" data-name="Grupo 1099311" transform="translate(110.814 67.97)" opacity="0.3">
                <g id="Grupo_1099310" data-name="Grupo 1099310">
                  <g id="Grupo_1099309" data-name="Grupo 1099309" clip-path="url(#clip-path-26)">
                    <path id="Trazado_873541" data-name="Trazado 873541" d="M186.349,114.755a.588.588,0,0,1,.085-.368.329.329,0,0,1,.332-.1.93.93,0,0,1,.32.172,9.454,9.454,0,0,1,3.687,6.842.156.156,0,0,1-.234.153,10.559,10.559,0,0,0-3.112-1.25c-.359-.086-.88-.07-1.026-.45a1.971,1.971,0,0,1-.084-.722q.016-2.14.033-4.281" transform="translate(-186.316 -114.281)" fill="#fff"/>
                  </g>
                </g>
              </g>
              <path id="Trazado_873542" data-name="Trazado 873542" d="M173.858,115.591a10.322,10.322,0,0,0,.007-1.731,10.3,10.3,0,0,0-.087-1.729,9.905,9.905,0,0,0,.08,3.46" transform="translate(-70.374 -45.439)" fill="#263238"/>
              <path id="Trazado_873543" data-name="Trazado 873543" d="M175.579,155.782s4.392,5.613,3.6,17.678c-.695,10.54-.589,12.439-.589,12.439l.7,21.352c-10.437.526-19.831.615-27.259-.121l2.811-37.575,4.47-8.5,2.832-.935.807-.88a6.8,6.8,0,0,1,3.523-2.334l8.766-1.83Z" transform="translate(-61.608 -62.843)" fill="#e0e0e0"/>
              <path id="Trazado_873544" data-name="Trazado 873544" d="M153.915,173.627l-2.25,31.071,27.329-1.5-.368-21.287s.827-12.113.368-16.6a24.812,24.812,0,0,0-3.949-10.452l-8.738,1.96a6.828,6.828,0,0,1,6.824,6.306l.051.665a21,21,0,0,1-.04,3.891c-.933,8.493-5.491,9.935-8.158,10.14a5.866,5.866,0,0,1-5.924-3.739l-2.437-6.32Z" transform="translate(-61.46 -62.754)" fill="#53bced"/>
              <path id="Trazado_873545" data-name="Trazado 873545" d="M152.4,224.436l26.61-.721.074,4.283-27.059,1.214Z" transform="translate(-61.607 -90.657)" fill="#fff"/>
              <path id="Trazado_873546" data-name="Trazado 873546" d="M153.221,213.394l26.052-1.025.073,4.493-26.4.639Z" transform="translate(-61.978 -86.059)" fill="#fff"/>
              <g id="Grupo_1099314" data-name="Grupo 1099314" transform="translate(92.146 107.583)" opacity="0.3">
                <g id="Grupo_1099313" data-name="Grupo 1099313">
                  <g id="Grupo_1099312" data-name="Grupo 1099312" clip-path="url(#clip-path-27)">
                    <path id="Trazado_873547" data-name="Trazado 873547" d="M154.929,188.58c4.812.13,9.47-3.469,13.775-7.7l-13.465,3Z" transform="translate(-154.929 -180.883)"/>
                  </g>
                </g>
              </g>
              <path id="Trazado_873548" data-name="Trazado 873548" d="M152.372,159.6a9.827,9.827,0,0,0-3.783.717L132.613,166.9l-8.206-11.419-5.013,1.365s5.957,17.138,9.549,19.712c2.538,1.818,9.882-1.383,14.83-3.117,2.727-.956,6.967-1.782,9.767-3.078l2.813-8.851a4.885,4.885,0,0,0-3.981-1.916" transform="translate(-48.383 -63.008)" fill="#ffc09d"/>
              <path id="Trazado_873549" data-name="Trazado 873549" d="M121.281,142.249a1.864,1.864,0,0,0-1.069,1.806,1.087,1.087,0,0,1-.826,1.012,29.678,29.678,0,0,1-2.036-3.348c-.512-1.156-1.3-3.657-1.97-4.123s-1.317-.267-.964.587,1.314,3.739,1.067,3.942-3.415-3.837-3.847-3.7-1.188.565-.258,1.405a27.949,27.949,0,0,1,2.533,3.036s-3.366-2.907-3.7-2.295,0,.89.544,1.414,2.436,2.957,2.436,2.957-2.981-2.19-3.368-1.617-.418.71.2,1.136,5.629,5.482,5.823,5.64l2.041,1.665,2.85-2.842.289-1.224a18.1,18.1,0,0,0,.807-3.947c-.1-.969.134-1.75-.553-1.5" transform="translate(-44.39 -55.659)" fill="#ffc09d"/>
              <path id="Trazado_873550" data-name="Trazado 873550" d="M152.314,178.163l-2.951-12.077s10.143-4.54,12.055-5.279c2.655-1.026,6.758-.009,7.637,2.179,2.738,6.808-2.916,9.737-2.916,9.737Z" transform="translate(-60.527 -65.002)" fill="#e0e0e0"/>
              <path id="Trazado_873551" data-name="Trazado 873551" d="M139.1,178.552a15.466,15.466,0,0,0,1.347-3.868,15.489,15.489,0,0,0-1.347,3.868" transform="translate(-56.365 -70.788)" fill="#ff9b6c"/>
              <path id="Trazado_873552" data-name="Trazado 873552" d="M166.139,172.645a1.214,1.214,0,0,0,.309-.139,7.844,7.844,0,0,0,3.144-3.208,6.474,6.474,0,0,0,.139-5.2c-.208-.458-.394-.933-.655-1.4a3.939,3.939,0,0,0-1.124-1.179,7.31,7.31,0,0,0-3.145-1.219,6.929,6.929,0,0,0-3.362.282c-1,.422-1.944.852-2.854,1.25l-4.818,2.142-3.238,1.465-.874.411a1.634,1.634,0,0,0-.3.16,1.52,1.52,0,0,0,.32-.11l.895-.364,3.271-1.385,4.837-2.086,2.853-1.233a6.719,6.719,0,0,1,3.23-.263,7.1,7.1,0,0,1,3.029,1.167,3.688,3.688,0,0,1,1.057,1.1c.247.437.438.912.642,1.353a6.315,6.315,0,0,1-.077,5.031A7.57,7.57,0,0,1,167.2,171.9c-.326.26-.6.437-.782.559a2.1,2.1,0,0,0-.281.186" transform="translate(-60.527 -64.923)" fill="#263238"/>
              <path id="Trazado_873553" data-name="Trazado 873553" d="M163.353,122.948a1.766,1.766,0,0,1,1.254-.961,2.415,2.415,0,0,1,2.9,1.857,1.028,1.028,0,0,1,1.042.059.955.955,0,0,1,.4.919l.642.04c-.142.564-.952.876-1.5,1.058a1.767,1.767,0,0,1-1.645-.308,1.478,1.478,0,1,1-2.666-1.232,1.152,1.152,0,0,1-.431-1.432" transform="translate(-66.159 -49.409)" fill="#263238"/>
            </g>
          </g>
        </g>
      </g>
    </g>
  </g>
</svg>
