<svg xmlns="http://www.w3.org/2000/svg" width="193" height="204" viewBox="0 0 193 204">
  <g id="Grupo_1100654" data-name="Grupo 1100654" transform="translate(-694.644 -2027.298)">
    <rect id="Rectángulo_401749" data-name="Rectángulo 401749" width="190" height="201" rx="40" transform="translate(696.144 2028.798)" fill="none" stroke="#ff725d" stroke-miterlimit="10" stroke-width="3"/>
    <g id="Grupo_1100442" data-name="Grupo 1100442" transform="translate(704.741 2046.525)">
      <path id="Trazado_875134" data-name="Trazado 875134" d="M157.426,79.937l6.426-4.309a2.591,2.591,0,0,1,3.3.322L177.1,85.9a2.591,2.591,0,0,1,.322,3.3l-4.309,6.426,5.466,13.192,7.589,1.5a2.591,2.591,0,0,1,2.106,2.562v14.064a2.592,2.592,0,0,1-2.106,2.562l-7.589,1.5-5.466,13.192,4.309,6.426a2.591,2.591,0,0,1-.322,3.3l-9.945,9.944a2.592,2.592,0,0,1-3.3.323l-6.426-4.309-13.192,5.466-1.5,7.59a2.591,2.591,0,0,1-2.562,2.106H126.112a2.592,2.592,0,0,1-2.562-2.106l-1.5-7.59-13.192-5.465-6.426,4.309a2.591,2.591,0,0,1-3.3-.323l-9.945-9.944a2.591,2.591,0,0,1-.322-3.3l4.309-6.426L87.71,131l-7.589-1.5a2.591,2.591,0,0,1-2.106-2.562V112.873a2.591,2.591,0,0,1,2.106-2.562l7.589-1.5,5.466-13.192L88.867,89.2a2.592,2.592,0,0,1,.322-3.3l9.945-9.945a2.592,2.592,0,0,1,3.3-.322l6.426,4.309,13.192-5.466,1.5-7.589a2.591,2.591,0,0,1,2.562-2.106h14.064a2.592,2.592,0,0,1,2.562,2.106l1.5,7.589,13.192,5.466Z" transform="translate(-45.524 -39.926)" fill="#0d66bf" fill-rule="evenodd"/>
      <path id="Trazado_875135" data-name="Trazado 875135" d="M157.426,79.938l4.663-3.127,10.6,10.6-5.5,8.209,5.466,13.192,9.7,1.912v18.358l-9.7,1.912-5.466,13.192,5.5,8.209-10.6,10.6-9.463-6.345L138.9,162.341l-2.5,12.694H126.111a2.591,2.591,0,0,1-2.562-2.106l-1.5-7.59-18.1-7.5-6.487,4.35-8.274-8.274a2.591,2.591,0,0,1-.322-3.3l4.309-6.426L87.71,131l-7.59-1.5a2.592,2.592,0,0,1-2.106-2.563V112.874a2.591,2.591,0,0,1,2.106-2.562l7.59-1.5,5.466-13.192L88.866,89.2a2.592,2.592,0,0,1,.322-3.3l8.274-8.274,6.487,4.35,4.91-2.034,13.192-5.466,1.5-7.589a2.591,2.591,0,0,1,2.562-2.106H136.4l2.5,12.694,13.725,5.686,4.8-3.219Z" transform="translate(-45.524 -39.927)" fill="#53bced" fill-rule="evenodd"/>
      <circle id="Elipse_11493" data-name="Elipse 11493" cx="34.228" cy="34.228" r="34.228" transform="translate(35.411 79.979) rotate(-45)" fill="#0d66bf"/>
      <circle id="Elipse_11494" data-name="Elipse 11494" cx="34.228" cy="34.228" r="34.228" transform="translate(39.204 79.979) rotate(-45)" fill="#fff"/>
      <path id="Trazado_875136" data-name="Trazado 875136" d="M232.5,177.391a2.12,2.12,0,1,1,4.241,0v39.078a2.12,2.12,0,0,1-4.241,0Zm-31.521,0a2.12,2.12,0,1,1,4.241,0v39.078a2.12,2.12,0,0,1-4.241,0Zm15.76,0a2.12,2.12,0,1,1,4.241,0v39.078a2.12,2.12,0,0,1-4.241,0Z" transform="translate(-131.243 -116.951)" fill="#909cd1" fill-rule="evenodd"/>
      <path id="Trazado_875137" data-name="Trazado 875137" d="M194.542,207.931a5.84,5.84,0,1,0-5.84-5.84A5.851,5.851,0,0,0,194.542,207.931Z" transform="translate(-122.684 -131.577)" fill="#ff725d" fill-rule="evenodd"/>
      <path id="Trazado_875138" data-name="Trazado 875138" d="M193.212,208.131a5.841,5.841,0,0,1,0-11.375,5.841,5.841,0,0,1,0,11.375Z" transform="translate(-122.684 -131.929)" fill="#ff725d" fill-rule="evenodd"/>
      <rect id="Rectángulo_401754" data-name="Rectángulo 401754" width="47.982" height="47.982" rx="14.293" transform="translate(12.709 88.852)" fill="#afafaf"/>
      <rect id="Rectángulo_401755" data-name="Rectángulo 401755" width="42.612" height="47.982" rx="14.293" transform="translate(12.709 88.852)" fill="#f6f6f6"/>
      <path id="Trazado_875139" data-name="Trazado 875139" d="M69.163,276.068H82.945v15.5H69.163Z" transform="translate(-39.354 -187.216)" fill="#abb4c0"/>
      <path id="Trazado_875140" data-name="Trazado 875140" d="M69.163,276.068h2.51v15.5h-2.51Z" transform="translate(-39.354 -187.216)" fill="#636363"/>
      <path id="Trazado_875141" data-name="Trazado 875141" d="M70.8,377.819H102.25a3.464,3.464,0,0,1,3.463,3.463v31.447a3.464,3.464,0,0,1-3.463,3.462H70.8a3.464,3.464,0,0,1-3.463-3.462V381.282a3.464,3.464,0,0,1,3.462-3.462Z" transform="translate(-38.083 -258.146)" fill="#afafaf"/>
      <path id="Trazado_875142" data-name="Trazado 875142" d="M70.8,377.819H97.877a3.464,3.464,0,0,1,3.462,3.462v31.447a3.464,3.464,0,0,1-3.463,3.463H70.8a3.464,3.464,0,0,1-3.462-3.462V381.281a3.464,3.464,0,0,1,3.462-3.462Z" transform="translate(-38.082 -258.146)" fill="#f6f6f6"/>
      <path id="Trazado_875143" data-name="Trazado 875143" d="M112.486,377.819h11.022v12.4H112.486Z" transform="translate(-69.554 -258.146)" fill="#afafaf"/>
      <path id="Trazado_875144" data-name="Trazado 875144" d="M112.486,377.819h2.125v12.4h-2.125Z" transform="translate(-69.554 -258.146)" fill="#636363"/>
      <g id="Grupo_1100441" data-name="Grupo 1100441" transform="translate(15.022 7.501)">
        <path id="Trazado_875145" data-name="Trazado 875145" d="M92.943,152.457a2.121,2.121,0,0,1,0-4.241A68.237,68.237,0,1,0,29.389,55.081L33.4,52.694a2.12,2.12,0,1,1,2.167,3.644l-8.963,5.328a2.118,2.118,0,0,1-3.111-1.2L20.44,50.5a2.121,2.121,0,1,1,4.054-1.245l1.152,3.759a72.49,72.49,0,1,1,67.3,99.444Z" transform="translate(-20.346 -7.501)" fill="#0d66bf" fill-rule="evenodd"/>
        <path id="Trazado_875146" data-name="Trazado 875146" d="M246.574,261.545a5.84,5.84,0,1,0-5.84-5.84A5.851,5.851,0,0,0,246.574,261.545Z" transform="translate(-173.977 -176.452)" fill="#ff725d" fill-rule="evenodd"/>
        <path id="Trazado_875147" data-name="Trazado 875147" d="M245.244,261.744a5.841,5.841,0,0,1,0-11.375,5.841,5.841,0,0,1,0,11.375Z" transform="translate(-173.977 -176.803)" fill="#ff725d" fill-rule="evenodd"/>
        <path id="Trazado_875148" data-name="Trazado 875148" d="M298.605,207.931a5.84,5.84,0,1,0-5.84-5.84A5.851,5.851,0,0,0,298.605,207.931Z" transform="translate(-210.248 -139.077)" fill="#ff725d" fill-rule="evenodd"/>
        <path id="Trazado_875149" data-name="Trazado 875149" d="M297.275,208.131a5.841,5.841,0,1,1,4.51-5.687A5.842,5.842,0,0,1,297.275,208.131Z" transform="translate(-210.248 -139.43)" fill="#ff725d" fill-rule="evenodd"/>
      </g>
    </g>
  </g>
</svg>
