<svg xmlns="http://www.w3.org/2000/svg" width="58.837" height="60.938" viewBox="0 0 58.837 60.938">
  <g id="Grupo_1100658" data-name="Grupo 1100658" transform="translate(-706.05 -3833.843)">
    <g id="curso2-1-acord2.52c9bc3e" transform="translate(705 3832.793)">
      <path id="Trazado_168732" data-name="Trazado 168732" d="M88,256h12.608v17.861H88Zm0,0" transform="translate(-76.443 -222.379)" fill="#ff725d"/>
      <path id="Trazado_168733" data-name="Trazado 168733" d="M120,256h4.2v4.2H120Zm0,0" transform="translate(-104.24 -222.379)" fill="#d3d3d3"/>
      <path id="Trazado_168734" data-name="Trazado 168734" d="M184,256h12.608v17.861H184Zm0,0" transform="translate(-159.835 -222.379)" fill="#53bced"/>
      <path id="Trazado_168735" data-name="Trazado 168735" d="M216,256h4.2v4.2H216Zm0,0" transform="translate(-187.632 -222.379)" fill="#d3d3d3"/>
      <path id="Trazado_168736" data-name="Trazado 168736" d="M280,256h12.608v17.861H280Zm0,0" transform="translate(-243.227 -222.379)" fill="#ff725d"/>
      <path id="Trazado_168737" data-name="Trazado 168737" d="M312,256h4.2v4.2H312Zm0,0" transform="translate(-271.025 -222.379)" fill="#d3d3d3"/>
      <path id="Trazado_168738" data-name="Trazado 168738" d="M88,48h12.608V60.608H88Zm0,0" transform="translate(-76.443 -41.697)" fill="#53bced"/>
      <path id="Trazado_168739" data-name="Trazado 168739" d="M120,48h4.2v4.2H120Zm0,0" transform="translate(-104.24 -41.697)" fill="#d3d3d3"/>
      <path id="Trazado_168740" data-name="Trazado 168740" d="M184,48h12.608V60.608H184Zm0,0" transform="translate(-159.835 -41.697)" fill="#ff725d"/>
      <path id="Trazado_168741" data-name="Trazado 168741" d="M216,48h4.2v4.2H216Zm0,0" transform="translate(-187.632 -41.697)" fill="#d3d3d3"/>
      <path id="Trazado_168742" data-name="Trazado 168742" d="M280,48h12.608V60.608H280Zm0,0" transform="translate(-243.227 -41.697)" fill="#53bced"/>
      <path id="Trazado_168743" data-name="Trazado 168743" d="M312,48h4.2v4.2H312Zm0,0" transform="translate(-271.025 -41.697)" fill="#d3d3d3"/>
      <path id="Trazado_168744" data-name="Trazado 168744" d="M192,160h10.506v6.3H192Zm0,0" transform="translate(-166.784 -138.987)" fill="#d3d3d3"/>
      <path id="Trazado_168745" data-name="Trazado 168745" d="M192,160.664h10.506v2.627H192Zm0,0" transform="translate(-166.784 -139.565)" fill="#fff"/>
      <path id="Trazado_168746" data-name="Trazado 168746" d="M8,384H66.837v4.2H8Zm0,0" transform="translate(-6.95 -333.569)" fill="#afafaf"/>
      <path id="Trazado_168747" data-name="Trazado 168747" d="M8,136H66.837v4.2H8Zm0,0" transform="translate(-6.95 -118.139)" fill="#afafaf"/>
      <path id="Trazado_168750" data-name="Trazado 168750" d="M10.1,8a2.1,2.1,0,0,1,2.1,2.1V68.938H8V10.1A2.1,2.1,0,0,1,10.1,8Zm0,0" transform="translate(-6.95 -6.95)" fill="#afafaf"/>
      <path id="Trazado_168751" data-name="Trazado 168751" d="M426.1,8a2.1,2.1,0,0,1,2.1,2.1V68.938H424V10.1A2.1,2.1,0,0,1,426.1,8Zm0,0" transform="translate(-368.315 -6.95)" fill="#afafaf"/>
    </g>
  </g>
</svg>
