<svg xmlns="http://www.w3.org/2000/svg" width="60.938" height="60.938" viewBox="0 0 60.938 60.938">
  <g id="Grupo_1100659" data-name="Grupo 1100659" transform="translate(-705 -4029.202)">
    <g id="Grupo_1100645" data-name="Grupo 1100645">
      <path id="Trazado_169052" data-name="Trazado 169052" d="M36.062,112H80.75a4.063,4.063,0,0,1,4.062,4.062v24.376a4.063,4.063,0,0,1-4.062,4.062H36.062A4.063,4.063,0,0,1,32,140.438V116.062A4.063,4.063,0,0,1,36.062,112Zm0,0" transform="translate(677.062 3931.421)" fill="#53bced"/>
      <path id="Trazado_169079" data-name="Trazado 169079" d="M24,109.078v24.375a5.084,5.084,0,0,0,5.078,5.078H73.765a5.084,5.084,0,0,0,5.078-5.078V109.078A5.084,5.084,0,0,0,73.765,104H29.078A5.084,5.084,0,0,0,24,109.078Zm52.812,0v24.375a3.047,3.047,0,0,1-3.047,3.047H29.078a3.047,3.047,0,0,1-3.047-3.047V109.078a3.047,3.047,0,0,1,3.047-3.047H73.765A3.047,3.047,0,0,1,76.812,109.078Zm0,0" transform="translate(684.047 3938.405)" fill="#ff725d"/>
      <g id="Grupo_110388" data-name="Grupo 110388" transform="translate(705 4029.202)">
        <path id="Trazado_169053" data-name="Trazado 169053" d="M11.172,0H1.015A1.015,1.015,0,0,0,0,1.015V11.172a1.016,1.016,0,1,0,2.031,0V2.031h9.141a1.016,1.016,0,1,0,0-2.031Zm0,0" fill="#2d75bb"/>
        <path id="Trazado_169054" data-name="Trazado 169054" d="M33.015,38.094a1.015,1.015,0,0,0,1.015-1.015V34.031h3.047a1.016,1.016,0,0,0,0-2.031H33.015A1.015,1.015,0,0,0,32,33.015v4.062A1.015,1.015,0,0,0,33.015,38.094Zm0,0" transform="translate(-27.938 -27.938)" fill="#2d75bb"/>
        <path id="Trazado_169055" data-name="Trazado 169055" d="M33.015,406.094h4.062a1.016,1.016,0,1,0,0-2.031H34.031v-3.047a1.016,1.016,0,0,0-2.031,0v4.062A1.015,1.015,0,0,0,33.015,406.094Zm0,0" transform="translate(-27.938 -349.218)" fill="#2d75bb"/>
        <path id="Trazado_169056" data-name="Trazado 169056" d="M401.015,406.094h4.062a1.015,1.015,0,0,0,1.015-1.015v-4.062a1.016,1.016,0,0,0-2.031,0v3.047h-3.047a1.016,1.016,0,0,0,0,2.031Zm0,0" transform="translate(-349.218 -349.219)" fill="#2d75bb"/>
        <path id="Trazado_169057" data-name="Trazado 169057" d="M405.079,32h-4.062a1.016,1.016,0,0,0,0,2.031h3.047v3.047a1.016,1.016,0,1,0,2.031,0V33.015A1.015,1.015,0,0,0,405.079,32Zm0,0" transform="translate(-349.219 -27.938)" fill="#2d75bb"/>
        <path id="Trazado_169058" data-name="Trazado 169058" d="M395.172,0H385.015a1.016,1.016,0,1,0,0,2.031h9.141v9.141a1.016,1.016,0,0,0,2.032,0V1.015A1.015,1.015,0,0,0,395.172,0Zm0,0" transform="translate(-335.25)" fill="#2d75bb"/>
        <path id="Trazado_169059" data-name="Trazado 169059" d="M395.172,384a1.015,1.015,0,0,0-1.015,1.015v9.141h-9.141a1.016,1.016,0,0,0,0,2.032h10.156a1.015,1.015,0,0,0,1.015-1.015V385.015A1.015,1.015,0,0,0,395.172,384Zm0,0" transform="translate(-335.25 -335.25)" fill="#2d75bb"/>
        <path id="Trazado_169060" data-name="Trazado 169060" d="M11.172,394.156H2.031v-9.141a1.016,1.016,0,1,0-2.031,0v10.156a1.015,1.015,0,0,0,1.015,1.015H11.172a1.016,1.016,0,0,0,0-2.032Zm0,0" transform="translate(0 -335.25)" fill="#2d75bb"/>
        <path id="Trazado_169061" data-name="Trazado 169061" d="M65.015,160.375A1.015,1.015,0,0,1,64,159.359V137.015a1.016,1.016,0,0,1,2.031,0v22.344A1.015,1.015,0,0,1,65.015,160.375Zm0,0" transform="translate(-55.875 -118.734)" fill="#2d75bb"/>
        <path id="Trazado_169062" data-name="Trazado 169062" d="M145.015,156.313A1.015,1.015,0,0,1,144,155.3v-18.28a1.016,1.016,0,1,1,2.031,0V155.3a1.015,1.015,0,0,1-1.016,1.018Zm0,0" transform="translate(-125.719 -118.734)" fill="#2d75bb"/>
        <path id="Trazado_169063" data-name="Trazado 169063" d="M97.015,156.313A1.015,1.015,0,0,1,96,155.3v-18.28a1.016,1.016,0,0,1,2.031,0V155.3a1.015,1.015,0,0,1-1.016,1.018Zm0,0" transform="translate(-83.813 -118.734)" fill="#2d75bb"/>
        <path id="Trazado_169064" data-name="Trazado 169064" d="M177.015,156.313A1.015,1.015,0,0,1,176,155.3v-18.28a1.016,1.016,0,0,1,2.031,0V155.3a1.015,1.015,0,0,1-1.016,1.018Zm0,0" transform="translate(-153.656 -118.734)" fill="#2d75bb"/>
        <path id="Trazado_169065" data-name="Trazado 169065" d="M209.015,156.313A1.015,1.015,0,0,1,208,155.3v-18.28a1.016,1.016,0,1,1,2.031,0V155.3a1.015,1.015,0,0,1-1.016,1.018Zm0,0" transform="translate(-181.594 -118.734)" fill="#2d75bb"/>
        <path id="Trazado_169066" data-name="Trazado 169066" d="M257.015,156.313A1.015,1.015,0,0,1,256,155.3v-18.28a1.016,1.016,0,0,1,2.032,0V155.3a1.015,1.015,0,0,1-1.016,1.018Zm0,0" transform="translate(-223.5 -118.734)" fill="#2d75bb"/>
        <path id="Trazado_169067" data-name="Trazado 169067" d="M321.015,156.313A1.015,1.015,0,0,1,320,155.3v-18.28a1.016,1.016,0,0,1,2.031,0V155.3a1.015,1.015,0,0,1-1.016,1.018Zm0,0" transform="translate(-279.375 -118.734)" fill="#2d75bb"/>
        <path id="Trazado_169068" data-name="Trazado 169068" d="M289.015,156.313A1.015,1.015,0,0,1,288,155.3v-18.28a1.016,1.016,0,1,1,2.031,0V155.3a1.015,1.015,0,0,1-1.016,1.018Zm0,0" transform="translate(-251.438 -118.734)" fill="#2d75bb"/>
        <path id="Trazado_169069" data-name="Trazado 169069" d="M369.015,156.313A1.015,1.015,0,0,1,368,155.3v-18.28a1.016,1.016,0,0,1,2.031,0V155.3a1.015,1.015,0,0,1-1.016,1.018Zm0,0" transform="translate(-321.282 -118.734)" fill="#2d75bb"/>
        <path id="Trazado_169070" data-name="Trazado 169070" d="M401.015,160.375A1.015,1.015,0,0,1,400,159.359V137.015a1.016,1.016,0,1,1,2.031,0v22.344a1.015,1.015,0,0,1-1.016,1.015Zm0,0" transform="translate(-349.219 -118.734)" fill="#2d75bb"/>
        <path id="Trazado_169071" data-name="Trazado 169071" d="M368,312h2.031v2.031H368Zm0,0" transform="translate(-321.282 -272.391)" fill="#2d75bb"/>
        <path id="Trazado_169072" data-name="Trazado 169072" d="M320,312h2.032v2.031H320Zm0,0" transform="translate(-279.375 -272.391)" fill="#2d75bb"/>
        <path id="Trazado_169073" data-name="Trazado 169073" d="M288,312h2.031v2.031H288Zm0,0" transform="translate(-251.438 -272.391)" fill="#2d75bb"/>
        <path id="Trazado_169074" data-name="Trazado 169074" d="M256,312h2.032v2.031H256Zm0,0" transform="translate(-223.5 -272.391)" fill="#2d75bb"/>
        <path id="Trazado_169075" data-name="Trazado 169075" d="M208,312h2.031v2.031H208Zm0,0" transform="translate(-181.594 -272.391)" fill="#2d75bb"/>
        <path id="Trazado_169076" data-name="Trazado 169076" d="M176,312h2.031v2.031H176Zm0,0" transform="translate(-153.656 -272.391)" fill="#2d75bb"/>
        <path id="Trazado_169077" data-name="Trazado 169077" d="M144,312h2.031v2.031H144Zm0,0" transform="translate(-125.719 -272.391)" fill="#2d75bb"/>
        <path id="Trazado_169078" data-name="Trazado 169078" d="M96,312h2.031v2.031H96Zm0,0" transform="translate(-83.813 -272.391)" fill="#2d75bb"/>
      </g>
      <path id="Trazado_169088" data-name="Trazado 169088" d="M64,159.359a1.016,1.016,0,0,0,2.031,0V137.015a1.016,1.016,0,0,0-2.031,0Zm0,0" transform="translate(649.125 3910.469)" fill="#ff725d"/>
      <path id="Trazado_169089" data-name="Trazado 169089" d="M145.015,156.313a1.015,1.015,0,0,0,1.015-1.015V137.015a1.016,1.016,0,1,0-2.031,0V155.3a1.015,1.015,0,0,0,1.016,1.018Zm0,0" transform="translate(579.281 3910.469)" fill="#ff725d"/>
      <path id="Trazado_169090" data-name="Trazado 169090" d="M97.015,156.313a1.015,1.015,0,0,0,1.015-1.015V137.015a1.016,1.016,0,0,0-2.031,0V155.3a1.015,1.015,0,0,0,1.016,1.018Zm0,0" transform="translate(621.188 3910.469)" fill="#ff725d"/>
      <path id="Trazado_169091" data-name="Trazado 169091" d="M177.015,156.313a1.015,1.015,0,0,0,1.015-1.015V137.015a1.016,1.016,0,0,0-2.031,0V155.3a1.015,1.015,0,0,0,1.016,1.018Zm0,0" transform="translate(551.344 3910.469)" fill="#ff725d"/>
      <path id="Trazado_169092" data-name="Trazado 169092" d="M209.015,156.313a1.015,1.015,0,0,0,1.015-1.015V137.015a1.016,1.016,0,1,0-2.031,0V155.3a1.015,1.015,0,0,0,1.016,1.018Zm0,0" transform="translate(523.407 3910.469)" fill="#ff725d"/>
      <path id="Trazado_169093" data-name="Trazado 169093" d="M257.015,156.313a1.015,1.015,0,0,0,1.015-1.015V137.015a1.016,1.016,0,1,0-2.031,0V155.3a1.015,1.015,0,0,0,1.016,1.018Zm0,0" transform="translate(481.5 3910.469)" fill="#ff725d"/>
      <path id="Trazado_169094" data-name="Trazado 169094" d="M321.015,156.313a1.015,1.015,0,0,0,1.015-1.015V137.015a1.016,1.016,0,0,0-2.031,0V155.3a1.015,1.015,0,0,0,1.016,1.018Zm0,0" transform="translate(425.625 3910.469)" fill="#ff725d"/>
      <path id="Trazado_169095" data-name="Trazado 169095" d="M289.015,156.313a1.015,1.015,0,0,0,1.015-1.015V137.015a1.016,1.016,0,0,0-2.031,0V155.3a1.015,1.015,0,0,0,1.016,1.018Zm0,0" transform="translate(453.563 3910.469)" fill="#ff725d"/>
      <path id="Trazado_169096" data-name="Trazado 169096" d="M369.015,156.313a1.015,1.015,0,0,0,1.015-1.015V137.015a1.016,1.016,0,0,0-2.031,0V155.3a1.015,1.015,0,0,0,1.016,1.018Zm0,0" transform="translate(383.719 3910.469)" fill="#ff725d"/>
      <path id="Trazado_169097" data-name="Trazado 169097" d="M401.015,160.375a1.015,1.015,0,0,0,1.015-1.015V137.015a1.016,1.016,0,1,0-2.031,0v22.344a1.015,1.015,0,0,0,1.016,1.015Zm0,0" transform="translate(355.782 3910.469)" fill="#ff725d"/>
      <path id="Trazado_169098" data-name="Trazado 169098" d="M368,312h2.031v2.031H368Zm0,0" transform="translate(383.718 3756.812)" fill="#ff725d"/>
      <path id="Trazado_169099" data-name="Trazado 169099" d="M320,312h2.032v2.031H320Zm0,0" transform="translate(425.625 3756.812)" fill="#ff725d"/>
      <path id="Trazado_169100" data-name="Trazado 169100" d="M288,312h2.031v2.031H288Zm0,0" transform="translate(453.563 3756.812)" fill="#ff725d"/>
      <path id="Trazado_169101" data-name="Trazado 169101" d="M256,312h2.032v2.031H256Zm0,0" transform="translate(481.5 3756.812)" fill="#ff725d"/>
      <path id="Trazado_169102" data-name="Trazado 169102" d="M208,312h2.031v2.031H208Zm0,0" transform="translate(523.406 3756.812)" fill="#ff725d"/>
      <path id="Trazado_169103" data-name="Trazado 169103" d="M176,312h2.031v2.031H176Zm0,0" transform="translate(551.344 3756.812)" fill="#ff725d"/>
      <path id="Trazado_169104" data-name="Trazado 169104" d="M144,312h2.031v2.031H144Zm0,0" transform="translate(579.281 3756.812)" fill="#ff725d"/>
      <path id="Trazado_169105" data-name="Trazado 169105" d="M96,312h2.031v2.031H96Zm0,0" transform="translate(621.188 3756.812)" fill="#ff725d"/>
    </g>
  </g>
</svg>
