<svg xmlns="http://www.w3.org/2000/svg" xmlns:xlink="http://www.w3.org/1999/xlink" width="191.526" height="208.031" viewBox="0 0 191.526 208.031">
  <defs>
    <clipPath id="clip-path">
      <rect id="Rectángulo_401212" data-name="Rectángulo 401212" width="176.605" height="168.11" fill="none"/>
    </clipPath>
    <clipPath id="clip-path-4">
      <rect id="Rectángulo_401180" data-name="Rectángulo 401180" width="29.099" height="37.997" fill="none"/>
    </clipPath>
    <clipPath id="clip-path-5">
      <rect id="Rectángulo_401181" data-name="Rectángulo 401181" width="5.444" height="6.699" fill="none"/>
    </clipPath>
    <clipPath id="clip-path-6">
      <rect id="Rectángulo_401186" data-name="Rectángulo 401186" width="12.663" height="27.157" fill="none"/>
    </clipPath>
    <clipPath id="clip-path-8">
      <rect id="Rectángulo_401199" data-name="Rectángulo 401199" width="26.184" height="29.242" fill="none"/>
    </clipPath>
  </defs>
  <g id="Grupo_1100657" data-name="Grupo 1100657" transform="translate(4356.526 9901.404)">
    <g id="Grupo_1099584" data-name="Grupo 1099584" transform="translate(-4640 -12050)">
      <rect id="Rectángulo_401039" data-name="Rectángulo 401039" width="149" height="201" rx="40" transform="translate(284.974 2150.096)" fill="none" stroke="#ff725d" stroke-miterlimit="10" stroke-width="3"/>
      <g id="Grupo_1099583" data-name="Grupo 1099583" transform="translate(298.395 2188.518)">
        <g id="Grupo_1099582" data-name="Grupo 1099582" clip-path="url(#clip-path)">
          <rect id="Rectángulo_401166" data-name="Rectángulo 401166" width="12.605" height="135.308" transform="translate(38.573)" fill="#263238"/>
          <rect id="Rectángulo_401167" data-name="Rectángulo 401167" width="12.605" height="135.308" transform="translate(120.733)" fill="#455a64"/>
          <rect id="Rectángulo_401168" data-name="Rectángulo 401168" width="76.983" height="4.544" transform="translate(43.749 13.27)" fill="#37474f"/>
          <rect id="Rectángulo_401169" data-name="Rectángulo 401169" width="76.983" height="4.544" transform="translate(43.749 42.644)" fill="#37474f"/>
          <rect id="Rectángulo_401170" data-name="Rectángulo 401170" width="76.983" height="4.544" transform="translate(43.749 72.017)" fill="#37474f"/>
          <rect id="Rectángulo_401171" data-name="Rectángulo 401171" width="76.983" height="4.544" transform="translate(43.749 101.39)" fill="#37474f"/>
          <rect id="Rectángulo_401172" data-name="Rectángulo 401172" width="76.983" height="4.544" transform="translate(43.749 130.764)" fill="#37474f"/>
          <rect id="Rectángulo_401173" data-name="Rectángulo 401173" width="23.858" height="24.599" transform="translate(52.66 18.043)" fill="#ebebeb"/>
          <rect id="Rectángulo_401174" data-name="Rectángulo 401174" width="12.319" height="24.601" transform="translate(76.518 18.043)" fill="#dbdbdb"/>
          <path id="Trazado_873554" data-name="Trazado 873554" d="M147.57,47.277h-.884l-.217-.44-.3.44-.412-.905-.39.905h-1.626l-.184-.6-.173.6h-.332v-5.71h4.523Z" transform="translate(-80.956 -23.525)" fill="#dbdbdb"/>
          <g id="Grupo_1099533" data-name="Grupo 1099533">
            <g id="Grupo_1099532" data-name="Grupo 1099532" clip-path="url(#clip-path)">
              <path id="Trazado_873555" data-name="Trazado 873555" d="M188.862,66.973q-1.369-2.624-2.712-5.265l-2.673-5.291L180.839,51.1q-1.313-2.661-2.6-5.341,1.369,2.623,2.712,5.264l2.673,5.291,2.638,5.315q1.313,2.661,2.6,5.341" transform="translate(-100.873 -25.899)" fill="#ebebeb"/>
              <path id="Trazado_873556" data-name="Trazado 873556" d="M188.862,45.761q-1.287,2.679-2.6,5.341l-2.638,5.315-2.673,5.291q-1.343,2.641-2.712,5.264,1.287-2.679,2.6-5.341l2.638-5.314,2.673-5.291q1.343-2.641,2.712-5.265" transform="translate(-100.873 -25.898)" fill="#ebebeb"/>
              <rect id="Rectángulo_401175" data-name="Rectángulo 401175" width="2.649" height="2.649" transform="translate(72.298 38.466)" fill="#fff"/>
              <rect id="Rectángulo_401176" data-name="Rectángulo 401176" width="23.858" height="15.301" transform="translate(67.684 56.716)" fill="#dbdbdb"/>
              <rect id="Rectángulo_401177" data-name="Rectángulo 401177" width="12.319" height="15.301" transform="translate(91.542 56.715)" fill="#c7c7c7"/>
              <path id="Trazado_873557" data-name="Trazado 873557" d="M182.183,136.373H181.3l-.217-.44-.3.44-.412-.905-.39.905H178.35l-.184-.6-.173.6h-.331v-5.71h4.522Z" transform="translate(-100.546 -73.948)" fill="#fff"/>
              <path id="Trazado_873558" data-name="Trazado 873558" d="M223.475,146.242q-1.369-1.667-2.712-3.346l-2.673-3.363-2.638-3.377q-1.313-1.692-2.6-3.395,1.369,1.667,2.712,3.346l2.673,3.363,2.638,3.377q1.313,1.692,2.6,3.394" transform="translate(-120.462 -75.135)" fill="#dbdbdb"/>
              <path id="Trazado_873559" data-name="Trazado 873559" d="M223.475,132.761q-1.287,1.7-2.6,3.394l-2.638,3.377-2.673,3.363q-1.343,1.679-2.712,3.346,1.287-1.7,2.6-3.395l2.638-3.377,2.673-3.363q1.343-1.679,2.712-3.346" transform="translate(-120.462 -75.135)" fill="#dbdbdb"/>
            </g>
          </g>
          <g id="Grupo_1099559" data-name="Grupo 1099559">
            <g id="Grupo_1099558" data-name="Grupo 1099558" clip-path="url(#clip-path)">
              <path id="Trazado_873560" data-name="Trazado 873560" d="M354.689,335.547c-.112-1.02-11.833-26.28-12.89-26.957-.4-.264-4.177,1.229-8.693,3.164l-.141.062c-.932.4-18.114,5.013-18.114,5.013l7.615,16.532,17.879-5.164.273-.135s8.811,7.662,10.052,8.285,4.134.218,4.019-.8" transform="translate(-178.187 -174.627)" fill="#c95f50"/>
              <path id="Trazado_873561" data-name="Trazado 873561" d="M349.056,312.778l7.833,16.231,2.812-.812.275-.133s8.812,7.662,10.052,8.284,4.137.218,4.018-.8-11.832-26.282-12.887-26.957c-.4-.266-4.18,1.225-8.7,3.163-.043.019-.09.043-.138.062-.233.1-1.5.466-3.268.96" transform="translate(-197.545 -174.628)" fill="#ebebeb"/>
              <path id="Trazado_873562" data-name="Trazado 873562" d="M378.555,335.433c-.112-1.03-11.859-26.577-12.923-27.268-.4-.264-4.223,1.229-8.788,3.166l7.526,16.493s8.873,7.77,10.121,8.4,4.175.237,4.064-.793" transform="translate(-201.953 -174.386)" fill="#ff725d"/>
              <path id="Trazado_873563" data-name="Trazado 873563" d="M388.768,337.517c-2.074-4.234-10.042-21.508-11.77-25.851-.014-.035.01-.046.027-.012,2.148,4.152,9.975,21.49,11.814,25.831.039.092-.026.121-.07.032" transform="translate(-213.356 -176.366)" fill="#263238"/>
              <path id="Trazado_873564" data-name="Trazado 873564" d="M393.134,363.453A3.786,3.786,0,0,1,393,360.41a3.666,3.666,0,0,1,1.846-2.008c.026-.011.048.036.023.052a4.376,4.376,0,0,0-1.684,4.975.03.03,0,0,1-.054.024" transform="translate(-222.271 -202.834)" fill="#263238"/>
              <path id="Trazado_873565" data-name="Trazado 873565" d="M375.926,349.427a6.569,6.569,0,0,1-.209-5.679c.036-.066.129-.015.126.048a26.074,26.074,0,0,0,.307,5.563.119.119,0,0,1-.224.068" transform="translate(-212.319 -194.524)" fill="#263238"/>
              <path id="Trazado_873566" data-name="Trazado 873566" d="M378.517,351.929a6.569,6.569,0,0,1-.209-5.679c.035-.066.129-.015.126.048a26.079,26.079,0,0,0,.307,5.563.119.119,0,0,1-.224.067" transform="translate(-213.786 -195.94)" fill="#263238"/>
              <path id="Trazado_873567" data-name="Trazado 873567" d="M381.107,354.431a6.569,6.569,0,0,1-.209-5.678c.035-.066.129-.015.126.048a26.077,26.077,0,0,0,.307,5.563.119.119,0,0,1-.224.068" transform="translate(-215.252 -197.356)" fill="#263238"/>
              <path id="Trazado_873568" data-name="Trazado 873568" d="M383.7,356.933a6.569,6.569,0,0,1-.209-5.678c.035-.066.129-.015.126.048a26.071,26.071,0,0,0,.307,5.563.119.119,0,0,1-.224.068" transform="translate(-216.717 -198.772)" fill="#263238"/>
              <path id="Trazado_873569" data-name="Trazado 873569" d="M368.579,315.536a1.646,1.646,0,0,1,2.993-1.366,1.646,1.646,0,0,1-2.993,1.366" transform="translate(-208.504 -177.275)" fill="#263238"/>
              <path id="Trazado_873570" data-name="Trazado 873570" d="M369.731,356.331a16.472,16.472,0,0,0,1.155-4.837c.029-.167-.141-.264-.28-.245a.049.049,0,0,0-.073-.031,9.9,9.9,0,0,0-3.667,3.573c-.5.879-.7,2.295.417,2.831,1.058.508,2-.431,2.449-1.292m-1.383.732c-1.943.687-1.284-1.654-.889-2.287a10.626,10.626,0,0,1,.869-1.158,29.551,29.551,0,0,1,2.1-2.134c-.187.782-.306,1.572-.465,2.36-.189.939-.538,2.84-1.61,3.219" transform="translate(-207.397 -198.765)" fill="#263238"/>
              <path id="Trazado_873571" data-name="Trazado 873571" d="M365.981,338.087c-1.057.649-.712,2.038-.124,2.86a9.9,9.9,0,0,0,4.015,3.177.049.049,0,0,0,.07-.038c.141.005.3-.109.253-.272a16.494,16.494,0,0,0-1.646-4.693c-.534-.81-1.569-1.647-2.569-1.034m3.05,3.483c.238.767.438,1.542.7,2.3a29.561,29.561,0,0,1-2.3-1.907,10.624,10.624,0,0,1-.983-1.063c-.458-.589-1.354-2.85.649-2.367,1.1.267,1.648,2.122,1.932,3.036" transform="translate(-206.738 -191.218)" fill="#263238"/>
              <path id="Trazado_873572" data-name="Trazado 873572" d="M252.827,203.374s.316,9.9,1.8,14.778c0,0,1.619.852,2.1,1.156,0,0-12.3,29.454-11.6,40.785.23,3.716,4.438,9.821,8.687,12.465,7.521,4.679,44.23.576,44.23.576l-5.326-22.071s-23.209,1.292-23.8.035c-.743-1.593,3.878-13.981,7.568-24.047.373-1.017,4.086-4.769,3.653-11.555a35.143,35.143,0,0,0-3.2-12.122Z" transform="translate(-138.714 -115.098)" fill="#37474f"/>
              <path id="Trazado_873573" data-name="Trazado 873573" d="M315.287,255.794c-5.063-.094-9.19.336-14.254.339l-3.825,0H295.3a5.626,5.626,0,0,1-1.322-.118,1.643,1.643,0,0,1-1.018-.605,2.17,2.17,0,0,1-.039-1.683c.254-1.191.543-2.374.856-3.551,1.275-4.783,2.941-9.456,4.508-14.149l2.422-7.251c.2-.587.392-1.176.64-1.744a14.852,14.852,0,0,1,.8-1.518,14.191,14.191,0,0,0,1.375-2.987c1.369-4.5.052-9.16-1.549-13.407q-.323-.856-.67-1.7c-.016-.039-.077-.022-.064.02,1.459,4.484,3.2,9.149,2.22,13.934a11.527,11.527,0,0,1-1.169,3.219c-.28.513-.587,1.011-.861,1.528a12.659,12.659,0,0,0-.706,1.632c-.857,2.376-1.617,4.792-2.422,7.188-1.6,4.764-3.282,9.516-4.615,14.364-.332,1.207-.64,2.421-.912,3.643-.2.9-.651,2.126.134,2.872a3.246,3.246,0,0,0,2.23.619c1.262.008,2.525-.007,3.786-.01,5.135-.015,15.739-.444,16.376-.459a.088.088,0,0,0,0-.176" transform="translate(-165.511 -117.375)" fill="#263238"/>
              <path id="Trazado_873574" data-name="Trazado 873574" d="M352.059,336.121c-.5-2.577-.972-5.168-1.543-7.732s-1.19-5.13-1.855-7.678c-.187-.72-.382-1.437-.574-2.155-.092-.343-.183-.685-.283-1.025a9.014,9.014,0,0,0-.316-1.028c-.016-.037-.065-.016-.063.02a14.338,14.338,0,0,0,.351,1.978c.127.622.247,1.245.375,1.867q.4,1.918.812,3.831c.559,2.557,1.195,5.091,1.846,7.626q.555,2.16,1.119,4.317c.021.082.148.063.131-.022" transform="translate(-196.623 -179.112)" fill="#263238"/>
              <path id="Trazado_873575" data-name="Trazado 873575" d="M254.879,239.457l26.059-9.439c.366-1,.731-1.995,1.088-2.969.375-1.016,4.085-4.769,3.653-11.557a35.11,35.11,0,0,0-3.192-12.122H258.361s.313,9.9,1.8,14.777c0,0,1.62.855,2.1,1.159,0,0-4.061,9.723-7.386,20.15" transform="translate(-144.247 -115.096)" fill="#263238"/>
              <path id="Trazado_873576" data-name="Trazado 873576" d="M163.023,336.029c.983.3,28.814-.625,29.851-1.334.4-.263.5-4.326.483-9.238,0-.052,0-.1,0-.154,0-1.012-2.3-17.988-2.3-17.988l-19.481.587,3.821,17.795.017.3s-10.5,5.118-11.553,6.017-1.817,3.72-.833,4.012" transform="translate(-92.005 -173.922)" fill="#c95f50"/>
              <path id="Trazado_873577" data-name="Trazado 873577" d="M163.023,354.609c.983.294,28.814-.627,29.85-1.335.4-.266.5-4.328.484-9.239v-.157c0-.276-.176-1.748-.423-3.738l-18.273.712.731,3.42.019.3s-10.5,5.121-11.557,6.019-1.814,3.719-.831,4.014" transform="translate(-92.005 -192.5)" fill="#ebebeb"/>
              <path id="Trazado_873578" data-name="Trazado 873578" d="M162.529,359.822c.993.3,29.1-.64,30.145-1.353.4-.268.5-4.369.485-9.328l-18.121.551s-10.6,5.171-11.667,6.076-1.836,3.758-.843,4.054" transform="translate(-91.722 -197.594)" fill="#ffc727"/>
              <path id="Trazado_873579" data-name="Trazado 873579" d="M163.873,370.022c4.707-.273,23.718-.928,28.392-.84.038,0,.039.027,0,.03-4.66.372-23.676.873-28.391.887-.1,0-.1-.072,0-.077" transform="translate(-92.701 -208.931)" fill="#263238"/>
              <path id="Trazado_873580" data-name="Trazado 873580" d="M169.12,361.929a3.785,3.785,0,0,1,2.857,1.056,3.669,3.669,0,0,1,1.137,2.48c0,.028-.052.03-.057,0a4.376,4.376,0,0,0-3.935-3.479.03.03,0,0,1,0-.059" transform="translate(-95.696 -204.826)" fill="#263238"/>
              <path id="Trazado_873581" data-name="Trazado 873581" d="M187.625,351.618a6.568,6.568,0,0,1,5.316,2.007c.048.058-.036.125-.093.1a26.076,26.076,0,0,0-5.248-1.872.119.119,0,0,1,.025-.233" transform="translate(-106.121 -198.99)" fill="#263238"/>
              <path id="Trazado_873582" data-name="Trazado 873582" d="M184.315,353.037a6.569,6.569,0,0,1,5.316,2.007c.047.058-.036.125-.093.1a26.1,26.1,0,0,0-5.248-1.871.119.119,0,0,1,.025-.233" transform="translate(-104.248 -199.793)" fill="#263238"/>
              <path id="Trazado_873583" data-name="Trazado 873583" d="M181.005,354.456a6.57,6.57,0,0,1,5.316,2.007c.047.059-.036.125-.093.1a26.075,26.075,0,0,0-5.248-1.872.119.119,0,0,1,.025-.233" transform="translate(-102.374 -200.596)" fill="#263238"/>
              <path id="Trazado_873584" data-name="Trazado 873584" d="M177.7,355.875a6.568,6.568,0,0,1,5.316,2.007c.048.058-.036.125-.093.1a26.076,26.076,0,0,0-5.248-1.872.119.119,0,0,1,.025-.233" transform="translate(-100.501 -201.4)" fill="#263238"/>
              <path id="Trazado_873585" data-name="Trazado 873585" d="M224.265,358.975a1.646,1.646,0,0,1,.1,3.288,1.646,1.646,0,0,1-.1-3.288" transform="translate(-126.05 -203.158)" fill="#263238"/>
              <path id="Trazado_873586" data-name="Trazado 873586" d="M182.318,342.481a16.469,16.469,0,0,0,4.012,2.938.23.23,0,0,0,.334-.164.049.049,0,0,0,.057-.056,9.9,9.9,0,0,0-1.874-4.765c-.616-.8-1.844-1.536-2.772-.712-.878.778-.377,2.012.243,2.758m-.139-1.559c.119-2.058,2.023-.543,2.453.066a10.658,10.658,0,0,1,.731,1.249A29.637,29.637,0,0,1,186.519,345c-.648-.476-1.331-.892-2-1.343-.793-.538-2.409-1.6-2.344-2.731" transform="translate(-102.777 -192.059)" fill="#263238"/>
              <path id="Trazado_873587" data-name="Trazado 873587" d="M199.486,347.833c-.188-1.226-1.6-1.445-2.588-1.221a9.9,9.9,0,0,0-4.485,2.471.049.049,0,0,0,.008.079.23.23,0,0,0,.153.339,16.482,16.482,0,0,0,4.963.3c.954-.179,2.126-.809,1.948-1.968m-4.392,1.463c-.8-.077-1.591-.193-2.394-.241a29.677,29.677,0,0,1,2.651-1.386,10.6,10.6,0,0,1,1.36-.494c.72-.194,3.152-.145,1.93,1.515-.674.915-2.594.7-3.547.606" transform="translate(-108.885 -196.118)" fill="#263238"/>
              <path id="Trazado_873588" data-name="Trazado 873588" d="M185.991,265.515h21.8s-3.882-29.668-2.59-31.606c.567-.85,28.859,1.986,37.136-6.979,7.568-8.2-.134-23.555-.134-23.555H218.975s-.474,6.583-1.723,9.213c-.536,1.129-26.478-.478-30.538,6.934-5.426,9.905-.723,45.993-.723,45.993" transform="translate(-104.19 -115.098)" fill="#37474f"/>
              <path id="Trazado_873589" data-name="Trazado 873589" d="M208.726,336.77c-2.458-.072-4.925-.169-7.386-.166s-4.936.052-7.4.15c-.7.028-2.753.125-3.085.15a8.023,8.023,0,0,0-1.005.086c-.037.008-.028.06,0,.066.534.092,6.112.155,7.336.159,2.453.007,4.9-.065,7.354-.153q2.089-.074,4.179-.158c.079,0,.089-.131.007-.133" transform="translate(-107.428 -190.498)" fill="#263238"/>
              <path id="Trazado_873590" data-name="Trazado 873590" d="M263.452,210.309q.146-1.044.271-2.092c.188-1.592.353-3.2.4-4.8,0-.125-.176-.115-.19,0-.148,1.237-.262,2.478-.4,3.716s-.247,2.476-.477,3.689c-.069.366-.224.979-.691.986-.63.01-.749-.839-.8-1.3a20.548,20.548,0,0,1-.062-3.466c.068-1.315.233-2.629.379-3.937.005-.047-.073-.056-.083-.01a20.881,20.881,0,0,0-.61,7.82,1.442,1.442,0,0,0,.844,1.228l.025.006a.111.111,0,0,0-.016.043c0,.074,0,.148,0,.222s0,.124,0,.185c0,.129-.009.258,0,.387a.1.1,0,0,0,.189.017.081.081,0,0,0,.069-.063,2.059,2.059,0,0,0-.015-.756.92.92,0,0,0,.773-.416,3.251,3.251,0,0,0,.4-1.462" transform="translate(-147.719 -114.924)" fill="#263238"/>
              <path id="Trazado_873591" data-name="Trazado 873591" d="M261.032,224.064a37.244,37.244,0,0,1,5,4.111.066.066,0,0,1-.083.1c-1.7-1.315-3.449-2.6-5.076-4.011a.13.13,0,0,1,.162-.2" transform="translate(-147.61 -126.793)" fill="#263238"/>
              <path id="Trazado_873592" data-name="Trazado 873592" d="M295.667,218.245a9.524,9.524,0,0,1-1.5-.115,12.878,12.878,0,0,1-1.3-.331,5.2,5.2,0,0,1-2.37-1.155,8.507,8.507,0,0,1-1.347-2.319,9.394,9.394,0,0,1-.79-2.768c0-.042-.07-.041-.066,0a14.131,14.131,0,0,0,.493,2.929,9.313,9.313,0,0,0,.549,1.386,3.86,3.86,0,0,0,3.4,2.465,8.154,8.154,0,0,0,2.955.017c.066-.012.043-.109-.018-.111" transform="translate(-163.156 -119.711)" fill="#263238"/>
              <path id="Trazado_873593" data-name="Trazado 873593" d="M226.83,234.31A1.274,1.274,0,0,1,227.9,233.3a10.5,10.5,0,0,1,1.884-.038c1.452.013,2.9.03,4.356.033a86.12,86.12,0,0,0,17.111-1.277,39.911,39.911,0,0,0,8-2.415,12.858,12.858,0,0,0,5.725-4.248c1.566-2.311,1.689-5.336,1.635-8.039a30.826,30.826,0,0,0-1.4-8.6q-.334-1.062-.753-2.093c-.017-.044.046-.08.065-.036a29.8,29.8,0,0,1,2.27,8.3,28.855,28.855,0,0,1,.193,4.241,16.342,16.342,0,0,1-.537,4.118c-1.482,5.059-7.152,7.151-11.738,8.436a66.477,66.477,0,0,1-16.981,2.06c-2.869.043-5.74.009-8.608-.039-.548-.01-1.45-.163-1.775.413a3.176,3.176,0,0,0-.257,1.043c-.063.4-.108.811-.138,1.218a34.419,34.419,0,0,0,.061,4.577q.273,4.646.642,9.285c.247,3.11.594,6.213.82,9.324.055.762.13,1.522.2,2.283.008.087-.142.1-.154.017-.8-6.148-1.367-12.321-1.771-18.508-.1-1.527-.213-3.058-.254-4.588a16.5,16.5,0,0,1,.333-4.455" transform="translate(-128.175 -116.902)" fill="#263238"/>
              <path id="Trazado_873594" data-name="Trazado 873594" d="M259.3,265.141a47.557,47.557,0,0,0,5.786-.421c1.808-.227,3.613-.473,5.41-.78a44.924,44.924,0,0,0,9.268-2.31,16.227,16.227,0,0,0,4.465-2.589c.036-.031.086.02.051.054a18.124,18.124,0,0,1-8.037,4.249,65.357,65.357,0,0,1-10.405,1.826,56.237,56.237,0,0,1-6.542.19.11.11,0,0,1,.005-.219" transform="translate(-146.686 -146.597)" fill="#263238"/>
              <path id="Trazado_873595" data-name="Trazado 873595" d="M240.565,138.94c.066,7.131-1.867,17.952-4.54,23.2-1.908,3.744-13.274,11.113-19.315,12.775-2.132.586-3.2-8.286-2.152-10.461.627-1.306,11.983-7.609,13.147-9.349,1.766-2.64,5.349-10.141,8-16.553,1.4-3.38,4.823-4.043,4.864.392" transform="translate(-121.198 -76.862)" fill="#c95f50"/>
              <path id="Trazado_873596" data-name="Trazado 873596" d="M208.923,196.745a33,33,0,0,0-4.855-.256c-1.508.148-6.929,2.766-6.431,3.969.645,1.553,4.072.658,5.693,0,0,0,1.487,3.594,4.085,3.484s1.507-7.2,1.507-7.2" transform="translate(-111.833 -111.184)" fill="#c95f50"/>
              <path id="Trazado_873597" data-name="Trazado 873597" d="M203.042,211.17a55.746,55.746,0,0,1-8.483,2.663c-1.685.191-6.572.39-6.85-.886s1.149-1.448,1.149-1.448-2.077-.243-2.239-1.552,2.066-1.5,2.066-1.5-2.115-.405-2.184-1.723,2.2-1.139,2.2-1.139-1.951-.28-1.55-1.389c.481-1.334,4.02-.411,5.864-.762.419-.079,8.373-2.218,8.373-2.218Z" transform="translate(-105.547 -113.875)" fill="#c95f50"/>
              <path id="Trazado_873598" data-name="Trazado 873598" d="M190.982,210.867a9.447,9.447,0,0,0,6.381-.292c.049-.016.084.054.034.075-2.4,1.017-3.943,1.44-6.454.342-.123-.054-.085-.157.039-.125" transform="translate(-108.02 -119.172)" fill="#263238"/>
              <path id="Trazado_873599" data-name="Trazado 873599" d="M190.936,217.284a14.181,14.181,0,0,0,6.832-.348c.038-.009.058.055.02.067-2.6.862-4.15,1.248-6.853.424-.122-.037-.125-.164,0-.143" transform="translate(-108.005 -122.773)" fill="#263238"/>
              <path id="Trazado_873600" data-name="Trazado 873600" d="M192.083,223.746a12.721,12.721,0,0,0,6.754-.824.05.05,0,0,1,.041.091,9.029,9.029,0,0,1-6.794.816c-.166-.039-.172-.1,0-.083" transform="translate(-108.637 -126.159)" fill="#263238"/>
              <path id="Trazado_873601" data-name="Trazado 873601" d="M198.393,205.823c1.609.992,3.682-.008,5.3-.529a.156.156,0,0,1,.211.146c.724,1.464,2.171,3.32,3.877,3.577a.039.039,0,0,1,0,.079c-1.866-.026-3.438-1.734-4.128-3.389-1.653.56-3.776,1.472-5.267.131-.008-.007,0-.021.01-.015" transform="translate(-112.271 -116.179)" fill="#263238"/>
              <path id="Trazado_873602" data-name="Trazado 873602" d="M252.825,144.8l9.055,5.977s1.2-11.872.57-15.463c-.711-4.042-2.622-2.794-4.888.381a59.494,59.494,0,0,0-4.738,9.1" transform="translate(-143.084 -75.135)" fill="#0d66bf"/>
              <path id="Trazado_873604" data-name="Trazado 873604" d="M256,157.2c1.256.605,4.768,2.95,5.352,3.332.308.2,1.5,1.059,1.81,1.257.039.025-.007.082-.046.056-.589-.379-1.219-.7-1.813-1.072s-4.252-2.631-5.332-3.528A.027.027,0,0,1,256,157.2" transform="translate(-144.86 -88.962)" fill="#263238"/>
              <path id="Trazado_873605" data-name="Trazado 873605" d="M273.292,149.642c0-.05.076-.04.076.008.013,1.014,0,2.029-.03,3.043a8.7,8.7,0,0,0,.269-1.569c0-.023.037-.019.036,0a7.175,7.175,0,0,1-.313,1.811q-.034,1.06-.088,2.119c-.094,1.8-.166,3.6-.363,5.387a.125.125,0,0,1-.2.086c-.308-.218-.608-.443-.9-.681-.03-.025,0-.082.035-.063.28.138.552.291.823.444.044-1.737.177-3.472.271-5.207.1-1.8.211-3.591.38-5.381" transform="translate(-153.806 -84.67)" fill="#263238"/>
              <path id="Trazado_873606" data-name="Trazado 873606" d="M287.947,164.923s-29.213,4.056-29.213,4.058c.08.573-1.547-23.108,4.121-37.958.386-1.012,4.837-2.661,7.12-1.076,10.005,6.945,18.023,35.348,17.971,34.976" transform="translate(-146.34 -73.17)" fill="#53bced"/>
              <g id="Grupo_1099539" data-name="Grupo 1099539" transform="translate(112.242 57.185)" opacity="0.1">
                <g id="Grupo_1099538" data-name="Grupo 1099538">
                  <g id="Grupo_1099537" data-name="Grupo 1099537" clip-path="url(#clip-path-4)">
                    <path id="Trazado_873607" data-name="Trazado 873607" d="M270.672,131.853l-8.039,1.185a.857.857,0,0,1,.052-.135l7.848-1.159a1.7,1.7,0,0,1,.139.109m2.214,2.127-11.095,1.636a.738.738,0,0,0-.039.13l11.233-1.649c-.03-.039-.065-.078-.1-.117m1.849,2.309L261.071,138.3c-.013.043-.022.087-.03.13l13.777-2.027c-.026-.039-.052-.078-.082-.117m1.584,2.348-15.834,2.331c-.009.043-.017.087-.026.135l15.93-2.348c-.022-.039-.048-.078-.069-.117m1.406,2.374-17.718,2.609c-.009.043-.017.087-.022.13l17.805-2.622-.065-.117m1.285,2.392-19.394,2.856c0,.043-.013.087-.017.13l19.472-2.865c-.017-.039-.039-.082-.061-.122m1.189,2.4-20.9,3.077-.013.13,20.965-3.086c-.022-.043-.039-.082-.056-.122m1.111,2.418L259.057,151.5l-.013.13,22.324-3.286a1.04,1.04,0,0,1-.056-.122m1.046,2.426-23.491,3.459c0,.043-.009.087-.009.13l23.548-3.468c-.013-.039-.03-.078-.048-.122m.994,2.435-24.624,3.624c0,.043,0,.082-.009.126L283.4,153.2c-.017-.039-.035-.078-.048-.117m.942,2.444-25.657,3.776a1.211,1.211,0,0,0,0,.126l25.7-3.785c-.013-.039-.03-.078-.043-.117m.9,2.448-26.6,3.915a.606.606,0,0,0,0,.126l26.642-3.924c-.017-.039-.03-.078-.043-.117m.859,2.452-27.463,4.045v.122l27.5-4.045c-.013-.039-.026-.082-.039-.122m.82,2.457-28.244,4.158c0,.043,0,.087,0,.13l28.279-4.163c-.013-.039-.026-.082-.039-.126m.781,2.47-28.939,4.258c0,.043,0,.087,0,.126l28.969-4.262c-.009-.039-.022-.082-.035-.122" transform="translate(-258.588 -131.744)"/>
                  </g>
                </g>
              </g>
              <g id="Grupo_1099542" data-name="Grupo 1099542" transform="translate(119.121 66.452)" opacity="0.1">
                <g id="Grupo_1099541" data-name="Grupo 1099541">
                  <g id="Grupo_1099540" data-name="Grupo 1099540" clip-path="url(#clip-path-5)">
                    <path id="Trazado_873608" data-name="Trazado 873608" d="M274.435,153.746l4.591-.652s.853,4.717.853,4.851a10.814,10.814,0,0,1-2.41,1.846,22.151,22.151,0,0,1-2.441-.809c-.067-.134-.594-5.235-.594-5.235" transform="translate(-274.435 -153.094)"/>
                  </g>
                </g>
              </g>
              <rect id="Rectángulo_401182" data-name="Rectángulo 401182" width="28.442" height="31.496" transform="translate(83.926 75.261)" fill="#afafaf"/>
              <rect id="Rectángulo_401185" data-name="Rectángulo 401185" width="14.686" height="31.497" transform="translate(69.24 75.263)" fill="#abb4c0"/>
              <path id="Trazado_873609" data-name="Trazado 873609" d="M220.555,180.2h1.054l.258-.524.362.524.491-1.079.465,1.079h1.939l.22-.72.207.72h.4v-6.806h-5.391Z" transform="translate(-124.821 -98.131)" fill="#fff"/>
              <g id="Grupo_1099548" data-name="Grupo 1099548" transform="translate(70.252 77.433)" opacity="0.1">
                <g id="Grupo_1099547" data-name="Grupo 1099547">
                  <g id="Grupo_1099546" data-name="Grupo 1099546" clip-path="url(#clip-path-6)">
                    <path id="Trazado_873610" data-name="Trazado 873610" d="M161.849,205.55q1.631-3.36,3.233-6.74l3.186-6.775,3.146-6.8q1.565-3.408,3.1-6.838-1.632,3.359-3.234,6.74l-3.186,6.775-3.145,6.8q-1.565,3.407-3.1,6.838" transform="translate(-161.849 -178.393)"/>
                    <path id="Trazado_873611" data-name="Trazado 873611" d="M161.849,178.393q1.534,3.43,3.1,6.838l3.145,6.8,3.186,6.775q1.6,3.382,3.234,6.74-1.534-3.43-3.1-6.838l-3.146-6.8-3.186-6.774q-1.6-3.382-3.233-6.74" transform="translate(-161.849 -178.393)"/>
                  </g>
                </g>
              </g>
              <path id="Trazado_873612" data-name="Trazado 873612" d="M226.52,180.2H198.081l-4.721-6.813H221.8Z" transform="translate(-109.431 -98.128)" fill="#636363"/>
              <path id="Trazado_873614" data-name="Trazado 873614" d="M163.392,180.207H148.749l4.721-6.813h14.643Z" transform="translate(-84.183 -98.131)" fill="#d3d3d3"/>
              <path id="Trazado_873616" data-name="Trazado 873616" d="M267.744,128.421c1.437.136,4.108-1.907,4.824-4.032.048-.146-.4-1.51-.877-3.193-.282-1.023-.573-2.168-.762-3.232-.037-.219-6.385,2.809-6.385,2.809a17.217,17.217,0,0,1,1.372,3.971,2.4,2.4,0,0,1,.032.444c0,.021,0,.046,0,.074.013.853.256,3.012,1.793,3.158" transform="translate(-149.717 -66.755)" fill="#c95f50"/>
              <path id="Trazado_873617" data-name="Trazado 873617" d="M265.946,125.261c0,.021,0,.048.006.074a4.524,4.524,0,0,0,.689-.086c3.913-.786,4.074-5.887,4.052-7.169-1.156.381-6.15,2.765-6.15,2.765a17.265,17.265,0,0,1,1.373,3.973,2.411,2.411,0,0,1,.029.443" transform="translate(-149.717 -66.826)" fill="#263238"/>
              <path id="Trazado_873618" data-name="Trazado 873618" d="M264.9,94.356c1.072,2.273.815,9.327-.654,11.1-2.13,2.578-6.114,3.374-8.43.7-2.245-2.592-1.747-11.779-.06-13.445,2.485-2.455,7.56-1.718,9.144,1.64" transform="translate(-143.922 -51.651)" fill="#c95f50"/>
              <path id="Trazado_873619" data-name="Trazado 873619" d="M264.588,110.1c0-.018.036.024.035.043-.03.474.015,1.023.44,1.195.013.005.011.029,0,.026-.522-.09-.576-.82-.471-1.264" transform="translate(-149.716 -62.309)" fill="#263238"/>
              <path id="Trazado_873620" data-name="Trazado 873620" d="M265.047,108.994c.766-.034.778,1.5.068,1.532s-.71-1.5-.068-1.532" transform="translate(-149.736 -61.684)" fill="#263238"/>
              <path id="Trazado_873621" data-name="Trazado 873621" d="M257.636,110.329c0-.018-.037.023-.036.042.019.475-.04,1.023-.468,1.184-.013,0-.012.029,0,.026.524-.078.595-.806.5-1.253" transform="translate(-145.516 -62.437)" fill="#263238"/>
              <path id="Trazado_873622" data-name="Trazado 873622" d="M256.529,109.2c-.765-.053-.813,1.482-.1,1.53s.746-1.486.1-1.53" transform="translate(-144.837 -61.798)" fill="#263238"/>
              <path id="Trazado_873623" data-name="Trazado 873623" d="M265.465,105.962a5.845,5.845,0,0,1-.6-.2,1.017,1.017,0,0,1-.568-.325.325.325,0,0,1,.049-.393.8.8,0,0,1,.81-.089,1.183,1.183,0,0,1,.685.507.346.346,0,0,1-.381.506" transform="translate(-149.553 -59.358)" fill="#263238"/>
              <path id="Trazado_873624" data-name="Trazado 873624" d="M255.406,106.085a5.955,5.955,0,0,0,.609-.163,1.018,1.018,0,0,0,.589-.285.324.324,0,0,0-.022-.4.8.8,0,0,0-.8-.145,1.179,1.179,0,0,0-.719.457.346.346,0,0,0,.345.531" transform="translate(-144.313 -59.455)" fill="#263238"/>
              <path id="Trazado_873625" data-name="Trazado 873625" d="M264.518,120.256c-.113.112-.226.266-.4.282a1.252,1.252,0,0,1-.512-.116.017.017,0,0,0-.02.025.641.641,0,0,0,.605.253.506.506,0,0,0,.371-.423c.007-.028-.03-.038-.046-.021" transform="translate(-149.174 -68.053)" fill="#263238"/>
              <path id="Trazado_873626" data-name="Trazado 873626" d="M260.974,110.29a1.618,1.618,0,0,1-1.075.728,2.039,2.039,0,0,1-.582.031.61.61,0,0,1-.111-.012c-.035,0-.066-.008-.1-.015a.118.118,0,0,1-.1-.105v0a.235.235,0,0,1,0-.049v-.045c-.013-.366.018-.923.018-.923-.133.068-.813.38-.8.188a24.379,24.379,0,0,1,.591-4.9.044.044,0,0,1,.087.011c-.019,1.526-.306,3.037-.35,4.569a2.829,2.829,0,0,1,.762-.237c.052.014-.08,1.075-.061,1.239a.06.06,0,0,0,0,.017,2.244,2.244,0,0,0,1.672-.533c.035-.027.073,0,.045.043" transform="translate(-146.14 -59.507)" fill="#263238"/>
              <path id="Trazado_873627" data-name="Trazado 873627" d="M261.236,117.552a1.919,1.919,0,0,0,.773.59.866.866,0,0,0,.525.029c.379-.1.385-.451.314-.749a2.091,2.091,0,0,0-.174-.455,2.485,2.485,0,0,1-1.438.585" transform="translate(-147.844 -66.197)" fill="#263238"/>
              <path id="Trazado_873628" data-name="Trazado 873628" d="M263.017,118.734a.866.866,0,0,0,.525.029c.379-.1.385-.451.314-.749a.892.892,0,0,0-.839.72" transform="translate(-148.852 -66.789)" fill="#ff99ba"/>
              <path id="Trazado_873629" data-name="Trazado 873629" d="M255.351,94.712c.255-.606.55-1.216.912-1.339s.609.76,1.435.808c1.116.065,1.647-.964,3.205-1.086,2.238-.176,3.242,1.686,3.325,4.864.074,2.838,1.791,3.09,1.791,3.09s.983-6.269-.8-8.326a6.718,6.718,0,0,0-8.54-.934c-.985.73-1.328,2.923-1.328,2.923" transform="translate(-144.514 -51.309)" fill="#263238"/>
              <path id="Trazado_873630" data-name="Trazado 873630" d="M276.4,109.382s1.28-2.423,2.36-1.994.313,3.805-.819,4.4a1.217,1.217,0,0,1-1.7-.447Z" transform="translate(-156.339 -60.747)" fill="#c95f50"/>
              <path id="Trazado_873631" data-name="Trazado 873631" d="M279.353,109.671a.017.017,0,0,1,.01.031,3.074,3.074,0,0,0-1.339,2.106A.671.671,0,0,1,279,111.5c.023.013.007.049-.017.047a.748.748,0,0,0-.785.361,3.609,3.609,0,0,0-.309.71c-.03.079-.169.056-.151-.033,0-.007,0-.013,0-.02-.154-1.058.485-2.646,1.611-2.9" transform="translate(-157.173 -62.067)" fill="#263238"/>
              <path id="Trazado_873632" data-name="Trazado 873632" d="M272.838,138.092c2.908,6.478,9.343,19.749,7.69,24.745-2.17,6.556-13.53,13.782-16.47,15.808-1.281.882-7.651-7.285-7.261-8.9s12.331-11.075,12.974-12.138-2.057-11.832-2.516-17.842c-.579-7.581,3.12-7.153,5.583-1.67" transform="translate(-145.322 -75.846)" fill="#c95f50"/>
              <path id="Trazado_873633" data-name="Trazado 873633" d="M239.248,217.638c.346-.714-.026-.9-1.294-.284-1.284.621-5.764,4.134-6.858,2.462s5.32-6.543,7.511-7.407a37.427,37.427,0,0,1,6.037-1.5c-1.059,1.2-3.349,4.349-5.4,6.727" transform="translate(-130.715 -119.363)" fill="#c95f50"/>
              <path id="Trazado_873634" data-name="Trazado 873634" d="M250.794,219.626c-3.1,3.265-6.771,7.52-11.659,8.919a2.517,2.517,0,0,1-1.648-.049c-2.18.666-3.149-.163-3.149-.163a4.183,4.183,0,0,1-3.094-.986s-2.567.754-3.281-.722c-.8-1.653,2.959-2.388,4.781-4.058,4.175-3.826,9.04-10.432,10.134-11.654Z" transform="translate(-128.951 -119.364)" fill="#c95f50"/>
              <path id="Trazado_873635" data-name="Trazado 873635" d="M244.355,235.579a25.46,25.46,0,0,1-8.67,5.656.044.044,0,0,0,.031.082,19.251,19.251,0,0,0,8.689-5.683c.053-.061.012-.112-.051-.056" transform="translate(-133.369 -133.31)" fill="#263238"/>
              <path id="Trazado_873636" data-name="Trazado 873636" d="M251.034,240.6a26.833,26.833,0,0,1-8.293,4.465c-.015.006-.011.034.007.03a17.278,17.278,0,0,0,8.334-4.434c.075-.069.037-.128-.048-.061" transform="translate(-137.372 -136.151)" fill="#263238"/>
              <path id="Trazado_873637" data-name="Trazado 873637" d="M256.588,243.377a27.109,27.109,0,0,1-6.536,3.464c-.015.006-.008.034.009.029a16.179,16.179,0,0,0,6.593-3.424c.081-.062.02-.132-.067-.069" transform="translate(-141.51 -137.723)" fill="#263238"/>
              <path id="Trazado_873638" data-name="Trazado 873638" d="M281.222,147.272l10.838.524s-5.02-10.825-7.395-13.593c-2.673-3.114-3.681-1.066-4.01,2.82a59.5,59.5,0,0,0,.567,10.248" transform="translate(-158.793 -75.093)" fill="#0d66bf"/>
              <path id="Trazado_873640" data-name="Trazado 873640" d="M283.123,161.771c1.389-.12,5.606.107,6.3.137.368.016,1.832.145,2.2.158.047,0,.036.074-.011.072-.7-.025-1.4.022-2.106,0-.718-.02-5-.1-6.385-.316a.027.027,0,0,1,0-.054" transform="translate(-160.218 -91.533)" fill="#263238"/>
              <path id="Trazado_873641" data-name="Trazado 873641" d="M295.855,145.479c-.022-.046.045-.073.07-.032.528.866,1.034,1.746,1.526,2.633a8.728,8.728,0,0,0-.569-1.487c-.01-.021.022-.035.033-.015a7.169,7.169,0,0,1,.654,1.718q.512.929,1.006,1.868c.835,1.593,1.692,3.18,2.434,4.819a.125.125,0,0,1-.125.174c-.376-.031-.749-.071-1.122-.127-.039-.006-.045-.069,0-.072.312-.024.623-.031.935-.037-.848-1.517-1.618-3.077-2.422-4.618-.832-1.594-1.65-3.2-2.418-4.823" transform="translate(-167.435 -82.303)" fill="#263238"/>
              <path id="Trazado_873642" data-name="Trazado 873642" d="M280.1,151.777c-.117-.561-.232-1.122-.33-1.686a.009.009,0,0,1,.018,0c.1.409.194.82.283,1.231-.046-.84-.077-1.68-.069-2.517,0-.013.02-.013.022,0,.175,1.26.28,2.53.425,3.794.142,1.241.263,2.482.383,3.725.245.05.49.1.737.137a.036.036,0,0,1-.008.072c-.274,0-.547,0-.82.012a.124.124,0,0,1-.138-.1c-.227-1.54-.4-3.1-.5-4.665" transform="translate(-158.335 -84.208)" fill="#263238"/>
            </g>
          </g>
          <rect id="Rectángulo_401191" data-name="Rectángulo 401191" width="41.048" height="33.915" transform="translate(37.479 128.618)" fill="#d3d3d3"/>
          <rect id="Rectángulo_401192" data-name="Rectángulo 401192" width="16.264" height="33.916" transform="translate(78.527 128.618)" fill="#afafaf"/>
          <g id="Grupo_1099576" data-name="Grupo 1099576">
            <g id="Grupo_1099575" data-name="Grupo 1099575" clip-path="url(#clip-path)">
              <path id="Trazado_873643" data-name="Trazado 873643" d="M197.518,330.941q-1.807-3.617-3.581-7.258l-3.529-7.295-3.483-7.326q-1.733-3.67-3.431-7.364,1.807,3.617,3.581,7.258l3.528,7.295,3.483,7.327q1.733,3.669,3.431,7.363" transform="translate(-103.847 -170.744)" fill="#e8e8e8"/>
              <path id="Trazado_873644" data-name="Trazado 873644" d="M197.518,301.7q-1.7,3.693-3.431,7.363l-3.483,7.327-3.528,7.3q-1.773,3.642-3.581,7.258,1.7-3.694,3.431-7.364l3.483-7.326,3.529-7.295q1.772-3.642,3.581-7.258" transform="translate(-103.847 -170.744)" fill="#e8e8e8"/>
              <path id="Trazado_873645" data-name="Trazado 873645" d="M132.747,303.644h-1.135l-.279-.564-.389.564-.529-1.162-.5,1.162h-2.088l-.237-.775-.223.775h-.425v-7.329h5.806Z" transform="translate(-71.842 -167.697)" fill="#fff"/>
              <path id="Trazado_873738" data-name="Trazado 873738" d="M0,0H30.625V33.913H0Z" transform="translate(87.995 128.617)" fill="#d3d3d3"/>
              <rect id="Rectángulo_401196" data-name="Rectángulo 401196" width="15.813" height="33.914" transform="translate(118.619 128.618)" fill="#abb4c0"/>
              <g id="Grupo_1099568" data-name="Grupo 1099568" transform="translate(90.191 130.954)" opacity="0.1">
                <g id="Grupo_1099567" data-name="Grupo 1099567">
                  <g id="Grupo_1099566" data-name="Grupo 1099566" clip-path="url(#clip-path-8)">
                    <path id="Trazado_873646" data-name="Trazado 873646" d="M233.97,330.94q-3.373-3.617-6.686-7.258l-6.589-7.294-6.5-7.326q-3.236-3.67-6.405-7.363,3.375,3.617,6.686,7.257l6.588,7.295,6.5,7.326q3.237,3.669,6.406,7.363" transform="translate(-207.786 -301.698)"/>
                    <path id="Trazado_873647" data-name="Trazado 873647" d="M233.97,301.7q-3.173,3.693-6.406,7.363l-6.5,7.326-6.588,7.295q-3.31,3.641-6.686,7.257,3.171-3.693,6.405-7.363l6.5-7.326,6.589-7.294q3.309-3.642,6.686-7.258" transform="translate(-207.786 -301.698)"/>
                  </g>
                </g>
              </g>
              <rect id="Rectángulo_401200" data-name="Rectángulo 401200" width="2.771" height="3.912" transform="translate(129.436 156.793)" fill="#fff"/>
              <rect id="Rectángulo_401201" data-name="Rectángulo 401201" width="34.965" height="21.93" transform="translate(44.322 106.685)" fill="#afafaf"/>
              <rect id="Rectángulo_401204" data-name="Rectángulo 401204" width="15.813" height="21.931" transform="translate(79.287 106.687)" fill="#636363"/>
              <path id="Trazado_873648" data-name="Trazado 873648" d="M198.809,269.476q-1.757-2.264-3.482-4.542l-3.43-4.565-3.387-4.585q-1.685-2.3-3.336-4.608,1.757,2.264,3.482,4.542l3.43,4.565,3.387,4.585q1.685,2.3,3.336,4.608" transform="translate(-104.798 -142.15)" fill="#abb4c0"/>
              <path id="Trazado_873649" data-name="Trazado 873649" d="M198.809,251.174q-1.652,2.311-3.336,4.608l-3.387,4.585-3.43,4.565q-1.723,2.279-3.482,4.542,1.652-2.311,3.336-4.608l3.387-4.585,3.43-4.565q1.723-2.279,3.482-4.542" transform="translate(-104.798 -142.15)" fill="#d3d3d3"/>
            </g>
          </g>
          <g id="Grupo_1099581" data-name="Grupo 1099581">
            <g id="Grupo_1099580" data-name="Grupo 1099580" clip-path="url(#clip-path)">
              <path id="Trazado_873650" data-name="Trazado 873650" d="M31.395,50.463c-1.589-.277-5.586,1.026-6.847,3.186s-1,5.553-.284,5.853,3.7-.088,5.7-1.314,2.21-7.588,1.428-7.725" transform="translate(-13.394 -28.538)" fill="#263238"/>
              <path id="Trazado_873651" data-name="Trazado 873651" d="M30.666,50.4c.052-.014.055-.1-.006-.1a14.449,14.449,0,0,0-4.129.994,7.979,7.979,0,0,0-2.94,1.522,3.7,3.7,0,0,0-1.22,2.848,7.593,7.593,0,0,0,.893,3.726c.019.031.079.019.066-.022-.736-2.266-1.416-5.044.794-6.709C26,51.246,28.47,50.981,30.666,50.4" transform="translate(-12.66 -28.467)" fill="#263238"/>
              <path id="Trazado_873652" data-name="Trazado 873652" d="M18.5,69.935c-1.369.239-4.828,3.016-5.311,5.661s1.812,6.416,2.5,6.667,3.617-2.394,4.525-4.279c.608-1.261.02-2.673-.343-4.087-.537-2.087-1.157-4-1.37-3.961" transform="translate(-7.425 -39.579)" fill="#263238"/>
              <path id="Trazado_873653" data-name="Trazado 873653" d="M24.642,77.674c.29-2.685-1.338-5.258-2.353-7.626-.011-.025-.053-.012-.046.015.606,2.288,2.09,4.3,2.235,6.717a4.426,4.426,0,0,1-1.493,3.795,12.93,12.93,0,0,1-3.43,1.687c-.077.032-.02.145.056.116,2.334-.879,4.732-1.933,5.032-4.7" transform="translate(-11.046 -39.636)" fill="#263238"/>
              <path id="Trazado_873654" data-name="Trazado 873654" d="M17.528,70.385c.067-.037.016-.144-.052-.108-1.916,1.013-4.212,2.47-5.171,4.5-1.039,2.2.2,4.395,1.294,6.288.013.023.052.006.038-.019-1.083-1.923-2.243-4.318-1.047-6.467,1.03-1.848,3.132-3.206,4.937-4.193" transform="translate(-6.742 -39.768)" fill="#263238"/>
              <path id="Trazado_873655" data-name="Trazado 873655" d="M16.129,97.534a5.877,5.877,0,0,1,2.788,3.742c.706,3.126,1.86,2.436,5.354,3.076a3.432,3.432,0,0,1,2.3,5.464,2.27,2.27,0,0,0-1.234-2.933c-2.413-1.041-7.635,1.732-10.5-1.428-3.709-4.089,1.294-7.922,1.294-7.922" transform="translate(-7.621 -55.199)" fill="#263238"/>
              <path id="Trazado_873656" data-name="Trazado 873656" d="M22.631,100.62c-.041-.041.028-.112.071-.073a4.639,4.639,0,0,1,1.027,1.318c.333.651.388,1.372.674,2.038.727,1.695,2.813,1.514,4.334,1.534a3.759,3.759,0,0,1,3.993,3.3.024.024,0,0,1-.048.007,3.621,3.621,0,0,0-2.331-2.943c-1.216-.433-2.54-.091-3.789-.317a2.853,2.853,0,0,1-2.152-1.264,7.151,7.151,0,0,1-.462-1.424,5.046,5.046,0,0,0-1.316-2.181" transform="translate(-12.801 -56.897)" fill="#263238"/>
              <path id="Trazado_873657" data-name="Trazado 873657" d="M15.145,98.479c.018-.016.047.012.03.03-1.085,1.2-2.238,2.412-2.473,4.092a4.856,4.856,0,0,0,2.238,4.543c1.642,1.118,3.3.443,5.032,0a7.252,7.252,0,0,1,3.817-.184c.039.011.021.076-.018.069-2.036-.35-3.84.354-5.8.787a3.967,3.967,0,0,1-4.007-1.326c-2.447-2.63-1.227-5.864,1.175-8.01" transform="translate(-7.149 -55.731)" fill="#263238"/>
              <path id="Trazado_873658" data-name="Trazado 873658" d="M37.3,47.068c-.461-.536-1.284.192-.822.728s1.284-.192.822-.728" transform="translate(-20.565 -26.532)" fill="#ffc727"/>
              <path id="Trazado_873659" data-name="Trazado 873659" d="M38.371,49.163c-.461-.536-1.284.192-.822.728s1.284-.192.822-.728" transform="translate(-21.173 -27.717)" fill="#ffc727"/>
              <path id="Trazado_873660" data-name="Trazado 873660" d="M39.8,51.059c-.461-.536-1.284.192-.822.728s1.284-.192.822-.728" transform="translate(-21.984 -28.79)" fill="#ffc727"/>
              <path id="Trazado_873661" data-name="Trazado 873661" d="M41.429,52.7c-.461-.536-1.284.192-.822.728s1.284-.192.822-.728" transform="translate(-22.904 -29.721)" fill="#ffc727"/>
              <path id="Trazado_873662" data-name="Trazado 873662" d="M43.355,54.074c-.461-.536-1.284.192-.822.728s1.284-.192.822-.728" transform="translate(-23.994 -30.497)" fill="#ffc727"/>
              <path id="Trazado_873663" data-name="Trazado 873663" d="M45.416,55.04c-.461-.536-1.284.192-.822.728s1.284-.192.822-.728" transform="translate(-25.16 -31.043)" fill="#ffc727"/>
              <path id="Trazado_873664" data-name="Trazado 873664" d="M83.474,349.07c-1,.314-30.306-.319-31.376-1.034-.411-.264,2.1-28.02,2.1-28.02l18.584.355-2.113,18.566s10.812,5.122,11.906,6.032,1.9,3.791.9,4.1" transform="translate(-29.459 -181.111)" fill="#d3766a"/>
              <path id="Trazado_873665" data-name="Trazado 873665" d="M83.424,377.038c-1,.313-30.307-.321-31.375-1.035a27.759,27.759,0,0,1,.3-6.569c5.313.891,24.279,3.8,25.757,2.934,1.03-.605.118-1.552-.725-2.188a51.779,51.779,0,0,1,5.147,2.758c1.086.905,1.9,3.792.9,4.1" transform="translate(-29.408 -209.078)" fill="#263238"/>
              <path id="Trazado_873666" data-name="Trazado 873666" d="M59.747,227.373,41.5,227.115s3.615-43.7,3.464-44.536c-.192-1.076-13.136-51.83-13.136-51.83H49.243s13.731,47.3,14.224,51.863c.8,7.36-3.72,44.76-3.72,44.76" transform="translate(-18.014 -73.996)" fill="#37474f"/>
              <path id="Trazado_873667" data-name="Trazado 873667" d="M57.821,343.153c1.078-.078,2.168-.065,3.248-.079s2.164-.018,3.246-.007c2.163.021,4.326.054,6.489.115.592.017,1.183.035,1.775.062.633.03,1.263.138,1.895.161a.038.038,0,0,1,0,.076c-.531,0-1.063.084-1.595.1-.551.016-1.1.02-1.654.02q-1.623,0-3.246-.013c-2.162-.018-4.328-.047-6.489-.137-1.221-.05-2.454-.066-3.67-.188a.056.056,0,0,1,0-.111" transform="translate(-32.692 -194.153)" fill="#263238"/>
              <path id="Trazado_873668" data-name="Trazado 873668" d="M40.585,140.167c1.558,5.517,2.982,11.083,4.379,16.643s2.786,11.128,4.171,16.695l2.077,8.35a45.723,45.723,0,0,1,1.624,8.234,59.686,59.686,0,0,1-.432,8.551q-.362,4.273-.729,8.546c-.5,5.7-.977,11.4-1.6,17.088q-.117,1.067-.226,2.135c-.006.061-.1.06-.1,0,.378-5.7.771-11.4,1.226-17.1q.342-4.273.7-8.546c.235-2.843.566-5.7.655-8.548A30.513,30.513,0,0,0,51.2,183.8q-1.021-4.086-2.047-8.17-2.09-8.346-4.169-16.7c-1.546-6.233-3.09-12.477-4.454-18.753a.027.027,0,0,1,.052-.013" transform="translate(-22.939 -79.316)" fill="#263238"/>
              <path id="Trazado_873669" data-name="Trazado 873669" d="M31.828,130.751s5.554,21.774,9.44,37.1l7.409-37.1Z" transform="translate(-18.013 -73.997)" fill="#263238"/>
              <path id="Trazado_873670" data-name="Trazado 873670" d="M33.028,349.206c-1,.314-30.306-.319-31.376-1.034-.411-.264,1.119-28.036,1.119-28.036l18.339.355-.888,18.582s10.812,5.122,11.906,6.031,1.9,3.791.9,4.1" transform="translate(-0.895 -181.179)" fill="#d3766a"/>
              <path id="Trazado_873671" data-name="Trazado 873671" d="M33.009,377.19c-1,.312-30.307-.321-31.375-1.035a51.6,51.6,0,0,1,0-6.573c5.313.891,24.574,3.806,26.051,2.937,1.03-.605.118-1.551-.725-2.188a51.741,51.741,0,0,1,5.147,2.758c1.086.9,1.9,3.791.9,4.1" transform="translate(-0.876 -209.162)" fill="#263238"/>
              <path id="Trazado_873672" data-name="Trazado 873672" d="M32.183,130.733a77.1,77.1,0,0,1-2.5,14.9c-.16.543-.332,1.078-.517,1.591a30.993,30.993,0,0,0-5.051,2.516s-1.255,31.846-1.232,33.823c.082,7.4-1.81,43.434-1.81,43.434l-18.4-.175S4.589,186.072,4.6,183.362c.016-4.355,3.86-52.622,3.86-52.622Z" transform="translate(-1.518 -73.987)" fill="#37474f"/>
              <path id="Trazado_873673" data-name="Trazado 873673" d="M61.312,143.916q.1-.691.209-1.382c.129-.844.3-1.682.449-2.523.336-1.908.684-3.822,1.109-5.713a.042.042,0,0,1,.082.013c-.076.763-.163,1.526-.271,2.285s-.183,1.525-.29,2.285c-.213,1.507-.423,3.017-.679,4.517-.1.578-.46,1.615.373,1.794.659.142,1.142-.505,1.336-1.048a12.972,12.972,0,0,0,.443-2.082c.136-.76.255-1.524.363-2.289.235-1.667.493-3.327.764-4.988.008-.047.084-.033.082.013a50.71,50.71,0,0,1-.369,5.1q-.161,1.216-.366,2.426a8.554,8.554,0,0,1-.557,2.261,1.837,1.837,0,0,1-1.377,1.105h-.039a.057.057,0,0,1,.024.048c-.009.27,0,.544-.033.813s-.081.533-.132.8a5.492,5.492,0,0,1-.206.793,2.1,2.1,0,0,1-.361.7c-.03.047-.086.017-.089-.028h0c0-.045,0-.088.006-.132,0-.008,0-.016,0-.023h0a1.9,1.9,0,0,1,.015-.236c.02-.13.049-.258.077-.387.056-.257.127-.513.2-.766s.124-.51.189-.765.154-.518.214-.783a.048.048,0,0,1,.018-.025,1.2,1.2,0,0,1-1.162-.728,2.076,2.076,0,0,1-.017-1.056" transform="translate(-34.665 -75.989)" fill="#263238"/>
              <path id="Trazado_873674" data-name="Trazado 873674" d="M48.62,171.3a14.512,14.512,0,0,1,1.731-1.141,16.969,16.969,0,0,1,1.973-1.022c1.331-.578,2.7-.973,4.076-1.427.04-.013.068.055.028.071-1.33.53-2.605,1.231-3.89,1.86-.632.309-1.273.6-1.916.889s-1.288.619-1.951.861c-.05.018-.09-.058-.05-.091" transform="translate(-27.507 -94.912)" fill="#263238"/>
              <path id="Trazado_873675" data-name="Trazado 873675" d="M24.651,141.281a11.332,11.332,0,0,0,2.773-.373c.418-.108.83-.241,1.241-.376a3.222,3.222,0,0,0,1.119-.561,4.955,4.955,0,0,0,1.2-2.16,20.63,20.63,0,0,0,.727-2.623c.01-.044.074-.029.075.012a10.17,10.17,0,0,1-.378,2.978,4.6,4.6,0,0,1-1.194,2.315,4.686,4.686,0,0,1-2.541.929,11.7,11.7,0,0,1-3.021-.042.05.05,0,0,1,0-.1" transform="translate(-13.923 -76.494)" fill="#263238"/>
              <path id="Trazado_873676" data-name="Trazado 873676" d="M9.67,206.927c.313-5.815.654-11.628.991-17.442.671-11.569,1.319-23.139,2.046-34.7.411-6.526.834-13.05,1.345-19.57a.054.054,0,0,1,.107,0c-.46,11.638-1.171,23.263-1.843,34.89q-1,17.353-2.087,34.7c-.411,6.526-.925,13.044-1.337,19.57a.038.038,0,0,1-.076,0c.317-5.814.542-11.633.854-17.447" transform="translate(-4.989 -76.493)" fill="#263238"/>
              <path id="Trazado_873677" data-name="Trazado 873677" d="M4.484,343.775c1.078-.078,2.168-.065,3.248-.079s2.164-.017,3.246-.007c2.163.021,4.326.054,6.489.115.592.017,1.183.035,1.775.062.633.03,1.263.138,1.895.161a.038.038,0,0,1,0,.076c-.531,0-1.063.084-1.595.1-.551.016-1.1.02-1.654.02q-1.623,0-3.246-.013c-2.162-.018-4.328-.047-6.489-.137-1.221-.05-2.454-.066-3.67-.188a.056.056,0,0,1,0-.111" transform="translate(-2.507 -194.505)" fill="#263238"/>
              <path id="Trazado_873678" data-name="Trazado 873678" d="M51.826,78.3c1.766,4.386,8.784,18.558,13.393,19.557,3.025.656,15.247-.527,17.352-3.419.917-1.26-.634-10.046-2.263-9.7S68.88,86.382,67.676,86.032,57.452,75.3,54.083,72.718c-5.81-4.446-3.208,3.216-2.257,5.577" transform="translate(-28.534 -40.384)" fill="#d3766a"/>
              <path id="Trazado_873679" data-name="Trazado 873679" d="M61.781,79.639,54.1,84.185A81.136,81.136,0,0,1,49.6,74c-1.265-4.025-.179-5.869,4.459-1.863a88.2,88.2,0,0,1,7.721,7.5" transform="translate(-27.795 -39.562)" fill="#53bced"/>
              <path id="Trazado_873680" data-name="Trazado 873680" d="M59.827,93.767q1.527-1.108,3.109-2.139c.519-.339,1.035-.685,1.56-1.013.544-.339,1.109-.642,1.652-.981.039-.024.08.032.042.057-.513.348-1,.731-1.511,1.082-.527.362-1.067.7-1.6,1.052q-1.583,1.035-3.217,1.989c-.031.018-.064-.024-.033-.047" transform="translate(-33.852 -50.724)" fill="#263238"/>
              <path id="Trazado_873681" data-name="Trazado 873681" d="M40.327,100.648l-1.734-9.8s2.669-4.66,1.121-8c-.782-1.694-7.639-12.23-10.527-14.326-2.709-1.966-6.64.138-8.1,1.679-5.639,5.934-7.142,16.886-9.168,32.937Z" transform="translate(-6.743 -38.328)" fill="#53bced"/>
              <path id="Trazado_873682" data-name="Trazado 873682" d="M72.057,96.6a7.583,7.583,0,0,0-.938-1.988c-.135-.23-.438-.706-.8-1.263a8.054,8.054,0,0,0-.346-.787A12.858,12.858,0,0,1,69.4,91.4a.031.031,0,1,0-.056.024,12.166,12.166,0,0,1,.486,1.168c-.611-.927-1.254-1.885-1.53-2.275-.023-.033-.077,0-.053.032.587.768,2.507,4.135,2.972,4.989a5.747,5.747,0,0,1,.675,2.746,12.457,12.457,0,0,1-.385,2.937c-.024.081.057.121.09.043a7.989,7.989,0,0,0,.544-2.184,6.433,6.433,0,0,0-.081-2.282" transform="translate(-38.618 -51.106)" fill="#263238"/>
              <path id="Trazado_873683" data-name="Trazado 873683" d="M49.425,85.046S47.7,83.123,49.1,82.051s2.8,1.105,2.8,1.105Z" transform="translate(-27.478 -46.269)" fill="#455a64"/>
              <path id="Trazado_873684" data-name="Trazado 873684" d="M63.911,99.253v0l.425,2.493.145.822-.76-.352-2.292-1.074h0v0L50.417,86.684,52.9,84.795l11.01,14.458Z" transform="translate(-28.533 -47.989)" fill="#455a64"/>
              <path id="Trazado_873685" data-name="Trazado 873685" d="M81.682,123.853l.143.822-.76-.352Z" transform="translate(-45.878 -70.094)" fill="#37474f"/>
              <rect id="Rectángulo_401208" data-name="Rectángulo 401208" width="3.641" height="0.722" transform="translate(21.618 38.777) rotate(-37.292)" fill="#263238"/>
              <rect id="Rectángulo_401209" data-name="Rectángulo 401209" width="3.641" height="0.722" transform="translate(22.102 39.412) rotate(-37.292)" fill="#263238"/>
              <path id="Trazado_873686" data-name="Trazado 873686" d="M51.927,91.194l.935-.712,3.468,5.623-.359.243Z" transform="translate(-29.388 -51.208)" fill="#263238"/>
              <path id="Trazado_873687" data-name="Trazado 873687" d="M11.738,76.273C4.783,84.977-2.773,99.4,1.012,102.143c3.456,2.507,15.307-.816,22.675-4.236,1.4-.651-5.213-13-6.632-12.156A41.822,41.822,0,0,1,12.409,88.2c-.407.138,1.691-2.775,3.805-9.6,2.149-6.933-.5-7.3-4.476-2.329" transform="translate(0 -41.265)" fill="#d3766a"/>
              <path id="Trazado_873688" data-name="Trazado 873688" d="M56.487,94.336c.1,1.477-3.564,1.412-3.564,1.412a2.734,2.734,0,0,1,1.2,1.417c.342,1.072-1.188,2.079-1.188,2.079a3.369,3.369,0,0,1,1.029,1.7c.224,1.059-1.175,2.3-1.175,2.3a2.954,2.954,0,0,1-.035,2.062c-.762,1.737-3.673,1.952-5.448,2.442a38.469,38.469,0,0,0-5.785,2.245L37.356,96.916s7.517-5.116,9.7-5.147c1.843-.026,9.275.309,9.427,2.567" transform="translate(-21.141 -51.935)" fill="#d3766a"/>
              <path id="Trazado_873689" data-name="Trazado 873689" d="M65.241,100.339a24.769,24.769,0,0,0-6.028-.362.035.035,0,0,0,0,.069c1.983-.073,4.034.382,6.016.388a.049.049,0,0,0,.01-.1" transform="translate(-33.493 -56.565)" fill="#263238"/>
              <path id="Trazado_873690" data-name="Trazado 873690" d="M65.6,108.6a5.253,5.253,0,0,0-1.373.009q-.729.055-1.454.134c-.969.105-1.935.232-2.9.388-.043.007-.043.074,0,.069.966-.1,1.933-.191,2.9-.254q.727-.047,1.456-.082a6.283,6.283,0,0,0,1.369-.131.07.07,0,0,0,0-.133" transform="translate(-33.868 -61.435)" fill="#263238"/>
              <path id="Trazado_873691" data-name="Trazado 873691" d="M65.988,118.152a3.649,3.649,0,0,0-1.236.074q-.66.085-1.322.164c-.882.1-1.764.208-2.649.281-.044,0-.042.072,0,.069.9-.07,1.8-.128,2.7-.206q.662-.057,1.323-.122A3.437,3.437,0,0,0,66,118.2a.024.024,0,0,0-.007-.044" transform="translate(-34.38 -66.848)" fill="#263238"/>
              <path id="Trazado_873692" data-name="Trazado 873692" d="M21.983,86.061l-7.536-4.789a81.17,81.17,0,0,1,7.039-8.623c3.015-2.952,5.15-2.82,3.682,3.13a88.152,88.152,0,0,1-3.186,10.282" transform="translate(-8.176 -40.047)" fill="#53bced"/>
              <path id="Trazado_873693" data-name="Trazado 873693" d="M17.3,92.648q1.68.859,3.316,1.8c.537.309,1.08.612,1.61.932.549.331,1.074.7,1.624,1.028.039.023.008.086-.033.063-.542-.3-1.105-.561-1.649-.857-.561-.305-1.11-.632-1.664-.951q-1.64-.943-3.231-1.966c-.03-.02-.007-.068.026-.051" transform="translate(-9.768 -52.432)" fill="#263238"/>
              <path id="Trazado_873694" data-name="Trazado 873694" d="M31.811,96.287c.356-1.27.883-2.485,1.316-3.731s.852-2.51,1.233-3.774c.01-.03.057-.021.049.01-.157.639-.3,1.285-.476,1.919-.089.315-.187.628-.288.94.065-.114.125-.23.194-.342a11.583,11.583,0,0,1,.668-.973c.013-.017.038,0,.029.02a11.737,11.737,0,0,1-.567,1.039c-.151.242-.312.477-.473.713-.059.181-.12.362-.179.543a21.47,21.47,0,0,1-1.439,3.659c-.019.035-.078.016-.066-.023" transform="translate(-18.002 -50.235)" fill="#263238"/>
              <path id="Trazado_873695" data-name="Trazado 873695" d="M21.091,108.24a22.051,22.051,0,0,0-5.212,3.651c-.033.035.008.088.045.059,1.112-.891,4.411-2.883,5.262-3.453.262-.175.457-.543-.095-.257" transform="translate(-8.98 -61.198)" fill="#263238"/>
              <path id="Trazado_873696" data-name="Trazado 873696" d="M85.767,108.371l-15.349.328,6.746-19.843,15.348-.328Z" transform="translate(-39.853 -50.102)" fill="#ebebeb"/>
              <path id="Trazado_873697" data-name="Trazado 873697" d="M88.187,108.32l-15.349.328,6.746-19.843,15.348-.328Z" transform="translate(-41.222 -50.073)" fill="#37474f"/>
              <path id="Trazado_873698" data-name="Trazado 873698" d="M90.705,88.182a1.361,1.361,0,0,1-.641.816c-.145.082-.188-.109-.045-.186a1.018,1.018,0,0,0,.434-.515.958.958,0,0,0,.033-.11.724.724,0,0,0,.015-.375.24.24,0,0,0-.089-.133.042.042,0,0,1-.01-.009c-.007,0-.016,0-.019-.008a.237.237,0,0,1-.029,0,.184.184,0,0,0-.108.011.434.434,0,0,0-.174.117.939.939,0,0,0-.148.208c-.025.036-.043.075-.065.115l-.009.026a.152.152,0,0,0-.018.039c0,.009-.01.017-.009.026l-.218,0a1.62,1.62,0,0,1,.2-.383.837.837,0,0,1,.582-.388.337.337,0,0,1,.35.306.9.9,0,0,1-.033.441" transform="translate(-50.712 -49.483)" fill="#c7c7c7"/>
              <path id="Trazado_873699" data-name="Trazado 873699" d="M93.473,88.123a1.361,1.361,0,0,1-.641.816c-.145.082-.188-.109-.045-.186a1.017,1.017,0,0,0,.434-.515.979.979,0,0,0,.033-.109.724.724,0,0,0,.015-.375.24.24,0,0,0-.089-.133.037.037,0,0,1-.01-.008c-.007,0-.016,0-.019-.008a.236.236,0,0,1-.029,0,.187.187,0,0,0-.108.011.431.431,0,0,0-.174.117.918.918,0,0,0-.149.208c-.025.036-.043.075-.065.115l-.009.026a.161.161,0,0,0-.018.04c0,.009-.01.017-.009.026l-.218,0a1.62,1.62,0,0,1,.2-.383.836.836,0,0,1,.582-.388.337.337,0,0,1,.35.306.9.9,0,0,1-.033.441" transform="translate(-52.279 -49.449)" fill="#c7c7c7"/>
              <path id="Trazado_873700" data-name="Trazado 873700" d="M96.24,88.063a1.361,1.361,0,0,1-.641.816c-.145.082-.188-.109-.045-.186a1.017,1.017,0,0,0,.434-.515.976.976,0,0,0,.033-.109.724.724,0,0,0,.015-.375.24.24,0,0,0-.089-.133.036.036,0,0,1-.01-.008c-.007,0-.016,0-.019-.008a.237.237,0,0,1-.029,0,.187.187,0,0,0-.108.011.436.436,0,0,0-.174.117.917.917,0,0,0-.149.208,1.318,1.318,0,0,0-.065.115l-.009.026a.162.162,0,0,0-.018.04c0,.009-.01.017-.009.026l-.218,0a1.62,1.62,0,0,1,.2-.383.834.834,0,0,1,.582-.388.337.337,0,0,1,.35.306.889.889,0,0,1-.033.441" transform="translate(-53.845 -49.415)" fill="#c7c7c7"/>
              <path id="Trazado_873701" data-name="Trazado 873701" d="M99.008,88a1.361,1.361,0,0,1-.641.816c-.145.082-.188-.109-.045-.186a1.018,1.018,0,0,0,.434-.515.977.977,0,0,0,.033-.109.724.724,0,0,0,.015-.375.239.239,0,0,0-.089-.133.042.042,0,0,1-.01-.009c-.007,0-.016,0-.019-.008a.236.236,0,0,1-.029,0,.187.187,0,0,0-.108.011.436.436,0,0,0-.174.117.918.918,0,0,0-.149.208c-.025.036-.043.075-.065.115l-.009.026a.162.162,0,0,0-.018.04c0,.009-.01.017-.009.026l-.218,0a1.632,1.632,0,0,1,.2-.384.836.836,0,0,1,.582-.387.337.337,0,0,1,.35.306.894.894,0,0,1-.033.441" transform="translate(-55.411 -49.382)" fill="#c7c7c7"/>
              <path id="Trazado_873702" data-name="Trazado 873702" d="M101.775,87.945a1.361,1.361,0,0,1-.641.816c-.145.082-.188-.109-.045-.186a1.017,1.017,0,0,0,.434-.515,1.078,1.078,0,0,0,.033-.109.724.724,0,0,0,.015-.375.24.24,0,0,0-.089-.133.037.037,0,0,1-.01-.008c-.007,0-.016,0-.019-.009a.186.186,0,0,1-.029,0,.187.187,0,0,0-.108.011.431.431,0,0,0-.174.117.918.918,0,0,0-.149.208,1.126,1.126,0,0,0-.065.115l-.009.026a.166.166,0,0,0-.018.039c0,.009-.01.018-.009.026l-.218,0a1.631,1.631,0,0,1,.2-.384.836.836,0,0,1,.582-.387.337.337,0,0,1,.35.306.9.9,0,0,1-.033.441" transform="translate(-56.977 -49.349)" fill="#c7c7c7"/>
              <path id="Trazado_873703" data-name="Trazado 873703" d="M104.543,87.886a1.361,1.361,0,0,1-.641.816c-.145.082-.188-.109-.045-.186a1.017,1.017,0,0,0,.434-.515,1.079,1.079,0,0,0,.033-.109.724.724,0,0,0,.015-.375.241.241,0,0,0-.089-.133.037.037,0,0,1-.01-.008c-.007,0-.016,0-.019-.008a.237.237,0,0,1-.029,0,.184.184,0,0,0-.108.011.434.434,0,0,0-.174.117.929.929,0,0,0-.148.208,1.215,1.215,0,0,0-.065.115l-.009.026a.161.161,0,0,0-.018.04c0,.009-.01.017-.009.026l-.218,0a1.615,1.615,0,0,1,.2-.384.836.836,0,0,1,.582-.387.337.337,0,0,1,.35.306.9.9,0,0,1-.033.441" transform="translate(-58.544 -49.315)" fill="#c7c7c7"/>
              <path id="Trazado_873704" data-name="Trazado 873704" d="M107.311,87.827a1.36,1.36,0,0,1-.641.816c-.145.082-.188-.109-.045-.186a1.018,1.018,0,0,0,.435-.515.981.981,0,0,0,.033-.109.724.724,0,0,0,.015-.375.241.241,0,0,0-.089-.133.037.037,0,0,1-.01-.008c-.007,0-.016,0-.019-.008a.236.236,0,0,1-.029,0,.187.187,0,0,0-.108.011.436.436,0,0,0-.174.117.918.918,0,0,0-.149.208c-.025.036-.043.075-.065.115l-.009.026a.162.162,0,0,0-.018.04c0,.009-.01.017-.009.026l-.218,0a1.605,1.605,0,0,1,.2-.383.836.836,0,0,1,.582-.388.337.337,0,0,1,.35.306.894.894,0,0,1-.033.441" transform="translate(-60.11 -49.282)" fill="#c7c7c7"/>
              <path id="Trazado_873705" data-name="Trazado 873705" d="M110.078,87.768a1.361,1.361,0,0,1-.641.816c-.145.082-.188-.109-.045-.186a1.017,1.017,0,0,0,.434-.515.952.952,0,0,0,.033-.109.724.724,0,0,0,.015-.375.24.24,0,0,0-.089-.133.042.042,0,0,1-.01-.009c-.007,0-.016,0-.019-.008a.236.236,0,0,1-.029,0,.184.184,0,0,0-.108.011.43.43,0,0,0-.174.117.918.918,0,0,0-.149.208,1.317,1.317,0,0,0-.065.115l-.009.026a.161.161,0,0,0-.018.04c0,.009-.01.017-.009.026l-.218,0a1.62,1.62,0,0,1,.2-.383.836.836,0,0,1,.582-.388.337.337,0,0,1,.35.306.9.9,0,0,1-.033.441" transform="translate(-61.676 -49.248)" fill="#c7c7c7"/>
              <path id="Trazado_873706" data-name="Trazado 873706" d="M112.846,87.709a1.361,1.361,0,0,1-.641.816c-.145.082-.188-.109-.045-.186a1.018,1.018,0,0,0,.434-.515.979.979,0,0,0,.033-.109.724.724,0,0,0,.015-.375.241.241,0,0,0-.089-.133.036.036,0,0,1-.01-.008c-.007,0-.016,0-.019-.009a.186.186,0,0,1-.029,0,.187.187,0,0,0-.108.011.436.436,0,0,0-.174.117.917.917,0,0,0-.149.208,1.215,1.215,0,0,0-.065.115l-.009.026a.161.161,0,0,0-.018.04c0,.009-.01.017-.009.026l-.218,0a1.632,1.632,0,0,1,.2-.384.836.836,0,0,1,.582-.387.337.337,0,0,1,.35.306.9.9,0,0,1-.033.441" transform="translate(-63.243 -49.215)" fill="#c7c7c7"/>
              <path id="Trazado_873707" data-name="Trazado 873707" d="M115.613,87.649a1.361,1.361,0,0,1-.641.816c-.145.082-.188-.109-.045-.186a1.018,1.018,0,0,0,.434-.515.981.981,0,0,0,.033-.109.724.724,0,0,0,.015-.375.241.241,0,0,0-.089-.133.036.036,0,0,1-.01-.008c-.007,0-.016,0-.019-.008a.237.237,0,0,1-.029,0,.187.187,0,0,0-.108.011.436.436,0,0,0-.174.117.918.918,0,0,0-.149.208,1.215,1.215,0,0,0-.065.115l-.009.026a.161.161,0,0,0-.018.04c0,.009-.01.017-.009.026l-.218,0a1.62,1.62,0,0,1,.2-.383.836.836,0,0,1,.582-.388.337.337,0,0,1,.35.306.9.9,0,0,1-.033.441" transform="translate(-64.809 -49.181)" fill="#c7c7c7"/>
              <path id="Trazado_873708" data-name="Trazado 873708" d="M118.382,87.59a1.361,1.361,0,0,1-.641.816c-.145.082-.188-.109-.045-.186a1.018,1.018,0,0,0,.434-.515.978.978,0,0,0,.033-.109.724.724,0,0,0,.015-.375.24.24,0,0,0-.089-.133.042.042,0,0,1-.01-.009c-.007,0-.016,0-.019-.008a.237.237,0,0,1-.029,0,.184.184,0,0,0-.108.011.43.43,0,0,0-.174.117.918.918,0,0,0-.149.208,1.217,1.217,0,0,0-.065.115l-.009.026a.161.161,0,0,0-.018.04c0,.009-.01.017-.009.026l-.217,0a1.6,1.6,0,0,1,.2-.383.836.836,0,0,1,.582-.388.337.337,0,0,1,.35.306.9.9,0,0,1-.033.441" transform="translate(-66.376 -49.148)" fill="#c7c7c7"/>
              <path id="Trazado_873709" data-name="Trazado 873709" d="M121.149,87.531a1.361,1.361,0,0,1-.641.816c-.145.082-.188-.109-.045-.186a1.017,1.017,0,0,0,.434-.515.982.982,0,0,0,.033-.109.724.724,0,0,0,.015-.375.24.24,0,0,0-.089-.133.036.036,0,0,1-.01-.008c-.007,0-.016,0-.019-.009a.186.186,0,0,1-.029,0,.187.187,0,0,0-.108.011.432.432,0,0,0-.174.117.919.919,0,0,0-.149.208c-.025.036-.043.075-.065.115l-.009.026a.161.161,0,0,0-.018.04c0,.009-.01.017-.009.026l-.218,0a1.6,1.6,0,0,1,.2-.383.836.836,0,0,1,.582-.388.337.337,0,0,1,.35.306.9.9,0,0,1-.033.441" transform="translate(-67.942 -49.114)" fill="#c7c7c7"/>
              <path id="Trazado_873710" data-name="Trazado 873710" d="M109.778,98.819c.725,1.7,2.634,3.844,2.743,5.211a1.573,1.573,0,0,1-.938,1.626,2.34,2.34,0,0,1,1.225,1.988c-.054.647-1.135,1.129-1.135,1.129a1.876,1.876,0,0,1,.878,1.744c-.129.886-1.193,1.236-1.193,1.236a2.241,2.241,0,0,1,.295,1.932c-.854,1.744-8.534,1.442-9.609-1.435-.5-1.34,1.371-1.165,1.371-1.165s-2.63-.9-2.609-2.488,2.44-1.209,2.44-1.209-2.541-.9-2.353-2.538c.2-1.708,2.551-.918,2.551-.918s-1.662-1.225-1.23-2.448c.713-2.02,3.845.679,5.549.345l1.041-2.746Z" transform="translate(-57.051 -55.926)" fill="#d3766a"/>
              <path id="Trazado_873711" data-name="Trazado 873711" d="M121.528,96.414c-.546-1.666,1.568-3.614,1.275-5.283-.4-2.257-3-.163-3.691,3.065l-.094,2.6Z" transform="translate(-67.357 -51.04)" fill="#d3766a"/>
              <path id="Trazado_873712" data-name="Trazado 873712" d="M114.4,127.623a.02.02,0,0,1,.006.04,13.334,13.334,0,0,1-7.893-.784c-.078-.036-.054-.178.039-.155a27.307,27.307,0,0,0,7.847.9" transform="translate(-60.256 -71.717)" fill="#263238"/>
              <path id="Trazado_873713" data-name="Trazado 873713" d="M114.668,119.853c.03,0,.033.048,0,.055a12.489,12.489,0,0,1-8.557-1.391c-.089-.054-.115-.192-.008-.137a22.475,22.475,0,0,0,8.564,1.473" transform="translate(-60.009 -66.989)" fill="#263238"/>
              <path id="Trazado_873714" data-name="Trazado 873714" d="M106.445,110.187a17.166,17.166,0,0,0,8.184,1.926c.037,0,.033.054,0,.062a11.24,11.24,0,0,1-4.671-.174,7.686,7.686,0,0,1-3.563-1.724c-.04-.035-.005-.119.049-.089" transform="translate(-60.204 -62.356)" fill="#263238"/>
              <path id="Trazado_873715" data-name="Trazado 873715" d="M40.256,58.212c.108.464,3.492,3.4,5.611,3.309.69-.033-.5-3.735-.5-3.735l.063-.279.879-3.9-4.581-2.95-.662-.39S40.9,51.347,40.7,52.7c-.01.063-.019.125-.028.192s-.026.148-.036.22c-.032.2-.064.408-.092.613-.022.156-.043.309-.06.474s-.038.326-.059.491a25.727,25.727,0,0,0-.17,3.523" transform="translate(-22.774 -28.447)" fill="#d3766a"/>
              <path id="Trazado_873716" data-name="Trazado 873716" d="M41.3,52.7a8.025,8.025,0,0,0,4.733,4.808l.879-3.9-4.581-2.95-.662-.391S41.5,51.348,41.3,52.7" transform="translate(-23.376 -28.447)" fill="#263238"/>
              <path id="Trazado_873717" data-name="Trazado 873717" d="M51.779,34.684c-.524,7-4.777,7.478-6.286,7.364-1.37-.1-6.023-.632-6.226-7.651s3.219-8.988,6.366-8.916,6.671,2.2,6.147,9.2" transform="translate(-22.218 -14.42)" fill="#d3766a"/>
              <path id="Trazado_873718" data-name="Trazado 873718" d="M38.59,32.752c1.649.283,2.059-2.323,2.059-2.323s1.9.134,2.529-2.867a4.64,4.64,0,0,0,3.084,2.755c.525.166-1.051-1.52-1.051-1.52s1.842,2.3,5.969,2.213c.292-.007.374-4.331-2.535-6.283A6.762,6.762,0,0,0,40.5,24.8,3.864,3.864,0,0,0,38,27.448c-.613,2.139-.052,5.195.589,5.3" transform="translate(-21.357 -13.245)" fill="#263238"/>
              <path id="Trazado_873719" data-name="Trazado 873719" d="M38.372,43.672s-1.161-2.409-2.23-2.029-.442,3.7.641,4.317a1.187,1.187,0,0,0,1.672-.375Z" transform="translate(-20.141 -23.545)" fill="#d3766a"/>
              <path id="Trazado_873720" data-name="Trazado 873720" d="M37.308,43.877c-.018,0-.026.021-.011.03a3,3,0,0,1,1.23,2.1.656.656,0,0,0-.939-.334c-.023.012-.009.048.015.047a.73.73,0,0,1,.752.381,3.5,3.5,0,0,1,.276.7c.026.078.163.061.149-.027,0-.007,0-.013,0-.02.188-1.027-.378-2.6-1.468-2.882" transform="translate(-21.104 -24.832)" fill="#263238"/>
              <path id="Trazado_873721" data-name="Trazado 873721" d="M64.072,42.422a4.531,4.531,0,0,1-.456-.166A.785.785,0,0,1,63.184,42a.25.25,0,0,1,.043-.3.62.62,0,0,1,.625-.058.91.91,0,0,1,.52.4.266.266,0,0,1-.3.384" transform="translate(-35.739 -23.534)" fill="#263238"/>
              <path id="Trazado_873722" data-name="Trazado 873722" d="M54.61,41.067a4.744,4.744,0,0,0,.484-.033.784.784,0,0,0,.487-.127.25.25,0,0,0,.042-.3.619.619,0,0,0-.584-.229.911.911,0,0,0-.611.239.266.266,0,0,0,.181.452" transform="translate(-30.758 -22.85)" fill="#263238"/>
              <path id="Trazado_873723" data-name="Trazado 873723" d="M55.8,46.334c0-.019-.04.018-.042.038-.041.477-.168,1.016-.616,1.122-.014,0-.015.027,0,.027.533-.012.695-.729.657-1.187" transform="translate(-31.199 -26.22)" fill="#263238"/>
              <path id="Trazado_873724" data-name="Trazado 873724" d="M54.9,45.07c-.757-.148-1,1.377-.3,1.514s.931-1.39.3-1.514" transform="translate(-30.664 -25.501)" fill="#263238"/>
              <path id="Trazado_873725" data-name="Trazado 873725" d="M53.921,44.916c-.147.065-.3.2-.464.188-.188-.011-.3-.193-.4-.365-.01-.018-.026-.007-.029.013-.05.292.015.609.321.7.279.085.525-.142.645-.424.022-.053-.013-.14-.072-.114" transform="translate(-30.002 -25.314)" fill="#263238"/>
              <path id="Trazado_873726" data-name="Trazado 873726" d="M62.451,47.2c.007-.017.033.028.03.048-.093.469-.121,1.022.28,1.25.012.007.007.03-.008.026-.509-.159-.465-.893-.3-1.323" transform="translate(-35.281 -26.713)" fill="#263238"/>
              <path id="Trazado_873727" data-name="Trazado 873727" d="M63,46.233c.768.068.576,1.6-.136,1.537s-.508-1.594.136-1.537" transform="translate(-35.326 -26.164)" fill="#263238"/>
              <path id="Trazado_873728" data-name="Trazado 873728" d="M64.343,46.546c.111.1.212.259.355.287.166.032.311-.118.438-.263.013-.015.023,0,.022.02-.029.294-.164.586-.453.607-.263.019-.42-.256-.453-.556-.006-.056.046-.132.09-.094" transform="translate(-36.363 -26.337)" fill="#263238"/>
              <path id="Trazado_873729" data-name="Trazado 873729" d="M55.26,55.114c.089.133.17.306.338.356a1.267,1.267,0,0,0,.528-.015.017.017,0,0,1,.015.028.644.644,0,0,1-.647.133.508.508,0,0,1-.284-.49c0-.029.036-.031.05-.012" transform="translate(-31.246 -31.184)" fill="#263238"/>
              <path id="Trazado_873730" data-name="Trazado 873730" d="M58.207,45.805s-.005.721-.054,1.054c0,.031-.088.034-.2.024-.006,0-.009,0-.013,0a1.6,1.6,0,0,1-1.453-.816c-.018-.036.029-.064.056-.039a2.412,2.412,0,0,0,1.387.625c.037-.089-.032-1.235.021-1.231a2.959,2.959,0,0,1,.732.282c.055-1.5-.132-3-.055-4.494a.046.046,0,0,1,.09-.009,24.341,24.341,0,0,1,.265,4.838c0,.194-.65-.157-.775-.233" transform="translate(-31.965 -23.298)" fill="#263238"/>
              <path id="Trazado_873731" data-name="Trazado 873731" d="M57.473,53.01a1.725,1.725,0,0,1-.742.462.78.78,0,0,1-.472-.019c-.33-.124-.306-.436-.217-.7a1.854,1.854,0,0,1,.194-.392,2.234,2.234,0,0,0,1.237.646" transform="translate(-31.684 -29.635)" fill="#263238"/>
              <path id="Trazado_873732" data-name="Trazado 873732" d="M56.731,53.983a.78.78,0,0,1-.472-.019c-.33-.124-.306-.436-.217-.7a.8.8,0,0,1,.689.715" transform="translate(-31.684 -30.147)" fill="#ff9cbd"/>
              <path id="Trazado_873733" data-name="Trazado 873733" d="M50.561,25.339a19.392,19.392,0,0,0-7.312.807,35.85,35.85,0,0,0-5.783,3.922c-.185.153-1.106-7.248,4.893-8.6,6.537-1.471,8.2,3.869,8.2,3.869" transform="translate(-21.113 -12.006)" fill="#53bced"/>
              <path id="Trazado_873734" data-name="Trazado 873734" d="M38.471,30.884s3.967-5.233,6.171-6.428,7.141-1.87,10.193-.527c2.38,1.047-3.43,4.11-3.43,4.11a1.653,1.653,0,0,0-.927-1.151c-1.487-.589-4.309-.135-5.918.405-2.024.681-6.089,3.59-6.089,3.59" transform="translate(-21.772 -13.124)" fill="#0d66bf"/>
              <path id="Trazado_873736" data-name="Trazado 873736" d="M44.079,67.137l-.948,3.209L38.919,66.8l-.969,1.358s4.347,5.856,4.344,5.573l1.021-2.785,2.015,1.679-.591-4.639Z" transform="translate(-21.477 -37.805)" fill="#53bced"/>
              <path id="Trazado_873737" data-name="Trazado 873737" d="M45.408,71.882c-.123-.763-.226-1.534-.385-2.29-.006-.027-.049-.035-.053,0a42.62,42.62,0,0,0,.467,4.373l-.009-.007c-.085-.073-1.859-1.469-1.873-1.443-.236.449-.987,2.478-1.034,2.66-.688-.93-3.305-4.3-4.1-5.168a.027.027,0,0,0-.043.031c.624.992,4.1,5.537,4.14,5.519a30.166,30.166,0,0,0,1.065-2.943A20.415,20.415,0,0,0,45.7,74.4a24.217,24.217,0,0,0-.29-2.521" transform="translate(-21.719 -39.372)" fill="#263238"/>
            </g>
          </g>
        </g>
      </g>
    </g>
  </g>
</svg>
