<svg xmlns="http://www.w3.org/2000/svg" width="61.929" height="47.646" viewBox="0 0 61.929 47.646">
  <g id="Grupo_1100660" data-name="Grupo 1100660" transform="translate(-705.496 -4367.759)">
    <g id="computer" transform="translate(704.224 4366.39)">
      <path id="Trazado_169106" data-name="Trazado 169106" d="M57,10.887H90.226a2.527,2.527,0,0,1,2.527,2.527V51.47H37.8V13.413a2.527,2.527,0,0,1,2.527-2.527h6.627" transform="translate(-33.039 -9.517)" fill="#ff725d"/>
      <path id="Trazado_169107" data-name="Trazado 169107" d="M70.645,43.488H117.33V76.095H70.645Zm0,0" transform="translate(-61.751 -38.014)" fill="#53bced"/>
      <path id="Trazado_169108" data-name="Trazado 169108" d="M10.1,333.262H72.034v7.063H10.1Zm0,0" transform="translate(-8.833 -291.309)" fill="#636363"/>
      <path id="Trazado_169109" data-name="Trazado 169109" d="M120.141,132.441h12.052v8.55H120.141Zm0,0" transform="translate(-105.016 -115.769)" fill="#ff725d"/>
      <path id="Trazado_169110" data-name="Trazado 169110" d="M151.156,160.32h4.128v5.04h-4.126Zm0,0" transform="translate(-132.127 -140.138)" fill="#53bced"/>
      <path id="Trazado_169111" data-name="Trazado 169111" d="M114.643,86.605l-7.619,5.77H122.24Zm0,0" transform="translate(-93.551 -75.703)" fill="#ff725d"/>
      <path id="Trazado_169112" data-name="Trazado 169112" d="M119.137,228.129h4.215v4.215h-4.215Zm0,0" transform="translate(-104.139 -199.41)" fill="#ff725d"/>
      <path id="Trazado_169113" data-name="Trazado 169113" d="M182.23,228.129h4.215v4.215H182.23Zm0,0" transform="translate(-159.289 -199.41)" fill="#ff725d"/>
      <path id="Trazado_169114" data-name="Trazado 169114" d="M267.039,205.723h17.69v7.1h-17.69Zm0,0" transform="translate(-233.421 -179.825)" fill="#ff725d"/>
      <path id="Trazado_169117" data-name="Trazado 169117" d="M198.06,351.418H183.334a1.264,1.264,0,0,0,0,2.527H198.06a1.264,1.264,0,1,0,0-2.527Zm0,0" transform="translate(-159.15 -307.179)" fill="#e8e8e8"/>
      <path id="Trazado_169119" data-name="Trazado 169119" d="M346.821,79.064a1.274,1.274,0,0,0,.29-.033l.047-.011a1.263,1.263,0,1,0-.577-2.46l-.047.011a1.263,1.263,0,0,0,.287,2.494Zm0,0" transform="translate(-302.056 -66.892)" fill="#ffddd8"/>
      <path id="Trazado_169121" data-name="Trazado 169121" d="M258.2,79.094h6.192a1.264,1.264,0,0,0,0-2.527H258.2a1.264,1.264,0,0,0,0,2.527Zm0,0" transform="translate(-224.589 -66.931)" fill="#ffddd8"/>
      <path id="Trazado_169122" data-name="Trazado 169122" d="M275.887,114.711H258.2a1.264,1.264,0,0,0,0,2.527h17.69a1.264,1.264,0,0,0,0-2.527Zm0,0" transform="translate(-224.589 -100.271)" fill="#ffddd8"/>
      <path id="Trazado_169123" data-name="Trazado 169123" d="M275.887,152.293H258.2a1.264,1.264,0,1,0,0,2.527h17.69a1.264,1.264,0,0,0,0-2.527Zm0,0" transform="translate(-224.589 -133.121)" fill="#ffddd8"/>
    </g>
  </g>
</svg>
