<svg xmlns="http://www.w3.org/2000/svg" width="70.983" height="71.029" viewBox="0 0 70.983 71.029">
  <g id="Grupo_1100661" data-name="Grupo 1100661" transform="translate(-694.954 -4539.029)">
    <g id="curso2-1-acord5.f9842f5f" transform="translate(694.957 4539.035)">
      <g id="Grupo_110415" data-name="Grupo 110415" transform="translate(1.041 1.039)">
        <g id="Grupo_110414" data-name="Grupo 110414" transform="translate(0 0)">
          <g id="Grupo_110410" data-name="Grupo 110410" transform="translate(0 15.517)">
            <path id="Trazado_169127" data-name="Trazado 169127" d="M76.405,147.658a8.973,8.973,0,0,1-8.976,8.969H19.73A12.219,12.219,0,0,1,7.5,144.4q0-.526.044-1.04a12.237,12.237,0,0,1,19.671-8.638,18.629,18.629,0,0,1,16.19-15.187c.415-.047.835-.08,1.257-.1q.437-.021.88-.021a18.613,18.613,0,0,1,18.619,18.607c0,.438-.016.872-.045,1.3a8.98,8.98,0,0,1,12.3,8.336Z" transform="translate(-7.5 -119.415)" fill="#b2e7ff"/>
            <g id="Grupo_110409" data-name="Grupo 110409" transform="translate(14.47 28.245)">
              <ellipse id="Elipse_5804" data-name="Elipse 5804" cx="2.08" cy="2.077" rx="2.08" ry="2.077" transform="translate(0 0)" fill="#ffdc39"/>
              <ellipse id="Elipse_5805" data-name="Elipse 5805" cx="2.08" cy="2.077" rx="2.08" ry="2.077" transform="translate(17.902 0)" fill="#ffdc39"/>
              <ellipse id="Elipse_5806" data-name="Elipse 5806" cx="2.08" cy="2.077" rx="2.08" ry="2.077" transform="translate(35.805 0)" fill="#ffdc39"/>
            </g>
          </g>
          <g id="Grupo_110411" data-name="Grupo 110411" transform="translate(22.81 64.755)">
            <ellipse id="Elipse_5807" data-name="Elipse 5807" cx="2.08" cy="2.077" rx="2.08" ry="2.077" transform="translate(0 0)" fill="#53bced"/>
            <ellipse id="Elipse_5808" data-name="Elipse 5808" cx="2.08" cy="2.077" rx="2.08" ry="2.077" transform="translate(19.125 0)" fill="#53bced"/>
          </g>
          <g id="Grupo_110412" data-name="Grupo 110412" transform="translate(9.756)">
            <ellipse id="Elipse_5809" data-name="Elipse 5809" cx="2.08" cy="2.077" rx="2.08" ry="2.077" transform="translate(22.616)" fill="#ffdc39"/>
            <ellipse id="Elipse_5810" data-name="Elipse 5810" cx="2.08" cy="2.077" rx="2.08" ry="2.077" transform="translate(0)" fill="#ffdc39"/>
            <ellipse id="Elipse_5811" data-name="Elipse 5811" cx="2.08" cy="2.077" rx="2.08" ry="2.077" transform="translate(45.166)" fill="#ffdc39"/>
          </g>
          <g id="Grupo_110413" data-name="Grupo 110413" transform="translate(22.81 3.496)">
            <ellipse id="Elipse_5812" data-name="Elipse 5812" cx="2.08" cy="2.077" rx="2.08" ry="2.077" transform="translate(0 0)" fill="#53bced"/>
            <ellipse id="Elipse_5813" data-name="Elipse 5813" cx="2.08" cy="2.077" rx="2.08" ry="2.077" transform="translate(19.125 0)" fill="#53bced"/>
          </g>
        </g>
      </g>
      <g id="Grupo_110416" data-name="Grupo 110416" transform="translate(-0.002 -0.005)">
        <path id="Trazado_169129" data-name="Trazado 169129" d="M14.314,236.246a1.04,1.04,0,0,0-1.04-1.04,11.188,11.188,0,0,1-4.631-21.375,1.04,1.04,0,1,0-.86-1.893,13.267,13.267,0,0,0,5.493,25.348,1.04,1.04,0,0,0,1.039-1.04Z" transform="translate(0.002 -182.467)" fill="#ff725d"/>
        <path id="Trazado_169130" data-name="Trazado 169130" d="M82.4,32.051a17.589,17.589,0,0,1,32.843-5.113,1.04,1.04,0,1,0,1.836-.976,19.777,19.777,0,0,0-2.015-3.067V9.034l2.515-2.993A3.121,3.121,0,1,0,115.984,4.7L113.226,7.99a1.04,1.04,0,0,0-.244.669V20.67a19.615,19.615,0,0,0-6.26-3.862V9.55a3.119,3.119,0,1,0-2.08,0v6.6a19.833,19.833,0,0,0-7.483-.463V6.055a3.119,3.119,0,1,0-2.08,0V16.066a19.63,19.63,0,0,0-7.485,3.6V9.55a3.119,3.119,0,1,0-2.08,0v12a19.541,19.541,0,0,0-4.825,8.6,13.154,13.154,0,0,0-1.5-.77V8.655a1.04,1.04,0,0,0-.244-.669L76.187,4.7a3.117,3.117,0,1,0-1.593,1.336l2.515,2.993V28.667A13.364,13.364,0,0,0,73.9,28.28a1.04,1.04,0,1,0,0,2.08,11.092,11.092,0,0,1,6.842,2.331,1.04,1.04,0,0,0,1.659-.64Zm36.27-29.972a1.037,1.037,0,1,1-1.04,1.037A1.037,1.037,0,0,1,118.668,2.079ZM105.68,5.574a1.037,1.037,0,1,1-1.04,1.037,1.037,1.037,0,0,1,1.04-1.037Zm-9.562-3.5a1.037,1.037,0,1,1-1.04,1.037,1.037,1.037,0,0,1,1.04-1.037Zm-9.563,3.5a1.037,1.037,0,1,1-1.04,1.037,1.037,1.037,0,0,1,1.04-1.037ZM72.462,3.116A1.04,1.04,0,1,1,73.5,4.153a1.04,1.04,0,0,1-1.04-1.037Z" transform="translate(-60.622 0.005)" fill="#ff725d"/>
        <path id="Trazado_169131" data-name="Trazado 169131" d="M410.033,220.854a10.031,10.031,0,0,0-2.236.251,19.738,19.738,0,0,0-.5-4.29,1.04,1.04,0,1,0-2.027.465,17.657,17.657,0,0,1,.445,3.945c0,.406-.015.821-.043,1.232a1.04,1.04,0,0,0,1.422,1.038,7.931,7.931,0,1,1,2.936,15.3h-3.41a1.04,1.04,0,1,0,0,2.08h3.41a10.007,10.007,0,1,0,0-20.014Z" transform="translate(-349.058 -186.053)" fill="#ff725d"/>
        <path id="Trazado_169132" data-name="Trazado 169132" d="M289.193,380.343h-9.638a1.04,1.04,0,0,0,0,2.08h4.362v10.119a3.119,3.119,0,1,0,2.08,0V382.423h3.2a1.04,1.04,0,0,0,0-2.08Zm-4.236,16.174A1.037,1.037,0,1,1,286,395.48a1.037,1.037,0,0,1-1.04,1.037Z" transform="translate(-239.897 -327.605)" fill="#ff725d"/>
        <path id="Trazado_169133" data-name="Trazado 169133" d="M160.677,380.343h-9.469a1.04,1.04,0,0,0,0,2.08h3.031v10.119a3.119,3.119,0,1,0,2.08,0V382.423h4.362a1.04,1.04,0,1,0,0-2.08Zm-5.4,16.174a1.037,1.037,0,1,1,1.04-1.037A1.037,1.037,0,0,1,155.279,396.517Z" transform="translate(-129.345 -327.605)" fill="#ff725d"/>
        <path id="Trazado_169134" data-name="Trazado 169134" d="M91.538,315.637a3.117,3.117,0,0,0-1.04,6.055v14.213l-4.4,5.249a1.04,1.04,0,1,0,1.591,1.337l4.648-5.539a1.04,1.04,0,0,0,.244-.668V321.693a3.117,3.117,0,0,0-1.04-6.055Zm0,4.154a1.037,1.037,0,1,1,1.04-1.037A1.037,1.037,0,0,1,91.538,319.791Z" transform="translate(-73.945 -271.87)" fill="#ff725d"/>
        <path id="Trazado_169135" data-name="Trazado 169135" d="M236.619,315.637a3.117,3.117,0,0,0-1.04,6.055v20.13a1.04,1.04,0,0,0,2.08,0v-20.13a3.117,3.117,0,0,0-1.04-6.055Zm0,4.154a1.037,1.037,0,1,1,1.04-1.037A1.037,1.037,0,0,1,236.619,319.791Z" transform="translate(-201.123 -271.87)" fill="#ff725d"/>
        <path id="Trazado_169136" data-name="Trazado 169136" d="M366.778,335.9V321.692a3.119,3.119,0,1,0-2.08,0v14.591a1.04,1.04,0,0,0,.244.669l4.649,5.539a1.04,1.04,0,1,0,1.593-1.337Zm-1.04-18.188a1.037,1.037,0,1,1-1.04,1.037A1.037,1.037,0,0,1,365.738,317.716Z" transform="translate(-312.34 -271.869)" fill="#ff725d"/>
      </g>
    </g>
  </g>
</svg>
